<?xml version="1.0" encoding="utf-8"?>
<!-- Generator: Adobe Illustrator 16.0.0, SVG Export Plug-In . SVG Version: 6.00 Build 0)  -->
<!DOCTYPE svg PUBLIC "-//W3C//DTD SVG 1.1//EN" "http://www.w3.org/Graphics/SVG/1.1/DTD/svg11.dtd">
<svg version="1.1" id="Layer_1" xmlns="http://www.w3.org/2000/svg" xmlns:xlink="http://www.w3.org/1999/xlink" x="0px" y="0px"
	 width="17.986px" height="24.667px" viewBox="0 0 17.986 24.667" enable-background="new 0 0 17.986 24.667" xml:space="preserve">
<g>
	<g>
		<defs>
			<rect id="SVGID_1_" width="18.167" height="24.667"/>
		</defs>
		<clipPath id="SVGID_2_">
			<use xlink:href="#SVGID_1_"  overflow="visible"/>
		</clipPath>
		<path clip-path="url(#SVGID_2_)" fill="#005581" d="M3.645,10.212c-0.275,0-0.461,0.028-0.559,0.054v1.769
			c0.113,0.026,0.258,0.035,0.452,0.035c0.722,0,1.163-0.364,1.163-0.978C4.701,10.542,4.32,10.212,3.645,10.212L3.645,10.212z
			 M3.645,10.212"/>
		<path clip-path="url(#SVGID_2_)" fill="#005581" d="M12.611,0H0v24.655h17.986V7.312l-6.389-4.412L12.611,0z M5.494,12.48
			c-0.463,0.436-1.146,0.631-1.947,0.631c-0.178,0-0.338-0.009-0.461-0.027v2.142H1.743V9.315C2.16,9.244,2.748,9.191,3.574,9.191
			c0.836,0,1.431,0.159,1.83,0.48c0.383,0.301,0.641,0.8,0.641,1.386C6.045,11.645,5.85,12.142,5.494,12.48L5.494,12.48z
			 M13.092,9.235h3.664v1.11h-2.303v1.369h2.15v1.103h-2.15v2.409h-1.361V9.235z M12.204,12.088c0,1.147-0.417,1.938-0.995,2.427
			c-0.631,0.524-1.591,0.773-2.764,0.773c-0.703,0-1.201-0.044-1.538-0.089V9.315c0.497-0.08,1.146-0.124,1.83-0.124
			c1.139,0,1.876,0.205,2.454,0.64C11.813,10.293,12.204,11.031,12.204,12.088L12.204,12.088z M12.204,12.088"/>
		<path clip-path="url(#SVGID_2_)" fill="#005581" d="M13.874,0L13.051,2.35l4.936,3.407L13.874,0z M13.874,0"/>
	</g>
	<path fill="#005581" d="M8.88,10.231c-0.302,0-0.497,0.026-0.614,0.053v3.921c0.117,0.026,0.303,0.026,0.472,0.026
		c1.227,0.009,2.026-0.667,2.026-2.098C10.773,10.888,10.045,10.231,8.88,10.231L8.88,10.231z M8.88,10.231"/>
</g>
</svg>
