<svg xmlns="http://www.w3.org/2000/svg" xmlns:xlink="http://www.w3.org/1999/xlink" width="14.853" height="20.097" viewBox="0 0 14.853 20.097"><defs><path id="a" d="M43-506.956h15.229v20.053H43z"/></defs><clipPath id="b"><use xlink:href="#a" overflow="visible"/></clipPath><path opacity=".9" clip-path="url(#b)" fill="#fff" d="M57.856-500.574c0-3.548-3.327-6.426-7.428-6.426-4.103 0-7.429 2.878-7.429 6.426 0 3.063 5.533 11.247 7.049 13.432a.459.459 0 0 0 .38.186.46.46 0 0 0 .379-.186c1.516-2.183 7.049-10.369 7.049-13.432zm-7.427 4.972c-3.169 0-5.749-2.231-5.749-4.973s2.58-4.973 5.749-4.973 5.747 2.23 5.747 4.973c0 2.742-2.578 4.973-5.747 4.973zm0 0"/><defs><path id="c" d="M0 .044h15.229v20.052H0z"/></defs><clipPath id="d"><use xlink:href="#c" overflow="visible"/></clipPath><path opacity=".9" clip-path="url(#d)" fill="#fff" d="M14.856 6.426C14.856 2.878 11.529 0 7.429 0 3.326 0 0 2.878 0 6.426c0 3.063 5.533 11.247 7.049 13.433a.462.462 0 0 0 .38.186.46.46 0 0 0 .379-.186c1.515-2.184 7.048-10.37 7.048-13.433zm-7.427 4.972c-3.169 0-5.749-2.231-5.749-4.973s2.58-4.973 5.749-4.973 5.747 2.23 5.747 4.973c0 2.742-2.578 4.973-5.747 4.973zm0 0"/></svg>