<svg xmlns="http://www.w3.org/2000/svg" width="185.151" height="51.05" viewBox="92.575 25.525 185.151 51.05"><path fill="#00467F" d="M153.475 75.975c-4.35 0-4.649-2.3-4.649-4.648v-7.95h2.399v9.149c0 1.199.4 2.551 2.25 2.551 2-.051 2.101-1.4 2.101-2.551v-8.351c0-1.25-.25-2-.601-3.2-.5-1.85-1.1-2.85-2-4.55l-2.399-4.55c-.8-1.5-1.101-2.45-1.399-4.05-.351-1.601-.351-2.601-.351-4.2v-1.85c0-2.301.351-4.601 4.55-4.601 4.35 0 4.6 2.351 4.6 4.65v7.1h-2.399v-8.45c0-1.199-.25-2.5-2.101-2.5-2 .051-2.25 1.351-2.25 2.5v2.5c0 1.65.051 2.65.4 4.351.35 1.5.65 2.399 1.4 3.85l2.3 4.351c.5 1.051 1.351 2.5 1.851 4.101.551 1.7.85 2.5.85 4.5v7.3c-.002 2.248-.302 4.498-4.552 4.548zm18.7-.25h-2.399v-19.75h-4.301v19.75h-2.399v-34c0-2.35.351-4.649 4.649-4.649 4.25 0 4.45 2.3 4.45 4.6v34.049zm-2.4-21.3v-14c0-1.149-.101-2.45-2.101-2.5-1.851 0-2.149 1.3-2.149 2.5v14h4.25zm14.4 6.1v-23.3h2.399v38.45h-2.399v-7.3l-4.351-20.65v27.95h-2.399v-38.45h2.149l4.601 23.3zm16-21.85h-3.601v37.05h-2.45v-37.05h-3.5v-1.399h9.5v1.399h.051zm13.25 37.05h-2.399v-19.75h-4.301v19.75h-2.449v-34c0-2.35.35-4.649 4.649-4.649 4.25 0 4.449 2.3 4.449 4.6v34.05h.051v-.001zm-2.4-21.3v-14c0-1.149-.101-2.45-2.101-2.5-1.851 0-2.149 1.3-2.149 2.5v14h4.25zm24.15 8.95v8.75c0 2.148-1.101 3.898-4.5 3.898s-4.649-1.648-4.649-3.75v-30.5c0-2.35.35-4.649 4.649-4.649 4.25 0 4.5 2.3 4.5 4.601v7.25h-2.45v-8.5c0-1.15-.101-2.451-2.05-2.5-1.899 0-2.25 1.299-2.25 2.5v32.649c0 1 .851 1.899 2.25 1.899 1.399-.051 2.05-.851 2.05-1.851v-9.8h2.45v.003zm12.1 12.35v-16.3c0-1.149-.15-2.3-.9-2.8-.75-.55-1.3-.7-2.25-.7h-1.05v19.8h-2.45v-38.4h4.301c.649 0 2.449.1 3.6.95 1.201.85 1.201 2.05 1.201 3.399v10.25c0 .7-.102 1.2-.602 1.851-.55.699-1.898 1.399-2 1.449.102.051 1.2.65 1.7 1.2.851.9.899 1.8.899 2.851v16.399h-2.449v.051zm-.95-37c-.45-.199-1.101-.35-1.8-.35h-1.45v16.5h1.149c1.051 0 2.051-.45 2.5-1 .399-.4.601-1.65.601-2.65v-10.3c-.05-1.1-.2-1.85-1-2.2zm10.8 34.4c0 1 .7 1.85 2.102 1.85 1.35 0 2.049-.898 2.049-1.898V37.275h2.451v34.951c0 2.101-1.102 3.75-4.5 3.75-3.4 0-4.551-1.75-4.551-3.899v-34.8h2.449v35.848zm17.25-34.45h-5.25v-1.45h8.25l-5.699 36.9h6.051v1.6h-9l5.648-37.05zm-120.6-7.35c0 .7-.051 1.399-.551 2-.5.6-1.199.8-1.949.8-.7 0-1.45-.15-1.95-.7-.55-.6-.55-1.35-.55-2.1v-4.6h.899v4.6c0 .45 0 1.05.3 1.399.301.45.9.551 1.4.551.45 0 1-.15 1.3-.5.351-.4.351-.95.351-1.45v-4.6h.75v4.6zm7.1 2.7h-.9l-3.699-6.351v6.351h-.75v-7.3h1.149l3.45 5.95v-5.95h.75v7.3zm1.75 0v-7.3h.9v7.3h-.9zm5.25 0h-.85l-2.45-7.3h.95l2.05 6 2-6h.8l-2.5 7.3zm8.15 0h-4.7v-7.3h4.601v.8h-3.699v2.3h2.949v.75h-2.949v2.649h3.799v.801h-.001zm5.5 0l-1.351-3.15h-2v3.15h-.899v-7.3h2.75c.6 0 1.149.05 1.649.45.5.35.8 1 .8 1.6 0 .85-.5 1.65-1.35 1.85l1.45 3.4h-1.049zm-1.65-3.9c.5 0 .9-.05 1.25-.4.25-.25.35-.6.35-.95 0-.4-.149-.8-.5-1-.3-.2-.649-.25-1-.25h-1.8v2.6h1.7zm4.35 1.75c.301 1 1.15 1.5 2.149 1.5.45 0 .95-.1 1.301-.35.3-.2.449-.601.449-.95 0-.75-.601-1.05-1.25-1.2l-1.199-.3c-.5-.101-.95-.25-1.3-.6-.4-.35-.6-.85-.6-1.35 0-1.4 1.199-2 2.5-2 1.199 0 2.199.6 2.6 1.8l-.85.2c-.15-.8-1-1.3-1.801-1.3-.699 0-1.55.35-1.55 1.15 0 .8.649 1 1.3 1.15l1.101.25c.5.1.95.25 1.351.55.449.351.699.851.699 1.45 0 .65-.3 1.25-.8 1.65-.55.399-1.25.55-1.899.55-1.5 0-2.449-.65-2.949-2.05l.748-.15zm6.25 2.15v-7.3h.899v7.3h-.899zm4.95 0h-.899v-6.5h-2.051v-.8h5.051v.8h-2.051v6.5h-.05zm5.65-3.1v3.101h-.899v-3.051l-2.449-4.2h1.049l1.951 3.35 1.949-3.35h.85l-2.451 4.15zm6-.5c0-1.8.899-3.8 3-3.8 2.05 0 3 1.85 3 3.65 0 1.8-.899 3.85-3 3.85s-3-1.9-3-3.7zm5.05-.1c0-.65-.1-1.4-.449-2-.351-.55-.9-1-1.551-1-1.6 0-2.05 1.75-2.05 3.05 0 1.25.5 2.95 2.05 2.95 1.5.05 2-1.75 2-3zm2.3 3.7v-7.3h4.449v.8h-3.55v2.3h2.949v.75h-2.949v3.45h-.899zm13.55-2.3c-.351 1.4-1.149 2.4-2.699 2.4-2.101 0-2.95-2.05-2.95-3.85 0-1.9.95-3.7 3.05-3.7 1.45 0 2.352 1 2.65 2.35l-.851.15c-.25-.9-.7-1.7-1.801-1.7-1.601 0-2 1.7-2 3 0 .55.101 1.3.351 1.8.301.65.851 1.15 1.649 1.15 1.101 0 1.649-.851 1.851-1.8l.75.2zm6.35 2.3h-.95l-.75-2.15h-2.699l-.65 2.15h-.75l2.351-7.3h1.051l2.397 7.3zm-3-6.35l-1.149 3.5h2.25l-1.101-3.5zm8.3 6.35h-4.3v-7.3h.899v6.5h3.399l.002.8zm1 0v-7.3h.9v7.3h-.9zm2.75 0v-7.3h4.45v.8h-3.55v2.3h2.949v.75h-2.949v3.45h-.9zm4.7-3.6c0-1.8.899-3.8 3-3.8 2.05 0 3 1.85 3 3.65 0 1.8-.899 3.85-3 3.85-2.05 0-3-1.9-3-3.7zm5.05-.1c0-.65-.1-1.4-.449-2-.351-.55-.9-1-1.551-1-1.648 0-2.05 1.75-2.05 3.05 0 1.25.5 2.95 2.05 2.95 1.55.05 2-1.75 2-3zm6.6 3.7l-1.351-3.15h-2v3.15h-.899v-7.3h2.75c.601 0 1.149.05 1.649.45.5.35.801 1 .801 1.6 0 .85-.5 1.65-1.351 1.85l1.449 3.4h-1.048zm-1.65-3.9c.5 0 .899-.05 1.25-.4.25-.25.351-.6.351-.95 0-.4-.15-.8-.5-1-.301-.25-.601-.25-1-.25h-1.801v2.6h1.7zm9.3 3.9h-.898l-3.701-6.351v6.351h-.75v-7.3h1.15l3.449 5.95v-5.95h.75v7.3zm1.75 0v-7.3h.9v7.3h-.9zm7.7 0h-.95l-.75-2.15h-2.699l-.65 2.15h-.699l2.351-7.3h1.05l2.347 7.3zm-2.95-6.35l-1.148 3.5h2.25l-1.102-3.5zm-138.65 24.05s-.399-.399-1.1-1.199c.05-.301.1-.7.15-1.2l.05-.8-.351.149c-.1.05-.399.4-.8.851-.8-.851-1.851-1.95-3.101-3.25v-3.4c2.4 1.8 4.4 3.25 4.4 3.25.149.1.25-.1.1-.25-.85-.65-2.5-1.9-4.5-3.35v-1.95c0-.25 0-.75-.25-.601-.45.301-2.551-.1-2.6-.05-.201.05-.351.101-.551.15-1.852-1.351-3.699-2.75-5.352-3.95-.398-.3-.549-.1-.148.2.301.25 2.551 1.899 5.148 3.8-.799.15-1.5.15-2.1.15-.949-.95-1.949-2-3-3.101-.3-.3-.55-.149-.25.2.051.05 1.15 1.2 2.7 2.85-.5-.05-.95-.149-1.45-.199-.3-.4-.55-.801-.85-1.15-.5-.65-.551-.2-.25.2.15.2.35.55.6.899h-.949c-.051-.149-.101-.25-.15-.399-.2-.55-.551-.7-.301.149.051.101.051.2.102.301-.199.05-.449.149-.75.25-.102-.551-.199-1.051-.3-1.601s-.351-.5-.3.05c.101.551.15 1.101.25 1.65-.35.2-.7.45-.899.75 0-.95 0-1.85-.05-2.7 0-.899-.25-.55-.25 0v2.5c-.25-.3-.65-.55-1.05-.75.101-.5.149-.95.25-1.45.101-.6-.2-.6-.3-.05-.101.45-.15.95-.25 1.4a2.753 2.753 0 0 0-.75-.15c0-.05.05-.149.05-.2.25-.85-.101-.699-.3-.149-.051.1-.101.25-.15.35h-1c.25-.399.5-.7.65-.95.3-.449.25-.85-.25-.199-.25.35-.551.75-.851 1.149-.5 0-.95.05-1.351.05 1.5-1.55 2.5-2.649 2.55-2.699.3-.351.05-.5-.25-.2-1 1.05-1.95 2-2.851 2.899-1.449.051-1.949.15-2.399.15 2.649-1.95 5-3.7 5.3-3.95.398-.3.25-.5-.15-.2-1.699 1.25-3.699 2.7-5.6 4.15h-2.549c-.101 0-.3-.1-.351-.1-.25 0-.299.149-.299.399v2.05c-1.951 1.45-3.551 2.65-4.4 3.25-.149.101 0 .301.101.25 0 0 1.899-1.399 4.3-3.149v3.45c-3.25 3.449-5 5.3-5.05 5.35-.25.25-.05.35.149.2.699-.7 2.65-2.65 4.851-4.95v5.25c-1.8 2.898-3.05 5-3.101 5.05-.301.4-.25.65.05.3.05-.1 1.351-2.05 3-4.648v3.199c-.45.051-1.05.149-1.25.449-.25.301-.149.602-.2 1 0 .25-.102.7-.15.9-.149.35-.399.6-.649.8-.2.2-.3.5-.45.8-.199.5.1 1.15.398 1.7.15.25.5.601.801.65 1.15.198 1.3-.601 1.5-1.052 0-.049 0-.049.05-.049 0 .75 0 1.25.05 1.25 0 .049.601 0 1.5-.051-.199.65-.35 1-.35 1-.2.75.15.5.25.2.15-.399.3-.8.45-1.25.8-.05 1.75-.101 2.75-.149.2.299.601.799.8 1.101l.2.35.149.25c.15.25.301.5.4.7-.1.648-.2 1.05-.2 1.148-.25 1-.05 1.102.25.15 0-.05.101-.4.2-.949.1.149.25.351.4.549.3.4 1 .852 2.55 1.552.601.25 1.45.448 2.399.448.051.802.25.602.25 0 1.25 0 2.601-.148 3.9-.6.7-.35 1.2-.75 1.55-1.1v.05c.25.95.45.851.25-.149 0 0 0-.101-.05-.149.2-.25.25-.4.3-.45.101-.15.75-1.65-.05-2.75l-.05-.05-.05-.052-.15-.148c1.55.05 3.25.148 4.4.2.1.3.25.649.35.948.1.25.45.5.25-.198l-.25-.75c.7.05 1.15.05 1.15 0v-1.601c.949-.149 1.3-.399 1.949-1 .75-.649 1.2-1.551 1.2-2.5.05.049.05.101.101.101.3.35.35.1.05-.302 0 0-.101-.148-.25-.448-.149-.5-.399-.95-.8-1.302-.351-.6-.801-1.299-1.301-2.1a5.08 5.08 0 0 0 1.5-.4c.45-.198 1.15-.75 1.5-1.6l.051-.15c.05-.1.05-.199.1-.299l1 1c.355.401.555.251.355.001zm-2.3-1.9c-.25.3-.55.649-.75.899-.101-.35-.149-.949-.25-1.35a2.85 2.85 0 0 0-.25-.85c.45.451.9.901 1.25 1.301zm-2.85-2.95c.351.35.649.7 1 1.05v.15c.101 1.2-.101 2.1-.3 2.7-.15.55-.301.75-.601.899-.05.05-.101.05-.2.05.101-1.849.101-3.449.101-4.849zm-.9-6.05c.05-.25.45-.351.5.1.05.2.05 5.601 0 10.9-.149.05-.351.05-.5.05 0-5.35-.05-10.95 0-11.05zm-.75 0c0-.15.399-.25.351.1.05.101 0 5.55-.101 10.8-.05-.05-.149-.05-.2-.1v-.15c0-.55.25-.649 0-.899a1.038 1.038 0 0 0-.25-.15c.1-5.001.15-9.501.2-9.601zm-.95-.25c.101-.351.4-.101.4.05 0 .1-.05 4.9-.05 9.8-.101 0-.3.05-.399.101-.051-2.851-.001-6.201.049-9.951zm-.1 10.1h.05s.5-.149.649-.05c.199.15.15.85.15 1.05v.25c0 .05.049.101.049.15.101.198.25.3.301.35-.1-.05-.2-.05-.301-.1-.149-.052-.299-.052-.449-.101-.149 0-.301-.051-.399-.051h-.351c-.301 0-.6.1-.801.2-.1.05-.149.101-.25.149 0 0-.049 0-.049.051-.051.05-.15.1-.201.199-.1.149-.199.351-.25.551-.049-.2-.25-.45-.25-.602 0-.648.4-1.05.65-1.3.1-.1.2-.149.301-.2.049 0 .049-.05.1-.05.05-.05.15-.1.199-.1.051 0 .051-.05.101-.05.05-.051.149-.051.2-.101 0 0 .05 0 .05-.05.151-.095.401-.145.501-.195zm1.25 2.1s.05.051.1.051v1.398a.978.978 0 0 0-.449.102v-1.7c.1.05.149.05.25.101l.099.048zm-.85-.3v2c-.051 0-.051.051-.101.051-.05.051-.2.101-.351.149v-2.25c.152 0 .302.05.452.05zm-.75-.05v2.351c-.051 0-.101.051-.15.051-.6.05-.95-.2-1-.352a1.05 1.05 0 0 1-.15-.25c-.05-.148-.05-.35-.05-.35 0-.3.149-.5.45-.9.2-.3.5-.5.9-.55zm-8.4-10.7c.1-1.1 3.05-1.5 3.55-1.35.5.1 1.3.25 1.649.35 0 0 1.65.4 3.15-.149v10c-.301.05-.9.2-1.351.6-.5.4-.8.851-.8 1.5 0 .45.15.8.351 1.4.101.3.2.649.2.649.25.449.2.799.3 1.199.149.65.5.75.7.801.2.049.35.101.55.149v.75h-.149c-1-.101-1.351-.25-1.9-.5l-.65-.399c-1.149-.551-2.75-.5-3.55-.149-.399.149-.649.3-.899.6l-.051.101.051.101c.05.25.25.5.35.649s.05.551.05.699c0 .301-.25.602-.351.7h.05c-.25.15-.399.5-.399.95-.301.148-.551.3-.801.45 0-.101-.15-19.051-.05-19.101zm3.05 19.25c.05.102.149.2.2.301.1.101.2.199.35.301.15.1.301.199.4.25.05.05.15.05.2.1.101.051.2.1.3.2-.1 0-.2 0-.3.05l-.5.051h-.3c-.301.049-.5.049-.9 0-.1 0-.25-.051-.4-.101a1.193 1.193 0 0 1-.55-.3 2.24 2.24 0 0 1-.399-.551c-.051-.101-.051-.199-.101-.301 0-.1-.05-.199-.05-.3 0-.149 0-.3.05-.45 0-.1.05-.199.101-.25v-.05c.05-.05.1-.149.149-.149l.05-.051c.101 0 .2-.05.351-.05h.399c.101 0 .25.05.351.05h.05c.15.051.35.051.5.102-.05.05-.05.1-.05.199-.05.101-.05.199-.101.25 0 .101-.05.199-.05.301.15.098.2.248.25.398zm.2-.55c0-.149.05-.35.15-.55h.199c.4.1.801.25 1.2.398-.549.052-1.099.102-1.549.152zm2.95.3c.5.15 1.05.25 1.649.301-1.3.051-2.899.149-4.199.199-.15-.1-.25-.199-.301-.35.951-.05 1.951-.1 2.851-.15zm-2.45 1.9c0 .2-.05.35-.2.45-.851.698-1.55.85-3.2.649-.149 0-.3-.051-.449-.101v-.95c.449 0 .899-.15 1.35-.449.05 0 .2-.051.4-.051.149.1.35.2.6.25.799.202.899.202 1.499.202zm-2.9-1.55s-.05 0 0 0l-.35-.15c.15-.05.25-.1.35-.149-.05.049-.05.199 0 .299zm-1 0c.801.05 1.2.8 1.15.85-.55.601-1.7.65-2.25 0-.1-.05.45-.8 1.1-.85zm-1.2.35c.149.05-.15.15-.15.15-.35-.052-1.05-.15-1.9-.2 0-.05-.05-.05-.05-.102 0-.049-.05-.1-.05-.148 1 .1 1.75.2 2.15.3zm-2.25-.75c-.051-.149-.101-.3-.2-.45 1 .15 2.601.4 2.95.7-.2.101.05-.05-.25.2-.3-.15-1.3-.3-2.5-.45zm1.65 1.05c.101 0 .351 0 .3.25 0-.05-.55-.05-1.399-.05a1.008 1.008 0 0 1-.149-.25c.598.05 1.048.05 1.248.05zm.3.5c.45.15.7.352 1.15.4v.85c-.35-.1-.65-.25-.95-.398l-.899-.45c-.25-.101-.4-.25-.601-.45.7-.002 1.15-.002 1.3.048zm-7.5-21.45c0-.15 0-.2.2-.2 3.149.05 8.05-1.15 8.5 1.149 0 .101.101 14.551.05 19-1.05-.398-1.85-.6-3.699-.8l-.301-.45c-.35-.5-.449-.699-.699-.898l-.65-.65c-.35-.3-.8-.699-.85-.75-1-.65-1.851-1-2.551-1.15.1-9.001-.05-14.201 0-15.251zm-.55.3c0-.5.25-.45.25-.101.05.5 0 5.5-.101 15-.1 0-.25-.05-.35-.05.051-5.499.201-14.149.201-14.849zm-.9-.15c-.051-.25.25-.35.25-.05.05.1-.101 9.2-.101 15-.101 0-.25 0-.351.05.002-5.85.152-14.9.202-15zm-1.05-.1c.051-.3.5-.15.45.2-.05 6.35-.101 11.5-.149 15.05h-.351c.05-6.3.05-15.1.05-15.25zm-1.25 21c-.25.198-.449.3-.8.25-.2 0-.601-.45-.8-.95-.05-.2-.05-.45-.05-.8 0-.101 0-.2.05-.25.05-.101.15-.2.2-.302.101.15.351.302.55.451l.45.299c.25.201.649.352.95.352-.05.2-.25.65-.55.95zm.55-1.35c-.101 0-.4.051-.9-.199l-.4-.25c-.25-.301-.35-.449-.35-.551 0 0 0-.05.05-.05.25-.2 1.149-.2 1.8-.149v1.101c-.1.048-.2.048-.2.098zm.75 1.4c-.051-.15-.051-1.102-.051-1.3v-1.25c.101 0 .25 0 .351.05 0 1.45.05 2.25.149 2.25.051.05 1.551.05 3.301.05v.05l.1.15s.05.05.05.1c-2.1 0-3.9 0-3.9-.1zm3.15-1c.05.05.149.148.2.3-1.4-.05-2.45-.1-2.5-.149-.05-.051-.05-.601-.05-1.551.101.051.25.051.351.102 0 .75.051 1.199.051 1.25.048-.052.848-.002 1.948.048zm-1.55-1.2c.15.05.25.101.4.2 0 0 0 .05 0 0 .25.148.5.3.699.5-.699 0-1.1 0-1.1.05l.001-.75zm15.85 4c0 .101 0 .25-.05.351v.101c-.05.101-.05.25-.101.351-.051.149-.1.25-.149.351 0 0 0 .05-.05.05-.05.1-.1.25-.15.35-.05.15-.149.25-.199.301-.301.399-.75.699-1.851 1.199-.3.102-.601.2-.899.25-.051 0-.101 0-.15.051-.25.051-.5.101-.75.149h-.1c-.25.05-.551.05-.801.101h-.05c-.25 0-.55.051-.8 0-.25 0-.5 0-.75-.051h-.15c-.149 0-.25-.05-.399-.05-.101 0-.149-.05-.25-.05s-.2-.05-.25-.05c-.149-.052-.351-.101-.5-.2-1.45-.65-2.45-1.102-2.899-1.7-.15-.2-.25-.35-.351-.55-.05-.102-.149-.25-.2-.352-.15-.198-.25-.448-.4-.698l-.149-.25-.2-.351c-.15-.25-.3-.5-.4-.75-.05-.101-.1-.149-.149-.25 0-.051-.2-.399-.2-.399v-.052l-.1-.148c-.051-.102-.15-.2-.2-.3-.05-.101-.149-.2-.2-.25-.15-.2-.25-.351-.35-.4 0-.05-.051-.05-.101-.1-.101-.101-.149-.15-.3-.25-.15-.101-.3-.2-.45-.302-.149-.1-.351-.198-.55-.299-.1-.051-.2-.101-.35-.149-.15-.052-.301-.15-.45-.2a.936.936 0 0 0-.351-.102c-.199-.049-.35-.1-.5-.148-.1 0-.25-.05-.35-.05-.15 0-.3-.052-.4-.052h-.1c-.75 0-.85-.049-1.1-.049h-.351c.05-.101.101-.201.149-.301.101-.25.05-.6.05-.9.05-.35.2-.799.351-1 .049-.049.1-.1.199-.148h.1c.051 0 .101-.05.201-.05h.65l.3-.052h.1l.25-.049c.25-.051.551-.149.851-.149.149 0 .351-.052.5-.052.25 0 .5 0 .75.102.149.05.3.1.45.148h.05c.149.052.3.15.5.201.05 0 .05.049.101.049.149.102.35.201.5.302.049 0 .049.05.1.05l.601.45h.05c.051.05.301.25.551.448l.899.701c.2.149.55.699.851 1.149l.25.351c.199.299.35.649.5 1.049 0 .052.05.102.05.15.05.1.101.2.149.35.051.102.101.15.101.25a1.1 1.1 0 0 0 .149.25c.051.102.101.15.15.25.05.052.1.15.15.201l.05.049c.05.052.101.102.2.15 0 0 .05 0 .05.051.101.049.149.101.25.149l.5.3c.2.1.45.25.649.35 0 0 .051 0 .051.052.25.1.5.198.75.25.1.05.25.05.35.05h.1c1.801.25 3.301 0 3.9-.65.2-.199.3-.5.3-.8h.101c.6-.05.8-.05 1.1.2.346.446.596.696.596 1.046zm5.05-1.6c-.15-.052-3.45-.15-6.101-.2-.149-.102-.351-.2-.55-.3 2.6.05 5.35.05 6.2 0 0-.052 0-.25.05-.552l.4-.049.001 1.101zm2.65-6c.25.35.399.698.5 1.1.149.9.101 1.601-.601 2.25-.1.101-.2.15-.25.25l-.149.15c-.05 0-.05.05-.101.1s-.1.101-.149.101-.05.051-.05.051c-.05.05-.1.1-.15.1l-.05.051c-.05.049-.101.049-.149.101 0 0-.051 0-.051.05-.05 0-.149.05-.199.1h-.051c-.05 0-.149.051-.25.051h-.05c-.101 0-.2.051-.3.051-.1 0-.25.05-.35.05l-.5.05c-.2.051-.351.051-.551.051-.25 0-.449.049-.699.049h-.75c-.2 0-.45 0-.65-.049h-.05a8.77 8.77 0 0 1-2.851-.75c-.199-.101-.35-.149-.55-.25-.149-.051-.3-.101-.45-.201-.399-.148-.75-.25-1.1-.35h-.05c-.149-.05-.3-.05-.399-.05h-.551c.1-.25.15-.55.15-.75v-.149c-.051-.149-.101-.351-.2-.551-.05-.15-.149-.3-.2-.449.15-.201.25-.351.55-.5.601-.25 2-.399 3.101.101l.8.351c.601.299 1.05.549 2.149.649.2 0 .4.05.601.05h1.75c.149 0 .3 0 .45-.05.149 0 .3-.052.399-.052.2-.049.351-.049.5-.1h.101c.149-.05.25-.1.35-.15.9-.406 1.05-1.056 1.05-1.456zm-4.85.85h.399v.75c-.1 0-.25 0-.399-.05v-.7zm.8.75v-.85h.05c.149-.052.3-.15.45-.25v1.1h-.5zm1 0v-1.5c.15-.1.3-.25.5-.399v1.851c-.15.048-.3.048-.5.048zm2.6-1.75c.051.25.101 1.05-.899 1.351-.351.101-.601.199-.851.25v-2.101c.351-.25.801-.25 1.7.351.05.099.05.099.05.149zm-.15-.7c-.149-.05-.351-.05-.45-.05h-.451c-.101 0-.2 0-.3.05-.1 0-.2.051-.3.051-.149.051-.25.101-.399.199-.15.102-.3.2-.4.352l-.049.05c-.201.2-.351.3-.5.351-.15.101-.301.101-.4.149h-.051c-.049 0-.1.05-.1.05-.101.051-.199.1-.3.1-.25.102-.5.102-.75.052-.101 0-.149-.052-.25-.052a1.34 1.34 0 0 1-.7-.75c-.05-.299.051-.35-.05-.75.149.052.3.052.45.102h.651c.1 0 .149-.05.25-.05.1-.052.25-.101.35-.15h.05c.149-.1.351-.2.601-.25.1-.05.199-.05.299-.05h1.9c.051 0 .1.05.149.05h.05c.1.05.15.05.25.101l.05.051c.05.05.101.1.2.148l.05.051c0 .045.05.145.15.195zm-2.4-1v-1.148c.149.1.351.148.5.199v1l-.5-.051zm2.15.5c-.649-.449-.95-.5-1.3-.449v-.899c.149.05.3.05.449.05.301.448.601.898.851 1.298zm2.55-5c-.05.4-.15.801-.25 1.051-.05.1-.05.199-.1.25l-.051.149c-.3.851-.699 1.45-1.899 1.851-.149.051-.3.101-.45.101h-.4c-.149 0-.3-.05-.449-.101h-.2c-.101 0-.149-.051-.25-.051-.05 0-.101-.05-.149-.05-.5-.149-.9-.45-1.05-.7l-.05-.148v-.051c.15.051.351.101.601.101.149 0 .3 0 .5-.05.149 0 .25-.051.399-.102h.05c.399-.148.851-.3 1.101-1.05.1-.35.149-1.5.199-2.1.35.75.551 2.149.551 2.3l.1.45s.15-.15.3-.351c.351-.5.601-.851.8-1.101.1-.101.149-.2.2-.25.101-.101.2-.2.25-.3.101-.1.2-.15.3-.25-.003.052-.003.252-.053.402zm-23.5 10.75c.05 0 0 0 0 0zm-4.35-20.85c-.2.1-.301-.1-.101-.2.45-.3 7.95-3.649 8.55-3.899.351-.15.551.05.2.25.001-.001-8.199 3.599-8.649 3.849zm8.5-4.7s.1.15 0 .15c-.2.05-2.551.149-2.7.149-.101 0-.7.051-.851.051-.449-.051-.149-.15.051-.15.75-.1 3.3-.3 3.5-.2zm15.85 4.65c.2.1.3-.101.1-.2-.449-.3-7.949-3.65-8.55-3.9-.351-.149-.55.051-.2.25 0 0 8.2 3.6 8.65 3.85zm-8.25-4.7s-.1.1.05.15c.2.05 2.5.149 2.649.149.101 0 .65.05.851.05.399-.05.101-.149-.05-.149-.3-.05-3.2-.35-3.5-.2zm-7.85 35.25v.05c-.051 0-.15 0-.15.101l-.6 2.301c-.051.1 0 .148.1.148v.051l-.9-.25v-.051c.101.051.15 0 .2-.1l.45-1.75c-.1 0-.3 0-.35.1h-.101l.149-.648h.101c0 .05.05.1.149.1.101.051.199-.05.199-.15 0-.049 0-.1-.049-.148v-.05l.802.296zm1.25 1.55c-.25-.149-.45-.399-.4-.649.05-.399.5-.699 1.3-.649.851.101 1.25.45 1.25.851 0 .25-.25.5-.55.549.35.15.55.4.5.75-.05.5-.55.802-1.4.701-.899-.101-1.35-.5-1.3-.951 0-.302.25-.502.6-.602zm.7 1.15c.351.05.7-.101.75-.4.051-.299-.3-.45-.649-.5-.399 0-.75.101-.75.4-.051.3.249.45.649.5zm.1-1.3c.399.051.601-.101.649-.301 0-.199-.149-.398-.55-.398-.399-.051-.601.1-.649.3s.15.349.55.399zm3.75-.35l-.101-.05c0-.15-.25-.3-.6-.3-.5.05-.8.448-.75.948.2-.198.5-.35.85-.398.65-.05 1.15.25 1.15.898 0 .451-.4.951-1.2 1-.95.052-1.399-.549-1.399-1.25-.051-.85.399-1.549 1.399-1.648.45 0 .851.148.95.148.05 0 .05 0 .1-.049l.051.049-.45.652zm-.1 1.2c0-.3-.3-.5-.649-.5-.351 0-.601.25-.601.55s.301.5.65.5c.35-.05.6-.25.6-.55zm1.45-.85c-.3 0-.55-.199-.601-.399-.1-.399.199-.851 1-1.05.8-.25 1.351-.051 1.449.35a.782.782 0 0 1-.299.75c.399 0 .649.2.75.5.149.45-.25.95-1.051 1.15-.851.25-1.449 0-1.55-.4-.148-.401.002-.651.302-.901zm.75-.4c.399-.102.55-.3.5-.5s-.3-.3-.7-.2c-.399.101-.55.3-.5.5.05.2.3.3.7.2zm.35 1.25c.35-.102.649-.352.55-.602-.101-.299-.45-.35-.8-.25-.351.102-.65.352-.551.602.051.3.401.35.801.25z"/><path fill="#00467F" d="M108.475 58.225l.75.301c.051 0 .051 0 .101-.101h.05l-.2.601h-.05v-.101l-1.2-.399v-.051c.05 0 .05 0 .101-.05l.6-1.6c0-.052 0-.052-.05-.101v-.051l.45.15v.05c-.051 0-.051 0-.101.05l-.451 1.302zm2.2.8c0-.051 0-.101-.05-.101l-.4-.25-.149.3.649.4s.051 0 .101-.05l-.351.55c.051-.05.051-.102 0-.102l-1-.6v-.05h.101l.899-1.45v-.151l1 .601s.051 0 .101-.05l-.351.55c.051-.101.051-.101 0-.101l-.649-.399-.149.25.399.25c.05.05.05 0 .101-.05l-.252.453zm.4 1.2c.101 0 .101 0 .101-.05l.95-1-.3-.3s-.051 0-.1.05l.449-.45c-.05.051-.05.102-.05.102l.851.8s.049 0 .1-.05l-.45.449c.05-.051.05-.101.05-.101l-.3-.3-.95 1c0 .05-.05.05 0 .1l-.05.051-.301-.301zm1.35 1.85c.05.05.101.05.149 0l1.25-.552-.149-.35h-.101v-.05l.601-.25v.05c-.05.051-.101.051-.101.1l.5 1.052h.101v.05l-.601.25v-.05c.05-.052.101-.052.101-.101l-.149-.351-1.25.55c-.051 0-.051.051-.051.1h-.05l-.25-.448zm1.4 2.55c-.05 0-.05.05 0 .1l-.05.051-.301-.399.051-.05c.05.05.05.05.1 0l.55-.4-.351-.5-.551.4c-.049 0-.049.05 0 .1l-.049.051-.301-.451.051-.049c.049.049.049.049.1 0l1.351-1c.05 0 .05-.051 0-.101l.05-.05.301.398-.051.051c-.05-.051-.05-.051-.1 0l-.45.351.351.5.449-.351c.051 0 .051-.051 0-.101l.051-.05.3.398-.05.052c-.051-.052-.051-.052-.101 0l-1.35 1.05zm1.65.55c0-.05 0-.1-.05-.149l-.351-.25-.2.301.601.449s.049 0 .1-.051l-.35.5c.049-.05.049-.1 0-.1l-.951-.7.051-.05c.05.05.05 0 .101 0l1-1.4s.05-.05 0-.1l.05-.05.95.698s.05 0 .101-.049l-.351.5c.05-.101.05-.101 0-.101l-.601-.45-.2.25.351.25c.049.051.049 0 .1 0l-.351.502zm.85 1.05c0 .051 0 .051.05.102v.05l-.45-.149v-.051c.05 0 .05 0 .101-.05l.5-1.601c0-.051 0-.051-.051-.101v-.05l.801.25c.35.1.399.35.3.75-.101.3-.3.45-.5.45l.101.649c0 .049 0 .101.051.101v.05l-.451-.15v-.05c.051 0 .051 0 .051-.05s-.051-.602-.1-.65l-.201-.05-.202.55zm.3-.95l.4.101c.149.05.199-.05.25-.149.05-.101 0-.201-.101-.25l-.399-.101-.15.399zm2.2.85c-.05-.05-.05-.102-.101-.102l-.449-.049v.351l.75.05c.05 0 .05 0 .05-.102h.05l-.05.65h-.05c0-.05 0-.1-.051-.1l-1.199-.102v-.05c.05 0 .05-.05.05-.05l.101-1.7c0-.05 0-.05-.05-.05v-.05l1.2.1c.05 0 .05 0 .05-.1h.05l-.05.649h-.05c0-.101 0-.101-.051-.101l-.75-.05v.3l.451.05c.049 0 .049-.05.1-.1h.05l-.051.556zm1.3-1.25c0-.05 0-.05-.1-.05v-.052l.85-.25c.25-.049.45 0 .55.352.05.2 0 .35-.101.45.15 0 .3.1.4.35.1.3 0 .55-.301.65l-.851.3v-.05c.05-.052.05-.052.05-.101l-.497-1.599zm.5.5l.3-.102c.2-.049.25-.1.2-.25-.05-.148-.1-.148-.3-.1l-.3.1.1.352zm.25.75l.4-.102c.149-.049.199-.1.149-.299-.05-.149-.149-.201-.3-.149l-.4.1.151.45zm2.15-1.2c-.051-.05-.101-.05-.15-.05l-.4.2.15.3.7-.352v-.1l.3.551-.05-.051-1.05.551v-.051c.05-.05.05-.05.05-.1l-.75-1.5c0-.051-.05-.051-.101-.051v-.051l1.051-.55v-.1l.3.55h-.05c-.051-.05-.051-.102-.101-.05l-.7.35.15.25.4-.2c.05 0 .05-.05.05-.1h.05l.151.554zm-.65-6.3l.8.2c.05 0 .05 0 .05-.101h.051l-.2.649h-.05v-.101l-1.2-.301v-.05c.05 0 .05 0 .101-.05l.399-1.65c0-.05 0-.05-.05-.1v-.05l.449.1v.05c-.05 0-.05 0-.1.051l-.25 1.353zm1.05.8c.05-.05.101-.05.101-.1l.649-1.601c0-.051 0-.051-.05-.101v-.05l.45.199v.051c-.05 0-.05 0-.101.05l-.649 1.601c0 .049 0 .049.05.101v.05l-.45-.2zm2.4.05l-.3-.1c-.051 0-.051 0-.051.05h-.05l.149-.5h.05v.05l.649.2v.05c-.049 0-.049 0-.049.051l-.15.649v.101c-.25.101-.5.149-.801.051-.399-.102-.649-.5-.5-1.15.15-.65.601-.85 1-.75.15.051.201.1.351.2.05.05.101.149.149.149h.051l-.25.399v-.1c0-.052-.2-.25-.35-.302-.201-.049-.451.052-.551.451-.102.399.1.601.301.649.149.05.25.05.35 0l.002-.148zm2.3.9c0 .05 0 .05.05.05v.05l-.5-.05v-.05c.05 0 .05-.05.05-.05l.051-.65-.601-.05-.05.648c0 .052 0 .052.05.052v.05l-.5-.05v-.052c.05 0 .05-.049.05-.049l.101-1.701c0-.049 0-.049-.05-.049v-.051l.5.051v.049c-.051 0-.051.052-.051.052l-.05.6.601.05.05-.6c0-.05 0-.05-.05-.05v-.052l.5.052v.05c-.051 0-.051.05-.051.05l-.1 1.7zm1.2-.05c.05-.052.05-.101.05-.101l-.2-1.351-.399.05c-.051 0-.051 0-.051.1h-.05l-.101-.6h.05c0 .1.05.1.05.1l1.149-.198c.05 0 .05 0 .05-.101h.05l.101.649h-.051c0-.101-.05-.101-.05-.101l-.399.051.199 1.35c0 .051 0 .051.101.051v.049l-.499.052zm-23.85 4.7l-.05.051c-.101-.051-.149-.051-.2 0l-1.5 1.55.551.55c.1.1.149.15.25.051l.05.049-.45.5-.05-.049c.05-.051 0-.101-.101-.201l-1.6-1.549c-.1-.101-.15-.149-.25-.101l-.05-.05.45-.5.05.05c-.05.101-.05.149.05.25l.55.55 1.5-1.55c.05-.05.05-.101 0-.2l.05-.05.75.649zm-3.35-1.75l.9-.601c.05-.05.1-.1 0-.2l.05-.05.55.8h-.05c-.101-.1-.149-.1-.2-.05l-1.95 1.351c-.05.051-.101.101 0 .199l-.05.051-.55-.801.05-.05c.1.101.15.101.2.05l.75-.5-.8-1.148-.75.5c-.051.05-.101.1 0 .199l-.051.051-.649-.801.05-.051c.1.102.15.102.2.051l1.95-1.351c.05-.05.1-.1 0-.2l.05-.05.55.8v.051c-.1-.101-.15-.101-.2-.051l-.899.602.849 1.199zm-1.45-3.9l-.601-1.4c-.051-.148-.1-.199-.2-.148l-.05-.102.601-.25.05.102c-.05.05-.05.1 0 .25l.95 2.148-.05.051c-.1-.149-.15-.149-.2-.149l-2.149.95c-.101.05-.101.1-.051.25l-.05.05-.95-2.101c-.05-.149-.1-.199-.199-.149l-.051-.101.601-.25.05.101c-.05.05-.05.101 0 .25l.55 1.3.649-.3-.35-.75c-.051-.149-.101-.2-.201-.149l-.049-.101.6-.25.05.101c-.05.049-.05.101 0 .25l.351.75.699-.353zm-4.25-7.1h.05c0 .101.05.149.15.149l1.6-.05c.351 0 .601-.3.551-.75 0-.5-.25-.7-.601-.7l-1.601.05c-.1 0-.1.051-.149.15h-.101l-.05-.95h.05c0 .15.05.15.15.15l1.549-.05c.65 0 1.051.35 1.101 1.3.05.948-.351 1.399-1 1.399l-1.55.049c-.1 0-.1.052-.149.201h-.05l.05-.948zm2.8-3.05h-.05c0-.1 0-.149-.101-.149l-2.35-.351c-.1 0-.15 0-.15.101h-.05l.15-1.05h.05c0 .1 0 .1.05.1.1 0 1.701-.9 1.951-.9l-1.65-.25c-.1 0-.149 0-.149.101h-.05l.15-.9h.05c0 .101 0 .15.101.15l2.35.35c.101 0 .15 0 .15-.1h.051l-.15.95h-.051c0-.051 0-.15-.049-.15-.101 0-1.601.9-2.101 1l1.8.3c.1 0 .149 0 .149-.1h.05l-.151.898zm.75-3.8h-.05c.05-.2 0-.25-.05-.25l-2.25-.75c-.1-.05-.15 0-.2.15h-.05l.35-1.05h.051c-.051.199 0 .25.05.25l2.25.75c.101.05.149 0 .2-.15h.05l-.351 1.05zm1-2.6l-.05-.05c.05-.101.05-.15 0-.2s-1.851-.101-2.55-.15c-.1 0-.2 0-.25.05l-.05-.05.399-.85.051.05c-.051.1 0 .15 0 .15.1.05 1.399.1 2.05.149-.5-.5-1.351-1.5-1.399-1.5-.05 0-.05 0-.15.101l-.049-.051.399-.8.05.05c0 .101 0 .15.1.25.601.7 1.601 1.801 1.701 1.851.049 0 .1 0 .149-.101l.05.051-.451 1.05zm1.45-3.35l.899-1.199c.101-.101.101-.15.05-.25l.05-.051.5.4-.05.05c-.05-.05-.101 0-.2.101l-1.4 1.899-.049-.05c.1-.15.1-.2 0-.25l-1.9-1.45c-.051-.05-.1-.05-.25.101l-.051-.051 1.4-1.85c.1-.1.1-.15.051-.25l.049-.05.5.399-.049.051c-.051-.051-.101 0-.201.149l-.85 1.15.551.399.5-.649c.1-.101.1-.15.049-.25l.051-.05.5.399-.051.05c-.049 0-.1 0-.199.15l-.5.65.6.452zm2.05-1.85l-.05-.05c.05-.101.05-.15 0-.2l-1.601-1.75c-.051-.05-.1-.05-.2 0l-.05-.05 1.199-1.101c.551-.5 1.051-.55 1.4-.199.25.3.301.699 0 1.1l.899.25c.25.1.351.15.45.05l.05.05-.7.65-.05-.05c.05-.05.101-.101.05-.15 0 0-.05-.05-.15-.05l-1-.25-.449.4.649.699c.05.051.101.051.2 0l.05.051-.697.6zm-.45-1.7l.55-.5c.3-.25.351-.5.149-.649-.149-.15-.399-.15-.649.1l-.55.5.5.549zm3.2-1.6h.101v.05c.101.15.601 0 .95-.2.5-.3.6-.55.5-.75-.301-.5-1.851.9-2.4.05-.2-.35-.1-.899.65-1.35.3-.2.55-.25.75-.3.199-.05.3-.05.35-.101.05-.05.1-.1.1-.149h.051l-.051.8h-.1s0-.05-.05-.1c-.05-.101-.399-.101-.851.149-.3.2-.35.4-.3.55.3.5 1.851-.949 2.399 0 .199.351.05 1-.801 1.5-.25.15-.5.25-.699.301-.2.05-.301.05-.399.1-.05 0-.05.05-.05.1h-.05l-.1-.65zm3.25-.8l-.05-.051c.149-.1.2-.149.149-.199l-.85-2.25c-.051-.101-.101-.101-.25-.051l-.051-.05 1-.399.051.05c-.15.1-.201.149-.15.2l.9 2.199c.049.101.1.101.25.051l.049.05-1.048.45zm2.7-1v-.051c.101-.05.101-.1.101-.149l-.5-2.101-.75.2c-.15.05-.2.05-.2.15h-.101l-.149-.65h.101c-.05.101.051.101.2.05l2.149-.55c.15-.05.201-.05.201-.15h.1l.15.65h-.101c-.05-.1-.101-.1-.25-.05l-.75.2.5 2.1c0 .101.05.101.2.101v.05l-.901.2zm4.35-.65l-.95.05v-.05c.101-.05.149-.05.149-.15l-.05-.949-1.101-1.4c-.051-.05-.1-.1-.149-.1v-.05l1-.05v.05c-.101 0-.149.05-.149.1s.449.6.75.899c.149-.35.6-.899.6-1 0-.05-.05-.05-.15-.05v-.05l.95-.05v.05c-.05 0-.101.05-.149.15l-.9 1.5.05.949c0 .101.05.101.149.15h-.05zm7.75-1.7c.949.351 1.3 1.101 1 1.851-.25.75-1 1.149-1.95.85-.95-.35-1.3-1.1-1-1.85.25-.751 1-1.201 1.95-.851zm-.8 2.3c.551.2 1-.05 1.2-.649.2-.601 0-1.05-.55-1.25s-1 .05-1.2.649c-.2.6 0 1.05.55 1.25zm1.95 1.2l.05-.05c.15.05.2.05.25 0l1.15-2.1c.05-.101.05-.101-.15-.25l.051-.051 2 1.101c.1.05.149.05.199 0l.101.05-.3.55-.101-.05c0-.1 0-.1-.149-.2l-1.25-.7-.351.601.8.45c.15.05.2.1.25 0l.101.05-.3.55-.101-.05c0-.101 0-.101-.149-.2l-.75-.35-.5.899c-.051.101-.051.101.149.25l-.05.05-.95-.55zm9.35 4.5l-.75.101v-.051s.05 0 .05-.05c.149-.1.101-.45-.149-.75-.4-.5-.851-.6-1.4-.1-.449.35-.5.899-.1 1.35.25.3.6.4.75.3 0 0 .051-.05.051-.1l.049.05-.1.8h-.05c0-.05 0-.1-.05-.1-.1-.1-.5-.05-1.051-.7-.649-.75-.5-1.6.051-2.1.75-.65 1.65-.3 2.199.3.201.25.301.45.351.6.05.15.05.25.101.301-.052.049-.002.049.048.149zm-1.7 2.1l.05-.051c.05.051.15.051.2.051l2.45-.25c.1 0 .149 0 .199-.051.051 0 .051-.05 0-.149l.051-.05.55.949-.05.051c-.051-.101-.101-.101-.15-.101s-.05.05-.15.2l-1.5 1.9c-.05.1-.05.1-.05.199l-.101.051-.45-.801.05-.05c.051.05.051.101.1.05l.051-.05.351-.399-.55-1.051-.5.051h-.1c-.051 0-.051.1 0 .149v.101l-.451-.749zm1.9 1.2l.75-.899-1.149.149.399.75zm2.35 1.4c.101-.05.101-.05.05-.25l.05-.05.351 1-.051.05c-.1-.15-.1-.2-.199-.15l-2.051.7.45 1.351c.05.149.101.199.2.149l.05.101-.601.25-.051-.101c.051-.05.051-.1 0-.25l-.699-2.149h.05c.05.149.101.149.2.149l2.251-.8zm-1.55 3.75h.05c.05.2.101.2.2.2l2.35-.45c.1 0 .1-.05.1-.25h.051l.199 1.1h-.05c-.05-.199-.101-.199-.2-.199l-2.35.449c-.1 0-.1.051-.1.25h-.051l-.199-1.1zm.35 1.85h.05c.05.2.05.2.149.2l2.351-.149c.101 0 .101-.051.101-.25h.05l.149 2.3c0 .149.051.2.101.2v.1h-.5v-.1c.101 0 .101-.101.101-.2l-.101-1.4-.7.05.05.9c0 .15.05.2.101.2v.1l-.65.05v-.1c.05-.05.1-.1.05-.25l-.05-.9-1 .051c-.1 0-.1.05-.1.25h-.051l-.101-1.052zm2.8 5.1c-.101 1-.8 1.5-1.601 1.399s-1.35-.75-1.25-1.75c.101-1 .8-1.5 1.601-1.399.8.1 1.4.75 1.25 1.75zm-2.4-.3c-.051.601.25.949.85 1.051.6.1 1-.2 1.1-.801.051-.601-.25-.949-.85-1.051-.65-.099-1 .201-1.1.801zm-.8 2.35h.051c0 .1 0 .148.1.2l2.25.75c.1.05.1 0 .2-.101h.05l-.55 1.549c-.25.701-.649 1-1.101.852-.399-.15-.6-.45-.5-.95l-.949.2c-.25.05-.351.05-.45.2l-.05-.052.3-.898h.05v.148h.2l1-.25.2-.549-.9-.301c-.1-.05-.15 0-.2.1h-.05l.349-.898zm1.25 1.25l-.25.7c-.149.399-.05.6.15.649.2.049.4-.051.55-.399l.25-.7-.7-.25zm-2.55 2.3l.05.05c-.05.102-.05.15.051.2l2.05 1.2c.101.05.101.05.2-.05l.05.05-.55.898h-.051c.051-.1.051-.1 0-.148-.1-.05-1.899.2-2.149.148l1.45.852c.1.05.1.05.199-.05l.051.05-.45.75-.05-.05c.05-.101.05-.15-.051-.2l-2.05-1.2c-.101-.05-.101-.05-.2.05l-.05-.05.5-.85.05.05c0 .05-.05.1 0 .148.101.052 1.801-.25 2.301-.198l-1.601-.9c-.101-.05-.101-.05-.2.05l-.05-.05.5-.75zm-2.1 3.3l.05.051c-.1.149-.1.199-.05.25l1.851 1.5c.051.051.1.051.25-.101l.051.05-.701.852v-.051c.101-.149.101-.199.051-.25l-1.85-1.5c-.051-.051-.101-.051-.25.101l-.051-.05.649-.852zm-1.1 1.35l.051.05c-.051.05-.051.148 0 .2l.85 2.3c.05.1.05.148.1.148 0 0 .051 0 .15-.049l.05.049-.8.75h-.05c.05-.049.101-.1.05-.148 0 0-.05-.05-.2-.102l-2.2-1c-.1-.049-.149-.049-.199 0l-.051-.049.65-.601.05.05c-.05.051-.05.1-.05.1s.05.052.1.052l.5.198.851-.799-.2-.451c0-.049-.05-.049-.05-.1-.05-.05-.101-.05-.149 0l-.05-.05.597-.548zm-.65 2.15l1.101.551-.449-1.101-.652.55z"/><circle fill="#00467F" cx="98.375" cy="55.225" r=".45"/><path fill="#00467F" d="M106.475 67.425c-.25 0-.449.2-.449.45s.199.45.449.45.45-.2.45-.45c-.05-.25-.25-.45-.45-.45zm5.25 3c-.25 0-.449.2-.449.45s.199.45.449.45.45-.2.45-.45-.2-.45-.45-.45zm12.85-.2c-.25 0-.45.2-.45.45s.2.45.45.45.45-.2.45-.45-.2-.45-.45-.45z"/><circle fill="#00467F" cx="129.125" cy="68.025" r=".45"/><circle fill="#00467F" cx="131.375" cy="35.175" r=".45"/><circle fill="#00467F" cx="121.075" cy="30.675" r=".45"/><path d="M112.625 57.475h.6c.101 0 .5.051.7.051.101 0 .149.25.05.25-.649-.051-.399 0-1-.101-.6 0-.35-.2-.35-.2zm2.3.1c.149-.052 1.899.198 2.05.35 0 0 .101.05.051.15-.101.198-.45-.15-1.65-.2-.25-.05-.6.05-.6-.15-.051-.1.049-.15.149-.15zm-3.6-13.9c-.101.05-.101.3-.101.4 0 .05-.25 0-.199-.05 0 0 .05-.45.1-.601-.05 0 .5.05.5 0 0-.1-.1-.55-.15-.55-.05.05-.149.6-.149.6h-.2s.15-1 .35-1c.051 0 .15-.05.2.051.05.1.45 1.399.45 1.55-.05.05-.3.1-.3 0 0 0 0-.25-.101-.351-.1-.049-.3-.099-.4-.049zm1.3 3.8c-.05.15-.4.051-.7.051-.649 0-1.399.1-1.399-.101-.051-.3.8-.149 1.1-.149.499-.001 1.099-.101.999.199zm1-.05c-.05.101-.25.101-.5.101-.1 0-.1 0-.15-.101 0-.149.25-.149.551-.149.099-.001.149.099.099.149zm1.25.05c-.05.051-.75.101-.8-.05-.05-.149.3-.2.601-.149.349-.001.299.149.199.199zm2.4.5c-.101.101-.851-.3-1.2-.399-.25-.05-.45 0-.7-.05-.15-.051-.1-.2.05-.25.5-.101 2 .549 1.85.699zm-5.05.7c-.05.15-.449.101-.699.101-.65 0-.95 0-.95-.2 0-.15.351-.05.649-.05.45-.001 1.05-.101 1 .149zm1.7 0c-.05.15-.45.101-.7.101-.649 0-.649 0-.649-.101 0-.1.05-.149.399-.149.4-.001 1.05-.101.95.149zm1.1.05c-.101.15-.301.051-.551.051-.1 0-.149 0-.149-.101 0-.2.25-.149.601-.149.099-.001.149.099.099.199zm2.3.5c-.05.2-.399-.149-.75-.25-.25-.05-.851-.1-1.05-.149-.15 0-.15-.2 0-.2.75-.101 1.85.399 1.8.599zm.1 1.25c0 .301-.55-.05-.899-.1-.301-.05-.75-.1-1.15-.05-.15 0-.15-.25 0-.25.349-.05 2.049.2 2.049.4zm-2.65-.3c-.051.101-.351.101-.601.05-.101 0-.149-.05-.149-.1 0-.15.149-.15.449-.15.351-.05.351.1.301.2zm-2.35-.1c-.05.1-.5.05-.75 0-.649-.101-1.149.2-1.149-.101 0-.199.649-.149.949-.149.45.1 1.1 0 .95.25zm1.15.05c-.05.15-.25.15-.5.1-.101 0-.149 0-.149-.1 0-.2.25-.2.6-.2.049.05.099.1.049.2zm.6-8.05c0 .2-.45.1-.75.149-.649.101-.7.15-.649 0 .099-.349 1.399-.399 1.399-.149zm.4.1c-.05 0-.101-.1 0-.149.25-.2.7-.051.75.05.101.1-.05.2-.101.2-.149-.051-.549-.051-.649-.101zm2.65.65c-.05.05-.55-.25-.8-.351-.399-.149-.8-.1-.8-.3 0-.399 1.95.301 1.6.651zm-3.2 2c-.051.1-.351 0-.65.05-.3 0-.5.1-.55-.1 0-.15.3-.101.649-.101.351-.049.701-.099.551.151zm.35.05c-.1 0-.1-.1 0-.2.3-.05.7 0 .8 0 .149.05.101.2-.05.2h-.75zm2.85.6c-.05.051-.399-.149-.699-.199-.301-.051-.4-.101-.45-.15-.149-.05-.05-.2 0-.2.099-.051 1.449.299 1.149.549zm-1.35-.6c-.05.2-.25.15-.35.1-.051 0-.101-.1-.051-.149.101-.101.401-.001.401.049zm-2.6-1.35c.1.199-.25.199-.351.199-.05 0-.101-.1-.05-.149.051-.15.351-.1.401-.05zm.5.1c-.051 0-.051-.1 0-.2.3-.1 1.05-.05 1.1 0 .2.101.1.25 0 .25-.45-.05-1 .05-1.1-.05zm2.8.35c-.05.051-.601-.149-.851-.149-.3 0-.449-.05-.449-.15 0-.2.449-.149.8-.1.35.099.7.199.5.399zm.7.15c-.051.2-.25.1-.301.05-.05 0-.1-.149-.05-.2.051-.1.351.05.351.15zm-6.6 1.75c.399-.1.649.4.101.3-.2-.05-.2-.1-.2-.149-.001-.051-.001-.151.099-.151zm2.9.15c-.05.149-.899.1-1.149.1-.65 0-.9 0-.949-.1 0-.15.35-.15.699-.15.299 0 1.499-.1 1.399.15zm1.35.1c-.05.05-.101.05-.399.05s-.5 0-.5-.1c0-.15.3-.15.6-.15.349 0 .349.1.299.2zm1.6.3c-.2.15-.301-.1-.65-.149-.25-.051-.55-.051-.75-.051-.15-.05-.1-.199.05-.25.85-.05 1.55.3 1.35.45zm.65.3c0 .15-.149.2-.3.051-.05 0-.1-.15-.05-.2.05-.101.3-.001.35.149zm-.05 5c-.1.2-.7-.1-1.1-.148h-.5c-.15-.051-.15-.2 0-.25.5-.052 1.7.198 1.6.398zm-2.8-.25c-.05.102-.25.051-.5.051-.101 0-.45.1-.55 0-.051-.2.449-.2.6-.2.35-.051.5.049.45.149zm-1.75 0c-.101.15-.95 0-1.2-.05-.5 0-.8.15-.8-.1.101-.15.899-.101 1.101-.05.449 0 .999-.05.899.2zm2.6-.15c.101.2-.25.2-.351.2-.051 0-.1-.101-.051-.15.102-.1.352-.1.402-.05zm5.05-9.2c.351 0 .4.1.4.2-.05.1-.5.05-.65.05-.449 0-.649.3-.85.25s-.1-.2.1-.3c.2-.1.6-.2 1-.2zm.95-.05s.55.05.649.1c.15.101.101.2.05.25s-.75-.05-.8-.05c-.051 0-.1-.05-.1-.1.051-.15.051-.2.201-.2zm4.75.1c.149.05.2.3.05.3-.55.101-.649.051-.699-.05-.151-.3.599-.25.649-.25zm-2 .1s.649 0 .75.05c.05 0 .149.149.05.25-.05.1-.85.1-.949-.2.049 0-.001-.1.149-.1zm-1.4-.05s.55.051.699.051c.051 0 .2.1.15.199-.05.101-.85.101-.95-.199.001.049-.049-.051.101-.051zm-1.45 1.35c.05-.2.55-.15.649-.05 0 0 .051.1-.05.149-.249.151-.649.001-.599-.099zm1.4.05c.15-.1.75 0 .551.2-.051 0-.45.1-.601 0-.05.05-.1-.05.05-.2zm1.95.1c.2.25-.5.25-.601.25-.1 0-.25-.05-.301-.1.002-.25.752-.3.902-.15zm1.55-.1c.101.35-.5.3-.55.3-.101 0-.25 0-.3-.1-.05-.25.75-.4.85-.2zm-5.75-.3c.15 0 .45 0 .45.149-.101.2-.7.15-.851.2-.551.101-.649.3-.85.25-.201-.05-.101-.2.1-.3.251-.099.751-.299 1.151-.299zm2.6 1.6c0 .101-.05.15-.05.15-.051.05-.601.05-.7-.15 0-.05 0-.2.149-.149.201.049.601-.101.601.149zm.6-.1c.05 0 1 0 .75.25-.05.05-.101.1-.2.1-.25 0-.649-.05-.699-.1-.051-.05-.051-.101 0-.2-.001 0 .049-.05.149-.05zm1.3 0c.7.149 1.2-.101 1.25.1.051.15 0 .2 0 .2-.1.05-1.449.1-1.449-.1-.051-.15.099-.2.199-.2zm-3.1-.05c.15.25-.35.199-.4.199-.05 0-.199-.05-.199-.1-.051-.249.449-.249.599-.099zm-1.6-.15c.149 0 .35-.05.449.15-.149.25-.399.1-.85.199-.55.051-.55.2-.65.101-.1-.101 0-.2.2-.3.201-.1.451-.15.851-.15zm.75 1.35c.05 0 .25 0 .35.101.05.05.05.149 0 .2-.65.1-.65-.051-.65-.051-.05-.25.2-.25.3-.25zm5.2.15c.301.15-.199.3-.55.2-.05 0-.101-.05-.101-.101-.049-.149.501-.199.651-.099zm-3.8-.15a.157.157 0 0 1 0 .301c-.05 0-.7.1-.7-.101 0-.3.65-.2.7-.2zm2.9.2c.05.2-.149.2-.3.15-.25 0-.9.05-.851-.101.05-.149.3-.05.351-.1.2-.049.75-.049.8.051zm-1.65.15c-.05.149-.75.05-.649-.15-.001-.1.699-.2.649.15zm-3.75-.45c.149 0 .45 0 .45.2-.2.149-.4.05-.85.149-.4.101-.5.15-.45-.05 0-.149.45-.299.85-.299zm.95 1.45s.55-.05.7.05c.05.05.149.1.05.25-.05.1-.85.1-.85-.1.05-.1 0-.2.1-.2zm1.4.1c.199-.05.8.101.55.3-.05.051-.5 0-.649-.1-.051-.05-.101-.15.099-.2zm1.15.05c.149-.05.7.101.45.25-.05.051-.4.051-.5 0 0-.05-.1-.2.05-.25zm1.55.1c-.199.05-.449.1-.5.2 0 .1.15.1.551.1.199 0 .8.1.949.05.15-.05.15-.2.101-.2-.301-.1-.601-.25-1.101-.15zm-5-.25c.15 0 .45-.101.4.149-.15.2-.4.15-.85.2-.4.101-.5.15-.5-.05.1-.149.6-.299.95-.299zm1.1 1.6h.351c.149 0 .1.2.1.25s-.25.05-.449.05c-.1 0-.25-.05-.25-.199-.052-.151.098-.101.248-.101zm1.05 0c.05 0 .9 0 .7.25-.05.05-.101.101-.149.101-.199 0-.601-.051-.65-.101-.049-.05-.049-.1 0-.149a.106.106 0 0 1 .099-.101zm1.3.05c.149-.05.7.15.5.351-.05 0-.45 0-.601-.101.001-.1-.049-.2.101-.25zm1.2.1c.05 0 1 0 .75.25-.05.05-.1.1-.2.1-.25 0-.649-.05-.7-.1-.05-.05-.05-.101 0-.2 0 0 .1-.05.15-.05zm-4.7-.25c.2 0 .5-.101.45.149-.15.2-.3.101-.75.2-.4.101-.5.15-.5-.05.1-.149.4-.249.8-.299zm5.9.3c.149-.05.7.1.45.25-.051.05-.4.05-.5 0-.05 0-.1-.15.05-.25zm-3.15 1.25c.05 0 .899 0 .7.25-.05.05-.1.1-.15.1-.199 0-.6-.05-.649-.1s-.05-.1 0-.15c-.001-.05.049-.05.099-.1zm1.4.15c.25-.051.75.05.7.25-.051.149-.2.05-.301.05-.199 0-.75.1-.699-.15.05-.1.25-.15.3-.15zm1.05.3c0 .149.65.35.65.1 0-.1-.55-.45-.65-.1zm-3.15-.45s-.449-.1-.649-.05c-.05 0-.149.1-.101.2.049.1.75.149.801-.051-.001.001.049-.049-.051-.099zm-1.75-.1c.15 0 .75 0 .75.25-.1.199-.55 0-1.149.1-.399.05-.5.15-.5-.05s.499-.3.899-.3zm1.4 1.4c.2-.05.85.05.6.3-.05.051-.55 0-.699-.1-.001-.05-.051-.15.099-.2zm1.35.15c.15-.052.7.1.45.25-.05.05-.45 0-.55-.101 0 .001-.05-.099.1-.149zm1.65.3c.15.25-.45.2-.5.2s-.2-.052-.2-.15c.05-.25.6-.25.7-.05zm.4.15c0 .149.399.25.399 0 .001-.05-.349-.3-.399 0zm-5.6-.55c.05 0 1.601-.25 1.5.051 0 .051.05.101-.8.149-.2 0-.85.15-.9.101.05-.051-.05-.201.2-.301zm1.75 2.5s.55-.05.7.051c.05.051.15.101.05.25-.05.101-.851.051-.851-.149.001-.002-.049-.102.101-.152zm1.5.2c.05 0 .899.05.649.25-.051.05-.1.05-.149.05-.2 0-.601-.05-.649-.1s-.051-.102 0-.15c-.001 0 .049-.05.149-.05zm1.55.45c-.25-.05-.6-.15-.55-.3.05-.101.3.05.399 0 .501 0 .551.4.151.3zm1.25.15c-.25 0-.6-.101-.6-.25.05-.149.25 0 .3-.051.6-.199.7.301.3.301zm-5-.7c.051.149-.199.149-.6.1-.4 0-.7.351-.8.101-.05-.101.05-.149.25-.25.25-.051 1.15-.101 1.15.049zm.95-1.4c.05 0 .649 0 .5.2 0 .05-.101.1-.149.05-.15 0-.45-.05-.5-.05-.051-.05 0-.102 0-.15.049 0 .099 0 .149-.05zm1 .1c.149-.051 1.05.051.8.351-.05 0-.75-.05-.85-.149-.05-.002-.1-.152.05-.202zm1.95.25c.15 0 .8.101.75.351 0 .05-.25.05-.35 0-.351-.101-.551-.149-.851-.149-.101 0-.101-.101-.101-.201.102-.051.452-.001.552-.001zm-3.6-.2c0 .25-.351.149-.75.149-.4 0-.7.299-.801.049-.05-.1.051-.148.25-.25.201-.098 1.251-.098 1.301.052zm4.2 2.7c.051 0 1 .051.7.301-.05.05-.101.1-.2.1-.25 0-.649-.05-.699-.15-.051-.049-.051-.1 0-.198.049-.003.149-.053.199-.053zm-.65.2c-.101.15-.75.051-.649-.199.049-.051.749-.151.649.199zm-1.7-.4c.05 0 .9.05.65.25-.051.05-.101.05-.15.05-.2 0-.6-.05-.65-.102-.05-.049-.05-.1 0-.148.05-.049.1-.05.15-.05zm-.8-.05c.149.25-.351.199-.399.149-.05 0-.199-.05-.199-.1-.052-.249.498-.249.598-.049zm-1.8-.1c.149 0 .449-.1.449.15-.149.198-.399.1-.85.198-.4.102-.5.15-.5-.049.051-.149.501-.299.901-.299zm-.65 1.35s.45-.149.7-.101c.05 0 .101.05.05.2-.2 0-.7.05-.8.148 0 .003-.05-.197.05-.247zm-5.65-4.15c.25-.05.801.25.2.3-.05 0-.399 0-.45-.05-.2-.2.2-.25.25-.25zm-.7.15c0 .149-.65.149-1.2.101-.649-.05-1 0-1-.149.05-.25.649-.101.95-.051.45-.001 1.25-.201 1.25.099zm3.6.25c-.05.25-.95-.051-1.35-.101-.301 0-.551 0-.601-.05-.149-.05-.149-.2 0-.25.301-.049 1.951.201 1.951.401zm.8.45c-.05.102-.2 0-.399-.05-.101 0-.2-.05-.15-.2.1-.148.3 0 .4.051.149.049.199.149.149.199zm-1.6 2.15c0 .2-.95-.102-1.399-.102h-.851c-.149 0-.149-.25 0-.25.5-.098 2.25.052 2.25.352zm-2.75-.2c0 .101-.601.101-1.2.05-1 0-1.05-.05-1-.199.05-.199.6-.149.95-.149.45-.002 1.25-.002 1.25.298zm4.4.7c-.1.1-.399-.15-.649-.15-.101 0-.399-.05-.351-.148 0-.15.25-.15.551-.051.299.049.549.199.449.349zm-.9-1.7c-.05.351-.399-.05-1.351-.1-.3 0-.55 0-.6-.052-.15-.049-.15-.198 0-.25.501-.098 2.001.152 1.951.402zm-2.75-.5c.25-.05.851.25.2.3-.051 0-.4 0-.45-.05-.25-.2.15-.25.25-.25zm-.8.1c0 .199-1.051.101-1.301.051-.649-.051-.899.05-.899-.2.05-.25.649-.101.95-.05.45.049 1.25-.101 1.25.199zm4.15.5c.25.051.601.601.05.351-.05 0-.35-.149-.35-.2-.15-.301.25-.151.3-.151zm.2 4.65c.05 0 .15 0 .05.15-.101.149-1.75-.15-1.8-.15-.15-.05-.15-.05-.15-.2.051-.1.15-.05.2-.05s1.65.25 1.7.25zm-2.45-.2c-.05.102-.8.102-.75-.05 0-.2.2-.1.5-.1s.3.1.25.15zm5.25 0c.149 0 .3-.1.25.15-.05.148-.25.1-.7.2-.399.1-.5.198-.449-.052.049-.148.499-.298.899-.298zm-.05-1.2c.15 0 .35-.051.3.149-.101.101-.351.05-.75.15-.399.1-.45.198-.45 0 .05-.149.55-.299.9-.299z" fill="#00467F"/><g fill="#00467F"><path d="M110.675 42.225s-.05.101-.05.301v1.899h.05c-.05-.05-.05-1.2-.05-1.2v-.699c0-.151.05-.251.05-.301.351-.05 1.351-.199 1.55-.1.051.05.101.35.101.75 0 .6-.05 1.35-.101 1.4 0 .05-.35.1-.75.1.351 0 .7-.05.75-.1.051-.051.101-.801.101-1.4 0-.4 0-.7-.101-.75-.25-.1-1.2.05-1.55.1zm0 0zm0 2.2c.101.05.45.05.8 0h-.8z"/><path d="M110.625 42.125c-.15.05-.15.1-.1 1.05v1.25c.05.2.25.2.449.15l.351-.05h.351c.649 0 .75 0 .801-.15v-.4l-.051-.8c.051-1.1-.101-1.149-.15-1.2-.301-.1-1.351.1-1.651.15zm1.55.15v.9l.05.851v.199c-.1 0-.55.051-.55.051h-.351l-.35.05h-.201c.051 0 .051-.3.051-.45v-1.55c.401-.051 1.201-.151 1.351-.051z"/></g><path fill="#00467F" d="M141.575 49.675c-.2-1.25-.25-2.3-.25-3.2 0-.899-.05-1.5-.25-1.899v.05l-1.899-4.6c-.4-1.351-3.65-5.2-3.851-5.4-.399-.6-2.601-2.25-3.25-2.6l-2.45-1.7c-1-.7-2.6-1.35-3.95-1.8l-1.5-.5c-1.95-.65-5-.75-5.399-.7h-1.101c-.399-.05-3.45.05-5.3.75l-1.15.4c-1.449.4-2.8.8-3.8 1.55 0 0-2.75 1.899-2.851 2-.649.35-3.5 2.399-3.85 2.949v-.05c-.15.2-3.101 3.7-3.5 5.05l-1.9 4.65v-.05c-.2.399-.149 1.149-.2 2.05 0 .85-.1 1.8-.3 3.05-.149 1-.05 1.9.101 2.95.149 1.05.149 2.35.35 3.25.15.8.4 1.5.45 2 .25 1.25.9 2.95 1.25 3.398.25.352.7.951.7.951.399.5.851 1.149 1.101 1.601.3.448.399.75.6 1.1.3.55.6 1.05.9 1.5.3.45.649.851 1.1 1.2.1.1 1.15.8 1.65 1.1.6.4.75.5.899.602l.351.35c1 1 1.75 1.801 2.399 2.15.25.148.899.3 1.101.3s.399-.05.55-.149c.25-.149.45-.399.55-.851 0-.05.15-.351.3-.7.2.051.5.301.7.5l-.2.6c-.101.4-.05.802.2 1.15 1.05 1.4 5.05 1.9 8.5 1.801 3.55.101 8.05-.951 8.6-2.301a.696.696 0 0 0-.149-.75c-.05-.05-.101-.15-.149-.199 0-.051.051-.051.1-.101.15-.101.351 0 .451-.05.149.25.299.55.449.85.051.15.2.2.35.25 1.051.15 4.351-2.75 4.4-2.8.1-.101.75-.649 1.301-1.05.5-.301.899-.602 1.049-.7.9-.75 1.551-1.601 2.201-2.7.449-.8.949-1.65 1.699-2.699l.051-.101c.699-.95 1.699-2.899 1.85-4.25.05-.5.199-1.2.351-2 .495-1.852.945-4.202.645-6.202zm-31.6 20.95c-.149-.15-.399-.3-.699-.4.699-1.648 1-2.449 1.1-2.85v-.202l-.15-.3c-.1-.149-.3-.45-.3-.7 0-.35.101-.3.25-.3s.851.149 1.3.399c.351.149.601.5.75.699.051.051.051.2-.05.301s-.149.101-.351.199c-.2.102-.551.352-.6.4-.4.148-.701.85-1.101 2.1 0 .051 0 .051-.05.102-.051.148-.1.25-.1.398.051.004.001.054.001.154zm-.4-4.1c-.25-.149-.45-.25-.8-.449-.5-.352-1.65-1.301-2.2-1.602-.351-.199-.399-.398-.8-.85-.351-.4-.75-.8-1.101-1.05-.45-.351-1.2-1.5-1.45-1.9-.899-1.45-2.3-4.2-2.6-6.95-.05-.35-.05-1.25-.05-2.05 0-.7 0-1.3-.05-1.55.05-.55.199-2.05.35-2.45.1-.3.2-.85.3-1.35.101-.4.2-1 .3-1.25 0 0 .4-1.15.65-1.65l1.25-2.35s.65-1.351 1.15-1.851l.5-.5c.5-.55 1.05-1.149 1.55-1.5.8-.6 2.05-1.449 3.2-2l1.5-.75c.55-.25.85-.399 1.3-.55.05 0 3.05-.95 5.101-1.1-.199.45-.3.85-.351 1.05 0 0-.45.1-1.101.1-.35 0-1.399.2-1.399.2.75 1.101 1.351 1.8 1.7 2.101 0 0-.351 2.149-.351 2.399.05 0 1.149-.6 1.55-.8.351-.2.801-.35.851-.35 0 0 1.05.449 1.3.6.6.35.95.55 1.1.6v-.05s-.55-2.25-.55-2.399c0 0 .3-.301.45-.5.3-.4.65-.65.85-.9.2-.25.601-.65.601-.7 0 0-2.45-.3-2.601-.35 0 0-.25-.55-.449-1 .5.05.8.1 1.399.149h.05c1.45.25 3.101.851 3.851 1.15 0 0 .601.25.649.25s1.051.45 1.051.45c.699.35 1.3.75 1.55.95l.351.25c.75.55 2.399 1.6 2.649 2.05l.399.55c.25.3.4.7.5 1.05.25.55.75 1.25 1.301 1.851.35.449.699.85.899 1.199 0 0 .649.95.8 1.801.15 1.1.45 2.75.601 3.25.8 2.649.55 4.05.25 5.449-.101.45-.3 1.051-.351 1.45-.05.45-.149 1.05-.449 1.65-.101.25-.351.8-.45 1.1-.149.5-.3 1-.601 1.4-.1.149-.3.5-.6.948-.7 1.102-1.7 2.75-2.6 3.852-.301.35-1.051.95-1.65 1.45-.4.3-.7.6-.9.75-.25.25-.75.6-1.199.948v-.1c0-.05 0-.1-.051-.199-.05-.149-.149-.301-.449-.399-.351-.101-.65.05-1.101.25-.3.1-.7.3-1.149.75-.2.149-.5.448-.4.698.05.15.25.352.45.451-1.05.299-2.101.649-2.45.699-.25.051-1.1.301-1.65.4-.6.1-1.25.199-1.55.199-1.3.051-3.149-.449-3.55-.649-.9-.351-2.05-.75-2.85-.95h.05c.3-.15.5-.3.55-.55.05-.149.05-.351-.2-.601s-.601-.551-.95-.699c-.1-.051-.899-.352-1.25-.352-.25 0-.399 0-.5.051-.149.101-.199.199-.199.399-.051.056-.001.206.049.356zm8.75-31.35c-.25-.2-.851-1.2-.851-1.2.051-.149.851-1.899.851-1.899.05.3.05.95.05 1.55s-.05 1.249-.05 1.549zm-3.05-.7c.25.051 1.05.301 1.05.301.601.199 1.101.449 1.75.6-.101.2-.3.55-.3.55l-1.45 2.2s.399-2.1.399-2.15c-.049-.101-.849-.801-1.449-1.501zm5.55.65c0 .1-.5.65-.5.65-.101 0-1.601-.351-1.75-.4 0 0 .601-1.15.851-1.25l2.149.2c-.149.05-.8.25-1.351.399-.649.25-1.25.5-1.25.5s1.651-.099 1.851-.099zm-.5 3c-.149-.05-1.649-.85-1.649-.85-.05-.051-.25-1.601-.25-1.9l1.899 2.75zm6.3 33.85c-.35.852-4.05 2.25-7.8 2.15-3.899.1-7.7-.5-8.5-1.55-.101-.15-.2-.552-.2-.7 0-.05 0-.15.05-.25l.2-.65v-.1c.35-1.2.75-2.602 1.05-2.65.3 0 .3-.148 1.8.4.551.3 3.45 1.148 4.051 1.148.449.052 2.1 0 2.75-.1.55-.1.949-.25 1.199-.25.5-.05 3.301-.9 3.75-1.05 0 0 .051 0 .051.05.1.1.199.4.3.7a.45.45 0 0 1 .05.25c.05.149.1.351.15.55 0 .051.05.1.05.15.05.148.101.3.149.449.051.051.051.149.101.199.05.15.101.25.2.352.05.05.1.148.1.199.05.051.05.101.1.149l.351.5c.048.004.048.054.048.054zm.1-1.2c-.1.051-.149.101-.199.149-.15-.25-.25-.5-.351-.8 0-.05-.05-.102-.05-.102-.05-.1-.1-.198-.1-.35-.051-.1-.051-.15-.101-.25 0-.05-.05-.1-.05-.15-.2-.648-.35-1.148-.7-1.299h-.152c-.449 0-.899-.149-.949-.351 0-.05.05-.2.101-.25.45-.399.649-.649.899-.75.199-.101.65-.3 1.15-.2.1.051.149.2.149.2v.05c0 .2-.2.5-.351.65-.25.199-.35.398-.35.648 0 .4.301.852.7 1.45.2.3.45.7.75 1.2a1.942 1.942 0 0 0-.396.155zm13.85-14.95c-.149.8-.3 1.5-.351 2.05-.199 1.95-.899 2.85-1.75 4l-.05.1c-.851 1.051-1.351 1.95-1.8 2.75-.6 1.051-1.05 1.9-1.9 2.551-.1.101-.55.399-1 .699-.85.551-1.399.95-1.55 1.051-.851.801-3.55 2.851-4 2.649-.601-1.149-1.101-1.95-1.45-2.55-.449-.7-.6-1-.6-1.2 0-.149.05-.2.2-.35.101-.101 1.25-.95 1.7-1.4.149-.149.699-.5 1.1-.8.65-.55 1.75-1.8 2.1-2.15.9-1.1 1.45-1.949 2.101-3.05.25-.45.75-1.2.851-1.3.35-.45.45-.8.6-1.3.101-.302.301-.65.4-.851.301-.701.45-1.5.5-2 .051-.399.051-.551.1-.951.15-.75.451-1.85.451-2.949 0-.9-.15-1.6-.5-2.85-.15-.5-.451-2.201-.601-3.25-.149-.951-.75-2.201-.8-2.25-.25-.4-.649-.801-1.051-1.25-.5-.601-.949-1.301-1.149-1.801-.149-.4-.45-.75-.7-1.1l-.4-.5c-.299-.45-1.449-1.301-2.549-2.1l-.4-.201c-.301-.199-1-.6-1.801-1.049l-1-.551-.699-.25c-.7-.25-2.551-.85-3.2-1-.75-.1-1.351-.25-2.3-.3-.051-.101-.1-.25-.1-.3-.051-.2-.351-.65-.451-.95-.149.101-.449.649-.699 1.25-2.051.149-4.95.95-5.1.95-.5.15-.801.3-1.351.6l-2.2 1.1c-1.449.701-2.199 1.351-2.601 1.65-.55.4-.95.7-1.5 1.301l-.5.5c-.55.549-1.5 2.399-1.5 2.449l-.851 1.45c-.3.5-1.149 2.7-1.149 2.75-.101.25-.2.649-.3 1.101-.101.449-.301.899-.301 1.199-.1 1.75-.25 2.5-.25 2.75s-.1.9-.05 1.4c.05.85 0 1.75.05 2.1.15 1.6 1.101 4.301 2 5.801.051.049.7 1.5 2.351 3.399.25.3.899.851 1.25 1.2.45.449.601.699 1 .949.5.301 1 .649 1.45 1 .55.399 1.1.75 1.649 1.101 0 .05 0 .101-.05.149v.051c0 .05-.05.148-.1.25 0 .05 0 .05-.051.1-.05.1-.05.2-.1.301v.049c-.05.102-.1.25-.15.352 0 .05-.05.05-.05.1-.05.102-.101.25-.149.352-.051.05-.051.148-.101.199-.05.101-.05.149-.101.25.05.199 0 .25 0 .301 0 .05-.051.1-.051.148-.1.2-.149.352-.199.5v.102c-.25.55-.301.699-.301.8-.049.25-.149.45-.299.55-.201.1-.4.2-.801.051-.55-.201-.949-.649-1.5-1.149-.449-.4-.9-.851-1.15-1.15l-.6-.5c-.15-.149-.449-.399-1.3-.95-.2-.148-.399-.199-.55-.35-.2-.15-.649-.602-.7-.65-.851-.648-1.05-1.148-1.601-2.199-.449-.801-1.1-1.949-1.299-2.199l-.5-.65c-.851-1.15-1.551-2.1-1.75-4.05-.05-.55-.25-1-.4-1.8-.1-.352-.1-1-.2-1.4-.3-1.6-.55-3.35-.3-4.9.2-1.299.2-2.1.2-3-.2-.75-.2-1.399-.05-1.699l.05-.301 1.65-4.35c.2-.65 1.5-2.75 2-3.5.5-.699 1.85-2.15 1.85-2.199.25-.4 2.5-1.951 3.15-2.301l2.85-2c.951-.65 2.75-1.25 4.051-1.65l.949-.3c1.851-.65 4.601-.85 4.951-.85h1.149c.351-.05 3.601.2 5.45.85l1.199.25c1.301.4 2.9 1.05 3.851 1.7l3.05 2.051c-.4-.201 2.551 1.449 3.2 2.5.05.049 3.3 4.149 3.649 5.449l1.601 4.1c.149.301.2 1.15.2 1.951 0 .85.199 2.049.4 3.35.554 1.944-.046 4.144-.396 5.994z"/><path d="M117.075 56.925c-.05.2-.95-.149-1.351-.2-.3 0-1.05-.05-1.1-.05-.15 0-.2-.2-.1-.2.451-.1 2.601.2 2.551.45zm-4.35-.4c0 .199 0 0-.949 0-1 0-1.051 0-1-.149.05-.2.649-.101.949-.101.45.05 1-.05 1 .25zm.6-.05c.05-.1.649-.1.649.051 0 .149-.1.101-.399.101-.4-.002-.35-.052-.25-.152zm4.95-30c-.25 0-.45-.2-.45-.5 0-.25.2-.45.5-.45.25 0 .45.2.45.5-.05.25-.25.45-.5.45zm-1.7.05c-.25 0-.5-.2-.5-.45s.149-.5.45-.5c.25 0 .5.2.5.45.05.25-.15.45-.45.5zm-1.65.15c-.25.05-.5-.15-.5-.4-.05-.25.149-.5.399-.55.25-.05.5.15.55.4-.049.3-.199.5-.449.55zm-1.7.25a.46.46 0 1 1-.199-.9c.25-.05.5.1.55.35.099.25-.101.5-.351.55zm-1.65.4c-.25.05-.5-.1-.601-.35-.05-.25.051-.5.351-.6.25-.05.5.1.601.35.049.3-.101.55-.351.6zm-1.6.5c-.25.1-.5-.05-.6-.3s.05-.5.3-.6c.25-.1.5.05.601.3.049.25-.051.55-.301.6zm-1.6.65c-.25.1-.5 0-.6-.25-.101-.25 0-.5.25-.6s.5 0 .6.25c.1.2 0 .45-.25.6zm-1.5.7c-.25.1-.5.05-.65-.2-.1-.25-.05-.5.2-.65.25-.1.5-.05.649.2.101.25.001.55-.199.65zm-1.5.85c-.25.149-.5.05-.65-.15-.149-.2-.05-.5.15-.65.25-.15.5-.05.65.15.15.2.1.5-.15.65zm-1.4.9c-.199.15-.5.101-.649-.1s-.101-.5.101-.65c.2-.149.5-.1.649.101a.474.474 0 0 1-.101.649zm-1.35 1.05c-.2.15-.5.15-.65-.05-.149-.2-.149-.5.051-.649.199-.15.5-.15.649.05a.47.47 0 0 1-.05.649zm-1.3 1.1c-.2.2-.5.149-.649 0a.468.468 0 0 1 0-.65c.2-.2.5-.149.649 0 .2.2.2.45 0 .65zm-1.2 1.2c-.2.199-.45.199-.65 0a.473.473 0 0 1-.05-.65c.2-.2.5-.2.649 0 .201.15.251.45.051.65zm-1.1 1.3c-.15.2-.45.25-.65.05a.427.427 0 0 1-.05-.65.427.427 0 0 1 .649-.05c.151.15.201.4.051.65zm-1.05 1.3a.473.473 0 0 1-.649.1c-.2-.149-.25-.449-.1-.649s.45-.25.65-.101c.199.15.249.45.099.65zm-.9 1.45c-.149.25-.399.3-.649.149-.2-.149-.3-.399-.15-.649s.45-.3.65-.15c.199.15.299.4.149.65zm-.85 1.45c-.1.25-.4.3-.65.199-.25-.1-.35-.399-.2-.649.1-.25.4-.3.65-.2.25.15.35.45.2.65zm-.7 1.55c-.1.25-.4.35-.6.25-.25-.101-.351-.351-.25-.601.1-.25.399-.35.6-.25.25.101.35.351.25.601zm-.65 1.55c-.1.25-.35.35-.6.3-.25-.1-.4-.35-.3-.6s.35-.4.6-.3c.3.1.4.35.3.6zm-.5 1.65c-.05.25-.3.399-.6.35a.57.57 0 0 1-.3-.6c.1-.25.35-.4.6-.351.25.101.4.351.3.601zm-.4 1.65c-.05.25-.3.4-.55.351a.463.463 0 0 1-.351-.551c.05-.25.3-.399.55-.35.251.05.451.3.351.55zm-.25 1.65c-.05.25-.25.45-.5.399-.25-.05-.45-.25-.4-.55.05-.25.25-.45.55-.399.2.05.4.3.35.55zm-.15 1.7c0 .25-.25.449-.5.449s-.45-.25-.45-.5.25-.449.5-.449.45.25.45.5zm-.05 1.7c0 .25-.2.45-.45.5-.25 0-.5-.199-.5-.449s.2-.5.45-.5c.3-.051.5.149.5.449zm.05 1.7c0 .25-.149.5-.45.5s-.5-.149-.5-.45c0-.25.15-.5.45-.5.25 0 .5.2.5.45zm.2 1.65c.05.25-.15.5-.4.55s-.5-.15-.55-.4c-.05-.25.15-.5.4-.55s.5.15.55.4zm.3 1.7c.05.25-.1.5-.35.551a.462.462 0 0 1-.55-.352c-.05-.25.1-.5.35-.55.25-.099.5.101.55.351zm.4 1.65c.05.25-.05.5-.3.601-.25.051-.5-.051-.601-.301-.1-.25.05-.5.3-.6.301-.1.551 0 .601.3zm.55 1.6c.1.25-.05.5-.3.601s-.5-.05-.6-.3.05-.5.3-.602c.25-.099.5.051.6.301zm.6 1.55c.1.25 0 .5-.25.6-.25.101-.5 0-.6-.25s0-.5.25-.6c.25-.1.5 0 .6.25zm.75 1.5c.15.25.05.5-.2.649-.25.101-.5.049-.65-.201-.1-.25-.05-.5.2-.648.25-.1.55 0 .65.2zm.85 1.5c.15.198.05.5-.15.649s-.5.101-.649-.149c-.15-.2-.05-.5.149-.65.25-.15.55-.1.65.15zm.95 1.4c.149.2.101.5-.101.65-.2.148-.5.1-.649-.102a.47.47 0 0 1 .101-.648c.199-.15.499-.1.649.1zm1.05 1.35c.15.198.15.5-.05.649s-.5.149-.649-.051c-.15-.199-.15-.5.05-.65a.428.428 0 0 1 .649.052zm1.15 1.25c.2.198.15.5 0 .649-.2.199-.5.199-.65 0-.199-.201-.199-.5 0-.649.15-.2.45-.2.65 0zm1.2 1.2c.2.199.2.449.05.649-.2.2-.45.2-.65.05a.47.47 0 0 1-.05-.648c.15-.251.45-.251.65-.051zm1.3 1.05c.2.149.25.448.1.649a.475.475 0 0 1-.649.101.475.475 0 0 1-.101-.65c.15-.2.45-.25.65-.1zm1.35 1.05c.2.148.25.45.101.648a.474.474 0 0 1-.649.102.476.476 0 0 1-.101-.65c.149-.2.449-.25.649-.1zm1.45.9c.25.149.3.399.149.649-.149.2-.399.3-.649.15s-.3-.4-.149-.65c.149-.249.399-.299.649-.149zm1.5.8c.25.1.351.399.2.649-.1.25-.4.351-.65.199-.25-.1-.35-.4-.199-.65.099-.248.399-.348.649-.198zm1.5.7c.25.101.351.351.25.601s-.351.351-.601.25-.35-.351-.25-.601c.101-.25.401-.35.601-.25zm1.6.6c.25.1.399.35.3.6-.101.25-.351.4-.601.301-.25-.101-.399-.351-.3-.601.101-.25.351-.4.601-.3zm1.65.45c.25.05.399.3.351.55s-.301.398-.551.35-.399-.3-.35-.55.3-.4.55-.35zm1.65.4c.25.051.399.301.399.551-.05.25-.3.449-.55.399s-.45-.3-.399-.55c.05-.3.3-.45.55-.4zm1.65.25c.25.051.45.25.4.5s-.25.45-.5.4-.45-.25-.4-.5c0-.25.25-.45.5-.4zm1.7.1c.25 0 .45.25.45.5s-.25.448-.5.448-.45-.25-.45-.5.25-.448.5-.448zm1.7.05c.25 0 .45.2.5.45 0 .25-.2.5-.45.5s-.5-.2-.5-.45.2-.5.45-.5zm1.7-.1c.25 0 .5.149.5.399s-.149.5-.399.5-.5-.149-.5-.45c-.051-.199.149-.449.399-.449zm1.65-.2c.25-.052.5.149.551.399.05.25-.15.5-.4.549-.25.052-.5-.148-.55-.398-.001-.3.149-.5.399-.55zm1.7-.35c.25-.05.5.102.55.352a.461.461 0 0 1-.9.199c-.05-.25.1-.451.35-.551zm1.6-.4c.25-.101.5.05.6.3s-.05.5-.3.6c-.25.102-.5-.05-.601-.3-.049-.3.051-.55.301-.6zm1.6-.55c.25-.101.5.051.6.25.101.25 0 .5-.25.601s-.5-.05-.6-.25c-.1-.251.05-.551.25-.601zm1.55-.7c.25-.101.5 0 .601.198.1.25 0 .5-.25.65-.25.1-.5 0-.65-.25a.776.776 0 0 1 .299-.598zm1.55-.75c.25-.15.5-.052.65.198s.05.5-.2.65-.5.051-.649-.199c-.101-.249-.051-.549.199-.649zm1.45-.85c.2-.148.5-.1.649.15.15.2.101.5-.149.648-.2.15-.5.102-.649-.148-.151-.25-.051-.55.149-.65zm1.4-1c.2-.148.5-.1.649.102a.47.47 0 0 1-.1.648c-.2.15-.5.102-.65-.1a.475.475 0 0 1 .101-.65zm1.3-1.05c.2-.149.5-.149.65.05.149.2.149.5-.051.65-.199.148-.5.148-.649-.05-.15-.2-.15-.45.05-.65zm1.25-1.15c.2-.199.5-.199.65 0 .199.199.199.5 0 .649-.2.2-.5.2-.65 0-.2-.149-.2-.449 0-.649zm1.15-1.25c.149-.199.449-.199.649-.051.2.15.2.45.05.65-.149.2-.449.2-.649.05-.2-.149-.2-.449-.05-.649zm1.1-1.3c.15-.199.45-.25.65-.1.199.148.25.45.1.648a.475.475 0 0 1-.65.102c-.25-.15-.25-.45-.1-.65zm1-1.35c.15-.2.45-.25.65-.15.199.15.3.45.149.65-.149.2-.45.3-.649.148-.25-.148-.3-.448-.15-.648zm.85-1.45c.15-.25.4-.3.65-.2.25.15.3.4.2.65-.149.25-.399.3-.649.148-.251-.098-.301-.398-.201-.598zm.8-1.5c.1-.25.399-.35.649-.2.25.102.351.4.2.65-.1.25-.4.35-.65.2-.199-.15-.299-.4-.199-.65zm.65-1.55a.441.441 0 0 1 .601-.25c.25.1.35.35.25.6a.441.441 0 0 1-.601.25c-.2-.1-.3-.35-.25-.6zm.6-1.6c.1-.25.35-.399.6-.301.25.102.4.352.3.602s-.351.398-.601.3c-.249-.101-.399-.351-.299-.601zm.45-1.65c.051-.25.301-.4.551-.352.25.052.399.302.35.552s-.3.399-.55.35a.46.46 0 0 1-.351-.55zm.35-1.65c.05-.25.3-.449.55-.398.25.05.45.3.4.55-.051.25-.301.45-.551.399-.299-.051-.449-.301-.399-.551zm.25-1.7c.05-.25.25-.449.5-.399s.45.25.399.5c-.05.25-.25.45-.5.399-.249 0-.449-.2-.399-.5zm.1-1.65c0-.25.2-.45.5-.45.25 0 .45.2.45.5 0 .25-.25.45-.5.45-.25-.05-.45-.25-.45-.5zm0-1.7c0-.25.2-.5.45-.5s.5.2.5.45-.2.5-.45.5c-.3 0-.5-.2-.5-.45zm-.15-1.7a.422.422 0 0 1 .399-.5c.25-.05.5.15.5.4.05.25-.149.5-.399.5-.25.05-.45-.15-.5-.4zm-.2-1.7c-.05-.25.101-.5.399-.551.25-.05.5.101.551.4.05.25-.15.5-.4.55-.3.051-.5-.149-.55-.399zm-.35-1.65a.46.46 0 1 1 .901-.2c.05.25-.1.5-.35.55a.461.461 0 0 1-.551-.35zm-.5-1.6c-.1-.25.051-.5.301-.601.25-.1.5.05.6.3s-.05.5-.3.601c-.251.05-.501-.05-.601-.3zm-.55-1.6c-.101-.25 0-.5.25-.6.25-.101.5 0 .601.25.1.25 0 .5-.25.6-.251.1-.501 0-.601-.25zm-.7-1.55c-.1-.25 0-.5.2-.6.25-.101.5 0 .649.199.101.25 0 .5-.2.65a.648.648 0 0 1-.649-.249zm-.8-1.5c-.149-.25-.05-.5.149-.65.25-.149.5-.05.65.15.149.25.049.5-.201.65-.148.15-.448.05-.598-.15zm-.85-1.45a.444.444 0 0 1 .149-.649c.2-.15.5-.101.65.149.15.2.1.5-.15.65-.249.15-.499.05-.649-.15zm-1-1.4a.473.473 0 0 1 .101-.65c.2-.15.5-.15.649.1.149.2.101.5-.101.65-.199.15-.499.15-.649-.1zm-1.1-1.3a.427.427 0 0 1 .051-.649c.199-.15.5-.15.649.05s.149.5-.05.65c-.15.199-.45.149-.65-.051zm-1.15-1.2c-.2-.2-.2-.5 0-.65.2-.2.5-.2.649 0 .15.2.2.5 0 .65-.149.15-.449.15-.649 0zm-1.25-1.15c-.2-.15-.2-.45-.05-.65a.427.427 0 0 1 .649-.05c.2.15.2.45.05.65-.149.2-.449.2-.649.05zm-1.35-1.05c-.199-.15-.25-.45-.1-.65s.45-.25.65-.1c.199.149.25.45.1.649-.15.201-.4.251-.65.101zm-1.35-1c-.2-.15-.3-.45-.15-.65s.45-.3.65-.15.3.45.15.65c-.15.25-.45.3-.65.15zm-1.5-.85c-.25-.15-.3-.4-.2-.65.149-.25.399-.3.649-.2.25.15.3.4.199.65-.098.25-.398.35-.648.2zm-1.5-.75c-.25-.1-.35-.4-.25-.6.1-.25.4-.35.6-.25.25.1.351.4.25.65-.1.2-.35.3-.6.2zm-1.55-.65c-.25-.1-.351-.4-.25-.6.101-.25.351-.35.601-.25s.35.35.25.6c-.101.2-.351.35-.601.25zm-1.6-.55c-.25-.1-.399-.35-.3-.6.05-.25.351-.4.601-.3s.399.35.3.6c-.101.25-.351.35-.601.3zm-1.65-.45c-.25-.05-.399-.3-.351-.55s.301-.4.551-.35c.25.05.399.3.35.55s-.25.4-.55.35zm-1.65-.3c-.25-.05-.45-.3-.399-.55.05-.25.3-.45.55-.4.25.05.45.3.399.55-.05.25-.3.45-.55.4zm-1.7-.2c-.25 0-.449-.25-.449-.5s.25-.45.5-.45.449.25.449.5-.2.45-.5.45z" fill="#00467F"/></svg>