<svg xmlns="http://www.w3.org/2000/svg" width="1440" height="1440"><path d="M757.245 1101.421h-84.108a1.258 1.258 0 01-1.258-1.258V740.377a1.26 1.26 0 011.258-1.258h84.108a1.26 1.26 0 011.259 1.258v359.786c0 .696-.564 1.258-1.259 1.258M299.235 1228.343c0-31.967-19.243-56.794-57.104-56.794h-33.828v113.898h33.517c36.31 0 57.415-26.379 57.415-57.104zm-144.312 103.655v-207.002h86.897c65.173 0 112.035 39.104 112.035 103.347 0 64.241-46.862 103.655-111.724 103.655h-87.208M523.62 1193.584c0-13.965-11.793-22.035-25.759-22.035h-42.208v44.379h42.208c13.966 0 25.759-7.757 25.759-22.344zm-5.896 138.414l-34.76-69.518h-27.31v69.518h-53.38v-207.002h103.655c45.932 0 72.002 30.416 72.002 68.899 0 36-22.036 55.242-41.276 62.068l42.208 76.035h-61.139M685.937 1331.998v-83.483l-78.517-123.519h60.207l45.001 76.347 44.379-76.347h60.517l-78.205 123.519v83.483h-53.382M925.22 1177.755l-26.376 77.897H951.6zm51.21 154.243l-10.242-29.793h-81.624l-10.241 29.793h-60.516l77.898-207.002h67.034l78.209 207.002h-60.519M1224.401 1228.343c0-31.967-19.242-56.794-57.104-56.794h-33.829v113.898h33.517c36.311 0 57.416-26.379 57.416-57.104zm-144.314 103.655v-207.002h86.898c65.174 0 112.036 39.104 112.036 103.347 0 64.241-46.862 103.655-111.724 103.655h-87.21" fill="#1c1a19"/><path d="M591.273 236.559h-92.712a1.42 1.42 0 01-1.416-1.415v-92.71a1.42 1.42 0 011.416-1.417h92.712a1.42 1.42 0 011.415 1.416v92.711c0 .779-.636 1.415-1.415 1.415M744.14 387.037H640.845a1.985 1.985 0 01-1.978-1.978V272.16c0-1.088.89-1.979 1.978-1.979H744.14c1.088 0 1.979.891 1.979 1.979v112.899c0 1.088-.891 1.978-1.979 1.978" fill="#3d8535"/><path d="M734.535 203.856H650.45a1.81 1.81 0 01-1.803-1.804v-91.936c0-.992.812-1.803 1.803-1.803h84.084c.99 0 1.802.811 1.802 1.803v91.936a1.81 1.81 0 01-1.802 1.804M890.272 397.972h-92.936a2.402 2.402 0 01-2.396-2.393v-101.69a2.402 2.402 0 012.396-2.393h92.936a2.402 2.402 0 012.395 2.393v101.69a2.402 2.402 0 01-2.395 2.393M583.501 384.443h-93.896a1.921 1.921 0 01-1.914-1.916V279.879a1.92 1.92 0 011.914-1.915h93.896a1.92 1.92 0 011.915 1.915v102.648a1.921 1.921 0 01-1.915 1.916" fill="#97d320"/><path d="M432.995 396.179H348.86c-.685 0-1.245-.56-1.245-1.246v-91.89c0-.686.56-1.246 1.245-1.246h84.135c.684 0 1.244.56 1.244 1.246v91.89c0 .686-.56 1.246-1.244 1.246M420.077 690.01h-82.273a2.183 2.183 0 01-2.176-2.175v-90.03c0-1.196.98-2.176 2.176-2.176h82.273c1.196 0 2.175.98 2.175 2.176v90.03a2.181 2.181 0 01-2.175 2.176M1087.73 688.217h-85.38a.624.624 0 01-.622-.622v-93.138c0-.342.28-.622.623-.622h85.38c.342 0 .622.28.622.622v93.138c0 .342-.28.622-.622.622M908.365 870.807h-84.108a1.258 1.258 0 01-1.257-1.259v-91.864c0-.695.564-1.259 1.257-1.259h84.108a1.26 1.26 0 011.259 1.259v91.864c0 .696-.564 1.259-1.259 1.259" fill="#3d8535"/><path d="M464.553 264.916h-60.629a.829.829 0 01-.825-.827v-66.206c0-.455.372-.827.825-.827h60.63a.83.83 0 01.826.827v66.206a.83.83 0 01-.827.827M990.704 263.755h-74.176a.83.83 0 01-.827-.827v-80.967c0-.454.374-.825.827-.825h74.176c.455 0 .825.37.825.825v80.967c0 .455-.37.827-.825.827M896.817 687.403h-87.702a.828.828 0 01-.826-.826v-95.705c0-.455.371-.827.826-.827h87.702a.83.83 0 01.827.827v95.705a.829.829 0 01-.827.826M415.917 544.148H301.923a.83.83 0 01-.827-.827V435.275a.83.83 0 01.827-.827h113.994a.83.83 0 01.827.827V543.32a.83.83 0 01-.827.827M1112.859 544.148h-99.031a.83.83 0 01-.827-.827V435.275a.83.83 0 01.827-.827h99.03a.83.83 0 01.827.827V543.32a.83.83 0 01-.826.827" fill="#97d320"/><path d="M949.575 557.275H838.497a.83.83 0 01-.826-.828V435.275c0-.455.37-.827.826-.827h111.078a.83.83 0 01.826.827v121.172a.831.831 0 01-.826.828M583.2 557.275H472.123a.83.83 0 01-.827-.828V435.275a.83.83 0 01.827-.827H583.2a.83.83 0 01.827.827v121.172a.83.83 0 01-.827.828M1073.739 391.925h-84.135a1.25 1.25 0 01-1.245-1.245v-91.892c0-.684.56-1.245 1.245-1.245h84.135a1.25 1.25 0 011.244 1.245v91.892a1.25 1.25 0 01-1.244 1.245M609.439 892.168h-84.107a1.26 1.26 0 01-1.259-1.259v-91.865a1.26 1.26 0 011.259-1.259h84.107c.696 0 1.258.564 1.258 1.259v91.865c0 .695-.562 1.259-1.258 1.259" fill="#3d8535"/><path d="M762.912 555.48H650.44a1.258 1.258 0 01-1.259-1.259V431.452c0-.695.563-1.259 1.259-1.259h112.472c.695 0 1.257.564 1.257 1.259v122.77c0 .694-.562 1.258-1.257 1.258" fill="#97d320"/><path d="M884.027 225.348h-92.712a1.42 1.42 0 01-1.415-1.416v-92.71a1.42 1.42 0 011.415-1.417h92.712a1.42 1.42 0 011.414 1.416v92.711a1.42 1.42 0 01-1.414 1.416M774.445 747.87H655.24a1.258 1.258 0 01-1.259-1.257V627.407c0-.696.563-1.259 1.259-1.259h119.206c.694 0 1.258.563 1.258 1.259v119.206c0 .694-.564 1.258-1.258 1.258M689.033 316.979L541.456 192.908l6.924-8.241 147.576 124.07-6.923 8.242" fill="#3d8535"/><path d="M730.301 301.13l-8.024-7.175 83.794-93.688 8.022 7.176-83.792 93.688M913.616 481.759l-7.981-7.226 109.557-121.09 7.981 7.224-109.557 121.092M1028.173 630.236l-95.906-82 6.993-8.177 95.907 81.998-6.994 8.179M862.705 827.616l-151.469-136.61 7.21-7.995L869.918 819.62l-7.212 7.996M576.805 841.359l-8.078-7.114 142.076-161.378 8.08 7.113-142.078 161.379M382.713 646.659l-7.548-7.674 118.208-116.238 7.547 7.673-118.207 116.239M488.192 454.91l-75.381-80.729 7.869-7.344 75.38 80.728-7.868 7.344" fill="#3d8535"/><path d="M609.87 742.97H478.429a.83.83 0 01-.827-.827V610.7a.83.83 0 01.827-.827h131.443a.83.83 0 01.826.827v131.443a.83.83 0 01-.826.828" fill="#97d320"/><path d="M477.713 803.03h-54.826a.83.83 0 01-.828-.826v-59.885a.83.83 0 01.828-.827h54.826c.454 0 .826.372.826.827v59.885a.828.828 0 01-.826.825M1015.447 780.013h-75.58a.83.83 0 01-.827-.825v-75.581a.83.83 0 01.827-.827h75.58a.83.83 0 01.826.827v75.581a.829.829 0 01-.826.825M672.604 465.981L569.143 371.8l7.246-7.962 103.46 94.183-7.245 7.961M723.51 481.78l-7.94-7.267 103.46-113.018 7.94 7.266L723.51 481.78M851.084 640.863L715.865 514.368l7.351-7.863L858.435 633l-7.351 7.863" fill="#97d320"/><path d="M576.785 646.403l-8.037-7.162 146.773-164.676 8.039 7.162-146.775 164.676" fill="#97d320"/></svg>