<svg xmlns="http://www.w3.org/2000/svg" width="225" height="50" viewBox="25 520 1370 295"><path d="M164.352 819.593h-23.995a1.26 1.26 0 01-1.26-1.258V709.963c0-.696.564-1.259 1.26-1.259h23.995c.695 0 1.259.563 1.259 1.259v108.372a1.26 1.26 0 01-1.259 1.258" fill="#1c1a19"/><path d="M113.444 554.885h-26.41a1.42 1.42 0 01-1.417-1.414v-26.412a1.42 1.42 0 011.417-1.416h26.41c.779 0 1.415.637 1.415 1.416v26.412c0 .778-.636 1.414-1.415 1.414M159.843 600.943h-28.87c-1.089 0-1.98-.891-1.98-1.979v-31.81c0-1.087.891-1.978 1.98-1.978h28.87c1.086 0 1.977.89 1.977 1.979v31.809c0 1.088-.89 1.979-1.977 1.979" fill="#3d8535"/><path d="M157.024 544.876h-23.233a1.81 1.81 0 01-1.804-1.803v-25.636c0-.993.812-1.804 1.804-1.804h23.233c.992 0 1.803.811 1.803 1.804v25.636c0 .991-.811 1.803-1.803 1.803M204.279 604.29h-25.122a2.402 2.402 0 01-2.394-2.395v-27.8a2.402 2.402 0 012.394-2.395h25.122a2.403 2.403 0 012.396 2.395v27.8a2.403 2.403 0 01-2.396 2.394M110.719 600.148H84.638a1.92 1.92 0 01-1.915-1.915v-28.76a1.92 1.92 0 011.915-1.914h26.08a1.92 1.92 0 011.916 1.914v28.76a1.92 1.92 0 01-1.915 1.915" fill="#97d320"/><path d="M65.119 603.74H41.096a1.25 1.25 0 01-1.245-1.245v-26.396c0-.686.56-1.246 1.245-1.246H65.12c.684 0 1.245.56 1.245 1.246v26.396c0 .685-.56 1.245-1.245 1.245M60.52 693.673H38.357a2.182 2.182 0 01-2.176-2.176v-24.536c0-1.196.98-2.176 2.176-2.176H60.52c1.197 0 2.176.98 2.176 2.176v24.536c0 1.198-.979 2.176-2.176 2.176M265.945 693.124h-25.268a.624.624 0 01-.622-.621v-27.644c0-.342.28-.622.622-.622h25.268c.343 0 .623.28.623.622v27.644c0 .341-.28.621-.623.621M210.605 749.01H186.61a1.258 1.258 0 01-1.257-1.26v-26.37c0-.695.563-1.259 1.257-1.259h23.996c.696 0 1.259.564 1.259 1.259v26.37c0 .695-.563 1.26-1.259 1.26" fill="#3d8535"/><path d="M75.07 563.564H57.658a.828.828 0 01-.827-.825V543.62a.83.83 0 01.827-.826h17.41c.454 0 .826.372.826.826v19.118a.827.827 0 01-.826.825M236.107 563.21H214.55a.83.83 0 01-.827-.827v-23.634a.83.83 0 01.827-.828h21.556a.83.83 0 01.826.828v23.634a.83.83 0 01-.826.826M207.37 692.875h-25.695a.828.828 0 01-.826-.826v-28.146c0-.455.371-.826.826-.826h25.696c.454 0 .826.371.826.826v28.146a.829.829 0 01-.826.826M60.182 649.03H26.44a.83.83 0 01-.827-.827V616.28a.83.83 0 01.827-.827h33.743a.83.83 0 01.827.827v31.923a.83.83 0 01-.827.826M273.495 649.03H244.33a.828.828 0 01-.826-.827V616.28c0-.455.371-.827.826-.827h29.164a.83.83 0 01.826.827v31.923a.83.83 0 01-.826.826" fill="#97d320"/><path d="M223.519 653.047h-32.851a.83.83 0 01-.827-.827v-35.94a.83.83 0 01.827-.827h32.85a.83.83 0 01.827.827v35.94a.83.83 0 01-.826.827M111.383 653.047H78.53a.828.828 0 01-.825-.827v-35.94c0-.455.37-.827.825-.827h32.852c.454 0 .825.372.825.827v35.94a.829.829 0 01-.825.827M261.23 602.439h-24.022a1.25 1.25 0 01-1.245-1.246v-26.397a1.25 1.25 0 011.245-1.245h24.023c.685 0 1.244.56 1.244 1.245v26.397c0 .684-.559 1.246-1.244 1.246M119.114 755.547H95.117a1.258 1.258 0 01-1.258-1.258v-26.372c0-.694.563-1.257 1.258-1.257h23.997c.694 0 1.258.563 1.258 1.257v26.372c0 .694-.564 1.258-1.258 1.258" fill="#3d8535"/><path d="M166.085 652.497H133.41a1.258 1.258 0 01-1.258-1.258v-35.83c0-.694.563-1.258 1.258-1.258h32.676c.696 0 1.26.564 1.26 1.258v35.83a1.26 1.26 0 01-1.26 1.258" fill="#97d320"/><path d="M203.047 551.455h-26.41a1.42 1.42 0 01-1.417-1.416v-26.411a1.42 1.42 0 011.417-1.416h26.41a1.42 1.42 0 011.416 1.416v26.41a1.42 1.42 0 01-1.416 1.417M169.617 711.383h-34.74a1.258 1.258 0 01-1.257-1.259v-34.739c0-.694.563-1.258 1.257-1.258h34.74c.694 0 1.258.564 1.258 1.258v34.739c0 .695-.564 1.259-1.258 1.259M144.348 579.5L99.18 541.525l2.118-2.522 45.17 37.974-2.12 2.523" fill="#3d8535"/><path d="M156.979 574.65l-2.455-2.198 25.645-28.675 2.456 2.196-25.646 28.676M213.085 629.933l-2.442-2.21 33.533-37.063 2.443 2.21-33.534 37.063M248.148 675.379l-29.353-25.099 2.14-2.503 29.354 25.098-2.141 2.504M197.504 735.79l-46.36-41.813 2.208-2.446 46.359 41.812-2.207 2.448M109.998 739.996l-2.472-2.177 43.485-49.394 2.473 2.178-43.486 49.393M50.592 680.404l-2.31-2.348 36.18-35.577 2.31 2.349-36.18 35.576M82.876 621.716l-23.071-24.708 2.409-2.248 23.071 24.708-2.409 2.248" fill="#3d8535"/><path d="M119.546 709.883H80.463a.83.83 0 01-.828-.827v-39.084a.83.83 0 01.828-.827h39.083a.83.83 0 01.826.827v39.084a.83.83 0 01-.826.827M79.096 728.264H63.463a.828.828 0 01-.828-.825v-17.183a.83.83 0 01.828-.825h15.633c.455 0 .826.372.826.825v17.183c0 .454-.37.825-.826.825M243.68 721.22h-21.985a.83.83 0 01-.828-.827v-21.985a.83.83 0 01.828-.827h21.985a.83.83 0 01.827.827v21.985a.83.83 0 01-.827.827M139.319 625.105l-31.665-28.828 2.217-2.436 31.666 28.827-2.218 2.437M154.901 629.94l-2.43-2.224 31.666-34.592 2.43 2.224L154.9 629.94M193.947 678.63l-41.386-38.715 2.248-2.407 41.387 38.716-2.25 2.407" fill="#97d320"/><path d="M109.992 680.327l-2.46-2.192 44.924-50.403 2.46 2.192-44.924 50.403" fill="#97d320"/><path d="M445.177 719.137c0-30.942-18.625-54.977-55.276-54.977h-32.746v110.255h32.444c35.15 0 55.578-25.536 55.578-55.278zm-139.696 100.34v-200.38H389.6c63.089 0 108.453 37.852 108.453 100.04 0 62.186-45.364 100.34-108.15 100.34h-84.42M662.383 685.49c0-13.518-11.416-21.33-24.935-21.33h-40.857v42.96h40.857c13.519 0 24.935-7.51 24.935-21.63zm-5.708 133.987l-33.647-67.294h-26.437v67.294h-51.674v-200.38H645.26c44.461 0 69.697 29.442 69.697 66.694 0 34.848-21.33 53.473-39.956 60.084l40.857 73.602h-59.182M819.503 819.477v-80.812l-76.007-119.568h58.283L845.339 693l42.961-73.903h58.581l-75.705 119.568v80.812h-51.673M1051.13 670.168l-25.537 75.407h51.072zm49.567 149.31l-9.912-28.84h-79.01l-9.914 28.84H943.28l75.406-200.38h64.89l75.706 200.38h-58.584M1340.733 719.137c0-30.942-18.622-54.977-55.273-54.977h-32.747v110.255h32.444c35.15 0 55.576-25.536 55.576-55.278zm-139.693 100.34v-200.38h84.117c63.083 0 108.456 37.852 108.456 100.04 0 62.186-45.373 100.34-108.153 100.34h-84.42" fill="#1c1a19"/></svg>