<svg xmlns="http://www.w3.org/2000/svg" width="163.581" height="41.828" viewBox="5.919 4.781 163.581 41.828"><path fill="#DEB308" d="M149.297 29.558l2.619-6.928.457.393c1.606 1.312 3.787 2.428 5.848 2.472 1.841.043 2.74-.447 2.496-2.004-.184-1.164-1.496-1.369-2.315-1.531l-1.802-.359c-3.504-.654-6.449-2.816-6.449-6.909 0-6.189 5.336-9.66 10.702-9.66 2.821 0 5.405.718 7.828 2.292l-2.272 6.138c-1.248-.898-3.137-2.162-5.527-2.25-.785-.03-2.584.383-2.008 2.209.248.777 1.363 1.104 2.049 1.27l2.031.491c3.799.884 6.547 3.046 6.547 7.464 0 6.223-5.369 9.303-10.705 9.303-3.112 0-6.717-.886-9.499-2.391M138.383 5.456h8.982v26.103h-8.982zm-10.302 0h9.362l-9.562 26.103h-7.595l-9.528-26.103h9.328l3.998 15.751zm-25.873 7.534c.166 1.111 1.801 9.099 1.801 9.099h-3.59l1.789-9.099zM88.586 31.559h9.496l.721-3.278h6.777l.9 3.278h9.498l-8.893-26.103h-9.959l-8.54 26.103zM65.27 5.456h9.202c8.352 0 14.735 3.834 14.735 13.428 0 7.729-5.205 12.675-12.508 12.675l-11.429-.015V5.456zm9.039 18.607h.615c3.012 0 5.247-1.808 5.247-5.213 0-3.668-1.981-5.714-5.29-5.714h-.572v10.927zM59.803 6.275l.486 4.282c.116 1.019.694 3.458-.02 3.13-.451-.202-.819-1.309-1.188-2.289-.187-.499-1.077-2.856-1.31-3.029-1.124-.843-3.929-1.79-5.827-1.798-5.756-.022-9.563 4.223-9.563 11.757 0 5.401 2.587 11.884 9.169 11.884 2.358 0 6.875-.742 8.104-4.097.555-1.519 1.064-2.867 1.433-2.46.271.301-.083 1.517-.247 2.17-.775 3.112-.818 4.053-1.063 4.174-2.974 1.492-6.787 1.983-10.125 1.983-10.611 0-14.278-6.19-14.278-12.378 0-10.741 6.599-15.187 16.831-14.801 2.585.096 5.173.556 7.598 1.472m-31.339.475l-1.697-.593c-.573-.514.123-.657.123-.657s2.456.455 8.577-.062c0 0 .531.104.162.536l-2.006.859c-1.308.571-1.308.243-1.308 1.676l-.011 13.302c0 10.403-10.584 10.169-12.647 10.169-.981 0-10.611 0-10.611-8.352V9.55c0-2.456.262-2.389-.554-2.678L6.035 5.95s-.414-.588.326-.55c2.006.101 4.913.532 11.667.04 0 0 .593.144.204.573l-1.964.574c-1.556.696-1.35.164-1.392 1.76l.048 13.884c0 3.406 1.752 7.619 7.188 7.619 7.501 0 7.571-6.486 7.571-7.928l.013-13.755c.079-1.295-.084-.926-1.232-1.417M8.188 34.712h160.925v.873H8.188z"/><path fill="#004B85" d="M165.991 43.07h-2.402l1.34-3.211 1.062 3.211zm.172.439c.498 1.457.826 2.302.826 2.388s-.082.124-.164.124h-.65v.357h2.699v-.357h-.357c-.314 0-.458-.172-.739-.934-.592-1.604-2.083-5.633-2.083-6.154 0-.23.21-.219.21-.377 0-.084-.058-.121-.118-.121-.067 0-.41.087-.711.158l-3.056 7.232c-.069.157-.248.194-.435.194h-.24v.356h2.439v-.355h-.757c-.185 0-.31-.065-.31-.312 0-.34.439-1.521.697-2.199h2.749zm-6.543-4.243c0-.104.047-.188.18-.188h.541v-.363h-2.799v.363h.713c.315 0 .338.459.338 1.701v5.047c0 .108-.047.194-.184.194h-.566v.356h2.8v-.356h-.683c-.317 0-.34-.462-.34-1.702v-5.052zm-9.332-.552h-1.756v.363h.374c.575 0 .679.412.679 1.387v5.312c0 .179-.135.244-.272.244h-.448v.356h2.208v-.356h-.64c-.362 0-.389-.714-.389-1.271v-4.863h.025l5.227 6.301.146.164c.084.1.134.137.168.137.088 0 .101-.084.101-.189V39.32c0-.182.129-.239.274-.239h.449v-.365h-2.208v.365h.641c.357 0 .381.713.381 1.266v4.345h-.022l-4.938-5.978zm-8.017 7.112c0 .108-.049.194-.183.194h-.563v.356h2.795v-.356h-.688c-.311 0-.334-.462-.334-1.702v-1.412h.895c2.207 3.467 2.34 3.473 2.617 3.473h1.393v-.357h-.303c-.355 0-.763-.398-2.76-3.288 1.068-.19 1.893-.858 1.893-1.944 0-1.529-1.373-2.074-2.431-2.074h-3.381v.363h.713c.313 0 .339.459.339 1.701l-.002 5.046zm1.026-3.284v-3.225c0-.158.168-.166.279-.166h.614c.947 0 1.808.694 1.808 1.829 0 1.187-1.064 1.562-2.099 1.562h-.602zm-6.95-3.658c1.424 0 3.044 1.158 3.044 3.888 0 2.194-1.102 3.44-2.73 3.44-1.427 0-3.039-1.16-3.039-3.894-.002-2.192 1.093-3.434 2.725-3.434m.049 7.725c2.401 0 4.021-1.898 4.021-4.176 0-2.352-1.377-3.95-3.81-3.95-2.399 0-4.017 1.897-4.017 4.181 0 2.351 1.379 3.945 3.806 3.945m-10.58-7.531h.714c.312 0 .334.459.334 1.701v5.047c0 .108-.045.194-.177.194h-.567v.356h2.803v-.356h-.689c-.314 0-.337-.462-.337-1.702v-1.934h1.519c1.379 0 1.494.013 1.494.337v.422h.332v-2.04h-.332v.473c0 .36-.367.414-1.611.414h-1.4v-2.623c0-.121.059-.215.24-.215h1.185c1.901 0 2.111.323 2.149.465.023.164.045.221.145.221.107-.025.141-.057.25-1.123h-6.048v.363h-.004zm-2.21.188c0-.104.051-.188.182-.188h.551v-.363h-2.805v.363h.713c.315 0 .338.459.338 1.701v5.047c0 .108-.051.194-.185.194h-.562v.356h2.799v-.356h-.688c-.312 0-.344-.462-.344-1.702v-5.052zm-6.115-.552h-2.804v.363h.713c.313 0 .337.459.337 1.701v5.047c0 .108-.045.194-.179.194h-.565v.356h5.742c.145-.48.301-.967.301-1.071 0-.06-.049-.13-.096-.13-.087 0-.107.07-.141.13-.209.334-.684.64-2.729.64h-.807c-.369 0-.5 0-.5-1.496v-5.184c0-.105.048-.188.183-.188h.543v-.363h.002zm-6.216 4.356h-2.405l1.336-3.211 1.069 3.211zm.167.439c.497 1.457.834 2.302.834 2.388s-.085.124-.176.124h-.646v.357h2.698v-.357h-.356c-.312 0-.457-.172-.732-.934-.593-1.604-2.091-5.633-2.091-6.154 0-.23.21-.219.21-.377 0-.084-.051-.121-.12-.121-.067 0-.408.087-.709.158l-3.056 7.232c-.069.157-.246.194-.428.194h-.244v.356h2.441v-.355h-.766c-.178 0-.303-.065-.303-.312 0-.34.436-1.521.699-2.199h2.745zm-5.568-4.613a5.655 5.655 0 0 0-2.07-.413c-2.516 0-4.676 1.765-4.676 4.358 0 2.512 1.681 3.768 4.082 3.768.93 0 1.967-.215 2.771-.611.054-.766.077-.942.077-1.056 0-.071-.023-.157-.119-.157-.135 0-.148.123-.159.219-.084.678-1.276 1.17-2.368 1.17-1.494 0-3.185-1.219-3.185-3.461 0-2.103 1.282-3.791 3.499-3.791.727 0 1.729.326 1.789.756.025.183.033.236.14.236.124 0 .135-.041.219-1.018m-17.25.182h.713c.314 0 .343.459.343 1.701v5.047c0 .108-.048.194-.185.194h-.565v.356h2.802v-.356h-.689c-.312 0-.338-.462-.338-1.702v-1.934h1.523c1.376 0 1.494.013 1.494.337v.422h.32v-2.04h-.32v.473c0 .36-.374.414-1.617.414h-1.4v-2.623c0-.121.062-.215.238-.215h1.186c1.91 0 2.113.323 2.15.465.023.164.044.221.146.221.104-.025.146-.057.248-1.123h-6.049v.363zm-4.928-.194c1.427 0 3.044 1.158 3.044 3.888 0 2.194-1.1 3.44-2.731 3.44-1.423 0-3.042-1.16-3.042-3.894 0-2.192 1.101-3.434 2.729-3.434m.052 7.725c2.397 0 4.019-1.898 4.019-4.176 0-2.352-1.38-3.95-3.807-3.95-2.401 0-4.02 1.897-4.02 4.181 0 2.351 1.378 3.945 3.808 3.945m-10.405-3.557l1.979-3.613c.084-.156.145-.361.338-.361h.425v-.363h-2.2v.363h.705c.138 0 .239.01.239.146 0 .229-.171.581-1.655 3.373-.908-1.601-1.942-3.359-1.942-3.474 0-.045.109-.045.192-.045h.555v-.363h-2.716v.363h.408c.209 0 .269.01.398.182.448.568.858 1.4 2.248 3.826v2.74c0 .108-.052.194-.18.194h-.567v.356h2.799v-.356h-.693c-.313 0-.333-.462-.333-1.702v-1.266zm-7.303-3.899h.302c1.413 0 2.099.249 2.217.615.025.069.077.17.17.17.074 0 .135-.041.135-.125 0-.075-.17-.601-.34-1.099h-5.998c-.164.498-.337 1.023-.337 1.099 0 .085.058.125.132.125.097 0 .145-.101.17-.17.118-.366.809-.615 2.215-.615h.306v6.673c0 .108-.044.194-.18.194h-.907v.356h3.378v-.356h-.926c-.314 0-.338-.462-.338-1.702l.001-5.165zm-5.686.113c0-.104.042-.188.18-.188h.542v-.363h-2.798v.363h.711c.312 0 .338.459.338 1.701v5.047c0 .108-.05.194-.179.194h-.567v.356h2.8v-.356h-.694c-.314 0-.333-.462-.333-1.702v-5.052zm-5.201-.347c.383 0 1.358.133 1.444.654.014.084.03.18.144.18.097 0 .136-.076.136-.162 0-.285-.022-.584-.039-.877-.386-.18-.854-.232-1.363-.232-1.291 0-2.738.764-2.738 2.213 0 1.473 1.475 1.942 2.018 2.137 1.194.433 1.893.844 1.893 1.772 0 1.088-.992 1.567-1.959 1.567-.588 0-1.713-.25-1.883-.926-.021-.111-.055-.232-.179-.232-.094 0-.146.062-.146.148 0 .108.052.359.181 1.105.558.219 1.295.34 1.883.34 1.993 0 2.909-1.312 2.909-2.365 0-1.293-.731-1.789-2.279-2.354-.766-.287-1.666-.603-1.666-1.583 0-.89.836-1.385 1.644-1.385m-8.974 6.907c0 .108-.049.194-.179.194h-.567v.356h2.799v-.356h-.688c-.314 0-.339-.462-.339-1.702v-1.412h.896c2.208 3.467 2.343 3.473 2.62 3.473h1.386v-.357h-.303c-.349 0-.759-.398-2.75-3.288 1.06-.19 1.882-.858 1.882-1.944 0-1.529-1.366-2.074-2.425-2.074h-3.38v.363h.709c.317 0 .338.459.338 1.701l.001 5.046zm1.026-3.284v-3.225c0-.158.169-.166.275-.166h.621c.953 0 1.81.694 1.81 1.829 0 1.187-1.063 1.562-2.103 1.562h-.603zm-8.236 3.284c0 .108-.044.194-.18.194h-.563v.356h5.746c.144-.48.298-.967.298-1.071 0-.06-.043-.13-.094-.13-.083 0-.109.07-.139.13-.208.334-.683.64-2.731.64h-.808c-.367 0-.498 0-.498-1.496v-2.064h1.52c1.376 0 1.494.013 1.494.337v.422h.33v-2.04h-.33v.473c0 .36-.371.414-1.613.414H40v-2.623c0-.121.061-.215.24-.215h1.186c1.909 0 2.113.323 2.147.465.024.164.044.221.143.221.112-.025.151-.057.256-1.123h-6.048v.363h.71c.314 0 .335.459.335 1.701v5.046zm-1.553-7.112h-2.299v.363h.693c.209 0 .304.034.304.205 0 .454-.558 1.848-2.101 5.604-1.546-3.756-2.394-5.627-2.394-5.733 0-.075.052-.075.127-.075h.65v-.363h-2.61v.363h.29c.398 0 .467.045.882 1.029l2.56 6.191c.083.215.118.311.205.311.119 0 .159-.156.263-.421l2.755-6.976c.05-.135.067-.135.145-.135h.529l.001-.363zm-9.209.552c0-.104.044-.188.179-.188h.544v-.363h-2.801v.363h.713c.313 0 .34.459.34 1.701v5.047c0 .108-.051.194-.186.194h-.567v.356h2.799v-.356h-.681c-.316 0-.34-.462-.34-1.702v-5.052zm-9.332-.552h-1.75v.363h.37c.573 0 .678.412.678 1.387v5.312c0 .179-.132.244-.275.244h-.448v.356h2.206v-.356h-.636c-.364 0-.389-.714-.389-1.271v-4.863h.025l5.231 6.301.139.164c.089.1.135.137.171.137.089 0 .099-.084.099-.189V39.32c0-.182.13-.239.278-.239h.444v-.365h-2.206v.365h.638c.363 0 .382.713.382 1.266v4.345h-.019l-4.938-5.978zm-10.458.364h.711c.316 0 .346.459.346 1.701v2.678c0 1.271.129 3.152 3.016 3.152 1.873 0 3.052-1.133 3.052-2.992v-4.299c0-.182.135-.24.275-.24h.447v-.363h-2.206v.363h.637c.364 0 .39.713.39 1.266v2.904c0 .949-.037 2.867-2.533 2.867-.887 0-2.053-.492-2.053-2.27v-4.578c0-.105.044-.188.181-.188h.544v-.365H8.417v.364z"/></svg>