<?xml version="1.0" encoding="utf-8"?>
<!-- Generator: Adobe Illustrator 16.0.0, SVG Export Plug-In . SVG Version: 6.00 Build 0)  -->
<!DOCTYPE svg PUBLIC "-//W3C//DTD SVG 1.1//EN" "http://www.w3.org/Graphics/SVG/1.1/DTD/svg11.dtd">
<svg version="1.1" id="Layer_1" xmlns="http://www.w3.org/2000/svg" xmlns:xlink="http://www.w3.org/1999/xlink" x="0px" y="0px"
	 width="29.405px" height="18.903px" viewBox="0 0 29.405 18.903" enable-background="new 0 0 29.405 18.903" xml:space="preserve">
<g>
	<g>
		<defs>
			<rect id="SVGID_1_" x="-13.093" y="-3.979" width="42.498" height="24.759"/>
		</defs>
		<clipPath id="SVGID_2_">
			<use xlink:href="#SVGID_1_"  overflow="visible"/>
		</clipPath>
	</g>
</g>
<g>
	<path fill="#005581" d="M29.405,9.452c0,0.372-0.109,0.75-0.328,1.132c-1.531,2.517-3.591,4.532-6.178,6.047
		c-2.588,1.516-5.32,2.272-8.197,2.272s-5.609-0.76-8.196-2.281c-2.587-1.52-4.646-3.533-6.178-6.038C0.108,10.201,0,9.824,0,9.452
		s0.108-0.749,0.328-1.132c1.531-2.505,3.591-4.518,6.178-6.039S11.825,0,14.702,0s5.609,0.76,8.197,2.281
		c2.587,1.521,4.646,3.534,6.178,6.039C29.296,8.703,29.405,9.08,29.405,9.452z M27.306,9.452c-1.663-2.582-3.747-4.513-6.252-5.792
		c0.666,1.138,1,2.369,1,3.692c0,2.024-0.719,3.755-2.157,5.193s-3.17,2.157-5.194,2.157c-2.023,0-3.755-0.719-5.193-2.157
		c-1.439-1.438-2.158-3.169-2.158-5.193c0-1.324,0.334-2.555,1.002-3.692c-2.506,1.28-4.59,3.211-6.252,5.792
		c1.454,2.243,3.279,4.029,5.472,5.358c2.193,1.329,4.571,1.994,7.13,1.994c2.561,0,4.938-0.665,7.131-1.994
		S25.851,11.694,27.306,9.452z M15.261,3.708C15.414,3.555,15.49,3.37,15.49,3.15c0-0.219-0.076-0.405-0.229-0.558
		c-0.153-0.153-0.339-0.229-0.559-0.229c-1.367,0-2.541,0.49-3.52,1.469s-1.469,2.152-1.469,3.52c0,0.219,0.076,0.404,0.23,0.558
		c0.152,0.153,0.338,0.23,0.557,0.23s0.405-0.077,0.559-0.23s0.229-0.339,0.229-0.558c0-0.941,0.334-1.745,1.001-2.413
		c0.668-0.667,1.472-1.001,2.412-1.001C14.922,3.938,15.107,3.862,15.261,3.708z"/>
</g>
</svg>
