<svg xmlns="http://www.w3.org/2000/svg" width="140.477" height="48.18" viewBox="0 0 140.477 48.18"><path d="M64.366 30.915h-.103c-1.092 2.082-2.457 3.644-4.095 4.684s-3.634 1.562-5.988 1.562c-1.979 0-3.686-.377-5.118-1.127-1.434-.75-2.611-1.756-3.532-3.02-.921-1.262-1.604-2.721-2.048-4.377a19.99 19.99 0 0 1-.665-5.194c0-1.945.238-3.763.716-5.451.479-1.688 1.203-3.147 2.176-4.376s2.192-2.201 3.66-2.918c1.467-.717 3.19-1.074 5.17-1.074 1.057 0 2.098.145 3.121.435 1.024.29 1.971.708 2.842 1.254a8.978 8.978 0 0 1 2.277 2.048 8.985 8.985 0 0 1 1.484 2.764h.103V0h1.944v36.545h-1.944v-5.63zm-9.777 4.556c1.672 0 3.113-.34 4.325-1.023a9.239 9.239 0 0 0 3.021-2.713c.801-1.127 1.398-2.414 1.791-3.865.392-1.449.588-2.926.588-4.427 0-1.536-.196-3.028-.588-4.479-.393-1.45-.981-2.747-1.766-3.89a8.7 8.7 0 0 0-3.046-2.738c-1.246-.684-2.705-1.024-4.376-1.024-1.74 0-3.225.333-4.453.998s-2.244 1.562-3.046 2.687c-.802 1.127-1.382 2.424-1.74 3.891a19.157 19.157 0 0 0-.537 4.556c0 1.535.195 3.028.589 4.479.392 1.45.988 2.738 1.791 3.864.801 1.127 1.816 2.021 3.045 2.688s2.695.996 4.402.996zm34.345-4.147h-.103a8.118 8.118 0 0 1-1.33 2.227 9.446 9.446 0 0 1-2.125 1.869 10.52 10.52 0 0 1-2.841 1.279c-1.058.307-2.218.461-3.479.461-2.799 0-4.966-.607-6.501-1.818-1.536-1.211-2.304-3.078-2.304-5.604 0-1.535.307-2.79.922-3.763.614-.972 1.39-1.739 2.328-2.303s1.979-.964 3.123-1.203a31.132 31.132 0 0 1 3.301-.513l3.02-.255c1.399-.103 2.5-.265 3.303-.487.801-.221 1.406-.527 1.816-.92.409-.393.666-.896.768-1.51.103-.615.154-1.383.154-2.305 0-.716-.137-1.381-.41-1.996-.273-.613-.699-1.159-1.279-1.637-.581-.479-1.331-.854-2.252-1.127-.922-.272-2.048-.409-3.379-.409-2.354 0-4.257.581-5.707 1.74-1.451 1.161-2.244 2.917-2.38 5.272h-1.944c.135-2.9 1.065-5.076 2.789-6.526 1.723-1.45 4.172-2.175 7.345-2.175 3.174 0 5.485.623 6.936 1.867 1.45 1.246 2.176 2.875 2.176 4.889v15.304c0 .376.008.751.025 1.126.017.377.077.717.179 1.023.103.309.273.556.512.742.238.188.58.282 1.024.282.341 0 .819-.052 1.433-.153v1.637a6.068 6.068 0 0 1-1.586.205c-.785 0-1.408-.102-1.869-.307-.46-.205-.811-.478-1.049-.818a3.027 3.027 0 0 1-.486-1.203 8.256 8.256 0 0 1-.128-1.51v-1.381zm0-9.724c-.479.58-1.202.973-2.175 1.178s-2.057.357-3.251.46l-3.275.308c-.956.102-1.911.248-2.866.436a8.398 8.398 0 0 0-2.586.945 5.284 5.284 0 0 0-1.867 1.818c-.479.768-.717 1.766-.717 2.994 0 1.944.613 3.387 1.842 4.324 1.229.939 2.918 1.408 5.068 1.408 2.218 0 3.975-.4 5.271-1.203 1.297-.801 2.285-1.723 2.969-2.764.683-1.041 1.117-2.047 1.306-3.02.187-.973.281-1.63.281-1.971V21.6zm8.036 6.193c.068 1.229.341 2.312.818 3.25a7.908 7.908 0 0 0 1.869 2.406 7.86 7.86 0 0 0 2.688 1.51c1.023.342 2.132.512 3.326.512.854 0 1.767-.076 2.738-.23a9.49 9.49 0 0 0 2.713-.845 5.614 5.614 0 0 0 2.073-1.714c.546-.734.819-1.664.819-2.79 0-1.468-.444-2.576-1.331-3.327-.888-.75-2.005-1.33-3.353-1.74s-2.799-.742-4.351-.998a22.684 22.684 0 0 1-4.351-1.151c-1.349-.513-2.466-1.237-3.354-2.176-.887-.938-1.33-2.312-1.33-4.12 0-1.297.289-2.381.87-3.25a6.436 6.436 0 0 1 2.227-2.073c.903-.512 1.919-.878 3.046-1.101a17.416 17.416 0 0 1 3.378-.332c1.364 0 2.644.152 3.839.46 1.193.308 2.227.802 3.097 1.484a7.08 7.08 0 0 1 2.047 2.61c.494 1.059.742 2.338.742 3.839h-1.945c0-1.194-.195-2.218-.588-3.071-.393-.852-.938-1.543-1.638-2.072-.7-.529-1.527-.922-2.482-1.178a11.835 11.835 0 0 0-3.071-.384c-.888 0-1.783.085-2.688.256-.905.171-1.714.46-2.431.87s-1.306.939-1.766 1.587c-.461.648-.691 1.433-.691 2.354 0 1.059.256 1.911.768 2.559.512.648 1.186 1.17 2.021 1.562.836.394 1.773.708 2.815.946 1.04.24 2.09.479 3.147.717 1.297.24 2.517.521 3.66.846 1.143.324 2.132.768 2.968 1.33a6.024 6.024 0 0 1 1.971 2.176c.479.887.717 2.014.717 3.378 0 1.433-.324 2.61-.972 3.532a7.54 7.54 0 0 1-2.457 2.227c-.99.562-2.091.954-3.301 1.177a19.737 19.737 0 0 1-3.559.333c-1.502 0-2.892-.197-4.171-.59-1.28-.391-2.397-.988-3.353-1.791a8.498 8.498 0 0 1-2.252-2.943c-.547-1.159-.837-2.508-.871-4.043h1.949zM121.59 0v15.867h.102a8.427 8.427 0 0 1 1.459-2.637 9.69 9.69 0 0 1 4.939-3.2 11.38 11.38 0 0 1 3.02-.408c1.536 0 2.841.188 3.916.562 1.074.375 1.953.87 2.637 1.484.682.614 1.219 1.305 1.611 2.072s.674 1.545.845 2.33c.17.785.272 1.544.308 2.277.033.734.051 1.374.051 1.92v16.275h-1.945V19.91c0-.647-.051-1.467-.153-2.457a7.481 7.481 0 0 0-.896-2.84c-.496-.904-1.246-1.681-2.253-2.329-1.007-.647-2.397-.973-4.171-.973-1.502 0-2.832.273-3.992.819s-2.15 1.305-2.969 2.277c-.819.973-1.442 2.133-1.869 3.48s-.639 2.824-.639 4.428v14.229h-1.945V0h1.944z" fill="#7C7E7F"/><path d="M24.102 38.284c-.008-.057-.208-3.038-1.587-6.497-1.387-3.462-3.336-5.453-3.391-5.512a1.662 1.662 0 0 0-1.166-.498h-.011c-.419.006-.846.17-1.166.498-.054.059-2.004 2.05-3.391 5.512-1.379 3.459-1.58 6.44-1.586 6.497l-.008.38v.012l.004-.002c.024 1.887 3.056 1.965 3.12-.299l.006-.102.029-.444s.034-.563.191-1.457c.156-.894.433-2.089.9-3.257a13.146 13.146 0 0 1 1.482-2.72c.161-.229.688-.229.849 0a13.245 13.245 0 0 1 1.481 2.72c.468 1.168.746 2.363.901 3.257.157.894.19 1.456.19 1.456l.028.445.005.102c.065 2.264 3.097 2.186 3.122.299l.003.002v-.012l-.005-.38zm10.443-16.749c-.056-.01-2.923-.738-6.604-.48-3.685.263-6.162 1.521-6.233 1.557a1.682 1.682 0 0 0-.828.965c0 .002 0 .004-.002.006l-.003.006.002.002c-.125.402-.102.863.107 1.271.039.072 1.309 2.561 4.138 4.965 2.828 2.395 5.57 3.508 5.623 3.533l.355.123.003.002h.001l.008.003-.003-.005c1.784.561 2.794-2.331.685-3.092l-.094-.037-.409-.164s-.52-.208-1.312-.635c-.793-.426-1.832-1.062-2.785-1.873a13.056 13.056 0 0 1-2.102-2.265c-.166-.224-.003-.731.262-.815a12.795 12.795 0 0 1 3.019-.584c1.242-.088 2.452.014 3.343.141.887.126 1.43.266 1.43.266l.426.109.099.027c2.147.637 3.013-2.302 1.243-2.908l.004-.002-.007-.003h-.003l-.001-.001-.362-.112zM22.015 6.319c-.028.052-1.599 2.583-2.496 6.2-.89 3.625-.471 6.395-.459 6.475.068.455.316.842.651 1.094.001.002.005.002.006.005.001.001.002.003.005.003.339.244.781.365 1.229.289.08-.014 2.814-.467 5.949-2.443 3.127-1.98 5.023-4.271 5.062-4.314l.227-.303.001-.003h.002l.003-.007-.003.002c1.077-1.543-1.332-3.408-2.698-1.614l-.064.079-.281.344s-.355.434-1.002 1.064c-.646.631-1.564 1.431-2.622 2.1a13.115 13.115 0 0 1-2.781 1.32c-.262.087-.688-.226-.687-.506.004-.771.083-1.859.385-3.08.3-1.221.77-2.354 1.163-3.171.395-.813.693-1.29.694-1.292l.235-.375.054-.088c1.265-1.869-1.233-3.605-2.351-2.095v-.005l-.006.006v.003l-.002.003-.214.309zM3.827 13.664c.039.043 1.935 2.336 5.062 4.316 3.136 1.975 5.871 2.428 5.949 2.443.448.074.891-.047 1.23-.289h.001c.002-.001.003-.004.004-.006l.006-.002v-.002a1.67 1.67 0 0 0 .651-1.093c.011-.081.43-2.851-.459-6.475-.897-3.617-2.468-6.147-2.496-6.2l-.215-.311-.001-.002-.004-.006-.001.004c-1.118-1.513-3.616.228-2.352 2.094l.055.088.234.375c0 .002.3.479.693 1.293.393.816.865 1.949 1.165 3.171.3 1.22.381 2.308.383 3.081.002.281-.424.593-.687.504a12.852 12.852 0 0 1-2.779-1.321c-1.057-.665-1.977-1.468-2.624-2.099-.644-.627-1.001-1.064-1.001-1.064l-.281-.345-.065-.078c-1.367-1.792-3.774.07-2.698 1.613l-.002-.002.002.008H3.6l.002.004.225.301zm1.29 19.756c.053-.024 2.795-1.139 5.624-3.533 2.829-2.404 4.098-4.893 4.136-4.965a1.68 1.68 0 0 0 .108-1.271h.002c0-.004-.002-.004-.003-.006-.002-.004 0-.004-.002-.007a1.658 1.658 0 0 0-.828-.965c-.072-.036-2.548-1.294-6.232-1.558-3.683-.257-6.549.471-6.605.482l-.359.11-.002.001H.953l-.008.002.004.003c-1.768.606-.903 3.546 1.244 2.907l.099-.025.426-.109s.544-.143 1.431-.268c.889-.125 2.099-.229 3.342-.141 1.241.088 2.291.348 3.019.584.264.084.425.594.261.817a12.945 12.945 0 0 1-2.103 2.264c-.952.812-1.991 1.446-2.784 1.874-.791.424-1.312.633-1.312.632l-.41.165-.094.038c-2.108.761-1.1 3.651.685 3.093l-.003.005.009-.004.004-.002.354-.123z" fill="#FF8300"/><path d="M45.439 42.73c.822 0 1.453.209 1.896.627S48 44.412 48 45.268c0 .447-.049.846-.148 1.191s-.254.637-.463.873-.476.416-.799.541c-.324.125-.707.187-1.15.187h-1.828v-5.33h1.827zm.061 4.733c.08 0 .18-.006.299-.02.119-.012.246-.042.381-.09.134-.047.268-.115.398-.205.133-.09.25-.211.355-.365.104-.154.189-.348.257-.578.067-.232.101-.512.101-.84 0-.318-.031-.604-.093-.855a1.652 1.652 0 0 0-.306-.642 1.34 1.34 0 0 0-.549-.403 2.189 2.189 0 0 0-.828-.138H44.32v4.136h1.18zm5.597-4.733l2.083 5.329h-.784l-.582-1.604H49.56l-.598 1.604h-.724l2.075-5.329h.784zm.493 3.127l-.888-2.486h-.016l-.902 2.486h1.806zm.859-2.53v-.597h4.262v.597h-1.775v4.732h-.709v-4.732h-1.778zm6.397-.597l2.082 5.329h-.783l-.583-1.604h-2.254l-.598 1.605h-.724l2.075-5.329h.785zm.492 3.127l-.888-2.486h-.016l-.902 2.486h1.806zm6.857-2.4c-.236-.172-.539-.257-.907-.257-.149 0-.296.015-.44.045s-.272.079-.385.149a.78.78 0 0 0-.268.279.86.86 0 0 0-.102.438c0 .164.049.297.146.398.097.103.227.186.388.25.162.064.346.119.549.161.205.042.412.089.624.138.211.051.419.108.623.176.204.066.387.158.549.271.161.115.291.26.388.434.098.174.146.393.146.657 0 .284-.064.526-.191.728s-.289.365-.488.492-.422.219-.668.277a3.255 3.255 0 0 1-.735.086c-.299 0-.581-.038-.848-.113a2.093 2.093 0 0 1-.702-.339 1.614 1.614 0 0 1-.477-.583 1.872 1.872 0 0 1-.176-.84h.672c0 .225.043.418.131.579.086.161.201.294.343.399.142.104.308.182.497.231.188.05.383.075.582.075.159 0 .319-.016.48-.045a1.43 1.43 0 0 0 .438-.154.852.852 0 0 0 .313-.295.871.871 0 0 0 .119-.477.664.664 0 0 0-.146-.448 1.074 1.074 0 0 0-.389-.28 2.915 2.915 0 0 0-.548-.176l-.624-.137a9.19 9.19 0 0 1-.623-.165 2.273 2.273 0 0 1-.549-.246c-.161-.103-.291-.233-.388-.396s-.146-.365-.146-.608c0-.269.055-.501.164-.698s.255-.357.438-.485a1.97 1.97 0 0 1 .619-.284c.23-.062.469-.092.713-.092.273 0 .527.031.762.096.233.065.438.168.615.307.176.14.316.314.418.527.102.211.158.463.168.756h-.672c-.039-.382-.177-.659-.413-.831zm2.877-.727v2.291h2.807V42.73h.709v5.329h-.709v-2.44h-2.807v2.44h-.709V42.73h.709zm6.912 0l2.083 5.329h-.784l-.582-1.604h-2.254l-.598 1.604h-.724L75.2 42.73h.784zm.492 3.127l-.888-2.486h-.015l-.903 2.486h1.806zm4.621-3.127c.508 0 .904.124 1.19.373.286.248.43.59.43 1.021 0 .324-.073.607-.22.852-.147.244-.383.41-.706.5v.016c.154.029.28.079.377.148.097.07.175.153.231.25.057.098.1.205.127.325.027.119.049.243.063.374.01.129.017.26.022.395.005.135.018.267.037.396.02.129.049.252.086.369s.094.22.168.31h-.791a.444.444 0 0 1-.102-.224 2.239 2.239 0 0 1-.033-.318 62.73 62.73 0 0 1-.015-.377 2.713 2.713 0 0 0-.045-.395 4.143 4.143 0 0 0-.075-.369.849.849 0 0 0-.141-.307.706.706 0 0 0-.254-.209.933.933 0 0 0-.418-.078h-1.732v2.276h-.709V42.73h2.51zm.15 2.418c.149-.025.28-.074.392-.146a.809.809 0 0 0 .27-.292.985.985 0 0 0 .1-.473c0-.27-.074-.488-.223-.658-.15-.168-.392-.253-.725-.253h-1.762v1.858h1.479c.163.002.319-.01.469-.036zm3.194-2.418v5.329h-.709V42.73h.709zm1.941 0l2.807 4.321h.015V42.73h.672v5.329H89.1l-2.784-4.277H86.3v4.277h-.672V42.73h.754zm7.852 5.266a2.54 2.54 0 0 1-.933.184c-.397 0-.754-.074-1.067-.221s-.58-.345-.799-.594-.386-.535-.5-.858-.172-.659-.172-1.008c0-.388.054-.757.16-1.108.107-.352.267-.658.479-.922.211-.264.475-.475.791-.631s.686-.234 1.108-.234c.288 0 .562.033.817.1a2.1 2.1 0 0 1 .687.318c.202.145.371.326.508.549.137.221.229.488.28.802h-.709c-.035-.204-.1-.38-.194-.526s-.212-.268-.351-.361a1.52 1.52 0 0 0-.475-.213 2.093 2.093 0 0 0-.563-.073c-.323 0-.601.064-.832.194a1.653 1.653 0 0 0-.567.512 2.224 2.224 0 0 0-.324.723 3.32 3.32 0 0 0-.105.833c0 .278.04.546.119.802.08.258.197.483.352.68.154.197.345.354.571.471.226.117.489.176.787.176.278 0 .524-.045.739-.135.214-.09.395-.213.541-.369.146-.157.258-.342.332-.553s.107-.439.098-.684H93.31v-.597h2.336v2.807h-.448l-.186-.665c-.21.279-.47.479-.778.601zm5.516-5.266l1.68 4.479 1.687-4.479h.971v5.329h-.672v-4.435h-.015l-1.665 4.435h-.604l-1.666-4.435h-.014v4.435h-.672V42.73h.97zm7.749 0l2.083 5.329h-.784l-.582-1.604h-2.255l-.597 1.604h-.724l2.074-5.329h.785zm.493 3.127l-.889-2.486h-.016l-.902 2.486h1.807zm3.94-3.127c.821 0 1.453.209 1.896.627s.664 1.055.664 1.91c0 .447-.05.846-.148 1.191-.101.346-.254.637-.463.873s-.476.416-.799.541c-.324.125-.707.187-1.15.187h-1.828V42.73h1.828zm.061 4.733c.079 0 .179-.006.299-.02.119-.012.246-.042.38-.09.135-.047.268-.115.399-.205s.25-.211.354-.365.19-.348.258-.578c.067-.232.101-.512.101-.84a3.53 3.53 0 0 0-.094-.855c-.062-.251-.164-.465-.306-.642s-.325-.312-.549-.403-.5-.138-.828-.138h-1.194v4.136h1.18zm7.046-4.733v.597h-2.971v1.694h2.769v.598h-2.769v1.844h2.993v.597h-3.702v-5.33h3.68zm6.635 0v.597h-2.971v1.694h2.77v.598h-2.77v1.844h2.993v.597h-3.702v-5.33h3.68zm3.114 0l2.082 5.329h-.783l-.583-1.604h-2.255l-.597 1.604h-.724l2.075-5.329h.785zm.492 3.127l-.889-2.486h-.015l-.903 2.486h1.807zm4.781-2.4c-.237-.172-.539-.257-.907-.257-.149 0-.296.015-.44.045s-.272.079-.385.149c-.111.069-.201.162-.269.279s-.101.263-.101.438c0 .164.049.297.146.398.097.103.226.186.388.25s.345.119.549.161.412.089.623.138c.212.051.42.108.623.176.205.066.388.158.549.271.162.115.291.26.389.434.097.174.146.393.146.657 0 .284-.063.526-.19.728s-.29.365-.488.492a2.143 2.143 0 0 1-.669.277 3.248 3.248 0 0 1-.735.086c-.299 0-.581-.038-.847-.113a2.093 2.093 0 0 1-.702-.339c-.201-.151-.361-.347-.478-.583s-.175-.516-.175-.84h.672c0 .225.043.418.131.579.086.161.201.294.343.399.142.104.308.182.497.231.188.05.383.075.582.075.158 0 .318-.016.48-.045.162-.03.308-.082.438-.154a.849.849 0 0 0 .312-.295.863.863 0 0 0 .119-.477.668.668 0 0 0-.145-.448c-.098-.114-.227-.208-.389-.28s-.344-.13-.549-.176l-.623-.137a9.037 9.037 0 0 1-.623-.165c-.204-.062-.387-.144-.549-.246s-.291-.233-.389-.396a1.177 1.177 0 0 1-.145-.608c0-.269.055-.501.164-.698s.255-.357.437-.485c.182-.126.388-.222.62-.284.23-.062.469-.092.712-.092.274 0 .527.031.762.096.233.065.438.168.616.307.176.14.316.314.418.527.102.211.158.463.168.756h-.672c-.04-.382-.178-.659-.414-.831zm4.369 4.603h-.708v-2.181l-2.061-3.148h.844l1.597 2.537 1.561-2.537h.807l-2.039 3.148v2.181z" fill="#7C7E7F"/></svg>