<svg xmlns="http://www.w3.org/2000/svg" xmlns:xlink="http://www.w3.org/1999/xlink" width="18.197" height="18.232" viewBox="0 0 18.197 18.232"><defs><path id="a" d="M100-574.964h18.197v18.197H100z"/></defs><clipPath id="b"><use xlink:href="#a" overflow="visible"/></clipPath><path clip-path="url(#b)" fill="#5D7E95" d="M116.575-571.155a9.107 9.107 0 0 0-7.448-3.864h-.021l-.032.001a9.107 9.107 0 0 0-7.397 3.863 9.065 9.065 0 0 0-1.677 5.262c0 1.958.622 3.773 1.677 5.261a9.117 9.117 0 0 0 7.397 3.863l.031.001.007-.001.015.001a9.112 9.112 0 0 0 7.448-3.864 9.068 9.068 0 0 0 1.676-5.261 9.062 9.062 0 0 0-1.676-5.262zm-10.117-2.678c-.837.81-1.536 1.993-2.015 3.412a8.69 8.69 0 0 1-1.724-.857 8.403 8.403 0 0 1 3.739-2.555zm-4.178 3.127a9.722 9.722 0 0 0 1.948.982 14.608 14.608 0 0 0-.498 3.753h-2.979a8.329 8.329 0 0 1 1.529-4.735zm-1.501 5.483h2.965c.049 1.121.22 2.185.484 3.158a9.643 9.643 0 0 0-1.948.983 8.31 8.31 0 0 1-1.501-4.141zm1.944 4.712a8.778 8.778 0 0 1 1.719-.856c.48 1.42 1.178 2.604 2.017 3.412a8.388 8.388 0 0 1-3.736-2.556zm6.029 2.967c-1.537-.21-2.863-1.786-3.613-4.055a13.791 13.791 0 0 1 3.613-.554v4.609zm0-5.357a14.305 14.305 0 0 0-3.824.598 13.93 13.93 0 0 1-.434-2.92h4.258v2.322zm0-3.069h-4.272c.005-1.258.17-2.446.451-3.514 1.152.353 2.448.565 3.821.598v2.916zm0-3.664a13.854 13.854 0 0 1-3.612-.554c.751-2.269 2.077-3.845 3.612-4.057v4.611zm8.748 3.664h-3.021a14.555 14.555 0 0 0-.496-3.739 9.5 9.5 0 0 0 1.989-.996 8.325 8.325 0 0 1 1.528 4.735zm-1.969-5.307a8.81 8.81 0 0 1-1.761.87c-.484-1.438-1.192-2.636-2.044-3.448a8.38 8.38 0 0 1 3.805 2.578zm-6.031-2.962c1.521.235 2.83 1.81 3.572 4.062a13.803 13.803 0 0 1-3.572.543v-4.605zm0 5.353a14.261 14.261 0 0 0 3.781-.585c.279 1.064.441 2.249.449 3.501h-4.23v-2.916zm0 3.663h4.214a13.98 13.98 0 0 1-.43 2.907 14.341 14.341 0 0 0-3.782-.587v-2.32h-.002zm0 7.673v-4.604c1.289.031 2.501.223 3.576.543-.746 2.253-2.055 3.827-3.576 4.061zm2.227-.382c.852-.812 1.562-2.007 2.046-3.448a8.72 8.72 0 0 1 1.757.87 8.423 8.423 0 0 1-3.803 2.578zm4.245-3.15a9.601 9.601 0 0 0-1.989-.998 14.21 14.21 0 0 0 .48-3.143h3.01a8.3 8.3 0 0 1-1.501 4.141zm0 0"/><defs><path id="c" d="M0 .035h18.197v18.197H0z"/></defs><clipPath id="d"><use xlink:href="#c" overflow="visible"/></clipPath><path clip-path="url(#d)" fill="#5D7E95" d="M16.575 3.845A9.11 9.11 0 0 0 9.127-.02h-.021l-.032.002a9.107 9.107 0 0 0-7.397 3.862A9.067 9.067 0 0 0 0 9.106c0 1.958.622 3.772 1.677 5.261a9.114 9.114 0 0 0 7.397 3.863l.031.002.007-.002.015.002a9.106 9.106 0 0 0 7.448-3.865 9.066 9.066 0 0 0 1.676-5.261c0-1.96-.621-3.773-1.676-5.261zM6.458 1.166c-.837.811-1.536 1.994-2.015 3.412a8.69 8.69 0 0 1-1.724-.857 8.42 8.42 0 0 1 3.739-2.555zM2.28 4.295a9.667 9.667 0 0 0 1.948.981 14.608 14.608 0 0 0-.498 3.753H.751A8.325 8.325 0 0 1 2.28 4.295zM.779 9.777h2.965c.049 1.121.22 2.185.484 3.157a9.591 9.591 0 0 0-1.948.983 8.3 8.3 0 0 1-1.501-4.14zm1.944 4.711a8.833 8.833 0 0 1 1.719-.855c.48 1.42 1.178 2.604 2.017 3.412a8.39 8.39 0 0 1-3.736-2.557zm6.029 2.967c-1.537-.21-2.863-1.785-3.613-4.055a13.791 13.791 0 0 1 3.613-.554v4.609zm0-5.355a14.226 14.226 0 0 0-3.824.598 13.94 13.94 0 0 1-.434-2.92h4.258V12.1zm0-3.071H4.479a14.09 14.09 0 0 1 .451-3.514c1.153.354 2.449.565 3.822.598v2.916zm0-3.664a13.813 13.813 0 0 1-3.612-.553C5.891 2.542 7.217.966 8.752.755v4.61zM17.5 9.029h-3.021a14.548 14.548 0 0 0-.496-3.738 9.5 9.5 0 0 0 1.989-.996A8.33 8.33 0 0 1 17.5 9.029zm-1.969-5.306a8.809 8.809 0 0 1-1.761.869c-.484-1.438-1.192-2.636-2.044-3.447a8.38 8.38 0 0 1 3.805 2.578zM9.5.761c1.521.235 2.83 1.81 3.572 4.062a13.762 13.762 0 0 1-3.572.542V.761zm0 5.352a14.22 14.22 0 0 0 3.781-.585c.279 1.064.441 2.249.449 3.501H9.5V6.113zm0 3.664h4.214a13.96 13.96 0 0 1-.43 2.906 14.342 14.342 0 0 0-3.782-.586v-2.32H9.5zm0 7.673v-4.604a13.72 13.72 0 0 1 3.576.543c-.746 2.253-2.055 3.828-3.576 4.061zm2.227-.382c.852-.812 1.562-2.008 2.046-3.448a8.72 8.72 0 0 1 1.757.87 8.415 8.415 0 0 1-3.803 2.578zm4.245-3.15a9.552 9.552 0 0 0-1.989-.998 14.21 14.21 0 0 0 .48-3.143h3.01a8.297 8.297 0 0 1-1.501 4.141zm0 0"/></svg>