<svg xmlns="http://www.w3.org/2000/svg" viewBox="0 0 798 512" style="fill: white"><!--!Font Awesome Free 6.7.2 by @fontawesome - https://fontawesome.com License - https://fontawesome.com/license/free Copyright 2025 Fonticons, Inc.-->
  <path d="M416 208c0 45.9-14.9 88.3-40 122.7L502.6 457.4c12.5 12.5 12.5 32.8 0 45.3s-32.8 12.5-45.3 0L330.7 376c-34.4 25.2-76.8 40-122.7 40C93.1 416 0 322.9 0 208S93.1 0 208 0S416 93.1 416 208zM208 352a144 144 0 1 0 0-288 144 144 0 1 0 0 288z"/>
  <svg x="490" y="-125">
    <path d="M182.6 470.6c-12.5 12.5-32.8 12.5-45.3 0l-128-128c-9.2-9.2-11.9-22.9-6.9-34.9s16.6-19.8 29.6-19.8l256 0c12.9 0 24.6 7.8 29.6 19.8s2.2 25.7-6.9 34.9l-128 128z"/>
  </svg>
</svg>