<svg xmlns="http://www.w3.org/2000/svg" xmlns:xlink="http://www.w3.org/1999/xlink" width="17.986" height="24.667" viewBox="0 0 17.986 24.667"><defs><path id="a" d="M0 0h18.167v24.667H0z"/></defs><clipPath id="b"><use xlink:href="#a" overflow="visible"/></clipPath><path clip-path="url(#b)" fill="#005581" d="M3.645 10.212c-.275 0-.461.028-.559.054v1.769a2.1 2.1 0 0 0 .452.035c.722 0 1.163-.364 1.163-.978 0-.55-.381-.88-1.056-.88zm0 0"/><path clip-path="url(#b)" fill="#005581" d="M12.611 0H0v24.655h17.986V7.312L11.597 2.9 12.611 0zM5.494 12.48c-.463.436-1.146.631-1.947.631-.178 0-.338-.009-.461-.027v2.142H1.743V9.315c.417-.071 1.005-.124 1.831-.124.836 0 1.431.159 1.83.48.383.301.641.8.641 1.386 0 .588-.195 1.085-.551 1.423zm7.598-3.245h3.664v1.11h-2.303v1.369h2.15v1.103h-2.15v2.409h-1.361V9.235zm-.888 2.853c0 1.147-.417 1.938-.995 2.427-.631.524-1.591.773-2.764.773-.703 0-1.201-.044-1.538-.089V9.315a12.08 12.08 0 0 1 1.83-.124c1.139 0 1.876.205 2.454.64.622.462 1.013 1.2 1.013 2.257zm0 0"/><path clip-path="url(#b)" fill="#005581" d="M13.874 0l-.823 2.35 4.936 3.407L13.874 0zm0 0"/><path fill="#005581" d="M8.88 10.231c-.302 0-.497.026-.614.053v3.921c.117.026.303.026.472.026 1.227.009 2.026-.667 2.026-2.098.009-1.245-.719-1.902-1.884-1.902zm0 0"/></svg>