<?xml version="1.0" encoding="UTF-8" standalone="no"?>
<!-- Created with Inkscape (http://www.inkscape.org/) -->
<svg id="svg2" xmlns:rdf="http://www.w3.org/1999/02/22-rdf-syntax-ns#" xmlns="http://www.w3.org/2000/svg" height="86.078mm" width="110.07mm" version="1.1" xmlns:cc="http://creativecommons.org/ns#" xmlns:dc="http://purl.org/dc/elements/1.1/" viewBox="0 0 389.99997 304.99999">
 <metadata id="metadata7">
  <rdf:RDF>
   <cc:Work rdf:about="">
    <dc:format>image/svg+xml</dc:format>
    <dc:type rdf:resource="http://purl.org/dc/dcmitype/StillImage"/>
    <dc:title/>
   </cc:Work>
  </rdf:RDF>
 </metadata>
 <g id="layer1" transform="translate(-156.43 -137.01)">
  <path id="path3413" d="m156.43 289.51v-152.5h195 195v152.5 152.5h-195-195v-152.5z" fill="#fdfdfd"/>
  <path id="path3411" d="m329.43 400.4c-1.375-0.23821-7-1.145-12.5-2.0152-29.37-4.6465-61.511-18.548-86.857-37.567-18.554-13.922-42.493-41.163-51.146-58.201-3.0384-5.9823-3.4966-7.8319-3.4966-14.116 0-6.2837 0.45817-8.1334 3.4966-14.116 8.1436-16.034 28.68-40.175 45.933-53.996 28.992-23.225 62.532-37.818 98.422-42.824 14.617-2.0388 41.679-2.0388 56.296 0 35.974 5.0175 69.363 19.545 98.422 42.824 17.253 13.821 37.789 37.962 45.933 53.996 3.0282 5.9621 3.4953 7.8376 3.4868 14-0.0112 8.1272-1.8776 12.975-9.3317 24.239-29.358 44.361-77.907 76.039-131.66 85.906-9.0796 1.6666-50.357 3.0204-57 1.8695zm56.612-32.813c22.093-4.6412 41.776-12.935 60.995-25.702 14.236-9.4567 35.328-30.308 44.227-43.721l6.1948-9.3376-2.1892-3.8952c-12.816-22.803-47.042-52.924-71.975-63.341l-3.6302-1.5168 4.2783 7.5075c18.519 32.497 12.938 73.969-13.514 100.42-15.918 15.918-35.981 24.12-59 24.12-39.326 0-72.067-25.793-81.127-63.911-3.9869-16.774-2.1483-37.605 4.6609-52.806l2.6442-5.9032 1.6675 6.5c3.8653 15.067 13.249 24.252 27.458 26.879 13.981 2.5846 29.091-4.8916 35.538-17.584 4.9162-9.6792 4.8358-21.079-0.21917-31.055-3.5604-7.0261-4.5884-7.6261-11.896-6.9434-23.849 2.2282-51.255 12.49-74.376 27.848-13.876 9.217-35.083 30.146-44.218 43.636l-6.2847 9.2815 2.6039 4.4432c8.7275 14.892 30.15 37.276 46.058 48.125 18.48 12.603 38.339 21.415 58.497 25.957 16.46 3.7088 23.168 4.32 42.994 3.9174 14.941-0.3034 20.83-0.86517 30.612-2.9202z" fill="#d4d7e5"/>
  <path id="path3409" d="m323.84 399.43c-33.413-4.5461-66.769-18.485-94.634-39.545-20.627-15.589-48.87-49.244-52.787-62.902-1.2727-4.4376-1.2727-12.513 0-16.951 3.9169-13.657 32.16-47.312 52.787-62.902 36.057-27.251 77.284-41.123 122.22-41.123 44.937 0 86.163 13.871 122.22 41.123 20.627 15.589 48.87 49.244 52.787 62.902 1.2727 4.4376 1.2727 12.513 0 16.951-3.9169 13.657-32.16 47.312-52.787 62.902-29.223 22.086-62.532 35.543-99.194 40.075-11.521 1.4241-38.31 1.1433-50.612-0.53055zm60.956-31.346c44.351-8.9528 83.774-35.239 108.41-72.284l4.6054-6.9259-1.7728-3.2919c-3.8814-7.2073-15.518-21.596-25.131-31.074-12.37-12.197-25.125-21.432-40.905-29.617-11.127-5.7711-11.788-5.9911-9.8755-3.2844 3.5573 5.0338 9.0301 16.708 11.46 24.444 2.0341 6.4775 2.3416 9.4928 2.3416 22.957 0 13.469-0.30721 16.478-2.344 22.965-8.7813 27.965-29.226 48.41-57.191 57.191-6.4416 2.0227-9.5207 2.344-22.465 2.344-16.883 0-23.067-1.2237-35.244-6.9747-22.127-10.45-37.933-28.744-45.412-52.561-2.0368-6.4864-2.344-9.4962-2.344-22.965 0-16.604 0.86827-21.226 6.2688-33.368l2.6098-5.8676 1.2651 6.2019c1.6064 7.8753 4.9675 13.599 11.36 19.347 16.221 14.584 42.516 9.1784 52.06-10.702 5.3864-11.22 4.8074-22.584-1.6789-32.954l-3.5386-5.6572-4.1732 0.57071c-22.231 3.0401-38.156 7.6254-55.661 16.026-27.622 13.256-51.161 33.604-67.774 58.587l-4.6208 6.949 1.7728 3.2919c3.7818 7.0223 15.5 21.519 25.118 31.074 25.148 24.983 57.263 41.026 94.019 46.969 13.598 2.1985 44.698 1.4623 58.842-1.3928z" fill="#a3acca"/>
  <path id="path3407" d="m334.43 400.44c-1.375-0.23565-6.55-0.92425-11.5-1.5302-13.18-1.6135-33.255-7.0225-47.378-12.766-37.602-15.29-70.405-42.568-92.635-77.031-10.546-16.35-10.147-25.938 1.826-43.872 31.231-46.777 78.402-77.102 135.19-86.909 13.989-2.4159 49.011-2.4159 63 0 56.785 9.807 103.96 40.132 135.19 86.909 11.973 17.933 12.372 27.522 1.826 43.872-30.794 47.739-79.887 79.902-136.51 89.436-8.9798 1.5118-43.45 2.842-49 1.8909zm39.836-30.493c43.967-5.4783 86.545-30.333 113.45-66.225 2.9749-3.9691 6.4747-9.0836 7.7775-11.365l2.3686-4.1488-4.8643-7.3512c-16.687-25.218-43.125-47.922-69.266-59.483l-5.5483-2.4537 2.2038 3.2928c3.6342 5.4301 9.7686 18.889 11.528 25.293 2.5987 9.4586 3.1117 27.466 1.07 37.558-7.913 39.117-41.811 66.942-81.551 66.942-59.145 0-99.483-60.483-76.697-115l3.1348-7.5 0.69382 4.7195c1.6782 11.416 9.3733 21.799 19.72 26.611 7.5626 3.5166 20.166 3.726 27.365 0.45464 6.5822-2.991 14.251-10.502 17.521-17.16 2.3584-4.8024 2.7622-6.8669 2.7622-14.125 0-7.0829-0.4342-9.417-2.6043-14-1.4324-3.025-3.4677-6.5479-4.523-7.8288-1.8828-2.2852-2.0757-2.3073-10.325-1.1778-28.029 3.8377-56.361 15.355-79.048 32.133-15.117 11.18-34.317 31.961-42.059 45.522l-2.3686 4.1488 4.8643 7.3512c35.504 53.656 98.625 81.988 164.4 73.792z" fill="#8894bb"/>
  <path id="path3405" d="m327.43 399.49c-37.049-4.5976-70.636-18.488-100-41.355-17.768-13.837-38.11-37.116-47.58-54.45-3.6354-6.6542-3.92-7.7559-3.92-15.175 0-7.4192 0.2846-8.5209 3.92-15.175 5.9063-10.811 18.479-27.105 29.362-38.054 16.302-16.401 32.475-28.072 53.137-38.346 68.971-34.295 151.82-25.761 213.08 21.949 17.768 13.837 38.11 37.116 47.58 54.45 3.6354 6.6542 3.92 7.7559 3.92 15.175 0 7.4192-0.2846 8.5209-3.92 15.175-9.47 17.334-29.812 40.613-47.58 54.45-42.148 32.823-95.845 47.827-148 41.355zm51-30.039c46.48-7.194 88.538-34.094 114.89-73.483l4.911-7.3395-3.6529-5.7321c-16.42-25.78-46.25-51.43-72.59-62.43l-3.9058-1.632 1.5251 2.3346c15.988 24.474 19.119 52.011 8.9148 78.401-4.0629 10.507-9.9466 19.385-18.547 27.986-23.669 23.669-57.605 30.732-89.118 18.547-4.3637-1.6873-10.859-4.964-14.434-7.2815-8.3177-5.392-19.425-16.5-24.817-24.817-10.728-16.548-15.496-39.568-12.132-58.566 1.2687-7.1646 5.5155-20.458 7.3271-22.936 1.167-1.596 1.3789-1.289 1.9412 2.8132 1.4591 10.645 8.3277 19.913 18.452 24.897 5.9759 2.9419 7.5931 3.292 15.208 3.292 7.0917 0 9.4436-0.43517 14.021-2.5943 7.0138-3.3084 13.597-9.8919 16.906-16.906 2.1963-4.6561 2.5929-6.8809 2.5851-14.5-0.008-7.7794-0.36668-9.6794-2.645-14.01-1.4497-2.7552-3.5116-6.0912-4.5821-7.4131l-1.9463-2.4036-11.288 1.7329c-47.987 7.3669-91.734 35.545-117.18 75.479l-3.6529 5.7321 4.911 7.3395c24.737 36.969 63.837 63.251 107.3 72.121 19.884 4.0582 41.142 4.5283 61.598 1.362z" fill="#7786b2"/>
  <path id="path3403" d="m337.43 400.42c-1.925-0.22438-7.7286-0.90086-12.897-1.5033-41.937-4.8884-84.272-26.012-115.32-57.543-10.939-11.108-16.421-17.867-24.93-30.741-12.601-19.065-11.726-28.293 4.8949-51.606 8.1835-11.479 26.832-31.001 37.756-39.526 28.255-22.049 59.906-35.79 94.846-41.176 15.134-2.3327 44.175-2.3327 59.309 0 43.359 6.683 82.17 26.442 112.57 57.307 10.939 11.108 16.421 17.867 24.93 30.741 12.601 19.065 11.726 28.293-4.8949 51.606-8.1835 11.479-26.832 31.001-37.756 39.526-28.048 21.888-59.808 35.746-94 41.014-9.8261 1.514-37.628 2.7014-44.5 1.9004zm30.144-29.466c29.466-2.9851 54.861-12.11 79.856-28.695 14.513-9.6291 34.5-29.265 43.941-43.169 3.5156-5.1772 6.3919-9.9413 6.3919-10.587 0-0.64555-2.8764-5.4096-6.3919-10.587-9.2083-13.561-29.43-33.522-43.346-42.788-10.595-7.0544-28.373-16.682-29.227-15.827-0.23273 0.23274 1.5511 3.6253 3.964 7.539 19.417 31.493 14.01 73.723-12.881 100.61-12.61 12.61-26.974 20.069-44.562 23.14-35.853 6.2607-71.974-12.221-88.261-45.16-6.127-12.391-7.9736-20.798-8.0022-36.432-0.0262-14.327 1.5499-22.497 6.4626-33.5l2.2324-5 0.77055 4.8495c2.5178 15.846 15.536 27.434 31.908 28.402 13.588 0.8041 25.524-5.8479 32.031-17.852 3.2665-6.026 3.4693-6.9555 3.4693-15.9 0-8.336-0.33643-10.185-2.7459-15.091-4.4499-9.061-5.1675-9.4314-15.501-8.0012-37.177 5.1455-69.832 21.522-96.778 48.536-11.907 11.936-25.809 29.742-25.809 33.057 0 3.3146 13.902 21.121 25.809 33.057 29.574 29.647 63.83 45.507 107.52 49.781 7.7683 0.75985 19.342 0.60627 29.144-0.38672z" fill="#546ea2"/>
  <path id="path3401" d="m339.43 400.37c-62.086-4.3488-117.93-35.701-151.88-85.27-15.246-22.26-15.499-29.853-1.6856-50.588 16.127-24.208 37.49-44.536 63.066-60.014 44.024-26.641 100.34-34.785 151.64-21.929 48.515 12.157 89.986 41.638 117.5 83.529 12.598 19.181 12.144 27.238-2.7626 49.003-30.766 44.919-80.189 75.437-134.88 83.287-11.227 1.6114-31.977 2.615-41 1.983zm40.854-30.778c46.091-8.4451 85.091-33.016 110.98-69.916 8.0784-11.517 8.005-10.302 1.23-20.363-15.653-23.244-37.551-42.451-63.668-55.841-5.8871-3.0184-10.88-5.3122-11.095-5.0974-0.2149 0.2149 0.98542 2.4298 2.6674 4.922 9.0361 13.389 13.289 28.018 13.289 45.708 0 23.336-6.9773 40.625-23.14 57.338-16.492 17.053-35.146 24.915-59.113 24.915-18.344 0-32.309-4.212-46.678-14.079-6.8181-4.682-17.694-15.654-22.248-22.445-14.553-21.702-17.609-50.516-8.0637-76.03 2.2935-6.1299 3.9884-7.383 3.9897-2.9499 0.00043 1.5125 1.2829 5.4601 2.8499 8.7724 7.6202 16.107 26.82 23.688 43.854 17.315 7.9796-2.9856 16.167-11.223 19.228-19.345 5.4636-14.497-0.78058-36.496-10.358-36.491-3.91 0.002-17.179 2.3278-25.593 4.4865-39.733 10.193-75.362 35.206-98.032 68.821-6.7854 10.061-6.8584 8.845 1.221 20.363 22.772 32.464 56.975 56.258 95.329 66.317 9.5935 2.5162 14.107 3.3619 29 5.4334 6.2824 0.87387 36.363-0.37024 44.354-1.8345z" fill="#225692"/>
  <path id="path3399" d="m317.57 395.97c-1.2984-1.0817-1.8875-1.9667-1.309-1.9667 0.57847 0 1.3494 0.48153 1.7131 1.0701 0.36374 0.58854 1.6278 1.46 2.809 1.9366 1.2431 0.50155 1.5159 0.87922 0.64767 0.89665-0.825 0.0166-2.5624-0.85491-3.8608-1.9366zm61.527 1.3666c-0.90922-0.90921-0.84565-3.3616 0.0833-3.2149 2.8469 0.44951 3.4658-0.35178 1.25-1.6184-1.375-0.78602-2.0235-1.4451-1.4411-1.4646 0.58238-0.0195 1.901 0.58032 2.9302 1.3329 1.8069 1.3212 1.7953 1.4091-0.33688 2.5502-1.2145 0.64999-1.9441 1.6092-1.6212 2.1316 0.67425 1.091 0.12379 1.2713-0.86434 0.28316zm5.7922-1.3999c-0.36253-0.58659-0.36462-1.3611-0.005-1.721 0.35998-0.35998 1.0297-0.0474 1.4883 0.69465 0.4586 0.74203 1.3611 1.0233 2.0055 0.62503 0.83378-0.5153 0.64974-1.1606-0.6382-2.2376-1.6308-1.3638-1.568-1.3705 0.63535-0.0684 1.3449 0.79479 2.6166 2.0816 2.8261 2.8595 0.31545 1.1713 0.21743 1.1812-0.5702 0.0577-0.66468-0.94816-1.1571-1.0234-1.6352-0.25-0.87037 1.4083-3.2472 1.4316-4.1071 0.0402zm-63.845-1.4968c-0.3358-0.8751-1.1113-1.2473-1.7615-0.84549-0.68907 0.42587-0.8928 0.28301-0.50083-0.35121 0.36341-0.58801 0.0954-1.297-0.59549-1.5756-0.8772-0.35366-0.90063-0.53029-0.0777-0.58541 1.3708-0.0918 4.3214 2.6342 4.3214 3.9925 0 1.431-0.71972 1.1013-1.386-0.63481zm71.615 0.045c-1.925-2.1843-1.4128-2.9626 2.0879-3.1723 2.803-0.16793 2.9164-0.0829 0.94976 0.71162-1.4456 0.58407-2.0251 1.4449-1.643 2.4407 0.72918 1.9002 0.2681 1.9068-1.3947 0.02zm-80.063-0.35778c-1.0739-0.68077-1.0252-0.96395 0.25-1.4533 1.002-0.38452 1.5838-0.0683 1.5838 0.86083 0 1.6997-0.0577 1.7184-1.8338 0.59247zm-14.166-1.1238c0-0.55 0.47656-1 1.059-1 0.58246 0 0.7809 0.45 0.44098 1s-0.81648 1-1.059 1c-0.24254 0-0.44098-0.45-0.44098-1zm4 0.10699c0-0.49116 0.7118-1.1662 1.5818-1.5 2.4469-0.93895 2.6891-0.73505 1.0611 0.89301-1.7 1.7-2.6429 1.9166-2.6429 0.60699zm97-0.10699c0.825-0.53316 1.95-0.96937 2.5-0.96937s0.325 0.43621-0.5 0.96937-1.95 0.96937-2.5 0.96937-0.325-0.43621 0.5-0.96937zm6-1c-0.90129-0.58246-1.0246-0.97549-0.30902-0.98469 0.65504-0.008 1.4691 0.43469 1.809 0.98469 0.7673 1.2415 0.42112 1.2415-1.5 0zm5.5-3c-0.33992-0.55-0.16803-1 0.38197-1s1.2781 0.45 1.618 1c0.33992 0.55 0.16803 1-0.38197 1s-1.2781-0.45-1.618-1zm3.5698-0.4159c-0.93886-1.1312-0.75952-1.5478 0.89207-2.072 1.2373-0.39271 1.7836-1.129 1.3607-1.8341-0.39902-0.66534 0.0299-0.58072 0.98548 0.19444 0.93058 0.75485 1.692 2.0824 1.692 2.95 0 1.227-0.26667 1.3109-1.2 0.37756-1.6766-1.6766-3.1283-1.498-2.4384 0.3 0.723 1.8841 0.22876 1.9163-1.2918 0.0841zm-127.53-0.515c-0.31644-0.512-0.0485-1.2565 0.59549-1.6545 0.69784-0.43129 0.9039-0.29172 0.51008 0.34549-0.36341 0.58801-0.0954 1.297 0.59549 1.5756 0.89914 0.3625 0.91769 0.52891 0.0652 0.58541-0.65504 0.0434-1.4499-0.33996-1.7663-0.85195zm134.47-2.4834c0.64761-0.64761 1.3238-0.64761 1.9714 0 0.64762 0.64762 0.30953 0.98572-0.98571 0.98572s-1.6333-0.3381-0.98571-0.98572zm-141.01-0.58571c0-0.55 0.42344-1 0.94098-1s1.2191 0.45 1.559 1c0.33992 0.55-0.0835 1-0.94098 1-0.85746 0-1.559-0.45-1.559-1zm3.5643-0.70687c-0.54268-1.4252-0.42782-1.5401 0.5598-0.5598 0.68342 0.67834 0.99067 1.4852 0.68278 1.7931-0.30789 0.30789-0.86705-0.24711-1.2426-1.2333zm143.44-0.29313c0-0.55 0.47656-1 1.059-1 0.58246 0 0.7809 0.45 0.44098 1s-0.81648 1-1.059 1c-0.24254 0-0.44098-0.45-0.44098-1zm-156.76-2.1625c-1.7748-1.7748-1.5313-3.3262 0.28539-1.8185 1.2734 1.0568 1.4197 0.99492 0.89301-0.37756-0.91086-2.3737 0.31211-2.0182 1.6487 0.47924 0.6648 1.2422 0.71475 1.861 0.1206 1.4938-0.5579-0.3448-1.1709-0.15723-1.3623 0.41682-0.22426 0.67278-0.78773 0.60391-1.5854-0.19377zm-7.2375-2.8528c1.2438-0.81647 1.2682-1.1342 0.14324-1.8597-0.8349-0.53844-0.97137-1.1132-0.35479-1.4943 1.1531-0.71266 2.4979 2.097 1.6558 3.4595-0.30925 0.50037-1.0982 0.90287-1.7532 0.89445-0.71875-0.009-0.59622-0.40575 0.30902-1zm171.33-0.42913c0-0.79445 0.4875-1.357 1.0833-1.25 0.59583 0.10694 0.97083-0.36806 0.83333-1.0556-0.33641-1.682 0.0598-1.5832 2.6466 0.66032 1.2114 1.0507 1.7774 2.1731 1.2578 2.4943-0.51966 0.32116-1.2138-0.117-1.5426-0.97371-0.32875-0.8567-1.099-1.2479-1.7116-0.86925-0.78201 0.4833-0.70963 0.94449 0.24294 1.5481 1.0094 0.63962 0.82347 0.8636-0.72657 0.875-1.1566 0.008-2.0833-0.6272-2.0833-1.4291zm-176.33-1.4486c0-0.49116 0.73865-1.1765 1.6414-1.5229 1.3725-0.52667 1.4343-0.38034 0.37756 0.89301-1.4401 1.7352-2.019 1.9158-2.019 0.62988zm-2-1.048c0-0.51754 0.44485-1.2159 0.98855-1.5519 0.56686-0.35034 0.7345 0.0511 0.39301 0.94098-0.66479 1.7324-1.3816 2.0494-1.3816 0.61096zm11 0.54797c0-0.21616 0.69837-0.661 1.5519-0.98855 0.88992-0.34149 1.2913-0.17385 0.94098 0.39301-0.58726 0.95021-2.4929 1.4054-2.4929 0.59554zm174 0c0-0.21616 0.69837-0.661 1.5519-0.98855 0.88992-0.34149 1.2913-0.17385 0.94098 0.39301-0.58726 0.95021-2.4929 1.4054-2.4929 0.59554zm-127.5-2.2791c-3.8571-0.84874-7.5-2.58-7.5-3.5642 0-0.54653 1.1092-0.26694 2.4648 0.62132 2.9512 1.9337 5.9242 2.1499 5.02 0.36501-0.34825-0.6875 0.007-0.46949 0.78986 0.48446 0.78267 0.95395 1.7882 1.404 2.2345 1 0.4463-0.40395 0.48775-0.17196 0.0921 0.51554-0.39564 0.6875-0.80529 1.1978-0.91033 1.134s-1.091-0.31404-2.191-0.55609zm4.8247 0.0141c0.36189-0.3619 0.0994-1.3744-0.58334-2.25-1.0675-1.369-1.0209-1.4203 0.33247-0.3658 1.1117 0.86616 1.886 0.91398 2.6371 0.16286 0.75111-0.75111 1.2606-0.74413 1.7352 0.0238 0.37808 0.61175-0.0356 1.0871-0.94615 1.0871-0.88992 0-1.3399 0.45-1 1 0.33992 0.55-0.15852 1-1.1076 1-0.94913 0-1.4296-0.2961-1.0677-0.65799zm31.175-0.34201c0.33992-0.55 1.068-1 1.618-1s0.72189 0.45 0.38197 1-1.068 1-1.618 1-0.72189-0.45-0.38197-1zm19.256 0.26985c0.69093-0.24237 0.94205-0.96474 0.55804-1.6053-0.384-0.64052 0.17569-0.50443 1.2438 0.30244s2.0732 1.5381 2.2336 1.625c0.16041 0.0869-0.96459 0.14909-2.5 0.13823-1.5354-0.0108-2.2264-0.21804-1.5354-0.46041zm6.8014-0.17659c-0.30822-0.49871 0.34022-0.67122 1.441-0.38337 2.335 0.61061 2.6302 1.2901 0.5604 1.2901-0.79254 0-1.6932-0.40803-2.0014-0.90674zm-40.745-0.77637c0.72187-0.28887 1.5844-0.25335 1.9167 0.0789 0.33229 0.33229-0.25834 0.56864-1.3125 0.52522-1.165-0.048-1.4019-0.28494-0.60417-0.60416zm8.1875-0.31689c-3.4604-0.72839-3.4661-0.73803-0.5-0.85305 1.65-0.064 3.675 0.31989 4.5 0.85305 1.6651 1.076 1.1121 1.076-4 0zm39.5 0c-1.2606-0.54172-1.4455-0.85943-0.5-0.85943 0.825 0 2.4 0.38674 3.5 0.85943 1.2606 0.54172 1.4455 0.85943 0.5 0.85943-0.825 0-2.4-0.38674-3.5-0.85943zm9.5-0.059c0-0.58246 0.45-0.7809 1-0.44098s1 0.81648 1 1.059c0 0.24254-0.45 0.44098-1 0.44098s-1-0.47656-1-1.059zm-143.5-0.941c-0.33992-0.55-0.11492-1 0.5-1s0.83992-0.45 0.5-1-0.16944-1 0.37883-1c0.54828 0 0.92908 0.9 0.84622 2-0.16178 2.1477-1.2214 2.6239-2.225 1zm6.8333-0.54399c0-0.8008 0.375-1.456 0.83334-1.456 0.45833 0 0.83333 0.42344 0.83333 0.94098s-0.375 1.1728-0.83333 1.456c-0.45834 0.28327-0.83334-0.14017-0.83334-0.94098zm197.65-0.98018c-1.4814-1.785-1.0781-2.3792 2.0201-2.9758 1.2488-0.2405 1.9472-0.11389 1.552 0.28136-0.39525 0.39525-1.1311 0.77489-1.6353 0.84364-0.50417 0.0687-1.1968 0.18125-1.5391 0.25-0.34235 0.0687-0.0623 0.8 0.62244 1.625 0.68469 0.825 1.0199 1.5 0.74489 1.5-0.275 0-1.0692-0.68587-1.765-1.5242zm-207.42-1.1827c-0.54268-1.4252-0.42782-1.5401 0.5598-0.5598 0.68342 0.67834 0.99067 1.4852 0.68278 1.7931-0.30789 0.30789-0.86705-0.24711-1.2426-1.2333zm140.94 0.70687c-1.9282-0.82859-1.9214-0.86195 0.19098-0.92971 1.205-0.0387 2.4691 0.37971 2.809 0.92971 0.731 1.1828-0.24752 1.1828-3 0zm71.51-2.5268c0.55227-1.4526 0.74254-3.1658 0.42282-3.8072-0.31972-0.64134 0.12706-0.29257 0.99284 0.77505 0.86579 1.0676 1.5673 2.4176 1.5588 3-0.008 0.58238-0.45153 0.38387-0.98469-0.44113-0.8354-1.2927-0.97149-1.2663-0.98469 0.19098-0.008 0.93004-0.46395 1.9683-1.0123 2.3072-0.65881 0.40717-0.65639-0.27964 0.007-2.0249zm-204.45 0.62003c-0.30822-0.49871 0.34022-0.67122 1.441-0.38337 2.335 0.61061 2.6302 1.2901 0.5604 1.2901-0.79254 0-1.6932-0.40803-2.0014-0.90674zm-4.7451-0.77637c0.72187-0.28887 1.5844-0.25335 1.9167 0.0789 0.33229 0.33229-0.25834 0.56864-1.3125 0.52522-1.165-0.048-1.4019-0.28494-0.60417-0.60416zm35.89-2.44c1.7752-1.794 2.6348-2.0323 4.4348-1.2291 1.9786 0.88289 2.0351 1.0722 0.49605 1.6628-1.0357 0.39742-1.4901 0.2674-1.1258-0.32208 0.33602-0.5437-0.0906-0.98855-0.94806-0.98855s-1.559 0.40186-1.559 0.89301c0 0.49116-0.7875 1.1892-1.75 1.5512-1.3699 0.51518-1.2717 0.17477 0.45201-1.5672zm12.73 1.0129c-0.34769-0.56257-0.3621-1.2929-0.032-1.623 0.33008-0.33007 0.60703 0.0374 0.61545 0.81653 0.0127 1.1761 0.16133 1.1862 0.875 0.0599 0.52861-0.83426 1.0982-0.97089 1.479-0.35479 0.34059 0.55109-0.0387 1.2545-0.84298 1.5631-0.80423 0.30861-1.7467 0.10083-2.0944-0.46175zm106.57 0.11021c-0.825-0.53316-1.05-0.96937-0.5-0.96937s1.675 0.43621 2.5 0.96937 1.05 0.96937 0.5 0.96937-1.675-0.43621-2.5-0.96937zm10.566 0.10222c-1.1703-0.45831-1.5111-1.0183-0.86331-1.4187 0.58867-0.36382 1.6264 0.009 2.3061 0.8275 1.3696 1.6503 1.317 1.6719-1.4428 0.59121zm-6.9933-0.98396c-0.2359-0.38169 0.66365-0.7844 1.999-0.89492 1.3354-0.11051 2.4279-0.0335 2.4279 0.17123 0 0.74336-4.0096 1.3988-4.4269 0.72369zm-168.07-2.1068c-0.35034-0.56686 0.0511-0.7345 0.94098-0.39301 1.7324 0.66479 2.0494 1.3816 0.61096 1.3816-0.51754 0-1.2159-0.44485-1.5519-0.98855zm-3.6346-1.3477c1.1674-1.4151 1.1599-1.6637-0.05-1.6637-0.78234 0-1.9624 0.54-2.6224 1.2-0.93333 0.93333-1.2 0.93333-1.2 0 0-0.66 0.47656-1.2 1.059-1.2 0.58246 0 0.78174-0.44864 0.44285-0.99698-0.40717-0.65881 0.27964-0.65639 2.0249 0.007 1.4526 0.55227 3.1228 0.70638 3.7116 0.34247 0.63158-0.39034 0.77936-0.19044 0.36039 0.48746-0.39061 0.63203-1.6976 1.6752-2.9045 2.3182-1.9846 1.0574-2.0631 1.0101-0.82187-0.49462zm173.13 0.95291c0-0.90929 3.8983-1.2957 5.1393-0.50937 0.92513 0.58614 0.32034 0.86702-1.8893 0.87743-1.7875 0.008-3.25-0.15721-3.25-0.36806zm6.5427-1.5475c-0.66498-1.076 1.2923-2.5674 2.1905-1.6692 0.33007 0.33008 0.0486 0.60014-0.62555 0.60014-0.67413 0-0.94757 0.45-0.60765 1s0.39303 1 0.11803 1-0.75889-0.41891-1.0753-0.9309zm50.457-0.46211c0-0.94863 2.9934-1.4267 3.527-0.56332 0.32508 0.52598-0.33551 0.95633-1.468 0.95633s-2.059-0.17686-2.059-0.39301zm-198.47-3.7569c0.47747-2.4793 2.4711-4.9877 2.4711-3.1091 0 0.62754-0.45734 1.4236-1.0163 1.7691-0.55897 0.34546-0.77663 1.0159-0.48369 1.4899 0.29294 0.47399 0.0988 1.1299-0.43141 1.4576-0.54792 0.33863-0.78089-0.35524-0.53973-1.6075zm158.89 1.0117c-0.43129-0.69784-0.29172-0.9039 0.34549-0.51008 0.58801 0.36341 1.297 0.0954 1.5756-0.59549 0.3625-0.89914 0.52891-0.91769 0.58541-0.0652 0.11408 1.7209-1.6556 2.5475-2.5065 1.1708zm-199.41-0.8618c-0.90129-0.58246-1.0246-0.97549-0.30902-0.98469 0.65504-0.008 1.4691 0.43469 1.809 0.98469 0.7673 1.2415 0.42112 1.2415-1.5 0zm45.5 0c-0.33992-0.55-0.14148-1 0.44098-1s1.059 0.45 1.059 1-0.19844 1-0.44098 1-0.7191-0.45-1.059-1zm-42.5-2.1667c0-0.45833 0.42344-0.83333 0.94098-0.83333s1.1728 0.375 1.456 0.83333c0.28327 0.45834-0.14017 0.83334-0.94098 0.83334s-1.456-0.375-1.456-0.83334zm200.5 0.16667c-0.33992-0.55-0.14148-1 0.44098-1s1.059 0.45 1.059 1-0.19844 1-0.44098 1-0.7191-0.45-1.059-1zm43.5-0.44098c0-2.3122 1.7236-2.724 2.2927-0.54777 0.33703 1.2888 0.0251 1.9888-0.88631 1.9888-0.77351 0-1.4064-0.64844-1.4064-1.441zm-124.25-3.2213c0.6875-0.27741 1.8125-0.27741 2.5 0s0.125 0.50439-1.25 0.50439-1.9375-0.22698-1.25-0.50439zm-99.475-2.3377c-0.0829-1.1 0.29794-2 0.84622-2 0.54827 0 0.71875 0.45 0.37883 1s0.19602 1.0069 1.191 1.0153c1.5338 0.013 1.5808 0.16279 0.30902 0.98469-2.1545 1.3924-2.5559 1.2451-2.725-1zm185.54 1.3169c0.72187-0.28887 1.5844-0.25335 1.9167 0.0789 0.33229 0.33229-0.25834 0.56864-1.3125 0.52522-1.165-0.048-1.4019-0.28494-0.60417-0.60416zm9.6875-0.31689c-1.1-0.47269-1.5765-0.89106-1.0589-0.92971 0.51762-0.0387 0.0676-0.77866-1-1.6444-1.0676-0.86578-1.4097-1.3084-0.76023-0.98369 0.6495 0.32476 1.4514 0.15279 1.782-0.38216 0.33061-0.53496 1.2668-0.71719 2.0804-0.40498 1.0986 0.42159 1.3067 0.0887 0.80864-1.2937-0.70599-1.9594-0.56444-1.8825 1.4853 0.80657 1.1153 1.4632 0.95792 1.6335-1.283 1.3875-2.802-0.30759-3.2846 0.59364-1.2305 2.2983 0.96913 0.80431 1.693 0.77013 2.7018-0.12755 1.1637-1.0356 1.1721-0.95412 0.0538 0.52379-0.72832 0.9625-1.3816 1.7184-1.4518 1.6797-0.0702-0.0386-1.0276-0.45702-2.1276-0.92971zm-190.86-1.5057c-0.31537-0.82184-0.16408-1.4943 0.3362-1.4943 1.3556 0 2.1973 1.7771 1.1487 2.4252-0.50134 0.30984-1.1696-0.10906-1.4849-0.9309zm5.3638 0.50574c0-0.55 0.47656-1 1.059-1 0.58246 0 0.7809 0.45 0.44098 1s-0.81648 1-1.059 1c-0.24254 0-0.44098-0.45-0.44098-1zm73.563-0.10144c0.25846-0.4182-0.0377-1.0741-0.65818-1.4576-0.62046-0.38346-1.5209-0.0771-2.001 0.6809-0.69036 1.0899-0.87609 1.0122-0.8882-0.37188-0.0164-1.8743 2.4604-2.4074 3.4847-0.75 0.33992 0.55 1.5665 1 2.7257 1s1.7985 0.30917 1.4206 0.68704c-0.95432 0.95432-4.6614 1.1463-4.0836 0.21152zm106.77-0.35457c0-0.80081 0.38234-1.2197 0.84965-0.9309 0.4673 0.28881 0.59075 0.94401 0.27431 1.456-0.80862 1.3084-1.124 1.1611-1.124-0.52511zm42.16-1.5773c0.0754-1.612 0.45907-3.2529 0.8526-3.6464 0.39354-0.39353 0.60327 0.75762 0.46608 2.5581-0.31206 4.0954-1.5054 5.0803-1.3187 1.0883zm-115.22 1.3403c0.97297-0.25354 2.323-0.23687 3 0.0371 0.67703 0.27393-0.11903 0.48137-1.769 0.46099-1.65-0.0204-2.2039-0.2445-1.231-0.49804zm-153.08-2.607-2.1607-2.3h2.4429c1.891 0 2.1992 0.29367 1.364 1.3-1.0063 1.2125-0.45178 1.731 1.4903 1.3936 0.45338-0.0787 0.53932 0.31796 0.19098 0.88158-0.84452 1.3665-0.84635 1.3658-3.3274-1.2752zm121.05 0.80233c0.40773-0.45007 0.23158-1.4325-0.39144-2.1832-0.89525-1.0787-0.78858-1.2328 0.50868-0.73502 1.9545 0.75001 2.1196 2.0227 0.39144 3.0172-0.6875 0.39564-0.9164 0.3511-0.50868-0.099zm-82.603-2.0023c-0.31658-0.825-0.18787-1.5 0.28603-1.5 0.47389 0 1.1206 0.675 1.4372 1.5 0.31658 0.825 0.18787 1.5-0.28603 1.5-0.47389 0-1.1206-0.675-1.4372-1.5zm68.926 0.20687c0.37553-0.98622 0.93469-1.5412 1.2426-1.2333 0.30789 0.30789 0.00064 1.1148-0.68278 1.7931-0.98762 0.98026-1.1025 0.8654-0.5598-0.5598zm164 0.39791c-0.60348-0.97644 2.3932-2.4801 3.245-1.6283 0.28795 0.28795-0.11396 0.53043-0.89312 0.53885-1.1665 0.0126-1.1518 0.18652 0.0833 0.98469 1.2927 0.8354 1.2663 0.97149-0.19098 0.98469-0.93004 0.008-1.94-0.38754-2.2443-0.87991zm-235.83-2.0246c-0.43497-1.6634-0.30483-2.0538 0.43724-1.3117 0.5811 0.5811 0.85979 1.6468 0.61931 2.3683-0.24965 0.74895-0.70294 0.29565-1.0566-1.0566zm126.87 0.75593c0.25451-0.41181 1.1233-0.49525 1.9307-0.18543 2.0358 0.78123 1.8338 1.2526-0.46275 1.0796-1.0619-0.08-1.7225-0.48237-1.468-0.89418zm-133.1-1.8361c-0.33992-0.55-0.16803-1 0.38197-1s1.2781 0.45 1.618 1c0.33992 0.55 0.16803 1-0.38197 1s-1.2781-0.45-1.618-1zm1.905-2.2328c-1.5508-1.8176-1.5796-1.9808-0.15499-0.87755 2.0102 1.5567 2.3627 0.20802 0.5-1.9132-0.6875-0.7829-0.20297-0.54691 1.0767 0.52443s1.8394 2.1103 1.2438 2.3089c-0.59563 0.19855-0.8286 0.77256-0.51771 1.2756 1.0611 1.717-0.23907 0.91898-2.1478-1.3182zm67.085 1.2165c-0.34546-0.55897-0.93452-0.83121-1.309-0.60496-0.37449 0.22624-1.2183-0.17051-1.875-0.88167-0.94258-1.0206-0.7634-1.4057 0.85062-1.8277 1.1246-0.29409 1.7511-1.0098 1.3922-1.5906-0.39686-0.64212-0.0444-0.8225 0.89938-0.46032 2.0564 0.78913 1.9875 2.3816-0.10305 2.3816-1.4883 0-1.4727 0.20141 0.15499 2 0.99549 1.1 1.5418 2 1.214 2-0.32778 0-0.87862-0.45734-1.2241-1.0163zm75.168 0.34097c-0.36189-0.3619-0.65799-1.348-0.65799-2.1913 0-1.1332 0.29271-1.2406 1.1219-0.41147 0.61702 0.61702 1.8545 0.86032 2.75 0.54067 1.7161-0.61259 1.6047-0.43779-0.96387 1.5118-0.8756 0.6646-1.8881 0.91226-2.25 0.55037zm66.214-1.0166c-0.93255-1.1497-0.9718-1.4513-0.12244-0.94098 0.81479 0.48951 1.2553 0.12113 1.2653-1.058 0.0129-1.5301 0.16217-1.5778 0.96796-0.30902 0.60793 0.95724 0.60014 1.6214-0.0215 1.8354-0.5358 0.18448-0.71982 0.74698-0.40893 1.25 0.96389 1.5596-0.23434 1.0053-1.6804-0.77737zm36.195 1.1331c-0.0372-0.58238 0.53481-1.8828 1.2712-2.8899 1.1023-1.5075 1.6765-1.6212 3.25-0.64338 1.8201 1.131 1.8116 1.1607-0.17866 0.62333-1.5152-0.40913-2.3902 0.059-3.1823 1.7022-0.60089 1.2466-1.123 1.79-1.1602 1.2077zm-281.95-1.75c-0.82691-0.99637-0.77361-1.3333 0.21089-1.3333 0.7246 0 1.3175 0.6 1.3175 1.3333 0 0.73333-0.0949 1.3333-0.21089 1.3333s-0.70885-0.6-1.3175-1.3333zm182.94-2.3576c-0.11408-1.7209 1.6556-2.5475 2.5065-1.1708 0.43129 0.69784 0.29172 0.9039-0.34549 0.51008-0.58801-0.36341-1.297-0.0954-1.5756 0.59549-0.3625 0.89914-0.52891 0.91769-0.58541 0.0652zm-187.58-1.309c-0.33992-0.55-0.14148-1 0.44098-1s1.059 0.45 1.059 1-0.19844 1-0.44098 1-0.7191-0.45-1.059-1zm4.0071 0.0114c-0.35034-0.56686 0.0511-0.7345 0.94098-0.39301 1.7324 0.66479 2.0494 1.3816 0.61096 1.3816-0.51754 0-1.2159-0.44485-1.5519-0.98855zm96.16-1.1781c-0.26369-1.0083-0.045-1.8333 0.48597-1.8333s0.7065-0.41891 0.39007-0.9309c-0.31644-0.512-0.14613-1.1962 0.37845-1.5204 0.54853-0.339 0.7596 0.48144 0.49676 1.9309-0.25137 1.3862 0.002 2.5204 0.56252 2.5204 0.56076 0 1.0196 0.375 1.0196 0.83333 0 1.6507-2.8649 0.79123-3.3333-1zm191.83 1.1667c0.33992-0.55 0.81648-1 1.059-1 0.24254 0 0.44098 0.45 0.44098 1s-0.47656 1-1.059 1c-0.58246 0-0.7809-0.45-0.44098-1zm-253.92-1.6414c-0.52667-1.3725-0.38034-1.4343 0.89301-0.37756 1.7352 1.4401 1.9158 2.019 0.62988 2.019-0.49116 0-1.1765-0.73865-1.5229-1.6414zm256.84-0.35856c0-1.2952 0.3381-1.6333 0.98572-0.98571 0.64761 0.64761 0.64761 1.3238 0 1.9714-0.64762 0.64762-0.98572 0.30953-0.98572-0.98571zm-263.99-1.4392c0.0724-1.3558 0.38406-2.7174 0.69253-3.0259 0.30846-0.30847 0.50159 0.54841 0.42916 1.9042-0.0724 1.3558-0.38405 2.7174-0.69252 3.0259-0.30846 0.30847-0.50159-0.54841-0.42917-1.9042zm66.203 0.94882c-0.3892-1.0143-0.29368-2.2581 0.21227-2.764 1.2907-1.2907 2.0332 0.37489 1.1954 2.6812-0.6713 1.8479-0.72901 1.8513-1.4076 0.0828zm96.358 0.78426c0-0.63309 0.70714-1.8582 1.5714-2.7225 1.8507-1.8507 0.4447-2.1527-1.4964-0.32143-1.0694 1.0088-1.2367 0.9606-0.86713-0.25 0.64169-2.1022 2.9743-2.3334 5.3115-0.52645 1.412 1.0917 1.508 1.3678 0.33441 0.96173-1.0302-0.35647-2.2464 0.28719-3.25 1.72-0.88206 1.2593-1.6038 1.7717-1.6038 1.1386zm65.266-1.1756c0.20199-2.6815 2.8576-2.7513 4.5019-0.11833 0.68696 1.1 0.84335 2 0.34753 2-0.49581 0-1.2068-0.7875-1.5799-1.75-0.63719-1.6437-0.76198-1.6365-2.0538 0.11833-1.3199 1.793-1.3689 1.7829-1.2158-0.25zm-57.266-3.1183c0-0.55 0.47656-1 1.059-1 0.58246 0 0.7809 0.45 0.44098 1s-0.81648 1-1.059 1c-0.24254 0-0.44098-0.45-0.44098-1zm96.667 0.33333c-0.36667-0.36666-0.66667-1.1317-0.66667-1.7 0-0.6266 0.46577-0.56756 1.1833 0.15 0.65084 0.65084 0.95084 1.4158 0.66667 1.7-0.28417 0.28417-0.81667 0.21667-1.1833-0.15zm-107.67-2.3924c0-0.58246 0.45-0.7809 1-0.44098s1 0.81648 1 1.059c0 0.24254-0.45 0.44098-1 0.44098s-1-0.47656-1-1.059zm-97.91-2.22c-1.2192-3.2068-3.7359-5.0528-5.8167-4.2667-1.6654 0.62915-1.668 0.57022-0.0477-1.0674 1.6256-1.6429 1.8342-1.5839 4 1.1318 2.3396 2.9336 4.1092 6.4935 3.228 6.4935-0.27088 0-0.8845-1.031-1.3636-2.2911zm176.47 1.3765c-0.32198-0.52097-0.15917-1.2106 0.3618-1.5326 0.52097-0.32198 1.2106-0.15917 1.5326 0.3618 0.32198 0.52097 0.15917 1.2106-0.3618 1.5326-0.52097 0.32198-1.2106 0.15917-1.5326-0.3618zm-3.0917-2.0424c2.1782-2.4069 2.6774-2.5673 1.9302-0.62035-0.30027 0.78248-1.2734 1.7018-2.1626 2.043-1.3281 0.50964-1.2867 0.25575 0.2323-1.4227zm8.539 1.5405c0-1.0542 3.0121-3.9048 3.5538-3.3631 0.25218 0.25218-0.44425 1.2755-1.5476 2.274-1.1034 0.99854-2.0061 1.4886-2.0061 1.0891zm-281-1.6149c0-0.53274 0.47656-0.96862 1.059-0.96862 0.58246 0 0.73793-0.51953 0.34549-1.1545-0.44208-0.7153-0.27432-0.88306 0.44098-0.44098 1.5945 0.98543 1.4444 2.2703-0.34549 2.9571-0.825 0.31658-1.5 0.13972-1.5-0.39301zm94.564-1.6755c-0.54268-1.4252-0.42782-1.5401 0.5598-0.5598 0.68342 0.67834 0.99067 1.4852 0.68278 1.7931-0.30789 0.30789-0.86705-0.24711-1.2426-1.2333zm-65.485-0.87646c0.048-1.165 0.28494-1.4019 0.60416-0.60417 0.28887 0.72187 0.25335 1.5844-0.0789 1.9167-0.33229 0.33229-0.56864-0.25834-0.52522-1.3125zm-30.746-0.87268c0-0.80081 0.38234-1.2197 0.84965-0.9309 0.4673 0.28881 0.59075 0.94401 0.27431 1.456-0.80862 1.3084-1.124 1.1611-1.124-0.52511zm4.3987-0.54399c-0.94185-1.1-1.2827-2-0.75743-2s1.4367 0.9 2.0254 2 0.92954 2 0.75742 2c-0.17211 0-1.0835-0.9-2.0254-2zm276.5 0c0.68696-1.1 1.6066-2 2.0437-2 0.43705 0 0.31297 0.9-0.27573 2s-1.5084 2-2.0437 2c-0.53914 0-0.41615-0.89212 0.27573-2zm30.101 0.54399c0-0.80081 0.38234-1.2197 0.84965-0.9309 0.4673 0.28881 0.59075 0.94401 0.27431 1.456-0.80862 1.3084-1.124 1.1611-1.124-0.52511zm-94.333-0.30629c0-0.23593 0.93064-1.7359 2.0681-3.3333 2.0621-2.8959 3.9319-3.8016 3.9319-1.9044 0 0.55-0.5625 0.8875-1.25 0.75s-1.1375 0.3125-1 1-0.24814 1.25-0.85699 1.25c-0.60884 0-0.87675 0.6-0.59534 1.3333 0.28141 0.73334-0.12045 1.3333-0.89301 1.3333s-1.4047-0.19304-1.4047-0.42897zm97.5-1.2377c0.33992-0.55 0.81648-1 1.059-1 0.24254 0 0.44098 0.45 0.44098 1s-0.47656 1-1.059 1c-0.58246 0-0.7809-0.45-0.44098-1zm-225.43-2.4132c-1.1698-1.4096-1.1292-1.5459 0.29789-0.99831 1.2076 0.46339 1.4928 0.21721 1.0587-0.91397-0.32675-0.85151-1.2319-1.3035-2.0113-1.0044-0.92199 0.3538-1.3896-0.10507-1.3383-1.3131 0.0452-1.0636 0.29534-1.3202 0.58541-0.60076 0.27855 0.69093 0.87119 1.0308 1.317 0.75531 0.44578-0.27551 2.0948 0.16891 3.6646 0.98761 1.8626 0.97141 2.257 1.4907 1.1355 1.4947-1.1835 0.004-1.5433 0.55105-1.1557 1.7562 0.43091 1.3396 0.33467 1.4303-0.41034 0.38685-0.7323-1.0256-1.0742-1.0604-1.3809-0.14035-0.28928 0.86785-0.8009 0.74891-1.7625-0.40974zm223.43 0.53597c1.3795-1.3838 6.7148-2.2793 5.9202-0.99367-0.34128 0.5522-0.84672 0.77779-1.1232 0.50132-0.27648-0.27648-1.6939-0.0531-3.1499 0.49637-1.7702 0.6681-2.3159 0.66676-1.6472-0.004zm-28.989-2.4996c0.94531-1.4427 1.9078-2.6231 2.1389-2.6231 0.72338 0-1.6049 3.854-2.7593 4.5674-0.6041 0.37335-0.32492-0.50159 0.62038-1.9443zm-286.35 0.50073c-1.0977-0.69583-1.0829-0.94181 0.0833-1.3894 0.8084-0.31021 1.4172 0.0596 1.4172 0.86084 0 0.77256-0.0375 1.3978-0.0833 1.3894-0.0458-0.008-0.68356-0.3958-1.4172-0.86084zm26.42-0.98523c-0.24954-0.40376-0.0403-1.3876 0.465-2.1864 0.75554-1.1943 0.92142-1.131 0.93402 0.35677 0.008 0.99496 0.43422 1.5501 0.94621 1.2337 0.512-0.31644 1.1558-0.21141 1.4307 0.23339s-0.36014 0.87351-1.4112 0.95268c-1.0511 0.0792-2.1152-0.1864-2.3647-0.59016zm191.98-0.0257c-0.30154-0.4879 0.2344-0.8254 1.191-0.75 1.1254 0.0887 1.6839-0.51823 1.5826-1.7196-0.11075-1.3125 0.15524-1.5448 0.90762-0.79238 0.75238 0.75238 0.68914 1.5163-0.21578 2.6067-1.4421 1.7376-2.6548 1.9669-3.4654 0.65528zm102.43-0.49048c0-0.20765 0.7875-0.99515 1.75-1.75 1.5861-1.2439 1.6214-1.2085 0.37756 0.37756-1.3064 1.6658-2.1276 2.1955-2.1276 1.3724zm-224.67-2.0784c0-0.80081 0.38234-1.2197 0.84965-0.9309 0.4673 0.28881 0.59075 0.94401 0.27431 1.456-0.80862 1.3084-1.124 1.1611-1.124-0.52511zm129.05-0.70649c0.39209-2.0018 2.6137-2.1479 2.5972-0.17083-0.0118 1.4166-0.21165 1.5234-0.87895 0.47018-0.60663-0.9575-1.0261-1.0244-1.4097-0.225-0.37228 0.77596-0.47047 0.7523-0.30855-0.0743zm96.87-1.4162c1.9867-2.3696 2.3022-3.885 0.58834-2.8258-0.71626 0.44268-0.88302 0.27425-0.43931-0.44369 0.48901-0.79123 1.2869-0.85122 2.523-0.18969 0.9943 0.53214 2.1641 0.64586 2.5996 0.25271s0.4496-0.12238 0.0313 0.60171c-0.41825 0.72409-1.0195 1.0575-1.3361 0.74085-0.31662-0.31662-1.7308 0.44094-3.1427 1.6835-2.1937 1.9306-2.3136 1.9568-0.82419 0.18041zm-302.88-0.13355c0.8507-0.8507 5.0297-1.1584 6.2741-0.46199 0.81628 0.45681-0.24397 0.77514-2.6281 0.78907-2.198 0.0128-3.8387-0.13435-3.646-0.32708zm274.62-0.22869c0-0.51754 0.44485-1.2159 0.98855-1.5519 0.56686-0.35034 0.7345 0.0511 0.39301 0.94098-0.66479 1.7324-1.3816 2.0494-1.3816 0.61096zm-302.39-2.242c0.28881-0.4673 0.94401-0.59075 1.456-0.27431 1.3084 0.80862 1.1611 1.124-0.52511 1.124-0.80081 0-1.2197-0.38234-0.9309-0.84965zm27.387 0.18298c0.825-0.53316 1.95-0.96937 2.5-0.96937s0.325 0.43621-0.5 0.96937-1.95 0.96937-2.5 0.96937-0.325-0.43621 0.5-0.96937zm69.362-0.5c-0.31659-0.825-1.2025-1.5-1.9686-1.5-0.76615 0-1.393-0.47656-1.393-1.059 0-0.58246 0.46971-0.76872 1.0438-0.41391 0.5741 0.35481 1.8116 0.0656 2.75-0.64275 1.4242-1.075 1.5074-1.064 0.503 0.0671-0.83472 0.94002-0.9005 1.9206-0.21481 3.2018 0.54361 1.0157 0.73342 1.8468 0.42181 1.8468s-0.82559-0.675-1.1422-1.5zm-98.855-2.4886c-0.35034-0.56686 0.0511-0.7345 0.94098-0.39301 1.7324 0.66479 2.0494 1.3816 0.61096 1.3816-0.51754 0-1.2159-0.44485-1.5519-0.98855zm306.31 0.30544c0.72187-0.28887 1.5844-0.25335 1.9167 0.0789 0.33229 0.33229-0.25834 0.56864-1.3125 0.52522-1.165-0.048-1.4019-0.28494-0.60417-0.60416zm-69.246-1.4238c0.26032-0.42121 1.3451-0.70016 2.4107-0.6199 2.372 0.17868 1.7076 1.0475-0.95077 1.2433-1.0633 0.0783-1.7203-0.2022-1.4599-0.6234zm95.941 0.11835c-0.35034-0.56686 0.0511-0.7345 0.94098-0.39301 1.7324 0.66479 2.0494 1.3816 0.61096 1.3816-0.51754 0-1.2159-0.44485-1.5519-0.98855zm-330.43-1.5948c0.048-1.165 0.28494-1.4019 0.60416-0.60417 0.28887 0.72187 0.25335 1.5844-0.0789 1.9167-0.33229 0.33229-0.56864-0.25834-0.52522-1.3125zm21-1c0.048-1.165 0.28494-1.4019 0.60416-0.60417 0.28887 0.72187 0.25335 1.5844-0.0789 1.9167-0.33229 0.33229-0.56864-0.25834-0.52522-1.3125zm5.421 0.58333c0.33992-0.55 0.81648-1 1.059-1 0.24254 0 0.44098 0.45 0.44098 1s-0.47656 1-1.059 1c-0.58246 0-0.7809-0.45-0.44098-1zm67.233-0.12409c0.67834-0.68342 1.4852-0.99067 1.7931-0.68278 0.30789 0.30789-0.24711 0.86705-1.2333 1.2426-1.4252 0.54268-1.5401 0.42782-0.5598-0.5598zm148.27-0.81689c0-0.51754 0.44485-1.2159 0.98855-1.5519 0.56686-0.35034 0.7345 0.0511 0.39301 0.94098-0.66479 1.7324-1.3816 2.0494-1.3816 0.61096zm70.5-1.059c0.33992-0.55 0.81648-1 1.059-1 0.24254 0 0.44098 0.45 0.44098 1s-0.47656 1-1.059 1c-0.58246 0-0.7809-0.45-0.44098-1zm-316.73-0.6c-0.40105-0.40104-0.72917-1.0644-0.72917-1.474 0-0.96392 2.7095-0.5686 3.7211 0.54289 0.42841 0.47077 0.25487 0.55599-0.38565 0.18938-0.64052-0.3666-1.3249-0.18562-1.5208 0.40218-0.19594 0.5878-0.68437 0.7406-1.0854 0.33956zm29.143-1.1458c-1.2439-1.5861-1.2085-1.6214 0.37756-0.37756 0.9625 0.75485 1.75 1.5424 1.75 1.75 0 0.82304-0.82119 0.29331-2.1276-1.3724zm66.128-0.25c-0.90129-0.58246-1.0246-0.97549-0.30902-0.98469 0.65504-0.008 1.4691 0.43469 1.809 0.98469 0.7673 1.2415 0.42112 1.2415-1.5 0zm3-0.94098c0-0.51754 0.44485-1.2159 0.98855-1.5519 0.56686-0.35034 0.7345 0.0511 0.39301 0.94098-0.66479 1.7324-1.3816 2.0494-1.3816 0.61096zm148-2.0904c0-1.1173 0.67242-2.2894 1.4943-2.6048 0.82184-0.31537 1.2023-1.0458 0.84549-1.6231-0.39851-0.6448-0.16209-0.74894 0.61288-0.26999 0.928 0.57354 1.0833 0.21773 0.58712-1.3455-0.37434-1.1794-0.23869-2.1252 0.30481-2.1252 1.0554 0 0.86126 3.3614-0.36583 6.3338-0.59494 1.4412-0.93812 1.5482-1.6026 0.5-0.65672-1.036-0.84894-0.96169-0.86084 0.33282-0.008 0.91666 0.54719 1.8936 1.2347 2.171 0.74674 0.30132 0.54544 0.53617-0.5 0.58333-1.1183 0.0504-1.75-0.65437-1.75-1.9524zm-223.55-2.1829c-0.0204-1.5321 0.0614-2.7857 0.18179-2.7857 0.12035 0 0.84419 1.2536 1.6085 2.7857 1.2249 2.4554 1.2034 2.7857-0.18178 2.7857-1.0437 0-1.5839-0.93559-1.6085-2.7857zm292.88 1.7143c0-0.72013 0.6-1.0791 1.3333-0.79767 0.73333 0.28141 1.3333 0.64036 1.3333 0.79767s-0.6 0.51626-1.3333 0.79767c-0.73334 0.28141-1.3333-0.0775-1.3333-0.79767zm-223.83-3.4886c-0.35034-0.56686 0.0511-0.7345 0.94098-0.39301 1.7324 0.66479 2.0494 1.3816 0.61096 1.3816-0.51754 0-1.2159-0.44485-1.5519-0.98855zm253.04-0.86c-0.32383-1.0203-0.20238-2.8996 0.26989-4.1763l0.85866-2.3212 0.56947 2.1776c0.3132 1.1977 0.16143 1.9255-0.33728 1.6172-0.49871-0.30822-0.90674 0.16772-0.90674 1.0576 0 0.88992 0.44485 1.3431 0.98855 1.0071 0.56686-0.35034 0.7345 0.0511 0.39301 0.94098-0.77272 2.0137-1.1184 1.9566-1.8356-0.30313zm-349.55-0.52249c0-0.20765 0.7875-0.99515 1.75-1.75 1.5861-1.2439 1.6214-1.2085 0.37755 0.37756-1.3064 1.6658-2.1276 2.1955-2.1276 1.3724zm96.211-2.2233c-0.70918-0.76953-0.84824-1.3991-0.30901-1.3991 1.0384 0 2.5417 1.9022 1.9486 2.4657-0.19258 0.18294-0.93038-0.297-1.6396-1.0665zm225.66-0.89914c-0.0688-0.275-0.18125-0.9125-0.25-1.4167-0.0688-0.50416-0.4586-1.2503-0.86632-1.658-0.40773-0.40773-0.18273-1.4295 0.5-2.2706 1.0446-1.2868 0.95571-1.4221-0.56062-0.85347-1.0005 0.37523-1.551 0.26979-1.2378-0.23708 0.31029-0.50208-0.0721-1.0594-0.84968-1.2386-1.2122-0.27924-1.214-0.50955-0.0122-1.6151 1.1567-1.0641 1.4016-1.0018 1.4016 0.35699 0 0.90629 0.56192 1.4308 1.25 1.1668 0.88255-0.33867 1.25 0.80571 1.25 3.893 0 3.863-0.24613 5.3881-0.625 3.8727zm-320.38-3c0-1.27 0.3375-2.1004 0.75-1.8455 0.4125 0.25494 0.75 1.0854 0.75 1.8455 0 0.76008-0.3375 1.5906-0.75 1.8455-0.4125 0.25494-0.75-0.57553-0.75-1.8455zm27.305-0.62199c0.23429-1.5964 0.81895-3.1454 1.2992-3.4422 0.48029-0.29683 0.58783 0.20409 0.23899 1.1132-0.34885 0.90907-0.13664 1.9604 0.47156 2.3363 0.73082 0.45167 0.5053 1.0585-0.66498 1.7893-1.5667 0.97844-1.7217 0.77138-1.3448-1.7966zm226.93 0.12199c0.94185-1.1 1.8533-2 2.0254-2 0.17212 0-0.16872 0.9-0.75742 2s-1.5001 2-2.0254 2c-0.52526 0-0.18442-0.9 0.75743-2zm-159.81-0.25c-0.63254-2.0668-0.56379-3.8543 0.16558-4.305 0.50101-0.30964 0.91093 0.58857 0.91093 1.996 0 2.0355-0.70043 3.5378-1.0765 2.309zm-68.845-2.3333c0.048-1.165 0.28494-1.4019 0.60416-0.60417 0.28887 0.72187 0.25335 1.5844-0.0789 1.9167-0.33229 0.33229-0.56864-0.25834-0.52522-1.3125zm228-1c0.048-1.165 0.28494-1.4019 0.60416-0.60417 0.28887 0.72187 0.25335 1.5844-0.0789 1.9167-0.33229 0.33229-0.56864-0.25834-0.52522-1.3125zm84.642-2.4587c0.82543-3.1565 2.8211-4.2143 4.3882-2.326 1.232 1.4844 1.1261 1.5776-1.0186 0.89694-1.9142-0.60755-2.2757-0.45277-1.8053 0.77299 0.32347 0.84295-0.008 1.7612-0.73555 2.0406-0.89823 0.34469-1.1646-0.1003-0.82879-1.3845zm-335.39-1.414c0-0.80081 0.38234-1.2197 0.84965-0.9309 0.4673 0.28881 0.59075 0.94401 0.27431 1.456-0.80862 1.3084-1.124 1.1611-1.124-0.52511zm2.6667 0.49119c0-0.56935 0.72314-1.0352 1.607-1.0352 1.0415 0 1.3974-0.54612 1.0114-1.5519-0.34149-0.88992-0.17385-1.2913 0.39301-0.94098 1.5582 0.963 1.1625 2.3295-1.0114 3.4929-1.356 0.7257-2 0.73703-2 0.0352zm246.19-0.9705c0.66474-1.0644 1.572-1.7107 2.0161-1.4362 0.44414 0.27449 0.16121 1.1454-0.62872 1.9353-2.0481 2.0481-2.8076 1.7749-1.3874-0.49908zm61.789 0.41243c-1.0568-1.2734-0.99492-1.4197 0.37756-0.89301 0.90279 0.34643 1.6414 1.0317 1.6414 1.5229 0 1.286-0.57887 1.1054-2.019-0.62988zm-279.65-1.9771c0-0.72013 0.6-1.0791 1.3333-0.79767 0.73333 0.28141 1.3333 0.64036 1.3333 0.79767s-0.6 0.51626-1.3333 0.79767c-0.73334 0.28141-1.3333-0.0775-1.3333-0.79767zm283.75-1.0833c0.048-1.165 0.28494-1.4019 0.60416-0.60417 0.28887 0.72187 0.25335 1.5844-0.0789 1.9167-0.33229 0.33229-0.56864-0.25834-0.52522-1.3125zm25.793-0.16667c-1.2439-1.5861-1.2085-1.6214 0.37756-0.37756 0.9625 0.75485 1.75 1.5424 1.75 1.75 0 0.82304-0.82119 0.29331-2.1276-1.3724zm-306.3-1.96c-0.54268-1.4252-0.42782-1.5401 0.5598-0.5598 0.68342 0.67834 0.99067 1.4852 0.68278 1.7931-0.30789 0.30789-0.86705-0.24711-1.2426-1.2333zm57.359 1.4569c-0.58138-1.8996-0.56365-3.7142 0.0459-4.7005 0.51778-0.8378 0.92344-0.56721 1.2982 0.86598 0.29982 1.1465 0.11069 2.0845-0.42028 2.0845s-0.68728 0.45-0.34736 1 0.36648 1 0.059 1c-0.30746 0-0.59345-0.1125-0.63553-0.25zm30.077-1.75c1.9584-1.2656 3.2822-1.2656 2.5 0-0.33992 0.55-1.379 0.99311-2.309 0.98469-1.4573-0.0132-1.4837-0.14929-0.19098-0.98469zm213.5-1.2673c0.0905-1.228 0.56594-2.1539 1.0566-2.0577 1.506 0.29542 1.582 1.964 0.14382 3.1576-1.0883 0.9032-1.3316 0.68028-1.2004-1.0999zm-196.5 0.17883c0-0.50134 0.975-0.91152 2.1667-0.91152s1.8536 0.31302 1.471 0.69561c-1.0808 1.0808-3.6377 1.2326-3.6377 0.21591zm-101.63-0.59242c0.91151-1.6235-1.2826-2.8061-2.6567-1.432-0.61208 0.61208-1.573 1.1129-2.1354 1.1129-0.56238 0-0.0216-0.70107 1.2018-1.5579 1.2233-0.85687 2.7499-1.233 3.3924-0.83596 0.77241 0.47737 0.9626 0.18624 0.56139-0.85931-0.33374-0.8697-0.0601-1.791 0.60798-2.0474 1.6526-0.63417 1.3908 3.9972-0.31539 5.5783-0.93789 0.86913-1.1275 0.88111-0.65606 0.0415zm91.678-0.26843c-0.79874-0.50529-1.8808-0.65387-2.4045-0.33018-0.52374 0.32369-0.62773 0.0634-0.23108-0.57836 0.45985-0.74405 1.292-0.84742 2.2965-0.28527 1.7946 1.0043 5.4608 0.32065 6.4656-1.2057 0.45095-0.68499 1.4447-0.62099 3 0.19321 1.2791 0.66963 1.5521 0.99806 0.6066 0.72984-0.94548-0.26823-2.9705 0.16508-4.5 0.9629-3.2619 1.7015-3.3428 1.7094-5.2332 0.51358zm175.95-0.42823c0-0.20765 0.7875-0.99515 1.75-1.75 1.5861-1.2439 1.6214-1.2085 0.37756 0.37756-1.3064 1.6658-2.1276 2.1955-2.1276 1.3724zm-174.25-2.2847c0.6875-0.27741 1.8125-0.27741 2.5 0s0.125 0.50439-1.25 0.50439-1.9375-0.22698-1.25-0.50439zm171.71-0.40425c-0.36253-0.58659-0.44468-1.281-0.18255-1.5431 0.26212-0.26213 0.74306 0.21781 1.0688 1.0665 0.67618 1.7621 0.0999 2.0721-0.8862 0.4766zm-183.46-0.31689c0-0.21089 1.1114-0.59588 2.4697-0.85555 1.3584-0.25966 2.2318-0.0871 1.941 0.38343-0.51208 0.82856-4.4107 1.2459-4.4107 0.47212zm190-0.61658c0-0.55 0.47656-1 1.059-1 0.58246 0 0.7809 0.45 0.44098 1s-0.81648 1-1.059 1c-0.24254 0-0.44098-0.45-0.44098-1zm-295.77-3c-1.0077-1.6136-0.99869-2 0.0466-2 0.71262 0 1.3635 0.9 1.4463 2 0.0829 1.1 0.0619 2-0.0466 2-0.10852 0-0.75937-0.9-1.4463-2zm91.029-0.18546c-0.12087-1.6046 0.11712-1.7456 1.2955-0.76769 1.7663 1.4659 1.776 1.6116 0.14808 2.2363-0.7674 0.29448-1.3558-0.30417-1.4436-1.4686zm4.239 1.1855c0.33992-0.55 0.81648-1 1.059-1 0.24254 0 0.44098 0.45 0.44098 1s-0.47656 1-1.059 1c-0.58246 0-0.7809-0.45-0.44098-1zm1.1-2.6c-5.1106-4.682-3.3994-6.4182 1.9053-1.9331 2.7412 2.3177 3.6749 3.706 2.9757 4.4243-0.70386 0.72309-2.2134-0.0474-4.881-2.4912zm3.82 1.2521c-0.28448-0.74133-1.9579-2.3823-3.7186-3.6466l-3.2014-2.2987 3.4462 3.6466c3.7803 4.0001 4.2446 4.3074 3.4738 2.2987zm134.58 1.2889c0-0.58246 0.45-0.7809 1-0.44098s1 0.81648 1 1.059c0 0.24254-0.45 0.44098-1 0.44098s-1-0.47656-1-1.059zm52 0.18146c0-0.61734 0.417-1.1224 0.92668-1.1224 0.50967 0 1.1325-0.7875 1.384-1.75 0.38584-1.4765 0.47546-1.4956 0.57333-0.12244 0.0638 0.89515-0.559 2.1878-1.384 2.8724-1.0364 0.8601-1.5 0.89795-1.5 0.12244zm-258-2.1224c0-1.8915-0.30561-2.5033-1.9008-3.8052-1.3484-1.1004-1.2329-1.127 0.73642-0.16898 1.2846 0.62491 2.076 1.3958 1.7587 1.7132-0.31733 0.31733-0.0758 1.1809 0.5368 1.919 0.81923 0.98712 0.81694 1.342-0.009 1.342-0.61734 0-1.1224-0.45-1.1224-1zm48.141 0c0-0.825 0.38674-2.4 0.85943-3.5 0.54172-1.2606 0.85943-1.4455 0.85943-0.5 0 0.825-0.38674 2.4-0.85943 3.5-0.54172 1.2606-0.85943 1.4455-0.85943 0.5zm161.95 0.5c0.10413-1.8942 1.7708-5.0838 1.8288-3.5 0.0302 0.825-0.38124 2.175-0.9144 3s-0.94464 1.05-0.9144 0.5zm-96.82-2.3816c0.14257-1.8926 2.0066-2.2453 3.455-0.6537 0.42842 0.47077 0.21644 0.53224-0.47106 0.1366-0.77308-0.44489-1.25-0.12452-1.25 0.83967 0 0.85746-0.42203 1.559-0.93785 1.559s-0.87407-0.84672-0.79612-1.8816zm92.813 0.29826c0.048-1.165 0.28494-1.4019 0.60416-0.60417 0.28887 0.72187 0.25335 1.5844-0.0789 1.9167-0.33229 0.33229-0.56864-0.25834-0.52522-1.3125zm49.623-1.0833c0.28141-0.73333 0.8385-1.3333 1.238-1.3333 0.39949 0 0.72635 0.6 0.72635 1.3333 0 0.73334-0.5571 1.3333-1.238 1.3333-0.68089 0-1.0078-0.6-0.72634-1.3333zm-194.14-0.62646c0.37553-0.98622 0.93469-1.5412 1.2426-1.2333 0.30789 0.30789 0.00064 1.1148-0.68278 1.7931-0.98762 0.98026-1.1025 0.8654-0.5598-0.5598zm-89.973-0.55955c-0.28984-0.46897 0.0649-1.6621 0.78834-2.6515 0.92062-1.259 1.5302-1.4512 2.0314-0.64026 0.39924 0.646 0.0269 1.423-0.84161 1.7563-0.85671 0.32874-1.3087 1.0006-1.0044 1.4929 0.3043 0.49237 0.32827 0.89522 0.0533 0.89522-0.275 0-0.73714-0.38371-1.027-0.85268zm281.41-0.14732c-0.90129-0.58246-1.0246-0.97549-0.30902-0.98469 0.65504-0.008 1.4691 0.43469 1.809 0.98469 0.7673 1.2415 0.42112 1.2415-1.5 0zm-201.92-1.5833c0.048-1.165 0.28494-1.4019 0.60416-0.60417 0.28887 0.72187 0.25335 1.5844-0.0789 1.9167-0.3323 0.33229-0.56864-0.25834-0.52522-1.3125zm233.46 0.6448c-0.31903-0.5162-1.4706-0.76703-2.559-0.55742-2.198 0.42329-2.6805-1.934-0.92196-4.504 0.91234-1.3333 1.0086-1.3333 0.86621 0-0.30651 2.8702 0.0831 4.1141 1.0931 3.4899 0.55897-0.34546 0.77663-1.0159 0.48369-1.4899-0.29294-0.47399-0.11479-1.12 0.3959-1.4357 0.51069-0.31563 0.80082 0.21578 0.64474 1.1809s0.16352 2.3173 0.71023 3.0048 0.74048 1.25 0.43059 1.25c-0.30988 0-0.82445-0.42234-1.1435-0.93853zm-277.33-1.6623c-0.70918-0.76953-0.84824-1.3991-0.30901-1.3991 1.0384 0 2.5417 1.9022 1.9486 2.4657-0.19258 0.18294-0.93038-0.297-1.6396-1.0665zm108.39 0.43695c0.25451-0.41181 1.1233-0.49525 1.9307-0.18543 2.0358 0.78123 1.8338 1.2526-0.46275 1.0796-1.0619-0.08-1.7225-0.48237-1.468-0.89418zm4.9088 0.1476c0.34546-0.55897 1.047-0.75742 1.559-0.44098 1.387 0.85723 1.1284 1.4573-0.62812 1.4573-0.85746 0-1.2764-0.45734-0.9309-1.0163zm156.49 0.0163c0-0.55 0.47656-1 1.059-1 0.58246 0 0.7809 0.45 0.44098 1s-0.81648 1-1.059 1c-0.24254 0-0.44098-0.45-0.44098-1zm-300.74-2.839c0.10603-1.4076 0.49829-1.7999 1.1491-1.1491 0.65079 0.65079 0.59583 1.3804-0.16099 2.1372-0.86544 0.86544-1.1093 0.62154-0.98809-0.98809zm34.142 0.99352c0.62386-1.0094-0.49255-1.5784-2.5596-1.3046-0.36033 0.0477-0.91271-0.58438-1.2275-1.4047-0.45319-1.181-0.18802-1.2858 1.2737-0.50356 1.0153 0.54337 2.0746 0.75938 2.354 0.48001 0.27937-0.27937 0.76888 0.17205 1.0878 1.0032 0.31892 0.8311 0.08 1.82-0.53097 2.1976-0.67266 0.41573-0.82938 0.23113-0.39731-0.46797zm241.05-0.22104c-0.36253-0.58659-0.44468-1.281-0.18255-1.5431 0.26212-0.26213 0.74306 0.21781 1.0688 1.0665 0.67618 1.7621 0.0999 2.0721-0.8862 0.4766zm-201.96-0.93347c0.33992-0.55 0.81648-1 1.059-1 0.24254 0 0.44098 0.45 0.44098 1s-0.47656 1-1.059 1c-0.58246 0-0.7809-0.45-0.44098-1zm72.788-0.91107c-0.93285-1.4937-0.92181-2.0153 0.0506-2.3885 0.75172-0.28846 1.3223 0.46785 1.4417 1.9111 0.23893 2.8869 0.0502 2.9473-1.4923 0.47739zm86.525 1.228c0.72187-0.28887 1.5844-0.25335 1.9167 0.0789 0.33229 0.3323-0.25834 0.56864-1.3125 0.52522-1.165-0.048-1.4019-0.28494-0.60417-0.60416zm68.715-1.3607c0.35481-0.5741 0.11763-1.6794-0.52707-2.4562-0.6447-0.77681-0.90564-1.8437-0.57986-2.3708 0.32578-0.52712 0.12827-1.1881-0.43891-1.4688-0.56718-0.28073-0.45748-0.38498 0.24377-0.23167s1.1428 1.0196 0.98116 1.925c-0.16161 0.90544 0.17589 1.6463 0.75 1.6463s1.0438 0.9 1.0438 2-0.47656 2-1.059 2c-0.58246 0-0.76872-0.46971-0.41391-1.0438zm-227.53-1.8972c0-0.51754 0.44485-1.2159 0.98855-1.5519 0.56686-0.35034 0.7345 0.0511 0.39301 0.94098-0.66479 1.7324-1.3816 2.0494-1.3816 0.61096zm158.4-0.22491c-1.1261-1.8221-1.2411-4.8555-0.15877-4.1866 0.4937 0.30512 0.66724 1.1552 0.38564 1.889-0.2816 0.73384 0.0252 1.5267 0.68183 1.762 0.6566 0.23523 0.90138 0.74425 0.54396 1.1311-0.35743 0.38689-1.0111 0.1189-1.4527-0.59552zm-230.9-0.83411c0.33992-0.55 0.81648-1 1.059-1 0.24254 0 0.44098 0.45 0.44098 1s-0.47656 1-1.059 1c-0.58246 0-0.7809-0.45-0.44098-1zm77.184-0.75c-0.23864-0.4125-0.0718-1.65 0.3707-2.75 0.7024-1.746 0.81351-1.6508 0.87486 0.75 0.0693 2.713-0.3985 3.4642-1.2456 2zm66.316 0.49489c0-0.275 0.63494-1.027 1.411-1.671 1.0871-0.90221 1.583-0.87292 2.1603 0.12755 0.41214 0.71421 0.38111 0.96496-0.069 0.55724-0.45007-0.40773-1.4222-0.24013-2.1603 0.37244-0.73808 0.61257-1.342 0.88877-1.342 0.61377zm122.46-0.81142c-0.36253-0.58659-0.44468-1.281-0.18255-1.5431 0.26212-0.26213 0.74306 0.21781 1.0688 1.0665 0.67618 1.7621 0.0999 2.0721-0.8862 0.4766zm-224.99-0.85341c0.66466-1.1025 0.42816-1.257-1.058-0.69075-1.4422 0.54943-1.6321 0.44495-0.77026-0.42384 0.62908-0.63417 1.9367-0.99833 2.9057-0.80925 1.6579 0.32347 1.6528 0.43239-0.0857 1.8438-1.4781 1.2-1.6765 1.216-0.99169 0.0801zm253.21-3.08c0.22141-1.375 0.45947-3.0625 0.52902-3.75 0.23682-2.3408 1.5822-1.2606 1.4373 1.154-0.0793 1.3222-0.44954 2.2156-0.82272 1.9852-0.37317-0.23038-0.87373 0.3753-1.1124 1.346-0.23861 0.97066-0.25269 0.63983-0.0313-0.73517zm-284.34 0.26782c0.35392-0.57267-0.0216-1.5932-0.83448-2.2678-1.5367-1.2753-1.1538-3 0.66601-3 0.57638 0 0.80999 0.62017 0.51912 1.3781-0.29086 0.75798-0.0748 1.8322 0.48015 2.3871 0.67865 0.67865 0.60248 1.2602-0.23266 1.7764-0.75215 0.46486-0.98796 0.35691-0.59814-0.27382zm29.916-1.5178c0.22917-0.6875 0.94167-1.3062 1.5833-1.375 0.64167-0.0687 1.8417-0.18125 2.6667-0.25 0.825-0.0687 1.5-0.60156 1.5-1.184 0-0.58246-0.4949-0.75315-1.0998-0.37932-0.7982 0.49332-0.80039 0.1203-0.008-1.3603 0.60048-1.122 0.68971-2.1888 0.19829-2.3707-0.49142-0.18187-0.17716-0.99093 0.69834-1.7979 1.4119-1.3014 1.5174-1.2732 0.93287 0.25-0.39973 1.0417-0.17957 1.7233 0.55964 1.7326 0.92238 0.0116 0.93223 0.19746 0.0405 0.7646-0.64796 0.4121-1.1396 1.4177-1.0925 2.2347 0.24438 4.2377-0.19773 5.2566-1.7294 3.9854-1.0364-0.8601-1.5-0.89795-1.5-0.12244 0 0.61734-0.7125 1.1224-1.5833 1.1224-0.87084 0-1.3958-0.5625-1.1667-1.25zm258.31-0.45687c-0.54268-1.4252-0.42782-1.5401 0.5598-0.5598 0.68342 0.67834 0.99067 1.4852 0.68278 1.7931-0.30789 0.30789-0.86705-0.24711-1.2426-1.2333zm-220.08-0.33c-0.34546-0.55897-1.1595-0.71183-1.809-0.33968-0.64949 0.37215-0.83038 0.29147-0.40196-0.1793 1.2943-1.4222 3.3877-1.3306 3.3877 0.14824 0 1.6482-0.32414 1.7503-1.1768 0.37074zm180.07-0.27682c0.37553-0.98622 0.93469-1.5412 1.2426-1.2333 0.30789 0.30789 0.00064 1.1148-0.68278 1.7931-0.98762 0.98026-1.1025 0.8654-0.5598-0.5598zm-209.06-1.7069c0.99549-1.1 2.035-2 2.31-2s-0.31448 0.9-1.31 2c-0.99549 1.1-2.035 2-2.31 2s0.31449-0.9 1.31-2zm178.5 1c-0.90129-0.58246-1.0246-0.97549-0.30902-0.98469 0.65504-0.008 1.4691 0.43469 1.809 0.98469 0.7673 1.2415 0.42112 1.2415-1.5 0zm-209.4-1.6c-0.35589-0.92744-0.42208-1.9113-0.14708-2.1863s0.79119 0.25882 1.1471 1.1863c0.35589 0.92744 0.42208 1.9113 0.14708 2.1863s-0.79119-0.25882-1.1471-1.1863zm202.05-0.644c-0.73713-2.8188 0.88708-4.6259 2.6036-2.8968 1.0022 1.0097 0.90315 1.1272-0.5 0.59301-1.9511-0.74279-2.3375 0.5602-0.66287 2.2349 0.6866 0.6866 0.72849 1.3088 0.11369 1.6888-0.53539 0.3309-1.2349-0.39805-1.5544-1.6199zm63.952 1.4026c-0.96354-1.559 0.8634-2.9788 2.1074-1.6378 0.94605 1.0198 0.89915 1.417-0.21797 1.8457-0.78289 0.30042-1.6332 0.20689-1.8895-0.20785zm-272.92-1.8166c-0.77514-0.77515 1.1497-3.342 2.5061-3.342 0.51512 0 0.6112 0.52647 0.21351 1.1699-0.49057 0.79376-0.17131 0.95821 0.99292 0.51145 1.0562-0.40531 1.4714-0.26277 1.0799 0.37074-0.34985 0.56607-1.5546 0.73771-2.6772 0.38141-1.361-0.43195-1.8131-0.2789-1.3568 0.45933 0.75068 1.2146 0.28363 1.4912-0.75845 0.44914zm65.325 0.26498c0-0.21616 0.69837-0.661 1.5519-0.98855 0.88992-0.34149 1.2913-0.17385 0.94098 0.39301-0.58726 0.95021-2.4929 1.4054-2.4929 0.59554zm174.08-1.298c-0.11408-1.7209 1.6556-2.5475 2.5065-1.1708 0.43129 0.69784 0.29172 0.9039-0.34549 0.51008-0.58801-0.36341-1.297-0.0954-1.5756 0.59549-0.3625 0.89914-0.52891 0.91769-0.58541 0.0652zm4.6413-1.2707c-0.30249-1.1567-0.1219-1.7865 0.4168-1.4536 0.5228 0.32311 1.7183-0.006 2.6567-0.73139 1.2541-0.96941 1.1791-0.66102-0.28314 1.1639-1.0941 1.3655-2.0495 2.6131-2.123 2.7724-0.0735 0.15932-0.37384-0.6288-0.6674-1.7514zm35.844 0.25485c-0.54268-1.4252-0.42782-1.5401 0.5598-0.5598 0.68342 0.67834 0.99067 1.4852 0.68278 1.7931-0.30789 0.30789-0.86705-0.24711-1.2426-1.2333zm-241.86-0.61126c-0.33929-0.88419 0.40481-1.2194 2.4-1.0813 1.5905 0.11011 2.8918-0.20497 2.8918-0.70018 0-0.49522 0.43588-0.90039 0.96861-0.90039 0.53274 0 0.7023 0.69402 0.3768 1.5423-0.3255 0.84825-1.0989 1.3591-1.7186 1.1351-0.61973-0.22392-1.8693-0.0262-2.7768 0.43942-1.0801 0.55414-1.8199 0.4039-2.1418-0.43494zm198.73-1.4525c0.34132-0.34131 1.3238-0.72378 2.1833-0.84993 0.85947-0.12614 1.2834 0.0499 0.94211 0.39123-0.34132 0.34131-1.3238 0.72378-2.1833 0.84993-0.85947 0.12614-1.2834-0.0499-0.94211-0.39123zm-232.47-0.9634c0.80591-0.31688 2.3027-1.5189 3.3262-2.671 1.0235-1.1522 1.5988-1.5708 1.2785-0.93031-0.32033 0.64052-0.24212 1.3543 0.17381 1.5861 0.41593 0.23184 0.23097 0.29869-0.41101 0.14856s-1.4154 0.37362-1.7186 1.1639c-0.30325 0.79027-1.353 1.4013-2.3328 1.3579-1.3652-0.0605-1.4391-0.21354-0.31608-0.6551zm206.03-0.26595c0-0.55 0.47656-1 1.059-1 0.58246 0 0.7809 0.45 0.44098 1s-0.81648 1-1.059 1c-0.24254 0-0.44098-0.45-0.44098-1zm61.459-0.0665c-0.36253-0.58659-0.44468-1.281-0.18255-1.5431 0.26212-0.26213 0.74306 0.21781 1.0688 1.0665 0.67618 1.7621 0.0999 2.0721-0.8862 0.4766zm4.9374-0.34322c-0.29754-0.77537-1.6518-1.6886-3.0095-2.0293-1.3577-0.34076-2.2223-1.0179-1.9214-1.5048 0.30092-0.4869-0.0182-1.1132-0.7091-1.3917-0.9915-0.39974-0.9862-0.5231 0.0251-0.58541 0.70477-0.0434 1.5404 0.59605 1.857 1.421 0.31659 0.825 1.1866 1.5 1.9334 1.5s1.8395 0.9 2.4282 2 0.81541 2 0.5038 2-0.81001-0.63439-1.1075-1.4098zm-227.67-0.86517c-0.33681-0.87773-0.0752-1.8157 0.58144-2.0843 0.85308-0.34906 0.76569-0.79126-0.30618-1.5493-0.92322-0.65291-1.042-1.0667-0.30902-1.0761 1.8227-0.0234 2.4012 1.5612 1.4795 4.0528-0.68001 1.8382-0.94607 1.9591-1.4458 0.65697zm91.275-0.5315c0-0.8102-0.7875-2.0709-1.75-2.8015-1.6667-1.2652-1.6667-1.33 0-1.3602 0.9625-0.0175 1.75-0.4818 1.75-1.0318 0-1.3784 2.7203-1.2615 3.5955 0.15451 0.39244 0.63498 0.28501 0.88967-0.23873 0.56598s-1.5702-0.20662-2.3254 0.26015c-1.1484 0.70974-1.1138 1.2446 0.21159 3.2674 1.313 2.0038 1.3423 2.4187 0.17093 2.4187-0.77762 0-1.4138-0.66289-1.4138-1.4731zm-87.888-1.4661c1.6302-3.1342 1.8009-3.2253 1.6232-0.8666-0.0865 1.1478-0.74774 2.3136-1.4695 2.5905-1.0476 0.40202-1.0786 0.0544-0.1537-1.7239zm156.22 0.8165c0-0.80081 0.38234-1.2197 0.84965-0.9309 0.4673 0.28881 0.59075 0.94401 0.27431 1.456-0.80862 1.3084-1.124 1.1611-1.124-0.52511zm-193.71-1.3417c-0.27117-0.43876-0.0796-1.4513 0.42567-2.25 0.71729-1.1339 0.92206-0.95896 0.93402 0.79775 0.0157 2.313-0.49232 2.8557-1.3597 1.4522zm211.78-0.35676c-0.41437-0.67046-0.27699-0.88471 0.32767-0.51101 0.57267 0.35392 1.5973-0.0266 2.277-0.84549 0.67966-0.81895 1.7432-1.4753 2.3633-1.4586 0.62016 0.0167 0.28607 0.5193-0.74242 1.1168-1.5099 0.87722-1.6062 1.2535-0.5 1.9543 1.017 0.64426 0.80548 0.8718-0.821 0.88317-1.205 0.008-2.5121-0.50422-2.9045-1.1392zm38.982-2.0418c0.99767-0.55832 2.1881-0.62874 2.659-0.15729 0.47065 0.47122-0.33859 0.92409-1.8064 1.0109-2.2871 0.13529-2.4064 0.0159-0.8526-0.85363zm-59.374-3.5721c-2.5167-2.6928-2.8155-3.2936-1.0733-2.1582 2.1134 1.3773 5.938 5.9581 4.9328 5.9082-0.20458-0.0101-1.9414-1.6976-3.8595-3.75zm17.598 2.1952c-0.40096-1.0449-0.19431-1.284 0.6512-0.75361 0.6812 0.42734 2.1386 0.63171 3.2386 0.45416s1.6509 0.0328 1.2242 0.4674c-1.4452 1.4721-4.5234 1.371-5.114-0.16795zm-210.61-0.4581c0-0.53273 0.675-0.96861 1.5-0.96861s1.5 0.17685 1.5 0.39301-0.675 0.65203-1.5 0.96862c-0.825 0.31658-1.5 0.13972-1.5-0.39302zm206.5-0.96861c-0.5587-1.7603-1.5939-2.3884-3.5833-2.174-0.32084 0.0346-0.58334-0.58713-0.58334-1.3816 0-1.8664 0.37716-1.8201 2.4885 0.30556 3.1113 3.1323 4.4698 5.25 3.368 5.25-0.58028 0-1.3407-0.9-1.6898-2zm-200.86 0.30615c-1.0914-1.0914-0.7069-1.9728 0.86052-1.9728 0.825 0 1.5 0.34845 1.5 0.77432 0 1.1263-1.6135 1.9455-2.3605 1.1985zm246.82-0.37268c-0.36253-0.58659-0.44468-1.281-0.18255-1.5431 0.26212-0.26213 0.74306 0.21781 1.0688 1.0665 0.67618 1.7621 0.0999 2.0721-0.8862 0.4766zm-201.38-1.5168c0.048-1.165 0.28494-1.4019 0.60416-0.60417 0.28887 0.72187 0.25335 1.5844-0.0789 1.9167-0.3323 0.33229-0.56864-0.25834-0.52522-1.3125zm2.6544 0.45924c0.67834-0.68342 1.4852-0.99067 1.7931-0.68278 0.30789 0.30788-0.24711 0.86705-1.2333 1.2426-1.4252 0.54268-1.5401 0.42782-0.5598-0.5598zm192.27-0.37591c-0.68469-0.825-0.89504-1.5-0.46746-1.5 0.42759 0-0.0798-1.0048-1.1276-2.2328-1.7661-2.0699-1.77-2.1278-0.0541-0.79383 1.018 0.79142 2.5393 1.54 3.3807 1.6635 2.362 0.34666 4.0416 2.3631 1.9684 2.3631-0.935 0-1.7-0.47656-1.7-1.059 0-0.58246-0.47693-0.76426-1.0598-0.404-0.66978 0.41395-0.39375 1.16 0.75 2.0272 0.99541 0.7547 1.3024 1.3865 0.68228 1.404-0.62015 0.0175-1.6878-0.6432-2.3724-1.4682zm-236.5-0.5c0.33992-0.55 0.81648-1 1.059-1 0.24254 0 0.44098 0.45 0.44098 1s-0.47656 1-1.059 1c-0.58246 0-0.7809-0.45-0.44098-1zm48.421-2.75c-1.0974-1.4502-1.0975-1.5493-0.00059-0.57815 0.728 0.64452 2.0176 0.90555 2.8658 0.58007 1.0125-0.38854 1.2938-0.18997 0.81913 0.57814-1.0118 1.6371-2.1412 1.4592-3.6844-0.58006zm150.14 0.32802c-0.88505-1.0664-0.87524-1.5771 0.0412-2.1435 0.73259-0.45277 0.94233-0.32165 0.53632 0.33529-0.36672 0.59335 0.12625 1.2359 1.0955 1.428 1.1518 0.22821 1.3685 0.59698 0.62555 1.0647-0.62518 0.39354-1.6595 0.0856-2.2986-0.68443zm-87.129-1.6987c-0.79768-1.4905-0.80814-1.9187-0.0352-1.441 0.60488 0.37383 1.0998 0.24064 1.0998-0.29599s-0.5625-1.2027-1.25-1.4801c-0.76221-0.30756-0.58281-0.53519 0.45974-0.58333 1.2938-0.0597 1.6587 0.65039 1.5 2.9191-0.24996 3.5729-0.31623 3.6058-1.7743 0.88131zm-57.435 0.12068c-0.33992-0.55-0.14148-1 0.44098-1s1.059 0.45 1.059 1-0.19844 1-0.44098 1-0.7191-0.45-1.059-1zm-46.074-2.6958c0.13689-0.93269 0.77487-1.8711 1.4177-2.0854 0.64287-0.21429 0.95167-0.74105 0.68621-1.1706-0.26546-0.42952 0.36207-1.5454 1.3945-2.4797 1.4126-1.2784 2.0637-1.397 2.6309-0.47913 0.45212 0.73154 0.33709 0.96212-0.28742 0.57615-0.57266-0.35393-1.564-0.0135-2.2031 0.75646-0.79535 0.95834-0.8311 1.6044-0.11331 2.048 0.57671 0.35642 1.0417 1.184 1.0332 1.839-0.0118 0.91603-0.19102 0.91459-0.7764-0.006-0.50194-0.78959-1.2628-0.87992-2.2347-0.26532-1.0857 0.68659-1.129 0.93594-0.16459 0.94722 0.71996 0.008 1.0309 0.46528 0.69098 1.0153-0.99234 1.6056-2.3453 1.1518-2.0741-0.69579zm5.9364 1.0002c1.0651-1.0651 3.7233-1.2518 3.0835-0.21661-0.31008 0.50172-1.2872 0.91222-2.1714 0.91222-0.88421 0-1.2946-0.31303-0.91204-0.69561zm212.07-0.4146c-0.34769-0.56257-0.3621-1.2929-0.032-1.623 0.33008-0.33007 0.60014-0.02 0.60014 0.68898 0 1.0325 0.2986 1.0413 1.5 0.0442 0.86459-0.71755 1.5-0.81474 1.5-0.22944 0 1.4537-2.8156 2.3369-3.5681 1.1192zm-162.41-1.5233c2.5233-4.1112 9.1799-6.4938 11.542-4.1313 0.34103 0.34103-0.72126 0.40866-2.3607 0.15029-1.6824-0.26515-3.5882 0.0931-4.3754 0.82238-0.76709 0.71067-2.4569 2.1921-3.7552 3.2921l-2.3605 2 1.3095-2.1335zm-50.026-1.2595c0-0.49116 0.7118-1.1662 1.5818-1.5 2.4469-0.93895 2.6891-0.73505 1.0611 0.89301-1.7 1.7-2.6429 1.9166-2.6429 0.60699zm45.507-1.1184c0.33602-0.5437 0.0594-0.98855-0.61473-0.98855s-0.95943-0.26625-0.63402-0.59166c0.32542-0.32542 1.3497-0.16747 2.2761 0.351 1.564 0.87525 1.5656 0.98828 0.0231 1.5802-0.97623 0.37462-1.4094 0.22986-1.0504-0.351zm50.244-0.9509c-1.3941-1.3581-1.4536-1.7043-0.29303-1.7043 0.80101 0 1.7113 0.66441 2.023 1.4765 0.81067 2.1126 0.27683 2.1829-1.7299 0.22786zm117.75 0.96235c-1.6304-0.70061-1.6875-0.87242-0.30902-0.92972 0.93004-0.0386 1.9691 0.37972 2.309 0.92972 0.71066 1.1499 0.67591 1.1499-2 0zm-150-2c-0.33992-0.55-0.16803-1 0.38197-1s1.2781 0.45 1.618 1c0.33992 0.55 0.16803 1-0.38197 1s-1.2781-0.45-1.618-1zm-56.5-2c0-0.55 0.45-1 1-1s1 0.45 1 1-0.45 1-1 1-1-0.45-1-1zm69.079-0.58333c0.048-1.165 0.28494-1.4019 0.60416-0.60417 0.28887 0.72187 0.25335 1.5844-0.0789 1.9167-0.3323 0.33229-0.56864-0.25834-0.52522-1.3125zm4.1082 0.52203c0.23018-0.69054 1.4924-1.4194 2.805-1.6197 2.6876-0.41016 2.5401-0.12766-0.85778 1.6427-1.8883 0.98381-2.2812 0.97918-1.9472-0.023zm116.99-0.22224c-0.73844-0.88977-0.74707-1.7334-0.0281-2.75 0.87623-1.2389 0.95705-1.2139 0.52095 0.16168-0.28391 0.89548-0.0114 2.133 0.60566 2.75 0.61703 0.61702 0.86196 1.1219 0.5443 1.1219-0.31765 0-1.0569-0.57759-1.6428-1.2835zm4.4258-1.3024c-0.39607-1.0321-0.1861-1.2708 0.65605-0.74562 0.6812 0.42478 2.2569 0.82897 3.5015 0.8982 3.6622 0.20369 3.5434 1.0978-0.16451 1.2372-2.2169 0.0833-3.6144-0.40303-3.993-1.3897zm-115.13-0.45286c-0.39198-0.63423 0.0156-1.8814 0.90564-2.7715 1.0474-1.0474 1.6183-1.19 1.6183-0.40404 0 0.66786 0.7125 1.2143 1.5833 1.2143 0.87084 0 1.3981 0.5625 1.1717 1.25-0.54582 1.6574-4.3754 2.1733-5.279 0.71122zm2.524-0.96122c0-0.55-0.45-1-1-1s-1 0.45-1 1 0.45 1 1 1 1-0.45 1-1zm-81 0c0-0.55 0.45-1 1-1s1 0.45 1 1-0.45 1-1 1-1-0.45-1-1zm69-1.1667c0-0.45833 0.42344-0.83333 0.94098-0.83333s1.1728 0.375 1.456 0.83333c0.28327 0.45834-0.14017 0.83334-0.94098 0.83334-0.8008 0-1.456-0.375-1.456-0.83334zm4.8125-2.5164c0.72187-0.28888 1.5844-0.25335 1.9167 0.079 0.33229 0.33229-0.25834 0.56864-1.3125 0.52522-1.165-0.048-1.4019-0.28495-0.60417-0.60417zm106.59-1.8572c0.11316-0.771 0.59092-1.7524 1.0617-2.1808 0.47077-0.42842 0.55599-0.25488 0.18938 0.38565-0.3666 0.64052-0.124 1.3454 0.53912 1.5665 0.7879 0.26263 0.65099 0.61474-0.39513 1.0162-1.0345 0.39696-1.528 0.11835-1.395-0.78753zm4.097 0.54029c0.33992-0.55 0.81648-1 1.059-1 0.24254 0 0.44098 0.45 0.44098 1s-0.47656 1-1.059 1c-0.58246 0-0.7809-0.45-0.44098-1zm-169.63-2.75c-1.2439-1.5861-1.2085-1.6214 0.37756-0.37756 1.6658 1.3064 2.1955 2.1276 1.3724 2.1276-0.20765 0-0.99515-0.7875-1.75-1.75zm3.2014 0.33903c-0.80051-0.96456-0.83925-1.616-0.12245-2.059 0.57671-0.35642 1.083-0.50899 1.1251-0.33903 0.44889 1.813 0.6886 3.809 0.45745 3.809-0.15899 0-0.81602-0.63494-1.4601-1.411zm155.07-0.95245c0.70581-1.5749 1.465-2.3182 1.6872-1.6518 0.22214 0.6664-0.35535 1.9549-1.2833 2.8634-1.5794 1.5463-1.6052 1.4688-0.40388-1.2116zm-18.547-5.5328c-0.87668-0.96872-1.5873-2.4009-1.5792-3.1826 0.008-0.78169 0.59558-0.29626 1.3055 1.0787 0.75313 1.4587 1.9965 2.3776 2.9853 2.2062 2.0517-0.35577 2.2389 0.37095 0.28847 1.1194-0.77333 0.29675-2.1233-0.25303-3-1.2218zm-111.94-0.5718c-0.30982-0.80738-0.13297-1.7339 0.39301-2.059 0.52598-0.32508 0.95633 0.33551 0.95633 1.468 0 2.4146-0.55611 2.6582-1.3493 0.59104zm105.99-0.032c0.31659-0.825 0.96334-1.5 1.4372-1.5 0.4739 0 0.60261 0.675 0.28603 1.5-0.31659 0.825-0.96334 1.5-1.4372 1.5-0.4739 0-0.60261-0.675-0.28603-1.5zm14.862 0.5c0.33992-0.55 0.81648-1 1.059-1 0.24254 0 0.44098 0.45 0.44098 1s-0.47656 1-1.059 1c-0.58246 0-0.7809-0.45-0.44098-1zm-123.5-1c0-0.55-0.3375-0.8875-0.75-0.75s-0.975-0.1627-1.25-0.66712c-0.275-0.50441 0.44949-0.98707 1.61-1.0726 1.5823-0.11658 1.9908 0.30033 1.6334 1.6671-0.51402 1.9656-1.2434 2.4481-1.2434 0.82257zm115.6-0.83609c-0.25451-0.41181 0.40608-0.81419 1.468-0.89418 2.2966-0.17299 2.4986 0.29837 0.46275 1.0796-0.80739 0.30982-1.6762 0.22638-1.9307-0.18543zm-7.1013-2.1639c-0.33992-0.55 0.11008-1 1-1s1.3399 0.45 1 1c-0.33992 0.55-0.78992 1-1 1s-0.66008-0.45-1-1zm-90.5-3c0.825-0.53316 1.95-0.96937 2.5-0.96937s0.325 0.43621-0.5 0.96937-1.95 0.96937-2.5 0.96937-0.325-0.43621 0.5-0.96937zm4.8724-0.33628c1.0846-1.3148 1.1021-1.6637 0.0833-1.6637-0.70901 0-1.0229-0.26625-0.69745-0.59166 0.32542-0.32542 1.3724-0.15476 2.3266 0.37923 1.5713 0.87934 1.5076 1.092-0.675 2.2554-2.2 1.1726-2.2904 1.1396-1.0375-0.37924zm26.878 0.674c0.6875-0.27741 1.8125-0.27741 2.5 0s0.125 0.50438-1.25 0.50438-1.9375-0.22697-1.25-0.50438zm16.25-0.33772c0-0.55 0.47656-1 1.059-1 0.58246 0 0.7809 0.45 0.44098 1s-0.81648 1-1.059 1c-0.24254 0-0.44098-0.45-0.44098-1zm22-0.0993c0-0.56032 0.50031-0.70955 1.1118-0.33163 0.6115 0.37792 1.4387 0.15818 1.8383-0.48832 0.54638-0.88405 0.99277-0.85384 1.8007 0.12189 0.83392 1.0071 0.4227 1.3442-1.8383 1.5071-1.6019 0.11535-2.9125-0.24871-2.9125-0.80902zm-55.137-0.79499c1.0552-0.66851 1.0793-0.95825 0.10675-1.2824-0.69102-0.23034 0.48788-0.46824 2.6198-0.52867l3.8762-0.10988-3.3478 1.4076c-3.7465 1.5753-5.3237 1.824-3.255 0.51336zm10.137-0.27241c0-0.45833 0.42344-0.83333 0.94098-0.83333s1.1728 0.375 1.456 0.83333c0.28327 0.45834-0.14017 0.83334-0.94098 0.83334-0.8008 0-1.456-0.375-1.456-0.83334zm18.5 0.16667c-1.3187-0.56668-1.4891-0.87816-0.5-0.9144 0.825-0.0302 2.175 0.38124 3 0.9144 1.828 1.1813 0.24909 1.1813-2.5 0zm9.25 0.33772c0.6875-0.27741 1.8125-0.27741 2.5 0s0.125 0.50438-1.25 0.50438-1.9375-0.22697-1.25-0.50438zm25.25-0.39674c0-0.58246 0.45-0.7809 1-0.44098s1 0.81648 1 1.059c0 0.24254-0.45 0.44098-1 0.44098s-1-0.47656-1-1.059zm-68.25-1.6033c0.6875-0.27741 1.8125-0.27741 2.5 0s0.125 0.50438-1.25 0.50438-1.9375-0.22697-1.25-0.50438zm55.757-0.32627c-0.35034-0.56686 0.0511-0.7345 0.94098-0.39301 1.7324 0.66479 2.0494 1.3816 0.61096 1.3816-0.51754 0-1.2159-0.44485-1.5519-0.98855zm-41.007-1.0114c-0.33992-0.55-0.14148-1 0.44098-1s1.059 0.45 1.059 1-0.19844 1-0.44098 1-0.7191-0.45-1.059-1zm5.3125 0.31689c0.72187-0.28888 1.5844-0.25335 1.9167 0.079 0.33229 0.33229-0.25834 0.56864-1.3125 0.52522-1.165-0.048-1.4019-0.28495-0.60417-0.60417zm23.698-0.3332c0.34546-0.55897 1.047-0.75742 1.559-0.44099 1.387 0.85724 1.1284 1.4573-0.62812 1.4573-0.85746 0-1.2764-0.45734-0.9309-1.0163zm-9.2601-0.67302c0.9625-0.25152 2.5375-0.25152 3.5 0 0.9625 0.25153 0.175 0.45733-1.75 0.45733s-2.7125-0.2058-1.75-0.45733z" fill="#1d5691"/>
 </g>
</svg>
