<svg xmlns="http://www.w3.org/2000/svg" width="161.625" height="52" viewBox="9.775 10.7 161.625 52"><path d="M38.2 43c-.6 5.7-4 10.3-10.5 10.3-6.4 0-8.9-4.5-8.3-10.899L22 12.9h-9.6L9.8 42.1c0 1.2-.1 3.7.1 5.4 1.2 8.9 7.3 15.1 16.9 15.1 12.3 0 19.9-8.6 20.9-20l2.6-29.7h-9.6L38.2 43m16.1-5.4c-1.2 13.1 6.2 25.1 22.4 25.1 4.3 0 8.7-1.1 13.3-3.7l1.1-11.9c-4.8 4.801-9.3 6-13.6 6-9.8 0-14.3-7.1-13.6-15.8.8-8.9 6.4-16 16.5-16 4.1 0 8.6.8 12.4 5.8l1.1-11.6C89.8 13 85.6 12 81.3 12c-16.3 0-25.8 11.6-27 25.6m53.3 14.9l3.5-39.6h-9.5l-4.3 48.7h28.3s.801-8.699.9-9.199c-.9.1-4.1.1-5.1.1l-13.8-.001m46-41.8h-.7l-26.1 50.9H137l3.7-7.699H159l2.3 7.699h10.1l-17.8-50.9m-9 34.9s6.4-14.2 6.601-14.6c.3-.7.6-1.5.7-2h.1c.1.6.2 1.3.4 2.1.5 2.2 4.199 14.5 4.199 14.5h-12z" fill="#3184C0"/></svg>