<svg xmlns="http://www.w3.org/2000/svg" xmlns:xlink="http://www.w3.org/1999/xlink" width="112.025" height="45.887" viewBox="13.978 27.078 112.025 45.887"><defs><path id="a" d="M14 27.078h112v45.844H14z"/></defs><clipPath id="b"><use xlink:href="#a" overflow="visible"/></clipPath><g clip-path="url(#b)"><defs><path id="c" d="M14 27.078h112v45.844H14z"/></defs><defs><path id="e" d="M14 27.078h112v45.844H14z"/></defs><defs><path id="g" d="M14 27.078h112v45.844H14z"/></defs><defs><path id="i" d="M14 27.078h112v45.844H14z"/></defs><defs><path id="k" d="M14 27.078h112v45.844H14z"/></defs><defs><path id="m" d="M14 27.078h112v45.844H14z"/></defs><defs><path id="o" d="M14 27.078h112v45.844H14z"/></defs><defs><path id="q" d="M14 27.078h112v45.844H14z"/></defs><defs><path id="s" d="M14 27.078h112v45.844H14z"/></defs><defs><path id="u" d="M14 27.078h112v45.844H14z"/></defs><defs><path id="w" d="M14 27.078h112v45.844H14z"/></defs><defs><path id="y" d="M14 27.078h112v45.844H14z"/></defs><defs><path id="A" d="M14 27.078h112v45.844H14z"/></defs><defs><path id="C" d="M14 27.078h112v45.844H14z"/></defs><defs><path id="E" d="M14 27.078h112v45.844H14z"/></defs><defs><path id="G" d="M14 27.078h112v45.844H14z"/></defs><defs><path id="I" d="M14 27.078h112v45.844H14z"/></defs><defs><path id="K" d="M14 27.078h112v45.844H14z"/></defs><defs><path id="M" d="M14 27.078h112v45.844H14z"/></defs><defs><path id="O" d="M14 27.078h112v45.844H14z"/></defs><defs><path id="Q" d="M14 27.078h112v45.844H14z"/></defs><defs><path id="S" d="M14 27.078h112v45.844H14z"/></defs><defs><path id="U" d="M14 27.078h112v45.844H14z"/></defs><defs><path id="W" d="M14 27.078h112v45.844H14z"/></defs><defs><path id="Y" d="M14 27.078h112v45.844H14z"/></defs><defs><path id="aa" d="M14 27.078h112v45.844H14z"/></defs><defs><path id="ac" d="M14 27.078h112v45.844H14z"/></defs><defs><path id="ae" d="M14 27.078h112v45.844H14z"/></defs><defs><path id="ag" d="M14 27.078h112v45.844H14z"/></defs><defs><path id="ai" d="M14 27.078h112v45.844H14z"/></defs><defs><path id="ak" d="M14 27.078h112v45.844H14z"/></defs><defs><path id="am" d="M14 27.078h112v45.844H14z"/></defs><defs><path id="ao" d="M14 27.078h112v45.844H14z"/></defs><defs><path id="aq" d="M14 27.078h112v45.844H14z"/></defs><defs><path id="as" d="M14 27.078h112v45.844H14z"/></defs><defs><path id="au" d="M14 27.078h112v45.844H14z"/></defs><defs><path id="aw" d="M14 27.078h112v45.844H14z"/></defs><defs><path id="ay" d="M14 27.078h112v45.844H14z"/></defs><defs><path id="aA" d="M14 27.078h112v45.844H14z"/></defs><defs><path id="aC" d="M14 27.078h112v45.844H14z"/></defs><defs><path id="aE" d="M14 27.078h112v45.844H14z"/></defs><defs><path id="aG" d="M14 27.078h112v45.844H14z"/></defs><defs><path id="aI" d="M14 27.078h112v45.844H14z"/></defs><defs><path id="aK" d="M14 27.078h112v45.844H14z"/></defs><defs><path id="aM" d="M14 27.078h112v45.844H14z"/></defs><defs><path id="aO" d="M14 27.078h112v45.844H14z"/></defs><defs><path id="aQ" d="M14 27.078h112v45.844H14z"/></defs><defs><path id="aS" d="M14 27.078h112v45.844H14z"/></defs><defs><path id="aU" d="M14 27.078h112v45.844H14z"/></defs><defs><path id="aW" d="M14 27.078h112v45.844H14z"/></defs><defs><path id="aY" d="M14 27.078h112v45.844H14z"/></defs><defs><path id="ba" d="M14 27.078h112v45.844H14z"/></defs><defs><path id="bc" d="M14 27.078h112v45.844H14z"/></defs><defs><path id="be" d="M14 27.078h112v45.844H14z"/></defs><defs><path id="bg" d="M14 27.078h112v45.844H14z"/></defs><defs><path id="bi" d="M14 27.078h112v45.844H14z"/></defs><defs><path id="bk" d="M14 27.078h112v45.844H14z"/></defs><defs><path id="bm" d="M14 27.078h112v45.844H14z"/></defs><defs><path id="bo" d="M14 27.078h112v45.844H14z"/></defs><defs><path id="bq" d="M14 27.078h112v45.844H14z"/></defs><defs><path id="bs" d="M14 27.078h112v45.844H14z"/></defs><defs><path id="bu" d="M14 27.078h112v45.844H14z"/></defs><defs><path id="bw" d="M14 27.078h112v45.844H14z"/></defs><defs><path id="by" d="M14 27.078h112v45.844H14z"/></defs><defs><path id="bA" d="M14 27.078h112v45.844H14z"/></defs><defs><path id="bC" d="M14 27.078h112v45.844H14z"/></defs><defs><path id="bE" d="M14 27.078h112v45.844H14z"/></defs><defs><path id="bG" d="M14 27.078h112v45.844H14z"/></defs><defs><path id="bI" d="M14 27.078h112v45.844H14z"/></defs><defs><path id="bK" d="M14 27.078h112v45.844H14z"/></defs><defs><path id="bM" d="M14 27.078h112v45.844H14z"/></defs><defs><path id="bO" d="M14 27.078h112v45.844H14z"/></defs><defs><path id="bQ" d="M14 27.078h112v45.844H14z"/></defs><defs><path id="bS" d="M14 27.078h112v45.844H14z"/></defs><defs><path id="bU" d="M14 27.078h112v45.844H14z"/></defs><defs><path id="bW" d="M14 27.078h112v45.844H14z"/></defs><defs><path id="bY" d="M14 27.078h112v45.844H14z"/></defs><defs><path id="ca" d="M14 27.078h112v45.844H14z"/></defs><defs><path id="cc" d="M14 27.078h112v45.844H14z"/></defs><defs><path id="ce" d="M14 27.078h112v45.844H14z"/></defs><defs><path id="cg" d="M14 27.078h112v45.844H14z"/></defs><defs><path id="ci" d="M14 27.078h112v45.844H14z"/></defs><defs><path id="ck" d="M14 27.078h112v45.844H14z"/></defs><defs><path id="cm" d="M14 27.078h112v45.844H14z"/></defs><defs><path id="co" d="M14 27.078h112v45.844H14z"/></defs><defs><path id="cq" d="M14 27.078h112v45.844H14z"/></defs><defs><path id="cs" d="M14 27.078h112v45.844H14z"/></defs><defs><path id="cu" d="M14 27.078h112v45.844H14z"/></defs><defs><path id="cw" d="M14 27.078h112v45.844H14z"/></defs><defs><path id="cy" d="M14 27.078h112v45.844H14z"/></defs><defs><path id="cA" d="M14 27.078h112v45.844H14z"/></defs><defs><path id="cC" d="M14 27.078h112v45.844H14z"/></defs><clipPath id="d"><use xlink:href="#c" overflow="visible"/></clipPath><clipPath id="f" clip-path="url(#d)"><use xlink:href="#e" overflow="visible"/></clipPath><clipPath id="h" clip-path="url(#f)"><use xlink:href="#g" overflow="visible"/></clipPath><clipPath id="j" clip-path="url(#h)"><use xlink:href="#i" overflow="visible"/></clipPath><clipPath id="l" clip-path="url(#j)"><use xlink:href="#k" overflow="visible"/></clipPath><clipPath id="n" clip-path="url(#l)"><use xlink:href="#m" overflow="visible"/></clipPath><clipPath id="p" clip-path="url(#n)"><use xlink:href="#o" overflow="visible"/></clipPath><clipPath id="r" clip-path="url(#p)"><use xlink:href="#q" overflow="visible"/></clipPath><clipPath id="t" clip-path="url(#r)"><use xlink:href="#s" overflow="visible"/></clipPath><clipPath id="v" clip-path="url(#t)"><use xlink:href="#u" overflow="visible"/></clipPath><clipPath id="x" clip-path="url(#v)"><use xlink:href="#w" overflow="visible"/></clipPath><clipPath id="z" clip-path="url(#x)"><use xlink:href="#y" overflow="visible"/></clipPath><clipPath id="B" clip-path="url(#z)"><use xlink:href="#A" overflow="visible"/></clipPath><clipPath id="D" clip-path="url(#B)"><use xlink:href="#C" overflow="visible"/></clipPath><clipPath id="F" clip-path="url(#D)"><use xlink:href="#E" overflow="visible"/></clipPath><clipPath id="H" clip-path="url(#F)"><use xlink:href="#G" overflow="visible"/></clipPath><clipPath id="J" clip-path="url(#H)"><use xlink:href="#I" overflow="visible"/></clipPath><clipPath id="L" clip-path="url(#J)"><use xlink:href="#K" overflow="visible"/></clipPath><clipPath id="N" clip-path="url(#L)"><use xlink:href="#M" overflow="visible"/></clipPath><clipPath id="P" clip-path="url(#N)"><use xlink:href="#O" overflow="visible"/></clipPath><clipPath id="R" clip-path="url(#P)"><use xlink:href="#Q" overflow="visible"/></clipPath><clipPath id="T" clip-path="url(#R)"><use xlink:href="#S" overflow="visible"/></clipPath><clipPath id="V" clip-path="url(#T)"><use xlink:href="#U" overflow="visible"/></clipPath><clipPath id="X" clip-path="url(#V)"><use xlink:href="#W" overflow="visible"/></clipPath><clipPath id="Z" clip-path="url(#X)"><use xlink:href="#Y" overflow="visible"/></clipPath><clipPath id="ab" clip-path="url(#Z)"><use xlink:href="#aa" overflow="visible"/></clipPath><clipPath id="ad" clip-path="url(#ab)"><use xlink:href="#ac" overflow="visible"/></clipPath><clipPath id="af" clip-path="url(#ad)"><use xlink:href="#ae" overflow="visible"/></clipPath><clipPath id="ah" clip-path="url(#af)"><use xlink:href="#ag" overflow="visible"/></clipPath><clipPath id="aj" clip-path="url(#ah)"><use xlink:href="#ai" overflow="visible"/></clipPath><clipPath id="al" clip-path="url(#aj)"><use xlink:href="#ak" overflow="visible"/></clipPath><clipPath id="an" clip-path="url(#al)"><use xlink:href="#am" overflow="visible"/></clipPath><clipPath id="ap" clip-path="url(#an)"><use xlink:href="#ao" overflow="visible"/></clipPath><clipPath id="ar" clip-path="url(#ap)"><use xlink:href="#aq" overflow="visible"/></clipPath><clipPath id="at" clip-path="url(#ar)"><use xlink:href="#as" overflow="visible"/></clipPath><clipPath id="av" clip-path="url(#at)"><use xlink:href="#au" overflow="visible"/></clipPath><clipPath id="ax" clip-path="url(#av)"><use xlink:href="#aw" overflow="visible"/></clipPath><clipPath id="az" clip-path="url(#ax)"><use xlink:href="#ay" overflow="visible"/></clipPath><clipPath id="aB" clip-path="url(#az)"><use xlink:href="#aA" overflow="visible"/></clipPath><clipPath id="aD" clip-path="url(#aB)"><use xlink:href="#aC" overflow="visible"/></clipPath><clipPath id="aF" clip-path="url(#aD)"><use xlink:href="#aE" overflow="visible"/></clipPath><clipPath id="aH" clip-path="url(#aF)"><use xlink:href="#aG" overflow="visible"/></clipPath><clipPath id="aJ" clip-path="url(#aH)"><use xlink:href="#aI" overflow="visible"/></clipPath><clipPath id="aL" clip-path="url(#aJ)"><use xlink:href="#aK" overflow="visible"/></clipPath><clipPath id="aN" clip-path="url(#aL)"><use xlink:href="#aM" overflow="visible"/></clipPath><clipPath id="aP" clip-path="url(#aN)"><use xlink:href="#aO" overflow="visible"/></clipPath><clipPath id="aR" clip-path="url(#aP)"><use xlink:href="#aQ" overflow="visible"/></clipPath><clipPath id="aT" clip-path="url(#aR)"><use xlink:href="#aS" overflow="visible"/></clipPath><clipPath id="aV" clip-path="url(#aT)"><use xlink:href="#aU" overflow="visible"/></clipPath><clipPath id="aX" clip-path="url(#aV)"><use xlink:href="#aW" overflow="visible"/></clipPath><clipPath id="aZ" clip-path="url(#aX)"><use xlink:href="#aY" overflow="visible"/></clipPath><clipPath id="bb" clip-path="url(#aZ)"><use xlink:href="#ba" overflow="visible"/></clipPath><clipPath id="bd" clip-path="url(#bb)"><use xlink:href="#bc" overflow="visible"/></clipPath><clipPath id="bf" clip-path="url(#bd)"><use xlink:href="#be" overflow="visible"/></clipPath><clipPath id="bh" clip-path="url(#bf)"><use xlink:href="#bg" overflow="visible"/></clipPath><clipPath id="bj" clip-path="url(#bh)"><use xlink:href="#bi" overflow="visible"/></clipPath><clipPath id="bl" clip-path="url(#bj)"><use xlink:href="#bk" overflow="visible"/></clipPath><clipPath id="bn" clip-path="url(#bl)"><use xlink:href="#bm" overflow="visible"/></clipPath><clipPath id="bp" clip-path="url(#bn)"><use xlink:href="#bo" overflow="visible"/></clipPath><clipPath id="br" clip-path="url(#bp)"><use xlink:href="#bq" overflow="visible"/></clipPath><clipPath id="bt" clip-path="url(#br)"><use xlink:href="#bs" overflow="visible"/></clipPath><clipPath id="bv" clip-path="url(#bt)"><use xlink:href="#bu" overflow="visible"/></clipPath><clipPath id="bx" clip-path="url(#bv)"><use xlink:href="#bw" overflow="visible"/></clipPath><clipPath id="bz" clip-path="url(#bx)"><use xlink:href="#by" overflow="visible"/></clipPath><clipPath id="bB" clip-path="url(#bz)"><use xlink:href="#bA" overflow="visible"/></clipPath><clipPath id="bD" clip-path="url(#bB)"><use xlink:href="#bC" overflow="visible"/></clipPath><clipPath id="bF" clip-path="url(#bD)"><use xlink:href="#bE" overflow="visible"/></clipPath><clipPath id="bH" clip-path="url(#bF)"><use xlink:href="#bG" overflow="visible"/></clipPath><clipPath id="bJ" clip-path="url(#bH)"><use xlink:href="#bI" overflow="visible"/></clipPath><clipPath id="bL" clip-path="url(#bJ)"><use xlink:href="#bK" overflow="visible"/></clipPath><clipPath id="bN" clip-path="url(#bL)"><use xlink:href="#bM" overflow="visible"/></clipPath><clipPath id="bP" clip-path="url(#bN)"><use xlink:href="#bO" overflow="visible"/></clipPath><clipPath id="bR" clip-path="url(#bP)"><use xlink:href="#bQ" overflow="visible"/></clipPath><clipPath id="bT" clip-path="url(#bR)"><use xlink:href="#bS" overflow="visible"/></clipPath><clipPath id="bV" clip-path="url(#bT)"><use xlink:href="#bU" overflow="visible"/></clipPath><clipPath id="bX" clip-path="url(#bV)"><use xlink:href="#bW" overflow="visible"/></clipPath><clipPath id="bZ" clip-path="url(#bX)"><use xlink:href="#bY" overflow="visible"/></clipPath><clipPath id="cb" clip-path="url(#bZ)"><use xlink:href="#ca" overflow="visible"/></clipPath><clipPath id="cd" clip-path="url(#cb)"><use xlink:href="#cc" overflow="visible"/></clipPath><clipPath id="cf" clip-path="url(#cd)"><use xlink:href="#ce" overflow="visible"/></clipPath><clipPath id="ch" clip-path="url(#cf)"><use xlink:href="#cg" overflow="visible"/></clipPath><clipPath id="cj" clip-path="url(#ch)"><use xlink:href="#ci" overflow="visible"/></clipPath><clipPath id="cl" clip-path="url(#cj)"><use xlink:href="#ck" overflow="visible"/></clipPath><clipPath id="cn" clip-path="url(#cl)"><use xlink:href="#cm" overflow="visible"/></clipPath><clipPath id="cp" clip-path="url(#cn)"><use xlink:href="#co" overflow="visible"/></clipPath><clipPath id="cr" clip-path="url(#cp)"><use xlink:href="#cq" overflow="visible"/></clipPath><clipPath id="ct" clip-path="url(#cr)"><use xlink:href="#cs" overflow="visible"/></clipPath><clipPath id="cv" clip-path="url(#ct)"><use xlink:href="#cu" overflow="visible"/></clipPath><clipPath id="cx" clip-path="url(#cv)"><use xlink:href="#cw" overflow="visible"/></clipPath><clipPath id="cz" clip-path="url(#cx)"><use xlink:href="#cy" overflow="visible"/></clipPath><clipPath id="cB" clip-path="url(#cz)"><use xlink:href="#cA" overflow="visible"/></clipPath><clipPath id="cD" clip-path="url(#cB)"><use xlink:href="#cC" overflow="visible"/></clipPath><path clip-path="url(#cD)" fill="#FFD044" d="M27.259 27.642v1.128c-2.821.212-3.103.494-3.103 4.726v8.252c0 6.207 1.975 9.732 6.489 9.732 4.584 0 6.912-3.598 6.912-10.508v-2.327c0-4.442-.212-6.701-.353-7.829-.211-1.41-1.27-1.904-3.667-2.045v-1.128h9.31v1.128c-1.904.07-2.892.635-3.104 2.045-.141 1.199-.352 3.387-.352 7.829v2.821c0 3.809-.706 7.053-2.751 9.381-1.692 1.902-4.373 2.962-7.053 2.962-2.327 0-4.866-.494-6.771-2.045-2.045-1.693-2.821-4.515-2.821-9.169v-9.098c0-4.232-.282-4.443-3.314-4.727v-1.128h10.578zm64.887 5.995c-.775-2.257-2.117-5.009-5.714-5.009-2.82 0-4.372 1.904-4.372 4.092s1.691 3.667 5.008 5.008l1.129.493c3.385 1.34 6.416 3.456 6.416 7.547 0 4.655-4.02 7.969-9.803 7.969-1.621 0-3.174-.28-4.301-.634-1.201-.354-1.977-.635-2.469-.848-.354-.986-.849-3.666-1.271-6.064l1.271-.423c.846 2.045 3.172 6.417 7.617 6.417 2.819 0 4.512-1.975 4.512-4.443 0-2.186-1.127-3.738-4.584-5.289l-1.34-.635c-2.82-1.34-6.418-3.386-6.418-7.266 0-4.09 3.385-7.475 9.17-7.475 1.127 0 2.68.141 3.879.563.705.212 1.27.282 1.832.493.143 1.341.424 3.105.848 5.291l-1.41.213zm-24.05.846c-1.199-4.442-3.597-5.782-7.124-5.782-6.207 0-9.028 5.359-9.028 11.213 0 7.264 3.527 12.342 9.028 12.342 4.091 0 5.994-2.187 7.97-6.348l1.058.213c-.422 1.904-1.27 5.008-1.903 6.488-1.058.283-4.515 1.199-7.124 1.199-9.944 0-13.965-6.701-13.965-12.907-.07-8.321 6.065-13.823 14.6-13.823 3.245 0 5.784.776 6.842.987.281 2.187.422 3.95.704 6.207l-1.058.211zm44.079-6.841c3.244 0 4.939.423 6.418 1.27 1.48.918 2.328 2.398 2.328 4.443 0 3.387-3.457 5.148-5.924 5.643v.07c4.231.494 7.545 2.609 7.545 6.561 0 2.82-1.479 4.654-3.735 5.922-1.976 1.13-4.938 1.554-7.972 1.554h-10.438v-1.129c3.244-.211 3.598-.563 3.598-4.796V33.567c0-4.231-.354-4.584-3.315-4.796v-1.128l11.495-.001zm-3.595 11.145h1.691c3.598 0 5.854-1.552 5.854-4.867 0-3.596-2.75-4.795-5.289-4.795-1.059 0-1.691.069-1.903.211-.353.141-.353.846-.353 1.763v7.688zm0 1.409v6.981c0 3.669.494 4.443 3.174 4.373 2.75 0 5.57-1.48 5.57-5.5 0-4.021-3.103-5.854-7.334-5.854h-1.41z"/><path clip-path="url(#cD)" fill="#FFCD41" d="M83.4 62.483c-8.322-7.405-30.468-3.032-38.861.423-11.638 4.444-22.499 10.72-30.328 5.713-.07-.07-.141-.07-.141-.07 0 .07 0 .143.07.213 8.675 7.335 30.327 3.312 38.65-.213 11.708-4.442 22.781-10.86 30.54-5.782.069 0 .141 0 .141-.07-.001-.071 0-.142-.071-.214"/><path clip-path="url(#cD)" fill="none" stroke="#FFCD41" stroke-width=".183" d="M83.4 62.483c-8.322-7.405-30.468-3.032-38.861.423-11.638 4.444-22.499 10.72-30.328 5.713-.07-.07-.141-.07-.141-.07 0 .07 0 .143.07.213 8.675 7.335 30.327 3.312 38.65-.213 11.708-4.442 22.781-10.86 30.54-5.782.069 0 .141 0 .141-.07-.001-.071 0-.142-.071-.214z"/><path clip-path="url(#cD)" fill="#FFCD41" d="M125.859 62.483c-8.252-7.405-30.398-3.032-38.791.423-11.637 4.373-22.5 10.65-30.328 5.643-.071-.069-.141-.069-.212-.069 0 .069 0 .142.071.212 8.675 7.335 30.256 3.312 38.579-.212 11.708-4.442 22.78-10.86 30.538-5.783.07 0 .143 0 .143-.069.071-.003.071-.073 0-.145"/><path clip-path="url(#cD)" fill="none" stroke="#FFCD41" stroke-width=".183" d="M125.859 62.483c-8.252-7.405-30.398-3.032-38.791.423-11.637 4.373-22.5 10.65-30.328 5.643-.071-.069-.141-.069-.212-.069 0 .069 0 .142.071.212 8.675 7.335 30.256 3.312 38.579-.212 11.708-4.442 22.78-10.86 30.538-5.783.07 0 .143 0 .143-.069.071-.003.071-.073 0-.145z"/></g></svg>