<svg xmlns="http://www.w3.org/2000/svg" width="189.44" height="32.396" viewBox="120.31 56.451 189.44 32.396"><path fill="#005295" stroke="#005295" stroke-width=".75" d="M223.375 83.275s-3.5-.15-5.75-.2c-2.2-.05-5.7 0-5.7 0-.7 0-1.55.05-2.85.2l-.5.05.05-.5c.15 0 .2 0 .4-.05 1.8-.2 2.35-.7 2.35-2.15v-17.7c0-1.45-.6-1.95-2.35-2.149-.2-.051-.25-.051-.4-.051l-.05-.449.5.05c1.3.1 2.149.2 2.85.2h11.399l.701 3.949h-.5c-.65-2.5-.9-2.649-3.15-2.649l-6.5-.05v8.3h8.25v1.149h-8.25v8.551c0 2 .1 2.1 1.85 2.1h3.9c2.699 0 3.25-.6 4.699-2.949l.601-.051c-1.25 2.249-1.15 2.999-1.55 4.399"/><path fill="#005295" stroke="#005295" stroke-width=".75" d="M223.375 83.275s-3.5-.15-5.75-.2c-2.2-.05-5.7 0-5.7 0-.7 0-1.55.05-2.85.2l-.5.05.05-.5c.15 0 .2 0 .4-.05 1.8-.2 2.35-.7 2.35-2.15v-17.7c0-1.45-.6-1.95-2.35-2.149-.2-.051-.25-.051-.4-.051l-.05-.449.5.05c1.3.1 2.149.2 2.85.2h11.399l.701 3.949h-.5c-.65-2.5-.9-2.649-3.15-2.649l-6.5-.05v8.3h8.25v1.149h-8.25v8.551c0 2 .1 2.1 1.85 2.1h3.9c2.699 0 3.25-.6 4.699-2.949l.601-.051c-1.25 2.249-1.15 2.999-1.55 4.399zm16.9-16.45c0 2.649-1.801 4.6-4.051 5.55h-5.301v-9.45c0-1.7.45-1.8 2.75-1.8 4.401 0 6.602 2.75 6.602 5.7m21.85 19.55c-1.7.75-4.801 1.4-7.45.45-7.45-2.649-14.55-12.2-17.45-14.101 3.15-1.149 5.4-3.55 5.4-6.75 0-3.15-2.95-5.701-8-5.701-1.85 0-4.801.201-5.7.201-.95 0-1.55-.051-2.851-.201l-.5-.049.051.449c.15 0 .199 0 .4.051 1.799.199 2.35.699 2.35 2.149v17.7c0 1.449-.6 1.949-2.35 2.148-.201.051-.25.051-.4.051l-.051.5.5-.051c1.301-.1 2.15-.199 2.851-.199h1.399c.701 0 1.551.051 2.851.199l.5.051-.05-.5c-.15 0-.2 0-.4-.051-1.8-.199-2.35-.699-2.35-2.148v-7.352h3.199c4.101 1.75 12.701 15.25 22.301 15.25 2.85.004 5.5-1.446 5.75-2.096"/><path fill="#005295" stroke="#005295" stroke-width=".75" d="M240.275 66.825c0 2.649-1.801 4.6-4.051 5.55h-5.301v-9.45c0-1.7.45-1.8 2.75-1.8 4.401 0 6.602 2.75 6.602 5.7zm21.85 19.55c-1.7.75-4.801 1.4-7.45.45-7.45-2.649-14.55-12.2-17.45-14.101 3.15-1.149 5.4-3.55 5.4-6.75 0-3.15-2.95-5.701-8-5.701-1.85 0-4.801.201-5.7.201-.95 0-1.55-.051-2.851-.201l-.5-.049.051.449c.15 0 .199 0 .4.051 1.799.199 2.35.699 2.35 2.149v17.7c0 1.449-.6 1.949-2.35 2.148-.201.051-.25.051-.4.051l-.051.5.5-.051c1.301-.1 2.15-.199 2.851-.199h1.399c.701 0 1.551.051 2.851.199l.5.051-.05-.5c-.15 0-.2 0-.4-.051-1.8-.199-2.35-.699-2.35-2.148v-7.352h3.199c4.101 1.75 12.701 15.25 22.301 15.25 2.85.004 5.5-1.446 5.75-2.096z"/><path fill="#005295" stroke="#005295" stroke-width=".75" d="M267.175 81.825c-1.399 1-4.95 1.851-7.75 1.851-7.2 0-13.101-4.601-13.101-11.5 0-6.55 5.5-12.25 13.101-12.25 4.649 0 6.149 2.1 7.5 1.301l.25 4.649h-.399c-1.2-4-3.95-5.101-7.801-5.101-5.75 0-9.75 5.301-9.5 11.4.301 6.45 4.95 10.7 10.45 10.7 4.05 0 6.7-1.149 7.2-5.851h.6l-.55 4.801z"/><path fill="#005295" stroke="#005295" stroke-width=".75" d="M267.175 81.825c-1.399 1-4.95 1.851-7.75 1.851-7.2 0-13.101-4.601-13.101-11.5 0-6.55 5.5-12.25 13.101-12.25 4.649 0 6.149 2.1 7.5 1.301l.25 4.649h-.399c-1.2-4-3.95-5.101-7.801-5.101-5.75 0-9.75 5.301-9.5 11.4.301 6.45 4.95 10.7 10.45 10.7 4.05 0 6.7-1.149 7.2-5.851h.6l-.55 4.801zm16.05 1.45s-3.5-.15-5.699-.2c-2.2-.05-5.7 0-5.7 0-.699 0-1.55.05-2.851.2l-.5.05.051-.5c.149 0 .199 0 .399-.05 1.8-.2 2.351-.7 2.351-2.15v-17.7c0-1.45-.601-1.95-2.351-2.149-.2-.051-.25-.051-.399-.051l-.051-.449.5.05c1.25.1 2.15.2 2.851.2h11.399l.7 3.949h-.5c-.649-2.5-.899-2.649-3.149-2.649l-6.5-.05v8.3h8.25v1.149h-8.25v8.551c0 2 .101 2.1 1.851 2.1h3.899c2.699 0 3.25-.6 4.699-2.949l.601-.051c-1.301 2.249-1.252 2.999-1.601 4.399"/><path fill="#005295" stroke="#005295" stroke-width=".75" d="M283.225 83.275s-3.5-.15-5.699-.2c-2.2-.05-5.7 0-5.7 0-.699 0-1.55.05-2.851.2l-.5.05.051-.5c.149 0 .199 0 .399-.05 1.8-.2 2.351-.7 2.351-2.15v-17.7c0-1.45-.601-1.95-2.351-2.149-.2-.051-.25-.051-.399-.051l-.051-.449.5.05c1.25.1 2.15.2 2.851.2h11.399l.7 3.949h-.5c-.649-2.5-.899-2.649-3.149-2.649l-6.5-.05v8.3h8.25v1.149h-8.25v8.551c0 2 .101 2.1 1.851 2.1h3.899c2.699 0 3.25-.6 4.699-2.949l.601-.051c-1.301 2.249-1.252 2.999-1.601 4.399zm23.25-11.85c0 5.8-4.25 10.851-10.199 10.851-4.601 0-5.5-.75-5.5-3.25V61.425s4.649-.149 5.5-.149c5.599-.001 10.199 4.049 10.199 10.149m2.9-.1c0-6.65-5.85-11.05-13.1-11.05-1.551 0-7.451.199-7.451.199-.699 0-1.549-.05-2.85-.199l-.5-.051.051.45c.148 0 .199 0 .398.05 1.801.2 2.352.7 2.352 2.15v17.7c0 1.45-.602 1.95-2.352 2.149-.199.051-.25.051-.398.051l-.051.5.5-.051c1.301-.101 2.149-.199 2.85-.199 0 0 5.551.05 7.451.05 7.6.102 13.1-5.449 13.1-11.749"/><path fill="#005295" stroke="#005295" stroke-width=".75" d="M306.475 71.425c0 5.8-4.25 10.851-10.199 10.851-4.601 0-5.5-.75-5.5-3.25V61.425s4.649-.149 5.5-.149c5.599-.001 10.199 4.049 10.199 10.149zm2.9-.1c0-6.65-5.85-11.05-13.1-11.05-1.551 0-7.451.199-7.451.199-.699 0-1.549-.05-2.85-.199l-.5-.051.051.45c.148 0 .199 0 .398.05 1.801.2 2.352.7 2.352 2.15v17.7c0 1.45-.602 1.95-2.352 2.149-.199.051-.25.051-.398.051l-.051.5.5-.051c1.301-.101 2.149-.199 2.85-.199 0 0 5.551.05 7.451.05 7.6.102 13.1-5.449 13.1-11.749zm-102.8 12.101c-1.45-.101-2.45-.201-3.2-.201h-1.55c-.8 0-1.75.102-3.2.201l-.6.049.05-.549c.149 0 .25 0 .45-.051 2-.199 2.699-.8 2.699-2.449v-20c0-1.65-.648-2.25-2.699-2.449-.2-.051-.301-.051-.45-.051l-.05-.55.6.05c1.45.1 2.45.2 3.2.2h1.55c.8 0 1.75-.101 3.2-.2l.6-.05-.05.55c-.15 0-.25 0-.45.051-2 .199-2.7.799-2.7 2.449v20.049c0 1.65.65 2.25 2.7 2.451.2.049.3.049.45.049l.05.551-.6-.1z"/><path fill="#005295" stroke="#005295" stroke-width=".75" d="M206.575 83.426c-1.45-.101-2.45-.201-3.2-.201h-1.55c-.8 0-1.75.102-3.2.201l-.6.049.05-.549c.149 0 .25 0 .45-.051 2-.199 2.699-.8 2.699-2.449v-20c0-1.65-.648-2.25-2.699-2.449-.2-.051-.301-.051-.45-.051l-.05-.55.6.05c1.45.1 2.45.2 3.2.2h1.55c.8 0 1.75-.101 3.2-.2l.6-.05-.05.55c-.15 0-.25 0-.45.051-2 .199-2.7.799-2.7 2.449v20.049c0 1.65.65 2.25 2.7 2.451.2.049.3.049.45.049l.05.551-.6-.1zm-24.6 0c-1.449-.101-2.449-.201-3.199-.201h-1.551c-.8 0-1.75.102-3.199.201l-.601.049.05-.549c.15 0 .25 0 .45-.051 2-.199 2.7-.8 2.7-2.449v-20c0-1.65-.65-2.25-2.7-2.449-.2-.051-.3-.051-.45-.051l-.05-.55.601.05c1.449.1 2.449.2 3.199.2h1.551c.8 0 1.75-.101 3.199-.2l.602-.05-.051.55c-.149 0-.25 0-.449.051-2 .199-2.7.799-2.7 2.449v20.049c0 1.65.649 2.25 2.7 2.451.199.049.3.049.449.049l.051.551-.602-.1z"/><path fill="#005295" stroke="#005295" stroke-width=".75" d="M181.975 83.426c-1.449-.101-2.449-.201-3.199-.201h-1.551c-.8 0-1.75.102-3.199.201l-.601.049.05-.549c.15 0 .25 0 .45-.051 2-.199 2.7-.8 2.7-2.449v-20c0-1.65-.65-2.25-2.7-2.449-.2-.051-.3-.051-.45-.051l-.05-.55.601.05c1.449.1 2.449.2 3.199.2h1.551c.8 0 1.75-.101 3.199-.2l.602-.05-.051.55c-.149 0-.25 0-.449.051-2 .199-2.7.799-2.7 2.449v20.049c0 1.65.649 2.25 2.7 2.451.199.049.3.049.449.049l.051.551-.602-.1z"/><path fill="#005295" stroke="#005295" stroke-width=".75" d="M189.575 83.525h1.4l11.05-21.55-.9-3.45-10.85 22.55-10.95-22.55-.4 4.45z"/><path fill="#005295" stroke="#005295" stroke-width=".75" stroke-linecap="square" d="M189.575 83.525h1.4l11.05-21.55-.9-3.45-10.85 22.55-10.95-22.55-.4 4.45z"/><path fill="#005295" stroke="#005295" stroke-width=".75" d="M171.625 81.475c-1.55 1.15-5.6 2.102-8.7 2.102-8.1 0-14.75-5.149-14.75-12.95 0-7.399 6.2-13.8 14.75-13.8 5.25 0 6.95 2.35 8.4 1.449l.3 5.25h-.45c-1.35-4.5-4.45-5.75-8.8-5.75-6.5 0-10.95 5.951-10.65 12.801.352 7.25 5.602 12.05 11.75 12.05 4.551 0 7.551-1.3 8.102-6.601h.699l-.651 5.449z"/><path fill="#005295" stroke="#005295" stroke-width=".75" d="M171.625 81.475c-1.55 1.15-5.6 2.102-8.7 2.102-8.1 0-14.75-5.149-14.75-12.95 0-7.399 6.2-13.8 14.75-13.8 5.25 0 6.95 2.35 8.4 1.449l.3 5.25h-.45c-1.35-4.5-4.45-5.75-8.8-5.75-6.5 0-10.95 5.951-10.65 12.801.352 7.25 5.602 12.05 11.75 12.05 4.551 0 7.551-1.3 8.102-6.601h.699l-.651 5.449zm-50.4-23.65c-.199-.05-.3-.05-.449-.05l-.051-.551.551.051c1.449.1 2.399.199 3.199.199h1.551c.8 0 1.75-.1 3.199-.199l.551-.051-.051.551c-.148 0-.25 0-.449.05-2 .2-2.65.8-2.65 2.399v13.451c0 5.85 4.45 8.1 7.95 8.1 3 0 6.05-2.25 7.649-4.949v-16.6c0-1.65-.649-2.201-2.649-2.4-.2-.051-.3-.051-.45-.051l-.05-.549.55.049c1.45.101 2.4.201 3.2.201h1.55c.8 0 1.75-.101 3.2-.201l.55-.049-.05.549c-.15 0-.25 0-.45.051-2 .199-2.65.8-2.65 2.4v19.95c0 1.649.65 2.199 2.65 2.399.2.05.3.05.45.05l.05.551-.55-.051c-1.45-.101-2.4-.199-3.2-.199h-2.2v-3.899c-1.95 2.75-5.2 4.55-8.399 4.55-4.9 0-9.95-2.649-9.95-9.899V60.225c.048-1.6-.602-2.2-2.602-2.4"/><path fill="#005295" stroke="#005295" stroke-width=".75" d="M121.225 57.825c-.199-.05-.3-.05-.449-.05l-.051-.551.551.051c1.449.1 2.399.199 3.199.199h1.551c.8 0 1.75-.1 3.199-.199l.551-.051-.051.551c-.148 0-.25 0-.449.05-2 .2-2.65.8-2.65 2.399v13.451c0 5.85 4.45 8.1 7.95 8.1 3 0 6.05-2.25 7.649-4.949v-16.6c0-1.65-.649-2.201-2.649-2.4-.2-.051-.3-.051-.45-.051l-.05-.549.55.049c1.45.101 2.4.201 3.2.201h1.55c.8 0 1.75-.101 3.2-.201l.55-.049-.05.549c-.15 0-.25 0-.45.051-2 .199-2.65.8-2.65 2.4v19.95c0 1.649.65 2.199 2.65 2.399.2.05.3.05.45.05l.05.551-.55-.051c-1.45-.101-2.4-.199-3.2-.199h-2.2v-3.899c-1.95 2.75-5.2 4.55-8.399 4.55-4.9 0-9.95-2.649-9.95-9.899V60.225c.048-1.6-.602-2.2-2.602-2.4z"/><path fill="#005295" stroke="#005295" stroke-width=".75" d="M145.225 82.725l-2.05.15c-.8.051-1.899.1-3.3.25l-.55.051v-.551c.149 0 .25 0 .45-.05 2-.3 2.55-.899 2.5-2.55"/><path fill="#005295" stroke="#005295" stroke-width=".75" d="M145.225 82.725l-2.05.15c-.8.051-1.899.1-3.3.25l-.55.051v-.551c.149 0 .25 0 .45-.05 2-.3 2.55-.899 2.5-2.55"/></svg>