<?xml version="1.0" encoding="utf-8"?>
<!-- Generator: Adobe Illustrator 16.0.0, SVG Export Plug-In . SVG Version: 6.00 Build 0)  -->
<!DOCTYPE svg PUBLIC "-//W3C//DTD SVG 1.1//EN" "http://www.w3.org/Graphics/SVG/1.1/DTD/svg11.dtd">
<svg version="1.1" id="Layer_1" xmlns="http://www.w3.org/2000/svg" xmlns:xlink="http://www.w3.org/1999/xlink" x="0px" y="0px"
	 width="139.8px" height="90.899px" viewBox="161.3 106.4 139.8 90.899" enable-background="new 161.3 106.4 139.8 90.899"
	 xml:space="preserve">
<g>
	<g>
		<g>
			<path fill="#052049" d="M162,172.9h0.9v6c0,2.199,1,3.1,2.8,3.1s2.8-0.9,2.8-3.1v-6h0.9v6.1c0,2-1.101,3.7-3.7,3.7
				c-2.601,0-3.7-1.7-3.7-3.7V172.9z"/>
			<path fill="#052049" d="M171.6,175.6h0.9v1.2l0,0c0.3-0.8,1.2-1.399,2.2-1.399c2,0,2.6,1,2.6,2.699v4.5H176.4v-4.3
				c0-1.2-0.4-2.1-1.801-2.1c-1.399,0-2.1,1-2.199,2.399v4.101h-0.9L171.6,175.6L171.6,175.6z"/>
			<path fill="#052049" d="M179.5,172.9h0.9v1.399h-0.9V172.9z M179.5,175.6h0.9v7h-0.9V175.6z"/>
			<path fill="#052049" d="M181.9,175.6h0.899l2.2,6.101l0,0l2.1-6.101h0.9l-2.6,7h-0.9L181.9,175.6z"/>
			<path fill="#052049" d="M189.8,179.3c0,1.2,0.7,2.7,2.3,2.7c1.2,0,1.9-0.7,2.2-1.8h0.9c-0.4,1.6-1.3,2.5-3,2.5
				c-2.2,0-3.101-1.7-3.101-3.7c0-1.8,0.9-3.7,3.101-3.7s3.1,2,3.1,3.9h-5.5V179.3z M194.3,178.6c0-1.3-0.8-2.5-2.2-2.5
				c-1.399,0-2.1,1.2-2.3,2.5H194.3z"/>
			<path fill="#052049" d="M197,175.6h0.8v1.601l0,0c0.4-1.101,1.4-1.8,2.601-1.7v0.9c-1.5-0.101-2.601,1-2.601,2.5v3.699H197V175.6
				z"/>
			<path fill="#052049" d="M205.8,177.6c0-1-0.899-1.5-1.8-1.5c-0.8,0-1.6,0.301-1.6,1.2c0,0.8,0.899,1,1.399,1.2l1.101,0.3
				c1,0.2,2,0.7,2,1.9c0,1.5-1.5,2.1-2.801,2.1c-1.6,0-2.699-0.8-2.899-2.5h0.899c0.101,1.101,0.9,1.7,2,1.7
				c0.801,0,1.9-0.3,1.9-1.3c0-0.8-0.8-1.101-1.5-1.3l-1.1-0.301c-1.101-0.3-2-0.699-2-1.899c0-1.4,1.399-2,2.6-2
				c1.4,0,2.5,0.7,2.6,2.2L205.8,177.6L205.8,177.6z"/>
			<path fill="#052049" d="M208.8,172.9h0.9v1.399h-0.9V172.9z M208.8,175.6h0.9v7h-0.9V175.6z"/>
			<path fill="#052049" d="M213.3,175.6h1.4v0.7h-1.4v4.7c0,0.6,0.101,0.9,0.7,0.9c0.3,0,0.5,0,0.7,0v0.699c-0.3,0-0.5,0-0.8,0
				c-1.101,0-1.5-0.399-1.5-1.6v-4.8h-1.2v-0.7h1.2v-2.1h0.899V175.6z"/>
			<path fill="#052049" d="M215.8,175.6h0.9l2.3,5.9l2.1-5.9h0.9l-3,8c-0.5,1.2-0.8,1.5-1.8,1.5c-0.3,0-0.5,0-0.7-0.1v-0.7
				c0.2,0,0.4,0.101,0.6,0.101c0.801,0,0.9-0.4,1.2-1.101l0.3-0.8L215.8,175.6z"/>
			<path fill="#052049" d="M233.3,179c0,2-1.2,3.7-3.3,3.7s-3.3-1.7-3.3-3.7s1.2-3.7,3.3-3.7S233.3,177.1,233.3,179z M227.6,179
				c0,1.5,0.801,3,2.4,3s2.4-1.5,2.4-3s-0.801-3-2.4-3C228.4,176.1,227.6,177.6,227.6,179z"/>
			<path fill="#052049" d="M237.8,176.3H236.4v6.2h-0.9v-6.2h-1.2v-0.7h1.2V175c0-1.2,0.3-2,1.7-2c0.3,0,0.399,0,0.7,0.1v0.7
				c-0.2,0-0.4-0.1-0.601-0.1c-0.899,0-0.899,0.6-0.899,1.399v0.601h1.399V176.3L237.8,176.3z"/>
			<path fill="#052049" d="M250.9,175.8c-0.301-1.5-1.5-2.3-3-2.3c-2.601,0-3.601,2.1-3.601,4.2c0,2.1,1.101,4.2,3.601,4.2
				c1.8,0,2.899-1.4,3.1-3.101h0.9c-0.301,2.4-1.801,3.9-4,3.9c-3,0-4.5-2.4-4.5-5c0-2.601,1.5-5,4.5-5c1.8,0,3.6,1.1,3.899,3.1
				H250.9z"/>
			<path fill="#052049" d="M253.4,177.7c0.1-1.601,1.199-2.3,2.8-2.3c1.2,0,2.6,0.399,2.6,2.199v3.7c0,0.3,0.2,0.5,0.5,0.5
				c0.101,0,0.2,0,0.3-0.1v0.7c-0.199,0-0.3,0.1-0.6,0.1c-0.8,0-1-0.5-1-1.2l0,0c-0.6,0.9-1.2,1.4-2.5,1.4s-2.3-0.601-2.3-2
				c0-2,1.899-2,3.7-2.2c0.699-0.1,1.1-0.2,1.1-0.9c0-1.1-0.8-1.399-1.8-1.399s-1.8,0.5-1.9,1.6H253.4V177.7z M257.9,178.7
				L257.9,178.7c-0.101,0.2-0.5,0.3-0.801,0.3c-1.399,0.3-3.199,0.3-3.199,1.6c0,0.9,0.8,1.4,1.5,1.4c1.3,0,2.399-0.8,2.399-2.2
				L257.9,178.7L257.9,178.7z"/>
			<path fill="#052049" d="M261.2,172.9h0.8v9.6h-0.8V172.9z"/>
			<path fill="#052049" d="M264.5,172.9h0.9v1.399h-0.9V172.9z M264.5,175.6h0.9v7h-0.9V175.6z"/>
			<path fill="#052049" d="M270.3,176.3H268.9v6.2H268.1v-6.2H266.9v-0.7h1.199V175c0-1.2,0.301-2,1.7-2c0.3,0,0.4,0,0.7,0.1v0.7
				c-0.2,0-0.4-0.1-0.6-0.1c-0.9,0-0.9,0.6-0.9,1.399v0.601h1.4v0.6H270.3z"/>
			<path fill="#052049" d="M277.8,179c0,2-1.2,3.7-3.3,3.7s-3.3-1.7-3.3-3.7s1.2-3.7,3.3-3.7C276.6,175.4,277.8,177.1,277.8,179z
				 M272,179c0,1.5,0.8,3,2.4,3c1.6,0,2.399-1.5,2.399-3s-0.8-3-2.399-3C272.8,176.1,272,177.6,272,179z"/>
			<path fill="#052049" d="M279.1,175.6h0.801v1.601l0,0c0.399-1.101,1.399-1.8,2.6-1.7v0.9c-1.5-0.101-2.6,1-2.6,2.5v3.699H279.1
				V175.6L279.1,175.6z"/>
			<path fill="#052049" d="M284.1,175.6h0.801v1.2l0,0c0.3-0.8,1.199-1.399,2.199-1.399c2,0,2.601,1,2.601,2.699v4.5h-0.9v-4.3
				c0-1.2-0.399-2.1-1.8-2.1s-2.1,1-2.2,2.399v4.101H283.9L284.1,175.6L284.1,175.6z"/>
			<path fill="#052049" d="M292,172.9h0.9v1.399H292V172.9z M292,175.6h0.9v7H292V175.6z"/>
			<path fill="#052049" d="M295,177.7c0.1-1.601,1.2-2.3,2.8-2.3c1.2,0,2.5,0.399,2.5,2.199v3.7c0,0.3,0.2,0.5,0.5,0.5
				c0.101,0,0.2,0,0.3-0.1v0.7c-0.199,0-0.3,0.1-0.6,0.1c-0.9,0-1-0.5-1-1.2l0,0c-0.6,0.9-1.2,1.4-2.5,1.4s-2.3-0.601-2.3-2
				c0-2,1.899-2,3.7-2.2c0.699-0.1,1.1-0.2,1.1-0.9c0-1.1-0.8-1.399-1.8-1.399s-1.8,0.5-1.9,1.6H295V177.7z M299.5,178.7
				L299.5,178.7c-0.1,0.2-0.5,0.3-0.8,0.3c-1.5,0.3-3.2,0.3-3.2,1.6c0,0.9,0.8,1.4,1.5,1.4c1.3,0,2.4-0.8,2.4-2.2L299.5,178.7
				L299.5,178.7z"/>
			<path fill="#052049" d="M162.5,193.9c0,2,1.4,2.6,3.1,2.6c1,0,2.601-0.6,2.601-2c0-1.1-1.101-1.5-2-1.7l-2.101-0.5
				c-1.1-0.3-2.199-0.8-2.199-2.3c0-0.9,0.6-2.7,3.3-2.7c1.899,0,3.6,1,3.6,3H167.9c-0.101-1.5-1.301-2.2-2.601-2.2
				s-2.399,0.5-2.399,1.9c0,0.9,0.699,1.3,1.399,1.5l2.3,0.6c1.4,0.4,2.5,0.9,2.5,2.5c0,0.7-0.3,2.7-3.699,2.7
				c-2.301,0-3.9-1-3.801-3.399H162.5L162.5,193.9z"/>
			<path fill="#052049" d="M170.7,192.3c0.1-1.6,1.2-2.3,2.8-2.3c1.2,0,2.6,0.4,2.6,2.2v3.7c0,0.3,0.2,0.5,0.5,0.5
				c0.101,0,0.2,0,0.301-0.101v0.7c-0.2,0-0.301,0.1-0.601,0.1c-0.899,0-1-0.5-1-1.199l0,0c-0.6,0.899-1.2,1.399-2.5,1.399
				s-2.3-0.6-2.3-2c0-2,1.9-2,3.7-2.2c0.7-0.1,1.1-0.199,1.1-0.899c0-1.101-0.8-1.4-1.8-1.4s-1.8,0.5-1.9,1.601H170.7V192.3z
				 M175.2,193.3L175.2,193.3c-0.101,0.2-0.5,0.3-0.8,0.3c-1.4,0.301-3.2,0.301-3.2,1.601c0,0.899,0.8,1.399,1.5,1.399
				c1.3,0,2.399-0.8,2.399-2.199L175.2,193.3L175.2,193.3z"/>
			<path fill="#052049" d="M178.4,190.1h0.899v1.2l0,0c0.3-0.8,1.2-1.399,2.2-1.399c2,0,2.6,1,2.6,2.699v4.5h-0.8v-4.3
				c0-1.2-0.399-2.1-1.8-2.1s-2.1,1-2.2,2.399v4.101H178.4V190.1L178.4,190.1z"/>
			<path fill="#052049" d="M190.7,187.5h6.1v0.8h-5.2v3.5h4.601v0.8H191.6v4.601H190.7V187.5z"/>
			<path fill="#052049" d="M198.1,190.1h0.801v1.601l0,0c0.399-1.101,1.399-1.8,2.6-1.7v0.8c-1.5-0.1-2.6,1-2.6,2.5v3.7H198v-6.9
				H198.1z"/>
			<path fill="#052049" d="M202.5,192.3c0.1-1.6,1.2-2.3,2.8-2.3c1.2,0,2.601,0.4,2.601,2.2v3.7c0,0.3,0.199,0.5,0.5,0.5
				c0.1,0,0.199,0,0.3-0.101v0.7c-0.2,0-0.3,0.1-0.601,0.1c-0.899,0-1-0.5-1-1.199l0,0c-0.6,0.899-1.199,1.399-2.5,1.399
				c-1.3,0-2.3-0.6-2.3-2c0-2,1.9-2,3.7-2.2c0.7-0.1,1.1-0.199,1.1-0.899c0-1.101-0.8-1.4-1.8-1.4s-1.8,0.5-1.899,1.601h-0.9V192.3z
				 M207,193.3L207,193.3c-0.1,0.2-0.5,0.3-0.8,0.3c-1.4,0.301-3.2,0.301-3.2,1.601c0,0.899,0.8,1.399,1.5,1.399
				c1.3,0,2.4-0.8,2.4-2.199L207,193.3L207,193.3z"/>
			<path fill="#052049" d="M210.2,190.1h0.899v1.2l0,0c0.301-0.8,1.2-1.399,2.2-1.399c2,0,2.601,1,2.601,2.699v4.5H215v-4.3
				c0-1.2-0.4-2.1-1.8-2.1c-1.4,0-2.101,1-2.2,2.399v4.101h-0.9V190.1H210.2z"/>
			<path fill="#052049" d="M222.8,192.3c-0.2-1-0.899-1.7-2-1.7c-1.6,0-2.399,1.5-2.399,3s0.8,3,2.399,3c1,0,1.9-0.8,2-2h0.9
				c-0.2,1.7-1.3,2.7-2.9,2.7c-2.1,0-3.3-1.7-3.3-3.7s1.2-3.699,3.3-3.699c1.5,0,2.601,0.8,2.8,2.399H222.8L222.8,192.3z"/>
			<path fill="#052049" d="M225.5,187.5h0.9v1.4h-0.9V187.5z M225.5,190.1h0.9v7h-0.9V190.1z"/>
			<path fill="#052049" d="M232.6,192.2c0-1-0.899-1.5-1.8-1.5c-0.8,0-1.6,0.3-1.6,1.2c0,0.8,0.899,1,1.399,1.199l1.101,0.2
				c1,0.2,2,0.7,2,1.9c0,1.5-1.5,2.1-2.8,2.1c-1.601,0-2.7-0.8-2.9-2.5h0.9c0.1,1.101,0.899,1.7,2,1.7c0.8,0,1.899-0.3,1.899-1.3
				c0-0.8-0.8-1.101-1.5-1.3l-1.1-0.301c-1.101-0.3-2-0.699-2-1.899c0-1.4,1.399-2,2.6-2c1.4,0,2.5,0.7,2.601,2.2L232.6,192.2
				L232.6,192.2z"/>
			<path fill="#052049" d="M240.3,192.3c-0.2-1-0.899-1.7-2-1.7c-1.6,0-2.399,1.5-2.399,3s0.8,3,2.399,3c1,0,1.9-0.8,2-2h0.9
				c-0.2,1.7-1.3,2.7-2.9,2.7c-2.1,0-3.3-1.7-3.3-3.7s1.2-3.699,3.3-3.699c1.5,0,2.601,0.8,2.8,2.399H240.3L240.3,192.3z"/>
			<path fill="#052049" d="M249.2,193.6c0,2-1.2,3.7-3.3,3.7c-2.101,0-3.301-1.7-3.301-3.7s1.2-3.699,3.301-3.699
				C248,189.9,249.2,191.6,249.2,193.6z M243.4,193.6c0,1.5,0.8,3,2.399,3c1.601,0,2.4-1.5,2.4-3s-0.8-3-2.4-3
				C244.2,190.6,243.4,192.1,243.4,193.6z"/>
		</g>
	</g>
	<path fill="#052049" d="M274.5,129.9V123.1h-26v25.2c-0.1-3-1.2-5.2-3.2-6.8c-1.399-1.1-3.5-2-6.399-2.7l-6.5-1.5
		c-2.5-0.6-4.101-1.1-4.9-1.5c-0.7-0.399-1.2-0.899-1.5-1.5l0,0l0,0l0,0c-0.2-0.399-0.3-0.899-0.3-1.399
		c0-1.101,0.399-2.101,1.2-2.801l0,0c0,0,0,0,0.1-0.1l0,0l0,0c0.2-0.2,0.4-0.3,0.6-0.4c1.2-0.8,2.801-1.199,4.9-1.199
		c1.8,0,3.3,0.3,4.6,0.899c1.801,0.9,2.801,2.5,3,4.7h7.4c-0.1-3.9-1.6-6.9-4.3-8.9c-2.8-2-6.101-3.1-10-3.1
		c-4.7,0-8.3,1.1-10.7,3.3c-1.5,1.3-2.5,2.9-3.1,4.7l0,0c-0.101,0.4-0.2,0.8-0.301,1.2l0,0c-0.899,4.3-3.6,7.1-8.199,7.1
		c-7.301,0-10-6.2-10-12.399c0-6.5,2.699-12.7,10-12.7c4,0,7.6,2.8,8.1,6.5h7.9c-1-8.5-7.801-13.3-15.9-13.3
		c-10.9,0-17.5,7.8-18.1,18V107.3h-8.2v23c0,5.5-1.9,8-7.7,8c-6.6,0-7.6-4-7.6-8v-23H161.3v23c0,10,5.8,14.9,15.8,14.9
		c9.9,0,15.801-4.9,15.801-14.9V127.4c0.6,10,7.199,17.699,18.1,17.699c4.5,0,8.3-1.399,11.1-4c0.2,0.101,0.301,0.301,0.5,0.4
		c1.4,1,4.2,2,8.101,2.8l4,0.9c2.3,0.5,4,1.1,5.1,1.7c1.101,0.699,1.601,1.6,1.601,2.8c0,2.1-1.101,3.5-3.301,4.3
		c-1.199,0.4-2.6,0.6-4.5,0.6c-3.1,0-5.3-0.8-6.6-2.3c-0.7-0.8-1.2-2.1-1.4-3.7h-7.3c0,3.801,1.4,6.801,4.2,9
		c2.8,2.2,6.6,3.301,11.4,3.301c4.699,0,8.399-1.101,11-3.301c2.399-2,3.699-4.6,3.899-7.6v10.3h8.101V145h15.5v-6.3h-15.5v-8.5
		h17.6V129.9z"/>
</g>
</svg>
