<?xml version="1.0" encoding="utf-8"?>
<!-- Generator: Adobe Illustrator 16.0.0, SVG Export Plug-In . SVG Version: 6.00 Build 0)  -->
<!DOCTYPE svg PUBLIC "-//W3C//DTD SVG 1.1//EN" "http://www.w3.org/Graphics/SVG/1.1/DTD/svg11.dtd">
<svg version="1.1" id="Layer_1" xmlns="http://www.w3.org/2000/svg" xmlns:xlink="http://www.w3.org/1999/xlink" x="0px" y="0px"
	 width="146.8px" height="27.4px" viewBox="4.4 2.7 146.8 27.4" enable-background="new 4.4 2.7 146.8 27.4" xml:space="preserve">
<g>
	<path fill="#00245D" d="M22,16.8c0,4.3-0.6,7.6-7.2,7.6c-6.6,0-7.6-3.199-7.6-7.6V6.3c0-2.4-1-2.6-2.8-2.6V3h8.3v0.6
		c-1.7,0-2.8,0.2-2.8,2.6v10.5c0,3.2,0.8,6.4,4.9,6.4c4.6,0,5.3-2.601,5.3-6.4V6.3c0-2.4-1-2.6-2.8-2.6V3h7.3v0.6
		C23,3.7,22,3.9,22,6.3V16.8z"/>
	<path fill="#00245D" d="M39.5,23.6c-1.6,0.601-3.3,0.899-5.7,0.899c-6.3,0-9.4-4.799-9.4-11.6c0-5.9,1.9-10.2,8.7-10.2
		c2.5,0,4.7,0.5,6.1,0.9l0.3,5h-0.8C38.3,6.8,37,4,33.1,4c-5.1,0-5.5,5.4-5.5,8.7c0,4.1,0.9,10.4,7.8,10.4c2.1,0,3.3-0.5,4.1-0.8
		V23.6z"/>
	<path fill="#00245D" d="M56.5,7.6C56.2,5.9,55,4,51.6,4c-2.1,0-4,1.4-4,3.4c0,2.8,3.8,3.7,6.5,5.3c2.5,1.5,4.2,2.8,4.2,5.799
		c0,4-3.5,5.9-7.8,5.9c-2.2,0-4.7-0.5-5.4-0.6l-0.2-4.5h0.8c0.3,1.699,1.7,3.6,5.1,3.6c2.8,0,4.6-1.8,4.6-4c0-3.4-5.3-4.5-8.2-6.7
		c-1.4-1.1-2.1-2.2-2.1-4.2c0-3.8,3.1-5.3,7.1-5.3c2.1,0,3.5,0.3,4.9,0.5l0.2,4.3h-0.8V7.6z"/>
	<path fill="#00245D" d="M71.2,24.1c-0.3,0.101-1,0.3-2.1,0.3c-1.6,0-2.1-0.8-2.1-2.1l0,0c-0.9,1.3-2.1,2.1-4,2.1
		s-3.4-1.4-3.4-3.199c0-4.101,5.3-4.101,7.4-4.301v-1.1c0-2,0-4.1-2.4-4.1c-1.7,0-2,0.7-2,1.6c0,1.2-0.8,1.5-1.3,1.5
		c-0.8,0-1.4-0.5-1.4-1.3c0-1.8,2.7-2.8,4.7-2.8c3.9,0,4.6,1.9,4.6,4.5v7c0,1,0.3,1.299,1.2,1.299c0.3,0,0.5-0.1,0.8-0.1V24.1z
		 M67,17.9c-1.3,0-4.9,0.301-4.9,2.9c0,1.5,1,2.4,1.9,2.4c1.8,0,3-1.801,3-3.701V17.9z"/>
	<path fill="#00245D" d="M71.8,23.6c1.2,0,2.1-0.3,2.1-2.101v-7.7c0-1.7-1.3-1.8-2.1-1.8v-0.5l4.3-0.7v3.7h0.1
		c0.4-1,1.7-3.7,4.399-3.7c3,0,3.301,1.6,3.301,4.3V21.5c0,1.801,1,2.101,2.1,2.101v0.5h-6.5v-0.5c1.2,0,2.1-0.3,2.1-2.101V15.7
		c0-2.4,0-3.5-1.899-3.5c-1.7,0-3.7,3.2-3.7,5.9v3.5c0,1.8,1,2.101,2.1,2.101v0.5h-6.5V23.6H71.8z"/>
	<path fill="#00245D" d="M89.3,23.5c1.7,0,2.8-0.199,2.8-2.6V6.3c0-2.4-1-2.6-2.8-2.6V3h7.4c5.3,0,10.8,1.1,10.8,10.6
		c0,9.399-5.9,10.5-10.8,10.5h-7.4V23.5z M94.9,20.201c0,2.299,0.3,2.699,1.8,2.699c5.399,0,7.7-2.9,7.7-9.3c0-5.8-1.7-9.3-7.7-9.3
		c-1.601,0-1.8,0.2-1.8,2.7V20.201z"/>
	<path fill="#00245D" d="M108.7,23.6c1.2,0,2.1-0.3,2.1-2.101v-7.7c0-1.7-1.3-1.8-2.1-1.8v-0.5l4.3-0.7v10.7
		c0,1.801,1,2.101,2.1,2.101v0.5h-6.5v-0.5H108.7z M110.2,6.7c0-0.9,0.7-1.6,1.6-1.6c0.9,0,1.601,0.7,1.601,1.6
		c0,0.9-0.7,1.6-1.601,1.6C110.9,8.3,110.2,7.6,110.2,6.7z"/>
	<path fill="#00245D" d="M125.3,23.9c-0.7,0.301-1.6,0.5-3.399,0.5c-4.4,0-6.801-2.4-6.801-7.1c0-4.1,1.7-6.4,5.7-6.4
		c2.5,0,4.8,1.4,4.8,4.7v0.6H117.4c0,2.4,1.199,7.2,5.899,7.2c0.601,0,1.4-0.1,2-0.4V23.9z M123.2,15.3c0-1.5-0.5-3.4-2.7-3.4
		c-2.1,0-3,2.4-3,3.4H123.2z"/>
	<path fill="#00245D" d="M134.9,21.9c1.399,0,4.5,0.1,4.5,3.2c0,3.2-3.2,5-6.9,5c-2.8,0-5.6-1-5.6-3.601c0-1.699,1.3-2.5,2.199-3
		c-0.5-0.299-1.199-0.799-1.199-2c0-1,0.899-2.1,1.199-2.399c-0.6-0.5-1.6-1.399-1.6-3.8c0-3.6,2.6-4.4,5.3-4.4c1.3,0,2,0.2,2.9,0.7
		c0.399-1.1,1.1-3,2.8-3c0.8,0,1.4,0.5,1.4,1.4c0,0.8-0.5,1.3-1.301,1.3c-0.699,0-0.899-0.4-1.3-0.4c-0.6,0-0.899,0.8-1,1.3
		c0.3,0.4,1.3,1.4,1.3,3.4c0,2.8-1.8,4.399-5.199,4.399c-1.101,0-1.9-0.1-2.601-0.399c-0.2,0.2-0.5,0.601-0.5,1.3
		c0,1.1,1.4,1.1,2.3,1.1h3.301V21.9z M130,23.9c-0.6,0.4-1.4,0.9-1.4,2.2c0,1.7,1.5,3.101,3.9,3.101c2.6,0,4.9-1.301,4.9-3.301
		c0-1.4-1.2-1.9-2.601-1.9H130V23.9z M132.4,19C134.8,19,135.1,17.1,135.1,15.6c0-2.1-0.699-3.8-2.8-3.8c-2.2,0-2.6,1.6-2.6,3.3
		C129.7,17.201,130.4,19,132.4,19z"/>
	<path fill="#00245D" d="M139.4,17.6c0-4.2,2.3-6.8,5.899-6.8c3.601,0,5.9,2.5,5.9,6.8c0,4.2-2.3,6.8-5.9,6.8
		C141.7,24.4,139.4,21.9,139.4,17.6z M145.2,23.5c2.8,0,3.399-3.5,3.399-5.799c0-2.301-0.6-5.801-3.399-5.801s-3.4,3.5-3.4,5.801
		C141.9,20,142.4,23.5,145.2,23.5z"/>
</g>
<g id="line_1_">
	<path fill="#D59F0F" d="M126.3,29H4.5v0.701H127C126.7,29.5,126.5,29.201,126.3,29z"/>
	<path fill="#D59F0F" d="M150.9,29h-12c-0.301,0.301-0.5,0.5-0.801,0.701H151V29H150.9z"/>
</g>
</svg>
