<?xml version="1.0" encoding="utf-8"?>
<!-- Generator: Adobe Illustrator 16.0.0, SVG Export Plug-In . SVG Version: 6.00 Build 0)  -->
<!DOCTYPE svg PUBLIC "-//W3C//DTD SVG 1.1//EN" "http://www.w3.org/Graphics/SVG/1.1/DTD/svg11.dtd">
<svg version="1.1" id="Layer_1" xmlns="http://www.w3.org/2000/svg" xmlns:xlink="http://www.w3.org/1999/xlink" x="0px" y="0px"
	 width="185.151px" height="51.05px" viewBox="92.575 25.525 185.151 51.05" enable-background="new 92.575 25.525 185.151 51.05"
	 xml:space="preserve">
<g>
	<path fill="#00467F" d="M153.475,75.975c-4.35,0-4.649-2.3-4.649-4.648v-7.95h2.399v9.149c0,1.199,0.4,2.551,2.25,2.551
		c2-0.051,2.101-1.4,2.101-2.551v-8.351c0-1.25-0.25-2-0.601-3.2c-0.5-1.85-1.1-2.85-2-4.55l-2.399-4.55
		c-0.8-1.5-1.101-2.45-1.399-4.05c-0.351-1.601-0.351-2.601-0.351-4.2v-1.85c0-2.301,0.351-4.601,4.55-4.601
		c4.35,0,4.6,2.351,4.6,4.65v7.1h-2.399v-8.45c0-1.199-0.25-2.5-2.101-2.5c-2,0.051-2.25,1.351-2.25,2.5v2.25c0,0.101,0,0.15,0,0.25
		c0,1.65,0.051,2.65,0.4,4.351c0.35,1.5,0.65,2.399,1.4,3.85l2.3,4.351c0.5,1.051,1.351,2.5,1.851,4.101
		c0.551,1.7,0.85,2.5,0.85,4.5v7.3C158.025,73.675,157.725,75.925,153.475,75.975z"/>
	<path fill="#00467F" d="M172.175,75.725h-2.399v-19.75h-4.301v19.75h-2.399v-34c0-2.35,0.351-4.649,4.649-4.649
		c4.25,0,4.45,2.3,4.45,4.6V75.725z M169.775,54.425v-14c0-1.149-0.101-2.45-2.101-2.5c-1.851,0-2.149,1.3-2.149,2.5v14H169.775z"/>
	<path fill="#00467F" d="M184.175,60.525V37.225h2.399v38.45h-2.399v-7.3l-4.351-20.65v27.95h-2.399v-38.45h2.149L184.175,60.525z"
		/>
	<path fill="#00467F" d="M200.175,38.675h-3.601v37.05h-2.45v-37.05h-3.5v-1.399h9.5v1.399H200.175z"/>
	<path fill="#00467F" d="M213.425,75.725h-2.399v-19.75h-4.301v19.75h-2.449v-34c0-2.35,0.35-4.649,4.649-4.649
		c4.25,0,4.449,2.3,4.449,4.6v34.05H213.425L213.425,75.725z M211.025,54.425v-14c0-1.149-0.101-2.45-2.101-2.5
		c-1.851,0-2.149,1.3-2.149,2.5v14H211.025z"/>
	<path fill="#00467F" d="M235.175,63.375v8.75c0,2.148-1.101,3.898-4.5,3.898s-4.649-1.648-4.649-3.75v-30.5
		c0-2.35,0.35-4.649,4.649-4.649c4.25,0,4.5,2.3,4.5,4.601v7.25h-2.45v-8.5c0-1.15-0.101-2.451-2.05-2.5
		c-1.899,0-2.25,1.299-2.25,2.5v32.649c0,1,0.851,1.899,2.25,1.899c1.399-0.051,2.05-0.851,2.05-1.851v-9.8h2.45V63.375z"/>
	<path fill="#00467F" d="M247.275,75.725v-16.3c0-1.149-0.15-2.3-0.9-2.8c-0.75-0.55-1.3-0.7-2.25-0.7h-1.05v19.8h-2.45V37.325
		h4.051c0,0,0.1,0,0.25,0c0.649,0,2.449,0.1,3.6,0.95c1.201,0.85,1.201,2.05,1.201,3.399c0,0.101,0,0.25,0,0.3v9.95
		c0,0.7-0.102,1.2-0.602,1.851c-0.55,0.699-1.898,1.399-2,1.449c0.102,0.051,1.2,0.65,1.7,1.2c0.851,0.9,0.899,1.8,0.899,2.851
		c0,0.25,0,0.449,0,0.699v15.7h-2.449V75.725z M246.325,38.725c-0.45-0.199-1.101-0.35-1.8-0.35h-1.45v16.5h1.149
		c1.051,0,2.051-0.45,2.5-1c0.399-0.4,0.601-1.65,0.601-2.65v-10.3C247.275,39.825,247.125,39.075,246.325,38.725z"/>
	<path fill="#00467F" d="M257.125,73.125c0,1,0.7,1.85,2.102,1.85c1.35,0,2.049-0.898,2.049-1.898V37.275h2.451v34.951
		c0,2.101-1.102,3.75-4.5,3.75c-3.4,0-4.551-1.75-4.551-3.899v-34.8h2.449V73.125z"/>
	<path fill="#00467F" d="M274.375,38.675h-5.25v-1.45h8.25l-5.699,36.9h6.051v1.6h-9L274.375,38.675z"/>
	<path fill="#00467F" d="M153.775,31.325c0,0.7-0.051,1.399-0.551,2c-0.5,0.6-1.199,0.8-1.949,0.8c-0.7,0-1.45-0.15-1.95-0.7
		c-0.55-0.6-0.55-1.35-0.55-2.1v-4.6h0.899v4.6c0,0.45,0,1.05,0.3,1.399c0.301,0.45,0.9,0.551,1.4,0.551c0.45,0,1-0.15,1.3-0.5
		c0.351-0.4,0.351-0.95,0.351-1.45v-4.6h0.75V31.325z"/>
	<path fill="#00467F" d="M160.875,34.025h-0.9l-3.699-6.351v6.351h-0.75v-7.3h1.149l3.45,5.95v-5.95h0.75V34.025L160.875,34.025z"/>
	<path fill="#00467F" d="M162.625,34.025v-7.3h0.9v7.3H162.625z"/>
	<path fill="#00467F" d="M167.875,34.025h-0.85l-2.45-7.3h0.95l2.05,6l2-6h0.8L167.875,34.025z"/>
	<path fill="#00467F" d="M176.025,34.025h-4.7v-7.3h4.601v0.8h-3.699v2.3h2.949v0.75h-2.949v2.649h3.799V34.025L176.025,34.025z"/>
	<path fill="#00467F" d="M181.525,34.025l-1.351-3.15h-2v3.15h-0.899v-7.3h2.75c0.6,0,1.149,0.05,1.649,0.45c0.5,0.35,0.8,1,0.8,1.6
		c0,0.85-0.5,1.65-1.35,1.85l1.45,3.4H181.525z M179.875,30.125c0.5,0,0.9-0.05,1.25-0.4c0.25-0.25,0.35-0.6,0.35-0.95
		c0-0.4-0.149-0.8-0.5-1c-0.3-0.2-0.649-0.25-1-0.25h-1.8v2.6H179.875z"/>
	<path fill="#00467F" d="M184.225,31.875c0.301,1,1.15,1.5,2.149,1.5c0.45,0,0.95-0.1,1.301-0.35c0.3-0.2,0.449-0.601,0.449-0.95
		c0-0.75-0.601-1.05-1.25-1.2l-1.199-0.3c-0.5-0.101-0.95-0.25-1.3-0.6c-0.4-0.35-0.6-0.85-0.6-1.35c0-1.4,1.199-2,2.5-2
		c1.199,0,2.199,0.6,2.6,1.8l-0.85,0.2c-0.15-0.8-1-1.3-1.801-1.3c-0.699,0-1.55,0.35-1.55,1.15c0,0.8,0.649,1,1.3,1.15l1.101,0.25
		c0.5,0.1,0.95,0.25,1.351,0.55c0.449,0.351,0.699,0.851,0.699,1.45c0,0.65-0.3,1.25-0.8,1.65c-0.55,0.399-1.25,0.55-1.899,0.55
		c-1.5,0-2.449-0.65-2.949-2.05L184.225,31.875z"/>
	<path fill="#00467F" d="M190.475,34.025v-7.3h0.899v7.3H190.475z"/>
	<path fill="#00467F" d="M195.425,34.025h-0.899v-6.5h-2.051v-0.8h5.051v0.8h-2.051v6.5H195.425z"/>
	<path fill="#00467F" d="M201.075,30.925v3.101h-0.899v-3.051l-2.449-4.2h1.049l1.951,3.35l1.949-3.35h0.85L201.075,30.925z"/>
	<path fill="#00467F" d="M207.075,30.425c0-1.8,0.899-3.8,3-3.8c2.05,0,3,1.85,3,3.65c0,1.8-0.899,3.85-3,3.85
		S207.075,32.225,207.075,30.425z M212.125,30.325c0-0.65-0.1-1.4-0.449-2c-0.351-0.55-0.9-1-1.551-1c-1.6,0-2.05,1.75-2.05,3.05
		c0,1.25,0.5,2.95,2.05,2.95C211.625,33.375,212.125,31.575,212.125,30.325z"/>
	<path fill="#00467F" d="M214.425,34.025v-7.3h4.449v0.8h-3.55v2.3h2.949v0.75h-2.949v3.45H214.425z"/>
	<path fill="#00467F" d="M227.975,31.725c-0.351,1.4-1.149,2.4-2.699,2.4c-2.101,0-2.95-2.05-2.95-3.85c0-1.9,0.95-3.7,3.05-3.7
		c1.45,0,2.352,1,2.65,2.35l-0.851,0.15c-0.25-0.9-0.7-1.7-1.801-1.7c-1.601,0-2,1.7-2,3c0,0.55,0.101,1.3,0.351,1.8
		c0.301,0.65,0.851,1.15,1.649,1.15c1.101,0,1.649-0.851,1.851-1.8L227.975,31.725z"/>
	<path fill="#00467F" d="M234.325,34.025h-0.95l-0.75-2.15h-2.699l-0.65,2.15h-0.75l2.351-7.3h1.051L234.325,34.025z
		 M231.325,27.675l-1.149,3.5h2.25L231.325,27.675z"/>
	<path fill="#00467F" d="M239.625,34.025h-4.3v-7.3h0.899v6.5h3.399L239.625,34.025L239.625,34.025z"/>
	<path fill="#00467F" d="M240.625,34.025v-7.3h0.9v7.3H240.625z"/>
	<path fill="#00467F" d="M243.375,34.025v-7.3h4.45v0.8h-3.55v2.3h2.949v0.75h-2.949v3.45H243.375z"/>
	<path fill="#00467F" d="M248.075,30.425c0-1.8,0.899-3.8,3-3.8c2.05,0,3,1.85,3,3.65c0,1.8-0.899,3.85-3,3.85
		C249.025,34.125,248.075,32.225,248.075,30.425z M253.125,30.325c0-0.65-0.1-1.4-0.449-2c-0.351-0.55-0.9-1-1.551-1
		c-1.648,0-2.05,1.75-2.05,3.05c0,1.25,0.5,2.95,2.05,2.95C252.675,33.375,253.125,31.575,253.125,30.325z"/>
	<path fill="#00467F" d="M259.725,34.025l-1.351-3.15h-2v3.15h-0.899v-7.3h2.75c0.601,0,1.149,0.05,1.649,0.45
		c0.5,0.35,0.801,1,0.801,1.6c0,0.85-0.5,1.65-1.351,1.85l1.449,3.4H259.725z M258.075,30.125c0.5,0,0.899-0.05,1.25-0.4
		c0.25-0.25,0.351-0.6,0.351-0.95c0-0.4-0.15-0.8-0.5-1c-0.301-0.25-0.601-0.25-1-0.25h-1.801v2.6H258.075z"/>
	<path fill="#00467F" d="M267.375,34.025h-0.898l-3.701-6.351v6.351h-0.75v-7.3h1.15l3.449,5.95v-5.95h0.75V34.025z"/>
	<path fill="#00467F" d="M269.125,34.025v-7.3h0.9v7.3H269.125z"/>
	<path fill="#00467F" d="M276.825,34.025h-0.95l-0.75-2.15h-2.699l-0.65,2.15h-0.699l2.351-7.3h1.05L276.825,34.025z
		 M273.875,27.675l-1.148,3.5h2.25L273.875,27.675z"/>
	<g>
		<path fill="#00467F" d="M135.225,51.725c0,0-0.399-0.399-1.1-1.199c0.05-0.301,0.1-0.7,0.15-1.2l0.05-0.8l-0.351,0.149
			c-0.1,0.05-0.399,0.4-0.8,0.851c-0.8-0.851-1.851-1.95-3.101-3.25c0-1.4,0-2.5,0-3.4c2.4,1.8,4.4,3.25,4.4,3.25
			c0.149,0.1,0.25-0.1,0.1-0.25c-0.85-0.65-2.5-1.9-4.5-3.35c0-1.101,0-1.75,0-1.95c0-0.25,0-0.75-0.25-0.601
			c-0.45,0.301-2.551-0.1-2.6-0.05c-0.201,0.05-0.351,0.101-0.551,0.15c-1.852-1.351-3.699-2.75-5.352-3.95
			c-0.398-0.3-0.549-0.1-0.148,0.2c0.301,0.25,2.551,1.899,5.148,3.8c-0.799,0.15-1.5,0.15-2.1,0.15c-0.949-0.95-1.949-2-3-3.101
			c-0.3-0.3-0.55-0.149-0.25,0.2c0.051,0.05,1.15,1.2,2.7,2.85c-0.5-0.05-0.95-0.149-1.45-0.199c-0.3-0.4-0.55-0.801-0.85-1.15
			c-0.5-0.65-0.551-0.2-0.25,0.2c0.15,0.2,0.35,0.55,0.6,0.899c-0.3,0-0.6,0-0.949,0c-0.051-0.149-0.101-0.25-0.15-0.399
			c-0.2-0.55-0.551-0.7-0.301,0.149c0.051,0.101,0.051,0.2,0.102,0.301c-0.199,0.05-0.449,0.149-0.75,0.25
			c-0.102-0.551-0.199-1.051-0.3-1.601s-0.351-0.5-0.3,0.05c0.101,0.551,0.15,1.101,0.25,1.65c-0.35,0.2-0.7,0.45-0.899,0.75
			c0-0.95,0-1.85-0.05-2.7c0-0.899-0.25-0.55-0.25,0c0,0.65,0,1.5,0,2.5c-0.25-0.3-0.65-0.55-1.05-0.75
			c0.101-0.5,0.149-0.95,0.25-1.45c0.101-0.6-0.2-0.6-0.3-0.05c-0.101,0.45-0.15,0.95-0.25,1.4c-0.301-0.101-0.601-0.15-0.75-0.15
			c0-0.05,0.05-0.149,0.05-0.2c0.25-0.85-0.101-0.699-0.3-0.149c-0.051,0.1-0.101,0.25-0.15,0.35c-0.35,0-0.7,0-1,0
			c0.25-0.399,0.5-0.7,0.65-0.95c0.3-0.449,0.25-0.85-0.25-0.199c-0.25,0.35-0.551,0.75-0.851,1.149c-0.5,0-0.95,0.05-1.351,0.05
			c1.5-1.55,2.5-2.649,2.55-2.699c0.3-0.351,0.05-0.5-0.25-0.2c-1,1.05-1.95,2-2.851,2.899c-1.449,0.051-1.949,0.15-2.399,0.15
			c2.649-1.95,5-3.7,5.3-3.95c0.398-0.3,0.25-0.5-0.15-0.2c-1.699,1.25-3.699,2.7-5.6,4.15c-0.05,0-0.15,0-0.199,0
			c-0.101,0-0.201,0-0.4,0c-0.45,0-1.6,0-1.95,0c-0.101,0-0.3-0.1-0.351-0.1c-0.25,0-0.299,0.149-0.299,0.399
			c0,0.101,0,0.851,0,2.05c-1.951,1.45-3.551,2.65-4.4,3.25c-0.149,0.101,0,0.301,0.101,0.25c0,0,1.899-1.399,4.3-3.149
			c0,0.95,0,2.149,0,3.45c-3.25,3.449-5,5.3-5.05,5.35c-0.25,0.25-0.05,0.35,0.149,0.2c0.699-0.7,2.65-2.65,4.851-4.95
			c0,1.65,0,3.45,0,5.25c-1.8,2.898-3.05,5-3.101,5.05c-0.301,0.4-0.25,0.65,0.05,0.3c0.05-0.1,1.351-2.05,3-4.648
			c0,1.1,0,2.199,0,3.199c-0.45,0.051-1.05,0.149-1.25,0.449c-0.25,0.301-0.149,0.602-0.2,1c0,0.25-0.102,0.7-0.15,0.9
			c-0.149,0.35-0.399,0.6-0.649,0.8c-0.2,0.2-0.3,0.5-0.45,0.8c-0.199,0.5,0.1,1.15,0.398,1.7c0.15,0.25,0.5,0.601,0.801,0.65
			c1.15,0.198,1.3-0.601,1.5-1.052c0-0.049,0-0.049,0.05-0.049c0,0.75,0,1.25,0.05,1.25c0,0.049,0.601,0,1.5-0.051
			c-0.199,0.65-0.35,1-0.35,1c-0.2,0.75,0.15,0.5,0.25,0.2c0.15-0.399,0.3-0.8,0.45-1.25c0.8-0.05,1.75-0.101,2.75-0.149
			c0.2,0.299,0.601,0.799,0.8,1.101l0.2,0.35l0.149,0.25c0.15,0.25,0.301,0.5,0.4,0.7c-0.1,0.648-0.2,1.05-0.2,1.148
			c-0.25,1-0.05,1.102,0.25,0.15c0-0.05,0.101-0.4,0.2-0.949c0.1,0.149,0.25,0.351,0.4,0.549c0.3,0.4,1,0.852,2.55,1.552
			c0.601,0.25,1.45,0.448,2.399,0.448c0.051,0.802,0.25,0.602,0.25,0c1.25,0,2.601-0.148,3.9-0.6l0,0l0,0
			c0.7-0.35,1.2-0.75,1.55-1.1v0.05c0.25,0.95,0.45,0.851,0.25-0.149c0,0,0-0.101-0.05-0.149c0.2-0.25,0.25-0.4,0.3-0.45
			c0.101-0.15,0.75-1.65-0.05-2.75l-0.05-0.05l0,0l-0.05-0.052c-0.051-0.049-0.101-0.1-0.15-0.148c1.55,0.05,3.25,0.148,4.4,0.2
			c0.1,0.3,0.25,0.649,0.35,0.948c0.1,0.25,0.45,0.5,0.25-0.198c0,0-0.1-0.302-0.25-0.75c0.7,0.05,1.15,0.05,1.15,0
			c0-0.552,0-1.101,0-1.601c0.949-0.149,1.3-0.399,1.949-1c0.75-0.649,1.2-1.551,1.2-2.5c0.05,0.049,0.05,0.101,0.101,0.101
			c0.3,0.35,0.35,0.1,0.05-0.302c0,0-0.101-0.148-0.25-0.448c-0.149-0.5-0.399-0.95-0.8-1.302c-0.351-0.6-0.801-1.299-1.301-2.1
			c0.5-0.05,1.051-0.199,1.5-0.4c0.45-0.198,1.15-0.75,1.5-1.6l0.051-0.15c0.05-0.1,0.05-0.199,0.1-0.299c0.45,0.449,0.8,0.799,1,1
			C135.225,52.125,135.425,51.975,135.225,51.725z M132.925,49.825c-0.25,0.3-0.55,0.649-0.75,0.899
			c-0.101-0.35-0.149-0.949-0.25-1.35c-0.05-0.35-0.149-0.65-0.25-0.85C132.125,48.975,132.575,49.425,132.925,49.825z
			 M130.075,46.875c0.351,0.35,0.649,0.7,1,1.05v0.15c0.101,1.2-0.101,2.1-0.3,2.7c-0.15,0.55-0.301,0.75-0.601,0.899
			c-0.05,0.05-0.101,0.05-0.2,0.05C130.075,49.875,130.075,48.275,130.075,46.875z M129.175,40.825c0.05-0.25,0.45-0.351,0.5,0.1
			c0.05,0.2,0.05,5.601,0,10.9c-0.149,0.05-0.351,0.05-0.5,0.05l0,0C129.175,46.525,129.125,40.925,129.175,40.825z M128.425,40.825
			c0-0.15,0.399-0.25,0.351,0.1c0.05,0.101,0,5.55-0.101,10.8c-0.05-0.05-0.149-0.05-0.2-0.1c0-0.1,0-0.15,0-0.15
			c0-0.55,0.25-0.649,0-0.899c-0.05-0.05-0.149-0.101-0.25-0.15C128.325,45.425,128.375,40.925,128.425,40.825z M127.475,40.575
			c0.101-0.351,0.4-0.101,0.4,0.05c0,0.1-0.05,4.9-0.05,9.8c-0.101,0-0.3,0.05-0.399,0.101
			C127.375,47.675,127.425,44.325,127.475,40.575z M127.375,50.675h0.05c0,0,0.5-0.149,0.649-0.05c0.199,0.15,0.15,0.85,0.15,1.05
			c0,0,0,0.101,0,0.25l0,0l0,0l0,0c0,0.05,0.049,0.101,0.049,0.15c0.101,0.198,0.25,0.3,0.301,0.35c-0.1-0.05-0.2-0.05-0.301-0.1
			l0,0l0,0c-0.149-0.052-0.299-0.052-0.449-0.101l0,0c-0.149,0-0.301-0.051-0.399-0.051l0,0c-0.101,0-0.25,0-0.351,0l0,0
			c-0.301,0-0.6,0.1-0.801,0.2l0,0c-0.1,0.05-0.149,0.101-0.25,0.149c0,0-0.049,0-0.049,0.051c-0.051,0.05-0.15,0.1-0.201,0.199
			c-0.1,0.149-0.199,0.351-0.25,0.551c-0.049-0.2-0.25-0.45-0.25-0.602c0-0.648,0.4-1.05,0.65-1.3c0.1-0.1,0.2-0.149,0.301-0.2
			c0.049,0,0.049-0.05,0.1-0.05c0.05-0.05,0.15-0.1,0.199-0.1c0.051,0,0.051-0.05,0.101-0.05c0.05-0.051,0.149-0.051,0.2-0.101
			c0,0,0.05,0,0.05-0.05C127.025,50.775,127.275,50.725,127.375,50.675z M128.625,52.775c0,0,0.05,0.051,0.1,0.051
			c0,0.449,0,0.949,0,1.398c-0.199,0-0.35,0.051-0.449,0.102c0-0.551,0-1.102,0-1.7c0.1,0.05,0.149,0.05,0.25,0.101L128.625,52.775z
			 M127.775,52.475c0,0.7,0,1.352,0,2c-0.051,0-0.051,0.051-0.101,0.051c-0.05,0.051-0.2,0.101-0.351,0.149c0-0.7,0-1.45,0-2.25
			C127.475,52.425,127.625,52.475,127.775,52.475z M127.025,52.425c0,0.8,0,1.601,0,2.351c-0.051,0-0.101,0.051-0.15,0.051
			c-0.6,0.05-0.95-0.2-1-0.352c-0.05-0.05-0.1-0.148-0.15-0.25c-0.05-0.148-0.05-0.35-0.05-0.35c0-0.3,0.149-0.5,0.45-0.9
			C126.325,52.675,126.625,52.475,127.025,52.425z M118.625,41.725c0.1-1.1,3.05-1.5,3.55-1.35c0.5,0.1,1.3,0.25,1.649,0.35
			c0,0,1.65,0.4,3.15-0.149c0,0.25,0,5.25,0,10c-0.301,0.05-0.9,0.2-1.351,0.6c-0.5,0.4-0.8,0.851-0.8,1.5
			c0,0.45,0.15,0.8,0.351,1.4c0.101,0.3,0.2,0.649,0.2,0.649c0.25,0.449,0.2,0.799,0.3,1.199c0.149,0.65,0.5,0.75,0.7,0.801
			c0.2,0.049,0.35,0.101,0.55,0.149c0,0.25,0,0.5,0,0.75c-0.05,0-0.101,0-0.149,0c-1-0.101-1.351-0.25-1.9-0.5l-0.65-0.399
			c-1.149-0.551-2.75-0.5-3.55-0.149c-0.399,0.149-0.649,0.3-0.899,0.6l-0.051,0.101l0.051,0.101c0.05,0.25,0.25,0.5,0.35,0.649
			s0.05,0.551,0.05,0.699c0,0.301-0.25,0.602-0.351,0.7h0.05c-0.25,0.15-0.399,0.5-0.399,0.95c-0.301,0.148-0.551,0.3-0.801,0.45
			C118.675,60.725,118.525,41.775,118.625,41.725z M121.675,60.975c0.05,0.102,0.149,0.2,0.2,0.301c0.1,0.101,0.2,0.199,0.35,0.301
			c0.15,0.1,0.301,0.199,0.4,0.25c0.05,0.05,0.15,0.05,0.2,0.1c0.101,0.051,0.2,0.1,0.3,0.2c-0.1,0-0.2,0-0.3,0.05l-0.5,0.051
			c-0.101,0-0.2,0-0.3,0l0,0l0,0c-0.301,0.049-0.5,0.049-0.9,0l0,0l0,0c-0.1,0-0.25-0.051-0.4-0.101
			c-0.199-0.05-0.399-0.149-0.55-0.3l0,0l0,0c-0.149-0.15-0.3-0.352-0.399-0.551c-0.051-0.101-0.051-0.199-0.101-0.301l0,0
			c0-0.1-0.05-0.199-0.05-0.3l0,0c0-0.149,0-0.3,0.05-0.45l0,0c0-0.1,0.05-0.199,0.101-0.25c0,0,0,0,0-0.05
			c0.05-0.05,0.1-0.149,0.149-0.149l0.05-0.051c0.101,0,0.2-0.05,0.351-0.05c0.05,0,0.149,0,0.25,0c0.05,0,0.101,0,0.149,0
			c0.101,0,0.25,0.05,0.351,0.05c0,0,0,0,0.05,0c0.15,0.051,0.35,0.051,0.5,0.102c-0.05,0.05-0.05,0.1-0.05,0.199
			c-0.05,0.101-0.05,0.199-0.101,0.25c0,0.101-0.05,0.199-0.05,0.301C121.575,60.675,121.625,60.825,121.675,60.975z
			 M121.875,60.425c0-0.149,0.05-0.35,0.15-0.55c0.05,0,0.149,0,0.199,0c0.4,0.1,0.801,0.25,1.2,0.398
			C122.875,60.325,122.325,60.375,121.875,60.425z M124.825,60.725c0.5,0.15,1.05,0.25,1.649,0.301
			c-1.3,0.051-2.899,0.149-4.199,0.199c-0.15-0.1-0.25-0.199-0.301-0.35C122.925,60.825,123.925,60.775,124.825,60.725z
			 M122.375,62.625c0,0.2-0.05,0.35-0.2,0.45c-0.851,0.698-1.55,0.85-3.2,0.649c-0.149,0-0.3-0.051-0.449-0.101
			c0-0.3,0-0.649,0-0.95c0.449,0,0.899-0.15,1.35-0.449c0.05,0,0.2-0.051,0.4-0.051c0.149,0.1,0.35,0.2,0.6,0.25
			C121.675,62.625,121.775,62.625,122.375,62.625z M119.475,61.075C119.475,61.075,119.425,61.075,119.475,61.075l-0.35-0.15
			c0.15-0.05,0.25-0.1,0.35-0.149l0,0C119.425,60.825,119.425,60.975,119.475,61.075z M118.475,61.075c0.801,0.05,1.2,0.8,1.15,0.85
			c-0.55,0.601-1.7,0.65-2.25,0C117.275,61.875,117.825,61.125,118.475,61.075z M117.275,61.425c0.149,0.05-0.15,0.15-0.15,0.15
			c-0.35-0.052-1.05-0.15-1.9-0.2c0-0.05-0.05-0.05-0.05-0.102c0-0.049-0.05-0.1-0.05-0.148
			C116.125,61.225,116.875,61.325,117.275,61.425z M115.025,60.675c-0.051-0.149-0.101-0.3-0.2-0.45c1,0.15,2.601,0.4,2.95,0.7
			c-0.2,0.101,0.05-0.05-0.25,0.2C117.225,60.975,116.225,60.825,115.025,60.675z M116.675,61.725c0.101,0,0.351,0,0.3,0.25
			c0-0.05-0.55-0.05-1.399-0.05c-0.05-0.05-0.101-0.149-0.149-0.25C116.025,61.725,116.475,61.725,116.675,61.725z M116.975,62.225
			c0.45,0.15,0.7,0.352,1.15,0.4c0,0.3,0,0.6,0,0.85c-0.35-0.1-0.65-0.25-0.95-0.398c0,0-0.399-0.2-0.899-0.45
			c-0.25-0.101-0.4-0.25-0.601-0.45C116.375,62.175,116.825,62.175,116.975,62.225z M109.475,40.775c0-0.15,0-0.2,0.2-0.2
			c3.149,0.05,8.05-1.15,8.5,1.149c0,0.101,0.101,14.551,0.05,19c-1.05-0.398-1.85-0.6-3.699-0.8l-0.301-0.45
			c-0.35-0.5-0.449-0.699-0.699-0.898l-0.65-0.65c-0.35-0.3-0.8-0.699-0.85-0.75c-1-0.65-1.851-1-2.551-1.15
			C109.575,47.025,109.425,41.825,109.475,40.775z M108.925,41.075c0-0.5,0.25-0.45,0.25-0.101c0.05,0.5,0,5.5-0.101,15
			c-0.1,0-0.25-0.05-0.35-0.05C108.775,50.425,108.925,41.775,108.925,41.075z M108.025,40.925c-0.051-0.25,0.25-0.35,0.25-0.05
			c0.05,0.1-0.101,9.2-0.101,15c-0.101,0-0.25,0-0.351,0.05C107.825,50.075,107.975,41.025,108.025,40.925z M106.975,40.825
			c0.051-0.3,0.5-0.15,0.45,0.2c-0.05,6.35-0.101,11.5-0.149,15.05h-0.101c0,0-0.101,0-0.25,0
			C106.975,49.775,106.975,40.975,106.975,40.825z M105.725,61.825c-0.25,0.198-0.449,0.3-0.8,0.25c-0.2,0-0.601-0.45-0.8-0.95
			c-0.05-0.2-0.05-0.45-0.05-0.8c0-0.101,0-0.2,0.05-0.25c0.05-0.101,0.15-0.2,0.2-0.302c0.101,0.15,0.351,0.302,0.55,0.451
			l0.45,0.299c0.25,0.201,0.649,0.352,0.95,0.352C106.225,61.075,106.025,61.525,105.725,61.825z M106.275,60.475
			c-0.101,0-0.4,0.051-0.9-0.199l-0.4-0.25c-0.25-0.301-0.35-0.449-0.35-0.551c0,0,0-0.05,0.05-0.05c0.25-0.2,1.149-0.2,1.8-0.149
			c0,0.399,0,0.75,0,1.101C106.375,60.425,106.275,60.425,106.275,60.475z M107.025,61.875c-0.051-0.15-0.051-1.102-0.051-1.3
			c0-0.351,0-0.802,0-1.25c0.101,0,0.25,0,0.351,0.05c0,1.45,0.05,2.25,0.149,2.25c0.051,0.05,1.551,0.05,3.301,0.05c0,0,0,0,0,0.05
			l0.1,0.15c0,0,0.05,0.05,0.05,0.1C108.825,61.975,107.025,61.975,107.025,61.875z M110.175,60.875c0.05,0.05,0.149,0.148,0.2,0.3
			c-1.4-0.05-2.45-0.1-2.5-0.149c-0.05-0.051-0.05-0.601-0.05-1.551c0.101,0.051,0.25,0.051,0.351,0.102
			c0,0.75,0.051,1.199,0.051,1.25C108.275,60.775,109.075,60.825,110.175,60.875z M108.625,59.675c0.15,0.05,0.25,0.101,0.4,0.2
			c0,0,0,0.05,0,0c0.25,0.148,0.5,0.3,0.699,0.5c-0.699,0-1.1,0-1.1,0.05C108.625,60.375,108.625,60.125,108.625,59.675z
			 M124.475,63.675c0,0.101,0,0.25-0.05,0.351c0,0.051,0,0.051,0,0.101c-0.05,0.101-0.05,0.25-0.101,0.351l0,0
			c-0.051,0.149-0.1,0.25-0.149,0.351c0,0,0,0.05-0.05,0.05c-0.05,0.1-0.1,0.25-0.15,0.35l0,0c-0.05,0.15-0.149,0.25-0.199,0.301
			c-0.301,0.399-0.75,0.699-1.851,1.199c-0.3,0.102-0.601,0.2-0.899,0.25c-0.051,0-0.101,0-0.15,0.051
			c-0.25,0.051-0.5,0.101-0.75,0.149c-0.05,0-0.05,0-0.1,0c-0.25,0.05-0.551,0.05-0.801,0.101c0,0,0,0-0.05,0
			c-0.25,0-0.55,0.051-0.8,0l0,0c-0.25,0-0.5,0-0.75-0.051c-0.05,0-0.1,0-0.15,0c-0.149,0-0.25-0.05-0.399-0.05
			c-0.101,0-0.149-0.05-0.25-0.05s-0.2-0.05-0.25-0.05c-0.149-0.052-0.351-0.101-0.5-0.2c-1.45-0.65-2.45-1.102-2.899-1.7
			c-0.15-0.2-0.25-0.35-0.351-0.55c-0.05-0.102-0.149-0.25-0.2-0.352c-0.15-0.198-0.25-0.448-0.4-0.698l-0.149-0.25l-0.2-0.351
			c-0.15-0.25-0.3-0.5-0.4-0.75c-0.05-0.101-0.1-0.149-0.149-0.25c0-0.051-0.2-0.399-0.2-0.399v-0.052l-0.1-0.148
			c-0.051-0.102-0.15-0.2-0.2-0.3c-0.05-0.101-0.149-0.2-0.2-0.25c-0.15-0.2-0.25-0.351-0.35-0.4l0,0c0-0.05-0.051-0.05-0.101-0.1
			c-0.101-0.101-0.149-0.15-0.3-0.25l0,0c-0.15-0.101-0.3-0.2-0.45-0.302l0,0c-0.149-0.1-0.351-0.198-0.55-0.299
			c-0.1-0.051-0.2-0.101-0.35-0.149c-0.15-0.052-0.301-0.15-0.45-0.2c-0.101-0.05-0.25-0.102-0.351-0.102
			c-0.199-0.049-0.35-0.1-0.5-0.148c-0.1,0-0.25-0.05-0.35-0.05c-0.15,0-0.3-0.052-0.4-0.052c-0.05,0-0.05,0-0.1,0l0,0
			c-0.75,0-0.85-0.049-1.1-0.049l0,0c-0.051,0-0.051,0-0.101,0c0,0,0,0-0.05,0s-0.1,0-0.2,0c0.05-0.101,0.101-0.201,0.149-0.301
			c0.101-0.25,0.05-0.6,0.05-0.9c0.05-0.35,0.2-0.799,0.351-1c0.049-0.049,0.1-0.1,0.199-0.148c0,0,0.051,0,0.1,0
			c0.051,0,0.101-0.05,0.201-0.05c0.049,0,0.049,0,0.1,0c0.101,0,0.15,0,0.25,0c0.101,0,0.199,0,0.3,0l0.3-0.052h0.1l0.25-0.049l0,0
			c0.25-0.051,0.551-0.149,0.851-0.149l0,0c0.149,0,0.351-0.052,0.5-0.052l0,0c0.25,0,0.5,0,0.75,0.102l0,0
			c0.149,0.05,0.3,0.1,0.45,0.148h0.05c0.149,0.052,0.3,0.15,0.5,0.201c0.05,0,0.05,0.049,0.101,0.049
			c0.149,0.102,0.35,0.201,0.5,0.302c0.049,0,0.049,0.05,0.1,0.05c0.199,0.148,0.4,0.3,0.601,0.45l0,0h0.05
			c0.051,0.05,0.301,0.25,0.551,0.448l0.899,0.701c0.2,0.149,0.55,0.699,0.851,1.149l0.25,0.351c0.199,0.299,0.35,0.649,0.5,1.049
			c0,0.052,0.05,0.102,0.05,0.15c0.05,0.1,0.101,0.2,0.149,0.35c0.051,0.102,0.101,0.15,0.101,0.25
			c0.05,0.102,0.101,0.201,0.149,0.25c0.051,0.102,0.101,0.15,0.15,0.25l0,0c0.05,0.052,0.1,0.15,0.15,0.201c0,0,0,0,0.05,0.049
			c0.05,0.052,0.101,0.102,0.2,0.15c0,0,0.05,0,0.05,0.051c0.101,0.049,0.149,0.101,0.25,0.149l0.5,0.3
			c0.2,0.1,0.45,0.25,0.649,0.35c0,0,0.051,0,0.051,0.052c0.25,0.1,0.5,0.198,0.75,0.25c0.1,0.05,0.25,0.05,0.35,0.05
			c0.05,0,0.05,0,0.1,0c1.801,0.25,3.301,0,3.9-0.65c0.2-0.199,0.3-0.5,0.3-0.8h0.101c0.6-0.05,0.8-0.05,1.1,0.2l0,0
			C124.225,63.075,124.475,63.325,124.475,63.675z M129.525,62.075c-0.15-0.052-3.45-0.15-6.101-0.2
			c-0.149-0.102-0.351-0.2-0.55-0.3c2.6,0.05,5.35,0.05,6.2,0c0-0.052,0-0.25,0.05-0.552l0.4-0.049l0,0
			C129.525,61.525,129.525,61.925,129.525,62.075z M132.175,56.075c0.25,0.35,0.399,0.698,0.5,1.1c0.149,0.9,0.101,1.601-0.601,2.25
			c-0.1,0.101-0.2,0.15-0.25,0.25c-0.051,0.05-0.1,0.101-0.149,0.15c-0.05,0-0.05,0.05-0.101,0.1s-0.1,0.101-0.149,0.101
			s-0.05,0.051-0.05,0.051c-0.05,0.05-0.1,0.1-0.15,0.1l-0.05,0.051c-0.05,0.049-0.101,0.049-0.149,0.101c0,0-0.051,0-0.051,0.05
			c-0.05,0-0.149,0.05-0.199,0.1h-0.051c-0.05,0-0.149,0.051-0.25,0.051h-0.05c-0.101,0-0.2,0.051-0.3,0.051l0,0
			c-0.1,0-0.25,0.05-0.35,0.05l-0.5,0.05l0,0c-0.2,0.051-0.351,0.051-0.551,0.051l0,0c-0.25,0-0.449,0.049-0.699,0.049
			c0,0,0,0-0.051,0c-0.25,0-0.449,0-0.649,0h-0.05c-0.2,0-0.45,0-0.65-0.049h-0.05c-1.101-0.101-2.101-0.399-2.851-0.75
			c-0.199-0.101-0.35-0.149-0.55-0.25c-0.149-0.051-0.3-0.101-0.45-0.201l0,0c-0.399-0.148-0.75-0.25-1.1-0.35h-0.05
			c-0.149-0.05-0.3-0.05-0.399-0.05c-0.05,0-0.101,0-0.101,0c-0.149,0-0.3,0-0.45,0c0.1-0.25,0.15-0.55,0.15-0.75
			c0-0.05,0-0.101,0-0.149c-0.051-0.149-0.101-0.351-0.2-0.551c-0.05-0.15-0.149-0.3-0.2-0.449c0.15-0.201,0.25-0.351,0.55-0.5
			c0.601-0.25,2-0.399,3.101,0.101l0.8,0.351c0.601,0.299,1.05,0.549,2.149,0.649c0.2,0,0.4,0.05,0.601,0.05c0.149,0,0.25,0,0.351,0
			c0.149,0,0.301,0,0.399,0c0.149,0,0.3,0,0.45,0c0.199,0,0.35,0,0.55,0c0.149,0,0.3,0,0.45-0.05c0.149,0,0.3-0.052,0.399-0.052
			c0.2-0.049,0.351-0.049,0.5-0.1c0.05,0,0.05,0,0.101,0c0.149-0.05,0.25-0.1,0.35-0.15
			C132.025,57.125,132.175,56.475,132.175,56.075z M127.325,56.925c0.149,0,0.25,0,0.399,0c0,0.25,0,0.5,0,0.75
			c-0.1,0-0.25,0-0.399-0.05C127.325,57.375,127.325,57.175,127.325,56.925z M128.125,57.675c0-0.3,0-0.55,0-0.85c0,0,0,0,0.05,0
			c0.149-0.052,0.3-0.15,0.45-0.25c0,0.399,0,0.75,0,1.1C128.475,57.675,128.325,57.675,128.125,57.675z M129.125,57.675
			c0-0.45,0-0.95,0-1.5c0.15-0.1,0.3-0.25,0.5-0.399c0,0.649,0,1.25,0,1.851C129.475,57.675,129.325,57.675,129.125,57.675z
			 M131.725,55.925c0.051,0.25,0.101,1.05-0.899,1.351c-0.351,0.101-0.601,0.199-0.851,0.25c0-0.699,0-1.399,0-2.101
			c0.351-0.25,0.801-0.25,1.7,0.351C131.725,55.875,131.725,55.875,131.725,55.925z M131.575,55.225
			c-0.149-0.05-0.351-0.05-0.45-0.05c-0.05,0-0.05,0-0.05,0c-0.101,0-0.25,0-0.351,0h-0.05c-0.101,0-0.2,0-0.3,0.05l0,0
			c-0.1,0-0.2,0.051-0.3,0.051c-0.149,0.051-0.25,0.101-0.399,0.199c-0.15,0.102-0.3,0.2-0.4,0.352l-0.049,0.05l0,0
			c-0.201,0.2-0.351,0.3-0.5,0.351l0,0c-0.15,0.101-0.301,0.101-0.4,0.149h-0.051c-0.049,0-0.1,0.05-0.1,0.05
			c-0.101,0.051-0.199,0.1-0.3,0.1l0,0c-0.25,0.102-0.5,0.102-0.75,0.052c-0.101,0-0.149-0.052-0.25-0.052
			c-0.45-0.198-0.649-0.6-0.7-0.75c-0.05-0.299,0.051-0.35-0.05-0.75c0.149,0.052,0.3,0.052,0.45,0.102c0.15,0,0.351,0,0.55,0
			c0.05,0,0.05,0,0.101,0c0.1,0,0.149-0.05,0.25-0.05c0.1-0.052,0.25-0.101,0.35-0.15h0.05c0.149-0.1,0.351-0.2,0.601-0.25
			c0.1-0.05,0.199-0.05,0.299-0.05c0.15,0,0.25,0,0.4,0h0.399c0.25,0,0.55,0,0.851,0c0.051,0,0.1,0,0.149,0s0.05,0,0.101,0
			s0.1,0.05,0.149,0.05h0.05c0.1,0.05,0.15,0.05,0.25,0.101l0.05,0.051c0.05,0.05,0.101,0.1,0.2,0.148l0.05,0.051
			C131.425,55.075,131.475,55.175,131.575,55.225z M129.175,54.225c0-0.398,0-0.75,0-1.148c0.149,0.1,0.351,0.148,0.5,0.199
			c0,0.351,0,0.699,0,1L129.175,54.225z M131.325,54.725c-0.649-0.449-0.95-0.5-1.3-0.449c0-0.301,0-0.601,0-0.899
			c0.149,0.05,0.3,0.05,0.449,0.05C130.775,53.875,131.075,54.325,131.325,54.725z M133.875,49.725c-0.05,0.4-0.15,0.801-0.25,1.051
			c-0.05,0.1-0.05,0.199-0.1,0.25l-0.051,0.149c-0.3,0.851-0.699,1.45-1.899,1.851c-0.149,0.051-0.3,0.101-0.45,0.101s-0.25,0-0.4,0
			l0,0c-0.149,0-0.3-0.05-0.449-0.101l0,0c-0.101,0-0.15,0-0.2,0l0,0c-0.101,0-0.149-0.051-0.25-0.051
			c-0.05,0-0.101-0.05-0.149-0.05l0,0c-0.5-0.149-0.9-0.45-1.05-0.7l0,0l-0.05-0.148c0,0,0,0,0-0.051
			c0.15,0.051,0.351,0.101,0.601,0.101c0.149,0,0.3,0,0.5-0.05c0.149,0,0.25-0.051,0.399-0.102l0,0h0.05
			c0.399-0.148,0.851-0.3,1.101-1.05c0.1-0.35,0.149-1.5,0.199-2.1c0.35,0.75,0.551,2.149,0.551,2.3l0.1,0.45
			c0,0,0.15-0.15,0.3-0.351c0.351-0.5,0.601-0.851,0.8-1.101l0,0c0.1-0.101,0.149-0.2,0.2-0.25l0,0l0,0
			c0.101-0.101,0.2-0.2,0.25-0.3l0,0c0.101-0.1,0.2-0.15,0.3-0.25C133.925,49.375,133.925,49.575,133.875,49.725z M110.375,60.475
			L110.375,60.475L110.375,60.475C110.425,60.475,110.375,60.475,110.375,60.475z"/>
		<g>
			<path fill="#00467F" d="M106.025,39.625c-0.2,0.1-0.301-0.1-0.101-0.2c0.45-0.3,7.95-3.649,8.55-3.899
				c0.351-0.15,0.551,0.05,0.2,0.25C114.675,35.775,106.475,39.375,106.025,39.625z"/>
		</g>
		<g>
			<g>
				<path fill="#00467F" d="M114.525,34.925c0,0,0.1,0.15,0,0.15c-0.2,0.05-2.551,0.149-2.7,0.149c-0.101,0-0.7,0.051-0.851,0.051
					c-0.449-0.051-0.149-0.15,0.051-0.15C111.775,35.025,114.325,34.825,114.525,34.925z"/>
			</g>
		</g>
		<g>
			<path fill="#00467F" d="M130.375,39.575c0.2,0.1,0.3-0.101,0.1-0.2c-0.449-0.3-7.949-3.65-8.55-3.9
				c-0.351-0.149-0.55,0.051-0.2,0.25C121.725,35.725,129.925,39.325,130.375,39.575z"/>
		</g>
		<g>
			<g>
				<path fill="#00467F" d="M122.125,34.875c0,0-0.1,0.1,0.05,0.15c0.2,0.05,2.5,0.149,2.649,0.149c0.101,0,0.65,0.05,0.851,0.05
					c0.399-0.05,0.101-0.149-0.05-0.149C125.325,35.025,122.425,34.725,122.125,34.875z"/>
			</g>
		</g>
		<path fill="#00467F" d="M114.275,70.125v0.05c-0.051,0-0.15,0-0.15,0.101l-0.6,2.301c-0.051,0.1,0,0.148,0.1,0.148v0.051
			l-0.9-0.25v-0.051c0.101,0.051,0.15,0,0.2-0.1l0.45-1.75c-0.1,0-0.3,0-0.35,0.1h-0.101l0.149-0.648h0.101
			c0,0.05,0.05,0.1,0.149,0.1c0.101,0.051,0.199-0.05,0.199-0.15c0-0.049,0-0.1-0.049-0.148v-0.05L114.275,70.125z"/>
		<path fill="#00467F" d="M115.525,71.675c-0.25-0.149-0.45-0.399-0.4-0.649c0.05-0.399,0.5-0.699,1.3-0.649
			c0.851,0.101,1.25,0.45,1.25,0.851c0,0.25-0.25,0.5-0.55,0.549c0.35,0.15,0.55,0.4,0.5,0.75c-0.05,0.5-0.55,0.802-1.4,0.701
			c-0.899-0.101-1.35-0.5-1.3-0.951C114.925,71.975,115.175,71.775,115.525,71.675z M116.225,72.825c0.351,0.05,0.7-0.101,0.75-0.4
			c0.051-0.299-0.3-0.45-0.649-0.5c-0.399,0-0.75,0.101-0.75,0.4C115.525,72.625,115.825,72.775,116.225,72.825z M116.325,71.525
			c0.399,0.051,0.601-0.101,0.649-0.301c0-0.199-0.149-0.398-0.55-0.398c-0.399-0.051-0.601,0.1-0.649,0.3
			S115.925,71.475,116.325,71.525z"/>
		<path fill="#00467F" d="M120.075,71.175l-0.101-0.05c0-0.15-0.25-0.3-0.6-0.3c-0.5,0.05-0.8,0.448-0.75,0.948
			c0.2-0.198,0.5-0.35,0.85-0.398c0.65-0.05,1.15,0.25,1.15,0.898c0,0.451-0.4,0.951-1.2,1c-0.95,0.052-1.399-0.549-1.399-1.25
			c-0.051-0.85,0.399-1.549,1.399-1.648c0.45,0,0.851,0.148,0.95,0.148c0.05,0,0.05,0,0.1-0.049l0.051,0.049L120.075,71.175z
			 M119.975,72.375c0-0.3-0.3-0.5-0.649-0.5c-0.351,0-0.601,0.25-0.601,0.55s0.301,0.5,0.65,0.5
			C119.725,72.875,119.975,72.675,119.975,72.375z"/>
		<path fill="#00467F" d="M121.425,71.525c-0.3,0-0.55-0.199-0.601-0.399c-0.1-0.399,0.199-0.851,1-1.05
			c0.8-0.25,1.351-0.051,1.449,0.35c0.051,0.25-0.049,0.551-0.299,0.75c0.399,0,0.649,0.2,0.75,0.5c0.149,0.45-0.25,0.95-1.051,1.15
			c-0.851,0.25-1.449,0-1.55-0.4C120.975,72.025,121.125,71.775,121.425,71.525z M122.175,71.125c0.399-0.102,0.55-0.3,0.5-0.5
			s-0.3-0.3-0.7-0.2c-0.399,0.101-0.55,0.3-0.5,0.5C121.525,71.125,121.775,71.225,122.175,71.125z M122.525,72.375
			c0.35-0.102,0.649-0.352,0.55-0.602c-0.101-0.299-0.45-0.35-0.8-0.25c-0.351,0.102-0.65,0.352-0.551,0.602
			C121.775,72.425,122.125,72.475,122.525,72.375z"/>
		<path fill="#00467F" d="M108.475,58.225l0.75,0.301c0.051,0,0.051,0,0.101-0.101h0.05l-0.2,0.601h-0.05c0-0.101,0-0.101,0-0.101
			l-1.2-0.399v-0.051c0.05,0,0.05,0,0.101-0.05l0.6-1.6c0-0.052,0-0.052-0.05-0.101v-0.051l0.45,0.15v0.05
			c-0.051,0-0.051,0-0.101,0.05L108.475,58.225z"/>
		<path fill="#00467F" d="M110.675,59.025L110.675,59.025c0-0.051,0-0.101-0.05-0.101l-0.4-0.25l-0.149,0.3l0.649,0.4
			c0,0,0.051,0,0.101-0.05l0,0l-0.351,0.55l0,0c0.051-0.05,0.051-0.102,0-0.102l-1-0.6v-0.05c0.051,0,0.051,0,0.101,0l0.899-1.45
			c0-0.05,0-0.05,0-0.1v-0.051l1,0.601c0,0,0.051,0,0.101-0.05l0,0l-0.351,0.55l0,0c0.051-0.101,0.051-0.101,0-0.101l-0.649-0.399
			l-0.149,0.25l0.399,0.25c0.05,0.05,0.05,0,0.101-0.05l0,0L110.675,59.025z"/>
		<path fill="#00467F" d="M111.075,60.225L111.075,60.225c0.101,0,0.101,0,0.101-0.05l0.95-1l-0.3-0.3c0,0-0.051,0-0.1,0.05l0,0
			l0.449-0.45l0,0c-0.05,0.051-0.05,0.102-0.05,0.102l0.851,0.8c0,0,0.049,0,0.1-0.05l0,0l-0.45,0.449l0,0
			c0.05-0.051,0.05-0.101,0.05-0.101l-0.3-0.3l-0.95,1c0,0.05-0.05,0.05,0,0.1l-0.05,0.051L111.075,60.225z"/>
		<path fill="#00467F" d="M112.425,62.075L112.425,62.075c0.05,0.05,0.101,0.05,0.149,0l1.25-0.552l-0.149-0.35c0,0-0.05,0-0.101,0
			v-0.05l0.601-0.25v0.05c-0.05,0.051-0.101,0.051-0.101,0.1l0.5,1.052c0,0,0.05,0,0.101,0v0.05l-0.601,0.25v-0.05
			c0.05-0.052,0.101-0.052,0.101-0.101l-0.149-0.351l-1.25,0.55c-0.051,0-0.051,0.051-0.051,0.1h-0.05L112.425,62.075z"/>
		<path fill="#00467F" d="M113.825,64.625c-0.05,0-0.05,0.05,0,0.1l-0.05,0.051l-0.301-0.399l0.051-0.05c0.05,0.05,0.05,0.05,0.1,0
			l0.55-0.4l-0.351-0.5l-0.551,0.4c-0.049,0-0.049,0.05,0,0.1l-0.049,0.051l-0.301-0.451l0.051-0.049c0.049,0.049,0.049,0.049,0.1,0
			l1.351-1c0.05,0,0.05-0.051,0-0.101l0.05-0.05l0.301,0.398l-0.051,0.051c-0.05-0.051-0.05-0.051-0.1,0l-0.45,0.351l0.351,0.5
			l0.449-0.351c0.051,0,0.051-0.051,0-0.101l0.051-0.05l0.3,0.398l-0.05,0.052c-0.051-0.052-0.051-0.052-0.101,0L113.825,64.625z"/>
		<path fill="#00467F" d="M115.475,65.175L115.475,65.175c0-0.05,0-0.1-0.05-0.149l-0.351-0.25l-0.2,0.301l0.601,0.449
			c0,0,0.049,0,0.1-0.051l0,0l-0.35,0.5l0,0c0.049-0.05,0.049-0.1,0-0.1l-0.951-0.7l0.051-0.05c0.05,0.05,0.05,0,0.101,0l1-1.4
			c0,0,0.05-0.05,0-0.1l0.05-0.05l0.95,0.698c0,0,0.05,0,0.101-0.049l0,0l-0.351,0.5l0,0c0.05-0.101,0.05-0.101,0-0.101l-0.601-0.45
			l-0.2,0.25l0.351,0.25c0.049,0.051,0.049,0,0.1,0l0,0L115.475,65.175z"/>
		<path fill="#00467F" d="M116.325,66.225c0,0.051,0,0.051,0.05,0.102v0.05l-0.45-0.149v-0.051c0.05,0,0.05,0,0.101-0.05l0.5-1.601
			c0-0.051,0-0.051-0.051-0.101v-0.05l0.801,0.25c0.35,0.1,0.399,0.35,0.3,0.75c-0.101,0.3-0.3,0.45-0.5,0.45l0.101,0.649
			c0,0.049,0,0.101,0.051,0.101v0.05l-0.451-0.15v-0.05c0.051,0,0.051,0,0.051-0.05s-0.051-0.602-0.1-0.65l-0.201-0.05
			L116.325,66.225z M116.625,65.275l0.4,0.101c0.149,0.05,0.199-0.05,0.25-0.149c0.05-0.101,0-0.201-0.101-0.25l-0.399-0.101
			L116.625,65.275z"/>
		<path fill="#00467F" d="M118.825,66.125L118.825,66.125c-0.05-0.05-0.05-0.102-0.101-0.102l-0.449-0.049v0.351l0.75,0.05
			c0.05,0,0.05,0,0.05-0.102h0.05l-0.05,0.65h-0.05c0-0.05,0-0.1-0.051-0.1l-1.199-0.102v-0.05c0.05,0,0.05-0.05,0.05-0.05
			l0.101-1.7c0-0.05,0-0.05-0.05-0.05v-0.05l1.2,0.1c0.05,0,0.05,0,0.05-0.1h0.05l-0.05,0.649h-0.05c0-0.101,0-0.101-0.051-0.101
			l-0.75-0.05v0.3l0.451,0.05c0.049,0,0.049-0.05,0.1-0.1h0.05L118.825,66.125z"/>
		<path fill="#00467F" d="M120.125,64.875c0-0.05,0-0.05-0.1-0.05v-0.052l0.85-0.25c0.25-0.049,0.45,0,0.55,0.352
			c0.05,0.2,0,0.35-0.101,0.45l0,0c0.15,0,0.3,0.1,0.4,0.35c0.1,0.3,0,0.55-0.301,0.65l-0.851,0.3v-0.05
			c0.05-0.052,0.05-0.052,0.05-0.101L120.125,64.875z M120.625,65.375l0.3-0.102c0.2-0.049,0.25-0.1,0.2-0.25
			c-0.05-0.148-0.1-0.148-0.3-0.1l-0.3,0.1L120.625,65.375z M120.875,66.125l0.4-0.102c0.149-0.049,0.199-0.1,0.149-0.299
			c-0.05-0.149-0.149-0.201-0.3-0.149l-0.4,0.1L120.875,66.125z"/>
		<path fill="#00467F" d="M123.025,64.925L123.025,64.925c-0.051-0.05-0.101-0.05-0.15-0.05l-0.4,0.2l0.15,0.3l0.7-0.352
			c0,0,0-0.049,0-0.1l0,0l0.3,0.551l0,0c-0.05-0.051-0.05-0.051-0.05-0.051l-1.05,0.551v-0.051c0.05-0.05,0.05-0.05,0.05-0.1
			l-0.75-1.5c0-0.051-0.05-0.051-0.101-0.051v-0.051l1.051-0.55c0,0,0-0.05,0-0.1l0,0l0.3,0.55h-0.05
			c-0.051-0.05-0.051-0.102-0.101-0.05l-0.7,0.35l0.15,0.25l0.4-0.2c0.05,0,0.05-0.05,0.05-0.1h0.05L123.025,64.925z"/>
		<path fill="#00467F" d="M122.375,58.625l0.8,0.2c0.05,0,0.05,0,0.05-0.101h0.051l-0.2,0.649h-0.05c0-0.101,0-0.101,0-0.101
			l-1.2-0.301v-0.05c0.05,0,0.05,0,0.101-0.05l0.399-1.65c0-0.05,0-0.05-0.05-0.1v-0.05l0.449,0.1v0.05c-0.05,0-0.05,0-0.1,0.051
			L122.375,58.625z"/>
		<path fill="#00467F" d="M123.425,59.425L123.425,59.425c0.05-0.05,0.101-0.05,0.101-0.1l0.649-1.601c0-0.051,0-0.051-0.05-0.101
			v-0.05l0.45,0.199v0.051c-0.05,0-0.05,0-0.101,0.05l-0.649,1.601c0,0.049,0,0.049,0.05,0.101v0.05L123.425,59.425z"/>
		<path fill="#00467F" d="M125.825,59.475l-0.3-0.1c-0.051,0-0.051,0-0.051,0.05h-0.05l0.149-0.5h0.05c0,0.05,0,0.05,0,0.05
			l0.649,0.2v0.05c-0.049,0-0.049,0-0.049,0.051l-0.15,0.649c0,0.05,0,0.05,0,0.05l0,0v0.051c-0.25,0.101-0.5,0.149-0.801,0.051
			c-0.399-0.102-0.649-0.5-0.5-1.15c0.15-0.65,0.601-0.85,1-0.75c0.15,0.051,0.201,0.1,0.351,0.2c0.05,0.05,0.101,0.149,0.149,0.149
			h0.051l0,0l-0.25,0.399v-0.05c0,0,0,0,0-0.05c0-0.052-0.2-0.25-0.35-0.302c-0.201-0.049-0.451,0.052-0.551,0.451
			c-0.102,0.399,0.1,0.601,0.301,0.649c0.149,0.05,0.25,0.05,0.35,0L125.825,59.475L125.825,59.475z"/>
		<path fill="#00467F" d="M128.125,60.375c0,0.05,0,0.05,0.05,0.05v0.05l-0.5-0.05v-0.05c0.05,0,0.05-0.05,0.05-0.05l0.051-0.65
			l-0.601-0.05l-0.05,0.648c0,0.052,0,0.052,0.05,0.052v0.05l-0.5-0.05v-0.052c0.05,0,0.05-0.049,0.05-0.049l0.101-1.701
			c0-0.049,0-0.049-0.05-0.049v-0.051l0.5,0.051v0.049c-0.051,0-0.051,0.052-0.051,0.052l-0.05,0.6l0.601,0.05l0.05-0.6
			c0-0.05,0-0.05-0.05-0.05v-0.052l0.5,0.052v0.05c-0.051,0-0.051,0.05-0.051,0.05L128.125,60.375z"/>
		<path fill="#00467F" d="M129.325,60.325L129.325,60.325c0.05-0.052,0.05-0.101,0.05-0.101l-0.2-1.351l-0.399,0.05
			c-0.051,0-0.051,0-0.051,0.1h-0.05l-0.101-0.6h0.05c0,0.1,0.05,0.1,0.05,0.1l1.149-0.198c0.05,0,0.05,0,0.05-0.101h0.05
			l0.101,0.649h-0.051c0-0.101-0.05-0.101-0.05-0.101l-0.399,0.051l0.199,1.35c0,0.051,0,0.051,0.101,0.051v0.049L129.325,60.325z"
			/>
		<path fill="#00467F" d="M105.475,65.025l-0.05,0.051c-0.101-0.051-0.149-0.051-0.2,0l-1.5,1.55l0.551,0.55
			c0.1,0.1,0.149,0.15,0.25,0.051l0.05,0.049l-0.45,0.5l-0.05-0.049c0.05-0.051,0-0.101-0.101-0.201l-1.6-1.549
			c-0.1-0.101-0.15-0.149-0.25-0.101l-0.05-0.05l0.45-0.5l0.05,0.05c-0.05,0.101-0.05,0.149,0.05,0.25l0.55,0.55l1.5-1.55
			c0.05-0.05,0.05-0.101,0-0.2l0.05-0.05L105.475,65.025z"/>
		<path fill="#00467F" d="M102.125,63.275l0.9-0.601c0.05-0.05,0.1-0.1,0-0.2l0.05-0.05l0.55,0.8h-0.05
			c-0.101-0.1-0.149-0.1-0.2-0.05l-1.95,1.351c-0.05,0.051-0.101,0.101,0,0.199l-0.05,0.051l-0.55-0.801l0.05-0.05
			c0.1,0.101,0.15,0.101,0.2,0.05l0.75-0.5l-0.8-1.148l-0.75,0.5c-0.051,0.05-0.101,0.1,0,0.199l-0.051,0.051l-0.649-0.801
			l0.05-0.051c0.1,0.102,0.15,0.102,0.2,0.051l1.95-1.351c0.05-0.05,0.1-0.1,0-0.2l0.05-0.05l0.55,0.8v0.051
			c-0.1-0.101-0.15-0.101-0.2-0.051l-0.899,0.602L102.125,63.275z"/>
		<path fill="#00467F" d="M100.675,59.375l-0.601-1.4c-0.051-0.148-0.1-0.199-0.2-0.148l-0.05-0.102l0.601-0.25l0.05,0.102
			c-0.05,0.05-0.05,0.1,0,0.25l0.95,2.148l-0.05,0.051c-0.1-0.149-0.15-0.149-0.2-0.149l-2.149,0.95
			c-0.101,0.05-0.101,0.1-0.051,0.25l-0.05,0.05l-0.95-2.101c-0.05-0.149-0.1-0.199-0.199-0.149l-0.051-0.101l0.601-0.25l0.05,0.101
			c-0.05,0.05-0.05,0.101,0,0.25l0.55,1.3l0.649-0.3l-0.35-0.75c-0.051-0.149-0.101-0.2-0.201-0.149l-0.049-0.101l0.6-0.25
			l0.05,0.101c-0.05,0.049-0.05,0.101,0,0.25l0.351,0.75L100.675,59.375z"/>
		<path fill="#00467F" d="M96.425,52.275h0.05c0,0.101,0.05,0.149,0.15,0.149l1.6-0.05c0.351,0,0.601-0.3,0.551-0.75
			c0-0.5-0.25-0.7-0.601-0.7l-1.601,0.05c-0.1,0-0.1,0.051-0.149,0.15h-0.101l-0.05-0.95h0.05c0,0.15,0.05,0.15,0.15,0.15
			l1.549-0.05c0.65,0,1.051,0.35,1.101,1.3c0.05,0.948-0.351,1.399-1,1.399l-1.55,0.049c-0.1,0-0.1,0.052-0.149,0.201h-0.05
			L96.425,52.275z"/>
		<path fill="#00467F" d="M99.225,49.225h-0.05c0-0.1,0-0.149-0.101-0.149l-2.35-0.351c-0.1,0-0.15,0-0.15,0.101h-0.05l0.15-1.05
			h0.05c0,0.1,0,0.1,0.05,0.1c0.1,0,1.701-0.9,1.951-0.9l0,0l-1.65-0.25c-0.1,0-0.149,0-0.149,0.101h-0.05l0.15-0.9h0.05
			c0,0.101,0,0.15,0.101,0.15l2.35,0.35c0.101,0,0.15,0,0.15-0.1h0.051l-0.15,0.95h-0.051c0-0.051,0-0.15-0.049-0.15
			c-0.101,0-1.601,0.9-2.101,1l0,0l1.8,0.3c0.1,0,0.149,0,0.149-0.1h0.05L99.225,49.225z"/>
		<path fill="#00467F" d="M99.975,45.425h-0.05c0.05-0.2,0-0.25-0.05-0.25l-2.25-0.75c-0.1-0.05-0.15,0-0.2,0.15h-0.05l0.35-1.05
			h0.051c-0.051,0.199,0,0.25,0.05,0.25l2.25,0.75c0.101,0.05,0.149,0,0.2-0.15h0.05L99.975,45.425z"/>
		<path fill="#00467F" d="M100.975,42.825l-0.05-0.05c0.05-0.101,0.05-0.15,0-0.2s-1.851-0.101-2.55-0.15c-0.1,0-0.2,0-0.25,0.05
			l-0.05-0.05l0.399-0.85l0.051,0.05c-0.051,0.1,0,0.15,0,0.15c0.1,0.05,1.399,0.1,2.05,0.149l0,0c-0.5-0.5-1.351-1.5-1.399-1.5
			c-0.05,0-0.05,0-0.15,0.101l-0.049-0.051l0.399-0.8l0.05,0.05c0,0.101,0,0.15,0.1,0.25c0.601,0.7,1.601,1.801,1.701,1.851
			c0.049,0,0.1,0,0.149-0.101l0.05,0.051L100.975,42.825z"/>
		<path fill="#00467F" d="M102.425,39.475l0.899-1.199c0.101-0.101,0.101-0.15,0.05-0.25l0.05-0.051l0.5,0.4l-0.05,0.05
			c-0.05-0.05-0.101,0-0.2,0.101l-1.4,1.899l-0.049-0.05c0.1-0.15,0.1-0.2,0-0.25l-1.9-1.45c-0.051-0.05-0.1-0.05-0.25,0.101
			l-0.051-0.051l1.4-1.85c0.1-0.1,0.1-0.15,0.051-0.25l0.049-0.05l0.5,0.399l-0.049,0.051c-0.051-0.051-0.101,0-0.201,0.149
			l-0.85,1.15l0.551,0.399l0.5-0.649c0.1-0.101,0.1-0.15,0.049-0.25l0.051-0.05l0.5,0.399l-0.051,0.05c-0.049,0-0.1,0-0.199,0.15
			l-0.5,0.65L102.425,39.475z"/>
		<path fill="#00467F" d="M104.475,37.625l-0.05-0.05c0.05-0.101,0.05-0.15,0-0.2l-1.601-1.75c-0.051-0.05-0.1-0.05-0.2,0
			l-0.05-0.05l1.199-1.101c0.551-0.5,1.051-0.55,1.4-0.199c0.25,0.3,0.301,0.699,0,1.1l0.899,0.25c0.25,0.1,0.351,0.15,0.45,0.05
			l0.05,0.05l-0.7,0.65l-0.05-0.05c0.05-0.05,0.101-0.101,0.05-0.15c0,0-0.05-0.05-0.15-0.05l-1-0.25l-0.449,0.4l0.649,0.699
			c0.05,0.051,0.101,0.051,0.2,0l0.05,0.051L104.475,37.625z M104.025,35.925l0.55-0.5c0.3-0.25,0.351-0.5,0.149-0.649
			c-0.149-0.15-0.399-0.15-0.649,0.1l-0.55,0.5L104.025,35.925z"/>
		<path fill="#00467F" d="M107.225,34.325h0.101v0.05c0.101,0.15,0.601,0,0.95-0.2c0.5-0.3,0.6-0.55,0.5-0.75
			c-0.301-0.5-1.851,0.9-2.4,0.05c-0.2-0.35-0.1-0.899,0.65-1.35c0.3-0.2,0.55-0.25,0.75-0.3c0.199-0.05,0.3-0.05,0.35-0.101
			c0.05-0.05,0.1-0.1,0.1-0.149h0.051l-0.051,0.8h-0.1c0,0,0-0.05-0.05-0.1c-0.05-0.101-0.399-0.101-0.851,0.149
			c-0.3,0.2-0.35,0.4-0.3,0.55c0.3,0.5,1.851-0.949,2.399,0c0.199,0.351,0.05,1-0.801,1.5c-0.25,0.15-0.5,0.25-0.699,0.301
			c-0.2,0.05-0.301,0.05-0.399,0.1c-0.05,0-0.05,0.05-0.05,0.1h-0.05L107.225,34.325z"/>
		<path fill="#00467F" d="M110.475,33.525l-0.05-0.051c0.149-0.1,0.2-0.149,0.149-0.199l-0.85-2.25
			c-0.051-0.101-0.101-0.101-0.25-0.051l-0.051-0.05l1-0.399l0.051,0.05c-0.15,0.1-0.201,0.149-0.15,0.2l0.9,2.199
			c0.049,0.101,0.1,0.101,0.25,0.051l0.049,0.05L110.475,33.525z"/>
		<path fill="#00467F" d="M113.175,32.525v-0.051c0.101-0.05,0.101-0.1,0.101-0.149l-0.5-2.101l-0.75,0.2
			c-0.15,0.05-0.2,0.05-0.2,0.15h-0.101l-0.149-0.65h0.101c-0.05,0.101,0.051,0.101,0.2,0.05l2.149-0.55
			c0.15-0.05,0.201-0.05,0.201-0.15h0.1l0.15,0.65h-0.101c-0.05-0.1-0.101-0.1-0.25-0.05l-0.75,0.2l0.5,2.1
			c0,0.101,0.05,0.101,0.2,0.101v0.05L113.175,32.525z"/>
		<path fill="#00467F" d="M117.525,31.875l-0.95,0.05v-0.05c0.101-0.05,0.149-0.05,0.149-0.15l-0.05-0.949l-1.101-1.4
			c-0.051-0.05-0.1-0.1-0.149-0.1v-0.05l1-0.05v0.05c-0.101,0-0.149,0.05-0.149,0.1c0,0.05,0.449,0.6,0.75,0.899
			c0.149-0.35,0.6-0.899,0.6-1c0-0.05-0.05-0.05-0.15-0.05v-0.05l0.95-0.05v0.05c-0.05,0-0.101,0.05-0.149,0.15l-0.9,1.5l0.05,0.949
			c0,0.101,0.05,0.101,0.149,0.15H117.525z"/>
		<path fill="#00467F" d="M125.275,30.175c0.949,0.351,1.3,1.101,1,1.851c-0.25,0.75-1,1.149-1.95,0.85c-0.95-0.35-1.3-1.1-1-1.85
			C123.575,30.275,124.325,29.825,125.275,30.175z M124.475,32.475c0.551,0.2,1-0.05,1.2-0.649c0.2-0.601,0-1.05-0.55-1.25
			s-1,0.05-1.2,0.649C123.725,31.825,123.925,32.275,124.475,32.475z"/>
		<path fill="#00467F" d="M126.425,33.675l0.05-0.05c0.15,0.05,0.2,0.05,0.25,0l1.15-2.1c0.05-0.101,0.05-0.101-0.15-0.25
			l0.051-0.051l2,1.101c0.1,0.05,0.149,0.05,0.199,0l0.101,0.05l-0.3,0.55l-0.101-0.05c0-0.1,0-0.1-0.149-0.2l-1.25-0.7
			l-0.351,0.601l0.8,0.45c0.15,0.05,0.2,0.1,0.25,0l0.101,0.05l-0.3,0.55l-0.101-0.05c0-0.101,0-0.101-0.149-0.2l-0.75-0.35
			l-0.5,0.899c-0.051,0.101-0.051,0.101,0.149,0.25l-0.05,0.05L126.425,33.675z"/>
		<path fill="#00467F" d="M135.775,38.175l-0.75,0.101v-0.051c0,0,0.05,0,0.05-0.05c0.149-0.1,0.101-0.45-0.149-0.75
			c-0.4-0.5-0.851-0.6-1.4-0.1c-0.449,0.35-0.5,0.899-0.1,1.35c0.25,0.3,0.6,0.4,0.75,0.3c0,0,0.051-0.05,0.051-0.1l0.049,0.05
			l-0.1,0.8h-0.05c0-0.05,0-0.1-0.05-0.1c-0.1-0.1-0.5-0.05-1.051-0.7c-0.649-0.75-0.5-1.6,0.051-2.1c0.75-0.65,1.65-0.3,2.199,0.3
			c0.201,0.25,0.301,0.45,0.351,0.6c0.05,0.15,0.05,0.25,0.101,0.301C135.675,38.075,135.725,38.075,135.775,38.175L135.775,38.175z
			"/>
		<path fill="#00467F" d="M134.075,40.275l0.05-0.051c0.05,0.051,0.15,0.051,0.2,0.051l2.45-0.25c0.1,0,0.149,0,0.199-0.051
			c0.051,0,0.051-0.05,0-0.149l0.051-0.05l0.55,0.949l-0.05,0.051c-0.051-0.101-0.101-0.101-0.15-0.101s-0.05,0.05-0.15,0.2
			l-1.5,1.9c-0.05,0.1-0.05,0.1-0.05,0.199l-0.101,0.051l-0.45-0.801l0.05-0.05c0.051,0.05,0.051,0.101,0.1,0.05l0.051-0.05
			l0.351-0.399l-0.55-1.051l-0.5,0.051c-0.05,0-0.1,0-0.1,0c-0.051,0-0.051,0.1,0,0.149v0.101L134.075,40.275z M135.975,41.475
			l0.75-0.899l0,0l-1.149,0.149L135.975,41.475z"/>
		<path fill="#00467F" d="M138.325,42.875c0.101-0.05,0.101-0.05,0.05-0.25l0.05-0.05l0.351,1l-0.051,0.05
			c-0.1-0.15-0.1-0.2-0.199-0.15l-2.051,0.7l0.45,1.351c0.05,0.149,0.101,0.199,0.2,0.149l0.05,0.101l-0.601,0.25l-0.051-0.101
			c0.051-0.05,0.051-0.1,0-0.25l-0.699-2.149h0.05c0.05,0.149,0.101,0.149,0.2,0.149L138.325,42.875z"/>
		<path fill="#00467F" d="M136.775,46.625h0.05c0.05,0.2,0.101,0.2,0.2,0.2l2.35-0.45c0.1,0,0.1-0.05,0.1-0.25h0.051l0.199,1.1
			h-0.05c-0.05-0.199-0.101-0.199-0.2-0.199l-2.35,0.449c-0.1,0-0.1,0.051-0.1,0.25h-0.051L136.775,46.625z"/>
		<path fill="#00467F" d="M137.125,48.475h0.05c0.05,0.2,0.05,0.2,0.149,0.2l2.351-0.149c0.101,0,0.101-0.051,0.101-0.25h0.05
			l0.149,2.3c0,0.149,0.051,0.2,0.101,0.2v0.1h-0.5v-0.1c0.101,0,0.101-0.101,0.101-0.2l-0.101-1.4l-0.7,0.05l0.05,0.9
			c0,0.15,0.05,0.2,0.101,0.2v0.1l-0.65,0.05v-0.1c0.05-0.05,0.1-0.1,0.05-0.25l-0.05-0.9l-1,0.051c-0.1,0-0.1,0.05-0.1,0.25h-0.051
			L137.125,48.475z"/>
		<path fill="#00467F" d="M139.925,53.575c-0.101,1-0.8,1.5-1.601,1.399s-1.35-0.75-1.25-1.75c0.101-1,0.8-1.5,1.601-1.399
			C139.475,51.925,140.075,52.575,139.925,53.575z M137.525,53.275c-0.051,0.601,0.25,0.949,0.85,1.051c0.6,0.1,1-0.2,1.1-0.801
			c0.051-0.601-0.25-0.949-0.85-1.051C137.975,52.375,137.625,52.675,137.525,53.275z"/>
		<path fill="#00467F" d="M136.725,55.625h0.051c0,0.1,0,0.148,0.1,0.2l2.25,0.75c0.1,0.05,0.1,0,0.2-0.101h0.05l-0.55,1.549
			c-0.25,0.701-0.649,1-1.101,0.852c-0.399-0.15-0.6-0.45-0.5-0.95l-0.949,0.2c-0.25,0.05-0.351,0.05-0.45,0.2l-0.05-0.052
			l0.3-0.898h0.05c0,0.05,0,0.148,0,0.148c0.05,0,0.05,0,0.2,0l1-0.25l0.2-0.549l-0.9-0.301c-0.1-0.05-0.15,0-0.2,0.1h-0.05
			L136.725,55.625z M137.975,56.875l-0.25,0.7c-0.149,0.399-0.05,0.6,0.15,0.649c0.2,0.049,0.4-0.051,0.55-0.399l0.25-0.7
			L137.975,56.875z"/>
		<path fill="#00467F" d="M135.425,59.175l0.05,0.05c-0.05,0.102-0.05,0.15,0.051,0.2l2.05,1.2c0.101,0.05,0.101,0.05,0.2-0.05
			l0.05,0.05l-0.55,0.898h-0.051c0.051-0.1,0.051-0.1,0-0.148c-0.1-0.05-1.899,0.2-2.149,0.148l0,0l1.45,0.852
			c0.1,0.05,0.1,0.05,0.199-0.05l0.051,0.05l-0.45,0.75l-0.05-0.05c0.05-0.101,0.05-0.15-0.051-0.2l-2.05-1.2
			c-0.101-0.05-0.101-0.05-0.2,0.05l-0.05-0.05l0.5-0.85l0.05,0.05c0,0.05-0.05,0.1,0,0.148c0.101,0.052,1.801-0.25,2.301-0.198l0,0
			l-1.601-0.9c-0.101-0.05-0.101-0.05-0.2,0.05l-0.05-0.05L135.425,59.175z"/>
		<path fill="#00467F" d="M133.325,62.475l0.05,0.051c-0.1,0.149-0.1,0.199-0.05,0.25l1.851,1.5c0.051,0.051,0.1,0.051,0.25-0.101
			l0.051,0.05l-0.701,0.852v-0.051c0.101-0.149,0.101-0.199,0.051-0.25l-1.85-1.5c-0.051-0.051-0.101-0.051-0.25,0.101l-0.051-0.05
			L133.325,62.475z"/>
		<path fill="#00467F" d="M132.225,63.825l0.051,0.05c-0.051,0.05-0.051,0.148,0,0.2l0.85,2.3c0.05,0.1,0.05,0.148,0.1,0.148
			c0,0,0.051,0,0.15-0.049l0.05,0.049l-0.8,0.75h-0.05c0.05-0.049,0.101-0.1,0.05-0.148c0,0-0.05-0.05-0.2-0.102l-2.2-1
			c-0.1-0.049-0.149-0.049-0.199,0l-0.051-0.049l0.65-0.601l0.05,0.05c-0.05,0.051-0.05,0.1-0.05,0.1s0.05,0.052,0.1,0.052
			l0.5,0.198l0.851-0.799l-0.2-0.451c0-0.049-0.05-0.049-0.05-0.1c-0.05-0.05-0.101-0.05-0.149,0l-0.05-0.05L132.225,63.825z
			 M131.575,65.975l1.101,0.551l0,0l-0.449-1.101L131.575,65.975z"/>
		<circle fill="#00467F" cx="98.375" cy="55.225" r="0.45"/>
		<path fill="#00467F" d="M106.475,67.425c-0.25,0-0.449,0.2-0.449,0.45s0.199,0.45,0.449,0.45s0.45-0.2,0.45-0.45
			C106.875,67.625,106.675,67.425,106.475,67.425z"/>
		<path fill="#00467F" d="M111.725,70.425c-0.25,0-0.449,0.2-0.449,0.45s0.199,0.45,0.449,0.45s0.45-0.2,0.45-0.45
			S111.975,70.425,111.725,70.425z"/>
		<path fill="#00467F" d="M124.575,70.225c-0.25,0-0.45,0.2-0.45,0.45s0.2,0.45,0.45,0.45s0.45-0.2,0.45-0.45
			S124.825,70.225,124.575,70.225z"/>
		<circle fill="#00467F" cx="129.125" cy="68.025" r="0.45"/>
		<circle fill="#00467F" cx="131.375" cy="35.175" r="0.45"/>
		<circle fill="#00467F" cx="121.075" cy="30.675" r="0.45"/>
		<g>
			<path fill="#00467F" d="M112.625,57.475c0.1,0,0.5,0,0.6,0c0.101,0,0.5,0.051,0.7,0.051c0.101,0,0.149,0.25,0.05,0.25
				c-0.649-0.051-0.399,0-1-0.101C112.375,57.675,112.625,57.475,112.625,57.475z"/>
			<path fill="#00467F" d="M114.925,57.575c0.149-0.052,1.899,0.198,2.05,0.35c0,0,0.101,0.05,0.051,0.15
				c-0.101,0.198-0.45-0.15-1.65-0.2c-0.25-0.05-0.6,0.05-0.6-0.15C114.725,57.625,114.825,57.575,114.925,57.575z"/>
		</g>
		<g>
			<g>
				<path fill="#00467F" d="M111.325,43.675c-0.101,0.05-0.101,0.3-0.101,0.4c0,0.05-0.25,0-0.199-0.05c0,0,0.05-0.45,0.1-0.601
					c-0.05,0,0.5,0.05,0.5,0c0-0.1-0.1-0.55-0.15-0.55c-0.05,0.05-0.149,0.6-0.149,0.6h-0.2c0,0,0.15-1,0.35-1
					c0.051,0,0.15-0.05,0.2,0.051c0.05,0.1,0.45,1.399,0.45,1.55c-0.05,0.05-0.3,0.1-0.3,0c0,0,0-0.25-0.101-0.351
					C111.625,43.675,111.425,43.625,111.325,43.675z"/>
			</g>
		</g>
		<g>
			<path fill="#00467F" d="M112.625,47.475c-0.05,0.15-0.4,0.051-0.7,0.051c-0.649,0-1.399,0.1-1.399-0.101
				c-0.051-0.3,0.8-0.149,1.1-0.149C112.125,47.275,112.725,47.175,112.625,47.475z"/>
			<path fill="#00467F" d="M113.625,47.425c-0.05,0.101-0.25,0.101-0.5,0.101c-0.1,0-0.1,0-0.15-0.101
				c0-0.149,0.25-0.149,0.551-0.149C113.625,47.275,113.675,47.375,113.625,47.425z"/>
			<path fill="#00467F" d="M114.875,47.475c-0.05,0.051-0.75,0.101-0.8-0.05c-0.05-0.149,0.3-0.2,0.601-0.149
				C115.025,47.275,114.975,47.425,114.875,47.475z"/>
			<path fill="#00467F" d="M117.275,47.975c-0.101,0.101-0.851-0.3-1.2-0.399c-0.25-0.05-0.45,0-0.7-0.05
				c-0.15-0.051-0.1-0.2,0.05-0.25C115.925,47.175,117.425,47.825,117.275,47.975z"/>
		</g>
		<g>
			<path fill="#00467F" d="M112.225,48.675c-0.05,0.15-0.449,0.101-0.699,0.101c-0.65,0-0.95,0-0.95-0.2
				c0-0.15,0.351-0.05,0.649-0.05C111.675,48.525,112.275,48.425,112.225,48.675z"/>
			<path fill="#00467F" d="M113.925,48.675c-0.05,0.15-0.45,0.101-0.7,0.101c-0.649,0-0.649,0-0.649-0.101
				c0-0.1,0.05-0.149,0.399-0.149C113.375,48.525,114.025,48.425,113.925,48.675z"/>
			<path fill="#00467F" d="M115.025,48.725c-0.101,0.15-0.301,0.051-0.551,0.051c-0.1,0-0.149,0-0.149-0.101
				c0-0.2,0.25-0.149,0.601-0.149C115.025,48.525,115.075,48.625,115.025,48.725z"/>
			<path fill="#00467F" d="M117.325,49.225c-0.05,0.2-0.399-0.149-0.75-0.25c-0.25-0.05-0.851-0.1-1.05-0.149
				c-0.15,0-0.15-0.2,0-0.2C116.275,48.525,117.375,49.025,117.325,49.225z"/>
		</g>
		<g>
			<path fill="#00467F" d="M117.425,50.475c0,0.301-0.55-0.05-0.899-0.1c-0.301-0.05-0.75-0.1-1.15-0.05c-0.15,0-0.15-0.25,0-0.25
				C115.725,50.025,117.425,50.275,117.425,50.475z"/>
			<path fill="#00467F" d="M114.775,50.175c-0.051,0.101-0.351,0.101-0.601,0.05c-0.101,0-0.149-0.05-0.149-0.1
				c0-0.15,0.149-0.15,0.449-0.15C114.825,49.925,114.825,50.075,114.775,50.175z"/>
			<path fill="#00467F" d="M112.425,50.075c-0.05,0.1-0.5,0.05-0.75,0c-0.649-0.101-1.149,0.2-1.149-0.101
				c0-0.199,0.649-0.149,0.949-0.149C111.925,49.925,112.575,49.825,112.425,50.075z"/>
			<path fill="#00467F" d="M113.575,50.125c-0.05,0.15-0.25,0.15-0.5,0.1c-0.101,0-0.149,0-0.149-0.1c0-0.2,0.25-0.2,0.6-0.2
				C113.575,49.975,113.625,50.025,113.575,50.125z"/>
		</g>
		<g>
			<path fill="#00467F" d="M114.175,42.075c0,0.2-0.45,0.1-0.75,0.149c-0.649,0.101-0.7,0.15-0.649,0
				C112.875,41.875,114.175,41.825,114.175,42.075z"/>
			<path fill="#00467F" d="M114.575,42.175c-0.05,0-0.101-0.1,0-0.149c0.25-0.2,0.7-0.051,0.75,0.05c0.101,0.1-0.05,0.2-0.101,0.2
				C115.075,42.225,114.675,42.225,114.575,42.175z"/>
			<path fill="#00467F" d="M117.225,42.825c-0.05,0.05-0.55-0.25-0.8-0.351c-0.399-0.149-0.8-0.1-0.8-0.3
				C115.625,41.775,117.575,42.475,117.225,42.825z"/>
		</g>
		<g>
			<path fill="#00467F" d="M114.025,44.825c-0.051,0.1-0.351,0-0.65,0.05c-0.3,0-0.5,0.1-0.55-0.1c0-0.15,0.3-0.101,0.649-0.101
				C113.825,44.625,114.175,44.575,114.025,44.825z"/>
			<path fill="#00467F" d="M114.375,44.875c-0.1,0-0.1-0.1,0-0.2c0.3-0.05,0.7,0,0.8,0c0.149,0.05,0.101,0.2-0.05,0.2
				C114.475,44.875,114.525,44.875,114.375,44.875z"/>
			<path fill="#00467F" d="M117.225,45.475c-0.05,0.051-0.399-0.149-0.699-0.199c-0.301-0.051-0.4-0.101-0.45-0.15
				c-0.149-0.05-0.05-0.2,0-0.2C116.175,44.875,117.525,45.225,117.225,45.475z"/>
			<path fill="#00467F" d="M115.875,44.875c-0.05,0.2-0.25,0.15-0.35,0.1c-0.051,0-0.101-0.1-0.051-0.149
				C115.575,44.725,115.875,44.825,115.875,44.875z"/>
		</g>
		<g>
			<path fill="#00467F" d="M113.275,43.525c0.1,0.199-0.25,0.199-0.351,0.199c-0.05,0-0.101-0.1-0.05-0.149
				C112.925,43.425,113.225,43.475,113.275,43.525z"/>
			<path fill="#00467F" d="M113.775,43.625c-0.051,0-0.051-0.1,0-0.2c0.3-0.1,1.05-0.05,1.1,0c0.2,0.101,0.1,0.25,0,0.25
				C114.425,43.625,113.875,43.725,113.775,43.625z"/>
			<path fill="#00467F" d="M116.575,43.975c-0.05,0.051-0.601-0.149-0.851-0.149c-0.3,0-0.449-0.05-0.449-0.15
				c0-0.2,0.449-0.149,0.8-0.1C116.425,43.675,116.775,43.775,116.575,43.975z"/>
			<path fill="#00467F" d="M117.275,44.125c-0.051,0.2-0.25,0.1-0.301,0.05c-0.05,0-0.1-0.149-0.05-0.2
				C116.975,43.875,117.275,44.025,117.275,44.125z"/>
		</g>
		<g>
			<path fill="#00467F" d="M110.675,45.875c0.399-0.1,0.649,0.4,0.101,0.3c-0.2-0.05-0.2-0.1-0.2-0.149
				C110.575,45.975,110.575,45.875,110.675,45.875z"/>
			<path fill="#00467F" d="M113.575,46.025c-0.05,0.149-0.899,0.1-1.149,0.1c-0.65,0-0.9,0-0.949-0.1c0-0.15,0.35-0.15,0.699-0.15
				C112.475,45.875,113.675,45.775,113.575,46.025z"/>
			<path fill="#00467F" d="M114.925,46.125c-0.05,0.05-0.101,0.05-0.399,0.05s-0.5,0-0.5-0.1c0-0.15,0.3-0.15,0.6-0.15
				C114.975,45.925,114.975,46.025,114.925,46.125z"/>
			<path fill="#00467F" d="M116.525,46.425c-0.2,0.15-0.301-0.1-0.65-0.149c-0.25-0.051-0.55-0.051-0.75-0.051
				c-0.15-0.05-0.1-0.199,0.05-0.25C116.025,45.925,116.725,46.275,116.525,46.425z"/>
			<path fill="#00467F" d="M117.175,46.725c0,0.15-0.149,0.2-0.3,0.051c-0.05,0-0.1-0.15-0.05-0.2
				C116.875,46.475,117.125,46.575,117.175,46.725z"/>
		</g>
		<g>
			<path fill="#00467F" d="M117.125,51.725c-0.1,0.2-0.7-0.1-1.1-0.148c-0.301,0-0.45,0-0.5,0c-0.15-0.051-0.15-0.2,0-0.25
				C116.025,51.275,117.225,51.525,117.125,51.725z"/>
			<path fill="#00467F" d="M114.325,51.475c-0.05,0.102-0.25,0.051-0.5,0.051c-0.101,0-0.45,0.1-0.55,0
				c-0.051-0.2,0.449-0.2,0.6-0.2C114.225,51.275,114.375,51.375,114.325,51.475z"/>
			<path fill="#00467F" d="M112.575,51.475c-0.101,0.15-0.95,0-1.2-0.05c-0.5,0-0.8,0.15-0.8-0.1c0.101-0.15,0.899-0.101,1.101-0.05
				C112.125,51.275,112.675,51.225,112.575,51.475z"/>
			<path fill="#00467F" d="M115.175,51.325c0.101,0.2-0.25,0.2-0.351,0.2c-0.051,0-0.1-0.101-0.051-0.15
				C114.875,51.275,115.125,51.275,115.175,51.325z"/>
		</g>
		<g>
			<path fill="#00467F" d="M120.225,42.125c0.351,0,0.4,0.1,0.4,0.2c-0.05,0.1-0.5,0.05-0.65,0.05c-0.449,0-0.649,0.3-0.85,0.25
				s-0.1-0.2,0.1-0.3C119.425,42.225,119.825,42.125,120.225,42.125z"/>
			<path fill="#00467F" d="M121.175,42.075c0,0,0.55,0.05,0.649,0.1c0.15,0.101,0.101,0.2,0.05,0.25s-0.75-0.05-0.8-0.05
				c-0.051,0-0.1-0.05-0.1-0.1C121.025,42.125,121.025,42.075,121.175,42.075z"/>
			<path fill="#00467F" d="M125.925,42.175c0.149,0.05,0.2,0.3,0.05,0.3c-0.55,0.101-0.649,0.051-0.699-0.05
				C125.125,42.125,125.875,42.175,125.925,42.175z"/>
			<path fill="#00467F" d="M123.925,42.275c0,0,0.649,0,0.75,0.05c0.05,0,0.149,0.149,0.05,0.25c-0.05,0.1-0.85,0.1-0.949-0.2
				C123.825,42.375,123.775,42.275,123.925,42.275z"/>
			<path fill="#00467F" d="M122.525,42.225c0,0,0.55,0.051,0.699,0.051c0.051,0,0.2,0.1,0.15,0.199
				c-0.05,0.101-0.85,0.101-0.95-0.199C122.425,42.325,122.375,42.225,122.525,42.225z"/>
		</g>
		<g>
			<path fill="#00467F" d="M121.075,43.575c0.05-0.2,0.55-0.15,0.649-0.05c0,0,0.051,0.1-0.05,0.149
				C121.425,43.825,121.025,43.675,121.075,43.575z"/>
			<path fill="#00467F" d="M122.475,43.625c0.15-0.1,0.75,0,0.551,0.2c-0.051,0-0.45,0.1-0.601,0
				C122.375,43.875,122.325,43.775,122.475,43.625z"/>
			<path fill="#00467F" d="M124.425,43.725c0.2,0.25-0.5,0.25-0.601,0.25c-0.1,0-0.25-0.05-0.301-0.1
				C123.525,43.625,124.275,43.575,124.425,43.725z"/>
			<path fill="#00467F" d="M125.975,43.625c0.101,0.35-0.5,0.3-0.55,0.3c-0.101,0-0.25,0-0.3-0.1
				C125.075,43.575,125.875,43.425,125.975,43.625z"/>
			<path fill="#00467F" d="M120.225,43.325c0.15,0,0.45,0,0.45,0.149c-0.101,0.2-0.7,0.15-0.851,0.2
				c-0.551,0.101-0.649,0.3-0.85,0.25c-0.201-0.05-0.101-0.2,0.1-0.3C119.325,43.525,119.825,43.325,120.225,43.325z"/>
		</g>
		<g>
			<path fill="#00467F" d="M122.825,44.925c0,0.101-0.05,0.15-0.05,0.15c-0.051,0.05-0.601,0.05-0.7-0.15c0-0.05,0-0.2,0.149-0.149
				C122.425,44.825,122.825,44.675,122.825,44.925z"/>
			<path fill="#00467F" d="M123.425,44.825c0.05,0,1,0,0.75,0.25c-0.05,0.05-0.101,0.1-0.2,0.1c-0.25,0-0.649-0.05-0.699-0.1
				c-0.051-0.05-0.051-0.101,0-0.2C123.275,44.875,123.325,44.825,123.425,44.825z"/>
			<path fill="#00467F" d="M124.725,44.825c0.7,0.149,1.2-0.101,1.25,0.1c0.051,0.15,0,0.2,0,0.2c-0.1,0.05-1.449,0.1-1.449-0.1
				C124.475,44.875,124.625,44.825,124.725,44.825z"/>
			<path fill="#00467F" d="M121.625,44.775c0.15,0.25-0.35,0.199-0.4,0.199c-0.05,0-0.199-0.05-0.199-0.1
				C120.975,44.625,121.475,44.625,121.625,44.775z"/>
			<path fill="#00467F" d="M120.025,44.625c0.149,0,0.35-0.05,0.449,0.15c-0.149,0.25-0.399,0.1-0.85,0.199
				c-0.55,0.051-0.55,0.2-0.65,0.101c-0.1-0.101,0-0.2,0.2-0.3C119.375,44.675,119.625,44.625,120.025,44.625z"/>
		</g>
		<g>
			<path fill="#00467F" d="M120.775,45.975c0.05,0,0.25,0,0.35,0.101c0.05,0.05,0.05,0.149,0,0.2c-0.65,0.1-0.65-0.051-0.65-0.051
				C120.425,45.975,120.675,45.975,120.775,45.975z"/>
			<path fill="#00467F" d="M125.975,46.125c0.301,0.15-0.199,0.3-0.55,0.2c-0.05,0-0.101-0.05-0.101-0.101
				C125.275,46.075,125.825,46.025,125.975,46.125z"/>
			<path fill="#00467F" d="M122.175,45.975c0.149,0.051,0.149,0.25,0,0.301c-0.05,0-0.7,0.1-0.7-0.101
				C121.475,45.875,122.125,45.975,122.175,45.975z"/>
			<path fill="#00467F" d="M125.075,46.175c0.05,0.2-0.149,0.2-0.3,0.15c-0.25,0-0.9,0.05-0.851-0.101
				c0.05-0.149,0.3-0.05,0.351-0.1C124.475,46.075,125.025,46.075,125.075,46.175z"/>
			<path fill="#00467F" d="M123.425,46.325c-0.05,0.149-0.75,0.05-0.649-0.15C122.775,46.075,123.475,45.975,123.425,46.325z"/>
			<path fill="#00467F" d="M119.675,45.875c0.149,0,0.45,0,0.45,0.2c-0.2,0.149-0.4,0.05-0.85,0.149c-0.4,0.101-0.5,0.15-0.45-0.05
				C118.825,46.025,119.275,45.875,119.675,45.875z"/>
		</g>
		<g>
			<path fill="#00467F" d="M120.625,47.325c0,0,0.55-0.05,0.7,0.05c0.05,0.05,0.149,0.1,0.05,0.25c-0.05,0.1-0.85,0.1-0.85-0.1
				C120.575,47.425,120.525,47.325,120.625,47.325z"/>
			<path fill="#00467F" d="M122.025,47.425c0.199-0.05,0.8,0.101,0.55,0.3c-0.05,0.051-0.5,0-0.649-0.1
				C121.875,47.575,121.825,47.475,122.025,47.425z"/>
			<path fill="#00467F" d="M123.175,47.475c0.149-0.05,0.7,0.101,0.45,0.25c-0.05,0.051-0.4,0.051-0.5,0
				C123.125,47.675,123.025,47.525,123.175,47.475z"/>
			<path fill="#00467F" d="M124.725,47.575c-0.199,0.05-0.449,0.1-0.5,0.2c0,0.1,0.15,0.1,0.551,0.1c0.199,0,0.8,0.1,0.949,0.05
				c0.15-0.05,0.15-0.2,0.101-0.2C125.525,47.625,125.225,47.475,124.725,47.575z"/>
			<path fill="#00467F" d="M119.725,47.325c0.15,0,0.45-0.101,0.4,0.149c-0.15,0.2-0.4,0.15-0.85,0.2c-0.4,0.101-0.5,0.15-0.5-0.05
				C118.875,47.475,119.375,47.325,119.725,47.325z"/>
		</g>
		<g>
			<g>
				<path fill="#00467F" d="M120.825,48.925c0,0,0.3,0,0.351,0c0.149,0,0.1,0.2,0.1,0.25s-0.25,0.05-0.449,0.05
					c-0.1,0-0.25-0.05-0.25-0.199C120.525,48.875,120.675,48.925,120.825,48.925z"/>
			</g>
			<g>
				<path fill="#00467F" d="M121.875,48.925c0.05,0,0.9,0,0.7,0.25c-0.05,0.05-0.101,0.101-0.149,0.101
					c-0.199,0-0.601-0.051-0.65-0.101c-0.049-0.05-0.049-0.1,0-0.149C121.775,48.975,121.825,48.925,121.875,48.925z"/>
			</g>
			<path fill="#00467F" d="M123.175,48.975c0.149-0.05,0.7,0.15,0.5,0.351c-0.05,0-0.45,0-0.601-0.101
				C123.075,49.125,123.025,49.025,123.175,48.975z"/>
			<path fill="#00467F" d="M124.375,49.075c0.05,0,1,0,0.75,0.25c-0.05,0.05-0.1,0.1-0.2,0.1c-0.25,0-0.649-0.05-0.7-0.1
				c-0.05-0.05-0.05-0.101,0-0.2C124.225,49.125,124.325,49.075,124.375,49.075z"/>
			<path fill="#00467F" d="M119.675,48.825c0.2,0,0.5-0.101,0.45,0.149c-0.15,0.2-0.3,0.101-0.75,0.2c-0.4,0.101-0.5,0.15-0.5-0.05
				C118.975,48.975,119.275,48.875,119.675,48.825z"/>
			<path fill="#00467F" d="M125.575,49.125c0.149-0.05,0.7,0.1,0.45,0.25c-0.051,0.05-0.4,0.05-0.5,0
				C125.475,49.375,125.425,49.225,125.575,49.125z"/>
		</g>
		<g>
			<g>
				<path fill="#00467F" d="M122.425,50.375c0.05,0,0.899,0,0.7,0.25c-0.05,0.05-0.1,0.1-0.15,0.1c-0.199,0-0.6-0.05-0.649-0.1
					s-0.05-0.1,0-0.15C122.325,50.425,122.375,50.425,122.425,50.375z"/>
			</g>
			<g>
				<path fill="#00467F" d="M123.825,50.525c0.25-0.051,0.75,0.05,0.7,0.25c-0.051,0.149-0.2,0.05-0.301,0.05
					c-0.199,0-0.75,0.1-0.699-0.15C123.575,50.575,123.775,50.525,123.825,50.525z"/>
			</g>
			<path fill="#00467F" d="M124.875,50.825c0,0.149,0.65,0.35,0.65,0.1C125.525,50.825,124.975,50.475,124.875,50.825z"/>
			<g>
				<path fill="#00467F" d="M121.725,50.375c0,0-0.449-0.1-0.649-0.05c-0.05,0-0.149,0.1-0.101,0.2
					c0.049,0.1,0.75,0.149,0.801-0.051C121.775,50.475,121.825,50.425,121.725,50.375z"/>
			</g>
			<path fill="#00467F" d="M119.975,50.275c0.15,0,0.75,0,0.75,0.25c-0.1,0.199-0.55,0-1.149,0.1c-0.399,0.05-0.5,0.15-0.5-0.05
				S119.575,50.275,119.975,50.275z"/>
		</g>
		<g>
			<path fill="#00467F" d="M121.375,51.675c0.2-0.05,0.85,0.05,0.6,0.3c-0.05,0.051-0.55,0-0.699-0.1
				C121.275,51.825,121.225,51.725,121.375,51.675z"/>
			<g>
				<path fill="#00467F" d="M122.725,51.825c0.15-0.052,0.7,0.1,0.45,0.25c-0.05,0.05-0.45,0-0.55-0.101
					C122.625,51.975,122.575,51.875,122.725,51.825z"/>
			</g>
			<g>
				<path fill="#00467F" d="M124.375,52.125c0.15,0.25-0.45,0.2-0.5,0.2s-0.2-0.052-0.2-0.15
					C123.725,51.925,124.275,51.925,124.375,52.125z"/>
			</g>
			<path fill="#00467F" d="M124.775,52.275c0,0.149,0.399,0.25,0.399,0C125.175,52.225,124.825,51.975,124.775,52.275z"/>
			<path fill="#00467F" d="M119.175,51.725c0.05,0,1.601-0.25,1.5,0.051c0,0.051,0.05,0.101-0.8,0.149c-0.2,0-0.85,0.15-0.9,0.101
				C119.025,51.975,118.925,51.825,119.175,51.725z"/>
		</g>
		<g>
			<path fill="#00467F" d="M120.925,54.225c0,0,0.55-0.05,0.7,0.051c0.05,0.051,0.15,0.101,0.05,0.25
				c-0.05,0.101-0.851,0.051-0.851-0.149C120.825,54.375,120.775,54.275,120.925,54.225z"/>
			<g>
				<path fill="#00467F" d="M122.425,54.425c0.05,0,0.899,0.05,0.649,0.25c-0.051,0.05-0.1,0.05-0.149,0.05
					c-0.2,0-0.601-0.05-0.649-0.1s-0.051-0.102,0-0.15C122.275,54.475,122.325,54.425,122.425,54.425z"/>
			</g>
			<path fill="#00467F" d="M123.975,54.875c-0.25-0.05-0.6-0.15-0.55-0.3c0.05-0.101,0.3,0.05,0.399,0
				C124.325,54.575,124.375,54.975,123.975,54.875z"/>
			<path fill="#00467F" d="M125.225,55.025c-0.25,0-0.6-0.101-0.6-0.25c0.05-0.149,0.25,0,0.3-0.051
				C125.525,54.525,125.625,55.025,125.225,55.025z"/>
			<path fill="#00467F" d="M120.225,54.325c0.051,0.149-0.199,0.149-0.6,0.1c-0.4,0-0.7,0.351-0.8,0.101
				c-0.05-0.101,0.05-0.149,0.25-0.25C119.325,54.225,120.225,54.175,120.225,54.325z"/>
		</g>
		<g>
			<g>
				<path fill="#00467F" d="M121.175,52.925c0.05,0,0.649,0,0.5,0.2c0,0.05-0.101,0.1-0.149,0.05c-0.15,0-0.45-0.05-0.5-0.05
					c-0.051-0.05,0-0.102,0-0.15C121.075,52.975,121.125,52.975,121.175,52.925z"/>
			</g>
			<path fill="#00467F" d="M122.175,53.025c0.149-0.051,1.05,0.051,0.8,0.351c-0.05,0-0.75-0.05-0.85-0.149
				C122.075,53.225,122.025,53.075,122.175,53.025z"/>
			<path fill="#00467F" d="M124.125,53.275c0.15,0,0.8,0.101,0.75,0.351c0,0.05-0.25,0.05-0.35,0
				c-0.351-0.101-0.551-0.149-0.851-0.149c-0.101,0-0.101-0.101-0.101-0.201C123.675,53.225,124.025,53.275,124.125,53.275z"/>
			<path fill="#00467F" d="M120.525,53.075c0,0.25-0.351,0.149-0.75,0.149c-0.4,0-0.7,0.299-0.801,0.049
				c-0.05-0.1,0.051-0.148,0.25-0.25C119.425,52.925,120.475,52.925,120.525,53.075z"/>
		</g>
		<g>
			<path fill="#00467F" d="M124.725,55.775c0.051,0,1,0.051,0.7,0.301c-0.05,0.05-0.101,0.1-0.2,0.1c-0.25,0-0.649-0.05-0.699-0.15
				c-0.051-0.049-0.051-0.1,0-0.198C124.575,55.825,124.675,55.775,124.725,55.775z"/>
			<path fill="#00467F" d="M124.075,55.975c-0.101,0.15-0.75,0.051-0.649-0.199C123.475,55.725,124.175,55.625,124.075,55.975z"/>
			<g>
				<path fill="#00467F" d="M122.375,55.575c0.05,0,0.9,0.05,0.65,0.25c-0.051,0.05-0.101,0.05-0.15,0.05
					c-0.2,0-0.6-0.05-0.65-0.102c-0.05-0.049-0.05-0.1,0-0.148C122.275,55.576,122.325,55.575,122.375,55.575z"/>
			</g>
			<path fill="#00467F" d="M121.575,55.525c0.149,0.25-0.351,0.199-0.399,0.149c-0.05,0-0.199-0.05-0.199-0.1
				C120.925,55.325,121.475,55.325,121.575,55.525z"/>
			<path fill="#00467F" d="M119.775,55.425c0.149,0,0.449-0.1,0.449,0.15c-0.149,0.198-0.399,0.1-0.85,0.198
				c-0.4,0.102-0.5,0.15-0.5-0.049C118.925,55.575,119.375,55.425,119.775,55.425z"/>
		</g>
		<path fill="#00467F" d="M119.125,56.775c0,0,0.45-0.149,0.7-0.101c0.05,0,0.101,0.05,0.05,0.2c-0.2,0-0.7,0.05-0.8,0.148
			C119.075,57.025,119.025,56.825,119.125,56.775z"/>
		<g>
			<path fill="#00467F" d="M113.475,52.625c0.25-0.05,0.801,0.25,0.2,0.3c-0.05,0-0.399,0-0.45-0.05
				C113.025,52.675,113.425,52.625,113.475,52.625z"/>
			<path fill="#00467F" d="M112.775,52.775c0,0.149-0.65,0.149-1.2,0.101c-0.649-0.05-1,0-1-0.149c0.05-0.25,0.649-0.101,0.95-0.051
				C111.975,52.675,112.775,52.475,112.775,52.775z"/>
			<path fill="#00467F" d="M116.375,53.025c-0.05,0.25-0.95-0.051-1.35-0.101c-0.301,0-0.551,0-0.601-0.05
				c-0.149-0.05-0.149-0.2,0-0.25C114.725,52.575,116.375,52.825,116.375,53.025z"/>
			<path fill="#00467F" d="M117.175,53.475c-0.05,0.102-0.2,0-0.399-0.05c-0.101,0-0.2-0.05-0.15-0.2c0.1-0.148,0.3,0,0.4,0.051
				C117.175,53.325,117.225,53.425,117.175,53.475z"/>
		</g>
		<g>
			<path fill="#00467F" d="M115.575,55.625c0,0.2-0.95-0.102-1.399-0.102c-0.3,0-0.8,0-0.851,0c-0.149,0-0.149-0.25,0-0.25
				C113.825,55.175,115.575,55.325,115.575,55.625z"/>
			<path fill="#00467F" d="M112.825,55.425c0,0.101-0.601,0.101-1.2,0.05c-1,0-1.05-0.05-1-0.199c0.05-0.199,0.6-0.149,0.95-0.149
				C112.025,55.125,112.825,55.125,112.825,55.425z"/>
			<path fill="#00467F" d="M117.225,56.125c-0.1,0.1-0.399-0.15-0.649-0.15c-0.101,0-0.399-0.05-0.351-0.148
				c0-0.15,0.25-0.15,0.551-0.051C117.075,55.825,117.325,55.975,117.225,56.125z"/>
		</g>
		<g>
			<path fill="#00467F" d="M116.325,54.425c-0.05,0.351-0.399-0.05-1.351-0.1c-0.3,0-0.55,0-0.6-0.052
				c-0.15-0.049-0.15-0.198,0-0.25C114.875,53.925,116.375,54.175,116.325,54.425z"/>
			<path fill="#00467F" d="M113.575,53.925c0.25-0.05,0.851,0.25,0.2,0.3c-0.051,0-0.4,0-0.45-0.05
				C113.075,53.975,113.475,53.925,113.575,53.925z"/>
			<path fill="#00467F" d="M112.775,54.025c0,0.199-1.051,0.101-1.301,0.051c-0.649-0.051-0.899,0.05-0.899-0.2
				c0.05-0.25,0.649-0.101,0.95-0.05C111.975,53.875,112.775,53.725,112.775,54.025z"/>
			<path fill="#00467F" d="M116.925,54.525c0.25,0.051,0.601,0.601,0.05,0.351c-0.05,0-0.35-0.149-0.35-0.2
				C116.475,54.375,116.875,54.525,116.925,54.525z"/>
		</g>
		<g>
			<path fill="#00467F" d="M117.125,59.175c0.05,0,0.15,0,0.05,0.15c-0.101,0.149-1.75-0.15-1.8-0.15c-0.15-0.05-0.15-0.05-0.15-0.2
				c0.051-0.1,0.15-0.05,0.2-0.05S117.075,59.175,117.125,59.175z"/>
			<path fill="#00467F" d="M114.675,58.975c-0.05,0.102-0.8,0.102-0.75-0.05c0-0.2,0.2-0.1,0.5-0.1S114.725,58.925,114.675,58.975z"
				/>
		</g>
		<path fill="#00467F" d="M119.925,58.975c0.149,0,0.3-0.1,0.25,0.15c-0.05,0.148-0.25,0.1-0.7,0.2
			c-0.399,0.1-0.5,0.198-0.449-0.052C119.075,59.125,119.525,58.975,119.925,58.975z"/>
		<path fill="#00467F" d="M119.875,57.775c0.15,0,0.35-0.051,0.3,0.149c-0.101,0.101-0.351,0.05-0.75,0.15
			c-0.399,0.1-0.45,0.198-0.45,0C119.025,57.925,119.525,57.775,119.875,57.775z"/>
		<g>
			<g>
				<path fill="#00467F" d="M110.675,42.225c0,0-0.05,0.101-0.05,0.301c0,0.199,0,0.399,0,0.699v1.2h0.05
					c-0.05-0.05-0.05-1.2-0.05-1.2c0-0.25,0-0.5,0-0.699C110.625,42.375,110.675,42.275,110.675,42.225L110.675,42.225
					c0.351-0.05,1.351-0.199,1.55-0.1c0.051,0.05,0.101,0.35,0.101,0.75c0,0.6-0.05,1.35-0.101,1.4c0,0.05-0.35,0.1-0.75,0.1
					c0.351,0,0.7-0.05,0.75-0.1c0.051-0.051,0.101-0.801,0.101-1.4c0-0.4,0-0.7-0.101-0.75
					C111.975,42.025,111.025,42.175,110.675,42.225z M110.675,42.225L110.675,42.225L110.675,42.225z M110.675,44.425
					c0.101,0.05,0.45,0.05,0.8,0C111.175,44.425,110.825,44.425,110.675,44.425L110.675,44.425z"/>
			</g>
			<g>
				<path fill="#00467F" d="M110.625,42.125c-0.15,0.05-0.15,0.1-0.1,1.05l0,0v0.65v0.6c0.05,0.2,0.25,0.2,0.449,0.15l0.351-0.05
					h0.351c0.649,0,0.75,0,0.801-0.15v-0.4l-0.051-0.8c0.051-1.1-0.101-1.149-0.15-1.2
					C111.975,41.875,110.925,42.075,110.625,42.125z M112.175,42.275L112.175,42.275c0,0.05,0,0.25,0,0.6c0,0.1,0,0.2,0,0.3
					l0.05,0.851c0,0,0,0.149,0,0.199c-0.1,0-0.55,0.051-0.55,0.051h-0.351l-0.35,0.05h-0.201c0.051,0,0.051-0.3,0.051-0.45
					c0-0.05,0-0.75,0-0.75l0,0c0,0,0-0.7,0-0.8C111.225,42.275,112.025,42.175,112.175,42.275z"/>
			</g>
		</g>
		<path fill="#00467F" d="M141.575,49.675c-0.2-1.25-0.25-2.3-0.25-3.2c0-0.899-0.05-1.5-0.25-1.899v0.05l-1.899-4.6l0,0
			c-0.4-1.351-3.65-5.2-3.851-5.4c-0.399-0.6-2.601-2.25-3.25-2.6l-2.45-1.7c-1-0.7-2.6-1.35-3.95-1.8l-1.5-0.5
			c-1.95-0.65-5-0.75-5.399-0.7c-0.15,0-0.95,0-1.101,0c-0.399-0.05-3.45,0.05-5.3,0.75l-1.15,0.4c-1.449,0.4-2.8,0.8-3.8,1.55
			c0,0-2.75,1.899-2.851,2c-0.649,0.35-3.5,2.399-3.85,2.949v-0.05c-0.15,0.2-3.101,3.7-3.5,5.05l0,0l-1.9,4.65v-0.05
			c-0.2,0.399-0.149,1.149-0.2,2.05c0,0.85-0.1,1.8-0.3,3.05c-0.149,1-0.05,1.9,0.101,2.95c0.149,1.05,0.149,2.35,0.35,3.25
			c0.15,0.8,0.4,1.5,0.45,2c0.25,1.25,0.9,2.95,1.25,3.398c0.25,0.352,0.7,0.951,0.7,0.951c0.399,0.5,0.851,1.149,1.101,1.601
			c0.3,0.448,0.399,0.75,0.6,1.1c0.3,0.55,0.6,1.05,0.9,1.5c0.3,0.45,0.649,0.851,1.1,1.2c0.1,0.1,1.15,0.8,1.65,1.1
			c0.6,0.4,0.75,0.5,0.899,0.602l0.351,0.35c1,1,1.75,1.801,2.399,2.15c0.25,0.148,0.899,0.3,1.101,0.3s0.399-0.05,0.55-0.149
			c0.25-0.149,0.45-0.399,0.55-0.851c0-0.05,0.15-0.351,0.3-0.7c0.2,0.051,0.5,0.301,0.7,0.5l-0.2,0.6
			c-0.101,0.4-0.05,0.802,0.2,1.15c1.05,1.4,5.05,1.9,8.5,1.801c3.55,0.101,8.05-0.951,8.6-2.301c0.101-0.25,0.051-0.55-0.149-0.75
			c-0.05-0.05-0.101-0.15-0.149-0.199c0-0.051,0.051-0.051,0.1-0.101c0.15-0.101,0.351,0,0.451-0.05l0,0
			c0.149,0.25,0.299,0.55,0.449,0.85c0.051,0.15,0.2,0.2,0.35,0.25c1.051,0.15,4.351-2.75,4.4-2.8c0.1-0.101,0.75-0.649,1.301-1.05
			c0.5-0.301,0.899-0.602,1.049-0.7c0.9-0.75,1.551-1.601,2.201-2.7c0.449-0.8,0.949-1.65,1.699-2.699l0.051-0.101
			c0.699-0.95,1.699-2.899,1.85-4.25c0.05-0.5,0.199-1.2,0.351-2C141.425,54.025,141.875,51.675,141.575,49.675z M109.975,70.625
			c-0.149-0.15-0.399-0.3-0.699-0.4c0.699-1.648,1-2.449,1.1-2.85v-0.05v-0.052l0,0c0-0.049,0-0.049,0-0.1l-0.15-0.3
			c-0.1-0.149-0.3-0.45-0.3-0.7c0-0.35,0.101-0.3,0.25-0.3s0.851,0.149,1.3,0.399c0.351,0.149,0.601,0.5,0.75,0.699
			c0.051,0.051,0.051,0.2-0.05,0.301s-0.149,0.101-0.351,0.199c-0.2,0.102-0.551,0.352-0.6,0.4c-0.4,0.148-0.701,0.85-1.101,2.1
			c0,0.051,0,0.051-0.05,0.102c-0.051,0.148-0.1,0.25-0.1,0.398C110.025,70.475,109.975,70.525,109.975,70.625z M109.575,66.525
			c-0.25-0.149-0.45-0.25-0.8-0.449c-0.5-0.352-1.65-1.301-2.2-1.602c-0.351-0.199-0.399-0.398-0.8-0.85
			c-0.351-0.4-0.75-0.8-1.101-1.05c-0.45-0.351-1.2-1.5-1.45-1.9c-0.899-1.45-2.3-4.2-2.6-6.95c-0.05-0.35-0.05-1.25-0.05-2.05
			c0-0.7,0-1.3-0.05-1.55c0.05-0.55,0.199-2.05,0.35-2.45c0.1-0.3,0.2-0.85,0.3-1.35c0.101-0.4,0.2-1,0.3-1.25
			c0,0,0.4-1.15,0.65-1.65l1.25-2.35c0,0,0.65-1.351,1.15-1.851l0.5-0.5c0.5-0.55,1.05-1.149,1.55-1.5c0.8-0.6,2.05-1.449,3.2-2
			l1.5-0.75c0.55-0.25,0.85-0.399,1.3-0.55c0.05,0,3.05-0.95,5.101-1.1c-0.199,0.45-0.3,0.85-0.351,1.05c0,0-0.45,0.1-1.101,0.1
			c-0.35,0-1.399,0.2-1.399,0.2c0.75,1.101,1.351,1.8,1.7,2.101c0,0-0.351,2.149-0.351,2.399c0.05,0,1.149-0.6,1.55-0.8
			c0.351-0.2,0.801-0.35,0.851-0.35c0,0,1.05,0.449,1.3,0.6c0.6,0.35,0.95,0.55,1.1,0.6v-0.05c0,0-0.55-2.25-0.55-2.399
			c0,0,0.3-0.301,0.45-0.5c0.3-0.4,0.65-0.65,0.85-0.9c0.2-0.25,0.601-0.65,0.601-0.7c0,0-2.45-0.3-2.601-0.35
			c0,0-0.25-0.55-0.449-1c0.5,0.05,0.8,0.1,1.399,0.149h0.05c1.45,0.25,3.101,0.851,3.851,1.15c0,0,0.601,0.25,0.649,0.25
			s1.051,0.45,1.051,0.45c0.699,0.35,1.3,0.75,1.55,0.95l0.351,0.25c0.75,0.55,2.399,1.6,2.649,2.05l0.399,0.55
			c0.25,0.3,0.4,0.7,0.5,1.05c0.25,0.55,0.75,1.25,1.301,1.851c0.35,0.449,0.699,0.85,0.899,1.199c0,0,0.649,0.95,0.8,1.801
			c0.15,1.1,0.45,2.75,0.601,3.25c0.8,2.649,0.55,4.05,0.25,5.449c-0.101,0.45-0.3,1.051-0.351,1.45
			c-0.05,0.45-0.149,1.05-0.449,1.65c-0.101,0.25-0.351,0.8-0.45,1.1c-0.149,0.5-0.3,1-0.601,1.4c-0.1,0.149-0.3,0.5-0.6,0.948
			c-0.7,1.102-1.7,2.75-2.6,3.852c-0.301,0.35-1.051,0.95-1.65,1.45c-0.4,0.3-0.7,0.6-0.9,0.75c-0.25,0.25-0.75,0.6-1.199,0.948
			c0-0.049,0-0.1,0-0.1c0-0.05,0-0.1-0.051-0.199c-0.05-0.149-0.149-0.301-0.449-0.399c-0.351-0.101-0.65,0.05-1.101,0.25
			c-0.3,0.1-0.7,0.3-1.149,0.75c-0.2,0.149-0.5,0.448-0.4,0.698c0.05,0.15,0.25,0.352,0.45,0.451
			c-1.05,0.299-2.101,0.649-2.45,0.699c-0.25,0.051-1.1,0.301-1.65,0.4c-0.6,0.1-1.25,0.199-1.55,0.199
			c-1.3,0.051-3.149-0.449-3.55-0.649l0,0l0,0c-0.9-0.351-2.05-0.75-2.85-0.95h0.05c0.3-0.15,0.5-0.3,0.55-0.55
			c0.05-0.149,0.05-0.351-0.2-0.601s-0.601-0.551-0.95-0.699c-0.1-0.051-0.899-0.352-1.25-0.352c-0.25,0-0.399,0-0.5,0.051l0,0
			c-0.149,0.101-0.199,0.199-0.199,0.399C109.475,66.225,109.525,66.375,109.575,66.525z M118.325,35.175
			c-0.25-0.2-0.851-1.2-0.851-1.2c0.051-0.149,0.851-1.899,0.851-1.899c0.05,0.3,0.05,0.95,0.05,1.55S118.325,34.875,118.325,35.175
			z M115.275,34.475c0.25,0.051,1.05,0.301,1.05,0.301c0.601,0.199,1.101,0.449,1.75,0.6c-0.101,0.2-0.3,0.55-0.3,0.55
			s-1.351,2.05-1.45,2.2c0,0,0.399-2.1,0.399-2.15C116.675,35.875,115.875,35.175,115.275,34.475z M120.825,35.125
			c0,0.1-0.5,0.65-0.5,0.65c-0.101,0-1.601-0.351-1.75-0.4c0,0,0.601-1.15,0.851-1.25l2.149,0.2c-0.149,0.05-0.8,0.25-1.351,0.399
			c-0.649,0.25-1.25,0.5-1.25,0.5S120.625,35.125,120.825,35.125z M120.325,38.125c-0.149-0.05-1.649-0.85-1.649-0.85
			c-0.05-0.051-0.25-1.601-0.25-1.9L120.325,38.125z M126.625,71.975c-0.35,0.852-4.05,2.25-7.8,2.15c-3.899,0.1-7.7-0.5-8.5-1.55
			c-0.101-0.15-0.2-0.552-0.2-0.7c0-0.05,0-0.15,0.05-0.25l0.2-0.65l0,0v-0.1l0,0c0.35-1.2,0.75-2.602,1.05-2.65
			c0.3,0,0.3-0.148,1.8,0.4c0.551,0.3,3.45,1.148,4.051,1.148c0.449,0.052,2.1,0,2.75-0.1c0.55-0.1,0.949-0.25,1.199-0.25
			c0.5-0.05,3.301-0.9,3.75-1.05l0,0c0,0,0.051,0,0.051,0.05l0,0c0.1,0.1,0.199,0.4,0.3,0.7c0.05,0.101,0.05,0.149,0.05,0.25
			c0.05,0.149,0.1,0.351,0.15,0.55c0,0.051,0.05,0.1,0.05,0.15c0.05,0.148,0.101,0.3,0.149,0.449
			c0.051,0.051,0.051,0.149,0.101,0.199c0.05,0.15,0.101,0.25,0.2,0.352c0.05,0.05,0.1,0.148,0.1,0.199
			c0.05,0.051,0.05,0.101,0.1,0.149l0.351,0.5C126.625,71.925,126.625,71.975,126.625,71.975z M126.725,70.775L126.725,70.775
			c-0.1,0.051-0.149,0.101-0.199,0.149c-0.15-0.25-0.25-0.5-0.351-0.8c0-0.05-0.05-0.102-0.05-0.102c-0.05-0.1-0.1-0.198-0.1-0.35
			c-0.051-0.1-0.051-0.15-0.101-0.25c0-0.05-0.05-0.1-0.05-0.15c-0.2-0.648-0.35-1.148-0.7-1.299l0,0c-0.05,0-0.05,0-0.101,0h-0.051
			l0,0c-0.449,0-0.899-0.149-0.949-0.351c0-0.05,0.05-0.2,0.101-0.25c0.45-0.399,0.649-0.649,0.899-0.75
			c0.199-0.101,0.65-0.3,1.15-0.2c0.1,0.051,0.149,0.2,0.149,0.2v0.05c0,0.2-0.2,0.5-0.351,0.65c-0.25,0.199-0.35,0.398-0.35,0.648
			c0,0.4,0.301,0.852,0.7,1.45c0.2,0.3,0.45,0.7,0.75,1.2C126.925,70.675,126.825,70.725,126.725,70.775z M140.575,55.825
			c-0.149,0.8-0.3,1.5-0.351,2.05c-0.199,1.95-0.899,2.85-1.75,4l-0.05,0.1c-0.851,1.051-1.351,1.95-1.8,2.75
			c-0.6,1.051-1.05,1.9-1.9,2.551c-0.1,0.101-0.55,0.399-1,0.699c-0.85,0.551-1.399,0.95-1.55,1.051
			c-0.851,0.801-3.55,2.851-4,2.649c-0.601-1.149-1.101-1.95-1.45-2.55c-0.449-0.7-0.6-1-0.6-1.2c0-0.149,0.05-0.2,0.2-0.35
			c0.101-0.101,1.25-0.95,1.7-1.4c0.149-0.149,0.699-0.5,1.1-0.8c0.65-0.55,1.75-1.8,2.1-2.15c0.9-1.1,1.45-1.949,2.101-3.05
			c0.25-0.45,0.75-1.2,0.851-1.3c0.35-0.45,0.45-0.8,0.6-1.3c0.101-0.302,0.301-0.65,0.4-0.851c0.301-0.701,0.45-1.5,0.5-2
			c0.051-0.399,0.051-0.551,0.1-0.951c0.15-0.75,0.451-1.85,0.451-2.949c0-0.9-0.15-1.6-0.5-2.85c-0.15-0.5-0.451-2.201-0.601-3.25
			c-0.149-0.951-0.75-2.201-0.8-2.25c-0.25-0.4-0.649-0.801-1.051-1.25c-0.5-0.601-0.949-1.301-1.149-1.801
			c-0.149-0.4-0.45-0.75-0.7-1.1l-0.4-0.5c-0.299-0.45-1.449-1.301-2.549-2.1l-0.4-0.201c-0.301-0.199-1-0.6-1.801-1.049l-1-0.551
			l0,0l-0.699-0.25c-0.7-0.25-2.551-0.85-3.2-1l0,0c-0.75-0.1-1.351-0.25-2.3-0.3c-0.051-0.101-0.1-0.25-0.1-0.3
			c-0.051-0.2-0.351-0.65-0.451-0.95c-0.149,0.101-0.449,0.649-0.699,1.25c-2.051,0.149-4.95,0.95-5.1,0.95
			c-0.5,0.15-0.801,0.3-1.351,0.6l-2.2,1.1c-1.449,0.701-2.199,1.351-2.601,1.65c-0.55,0.4-0.95,0.7-1.5,1.301l-0.5,0.5
			c-0.55,0.549-1.5,2.399-1.5,2.449l-0.851,1.45c-0.3,0.5-1.149,2.7-1.149,2.75c-0.101,0.25-0.2,0.649-0.3,1.101
			c-0.101,0.449-0.301,0.899-0.301,1.199c-0.1,1.75-0.25,2.5-0.25,2.75l0,0l0,0c0,0.25-0.1,0.9-0.05,1.4c0.05,0.85,0,1.75,0.05,2.1
			c0.15,1.6,1.101,4.301,2,5.801c0.051,0.049,0.7,1.5,2.351,3.399c0.25,0.3,0.899,0.851,1.25,1.2c0.45,0.449,0.601,0.699,1,0.949
			c0.5,0.301,1,0.649,1.45,1c0.55,0.399,1.1,0.75,1.649,1.101l0,0l0,0l0,0c0,0.05,0,0.101-0.05,0.149v0.051
			c0,0.05-0.05,0.148-0.1,0.25c0,0.05,0,0.05-0.051,0.1c-0.05,0.1-0.05,0.2-0.1,0.301v0.049c-0.05,0.102-0.1,0.25-0.15,0.352
			c0,0.05-0.05,0.05-0.05,0.1c-0.05,0.102-0.101,0.25-0.149,0.352c-0.051,0.05-0.051,0.148-0.101,0.199
			c-0.05,0.101-0.05,0.149-0.101,0.25c0.05,0.199,0,0.25,0,0.301c0,0.05-0.051,0.1-0.051,0.148c-0.1,0.2-0.149,0.352-0.199,0.5
			v0.051v0.051l0,0c-0.25,0.55-0.301,0.699-0.301,0.8c-0.049,0.25-0.149,0.45-0.299,0.55c-0.201,0.1-0.4,0.2-0.801,0.051
			c-0.55-0.201-0.949-0.649-1.5-1.149c-0.449-0.4-0.9-0.851-1.15-1.15l-0.6-0.5c-0.15-0.149-0.449-0.399-1.3-0.95
			c-0.2-0.148-0.399-0.199-0.55-0.35c-0.2-0.15-0.649-0.602-0.7-0.65c-0.851-0.648-1.05-1.148-1.601-2.199
			c-0.449-0.801-1.1-1.949-1.299-2.199l-0.5-0.65c-0.851-1.15-1.551-2.1-1.75-4.05c-0.05-0.55-0.25-1-0.4-1.8
			c-0.1-0.352-0.1-1-0.2-1.4c-0.3-1.6-0.55-3.35-0.3-4.9c0.2-1.299,0.2-2.1,0.2-3c-0.2-0.75-0.2-1.399-0.05-1.699l0.05-0.301
			l1.65-4.35l0,0c0.2-0.65,1.5-2.75,2-3.5c0.5-0.699,1.85-2.15,1.85-2.199l0,0l0,0c0.25-0.4,2.5-1.951,3.15-2.301l0,0l2.85-2
			c0.951-0.65,2.75-1.25,4.051-1.65l0.949-0.3c1.851-0.65,4.601-0.85,4.951-0.85c0.199,0,1,0,1.149,0
			c0.351-0.05,3.601,0.2,5.45,0.85l1.199,0.25c1.301,0.4,2.9,1.05,3.851,1.7l3.05,2.051l0,0c-0.4-0.201,2.551,1.449,3.2,2.5l0,0l0,0
			c0.05,0.049,3.3,4.149,3.649,5.449l0,0l1.601,4.1l0,0c0.149,0.301,0.2,1.15,0.2,1.951c0,0.85,0.199,2.049,0.4,3.35
			C141.525,51.775,140.925,53.975,140.575,55.825z"/>
		<g>
			<path fill="#00467F" d="M117.075,56.925c-0.05,0.2-0.95-0.149-1.351-0.2c-0.3,0-1.05-0.05-1.1-0.05c-0.15,0-0.2-0.2-0.1-0.2
				C114.975,56.375,117.125,56.675,117.075,56.925z"/>
			<path fill="#00467F" d="M112.725,56.525c0,0.199,0,0-0.949,0c-1,0-1.051,0-1-0.149c0.05-0.2,0.649-0.101,0.949-0.101
				C112.175,56.325,112.725,56.225,112.725,56.525z"/>
			<path fill="#00467F" d="M113.325,56.475c0.05-0.1,0.649-0.1,0.649,0.051c0,0.149-0.1,0.101-0.399,0.101
				C113.175,56.625,113.225,56.575,113.325,56.475z"/>
		</g>
		<g>
			<path fill="#00467F" d="M118.275,26.475c-0.25,0-0.45-0.2-0.45-0.5c0-0.25,0.2-0.45,0.5-0.45c0.25,0,0.45,0.2,0.45,0.5
				C118.725,26.275,118.525,26.475,118.275,26.475z"/>
			<path fill="#00467F" d="M116.575,26.525c-0.25,0-0.5-0.2-0.5-0.45s0.149-0.5,0.45-0.5c0.25,0,0.5,0.2,0.5,0.45
				C117.075,26.275,116.875,26.475,116.575,26.525z"/>
			<path fill="#00467F" d="M114.925,26.675c-0.25,0.05-0.5-0.15-0.5-0.4c-0.05-0.25,0.149-0.5,0.399-0.55
				c0.25-0.05,0.5,0.15,0.55,0.4C115.325,26.425,115.175,26.625,114.925,26.675z"/>
			<path fill="#00467F" d="M113.225,26.925c-0.25,0.05-0.5-0.1-0.55-0.35s0.101-0.5,0.351-0.55c0.25-0.05,0.5,0.1,0.55,0.35
				C113.675,26.625,113.475,26.875,113.225,26.925z"/>
			<path fill="#00467F" d="M111.575,27.325c-0.25,0.05-0.5-0.1-0.601-0.35c-0.05-0.25,0.051-0.5,0.351-0.6
				c0.25-0.05,0.5,0.1,0.601,0.35C111.975,27.025,111.825,27.275,111.575,27.325z"/>
			<path fill="#00467F" d="M109.975,27.825c-0.25,0.1-0.5-0.05-0.6-0.3s0.05-0.5,0.3-0.6c0.25-0.1,0.5,0.05,0.601,0.3
				C110.325,27.475,110.225,27.775,109.975,27.825z"/>
			<path fill="#00467F" d="M108.375,28.475c-0.25,0.1-0.5,0-0.6-0.25c-0.101-0.25,0-0.5,0.25-0.6s0.5,0,0.6,0.25
				C108.725,28.075,108.625,28.325,108.375,28.475z"/>
			<path fill="#00467F" d="M106.875,29.175c-0.25,0.1-0.5,0.05-0.65-0.2c-0.1-0.25-0.05-0.5,0.2-0.65c0.25-0.1,0.5-0.05,0.649,0.2
				C107.175,28.775,107.075,29.075,106.875,29.175z"/>
			<path fill="#00467F" d="M105.375,30.025c-0.25,0.149-0.5,0.05-0.65-0.15c-0.149-0.2-0.05-0.5,0.15-0.65
				c0.25-0.15,0.5-0.05,0.65,0.15C105.675,29.575,105.625,29.875,105.375,30.025z"/>
			<path fill="#00467F" d="M103.975,30.925c-0.199,0.15-0.5,0.101-0.649-0.1s-0.101-0.5,0.101-0.65c0.2-0.149,0.5-0.1,0.649,0.101
				C104.225,30.475,104.175,30.775,103.975,30.925z"/>
			<path fill="#00467F" d="M102.625,31.975c-0.2,0.15-0.5,0.15-0.65-0.05c-0.149-0.2-0.149-0.5,0.051-0.649
				c0.199-0.15,0.5-0.15,0.649,0.05C102.825,31.525,102.825,31.775,102.625,31.975z"/>
			<path fill="#00467F" d="M101.325,33.075c-0.2,0.2-0.5,0.149-0.649,0c-0.199-0.2-0.15-0.5,0-0.65c0.2-0.2,0.5-0.149,0.649,0
				C101.525,32.625,101.525,32.875,101.325,33.075z"/>
			<path fill="#00467F" d="M100.125,34.275c-0.2,0.199-0.45,0.199-0.65,0c-0.199-0.2-0.199-0.45-0.05-0.65c0.2-0.2,0.5-0.2,0.649,0
				C100.275,33.775,100.325,34.075,100.125,34.275z"/>
			<path fill="#00467F" d="M99.025,35.575c-0.15,0.2-0.45,0.25-0.65,0.05c-0.2-0.15-0.25-0.45-0.05-0.65
				c0.149-0.199,0.45-0.25,0.649-0.05C99.125,35.075,99.175,35.325,99.025,35.575z"/>
			<path fill="#00467F" d="M97.975,36.875c-0.149,0.2-0.449,0.25-0.649,0.1c-0.2-0.149-0.25-0.449-0.1-0.649s0.45-0.25,0.65-0.101
				C98.075,36.375,98.125,36.675,97.975,36.875z"/>
			<path fill="#00467F" d="M97.075,38.325c-0.149,0.25-0.399,0.3-0.649,0.149c-0.2-0.149-0.3-0.399-0.15-0.649s0.45-0.3,0.65-0.15
				C97.125,37.825,97.225,38.075,97.075,38.325z"/>
			<path fill="#00467F" d="M96.225,39.775c-0.1,0.25-0.4,0.3-0.65,0.199c-0.25-0.1-0.35-0.399-0.2-0.649c0.1-0.25,0.4-0.3,0.65-0.2
				C96.275,39.275,96.375,39.575,96.225,39.775z"/>
			<path fill="#00467F" d="M95.525,41.325c-0.1,0.25-0.4,0.35-0.6,0.25c-0.25-0.101-0.351-0.351-0.25-0.601
				c0.1-0.25,0.399-0.35,0.6-0.25C95.525,40.825,95.625,41.075,95.525,41.325z"/>
			<path fill="#00467F" d="M94.875,42.875c-0.1,0.25-0.35,0.35-0.6,0.3c-0.25-0.1-0.4-0.35-0.3-0.6s0.35-0.4,0.6-0.3
				C94.875,42.375,94.975,42.625,94.875,42.875z"/>
			<path fill="#00467F" d="M94.375,44.525c-0.05,0.25-0.3,0.399-0.6,0.35c-0.2-0.1-0.35-0.35-0.3-0.6c0.1-0.25,0.35-0.4,0.6-0.351
				C94.325,44.025,94.475,44.275,94.375,44.525z"/>
			<path fill="#00467F" d="M93.975,46.175c-0.05,0.25-0.3,0.4-0.55,0.351c-0.25-0.051-0.4-0.301-0.351-0.551
				c0.05-0.25,0.3-0.399,0.55-0.35C93.875,45.675,94.075,45.925,93.975,46.175z"/>
			<path fill="#00467F" d="M93.725,47.825c-0.05,0.25-0.25,0.45-0.5,0.399c-0.25-0.05-0.45-0.25-0.4-0.55
				c0.05-0.25,0.25-0.45,0.55-0.399C93.575,47.325,93.775,47.575,93.725,47.825z"/>
			<path fill="#00467F" d="M93.575,49.525c0,0.25-0.25,0.449-0.5,0.449s-0.45-0.25-0.45-0.5s0.25-0.449,0.5-0.449
				S93.575,49.275,93.575,49.525z"/>
			<path fill="#00467F" d="M93.525,51.225c0,0.25-0.2,0.45-0.45,0.5c-0.25,0-0.5-0.199-0.5-0.449s0.2-0.5,0.45-0.5
				C93.325,50.725,93.525,50.925,93.525,51.225z"/>
			<path fill="#00467F" d="M93.575,52.925c0,0.25-0.149,0.5-0.45,0.5s-0.5-0.149-0.5-0.45c0-0.25,0.15-0.5,0.45-0.5
				C93.325,52.475,93.575,52.675,93.575,52.925z"/>
			<path fill="#00467F" d="M93.775,54.575c0.05,0.25-0.15,0.5-0.4,0.55s-0.5-0.15-0.55-0.4c-0.05-0.25,0.15-0.5,0.4-0.55
				S93.725,54.325,93.775,54.575z"/>
			<path fill="#00467F" d="M94.075,56.275c0.05,0.25-0.1,0.5-0.35,0.551c-0.25,0.05-0.5-0.102-0.55-0.352
				c-0.05-0.25,0.1-0.5,0.35-0.55C93.775,55.825,94.025,56.025,94.075,56.275z"/>
			<path fill="#00467F" d="M94.475,57.925c0.05,0.25-0.05,0.5-0.3,0.601c-0.25,0.051-0.5-0.051-0.601-0.301
				c-0.1-0.25,0.05-0.5,0.3-0.6C94.175,57.525,94.425,57.625,94.475,57.925z"/>
			<path fill="#00467F" d="M95.025,59.525c0.1,0.25-0.05,0.5-0.3,0.601s-0.5-0.05-0.6-0.3s0.05-0.5,0.3-0.602
				C94.675,59.125,94.925,59.275,95.025,59.525z"/>
			<path fill="#00467F" d="M95.625,61.075c0.1,0.25,0,0.5-0.25,0.6c-0.25,0.101-0.5,0-0.6-0.25s0-0.5,0.25-0.6
				C95.275,60.725,95.525,60.825,95.625,61.075z"/>
			<path fill="#00467F" d="M96.375,62.575c0.15,0.25,0.05,0.5-0.2,0.649c-0.25,0.101-0.5,0.049-0.65-0.201
				c-0.1-0.25-0.05-0.5,0.2-0.648C95.975,62.275,96.275,62.375,96.375,62.575z"/>
			<path fill="#00467F" d="M97.225,64.075c0.15,0.198,0.05,0.5-0.15,0.649s-0.5,0.101-0.649-0.149c-0.15-0.2-0.05-0.5,0.149-0.65
				C96.825,63.775,97.125,63.825,97.225,64.075z"/>
			<path fill="#00467F" d="M98.175,65.475c0.149,0.2,0.101,0.5-0.101,0.65c-0.2,0.148-0.5,0.1-0.649-0.102
				c-0.149-0.198-0.101-0.5,0.101-0.648C97.725,65.225,98.025,65.275,98.175,65.475z"/>
			<path fill="#00467F" d="M99.225,66.825c0.15,0.198,0.15,0.5-0.05,0.649s-0.5,0.149-0.649-0.051c-0.15-0.199-0.15-0.5,0.05-0.65
				C98.775,66.575,99.075,66.625,99.225,66.825z"/>
			<path fill="#00467F" d="M100.375,68.075c0.2,0.198,0.15,0.5,0,0.649c-0.2,0.199-0.5,0.199-0.65,0c-0.199-0.201-0.199-0.5,0-0.649
				C99.875,67.875,100.175,67.875,100.375,68.075z"/>
			<path fill="#00467F" d="M101.575,69.275c0.2,0.199,0.2,0.449,0.05,0.649c-0.2,0.2-0.45,0.2-0.65,0.05
				c-0.199-0.199-0.199-0.449-0.05-0.648C101.075,69.075,101.375,69.075,101.575,69.275z"/>
			<path fill="#00467F" d="M102.875,70.325c0.2,0.149,0.25,0.448,0.1,0.649c-0.149,0.199-0.449,0.25-0.649,0.101
				c-0.2-0.15-0.25-0.45-0.101-0.65C102.375,70.225,102.675,70.175,102.875,70.325z"/>
			<path fill="#00467F" d="M104.225,71.375c0.2,0.148,0.25,0.45,0.101,0.648c-0.149,0.201-0.45,0.25-0.649,0.102
				c-0.199-0.15-0.25-0.45-0.101-0.65C103.725,71.275,104.025,71.225,104.225,71.375z"/>
			<path fill="#00467F" d="M105.675,72.275c0.25,0.149,0.3,0.399,0.149,0.649c-0.149,0.2-0.399,0.3-0.649,0.15
				c-0.25-0.15-0.3-0.4-0.149-0.65C105.175,72.175,105.425,72.125,105.675,72.275z"/>
			<path fill="#00467F" d="M107.175,73.075c0.25,0.1,0.351,0.399,0.2,0.649c-0.1,0.25-0.4,0.351-0.65,0.199
				c-0.25-0.1-0.35-0.4-0.199-0.65C106.625,73.025,106.925,72.925,107.175,73.075z"/>
			<path fill="#00467F" d="M108.675,73.775c0.25,0.101,0.351,0.351,0.25,0.601s-0.351,0.351-0.601,0.25s-0.35-0.351-0.25-0.601
				C108.175,73.775,108.475,73.675,108.675,73.775z"/>
			<path fill="#00467F" d="M110.275,74.375c0.25,0.1,0.399,0.35,0.3,0.6c-0.101,0.25-0.351,0.4-0.601,0.301
				c-0.25-0.101-0.399-0.351-0.3-0.601C109.775,74.425,110.025,74.275,110.275,74.375z"/>
			<path fill="#00467F" d="M111.925,74.825c0.25,0.05,0.399,0.3,0.351,0.55s-0.301,0.398-0.551,0.35s-0.399-0.3-0.35-0.55
				S111.675,74.775,111.925,74.825z"/>
			<path fill="#00467F" d="M113.575,75.225c0.25,0.051,0.399,0.301,0.399,0.551c-0.05,0.25-0.3,0.449-0.55,0.399
				s-0.45-0.3-0.399-0.55C113.075,75.325,113.325,75.175,113.575,75.225z"/>
			<path fill="#00467F" d="M115.225,75.475c0.25,0.051,0.45,0.25,0.4,0.5s-0.25,0.45-0.5,0.4s-0.45-0.25-0.4-0.5
				C114.725,75.625,114.975,75.425,115.225,75.475z"/>
			<path fill="#00467F" d="M116.925,75.575c0.25,0,0.45,0.25,0.45,0.5s-0.25,0.448-0.5,0.448s-0.45-0.25-0.45-0.5
				S116.675,75.575,116.925,75.575z"/>
			<path fill="#00467F" d="M118.625,75.625c0.25,0,0.45,0.2,0.5,0.45c0,0.25-0.2,0.5-0.45,0.5s-0.5-0.2-0.5-0.45
				S118.375,75.625,118.625,75.625z"/>
			<path fill="#00467F" d="M120.325,75.525c0.25,0,0.5,0.149,0.5,0.399s-0.149,0.5-0.399,0.5s-0.5-0.149-0.5-0.45
				C119.875,75.775,120.075,75.525,120.325,75.525z"/>
			<path fill="#00467F" d="M121.975,75.325c0.25-0.052,0.5,0.149,0.551,0.399c0.05,0.25-0.15,0.5-0.4,0.549
				c-0.25,0.052-0.5-0.148-0.55-0.398C121.575,75.575,121.725,75.375,121.975,75.325z"/>
			<path fill="#00467F" d="M123.675,74.975c0.25-0.05,0.5,0.102,0.55,0.352c0.051,0.25-0.1,0.5-0.35,0.55s-0.5-0.101-0.55-0.351
				S123.425,75.075,123.675,74.975z"/>
			<path fill="#00467F" d="M125.275,74.575c0.25-0.101,0.5,0.05,0.6,0.3s-0.05,0.5-0.3,0.6c-0.25,0.102-0.5-0.05-0.601-0.3
				C124.925,74.875,125.025,74.625,125.275,74.575z"/>
			<path fill="#00467F" d="M126.875,74.025c0.25-0.101,0.5,0.051,0.6,0.25c0.101,0.25,0,0.5-0.25,0.601s-0.5-0.05-0.6-0.25
				C126.525,74.375,126.675,74.075,126.875,74.025z"/>
			<path fill="#00467F" d="M128.425,73.325c0.25-0.101,0.5,0,0.601,0.198c0.1,0.25,0,0.5-0.25,0.65c-0.25,0.1-0.5,0-0.65-0.25
				C128.125,73.725,128.225,73.475,128.425,73.325z"/>
			<path fill="#00467F" d="M129.975,72.575c0.25-0.15,0.5-0.052,0.65,0.198s0.05,0.5-0.2,0.65s-0.5,0.051-0.649-0.199
				C129.675,72.975,129.725,72.675,129.975,72.575z"/>
			<path fill="#00467F" d="M131.425,71.725c0.2-0.148,0.5-0.1,0.649,0.15c0.15,0.2,0.101,0.5-0.149,0.648
				c-0.2,0.15-0.5,0.102-0.649-0.148C131.125,72.125,131.225,71.825,131.425,71.725z"/>
			<path fill="#00467F" d="M132.825,70.725c0.2-0.148,0.5-0.1,0.649,0.102c0.15,0.199,0.101,0.5-0.1,0.648
				c-0.2,0.15-0.5,0.102-0.65-0.1C132.575,71.175,132.625,70.875,132.825,70.725z"/>
			<path fill="#00467F" d="M134.125,69.675c0.2-0.149,0.5-0.149,0.65,0.05c0.149,0.2,0.149,0.5-0.051,0.65
				c-0.199,0.148-0.5,0.148-0.649-0.05C133.925,70.125,133.925,69.875,134.125,69.675z"/>
			<path fill="#00467F" d="M135.375,68.525c0.2-0.199,0.5-0.199,0.65,0c0.199,0.199,0.199,0.5,0,0.649c-0.2,0.2-0.5,0.2-0.65,0
				C135.175,69.025,135.175,68.725,135.375,68.525z"/>
			<path fill="#00467F" d="M136.525,67.275c0.149-0.199,0.449-0.199,0.649-0.051c0.2,0.15,0.2,0.45,0.05,0.65
				c-0.149,0.2-0.449,0.2-0.649,0.05C136.375,67.775,136.375,67.475,136.525,67.275z"/>
			<path fill="#00467F" d="M137.625,65.975c0.15-0.199,0.45-0.25,0.65-0.1c0.199,0.148,0.25,0.45,0.1,0.648
				c-0.15,0.201-0.45,0.25-0.65,0.102C137.475,66.475,137.475,66.175,137.625,65.975z"/>
			<path fill="#00467F" d="M138.625,64.625c0.15-0.2,0.45-0.25,0.65-0.15c0.199,0.15,0.3,0.45,0.149,0.65
				c-0.149,0.2-0.45,0.3-0.649,0.148C138.525,65.125,138.475,64.825,138.625,64.625z"/>
			<path fill="#00467F" d="M139.475,63.175c0.15-0.25,0.4-0.3,0.65-0.2c0.25,0.15,0.3,0.4,0.2,0.65
				c-0.149,0.25-0.399,0.3-0.649,0.148C139.425,63.675,139.375,63.375,139.475,63.175z"/>
			<path fill="#00467F" d="M140.275,61.675c0.1-0.25,0.399-0.35,0.649-0.2c0.25,0.102,0.351,0.4,0.2,0.65
				c-0.1,0.25-0.4,0.35-0.65,0.2C140.275,62.175,140.175,61.925,140.275,61.675z"/>
			<path fill="#00467F" d="M140.925,60.125c0.101-0.25,0.351-0.352,0.601-0.25c0.25,0.1,0.35,0.35,0.25,0.6
				c-0.101,0.25-0.351,0.352-0.601,0.25C140.975,60.625,140.875,60.375,140.925,60.125z"/>
			<path fill="#00467F" d="M141.525,58.525c0.1-0.25,0.35-0.399,0.6-0.301c0.25,0.102,0.4,0.352,0.3,0.602s-0.351,0.398-0.601,0.3
				C141.575,59.025,141.425,58.775,141.525,58.525z"/>
			<path fill="#00467F" d="M141.975,56.875c0.051-0.25,0.301-0.4,0.551-0.352c0.25,0.052,0.399,0.302,0.35,0.552
				s-0.3,0.399-0.55,0.35C142.075,57.376,141.925,57.125,141.975,56.875z"/>
			<path fill="#00467F" d="M142.325,55.225c0.05-0.25,0.3-0.449,0.55-0.398c0.25,0.05,0.45,0.3,0.4,0.55
				c-0.051,0.25-0.301,0.45-0.551,0.399C142.425,55.725,142.275,55.475,142.325,55.225z"/>
			<path fill="#00467F" d="M142.575,53.525c0.05-0.25,0.25-0.449,0.5-0.399s0.45,0.25,0.399,0.5c-0.05,0.25-0.25,0.45-0.5,0.399
				C142.725,54.025,142.525,53.825,142.575,53.525z"/>
			<path fill="#00467F" d="M142.675,51.875c0-0.25,0.2-0.45,0.5-0.45c0.25,0,0.45,0.2,0.45,0.5c0,0.25-0.25,0.45-0.5,0.45
				C142.875,52.325,142.675,52.125,142.675,51.875z"/>
			<path fill="#00467F" d="M142.675,50.175c0-0.25,0.2-0.5,0.45-0.5s0.5,0.2,0.5,0.45s-0.2,0.5-0.45,0.5
				C142.875,50.625,142.675,50.425,142.675,50.175z"/>
			<path fill="#00467F" d="M142.525,48.475c-0.051-0.25,0.149-0.5,0.399-0.5c0.25-0.05,0.5,0.15,0.5,0.4
				c0.05,0.25-0.149,0.5-0.399,0.5C142.775,48.925,142.575,48.725,142.525,48.475z"/>
			<path fill="#00467F" d="M142.325,46.775c-0.05-0.25,0.101-0.5,0.399-0.551c0.25-0.05,0.5,0.101,0.551,0.4
				c0.05,0.25-0.15,0.5-0.4,0.55C142.575,47.225,142.375,47.025,142.325,46.775z"/>
			<path fill="#00467F" d="M141.975,45.125c-0.05-0.25,0.101-0.5,0.351-0.55s0.5,0.1,0.55,0.35s-0.1,0.5-0.35,0.55
				C142.275,45.525,142.025,45.375,141.975,45.125z"/>
			<path fill="#00467F" d="M141.475,43.525c-0.1-0.25,0.051-0.5,0.301-0.601c0.25-0.1,0.5,0.05,0.6,0.3s-0.05,0.5-0.3,0.601
				C141.825,43.875,141.575,43.775,141.475,43.525z"/>
			<path fill="#00467F" d="M140.925,41.925c-0.101-0.25,0-0.5,0.25-0.6c0.25-0.101,0.5,0,0.601,0.25c0.1,0.25,0,0.5-0.25,0.6
				C141.275,42.275,141.025,42.175,140.925,41.925z"/>
			<path fill="#00467F" d="M140.225,40.375c-0.1-0.25,0-0.5,0.2-0.6c0.25-0.101,0.5,0,0.649,0.199c0.101,0.25,0,0.5-0.2,0.65
				C140.625,40.675,140.375,40.575,140.225,40.375z"/>
			<path fill="#00467F" d="M139.425,38.875c-0.149-0.25-0.05-0.5,0.149-0.65c0.25-0.149,0.5-0.05,0.65,0.15
				c0.149,0.25,0.049,0.5-0.201,0.65C139.875,39.175,139.575,39.075,139.425,38.875z"/>
			<path fill="#00467F" d="M138.575,37.425c-0.149-0.2-0.101-0.5,0.149-0.649c0.2-0.15,0.5-0.101,0.65,0.149
				c0.15,0.2,0.1,0.5-0.15,0.65C138.975,37.725,138.725,37.625,138.575,37.425z"/>
			<path fill="#00467F" d="M137.575,36.025c-0.149-0.2-0.101-0.5,0.101-0.65c0.2-0.15,0.5-0.15,0.649,0.1
				c0.149,0.2,0.101,0.5-0.101,0.65C138.025,36.275,137.725,36.275,137.575,36.025z"/>
			<path fill="#00467F" d="M136.475,34.725c-0.199-0.199-0.149-0.5,0.051-0.649c0.199-0.15,0.5-0.15,0.649,0.05s0.149,0.5-0.05,0.65
				C136.975,34.975,136.675,34.925,136.475,34.725z"/>
			<path fill="#00467F" d="M135.325,33.525c-0.2-0.2-0.2-0.5,0-0.65c0.2-0.2,0.5-0.2,0.649,0c0.15,0.2,0.2,0.5,0,0.65
				C135.825,33.675,135.525,33.675,135.325,33.525z"/>
			<path fill="#00467F" d="M134.075,32.375c-0.2-0.15-0.2-0.45-0.05-0.65c0.149-0.199,0.449-0.25,0.649-0.05
				c0.2,0.15,0.2,0.45,0.05,0.65C134.575,32.525,134.275,32.525,134.075,32.375z"/>
			<path fill="#00467F" d="M132.725,31.325c-0.199-0.15-0.25-0.45-0.1-0.65s0.45-0.25,0.65-0.1c0.199,0.149,0.25,0.45,0.1,0.649
				C133.225,31.425,132.975,31.475,132.725,31.325z"/>
			<path fill="#00467F" d="M131.375,30.325c-0.2-0.15-0.3-0.45-0.15-0.65c0.15-0.2,0.45-0.3,0.65-0.15s0.3,0.45,0.15,0.65
				C131.875,30.425,131.575,30.475,131.375,30.325z"/>
			<path fill="#00467F" d="M129.875,29.475c-0.25-0.15-0.3-0.4-0.2-0.65c0.149-0.25,0.399-0.3,0.649-0.2
				c0.25,0.15,0.3,0.4,0.199,0.65C130.425,29.525,130.125,29.625,129.875,29.475z"/>
			<path fill="#00467F" d="M128.375,28.725c-0.25-0.1-0.35-0.4-0.25-0.6c0.1-0.25,0.4-0.35,0.6-0.25c0.25,0.1,0.351,0.4,0.25,0.65
				C128.875,28.725,128.625,28.825,128.375,28.725z"/>
			<path fill="#00467F" d="M126.825,28.075c-0.25-0.1-0.351-0.4-0.25-0.6c0.101-0.25,0.351-0.35,0.601-0.25s0.35,0.35,0.25,0.6
				C127.325,28.025,127.075,28.175,126.825,28.075z"/>
			<path fill="#00467F" d="M125.225,27.525c-0.25-0.1-0.399-0.35-0.3-0.6c0.05-0.25,0.351-0.4,0.601-0.3s0.399,0.35,0.3,0.6
				C125.725,27.475,125.475,27.575,125.225,27.525z"/>
			<path fill="#00467F" d="M123.575,27.075c-0.25-0.05-0.399-0.3-0.351-0.55s0.301-0.4,0.551-0.35c0.25,0.05,0.399,0.3,0.35,0.55
				S123.875,27.125,123.575,27.075z"/>
			<path fill="#00467F" d="M121.925,26.775c-0.25-0.05-0.45-0.3-0.399-0.55c0.05-0.25,0.3-0.45,0.55-0.4
				c0.25,0.05,0.45,0.3,0.399,0.55C122.425,26.625,122.175,26.825,121.925,26.775z"/>
			<path fill="#00467F" d="M120.225,26.575c-0.25,0-0.449-0.25-0.449-0.5s0.25-0.45,0.5-0.45s0.449,0.25,0.449,0.5
				S120.525,26.575,120.225,26.575z"/>
		</g>
	</g>
</g>
</svg>
