<?xml version="1.0" encoding="utf-8"?>
<!-- Generator: Adobe Illustrator 16.0.0, SVG Export Plug-In . SVG Version: 6.00 Build 0)  -->
<!DOCTYPE svg PUBLIC "-//W3C//DTD SVG 1.1//EN" "http://www.w3.org/Graphics/SVG/1.1/DTD/svg11.dtd">
<svg version="1.1" id="Layer_1" xmlns="http://www.w3.org/2000/svg" xmlns:xlink="http://www.w3.org/1999/xlink" x="0px" y="0px"
	 width="76.105px" height="36.335px" viewBox="0 5.57 76.105 36.335" enable-background="new 0 5.57 76.105 36.335"
	 xml:space="preserve">
<g>
	<g>
		<path fill="#7C7E7F" d="M-701.422-1858.46h-0.103c-1.093,2.082-2.457,3.643-4.096,4.684c-1.638,1.041-3.634,1.562-5.987,1.562
			c-1.979,0-3.687-0.376-5.119-1.126c-1.434-0.75-2.61-1.757-3.532-3.021c-0.921-1.262-1.604-2.721-2.047-4.376
			c-0.444-1.654-0.666-3.386-0.666-5.194c0-1.945,0.238-3.763,0.716-5.451c0.479-1.689,1.203-3.148,2.176-4.376
			c0.973-1.229,2.192-2.201,3.66-2.917c1.466-0.716,3.19-1.075,5.169-1.075c1.059,0,2.1,0.146,3.122,0.435
			c1.024,0.29,1.971,0.708,2.841,1.255c0.87,0.546,1.629,1.229,2.278,2.047c0.648,0.818,1.143,1.739,1.484,2.764h0.103v-16.124
			h1.945v36.546h-1.945L-701.422-1858.46L-701.422-1858.46z M-711.199-1853.904c1.672,0,3.113-0.34,4.325-1.024
			c1.211-0.682,2.219-1.586,3.021-2.713c0.801-1.126,1.397-2.414,1.792-3.863c0.392-1.45,0.588-2.927,0.588-4.428
			c0-1.536-0.197-3.027-0.588-4.479c-0.394-1.45-0.981-2.747-1.767-3.891c-0.784-1.143-1.8-2.056-3.045-2.737
			c-1.246-0.684-2.705-1.024-4.376-1.024c-1.739,0-3.225,0.333-4.453,0.998c-1.228,0.665-2.243,1.562-3.045,2.688
			s-1.382,2.423-1.739,3.891c-0.358,1.468-0.537,2.986-0.537,4.555c0,1.535,0.194,3.029,0.588,4.479
			c0.392,1.451,0.989,2.738,1.792,3.864c0.801,1.126,1.817,2.021,3.045,2.687C-714.372-1854.237-712.906-1853.904-711.199-1853.904z
			"/>
		<path fill="#7C7E7F" d="M-676.854-1858.05h-0.103c-0.308,0.784-0.751,1.526-1.331,2.227c-0.581,0.7-1.288,1.322-2.125,1.868
			c-0.836,0.546-1.782,0.972-2.841,1.28c-1.058,0.307-2.218,0.46-3.479,0.46c-2.8,0-4.966-0.606-6.5-1.817
			c-1.536-1.211-2.305-3.079-2.305-5.604c0-1.535,0.308-2.79,0.921-3.763c0.615-0.972,1.391-1.739,2.329-2.303
			c0.938-0.562,1.979-0.964,3.123-1.203c1.144-0.238,2.243-0.409,3.302-0.512l3.02-0.255c1.399-0.104,2.5-0.265,3.302-0.487
			c0.802-0.221,1.407-0.528,1.817-0.921c0.409-0.392,0.666-0.896,0.768-1.51c0.103-0.614,0.153-1.382,0.153-2.305
			c0-0.716-0.137-1.382-0.41-1.995c-0.272-0.614-0.7-1.16-1.278-1.639c-0.581-0.478-1.331-0.853-2.253-1.126
			c-0.921-0.271-2.047-0.409-3.378-0.409c-2.354,0-4.257,0.581-5.707,1.74c-1.45,1.161-2.243,2.917-2.38,5.272h-1.944
			c0.136-2.9,1.065-5.075,2.79-6.526c1.723-1.45,4.172-2.175,7.345-2.175c3.174,0,5.484,0.623,6.936,1.868
			c1.45,1.246,2.177,2.875,2.177,4.888v15.304c0,0.376,0.008,0.751,0.024,1.126c0.018,0.376,0.077,0.716,0.179,1.023
			c0.103,0.308,0.272,0.555,0.513,0.741c0.237,0.188,0.58,0.282,1.023,0.282c0.342,0,0.819-0.051,1.434-0.154v1.639
			c-0.512,0.137-1.041,0.205-1.586,0.205c-0.785,0-1.407-0.104-1.868-0.308c-0.46-0.205-0.812-0.478-1.049-0.818
			c-0.239-0.342-0.401-0.742-0.486-1.203c-0.086-0.46-0.128-0.964-0.128-1.511v-1.381H-676.854z M-676.854-1867.775
			c-0.479,0.581-1.203,0.974-2.175,1.177c-0.974,0.205-2.057,0.358-3.25,0.46l-3.275,0.308c-0.956,0.103-1.912,0.248-2.867,0.436
			c-0.956,0.188-1.817,0.503-2.585,0.946c-0.768,0.444-1.391,1.049-1.868,1.817c-0.478,0.768-0.716,1.766-0.716,2.994
			c0,1.944,0.614,3.387,1.842,4.324c1.229,0.939,2.917,1.408,5.067,1.408c2.218,0,3.975-0.401,5.271-1.203
			c1.296-0.802,2.286-1.723,2.97-2.765c0.683-1.041,1.116-2.047,1.306-3.021c0.187-0.973,0.281-1.629,0.281-1.971L-676.854-1867.775
			L-676.854-1867.775z"/>
		<path fill="#7C7E7F" d="M-668.818-1861.582c0.067,1.229,0.341,2.312,0.818,3.25c0.479,0.938,1.102,1.74,1.869,2.406
			c0.769,0.665,1.664,1.169,2.688,1.51c1.022,0.342,2.132,0.512,3.326,0.512c0.854,0,1.767-0.077,2.738-0.229
			c0.974-0.154,1.876-0.437,2.713-0.846c0.836-0.409,1.527-0.979,2.073-1.714c0.546-0.732,0.819-1.664,0.819-2.79
			c0-1.467-0.444-2.576-1.331-3.327c-0.889-0.75-2.005-1.331-3.354-1.74c-1.348-0.409-2.798-0.741-4.351-0.998
			s-3.003-0.641-4.352-1.151c-1.349-0.512-2.466-1.237-3.353-2.176c-0.888-0.938-1.331-2.312-1.331-4.12
			c0-1.296,0.29-2.38,0.87-3.25s1.322-1.562,2.227-2.073c0.903-0.512,1.919-0.878,3.045-1.101s2.252-0.333,3.378-0.333
			c1.364,0,2.645,0.152,3.839,0.46c1.194,0.307,2.227,0.802,3.097,1.483c0.87,0.684,1.553,1.554,2.048,2.61
			c0.494,1.058,0.742,2.338,0.742,3.839h-1.945c0-1.194-0.196-2.217-0.588-3.071c-0.394-0.853-0.939-1.544-1.638-2.072
			c-0.7-0.528-1.528-0.922-2.483-1.178c-0.956-0.256-1.979-0.384-3.071-0.384c-0.888,0-1.782,0.085-2.688,0.256
			s-1.714,0.46-2.432,0.87c-0.717,0.41-1.305,0.939-1.766,1.587c-0.461,0.648-0.69,1.434-0.69,2.354
			c0,1.058,0.256,1.911,0.768,2.559c0.512,0.648,1.186,1.169,2.021,1.562c0.837,0.393,1.774,0.708,2.815,0.946
			c1.04,0.239,2.09,0.479,3.147,0.718c1.297,0.238,2.517,0.521,3.659,0.845c1.144,0.325,2.133,0.768,2.969,1.331
			c0.836,0.562,1.492,1.289,1.971,2.175c0.478,0.888,0.717,2.014,0.717,3.378c0,1.434-0.325,2.61-0.972,3.532
			c-0.649,0.921-1.468,1.664-2.457,2.227c-0.99,0.562-2.091,0.955-3.301,1.178c-1.212,0.222-2.398,0.333-3.559,0.333
			c-1.502,0-2.892-0.197-4.171-0.589c-1.28-0.393-2.397-0.989-3.353-1.791c-0.956-0.803-1.707-1.783-2.252-2.943
			c-0.547-1.16-0.837-2.508-0.87-4.043H-668.818z"/>
		<path fill="#7C7E7F" d="M-644.198-1889.375v15.867h0.103c0.341-0.989,0.827-1.868,1.459-2.637c0.63-0.768,1.364-1.424,2.2-1.971
			c0.836-0.545,1.749-0.955,2.737-1.229c0.99-0.272,1.997-0.409,3.021-0.409c1.536,0,2.841,0.188,3.916,0.562
			s1.953,0.87,2.636,1.484s1.219,1.305,1.612,2.073c0.393,0.768,0.673,1.544,0.845,2.328c0.17,0.785,0.272,1.544,0.308,2.277
			c0.033,0.734,0.052,1.375,0.052,1.92v16.276h-1.945v-16.635c0-0.648-0.051-1.468-0.153-2.457s-0.4-1.937-0.896-2.842
			c-0.496-0.902-1.246-1.68-2.253-2.328c-1.006-0.648-2.397-0.974-4.171-0.974c-1.502,0-2.833,0.273-3.992,0.819
			c-1.161,0.546-2.15,1.305-2.969,2.277c-0.819,0.973-1.442,2.134-1.868,3.48c-0.427,1.348-0.641,2.824-0.641,4.427v14.229h-1.944
			v-36.546h1.944V-1889.375z"/>
	</g>
	<g>
		<path fill="#FF8300" d="M-741.686-1851.091c-0.008-0.058-0.208-3.039-1.587-6.498c-1.388-3.461-3.336-5.453-3.392-5.513
			c-0.319-0.326-0.747-0.491-1.166-0.496v-0.001h-0.005h-0.006v0.001c-0.419,0.005-0.846,0.17-1.166,0.496
			c-0.054,0.06-2.004,2.051-3.391,5.513c-1.379,3.459-1.58,6.44-1.586,6.498l-0.009,0.38v0.003v0.001v0.008l0.005-0.003
			c0.023,1.888,3.056,1.965,3.119-0.298l0.007-0.103l0.028-0.443c0,0,0.034-0.564,0.191-1.457c0.156-0.895,0.433-2.088,0.899-3.256
			c0.468-1.167,1.035-2.095,1.482-2.721c0.161-0.229,0.688-0.229,0.849,0c0.446,0.626,1.014,1.555,1.481,2.721
			c0.468,1.168,0.746,2.361,0.901,3.256c0.156,0.893,0.189,1.457,0.189,1.457l0.028,0.444l0.005,0.103
			c0.065,2.263,3.098,2.186,3.122,0.298l0.003,0.003v-0.008v-0.001v-0.003L-741.686-1851.091z"/>
		<path fill="#FF8300" d="M-731.243-1867.84c-0.056-0.011-2.922-0.738-6.604-0.48c-3.686,0.263-6.162,1.522-6.233,1.558
			c-0.405,0.207-0.693,0.564-0.828,0.965v-0.001c0,0.002,0,0.004-0.002,0.007c0,0.002-0.002,0.004-0.003,0.006l0.002,0.001
			c-0.125,0.403-0.102,0.864,0.107,1.271c0.039,0.072,1.309,2.562,4.138,4.965c2.828,2.395,5.57,3.509,5.624,3.533l0.354,0.123
			l0.003,0.001h0.001l0.007,0.004l-0.002-0.005c1.784,0.562,2.793-2.332,0.685-3.092l-0.095-0.037l-0.409-0.165
			c0,0-0.52-0.208-1.312-0.634c-0.794-0.427-1.832-1.062-2.785-1.873c-0.955-0.81-1.65-1.641-2.102-2.265
			c-0.166-0.225-0.003-0.731,0.261-0.815c0.728-0.238,1.776-0.495,3.019-0.583c1.242-0.089,2.453,0.015,3.342,0.141
			c0.888,0.126,1.431,0.267,1.431,0.267l0.426,0.109l0.099,0.026c2.147,0.637,3.013-2.302,1.243-2.909l0.004-0.002l-0.007-0.002
			h-0.002l-0.001-0.001L-731.243-1867.84z"/>
		<path fill="#FF8300" d="M-743.773-1883.056c-0.028,0.053-1.6,2.583-2.496,6.201c-0.891,3.625-0.472,6.395-0.459,6.476
			c0.067,0.455,0.315,0.841,0.65,1.094l0,0c0.001,0.001,0.006,0.001,0.007,0.004c0.001,0.001,0.002,0.002,0.005,0.003v-0.001
			c0.339,0.245,0.78,0.365,1.229,0.289c0.08-0.013,2.814-0.467,5.949-2.443c3.128-1.979,5.022-4.271,5.062-4.312l0.228-0.303
			l0.001-0.003h0.002l0.003-0.008l-0.003,0.002c1.077-1.543-1.332-3.407-2.698-1.613l-0.064,0.079l-0.281,0.343
			c0,0-0.356,0.435-1.003,1.063c-0.646,0.631-1.564,1.432-2.622,2.101c-1.058,0.665-2.055,1.078-2.781,1.319
			c-0.262,0.087-0.688-0.225-0.687-0.505c0.004-0.771,0.083-1.859,0.385-3.08c0.3-1.222,0.77-2.354,1.163-3.171
			c0.394-0.813,0.692-1.291,0.693-1.292l0.235-0.375l0.054-0.087c1.265-1.87-1.232-3.605-2.351-2.095v-0.004l-0.006,0.006
			c0,0.002,0,0.002,0,0.002l-0.003,0.002L-743.773-1883.056z"/>
		<path fill="#FF8300" d="M-761.961-1875.711c0.039,0.043,1.936,2.336,5.062,4.315c3.136,1.977,5.871,2.429,5.948,2.443
			c0.448,0.075,0.892-0.046,1.23-0.289l0.001,0.001c0.002-0.001,0.003-0.004,0.004-0.006c0.002-0.001,0.004-0.001,0.006-0.002
			v-0.001c0.335-0.251,0.584-0.638,0.651-1.093c0.011-0.082,0.43-2.851-0.459-6.476c-0.897-3.616-2.468-6.147-2.496-6.201
			l-0.215-0.31l-0.001-0.002l-0.001-0.002l-0.004-0.006l-0.001,0.004c-1.118-1.513-3.616,0.228-2.353,2.094l0.055,0.088l0.234,0.375
			c0,0.002,0.3,0.479,0.693,1.293c0.393,0.816,0.864,1.949,1.165,3.171c0.3,1.221,0.381,2.309,0.383,3.082
			c0.002,0.281-0.424,0.593-0.688,0.505c-0.725-0.242-1.724-0.654-2.778-1.322c-1.058-0.666-1.978-1.468-2.624-2.1
			c-0.645-0.627-1.001-1.064-1.001-1.064l-0.281-0.344l-0.065-0.078c-1.366-1.792-3.773,0.069-2.697,1.614l-0.002-0.002l0.002,0.008
			h0.002l0.002,0.003L-761.961-1875.711z"/>
		<path fill="#FF8300" d="M-760.671-1855.955c0.053-0.025,2.795-1.139,5.624-3.533c2.829-2.404,4.098-4.894,4.136-4.965
			c0.212-0.408,0.233-0.87,0.108-1.271h0.002c0-0.005-0.002-0.005-0.003-0.008c-0.002-0.003,0-0.003-0.002-0.006l0,0
			c-0.132-0.4-0.419-0.76-0.828-0.965c-0.072-0.036-2.548-1.294-6.232-1.558c-3.683-0.257-6.549,0.471-6.604,0.481l-0.359,0.111
			l-0.002,0.001h-0.002l-0.008,0.001l0.004,0.003c-1.768,0.606-0.903,3.546,1.244,2.908l0.099-0.026l0.427-0.109
			c0,0,0.544-0.144,1.431-0.268c0.889-0.126,2.099-0.229,3.342-0.141c1.241,0.088,2.291,0.348,3.02,0.584
			c0.264,0.084,0.425,0.593,0.261,0.817c-0.451,0.621-1.147,1.456-2.104,2.264c-0.952,0.811-1.99,1.447-2.783,1.875
			c-0.791,0.423-1.312,0.632-1.312,0.631l-0.41,0.165l-0.094,0.038c-2.108,0.761-1.1,3.651,0.685,3.093l-0.002,0.003l0.01-0.003l0,0
			l0.004-0.002L-760.671-1855.955z"/>
	</g>
	<g>
		<path fill="#7C7E7F" d="M-720.349-1846.645c0.821,0,1.453,0.209,1.896,0.627c0.443,0.418,0.664,1.056,0.664,1.911
			c0,0.447-0.05,0.845-0.148,1.19c-0.101,0.346-0.254,0.637-0.463,0.873c-0.209,0.235-0.477,0.417-0.8,0.541
			c-0.323,0.125-0.707,0.187-1.149,0.187h-1.829v-5.33L-720.349-1846.645L-720.349-1846.645z M-720.289-1841.913
			c0.08,0,0.18-0.006,0.299-0.02c0.119-0.013,0.246-0.042,0.381-0.09c0.134-0.048,0.268-0.114,0.398-0.205
			c0.131-0.09,0.25-0.212,0.354-0.365c0.104-0.154,0.189-0.348,0.257-0.579c0.066-0.231,0.101-0.512,0.101-0.84
			c0-0.318-0.03-0.604-0.093-0.854c-0.062-0.251-0.165-0.465-0.306-0.642c-0.143-0.177-0.325-0.312-0.55-0.403
			c-0.224-0.092-0.5-0.138-0.827-0.138h-1.195v4.135L-720.289-1841.913L-720.289-1841.913z"/>
		<path fill="#7C7E7F" d="M-714.69-1846.645l2.083,5.33h-0.784l-0.582-1.604h-2.254l-0.598,1.604h-0.724l2.075-5.33H-714.69z
			 M-714.198-1843.518l-0.888-2.485h-0.015l-0.903,2.485H-714.198z"/>
		<path fill="#7C7E7F" d="M-713.339-1846.048v-0.598h4.262v0.598h-1.775v4.731h-0.709v-4.731H-713.339z"/>
		<path fill="#7C7E7F" d="M-706.942-1846.645l2.082,5.33h-0.783l-0.583-1.604h-2.254l-0.598,1.604h-0.724l2.075-5.33H-706.942z
			 M-706.45-1843.518l-0.888-2.485h-0.015l-0.903,2.485H-706.45z"/>
		<path fill="#7C7E7F" d="M-699.593-1845.917c-0.236-0.172-0.539-0.257-0.907-0.257c-0.148,0-0.296,0.015-0.439,0.045
			c-0.145,0.03-0.272,0.08-0.385,0.148c-0.111,0.07-0.201,0.163-0.269,0.28s-0.101,0.262-0.101,0.438
			c0,0.164,0.049,0.297,0.146,0.398c0.097,0.103,0.228,0.186,0.388,0.25c0.162,0.064,0.346,0.118,0.55,0.161
			c0.203,0.042,0.411,0.088,0.624,0.138c0.211,0.051,0.419,0.108,0.623,0.176c0.203,0.066,0.387,0.157,0.549,0.271
			c0.162,0.115,0.291,0.259,0.388,0.435c0.097,0.174,0.146,0.393,0.146,0.656c0,0.284-0.063,0.526-0.19,0.729
			s-0.29,0.366-0.489,0.493s-0.422,0.219-0.668,0.275c-0.246,0.058-0.491,0.086-0.734,0.086c-0.3,0-0.581-0.037-0.849-0.111
			c-0.266-0.074-0.5-0.188-0.702-0.339c-0.201-0.152-0.36-0.347-0.478-0.583c-0.117-0.237-0.175-0.517-0.175-0.841h0.672
			c0,0.225,0.043,0.417,0.13,0.579s0.202,0.294,0.343,0.399c0.143,0.104,0.308,0.182,0.497,0.23c0.189,0.05,0.383,0.075,0.582,0.075
			c0.16,0,0.32-0.015,0.481-0.045c0.16-0.03,0.308-0.081,0.437-0.153c0.129-0.071,0.234-0.17,0.313-0.295
			c0.079-0.124,0.118-0.282,0.118-0.478c0-0.185-0.048-0.333-0.145-0.448c-0.097-0.114-0.228-0.208-0.389-0.28
			c-0.162-0.071-0.346-0.13-0.549-0.176c-0.203-0.044-0.411-0.091-0.624-0.138c-0.211-0.047-0.419-0.103-0.622-0.165
			c-0.204-0.062-0.388-0.145-0.55-0.246s-0.291-0.234-0.388-0.396c-0.097-0.16-0.146-0.363-0.146-0.607
			c0-0.27,0.055-0.501,0.163-0.698c0.109-0.197,0.256-0.358,0.438-0.485c0.182-0.126,0.388-0.221,0.619-0.283
			c0.23-0.062,0.469-0.094,0.713-0.094c0.274,0,0.528,0.032,0.762,0.098c0.234,0.064,0.439,0.167,0.616,0.306
			c0.176,0.14,0.316,0.315,0.418,0.527c0.103,0.211,0.158,0.464,0.168,0.757h-0.672
			C-699.219-1845.468-699.357-1845.746-699.593-1845.917z"/>
		<path fill="#7C7E7F" d="M-696.716-1846.645v2.292h2.807v-2.292h0.709v5.33h-0.709v-2.44h-2.807v2.44h-0.709v-5.33H-696.716z"/>
		<path fill="#7C7E7F" d="M-689.804-1846.645l2.083,5.33h-0.784l-0.583-1.604h-2.254l-0.598,1.604h-0.725l2.075-5.33H-689.804z
			 M-689.312-1843.518l-0.889-2.485h-0.015l-0.903,2.485H-689.312z"/>
		<path fill="#7C7E7F" d="M-684.691-1846.645c0.508,0,0.903,0.125,1.189,0.373c0.286,0.249,0.431,0.59,0.431,1.022
			c0,0.324-0.074,0.606-0.221,0.851s-0.382,0.411-0.706,0.5v0.016c0.154,0.029,0.28,0.079,0.377,0.148
			c0.098,0.069,0.175,0.153,0.231,0.25c0.057,0.098,0.1,0.205,0.127,0.325c0.027,0.119,0.048,0.244,0.063,0.374
			c0.01,0.129,0.017,0.261,0.021,0.396s0.018,0.267,0.038,0.396c0.02,0.13,0.048,0.252,0.086,0.369
			c0.037,0.117,0.093,0.22,0.168,0.31h-0.792c-0.05-0.055-0.083-0.129-0.101-0.224c-0.019-0.094-0.029-0.2-0.034-0.317
			c-0.005-0.116-0.01-0.243-0.016-0.377c-0.005-0.134-0.02-0.266-0.045-0.396c-0.02-0.129-0.045-0.252-0.074-0.369
			c-0.03-0.117-0.077-0.219-0.143-0.307c-0.064-0.088-0.148-0.156-0.254-0.208c-0.104-0.053-0.244-0.079-0.418-0.079h-1.732v2.276
			h-0.709v-5.33H-684.691z M-684.542-1844.227c0.149-0.024,0.28-0.073,0.393-0.146c0.111-0.072,0.2-0.169,0.269-0.292
			c0.067-0.122,0.102-0.28,0.102-0.475c0-0.269-0.074-0.487-0.225-0.656c-0.149-0.169-0.391-0.253-0.724-0.253h-1.763v1.858h1.479
			C-684.848-1844.189-684.691-1844.202-684.542-1844.227z"/>
		<path fill="#7C7E7F" d="M-681.347-1846.645v5.33h-0.709v-5.33H-681.347z"/>
		<path fill="#7C7E7F" d="M-679.406-1846.645l2.808,4.322h0.015v-4.322h0.672v5.33h-0.775l-2.784-4.276h-0.015v4.276h-0.673v-5.33
			H-679.406z"/>
		<path fill="#7C7E7F" d="M-671.554-1841.379c-0.31,0.122-0.62,0.183-0.933,0.183c-0.398,0-0.755-0.074-1.067-0.221
			c-0.313-0.147-0.58-0.344-0.798-0.593c-0.219-0.249-0.386-0.535-0.5-0.858s-0.171-0.659-0.171-1.008
			c0-0.389,0.053-0.757,0.159-1.108c0.107-0.351,0.267-0.658,0.479-0.922s0.476-0.474,0.792-0.631
			c0.316-0.156,0.686-0.235,1.108-0.235c0.288,0,0.561,0.033,0.816,0.102c0.256,0.067,0.485,0.173,0.688,0.316
			c0.202,0.146,0.371,0.327,0.508,0.549s0.229,0.489,0.28,0.803h-0.709c-0.035-0.204-0.101-0.38-0.194-0.526
			c-0.095-0.146-0.212-0.268-0.351-0.362c-0.14-0.095-0.298-0.166-0.475-0.213s-0.365-0.071-0.563-0.071
			c-0.323,0-0.602,0.064-0.832,0.194c-0.231,0.13-0.421,0.3-0.567,0.512c-0.146,0.211-0.255,0.453-0.325,0.725
			c-0.069,0.271-0.104,0.549-0.104,0.833c0,0.278,0.04,0.546,0.119,0.802c0.08,0.257,0.196,0.482,0.351,0.68
			c0.154,0.196,0.345,0.354,0.571,0.47c0.226,0.117,0.488,0.177,0.787,0.177c0.278,0,0.524-0.045,0.738-0.136
			c0.214-0.089,0.395-0.212,0.541-0.368c0.147-0.157,0.259-0.342,0.332-0.554c0.075-0.211,0.107-0.438,0.098-0.683h-1.702v-0.597
			h2.336v2.807h-0.448l-0.187-0.665C-670.986-1841.701-671.245-1841.501-671.554-1841.379z"/>
		<path fill="#7C7E7F" d="M-666.038-1846.645l1.681,4.479l1.687-4.479h0.97v5.33h-0.672v-4.434h-0.015l-1.665,4.434h-0.604
			l-1.665-4.434h-0.015v4.434h-0.672v-5.33H-666.038z"/>
		<path fill="#7C7E7F" d="M-658.29-1846.645l2.083,5.33h-0.784l-0.581-1.604h-2.255l-0.597,1.604h-0.724l2.075-5.33H-658.29z
			 M-657.797-1843.518l-0.888-2.485h-0.016l-0.902,2.485H-657.797z"/>
		<path fill="#7C7E7F" d="M-653.855-1846.645c0.82,0,1.453,0.209,1.896,0.627c0.443,0.418,0.664,1.056,0.664,1.911
			c0,0.447-0.05,0.845-0.148,1.19c-0.101,0.346-0.255,0.637-0.464,0.873c-0.209,0.235-0.475,0.417-0.799,0.541
			c-0.323,0.125-0.707,0.187-1.148,0.187h-1.829v-5.33L-653.855-1846.645L-653.855-1846.645z M-653.796-1841.913
			c0.08,0,0.179-0.006,0.299-0.02c0.119-0.013,0.246-0.042,0.38-0.09c0.136-0.047,0.269-0.114,0.399-0.205
			c0.131-0.09,0.25-0.212,0.354-0.365c0.104-0.154,0.19-0.348,0.259-0.579c0.066-0.231,0.101-0.512,0.101-0.84
			c0-0.318-0.031-0.604-0.093-0.854c-0.062-0.251-0.164-0.465-0.307-0.642c-0.142-0.177-0.324-0.312-0.549-0.403
			c-0.224-0.092-0.5-0.138-0.828-0.138h-1.193v4.135L-653.796-1841.913L-653.796-1841.913z"/>
		<path fill="#7C7E7F" d="M-646.75-1846.645v0.598h-2.971v1.693h2.769v0.598h-2.769v1.844h2.993v0.597h-3.702v-5.33
			L-646.75-1846.645L-646.75-1846.645z"/>
		<path fill="#7C7E7F" d="M-640.113-1846.645v0.598h-2.972v1.693h2.771v0.598h-2.771v1.844h2.993v0.597h-3.702v-5.33
			L-640.113-1846.645L-640.113-1846.645z"/>
		<path fill="#7C7E7F" d="M-637.001-1846.645l2.083,5.33h-0.784l-0.583-1.604h-2.254l-0.597,1.604h-0.724l2.075-5.33H-637.001z
			 M-636.509-1843.518l-0.888-2.485h-0.016l-0.902,2.485H-636.509z"/>
		<path fill="#7C7E7F" d="M-631.728-1845.917c-0.237-0.172-0.539-0.257-0.907-0.257c-0.149,0-0.296,0.015-0.44,0.045
			s-0.271,0.08-0.385,0.148c-0.112,0.07-0.201,0.163-0.269,0.28s-0.102,0.262-0.102,0.438c0,0.164,0.048,0.297,0.146,0.398
			c0.097,0.103,0.226,0.186,0.388,0.25s0.344,0.118,0.548,0.161c0.204,0.042,0.412,0.088,0.623,0.138
			c0.212,0.051,0.419,0.108,0.624,0.176c0.204,0.066,0.387,0.157,0.549,0.271c0.162,0.115,0.291,0.259,0.389,0.435
			c0.097,0.174,0.146,0.393,0.146,0.656c0,0.284-0.062,0.526-0.189,0.729c-0.126,0.202-0.29,0.366-0.489,0.493
			s-0.422,0.219-0.668,0.275c-0.246,0.058-0.492,0.086-0.735,0.086c-0.299,0-0.582-0.037-0.847-0.111
			c-0.268-0.074-0.5-0.188-0.702-0.339c-0.202-0.152-0.361-0.347-0.479-0.583c-0.116-0.237-0.175-0.517-0.175-0.841h0.672
			c0,0.225,0.043,0.417,0.132,0.579c0.086,0.162,0.201,0.294,0.343,0.399c0.142,0.104,0.307,0.182,0.497,0.23
			c0.188,0.05,0.383,0.075,0.582,0.075c0.158,0,0.318-0.015,0.48-0.045s0.308-0.081,0.438-0.153c0.129-0.071,0.232-0.17,0.312-0.295
			c0.08-0.124,0.119-0.282,0.119-0.478c0-0.185-0.048-0.333-0.145-0.448c-0.098-0.114-0.228-0.208-0.389-0.28
			c-0.162-0.071-0.345-0.13-0.549-0.176c-0.204-0.044-0.412-0.091-0.623-0.138c-0.212-0.047-0.419-0.103-0.624-0.165
			c-0.204-0.062-0.387-0.145-0.549-0.246s-0.291-0.234-0.388-0.396c-0.098-0.16-0.146-0.363-0.146-0.607
			c0-0.27,0.054-0.501,0.164-0.698c0.109-0.197,0.255-0.358,0.438-0.485c0.182-0.126,0.388-0.221,0.619-0.283
			s0.47-0.094,0.713-0.094c0.273,0,0.526,0.032,0.762,0.098c0.233,0.064,0.438,0.167,0.616,0.306
			c0.176,0.14,0.315,0.315,0.418,0.527c0.102,0.211,0.158,0.464,0.168,0.757h-0.672
			C-631.353-1845.468-631.491-1845.746-631.728-1845.917z"/>
		<path fill="#7C7E7F" d="M-627.357-1841.315h-0.708v-2.18l-2.062-3.149h0.844l1.598,2.538l1.56-2.538h0.807l-2.038,3.149V-1841.315
			z"/>
	</g>
	<line fill="none" stroke="#7C7E7F" stroke-miterlimit="10" x1="-773.395" y1="-1890" x2="-773.395" y2="-1842"/>
	<g>
		<g>
			<path fill="#7E7D7E" d="M-860.542-1879.371v-4.845h1.373v4.688c0,1.736,0.648,2.431,2.132,2.431c1.404,0,2.035-0.82,2.035-2.288
				v-4.83h1.264v4.72c0,2.162-1.073,3.535-3.347,3.535C-859.469-1875.961-860.542-1877.302-860.542-1879.371z"/>
			<path fill="#7E7D7E" d="M-850.679-1884.215h1.373l3.583,4.907c0.458,0.647,0.82,1.343,0.836,1.343h0.032
				c0,0-0.063-0.632-0.063-1.247v-5.003h1.231v8.111h-1.231l-3.803-5.208c-0.379-0.552-0.728-1.199-0.728-1.199h-0.016
				c0,0,0.048,0.538,0.048,1.042v5.365h-1.262L-850.679-1884.215L-850.679-1884.215z"/>
			<path fill="#7E7D7E" d="M-840.47-1884.215h1.357v8.111h-1.357V-1884.215z"/>
			<path fill="#7E7D7E" d="M-836.84-1884.215h1.436l2.053,5.317c0.235,0.602,0.474,1.374,0.474,1.391h0.031
				c0-0.017,0.237-0.773,0.473-1.391l1.975-5.317h1.31l-3.141,8.111h-1.326L-836.84-1884.215z"/>
			<path fill="#7E7D7E" d="M-826.865-1884.215h4.956v1.104h-3.599v2.226h3.22v1.073h-3.22v2.604h3.678v1.104h-5.035V-1884.215z"/>
			<path fill="#7E7D7E" d="M-819.069-1884.215h2.54c1.895,0,2.983,0.772,2.983,2.241c0,1.389-1.01,2.005-2.226,2.131v0.031
				c0.174,0.125,0.475,0.426,0.963,1.104l1.926,2.604h-1.562l-1.643-2.319c-0.805-1.121-0.994-1.214-1.481-1.214h-0.143v3.534
				h-1.356L-819.069-1884.215L-819.069-1884.215z M-816.56-1880.648c1.136,0,1.625-0.427,1.625-1.263
				c0-0.853-0.536-1.248-1.703-1.248h-1.074v2.51L-816.56-1880.648L-816.56-1880.648z"/>
			<path fill="#7E7D7E" d="M-811.29-1876.766l0.601-0.963c0.22,0.158,0.819,0.663,1.893,0.663c0.963,0,1.593-0.426,1.593-1.136
				c0-0.853-0.771-1.089-1.956-1.641c-1.042-0.475-1.926-1.059-1.926-2.337c0-1.419,1.215-2.192,2.619-2.192
				c1.327,0,2.006,0.426,2.354,0.662l-0.584,0.963c-0.302-0.205-0.915-0.521-1.722-0.521c-0.771,0-1.341,0.332-1.341,1.026
				c0,0.772,0.678,1.01,1.562,1.405c1.137,0.505,2.305,1.088,2.305,2.571c0,1.421-1.136,2.305-2.888,2.305
				C-810.138-1875.961-810.96-1876.466-811.29-1876.766z"/>
			<path fill="#7E7D7E" d="M-803.227-1884.215h1.356v8.111h-1.356V-1884.215z"/>
			<path fill="#7E7D7E" d="M-797.104-1883.094h-2.479v-1.121h6.329v1.121h-2.478v6.991h-1.373V-1883.094L-797.104-1883.094z"/>
			<path fill="#7E7D7E" d="M-788.914-1879.181l-2.855-5.034h1.482l2.084,3.851h0.031l2.052-3.851h1.326l-2.763,5.034v3.078h-1.357
				V-1879.181L-788.914-1879.181z"/>
			<path fill="#7E7D7E" d="M-861-1866.198c0-2.226,1.563-4.229,4.277-4.229c2.715,0,4.276,1.956,4.276,4.181
				s-1.53,4.229-4.246,4.229C-859.406-1862.016-861-1863.973-861-1866.198z M-853.882-1866.198c0-1.673-0.931-3.125-2.81-3.125
				c-1.877,0-2.856,1.438-2.856,3.078c0,1.672,0.947,3.109,2.826,3.109C-854.845-1863.136-853.882-1864.542-853.882-1866.198z"/>
			<path fill="#7E7D7E" d="M-850.048-1870.27h4.877v1.104h-3.521v2.305h3.109v1.087h-3.109v3.616h-1.356V-1870.27z"/>
			<path fill="#7E7D7E" d="M-861-1852.285c0-2.256,1.547-4.197,4.292-4.197c1.09,0,1.815,0.237,2.446,0.646l-0.646,1.01
				c-0.474-0.316-1.042-0.521-1.831-0.521c-1.847,0-2.81,1.279-2.81,3.016c0,1.784,0.916,3.126,2.841,3.126
				c0.916,0,1.531-0.3,2.006-0.646l0.567,0.96c-0.442,0.378-1.388,0.822-2.62,0.822C-859.517-1848.07-861-1850.028-861-1852.285z"/>
			<path fill="#7E7D7E" d="M-849.606-1856.325h1.327l3.298,8.113h-1.42l-0.695-1.769h-3.772l-0.661,1.769h-1.344L-849.606-1856.325z
				 M-847.507-1851.085l-0.963-2.478c-0.269-0.71-0.505-1.468-0.505-1.468h-0.031c0,0-0.252,0.79-0.505,1.468l-0.947,2.478H-847.507
				z"/>
			<path fill="#7E7D7E" d="M-842.995-1856.325h1.391v7.007h3.424v1.106h-4.814V-1856.325z"/>
			<path fill="#7E7D7E" d="M-835.861-1856.325h1.356v8.113h-1.356V-1856.325z"/>
			<path fill="#7E7D7E" d="M-831.491-1856.325h4.878v1.105h-3.519v2.304h3.108v1.089h-3.108v3.615h-1.359V-1856.325z"/>
			<path fill="#7E7D7E" d="M-824.862-1852.253c0-2.226,1.562-4.229,4.276-4.229c2.716,0,4.278,1.957,4.278,4.183
				s-1.531,4.229-4.247,4.229C-823.268-1848.07-824.862-1850.028-824.862-1852.253z M-817.744-1852.253
				c0-1.672-0.932-3.125-2.81-3.125s-2.857,1.437-2.857,3.078c0,1.673,0.949,3.108,2.826,3.108
				C-818.707-1849.191-817.744-1850.595-817.744-1852.253z"/>
			<path fill="#7E7D7E" d="M-814.274-1856.325h2.542c1.894,0,2.982,0.773,2.982,2.241c0,1.389-1.011,2.004-2.225,2.13v0.032
				c0.173,0.125,0.472,0.427,0.962,1.104l1.926,2.605h-1.562l-1.643-2.321c-0.805-1.121-0.994-1.217-1.483-1.217h-0.143v3.538
				h-1.357V-1856.325L-814.274-1856.325z M-811.763-1852.757c1.137,0,1.625-0.427,1.625-1.264c0-0.853-0.537-1.246-1.705-1.246
				h-1.073v2.509L-811.763-1852.757L-811.763-1852.757z"/>
			<path fill="#7E7D7E" d="M-806.099-1856.325h1.373l3.584,4.909c0.458,0.646,0.819,1.341,0.836,1.341h0.031
				c0,0-0.062-0.631-0.062-1.246v-5.004h1.23v8.113h-1.23l-3.803-5.208c-0.38-0.554-0.728-1.201-0.728-1.201h-0.016
				c0,0,0.047,0.537,0.047,1.041v5.368h-1.263V-1856.325z"/>
			<path fill="#7E7D7E" d="M-796.109-1856.325h1.357v8.113h-1.357V-1856.325z"/>
			<path fill="#7E7D7E" d="M-789.402-1856.325h1.325l3.299,8.113h-1.421l-0.694-1.769h-3.772l-0.664,1.769h-1.341L-789.402-1856.325
				z M-787.303-1851.085l-0.962-2.478c-0.271-0.71-0.506-1.468-0.506-1.468h-0.03c0,0-0.252,0.79-0.506,1.468l-0.948,2.478H-787.303
				z"/>
		</g>
	</g>
</g>
<g>
	<g>
		<path fill="#7E7D7E" d="M0.458,10.629V5.785H1.83v4.688c0,1.736,0.648,2.43,2.132,2.43c1.404,0,2.035-0.819,2.035-2.287v-4.83
			h1.265v4.72c0,2.162-1.074,3.535-3.348,3.535C1.531,14.039,0.458,12.698,0.458,10.629z"/>
		<path fill="#7E7D7E" d="M10.321,5.785h1.373l3.583,4.907c0.458,0.647,0.82,1.343,0.836,1.343h0.032c0,0-0.063-0.633-0.063-1.247
			V5.785h1.231v8.111h-1.231l-3.803-5.208C11.9,8.137,11.552,7.49,11.552,7.49h-0.016c0,0,0.048,0.537,0.048,1.042v5.365h-1.262
			L10.321,5.785L10.321,5.785z"/>
		<path fill="#7E7D7E" d="M20.53,5.785h1.357v8.111H20.53V5.785z"/>
		<path fill="#7E7D7E" d="M24.16,5.785h1.437l2.052,5.317c0.235,0.602,0.474,1.374,0.474,1.391h0.031
			c0-0.017,0.237-0.773,0.473-1.391L30.6,5.785h1.31l-3.141,8.111h-1.326L24.16,5.785z"/>
		<path fill="#7E7D7E" d="M34.135,5.785h4.956V6.89h-3.599v2.226h3.22v1.073h-3.22v2.604h3.678v1.104h-5.035V5.785z"/>
		<path fill="#7E7D7E" d="M41.931,5.785h2.54c1.895,0,2.983,0.772,2.983,2.241c0,1.389-1.01,2.005-2.226,2.131v0.031
			c0.174,0.125,0.475,0.426,0.963,1.104l1.926,2.604h-1.562l-1.643-2.319c-0.805-1.121-0.994-1.215-1.481-1.215h-0.143v3.535h-1.356
			L41.931,5.785L41.931,5.785z M44.44,9.352c1.136,0,1.625-0.427,1.625-1.263c0-0.854-0.536-1.248-1.703-1.248h-1.074v2.51
			L44.44,9.352L44.44,9.352z"/>
		<path fill="#7E7D7E" d="M49.71,13.234l0.601-0.963c0.22,0.158,0.819,0.663,1.893,0.663c0.963,0,1.593-0.426,1.593-1.136
			c0-0.853-0.771-1.089-1.956-1.641c-1.042-0.475-1.926-1.059-1.926-2.337c0-1.419,1.215-2.192,2.619-2.192
			c1.327,0,2.006,0.426,2.354,0.662l-0.585,0.963c-0.301-0.205-0.914-0.521-1.721-0.521c-0.771,0-1.341,0.332-1.341,1.026
			c0,0.773,0.678,1.01,1.562,1.405c1.138,0.505,2.306,1.088,2.306,2.571c0,1.421-1.136,2.305-2.889,2.305
			C50.862,14.039,50.04,13.534,49.71,13.234z"/>
		<path fill="#7E7D7E" d="M57.773,5.785h1.356v8.111h-1.356V5.785z"/>
		<path fill="#7E7D7E" d="M63.896,6.906h-2.479v-1.12h6.329v1.121H65.27v6.991h-1.373L63.896,6.906L63.896,6.906z"/>
		<path fill="#7E7D7E" d="M72.086,10.819L69.23,5.785h1.482l2.084,3.851h0.031l2.052-3.851h1.326l-2.763,5.034v3.078h-1.357V10.819z
			"/>
		<path fill="#7E7D7E" d="M0,23.802c0-2.226,1.563-4.229,4.277-4.229c2.715,0,4.277,1.955,4.277,4.181
			c0,2.225-1.531,4.229-4.247,4.229C1.594,27.984,0,26.027,0,23.802z M7.118,23.802c0-1.673-0.931-3.125-2.81-3.125
			c-1.877,0-2.856,1.438-2.856,3.078c0,1.672,0.947,3.109,2.826,3.109C6.155,26.863,7.118,25.458,7.118,23.802z"/>
		<path fill="#7E7D7E" d="M10.952,19.73h4.877v1.104h-3.521v2.305h3.109v1.087h-3.109v3.616h-1.356V19.73z"/>
		<path fill="#7E7D7E" d="M0,37.715c0-2.256,1.547-4.197,4.292-4.197c1.09,0,1.815,0.237,2.446,0.646l-0.646,1.01
			c-0.474-0.316-1.042-0.521-1.83-0.521c-1.848,0-2.811,1.279-2.811,3.016c0,1.784,0.916,3.125,2.841,3.125
			c0.916,0,1.531-0.299,2.006-0.646l0.567,0.96c-0.442,0.378-1.388,0.821-2.62,0.821C1.483,41.93,0,39.973,0,37.715z"/>
		<path fill="#7E7D7E" d="M11.394,33.675h1.327l3.298,8.114h-1.42l-0.695-1.77h-3.772l-0.661,1.77H8.126L11.394,33.675z
			 M13.493,38.915l-0.963-2.478c-0.268-0.71-0.505-1.468-0.505-1.468h-0.031c0,0-0.252,0.79-0.505,1.468l-0.947,2.478H13.493z"/>
		<path fill="#7E7D7E" d="M18.005,33.675h1.391v7.006h3.424v1.107h-4.814V33.675z"/>
		<path fill="#7E7D7E" d="M25.139,33.675h1.356v8.114h-1.356V33.675z"/>
		<path fill="#7E7D7E" d="M29.509,33.675h4.879v1.105h-3.52v2.304h3.108v1.089h-3.108v3.616h-1.359V33.675z"/>
		<path fill="#7E7D7E" d="M36.138,37.747c0-2.226,1.562-4.229,4.276-4.229c2.716,0,4.278,1.957,4.278,4.183
			s-1.531,4.229-4.247,4.229C37.732,41.93,36.138,39.973,36.138,37.747z M43.256,37.747c0-1.672-0.932-3.125-2.81-3.125
			s-2.857,1.437-2.857,3.078c0,1.673,0.949,3.108,2.826,3.108C42.293,40.809,43.256,39.404,43.256,37.747z"/>
		<path fill="#7E7D7E" d="M46.726,33.675h2.542c1.894,0,2.982,0.773,2.982,2.241c0,1.389-1.011,2.004-2.225,2.13v0.032
			c0.173,0.125,0.472,0.427,0.962,1.104l1.926,2.605h-1.562l-1.643-2.321c-0.805-1.121-0.994-1.217-1.483-1.217h-0.143v3.538h-1.357
			V33.675L46.726,33.675z M49.237,37.243c1.137,0,1.625-0.427,1.625-1.264c0-0.853-0.537-1.247-1.705-1.247h-1.073v2.51
			L49.237,37.243L49.237,37.243z"/>
		<path fill="#7E7D7E" d="M54.901,33.675h1.373l3.584,4.909c0.458,0.646,0.82,1.341,0.836,1.341h0.031c0,0-0.062-0.631-0.062-1.247
			v-5.004h1.23v8.114h-1.23L56.86,36.58c-0.38-0.555-0.728-1.201-0.728-1.201h-0.016c0,0,0.047,0.537,0.047,1.041v5.369h-1.263
			V33.675z"/>
		<path fill="#7E7D7E" d="M64.891,33.675h1.357v8.114h-1.357V33.675z"/>
		<path fill="#7E7D7E" d="M71.598,33.675h1.325l3.299,8.114h-1.421l-0.694-1.77h-3.772l-0.664,1.77H68.33L71.598,33.675z
			 M73.697,38.915l-0.962-2.478c-0.271-0.71-0.506-1.468-0.506-1.468h-0.03c0,0-0.252,0.79-0.506,1.468l-0.948,2.478H73.697z"/>
	</g>
</g>
</svg>
