<?xml version="1.0" encoding="utf-8"?>
<!-- Generator: Adobe Illustrator 16.0.0, SVG Export Plug-In . SVG Version: 6.00 Build 0)  -->
<!DOCTYPE svg PUBLIC "-//W3C//DTD SVG 1.1//EN" "http://www.w3.org/Graphics/SVG/1.1/DTD/svg11.dtd">
<svg version="1.1" id="Layer_1" xmlns="http://www.w3.org/2000/svg" xmlns:xlink="http://www.w3.org/1999/xlink" x="0px" y="0px"
	 width="163.581px" height="41.828px" viewBox="5.919 4.781 163.581 41.828" enable-background="new 5.919 4.781 163.581 41.828"
	 xml:space="preserve">
<g>
	<path fill="#DEB308" d="M149.297,29.558l2.619-6.928l0.457,0.393c1.606,1.312,3.787,2.428,5.848,2.472
		c1.841,0.043,2.74-0.447,2.496-2.004c-0.184-1.164-1.496-1.369-2.315-1.531l-1.802-0.359c-3.504-0.654-6.449-2.816-6.449-6.909
		c0-6.189,5.336-9.66,10.702-9.66c2.821,0,5.405,0.718,7.828,2.292l-2.272,6.138c-1.248-0.898-3.137-2.162-5.527-2.25
		c-0.785-0.03-2.584,0.383-2.008,2.209c0.248,0.777,1.363,1.104,2.049,1.27l2.031,0.491c3.799,0.884,6.547,3.046,6.547,7.464
		c0,6.223-5.369,9.303-10.705,9.303C155.684,31.949,152.079,31.063,149.297,29.558"/>
	<rect x="138.383" y="5.456" fill="#DEB308" width="8.982" height="26.103"/>
	<polygon fill="#DEB308" points="128.081,5.456 137.443,5.456 127.881,31.559 120.286,31.559 110.758,5.456 120.086,5.456 
		124.084,21.207 	"/>
	<path fill="#DEB308" d="M102.208,12.99L102.208,12.99c0.166,1.111,1.801,9.099,1.801,9.099h-3.59L102.208,12.99z M88.586,31.559
		h9.496l0.721-3.278h6.777l0.9,3.278h9.498l-8.893-26.103h-9.959L88.586,31.559z"/>
	<path fill="#DEB308" d="M65.27,5.456h9.202c8.352,0,14.735,3.834,14.735,13.428c0,7.729-5.205,12.675-12.508,12.675L65.27,31.544
		V5.456z M74.309,24.063h0.615c3.012,0,5.247-1.808,5.247-5.213c0-3.668-1.981-5.714-5.29-5.714h-0.572V24.063z"/>
	<path fill="#DEB308" d="M59.803,6.275l0.486,4.282c0.116,1.019,0.694,3.458-0.02,3.13c-0.451-0.202-0.819-1.309-1.188-2.289
		c-0.187-0.499-1.077-2.856-1.31-3.029c-1.124-0.843-3.929-1.79-5.827-1.798c-5.756-0.022-9.563,4.223-9.563,11.757
		c0,5.401,2.587,11.884,9.169,11.884c2.358,0,6.875-0.742,8.104-4.097c0.555-1.519,1.064-2.867,1.433-2.46
		c0.271,0.301-0.083,1.517-0.247,2.17c-0.775,3.112-0.818,4.053-1.063,4.174c-2.974,1.492-6.787,1.983-10.125,1.983
		c-10.611,0-14.278-6.19-14.278-12.378c0-10.741,6.599-15.187,16.831-14.801C54.79,4.899,57.378,5.359,59.803,6.275"/>
	<path fill="#DEB308" d="M28.464,6.75l-1.697-0.593C26.194,5.643,26.89,5.5,26.89,5.5s2.456,0.455,8.577-0.062
		c0,0,0.531,0.104,0.162,0.536l-2.006,0.859c-1.308,0.571-1.308,0.243-1.308,1.676l-0.011,13.302
		c0,10.403-10.584,10.169-12.647,10.169c-0.981,0-10.611,0-10.611-8.352V9.55c0-2.456,0.262-2.389-0.554-2.678L6.035,5.95
		c0,0-0.414-0.588,0.326-0.55c2.006,0.101,4.913,0.532,11.667,0.04c0,0,0.593,0.144,0.204,0.573l-1.964,0.574
		c-1.556,0.696-1.35,0.164-1.392,1.76l0.048,13.884c0,3.406,1.752,7.619,7.188,7.619c7.501,0,7.571-6.486,7.571-7.928l0.013-13.755
		C29.775,6.872,29.612,7.241,28.464,6.75"/>
	<rect x="8.188" y="34.712" fill="#DEB308" width="160.925" height="0.873"/>
	<path fill="#004B85" d="M165.991,43.07h-2.402l1.34-3.211L165.991,43.07z M166.163,43.509c0.498,1.457,0.826,2.302,0.826,2.388
		s-0.082,0.124-0.164,0.124h-0.65v0.357h2.699v-0.357h-0.357c-0.314,0-0.458-0.172-0.739-0.934
		c-0.592-1.604-2.083-5.633-2.083-6.154c0-0.23,0.21-0.219,0.21-0.377c0-0.084-0.058-0.121-0.118-0.121
		c-0.067,0-0.41,0.087-0.711,0.158l-3.056,7.232c-0.069,0.157-0.248,0.194-0.435,0.194h-0.24v0.356h2.439V46.02h-0.757
		c-0.185,0-0.31-0.065-0.31-0.312c0-0.34,0.439-1.521,0.697-2.199H166.163L166.163,43.509z M159.62,39.266
		c0-0.104,0.047-0.188,0.18-0.188h0.541v-0.363h-2.799v0.363h0.713c0.315,0,0.338,0.459,0.338,1.701v5.047
		c0,0.108-0.047,0.194-0.184,0.194h-0.566v0.356h2.8V46.02h-0.683c-0.317,0-0.34-0.462-0.34-1.702V39.266L159.62,39.266z
		 M150.288,38.714h-1.756v0.363h0.374c0.575,0,0.679,0.412,0.679,1.387v5.312c0,0.179-0.135,0.244-0.272,0.244h-0.448v0.356h2.208
		V46.02h-0.64c-0.362,0-0.389-0.714-0.389-1.271v-4.863h0.025l5.227,6.301l0.146,0.164c0.084,0.1,0.134,0.137,0.168,0.137
		c0.088,0,0.101-0.084,0.101-0.189v-6.979c0-0.182,0.129-0.239,0.274-0.239h0.449v-0.365h-2.208v0.365h0.641
		c0.357,0,0.381,0.713,0.381,1.266v4.345h-0.022L150.288,38.714z M142.271,45.826c0,0.108-0.049,0.194-0.183,0.194h-0.563v0.356
		h2.795V46.02h-0.688c-0.311,0-0.334-0.462-0.334-1.702v-1.412h0.895c2.207,3.467,2.34,3.473,2.617,3.473h1.393v-0.357h-0.303
		c-0.355,0-0.763-0.398-2.76-3.288c1.068-0.19,1.893-0.858,1.893-1.944c0-1.529-1.373-2.074-2.431-2.074h-3.381v0.363h0.713
		c0.313,0,0.339,0.459,0.339,1.701L142.271,45.826L142.271,45.826z M143.297,42.542v-3.225c0-0.158,0.168-0.166,0.279-0.166h0.614
		c0.947,0,1.808,0.694,1.808,1.829c0,1.187-1.064,1.562-2.099,1.562H143.297z M136.347,38.884c1.424,0,3.044,1.158,3.044,3.888
		c0,2.194-1.102,3.44-2.73,3.44c-1.427,0-3.039-1.16-3.039-3.894C133.62,40.126,134.715,38.884,136.347,38.884 M136.396,46.609
		c2.401,0,4.021-1.898,4.021-4.176c0-2.352-1.377-3.95-3.81-3.95c-2.399,0-4.017,1.897-4.017,4.181
		C132.59,45.015,133.969,46.609,136.396,46.609 M125.816,39.078h0.714c0.312,0,0.334,0.459,0.334,1.701v5.047
		c0,0.108-0.045,0.194-0.177,0.194h-0.567v0.356h2.803V46.02h-0.689c-0.314,0-0.337-0.462-0.337-1.702v-1.934h1.519
		c1.379,0,1.494,0.013,1.494,0.337v0.422h0.332v-2.04h-0.332v0.473c0,0.36-0.367,0.414-1.611,0.414h-1.4v-2.623
		c0-0.121,0.059-0.215,0.24-0.215h1.185c1.901,0,2.111,0.323,2.149,0.465c0.023,0.164,0.045,0.221,0.145,0.221
		c0.107-0.025,0.141-0.057,0.25-1.123h-6.048v0.363H125.816z M123.606,39.266c0-0.104,0.051-0.188,0.182-0.188h0.551v-0.363h-2.805
		v0.363h0.713c0.315,0,0.338,0.459,0.338,1.701v5.047c0,0.108-0.051,0.194-0.185,0.194h-0.562v0.356h2.799V46.02h-0.688
		c-0.312,0-0.344-0.462-0.344-1.702V39.266z M117.491,38.714h-2.804v0.363h0.713c0.313,0,0.337,0.459,0.337,1.701v5.047
		c0,0.108-0.045,0.194-0.179,0.194h-0.565v0.356h5.742c0.145-0.48,0.301-0.967,0.301-1.071c0-0.06-0.049-0.13-0.096-0.13
		c-0.087,0-0.107,0.07-0.141,0.13c-0.209,0.334-0.684,0.64-2.729,0.64h-0.807c-0.369,0-0.5,0-0.5-1.496v-5.184
		c0-0.105,0.048-0.188,0.183-0.188h0.543v-0.363H117.491z M111.275,43.07h-2.405l1.336-3.211L111.275,43.07z M111.442,43.509
		c0.497,1.457,0.834,2.302,0.834,2.388s-0.085,0.124-0.176,0.124h-0.646v0.357h2.698v-0.357h-0.356
		c-0.312,0-0.457-0.172-0.732-0.934c-0.593-1.604-2.091-5.633-2.091-6.154c0-0.23,0.21-0.219,0.21-0.377
		c0-0.084-0.051-0.121-0.12-0.121c-0.067,0-0.408,0.087-0.709,0.158l-3.056,7.232c-0.069,0.157-0.246,0.194-0.428,0.194h-0.244
		v0.356h2.441V46.02h-0.766c-0.178,0-0.303-0.065-0.303-0.312c0-0.34,0.436-1.521,0.699-2.199H111.442L111.442,43.509z
		 M105.874,38.896c-0.647-0.254-1.342-0.413-2.07-0.413c-2.516,0-4.676,1.765-4.676,4.358c0,2.512,1.681,3.768,4.082,3.768
		c0.93,0,1.967-0.215,2.771-0.611c0.054-0.766,0.077-0.942,0.077-1.056c0-0.071-0.023-0.157-0.119-0.157
		c-0.135,0-0.148,0.123-0.159,0.219c-0.084,0.678-1.276,1.17-2.368,1.17c-1.494,0-3.185-1.219-3.185-3.461
		c0-2.103,1.282-3.791,3.499-3.791c0.727,0,1.729,0.326,1.789,0.756c0.025,0.183,0.033,0.236,0.14,0.236
		C105.779,39.914,105.79,39.873,105.874,38.896 M88.624,39.078h0.713c0.314,0,0.343,0.459,0.343,1.701v5.047
		c0,0.108-0.048,0.194-0.185,0.194h-0.565v0.356h2.802V46.02h-0.689c-0.312,0-0.338-0.462-0.338-1.702v-1.934h1.523
		c1.376,0,1.494,0.013,1.494,0.337v0.422h0.32v-2.04h-0.32v0.473c0,0.36-0.374,0.414-1.617,0.414h-1.4v-2.623
		c0-0.121,0.062-0.215,0.238-0.215h1.186c1.91,0,2.113,0.323,2.15,0.465c0.023,0.164,0.044,0.221,0.146,0.221
		c0.104-0.025,0.146-0.057,0.248-1.123h-6.049V39.078L88.624,39.078z M83.696,38.884c1.427,0,3.044,1.158,3.044,3.888
		c0,2.194-1.1,3.44-2.731,3.44c-1.423,0-3.042-1.16-3.042-3.894C80.967,40.126,82.068,38.884,83.696,38.884 M83.748,46.609
		c2.397,0,4.019-1.898,4.019-4.176c0-2.352-1.38-3.95-3.807-3.95c-2.401,0-4.02,1.897-4.02,4.181
		C79.94,45.015,81.318,46.609,83.748,46.609 M73.343,43.052l1.979-3.613c0.084-0.156,0.145-0.361,0.338-0.361h0.425v-0.363h-2.2
		v0.363h0.705c0.138,0,0.239,0.01,0.239,0.146c0,0.229-0.171,0.581-1.655,3.373c-0.908-1.601-1.942-3.359-1.942-3.474
		c0-0.045,0.109-0.045,0.192-0.045h0.555v-0.363h-2.716v0.363h0.408c0.209,0,0.269,0.01,0.398,0.182
		c0.448,0.568,0.858,1.4,2.248,3.826v2.74c0,0.108-0.052,0.194-0.18,0.194H71.57v0.356h2.799V46.02h-0.693
		c-0.313,0-0.333-0.462-0.333-1.702V43.052z M66.04,39.153h0.302c1.413,0,2.099,0.249,2.217,0.615c0.025,0.069,0.077,0.17,0.17,0.17
		c0.074,0,0.135-0.041,0.135-0.125c0-0.075-0.17-0.601-0.34-1.099h-5.998c-0.164,0.498-0.337,1.023-0.337,1.099
		c0,0.085,0.058,0.125,0.132,0.125c0.097,0,0.145-0.101,0.17-0.17c0.118-0.366,0.809-0.615,2.215-0.615h0.306v6.673
		c0,0.108-0.044,0.194-0.18,0.194h-0.907v0.356h3.378V46.02h-0.926c-0.314,0-0.338-0.462-0.338-1.702L66.04,39.153L66.04,39.153z
		 M60.354,39.266c0-0.104,0.042-0.188,0.18-0.188h0.542v-0.363h-2.798v0.363h0.711c0.312,0,0.338,0.459,0.338,1.701v5.047
		c0,0.108-0.05,0.194-0.179,0.194h-0.567v0.356h2.8V46.02h-0.694c-0.314,0-0.333-0.462-0.333-1.702V39.266z M55.153,38.919
		c0.383,0,1.358,0.133,1.444,0.654c0.014,0.084,0.03,0.18,0.144,0.18c0.097,0,0.136-0.076,0.136-0.162
		c0-0.285-0.022-0.584-0.039-0.877c-0.386-0.18-0.854-0.232-1.363-0.232c-1.291,0-2.738,0.764-2.738,2.213
		c0,1.473,1.475,1.942,2.018,2.137c1.194,0.433,1.893,0.844,1.893,1.772c0,1.088-0.992,1.567-1.959,1.567
		c-0.588,0-1.713-0.25-1.883-0.926c-0.021-0.111-0.055-0.232-0.179-0.232c-0.094,0-0.146,0.062-0.146,0.148
		c0,0.108,0.052,0.359,0.181,1.105c0.558,0.219,1.295,0.34,1.883,0.34c1.993,0,2.909-1.312,2.909-2.365
		c0-1.293-0.731-1.789-2.279-2.354c-0.766-0.287-1.666-0.603-1.666-1.583C53.509,39.414,54.345,38.919,55.153,38.919 M46.179,45.826
		c0,0.108-0.049,0.194-0.179,0.194h-0.567v0.356h2.799V46.02h-0.688c-0.314,0-0.339-0.462-0.339-1.702v-1.412h0.896
		c2.208,3.467,2.343,3.473,2.62,3.473h1.386v-0.357h-0.303c-0.349,0-0.759-0.398-2.75-3.288c1.06-0.19,1.882-0.858,1.882-1.944
		c0-1.529-1.366-2.074-2.425-2.074h-3.38v0.363h0.709c0.317,0,0.338,0.459,0.338,1.701L46.179,45.826L46.179,45.826z M47.205,42.542
		v-3.225c0-0.158,0.169-0.166,0.275-0.166h0.621c0.953,0,1.81,0.694,1.81,1.829c0,1.187-1.063,1.562-2.103,1.562H47.205z
		 M38.969,45.826c0,0.108-0.044,0.194-0.18,0.194h-0.563v0.356h5.746c0.144-0.48,0.298-0.967,0.298-1.071
		c0-0.06-0.043-0.13-0.094-0.13c-0.083,0-0.109,0.07-0.139,0.13c-0.208,0.334-0.683,0.64-2.731,0.64h-0.808
		c-0.367,0-0.498,0-0.498-1.496v-2.064h1.52c1.376,0,1.494,0.013,1.494,0.337v0.422h0.33v-2.04h-0.33v0.473
		c0,0.36-0.371,0.414-1.613,0.414H40v-2.623c0-0.121,0.061-0.215,0.24-0.215h1.186c1.909,0,2.113,0.323,2.147,0.465
		c0.024,0.164,0.044,0.221,0.143,0.221c0.112-0.025,0.151-0.057,0.256-1.123h-6.048v0.363h0.71c0.314,0,0.335,0.459,0.335,1.701
		V45.826z M37.416,38.714h-2.299v0.363h0.693c0.209,0,0.304,0.034,0.304,0.205c0,0.454-0.558,1.848-2.101,5.604
		c-1.546-3.756-2.394-5.627-2.394-5.733c0-0.075,0.052-0.075,0.127-0.075h0.65v-0.363h-2.61v0.363h0.29
		c0.398,0,0.467,0.045,0.882,1.029l2.56,6.191c0.083,0.215,0.118,0.311,0.205,0.311c0.119,0,0.159-0.156,0.263-0.421l2.755-6.976
		c0.05-0.135,0.067-0.135,0.145-0.135h0.529L37.416,38.714L37.416,38.714z M28.207,39.266c0-0.104,0.044-0.188,0.179-0.188h0.544
		v-0.363h-2.801v0.363h0.713c0.313,0,0.34,0.459,0.34,1.701v5.047c0,0.108-0.051,0.194-0.186,0.194h-0.567v0.356h2.799V46.02h-0.681
		c-0.316,0-0.34-0.462-0.34-1.702V39.266z M18.875,38.714h-1.75v0.363h0.37c0.573,0,0.678,0.412,0.678,1.387v5.312
		c0,0.179-0.132,0.244-0.275,0.244H17.45v0.356h2.206V46.02H19.02c-0.364,0-0.389-0.714-0.389-1.271v-4.863h0.025l5.231,6.301
		l0.139,0.164c0.089,0.1,0.135,0.137,0.171,0.137c0.089,0,0.099-0.084,0.099-0.189v-6.979c0-0.182,0.13-0.239,0.278-0.239h0.444
		v-0.365h-2.206v0.365h0.638c0.363,0,0.382,0.713,0.382,1.266v4.345h-0.019L18.875,38.714z M8.417,39.078h0.711
		c0.316,0,0.346,0.459,0.346,1.701v2.678c0,1.271,0.129,3.152,3.016,3.152c1.873,0,3.052-1.133,3.052-2.992v-4.299
		c0-0.182,0.135-0.24,0.275-0.24h0.447v-0.363h-2.206v0.363h0.637c0.364,0,0.39,0.713,0.39,1.266v2.904
		c0,0.949-0.037,2.867-2.533,2.867c-0.887,0-2.053-0.492-2.053-2.27v-4.578c0-0.105,0.044-0.188,0.181-0.188h0.544v-0.365H8.417
		V39.078z"/>
</g>
</svg>
