<?xml version="1.0" encoding="utf-8"?>
<!-- Generator: Adobe Illustrator 16.0.0, SVG Export Plug-In . SVG Version: 6.00 Build 0)  -->
<!DOCTYPE svg PUBLIC "-//W3C//DTD SVG 1.1//EN" "http://www.w3.org/Graphics/SVG/1.1/DTD/svg11.dtd">
<svg version="1.1" id="Layer_1" xmlns="http://www.w3.org/2000/svg" xmlns:xlink="http://www.w3.org/1999/xlink" x="0px" y="0px"
	 width="112.025px" height="45.887px" viewBox="13.978 27.078 112.025 45.887"
	 enable-background="new 13.978 27.078 112.025 45.887" xml:space="preserve">
<g>
	<g>
		<g>
			<defs>
				<rect id="SVGID_1_" x="14" y="27.078" width="112" height="45.844"/>
			</defs>
			<clipPath id="SVGID_2_">
				<use xlink:href="#SVGID_1_"  overflow="visible"/>
			</clipPath>
			<g clip-path="url(#SVGID_2_)">
				<g>
					<g>
						<defs>
							<rect id="SVGID_3_" x="14" y="27.078" width="112" height="45.844"/>
						</defs>
						<defs>
							<rect id="SVGID_4_" x="14" y="27.078" width="112" height="45.844"/>
						</defs>
						<defs>
							<rect id="SVGID_5_" x="14" y="27.078" width="112" height="45.844"/>
						</defs>
						<defs>
							<rect id="SVGID_6_" x="14" y="27.078" width="112" height="45.844"/>
						</defs>
						<defs>
							<rect id="SVGID_7_" x="14" y="27.078" width="112" height="45.844"/>
						</defs>
						<defs>
							<rect id="SVGID_8_" x="14" y="27.078" width="112" height="45.844"/>
						</defs>
						<defs>
							<rect id="SVGID_9_" x="14" y="27.078" width="112" height="45.844"/>
						</defs>
						<defs>
							<rect id="SVGID_10_" x="14" y="27.078" width="112" height="45.844"/>
						</defs>
						<defs>
							<rect id="SVGID_11_" x="14" y="27.078" width="112" height="45.844"/>
						</defs>
						<defs>
							<rect id="SVGID_12_" x="14" y="27.078" width="112" height="45.844"/>
						</defs>
						<defs>
							<rect id="SVGID_13_" x="14" y="27.078" width="112" height="45.844"/>
						</defs>
						<defs>
							<rect id="SVGID_14_" x="14" y="27.078" width="112" height="45.844"/>
						</defs>
						<defs>
							<rect id="SVGID_15_" x="14" y="27.078" width="112" height="45.844"/>
						</defs>
						<defs>
							<rect id="SVGID_16_" x="14" y="27.078" width="112" height="45.844"/>
						</defs>
						<defs>
							<rect id="SVGID_17_" x="14" y="27.078" width="112" height="45.844"/>
						</defs>
						<defs>
							<rect id="SVGID_18_" x="14" y="27.078" width="112" height="45.844"/>
						</defs>
						<defs>
							<rect id="SVGID_19_" x="14" y="27.078" width="112" height="45.844"/>
						</defs>
						<defs>
							<rect id="SVGID_20_" x="14" y="27.078" width="112" height="45.844"/>
						</defs>
						<defs>
							<rect id="SVGID_21_" x="14" y="27.078" width="112" height="45.844"/>
						</defs>
						<defs>
							<rect id="SVGID_22_" x="14" y="27.078" width="112" height="45.844"/>
						</defs>
						<defs>
							<rect id="SVGID_23_" x="14" y="27.078" width="112" height="45.844"/>
						</defs>
						<defs>
							<rect id="SVGID_24_" x="14" y="27.078" width="112" height="45.844"/>
						</defs>
						<defs>
							<rect id="SVGID_25_" x="14" y="27.078" width="112" height="45.844"/>
						</defs>
						<defs>
							<rect id="SVGID_26_" x="14" y="27.078" width="112" height="45.844"/>
						</defs>
						<defs>
							<rect id="SVGID_27_" x="14" y="27.078" width="112" height="45.844"/>
						</defs>
						<defs>
							<rect id="SVGID_28_" x="14" y="27.078" width="112" height="45.844"/>
						</defs>
						<defs>
							<rect id="SVGID_29_" x="14" y="27.078" width="112" height="45.844"/>
						</defs>
						<defs>
							<rect id="SVGID_30_" x="14" y="27.078" width="112" height="45.844"/>
						</defs>
						<defs>
							<rect id="SVGID_31_" x="14" y="27.078" width="112" height="45.844"/>
						</defs>
						<defs>
							<rect id="SVGID_32_" x="14" y="27.078" width="112" height="45.844"/>
						</defs>
						<defs>
							<rect id="SVGID_33_" x="14" y="27.078" width="112" height="45.844"/>
						</defs>
						<defs>
							<rect id="SVGID_34_" x="14" y="27.078" width="112" height="45.844"/>
						</defs>
						<defs>
							<rect id="SVGID_35_" x="14" y="27.078" width="112" height="45.844"/>
						</defs>
						<defs>
							<rect id="SVGID_36_" x="14" y="27.078" width="112" height="45.844"/>
						</defs>
						<defs>
							<rect id="SVGID_37_" x="14" y="27.078" width="112" height="45.844"/>
						</defs>
						<defs>
							<rect id="SVGID_38_" x="14" y="27.078" width="112" height="45.844"/>
						</defs>
						<defs>
							<rect id="SVGID_39_" x="14" y="27.078" width="112" height="45.844"/>
						</defs>
						<defs>
							<rect id="SVGID_40_" x="14" y="27.078" width="112" height="45.844"/>
						</defs>
						<defs>
							<rect id="SVGID_41_" x="14" y="27.078" width="112" height="45.844"/>
						</defs>
						<defs>
							<rect id="SVGID_42_" x="14" y="27.078" width="112" height="45.844"/>
						</defs>
						<defs>
							<rect id="SVGID_43_" x="14" y="27.078" width="112" height="45.844"/>
						</defs>
						<defs>
							<rect id="SVGID_44_" x="14" y="27.078" width="112" height="45.844"/>
						</defs>
						<defs>
							<rect id="SVGID_45_" x="14" y="27.078" width="112" height="45.844"/>
						</defs>
						<defs>
							<rect id="SVGID_46_" x="14" y="27.078" width="112" height="45.844"/>
						</defs>
						<defs>
							<rect id="SVGID_47_" x="14" y="27.078" width="112" height="45.844"/>
						</defs>
						<defs>
							<rect id="SVGID_48_" x="14" y="27.078" width="112" height="45.844"/>
						</defs>
						<defs>
							<rect id="SVGID_49_" x="14" y="27.078" width="112" height="45.844"/>
						</defs>
						<defs>
							<rect id="SVGID_50_" x="14" y="27.078" width="112" height="45.844"/>
						</defs>
						<defs>
							<rect id="SVGID_51_" x="14" y="27.078" width="112" height="45.844"/>
						</defs>
						<defs>
							<rect id="SVGID_52_" x="14" y="27.078" width="112" height="45.844"/>
						</defs>
						<defs>
							<rect id="SVGID_53_" x="14" y="27.078" width="112" height="45.844"/>
						</defs>
						<defs>
							<rect id="SVGID_54_" x="14" y="27.078" width="112" height="45.844"/>
						</defs>
						<defs>
							<rect id="SVGID_55_" x="14" y="27.078" width="112" height="45.844"/>
						</defs>
						<defs>
							<rect id="SVGID_56_" x="14" y="27.078" width="112" height="45.844"/>
						</defs>
						<defs>
							<rect id="SVGID_57_" x="14" y="27.078" width="112" height="45.844"/>
						</defs>
						<defs>
							<rect id="SVGID_58_" x="14" y="27.078" width="112" height="45.844"/>
						</defs>
						<defs>
							<rect id="SVGID_59_" x="14" y="27.078" width="112" height="45.844"/>
						</defs>
						<defs>
							<rect id="SVGID_60_" x="14" y="27.078" width="112" height="45.844"/>
						</defs>
						<defs>
							<rect id="SVGID_61_" x="14" y="27.078" width="112" height="45.844"/>
						</defs>
						<defs>
							<rect id="SVGID_62_" x="14" y="27.078" width="112" height="45.844"/>
						</defs>
						<defs>
							<rect id="SVGID_63_" x="14" y="27.078" width="112" height="45.844"/>
						</defs>
						<defs>
							<rect id="SVGID_64_" x="14" y="27.078" width="112" height="45.844"/>
						</defs>
						<defs>
							<rect id="SVGID_65_" x="14" y="27.078" width="112" height="45.844"/>
						</defs>
						<defs>
							<rect id="SVGID_66_" x="14" y="27.078" width="112" height="45.844"/>
						</defs>
						<defs>
							<rect id="SVGID_67_" x="14" y="27.078" width="112" height="45.844"/>
						</defs>
						<defs>
							<rect id="SVGID_68_" x="14" y="27.078" width="112" height="45.844"/>
						</defs>
						<defs>
							<rect id="SVGID_69_" x="14" y="27.078" width="112" height="45.844"/>
						</defs>
						<defs>
							<rect id="SVGID_70_" x="14" y="27.078" width="112" height="45.844"/>
						</defs>
						<defs>
							<rect id="SVGID_71_" x="14" y="27.078" width="112" height="45.844"/>
						</defs>
						<defs>
							<rect id="SVGID_72_" x="14" y="27.078" width="112" height="45.844"/>
						</defs>
						<defs>
							<rect id="SVGID_73_" x="14" y="27.078" width="112" height="45.844"/>
						</defs>
						<defs>
							<rect id="SVGID_74_" x="14" y="27.078" width="112" height="45.844"/>
						</defs>
						<defs>
							<rect id="SVGID_75_" x="14" y="27.078" width="112" height="45.844"/>
						</defs>
						<defs>
							<rect id="SVGID_76_" x="14" y="27.078" width="112" height="45.844"/>
						</defs>
						<defs>
							<rect id="SVGID_77_" x="14" y="27.078" width="112" height="45.844"/>
						</defs>
						<defs>
							<rect id="SVGID_78_" x="14" y="27.078" width="112" height="45.844"/>
						</defs>
						<defs>
							<rect id="SVGID_79_" x="14" y="27.078" width="112" height="45.844"/>
						</defs>
						<defs>
							<rect id="SVGID_80_" x="14" y="27.078" width="112" height="45.844"/>
						</defs>
						<defs>
							<rect id="SVGID_81_" x="14" y="27.078" width="112" height="45.844"/>
						</defs>
						<defs>
							<rect id="SVGID_82_" x="14" y="27.078" width="112" height="45.844"/>
						</defs>
						<defs>
							<rect id="SVGID_83_" x="14" y="27.078" width="112" height="45.844"/>
						</defs>
						<defs>
							<rect id="SVGID_84_" x="14" y="27.078" width="112" height="45.844"/>
						</defs>
						<defs>
							<rect id="SVGID_85_" x="14" y="27.078" width="112" height="45.844"/>
						</defs>
						<defs>
							<rect id="SVGID_86_" x="14" y="27.078" width="112" height="45.844"/>
						</defs>
						<defs>
							<rect id="SVGID_87_" x="14" y="27.078" width="112" height="45.844"/>
						</defs>
						<defs>
							<rect id="SVGID_88_" x="14" y="27.078" width="112" height="45.844"/>
						</defs>
						<defs>
							<rect id="SVGID_89_" x="14" y="27.078" width="112" height="45.844"/>
						</defs>
						<defs>
							<rect id="SVGID_90_" x="14" y="27.078" width="112" height="45.844"/>
						</defs>
						<defs>
							<rect id="SVGID_91_" x="14" y="27.078" width="112" height="45.844"/>
						</defs>
						<defs>
							<rect id="SVGID_92_" x="14" y="27.078" width="112" height="45.844"/>
						</defs>
						<defs>
							<rect id="SVGID_93_" x="14" y="27.078" width="112" height="45.844"/>
						</defs>
						<defs>
							<rect id="SVGID_94_" x="14" y="27.078" width="112" height="45.844"/>
						</defs>
						<clipPath id="SVGID_95_">
							<use xlink:href="#SVGID_3_"  overflow="visible"/>
						</clipPath>
						<clipPath id="SVGID_96_" clip-path="url(#SVGID_95_)">
							<use xlink:href="#SVGID_4_"  overflow="visible"/>
						</clipPath>
						<clipPath id="SVGID_97_" clip-path="url(#SVGID_96_)">
							<use xlink:href="#SVGID_5_"  overflow="visible"/>
						</clipPath>
						<clipPath id="SVGID_98_" clip-path="url(#SVGID_97_)">
							<use xlink:href="#SVGID_6_"  overflow="visible"/>
						</clipPath>
						<clipPath id="SVGID_99_" clip-path="url(#SVGID_98_)">
							<use xlink:href="#SVGID_7_"  overflow="visible"/>
						</clipPath>
						<clipPath id="SVGID_100_" clip-path="url(#SVGID_99_)">
							<use xlink:href="#SVGID_8_"  overflow="visible"/>
						</clipPath>
						<clipPath id="SVGID_101_" clip-path="url(#SVGID_100_)">
							<use xlink:href="#SVGID_9_"  overflow="visible"/>
						</clipPath>
						<clipPath id="SVGID_102_" clip-path="url(#SVGID_101_)">
							<use xlink:href="#SVGID_10_"  overflow="visible"/>
						</clipPath>
						<clipPath id="SVGID_103_" clip-path="url(#SVGID_102_)">
							<use xlink:href="#SVGID_11_"  overflow="visible"/>
						</clipPath>
						<clipPath id="SVGID_104_" clip-path="url(#SVGID_103_)">
							<use xlink:href="#SVGID_12_"  overflow="visible"/>
						</clipPath>
						<clipPath id="SVGID_105_" clip-path="url(#SVGID_104_)">
							<use xlink:href="#SVGID_13_"  overflow="visible"/>
						</clipPath>
						<clipPath id="SVGID_106_" clip-path="url(#SVGID_105_)">
							<use xlink:href="#SVGID_14_"  overflow="visible"/>
						</clipPath>
						<clipPath id="SVGID_107_" clip-path="url(#SVGID_106_)">
							<use xlink:href="#SVGID_15_"  overflow="visible"/>
						</clipPath>
						<clipPath id="SVGID_108_" clip-path="url(#SVGID_107_)">
							<use xlink:href="#SVGID_16_"  overflow="visible"/>
						</clipPath>
						<clipPath id="SVGID_109_" clip-path="url(#SVGID_108_)">
							<use xlink:href="#SVGID_17_"  overflow="visible"/>
						</clipPath>
						<clipPath id="SVGID_110_" clip-path="url(#SVGID_109_)">
							<use xlink:href="#SVGID_18_"  overflow="visible"/>
						</clipPath>
						<clipPath id="SVGID_111_" clip-path="url(#SVGID_110_)">
							<use xlink:href="#SVGID_19_"  overflow="visible"/>
						</clipPath>
						<clipPath id="SVGID_112_" clip-path="url(#SVGID_111_)">
							<use xlink:href="#SVGID_20_"  overflow="visible"/>
						</clipPath>
						<clipPath id="SVGID_113_" clip-path="url(#SVGID_112_)">
							<use xlink:href="#SVGID_21_"  overflow="visible"/>
						</clipPath>
						<clipPath id="SVGID_114_" clip-path="url(#SVGID_113_)">
							<use xlink:href="#SVGID_22_"  overflow="visible"/>
						</clipPath>
						<clipPath id="SVGID_115_" clip-path="url(#SVGID_114_)">
							<use xlink:href="#SVGID_23_"  overflow="visible"/>
						</clipPath>
						<clipPath id="SVGID_116_" clip-path="url(#SVGID_115_)">
							<use xlink:href="#SVGID_24_"  overflow="visible"/>
						</clipPath>
						<clipPath id="SVGID_117_" clip-path="url(#SVGID_116_)">
							<use xlink:href="#SVGID_25_"  overflow="visible"/>
						</clipPath>
						<clipPath id="SVGID_118_" clip-path="url(#SVGID_117_)">
							<use xlink:href="#SVGID_26_"  overflow="visible"/>
						</clipPath>
						<clipPath id="SVGID_119_" clip-path="url(#SVGID_118_)">
							<use xlink:href="#SVGID_27_"  overflow="visible"/>
						</clipPath>
						<clipPath id="SVGID_120_" clip-path="url(#SVGID_119_)">
							<use xlink:href="#SVGID_28_"  overflow="visible"/>
						</clipPath>
						<clipPath id="SVGID_121_" clip-path="url(#SVGID_120_)">
							<use xlink:href="#SVGID_29_"  overflow="visible"/>
						</clipPath>
						<clipPath id="SVGID_122_" clip-path="url(#SVGID_121_)">
							<use xlink:href="#SVGID_30_"  overflow="visible"/>
						</clipPath>
						<clipPath id="SVGID_123_" clip-path="url(#SVGID_122_)">
							<use xlink:href="#SVGID_31_"  overflow="visible"/>
						</clipPath>
						<clipPath id="SVGID_124_" clip-path="url(#SVGID_123_)">
							<use xlink:href="#SVGID_32_"  overflow="visible"/>
						</clipPath>
						<clipPath id="SVGID_125_" clip-path="url(#SVGID_124_)">
							<use xlink:href="#SVGID_33_"  overflow="visible"/>
						</clipPath>
						<clipPath id="SVGID_126_" clip-path="url(#SVGID_125_)">
							<use xlink:href="#SVGID_34_"  overflow="visible"/>
						</clipPath>
						<clipPath id="SVGID_127_" clip-path="url(#SVGID_126_)">
							<use xlink:href="#SVGID_35_"  overflow="visible"/>
						</clipPath>
						<clipPath id="SVGID_128_" clip-path="url(#SVGID_127_)">
							<use xlink:href="#SVGID_36_"  overflow="visible"/>
						</clipPath>
						<clipPath id="SVGID_129_" clip-path="url(#SVGID_128_)">
							<use xlink:href="#SVGID_37_"  overflow="visible"/>
						</clipPath>
						<clipPath id="SVGID_130_" clip-path="url(#SVGID_129_)">
							<use xlink:href="#SVGID_38_"  overflow="visible"/>
						</clipPath>
						<clipPath id="SVGID_131_" clip-path="url(#SVGID_130_)">
							<use xlink:href="#SVGID_39_"  overflow="visible"/>
						</clipPath>
						<clipPath id="SVGID_132_" clip-path="url(#SVGID_131_)">
							<use xlink:href="#SVGID_40_"  overflow="visible"/>
						</clipPath>
						<clipPath id="SVGID_133_" clip-path="url(#SVGID_132_)">
							<use xlink:href="#SVGID_41_"  overflow="visible"/>
						</clipPath>
						<clipPath id="SVGID_134_" clip-path="url(#SVGID_133_)">
							<use xlink:href="#SVGID_42_"  overflow="visible"/>
						</clipPath>
						<clipPath id="SVGID_135_" clip-path="url(#SVGID_134_)">
							<use xlink:href="#SVGID_43_"  overflow="visible"/>
						</clipPath>
						<clipPath id="SVGID_136_" clip-path="url(#SVGID_135_)">
							<use xlink:href="#SVGID_44_"  overflow="visible"/>
						</clipPath>
						<clipPath id="SVGID_137_" clip-path="url(#SVGID_136_)">
							<use xlink:href="#SVGID_45_"  overflow="visible"/>
						</clipPath>
						<clipPath id="SVGID_138_" clip-path="url(#SVGID_137_)">
							<use xlink:href="#SVGID_46_"  overflow="visible"/>
						</clipPath>
						<clipPath id="SVGID_139_" clip-path="url(#SVGID_138_)">
							<use xlink:href="#SVGID_47_"  overflow="visible"/>
						</clipPath>
						<clipPath id="SVGID_140_" clip-path="url(#SVGID_139_)">
							<use xlink:href="#SVGID_48_"  overflow="visible"/>
						</clipPath>
						<clipPath id="SVGID_141_" clip-path="url(#SVGID_140_)">
							<use xlink:href="#SVGID_49_"  overflow="visible"/>
						</clipPath>
						<clipPath id="SVGID_142_" clip-path="url(#SVGID_141_)">
							<use xlink:href="#SVGID_50_"  overflow="visible"/>
						</clipPath>
						<clipPath id="SVGID_143_" clip-path="url(#SVGID_142_)">
							<use xlink:href="#SVGID_51_"  overflow="visible"/>
						</clipPath>
						<clipPath id="SVGID_144_" clip-path="url(#SVGID_143_)">
							<use xlink:href="#SVGID_52_"  overflow="visible"/>
						</clipPath>
						<clipPath id="SVGID_145_" clip-path="url(#SVGID_144_)">
							<use xlink:href="#SVGID_53_"  overflow="visible"/>
						</clipPath>
						<clipPath id="SVGID_146_" clip-path="url(#SVGID_145_)">
							<use xlink:href="#SVGID_54_"  overflow="visible"/>
						</clipPath>
						<clipPath id="SVGID_147_" clip-path="url(#SVGID_146_)">
							<use xlink:href="#SVGID_55_"  overflow="visible"/>
						</clipPath>
						<clipPath id="SVGID_148_" clip-path="url(#SVGID_147_)">
							<use xlink:href="#SVGID_56_"  overflow="visible"/>
						</clipPath>
						<clipPath id="SVGID_149_" clip-path="url(#SVGID_148_)">
							<use xlink:href="#SVGID_57_"  overflow="visible"/>
						</clipPath>
						<clipPath id="SVGID_150_" clip-path="url(#SVGID_149_)">
							<use xlink:href="#SVGID_58_"  overflow="visible"/>
						</clipPath>
						<clipPath id="SVGID_151_" clip-path="url(#SVGID_150_)">
							<use xlink:href="#SVGID_59_"  overflow="visible"/>
						</clipPath>
						<clipPath id="SVGID_152_" clip-path="url(#SVGID_151_)">
							<use xlink:href="#SVGID_60_"  overflow="visible"/>
						</clipPath>
						<clipPath id="SVGID_153_" clip-path="url(#SVGID_152_)">
							<use xlink:href="#SVGID_61_"  overflow="visible"/>
						</clipPath>
						<clipPath id="SVGID_154_" clip-path="url(#SVGID_153_)">
							<use xlink:href="#SVGID_62_"  overflow="visible"/>
						</clipPath>
						<clipPath id="SVGID_155_" clip-path="url(#SVGID_154_)">
							<use xlink:href="#SVGID_63_"  overflow="visible"/>
						</clipPath>
						<clipPath id="SVGID_156_" clip-path="url(#SVGID_155_)">
							<use xlink:href="#SVGID_64_"  overflow="visible"/>
						</clipPath>
						<clipPath id="SVGID_157_" clip-path="url(#SVGID_156_)">
							<use xlink:href="#SVGID_65_"  overflow="visible"/>
						</clipPath>
						<clipPath id="SVGID_158_" clip-path="url(#SVGID_157_)">
							<use xlink:href="#SVGID_66_"  overflow="visible"/>
						</clipPath>
						<clipPath id="SVGID_159_" clip-path="url(#SVGID_158_)">
							<use xlink:href="#SVGID_67_"  overflow="visible"/>
						</clipPath>
						<clipPath id="SVGID_160_" clip-path="url(#SVGID_159_)">
							<use xlink:href="#SVGID_68_"  overflow="visible"/>
						</clipPath>
						<clipPath id="SVGID_161_" clip-path="url(#SVGID_160_)">
							<use xlink:href="#SVGID_69_"  overflow="visible"/>
						</clipPath>
						<clipPath id="SVGID_162_" clip-path="url(#SVGID_161_)">
							<use xlink:href="#SVGID_70_"  overflow="visible"/>
						</clipPath>
						<clipPath id="SVGID_163_" clip-path="url(#SVGID_162_)">
							<use xlink:href="#SVGID_71_"  overflow="visible"/>
						</clipPath>
						<clipPath id="SVGID_164_" clip-path="url(#SVGID_163_)">
							<use xlink:href="#SVGID_72_"  overflow="visible"/>
						</clipPath>
						<clipPath id="SVGID_165_" clip-path="url(#SVGID_164_)">
							<use xlink:href="#SVGID_73_"  overflow="visible"/>
						</clipPath>
						<clipPath id="SVGID_166_" clip-path="url(#SVGID_165_)">
							<use xlink:href="#SVGID_74_"  overflow="visible"/>
						</clipPath>
						<clipPath id="SVGID_167_" clip-path="url(#SVGID_166_)">
							<use xlink:href="#SVGID_75_"  overflow="visible"/>
						</clipPath>
						<clipPath id="SVGID_168_" clip-path="url(#SVGID_167_)">
							<use xlink:href="#SVGID_76_"  overflow="visible"/>
						</clipPath>
						<clipPath id="SVGID_169_" clip-path="url(#SVGID_168_)">
							<use xlink:href="#SVGID_77_"  overflow="visible"/>
						</clipPath>
						<clipPath id="SVGID_170_" clip-path="url(#SVGID_169_)">
							<use xlink:href="#SVGID_78_"  overflow="visible"/>
						</clipPath>
						<clipPath id="SVGID_171_" clip-path="url(#SVGID_170_)">
							<use xlink:href="#SVGID_79_"  overflow="visible"/>
						</clipPath>
						<clipPath id="SVGID_172_" clip-path="url(#SVGID_171_)">
							<use xlink:href="#SVGID_80_"  overflow="visible"/>
						</clipPath>
						<clipPath id="SVGID_173_" clip-path="url(#SVGID_172_)">
							<use xlink:href="#SVGID_81_"  overflow="visible"/>
						</clipPath>
						<clipPath id="SVGID_174_" clip-path="url(#SVGID_173_)">
							<use xlink:href="#SVGID_82_"  overflow="visible"/>
						</clipPath>
						<clipPath id="SVGID_175_" clip-path="url(#SVGID_174_)">
							<use xlink:href="#SVGID_83_"  overflow="visible"/>
						</clipPath>
						<clipPath id="SVGID_176_" clip-path="url(#SVGID_175_)">
							<use xlink:href="#SVGID_84_"  overflow="visible"/>
						</clipPath>
						<clipPath id="SVGID_177_" clip-path="url(#SVGID_176_)">
							<use xlink:href="#SVGID_85_"  overflow="visible"/>
						</clipPath>
						<clipPath id="SVGID_178_" clip-path="url(#SVGID_177_)">
							<use xlink:href="#SVGID_86_"  overflow="visible"/>
						</clipPath>
						<clipPath id="SVGID_179_" clip-path="url(#SVGID_178_)">
							<use xlink:href="#SVGID_87_"  overflow="visible"/>
						</clipPath>
						<clipPath id="SVGID_180_" clip-path="url(#SVGID_179_)">
							<use xlink:href="#SVGID_88_"  overflow="visible"/>
						</clipPath>
						<clipPath id="SVGID_181_" clip-path="url(#SVGID_180_)">
							<use xlink:href="#SVGID_89_"  overflow="visible"/>
						</clipPath>
						<clipPath id="SVGID_182_" clip-path="url(#SVGID_181_)">
							<use xlink:href="#SVGID_90_"  overflow="visible"/>
						</clipPath>
						<clipPath id="SVGID_183_" clip-path="url(#SVGID_182_)">
							<use xlink:href="#SVGID_91_"  overflow="visible"/>
						</clipPath>
						<clipPath id="SVGID_184_" clip-path="url(#SVGID_183_)">
							<use xlink:href="#SVGID_92_"  overflow="visible"/>
						</clipPath>
						<clipPath id="SVGID_185_" clip-path="url(#SVGID_184_)">
							<use xlink:href="#SVGID_93_"  overflow="visible"/>
						</clipPath>
						<clipPath id="SVGID_186_" clip-path="url(#SVGID_185_)">
							<use xlink:href="#SVGID_94_"  overflow="visible"/>
						</clipPath>
						<path clip-path="url(#SVGID_186_)" fill="#FFD044" d="M27.259,27.642v1.128c-2.821,0.212-3.103,0.494-3.103,4.726v8.252
							c0,6.207,1.975,9.732,6.489,9.732c4.584,0,6.912-3.598,6.912-10.508v-2.327c0-4.442-0.212-6.701-0.353-7.829
							c-0.211-1.41-1.27-1.904-3.667-2.045v-1.128h9.31v1.128c-1.904,0.07-2.892,0.635-3.104,2.045
							c-0.141,1.199-0.352,3.387-0.352,7.829v2.821c0,3.809-0.706,7.053-2.751,9.381c-1.692,1.902-4.373,2.962-7.053,2.962
							c-2.327,0-4.866-0.494-6.771-2.045c-2.045-1.693-2.821-4.515-2.821-9.169v-9.098c0-4.232-0.282-4.443-3.314-4.727v-1.128
							L27.259,27.642L27.259,27.642z"/>
						<path clip-path="url(#SVGID_186_)" fill="#FFD044" d="M92.146,33.637c-0.775-2.257-2.117-5.009-5.714-5.009
							c-2.82,0-4.372,1.904-4.372,4.092s1.691,3.667,5.008,5.008l1.129,0.493c3.385,1.34,6.416,3.456,6.416,7.547
							c0,4.655-4.02,7.969-9.803,7.969c-1.621,0-3.174-0.28-4.301-0.634c-1.201-0.354-1.977-0.635-2.469-0.848
							c-0.354-0.986-0.849-3.666-1.271-6.064l1.271-0.423c0.846,2.045,3.172,6.417,7.617,6.417c2.819,0,4.512-1.975,4.512-4.443
							c0-2.186-1.127-3.738-4.584-5.289l-1.34-0.635c-2.82-1.34-6.418-3.386-6.418-7.266c0-4.09,3.385-7.475,9.17-7.475
							c1.127,0,2.68,0.141,3.879,0.563c0.705,0.212,1.27,0.282,1.832,0.493c0.143,1.341,0.424,3.105,0.848,5.291L92.146,33.637z"/>
						<path clip-path="url(#SVGID_186_)" fill="#FFD044" d="M68.096,34.483c-1.199-4.442-3.597-5.782-7.124-5.782
							c-6.207,0-9.028,5.359-9.028,11.213c0,7.264,3.527,12.342,9.028,12.342c4.091,0,5.994-2.187,7.97-6.348L70,46.121
							c-0.422,1.904-1.27,5.008-1.903,6.488c-1.058,0.283-4.515,1.199-7.124,1.199c-9.944,0-13.965-6.701-13.965-12.907
							c-0.07-8.321,6.065-13.823,14.6-13.823c3.245,0,5.784,0.776,6.842,0.987c0.281,2.187,0.422,3.95,0.704,6.207L68.096,34.483z"
							/>
						<path clip-path="url(#SVGID_186_)" fill="#FFD044" d="M112.175,27.642c3.244,0,4.939,0.423,6.418,1.27
							c1.48,0.918,2.328,2.398,2.328,4.443c0,3.387-3.457,5.148-5.924,5.643v0.07c4.231,0.494,7.545,2.609,7.545,6.561
							c0,2.82-1.479,4.654-3.735,5.922c-1.976,1.13-4.938,1.554-7.972,1.554h-10.438v-1.129c3.244-0.211,3.598-0.563,3.598-4.796
							V33.567c0-4.231-0.354-4.584-3.315-4.796v-1.128L112.175,27.642L112.175,27.642z M108.58,38.787h1.691
							c3.598,0,5.854-1.552,5.854-4.867c0-3.596-2.75-4.795-5.289-4.795c-1.059,0-1.691,0.069-1.903,0.211
							c-0.353,0.141-0.353,0.846-0.353,1.763V38.787z M108.58,40.196v6.981c0,3.669,0.494,4.443,3.174,4.373
							c2.75,0,5.57-1.48,5.57-5.5c0-4.021-3.103-5.854-7.334-5.854H108.58z"/>
						<path clip-path="url(#SVGID_186_)" fill="#FFCD41" d="M83.4,62.483c-8.322-7.405-30.468-3.032-38.861,0.423
							C32.901,67.35,22.04,73.626,14.211,68.619c-0.07-0.07-0.141-0.07-0.141-0.07c0,0.07,0,0.143,0.07,0.213
							c8.675,7.335,30.327,3.312,38.65-0.213c11.708-4.442,22.781-10.86,30.54-5.782c0.069,0,0.141,0,0.141-0.07
							C83.47,62.626,83.471,62.555,83.4,62.483"/>
						<path clip-path="url(#SVGID_186_)" fill="none" stroke="#FFCD41" stroke-width="0.1833" d="M83.4,62.483
							c-8.322-7.405-30.468-3.032-38.861,0.423C32.901,67.35,22.04,73.626,14.211,68.619c-0.07-0.07-0.141-0.07-0.141-0.07
							c0,0.07,0,0.143,0.07,0.213c8.675,7.335,30.327,3.312,38.65-0.213c11.708-4.442,22.781-10.86,30.54-5.782
							c0.069,0,0.141,0,0.141-0.07C83.47,62.626,83.471,62.555,83.4,62.483z"/>
						<path clip-path="url(#SVGID_186_)" fill="#FFCD41" d="M125.859,62.483c-8.252-7.405-30.398-3.032-38.791,0.423
							c-11.637,4.373-22.5,10.65-30.328,5.643c-0.071-0.069-0.141-0.069-0.212-0.069c0,0.069,0,0.142,0.071,0.212
							c8.675,7.335,30.256,3.312,38.579-0.212c11.708-4.442,22.78-10.86,30.538-5.783c0.07,0,0.143,0,0.143-0.069
							C125.93,62.625,125.93,62.555,125.859,62.483"/>
						<path clip-path="url(#SVGID_186_)" fill="none" stroke="#FFCD41" stroke-width="0.1833" d="M125.859,62.483
							c-8.252-7.405-30.398-3.032-38.791,0.423c-11.637,4.373-22.5,10.65-30.328,5.643c-0.071-0.069-0.141-0.069-0.212-0.069
							c0,0.069,0,0.142,0.071,0.212c8.675,7.335,30.256,3.312,38.579-0.212c11.708-4.442,22.78-10.86,30.538-5.783
							c0.07,0,0.143,0,0.143-0.069C125.93,62.625,125.93,62.555,125.859,62.483z"/>
					</g>
				</g>
			</g>
		</g>
	</g>
</g>
</svg>
