<?xml version="1.0" encoding="utf-8"?>
<!-- Generator: Adobe Illustrator 16.0.0, SVG Export Plug-In . SVG Version: 6.00 Build 0)  -->
<!DOCTYPE svg PUBLIC "-//W3C//DTD SVG 1.1//EN" "http://www.w3.org/Graphics/SVG/1.1/DTD/svg11.dtd">
<svg version="1.1" id="Layer_1" xmlns="http://www.w3.org/2000/svg" xmlns:xlink="http://www.w3.org/1999/xlink" x="0px" y="0px"
	 width="185.602px" height="67.601px" viewBox="9.3 11.9 185.602 67.601" enable-background="new 9.3 11.9 185.602 67.601"
	 xml:space="preserve">
<g id="Layer_1_1_">
	<g>
		<path fill="#003A70" d="M9.3,20.1H15.4v39.5h22.5v5.3H9.3V20.1z"/>
		<path fill="#003A70" d="M43.3,20.1H48.9v6.2H43.3V20.1z M43.3,32.4H48.9v32.5H43.3V32.4z"/>
		<path fill="#003A70" d="M56.7,19.9H62V36.2C63.2,34.6,64.6,33.4,66.3,32.6c1.7-0.8,3.5-1.2,5.5-1.2c4.101,0,7.4,1.4,9.9,4.2
			s3.8,6.9,3.8,12.4c0,5.2-1.3,9.5-3.8,12.899S75.7,66,71.3,66c-2.5,0-4.6-0.601-6.3-1.8c-1-0.7-2.1-1.9-3.3-3.4V65h-5.1V19.9H56.7z
			 M77.7,57.5c1.5-2.4,2.2-5.5,2.2-9.3c0-3.4-0.7-6.301-2.2-8.5c-1.5-2.301-3.7-3.4-6.5-3.4c-2.5,0-4.7,0.9-6.6,2.8
			C62.7,41,61.8,44,61.8,48.3c0,3.101,0.4,5.601,1.2,7.5c1.4,3.601,4.2,5.4,8.101,5.4C74,61.1,76.2,59.9,77.7,57.5z"/>
		<path fill="#003A70" d="M92.1,32.2H97.3v5.6c0.4-1.1,1.5-2.4,3.101-4c1.7-1.6,3.6-2.4,5.8-2.4c0.1,0,0.3,0,0.5,0
			s0.7,0.101,1.3,0.101v5.8c-0.3-0.1-0.6-0.1-0.899-0.1c-0.301,0-0.601,0-0.899,0c-2.8,0-4.9,0.899-6.4,2.699
			C98.301,41.7,97.601,43.7,97.601,46v18.8h-5.5L92.1,32.2L92.1,32.2z"/>
		<path fill="#003A70" d="M130.3,45.1c1.301-0.2,2.102-0.7,2.5-1.6c0.2-0.5,0.4-1.2,0.4-2.101c0-1.899-0.7-3.199-2-4.1
			c-1.3-0.8-3.2-1.3-5.7-1.3c-2.899,0-4.899,0.8-6.1,2.3c-0.7,0.9-1.102,2.1-1.301,3.8H113c0.101-4,1.4-6.899,3.9-8.399
			c2.5-1.601,5.398-2.4,8.699-2.4c3.801,0,7,0.7,9.399,2.2c2.4,1.5,3.601,3.7,3.601,6.8v18.8c0,0.602,0.101,1,0.399,1.4
			c0.2,0.3,0.7,0.5,1.5,0.5c0.2,0,0.5,0,0.8,0c0.301,0,0.602-0.101,1-0.101V65c-0.898,0.2-1.5,0.399-2,0.5
			c-0.398,0.1-1.1,0.1-1.8,0.1c-1.899,0-3.3-0.699-4.1-2c-0.4-0.699-0.801-1.699-0.9-3c-1.1,1.5-2.7,2.7-4.8,3.801
			c-2.101,1.101-4.4,1.601-6.9,1.601c-3,0-5.5-0.9-7.398-2.8c-1.9-1.801-2.9-4.102-2.9-6.9c0-3,0.9-5.399,2.8-7
			c1.9-1.7,4.4-2.7,7.4-3.1L130.3,45.1z M118.7,59.9c1.2,0.899,2.5,1.399,4.1,1.399c1.9,0,3.801-0.399,5.602-1.3
			c3.1-1.5,4.6-3.9,4.6-7.3v-4.4c-0.7,0.4-1.5,0.8-2.6,1.101C129.3,49.7,128.3,49.9,127.3,50L124,50.4c-2,0.301-3.5,0.699-4.5,1.199
			c-1.7,1-2.5,2.5-2.5,4.602C117,57.8,117.5,59,118.7,59.9z"/>
		<path fill="#003A70" d="M147.7,32.2h5.2v5.6c0.398-1.1,1.5-2.4,3.1-4c1.7-1.6,3.601-2.4,5.8-2.4c0.102,0,0.301,0,0.5,0
			c0.2,0,0.7,0.101,1.301,0.101v5.8c-0.301-0.1-0.601-0.1-0.899-0.1s-0.601,0-0.9,0c-2.8,0-4.898,0.899-6.398,2.699
			c-1.5,1.801-2.2,3.801-2.2,6.101v18.8h-5.5V32.2H147.7z"/>
		<path fill="#003A70" d="M188.8,32.2h6.102c-0.801,2.1-2.5,6.899-5.2,14.3c-2,5.6-3.7,10.2-5,13.7c-3.2,8.3-5.4,13.398-6.7,15.199
			s-3.5,2.699-6.7,2.699c-0.8,0-1.398,0-1.8-0.1c-0.4-0.101-0.899-0.2-1.5-0.3v-5c1,0.3,1.601,0.398,2.101,0.5
			c0.399,0.1,0.801,0.1,1.101,0.1c1,0,1.8-0.2,2.2-0.5c0.398-0.3,0.898-0.7,1.199-1.2c0.101-0.199,0.5-1,1.101-2.5
			c0.6-1.5,1.1-2.6,1.399-3.398L165,32.2h6.2l8.8,26.6L188.8,32.2z"/>
	</g>
</g>
<g id="Layer_2">
	<g>
		<path fill="#D19000" d="M67.5,12.2C68.3,12,69.6,11.9,70.9,11.9c1.8,0,3,0.301,3.899,1c0.7,0.601,1.2,1.4,1.2,2.5
			C76,16.8,75.1,18,73.6,18.5l0,0c1.399,0.3,3,1.5,3,3.6c0,1.2-0.5,2.2-1.2,2.9c-1,0.899-2.601,1.3-5,1.3c-1.3,0-2.3-0.1-2.9-0.2
			V12.2z M69.3,18.1H71c2,0,3.101-1,3.101-2.399C74.1,14,72.8,13.4,71,13.4c-0.899,0-1.3,0.101-1.6,0.101v4.6H69.3z M69.3,25
			c0.4,0.1,0.9,0.1,1.601,0.1c1.899,0,3.7-0.7,3.7-2.8c0-2-1.7-2.8-3.7-2.8h-1.5V25H69.3z"/>
		<path fill="#D19000" d="M86.4,19.6H80.8v5.2H87v1.6h-8V12h7.7v1.6h-5.9v4.5H86.4V19.6z"/>
		<path fill="#D19000" d="M89.4,12.2C90.3,12,91.7,11.9,92.9,11.9c2,0,3.3,0.4,4.1,1.2C97.7,13.7,98.1,14.7,98.1,15.8
			c0,1.9-1.2,3.1-2.7,3.7v0.1c1.1,0.4,1.8,1.4,2.1,2.9c0.5,2,0.8,3.399,1.101,3.899h-1.9C96.5,26,96.1,24.8,95.7,23
			c-0.4-2-1.2-2.7-2.9-2.8H91.1V26.4H89.3V12.2H89.4z M91.3,18.7h1.9c2,0,3.2-1.101,3.2-2.7c0-1.8-1.3-2.7-3.3-2.7
			c-0.9,0-1.5,0.1-1.801,0.2V18.7L91.3,18.7z"/>
		<path fill="#D19000" d="M100.9,12h1.8V18.9h0.1c0.4-0.6,0.801-1.1,1.102-1.5L108.3,12h2.301l-5.199,6.1l5.6,8.2h-2.2l-4.699-7
			l-1.399,1.6v5.5h-1.8V12H100.9z"/>
		<path fill="#D19000" d="M119.8,19.6h-5.6v5.2h6.2v1.6H112.3V12h7.7v1.6H114.1v4.5h5.601v1.5H119.8z"/>
		<path fill="#D19000" d="M122.8,12h1.801v12.8h6.101v1.6h-8V12H122.8z"/>
		<path fill="#D19000" d="M140.3,19.6h-5.6v5.2h6.2v1.6H132.8V12h7.7v1.6H134.6v4.5h5.601v1.5H140.3z"/>
		<path fill="#D19000" d="M146.6,26.4v-6.1l-4.5-8.2h2.101l2,4c0.6,1.101,1,2,1.399,3l0,0C148,18.2,148.5,17.2,149,16.1l2.101-4
			h2.101l-4.8,8.2v6.1H146.6z"/>
	</g>
</g>
<g id="Layer_3">
	<g>
		<path fill="#D19000" d="M11.6,71.3v4.8c0,1.801,0.8,2.602,1.899,2.602c1.2,0,2-0.801,2-2.602v-4.8H16.6V76
			c0,2.5-1.301,3.5-3.101,3.5c-1.7,0-2.899-0.9-2.899-3.5v-4.8h1V71.3z"/>
		<path fill="#D19000" d="M18.3,79.4v-8.1H19.4l2.6,4.1C22.6,76.299,23.1,77.2,23.5,78l0,0c-0.1-1.101-0.1-2.101-0.1-3.3v-3.4h1v8.1
			H23.3l-2.6-4.1c-0.6-0.899-1.1-1.8-1.5-2.7l0,0c0.1,1,0.1,2,0.1,3.301v3.5L18.3,79.4L18.3,79.4z"/>
		<path fill="#D19000" d="M27.2,71.3v8.1h-1v-8.1H27.2z"/>
		<path fill="#D19000" d="M30.8,79.4l-2.6-8.1h1.1l1.301,4c0.3,1.101,0.6,2.101,0.899,3l0,0c0.2-0.899,0.601-2,0.9-3l1.399-4H34.9
			L32,79.4H30.8z"/>
		<path fill="#D19000" d="M39.9,75.6H36.8v2.9h3.5V79.4h-4.5v-8.1h4.4v0.9h-3.3v2.6H40v0.8H39.9z"/>
		<path fill="#D19000" d="M41.6,71.4c0.5-0.101,1.3-0.199,2-0.199c1.1,0,1.8,0.199,2.3,0.699c0.399,0.399,0.6,0.899,0.6,1.5
			c0,1.101-0.7,1.801-1.5,2.101l0,0c0.601,0.2,1,0.8,1.2,1.6c0.3,1.102,0.5,1.9,0.6,2.2h-1.1c-0.1-0.2-0.3-0.899-0.5-1.899
			C45,76.3,44.5,75.9,43.6,75.8h-1v3.5h-1V71.4z M42.7,75.1h1.1c1.101,0,1.801-0.6,1.801-1.5c0-1-0.801-1.5-1.9-1.5
			c-0.5,0-0.9,0-1,0.102V75.1z"/>
		<path fill="#D19000" d="M48,78.1c0.5,0.301,1.2,0.5,1.9,0.5c1.1,0,1.7-0.6,1.7-1.398c0-0.8-0.4-1.201-1.5-1.602
			C48.8,75.1,48,74.4,48,73.3c0-1.3,1-2.2,2.601-2.2c0.8,0,1.399,0.2,1.8,0.4L52,72.4C51.7,72.3,51.2,72,50.5,72
			c-1.1,0-1.5,0.7-1.5,1.2c0,0.8,0.5,1.1,1.601,1.6c1.399,0.5,2.1,1.2,2.1,2.4c0,1.199-0.9,2.3-2.8,2.3c-0.8,0-1.601-0.2-2.101-0.5
			L48,78.1z"/>
		<path fill="#D19000" d="M55.1,71.3v8.1h-1v-8.1H55.1z"/>
		<path fill="#D19000" d="M58.4,72.2H56v-0.9h6v0.9h-2.5V79.4h-1.1V72.2z"/>
		<path fill="#D19000" d="M65,79.4V76l-2.6-4.7h1.2l1.1,2.2c0.3,0.6,0.6,1.1,0.8,1.7l0,0c0.2-0.5,0.5-1.102,0.8-1.7l1.2-2.2h1.2
			L66,75.9v3.4h-1V79.4z"/>
		<path fill="#D19000" d="M79.1,75.2c0,2.8-1.7,4.3-3.801,4.3c-2.1,0-3.6-1.7-3.6-4.101c0-2.601,1.6-4.199,3.8-4.199
			C77.7,71.1,79.1,72.8,79.1,75.2z M72.9,75.4c0,1.699,0.899,3.301,2.6,3.301s2.601-1.5,2.601-3.4c0-1.6-0.801-3.3-2.601-3.3
			S72.9,73.6,72.9,75.4z"/>
		<path fill="#D19000" d="M80.5,71.3h4.4v0.9h-3.3V74.9h3.1v0.9h-3.1v3.7h-1v-8.2H80.5z"/>
		<path fill="#D19000" d="M94.5,79.1c-0.399,0.2-1.2,0.4-2.1,0.4c-2.3,0-4-1.4-4-4.101c0-2.5,1.7-4.199,4.2-4.199
			c1,0,1.6,0.199,1.899,0.398l-0.3,0.9c-0.4-0.2-1-0.3-1.6-0.3c-1.9,0-3.2,1.199-3.2,3.3c0,2,1.1,3.3,3.1,3.3
			c0.601,0,1.3-0.1,1.7-0.3L94.5,79.1z"/>
		<path fill="#D19000" d="M97.2,76.8l-0.8,2.5H95.3l2.7-8.1h1.3l2.801,8.1H101l-0.899-2.5H97.2z M99.8,76L99,73.7
			c-0.2-0.5-0.3-1-0.399-1.5l0,0c-0.101,0.5-0.301,1-0.4,1.5L97.4,76H99.8z"/>
		<path fill="#D19000" d="M103.2,71.3h1v7.2h3.5V79.4h-4.5V71.3z"/>
		<path fill="#D19000" d="M109.9,71.3v8.1h-1v-8.1H109.9z"/>
		<path fill="#D19000" d="M111.8,71.3h4.4v0.9h-3.3V74.9h3.1v0.9h-3.1v3.7h-1v-8.2H111.8z"/>
		<path fill="#D19000" d="M124.5,75.2c0,2.8-1.7,4.3-3.8,4.3c-2.101,0-3.601-1.7-3.601-4.101c0-2.601,1.601-4.199,3.801-4.199
			C123.1,71.1,124.5,72.8,124.5,75.2z M118.2,75.4c0,1.699,0.899,3.301,2.6,3.301c1.701,0,2.602-1.5,2.602-3.4
			c0-1.6-0.801-3.3-2.602-3.3C119.1,72,118.2,73.6,118.2,75.4z"/>
		<path fill="#D19000" d="M125.9,71.4c0.5-0.101,1.3-0.199,2-0.199c1.1,0,1.8,0.199,2.3,0.699c0.399,0.399,0.6,0.899,0.6,1.5
			c0,1.101-0.699,1.801-1.5,2.101l0,0c0.602,0.2,1,0.8,1.2,1.6c0.3,1.102,0.5,1.9,0.601,2.2H130c-0.1-0.2-0.3-0.899-0.5-1.899
			c-0.2-1.101-0.7-1.5-1.6-1.601h-1v3.5h-1V71.4z M126.9,75.1h1.1c1.101,0,1.8-0.6,1.8-1.5c0-1-0.8-1.5-1.898-1.5
			c-0.5,0-0.9,0-1,0.102L126.9,75.1L126.9,75.1z"/>
		<path fill="#D19000" d="M132.3,79.4v-8.1h1.102L136,75.4C136.6,76.299,137.1,77.2,137.5,78l0,0c-0.1-1.101-0.1-2.101-0.1-3.3v-3.4
			h1v8.1H137.3l-2.6-4.101c-0.601-0.899-1.101-1.8-1.5-2.7l0,0c0.1,1,0.1,2,0.1,3.301v3.5H132.3L132.3,79.4z"/>
		<path fill="#D19000" d="M141.3,71.3v8.1h-1v-8.1H141.3z"/>
		<path fill="#D19000" d="M144.4,76.8l-0.801,2.5h-1.101l2.7-8.1h1.3l2.8,8.1h-1.1l-0.9-2.5H144.4z M147.1,76l-0.801-2.3
			c-0.199-0.5-0.3-1-0.398-1.5l0,0c-0.102,0.5-0.301,1-0.4,1.5l-0.8,2.3H147.1z"/>
	</g>
</g>
</svg>
