<?xml version="1.0" encoding="iso-8859-1"?>
<svg xmlns="http://www.w3.org/2000/svg" xmlns:xlink="http://www.w3.org/1999/xlink" version="1.1" x="0px" y="0px" viewBox="0 0 294.995 294.995" style="enable-background:new 0 0 294.995 294.995;" xml:space="preserve" width="512px" height="512px">
<g>
	<path d="M291.874,248.279L165.605,26.526c-4.007-7.037-10.776-11.26-18.107-11.26s-14.101,4.202-18.107,11.239L3.121,248.238   c-3.979,6.989-4.164,15.013-0.493,21.326c3.67,6.313,10.663,10.165,18.705,10.165h252.329c8.042,0,15.035-3.852,18.705-10.165   C296.038,263.251,295.854,255.268,291.874,248.279z M146.665,86.229c9.665,0,17.5,7.835,17.5,17.5v63c0,9.665-7.835,17.5-17.5,17.5   c-9.665,0-17.5-7.835-17.5-17.5v-63C129.165,94.064,137,86.229,146.665,86.229z M147.498,204.005c9.665,0,17.5,7.835,17.5,17.5   c0,9.665-7.835,17.5-17.5,17.5c-9.665,0-17.5-7.835-17.5-17.5C129.998,211.84,137.833,204.005,147.498,204.005z" fill="#D80027"/>
</g>
</svg>
