<?xml version="1.0" encoding="utf-8"?>
<!-- Generator: Adobe Illustrator 16.0.0, SVG Export Plug-In . SVG Version: 6.00 Build 0)  -->
<!DOCTYPE svg PUBLIC "-//W3C//DTD SVG 1.1//EN" "http://www.w3.org/Graphics/SVG/1.1/DTD/svg11.dtd">
<svg version="1.1" id="Layer_1" xmlns="http://www.w3.org/2000/svg" xmlns:xlink="http://www.w3.org/1999/xlink" x="0px" y="0px"
	 width="14.853px" height="20.097px" viewBox="0 0 14.853 20.097" enable-background="new 0 0 14.853 20.097" xml:space="preserve">
<g>
	<defs>
		<rect id="SVGID_1_" x="43" y="-506.956" width="15.229" height="20.053"/>
	</defs>
	<clipPath id="SVGID_2_">
		<use xlink:href="#SVGID_1_"  overflow="visible"/>
	</clipPath>
	<path opacity="0.9" clip-path="url(#SVGID_2_)" fill="#005581" d="M57.856-500.574c0-3.548-3.327-6.426-7.428-6.426
		c-4.103,0-7.429,2.878-7.429,6.426c0,3.063,5.533,11.247,7.049,13.432c0.079,0.115,0.223,0.186,0.38,0.186
		c0.155,0,0.3-0.071,0.379-0.186C52.323-489.325,57.856-497.511,57.856-500.574L57.856-500.574z M50.429-495.602
		c-3.169,0-5.749-2.231-5.749-4.973c0-2.742,2.58-4.973,5.749-4.973s5.747,2.23,5.747,4.973
		C56.176-497.833,53.598-495.602,50.429-495.602L50.429-495.602z M50.429-495.602"/>
</g>
<g>
	<defs>
		<rect id="SVGID_3_" y="0.044" width="15.229" height="20.052"/>
	</defs>
	<clipPath id="SVGID_4_">
		<use xlink:href="#SVGID_3_"  overflow="visible"/>
	</clipPath>
	<path opacity="0.9" clip-path="url(#SVGID_4_)" fill="#005581" d="M14.856,6.426C14.856,2.878,11.529,0,7.429,0
		C3.326,0,0,2.878,0,6.426c0,3.063,5.533,11.247,7.049,13.433c0.079,0.114,0.223,0.186,0.38,0.186c0.155,0,0.3-0.071,0.379-0.186
		C9.323,17.675,14.856,9.489,14.856,6.426L14.856,6.426z M7.429,11.398c-3.169,0-5.749-2.231-5.749-4.973
		c0-2.742,2.58-4.973,5.749-4.973s5.747,2.23,5.747,4.973C13.176,9.167,10.598,11.398,7.429,11.398L7.429,11.398z M7.429,11.398"/>
</g>
</svg>
