<?xml version="1.0" standalone="no"?>
<!DOCTYPE svg PUBLIC "-//W3C//DTD SVG 20010904//EN"
 "http://www.w3.org/TR/2001/REC-SVG-20010904/DTD/svg10.dtd">
<svg version="1.0" xmlns="http://www.w3.org/2000/svg"
 width="1242.000000pt" height="1242.000000pt" viewBox="0 0 1242.000000 1242.000000"
 preserveAspectRatio="xMidYMid meet">
<metadata>
Created by potrace 1.11, written by Peter Selinger 2001-2013
</metadata>
<g transform="translate(0.000000,1242.000000) scale(0.100000,-0.100000)"
fill="#000000" stroke="none">
<path d="M5586 10854 c-14 -13 -16 -67 -16 -434 0 -367 2 -421 16 -434 13 -14
64 -16 403 -16 288 0 390 3 399 12 17 17 17 859 0 876 -9 9 -111 12 -399 12
-339 0 -390 -2 -403 -16z"/>
<path d="M6932 10658 c-9 -9 -12 -117 -12 -422 l-1 -411 -224 -250 -224 -250
-448 5 -448 5 -272 229 -273 230 -2 380 -3 381 -439 3 c-316 1 -443 -1 -452
-9 -21 -17 -21 -871 0 -888 10 -8 136 -11 457 -11 l444 1 217 -182 218 -182 0
-509 c0 -508 2 -539 34 -560 6 -4 224 -8 484 -8 459 0 473 1 492 20 19 19 20
33 20 495 l0 474 251 281 251 280 402 0 c299 0 405 3 414 12 17 17 17 869 0
886 -17 17 -869 17 -886 0z"/>
<path d="M8132 10168 c-9 -9 -12 -108 -12 -383 0 -275 3 -374 12 -383 9 -9
101 -12 355 -12 328 0 343 1 353 19 14 27 14 725 0 752 -10 18 -25 19 -353 19
-254 0 -346 -3 -355 -12z"/>
<path d="M3231 10016 c-8 -9 -11 -103 -9 -322 l3 -309 290 0 290 0 3 314 c2
245 -1 316 -10 323 -7 4 -135 8 -284 8 -218 0 -274 -3 -283 -14z"/>
<path d="M4046 9228 c-14 -20 -16 -82 -16 -483 0 -402 2 -463 16 -483 l15 -22
440 0 439 1 320 -292 320 -291 0 -497 0 -497 -260 -292 -261 -292 -552 0
c-417 0 -556 -3 -565 -12 -9 -9 -12 -161 -12 -622 0 -336 4 -617 8 -624 7 -10
140 -12 633 -10 l624 3 2 639 2 638 226 254 226 254 492 0 492 0 230 -214 230
-215 5 -413 5 -413 414 -3 c325 -2 416 0 423 10 13 22 10 892 -4 906 -9 9
-114 12 -411 12 l-399 0 -228 213 -228 212 -1 520 0 520 172 187 172 188 422
0 422 0 20 26 c21 26 21 37 21 479 0 442 0 453 -21 479 l-20 26 -424 0 -424 0
-20 -26 c-21 -26 -21 -37 -21 -460 l0 -433 -182 -200 -183 -200 -493 -1 c-271
0 -501 -4 -510 -9 -14 -7 -80 48 -329 276 l-313 285 0 433 c0 406 -1 433 -18
448 -17 15 -63 17 -450 17 l-431 0 -15 -22z"/>
<path d="M8832 9058 c-9 -9 -12 -113 -12 -408 l0 -396 -221 -245 -221 -244
-496 -5 -497 -5 0 -585 0 -585 501 -5 502 -5 281 -240 281 -240 0 -382 0 -383
410 0 410 0 0 450 0 450 -408 0 -408 0 -252 216 -252 215 0 513 0 512 213 237
212 236 372 0 c324 1 374 3 387 17 14 14 16 67 16 439 0 372 -2 425 -16 439
-13 14 -64 16 -403 16 -288 0 -390 -3 -399 -12z"/>
<path d="M2708 9019 c-17 -9 -18 -41 -18 -443 0 -356 2 -436 14 -445 10 -8
125 -11 407 -10 l394 1 182 -194 183 -193 0 -516 0 -517 -249 -241 -250 -242
-380 -2 c-350 -2 -382 -3 -398 -20 -17 -16 -18 -48 -18 -433 l0 -416 24 -19
c22 -18 44 -19 383 -19 356 0 389 3 410 34 4 6 8 178 8 382 l0 372 246 238
246 239 527 5 526 5 0 585 0 585 -477 3 -477 2 -236 252 -235 252 0 367 c0
321 -2 370 -16 383 -13 14 -63 16 -397 16 -241 0 -388 -4 -399 -11z"/>
<path d="M2252 7233 l3 -518 542 -3 543 -2 5 22 c3 13 4 246 3 518 l-3 495
-548 3 -547 2 2 -517z"/>
<path d="M9062 7233 l3 -518 470 0 470 0 3 518 2 517 -475 0 -475 0 2 -517z"/>
<path d="M5627 5913 c-4 -3 -7 -241 -7 -528 l0 -522 -256 -292 -256 -291 -362
-2 -361 -3 0 -445 0 -445 405 0 405 0 3 420 2 421 236 267 235 267 59 0 60 0
0 -1674 c0 -921 3 -1681 6 -1690 5 -14 50 -16 403 -16 295 0 400 3 409 12 9 9
12 398 12 1690 l0 1678 74 0 73 0 229 -207 c126 -113 232 -211 236 -217 4 -6
8 -173 8 -371 0 -267 3 -364 12 -373 9 -9 111 -12 398 -12 287 0 389 3 398 12
17 17 17 869 0 886 -15 15 -779 17 -794 3 -5 -6 -95 68 -241 200 l-233 209 -2
513 -3 512 -571 3 c-314 1 -574 -1 -577 -5z"/>
<path d="M8357 5183 c-4 -3 -7 -167 -7 -364 0 -316 2 -358 16 -363 24 -9 687
-7 702 2 9 7 12 87 10 368 l-3 359 -356 3 c-195 1 -358 -1 -362 -5z"/>
<path d="M3412 4808 c-17 -17 -17 -549 0 -566 17 -17 499 -17 516 0 17 17 17
549 0 566 -17 17 -499 17 -516 0z"/>
</g>
</svg>
