<svg xmlns="http://www.w3.org/2000/svg" width="71.963" height="30.451" viewBox="67.77 35.375 71.963 30.451"><path d="M67.77 52.438V35.975h8.213V52.25c0 4.238 2.137 6.227 5.399 6.227 3.3 0 5.438-1.914 5.438-6.039v-16.5h8.212v16.238c0 9.412-5.4 13.612-13.726 13.612-8.286.037-13.536-4.201-13.536-13.35zm31.199-1.726v-.075c0-8.55 6.525-15.262 15.413-15.262 6 0 9.824 2.512 12.449 6.075l-6.113 4.725c-1.688-2.062-3.599-3.448-6.411-3.448-4.089 0-6.976 3.524-6.976 7.799v.074c0 4.389 2.887 7.838 6.976 7.838 3.075 0 4.875-1.426 6.6-3.562l6.113 4.352c-2.774 3.824-6.488 6.6-12.938 6.6-8.364.035-15.113-6.378-15.113-15.116zm32.624-14.737h8.14V65.3h-8.14V35.975z" fill="#0065A5"/></svg>