<svg xmlns="http://www.w3.org/2000/svg" width="76.105" height="36.335" viewBox="0 5.57 76.105 36.335"><path d="M-701.422-1858.46h-.103c-1.093 2.082-2.457 3.643-4.096 4.684-1.638 1.041-3.634 1.562-5.987 1.562-1.979 0-3.687-.376-5.119-1.126a10.088 10.088 0 0 1-3.532-3.021c-.921-1.262-1.604-2.721-2.047-4.376a19.954 19.954 0 0 1-.666-5.194c0-1.945.238-3.763.716-5.451.479-1.689 1.203-3.148 2.176-4.376.973-1.229 2.192-2.201 3.66-2.917 1.466-.716 3.19-1.075 5.169-1.075 1.059 0 2.1.146 3.122.435a10.87 10.87 0 0 1 2.841 1.255 8.998 8.998 0 0 1 3.762 4.811h.103v-16.124h1.945v36.546h-1.945l.001-5.633zm-9.777 4.556c1.672 0 3.113-.34 4.325-1.024a9.206 9.206 0 0 0 3.021-2.713c.801-1.126 1.397-2.414 1.792-3.863a16.9 16.9 0 0 0 .588-4.428 17.14 17.14 0 0 0-.588-4.479c-.394-1.45-.981-2.747-1.767-3.891a8.695 8.695 0 0 0-3.045-2.737c-1.246-.684-2.705-1.024-4.376-1.024-1.739 0-3.225.333-4.453.998-1.228.665-2.243 1.562-3.045 2.688s-1.382 2.423-1.739 3.891a19.155 19.155 0 0 0-.537 4.555c0 1.535.194 3.029.588 4.479.392 1.451.989 2.738 1.792 3.864a8.88 8.88 0 0 0 3.045 2.687c1.226.664 2.692.997 4.399.997zm34.345-4.146h-.103a8.176 8.176 0 0 1-1.331 2.227 9.421 9.421 0 0 1-2.125 1.868 10.54 10.54 0 0 1-2.841 1.28c-1.058.307-2.218.46-3.479.46-2.8 0-4.966-.606-6.5-1.817-1.536-1.211-2.305-3.079-2.305-5.604 0-1.535.308-2.79.921-3.763a7.01 7.01 0 0 1 2.329-2.303 10.011 10.011 0 0 1 3.123-1.203 30.922 30.922 0 0 1 3.302-.512l3.02-.255c1.399-.104 2.5-.265 3.302-.487.802-.221 1.407-.528 1.817-.921.409-.392.666-.896.768-1.51.103-.614.153-1.382.153-2.305 0-.716-.137-1.382-.41-1.995-.272-.614-.7-1.16-1.278-1.639-.581-.478-1.331-.853-2.253-1.126-.921-.271-2.047-.409-3.378-.409-2.354 0-4.257.581-5.707 1.74-1.45 1.161-2.243 2.917-2.38 5.272h-1.944c.136-2.9 1.065-5.075 2.79-6.526 1.723-1.45 4.172-2.175 7.345-2.175 3.174 0 5.484.623 6.936 1.868 1.45 1.246 2.177 2.875 2.177 4.888v15.304c0 .376.008.751.024 1.126.018.376.077.716.179 1.023.103.308.272.555.513.741.237.188.58.282 1.023.282.342 0 .819-.051 1.434-.154v1.639a6.11 6.11 0 0 1-1.586.205c-.785 0-1.407-.104-1.868-.308-.46-.205-.812-.478-1.049-.818a3.027 3.027 0 0 1-.486-1.203 8.243 8.243 0 0 1-.128-1.511v-1.381h-.005zm0-9.725c-.479.581-1.203.974-2.175 1.177-.974.205-2.057.358-3.25.46l-3.275.308c-.956.103-1.912.248-2.867.436a8.358 8.358 0 0 0-2.585.946 5.283 5.283 0 0 0-1.868 1.817c-.478.768-.716 1.766-.716 2.994 0 1.944.614 3.387 1.842 4.324 1.229.939 2.917 1.408 5.067 1.408 2.218 0 3.975-.401 5.271-1.203 1.296-.802 2.286-1.723 2.97-2.765.683-1.041 1.116-2.047 1.306-3.021.187-.973.281-1.629.281-1.971l-.001-4.91zm8.036 6.193c.067 1.229.341 2.312.818 3.25a7.92 7.92 0 0 0 1.869 2.406 7.852 7.852 0 0 0 2.688 1.51c1.022.342 2.132.512 3.326.512.854 0 1.767-.077 2.738-.229a9.523 9.523 0 0 0 2.713-.846 5.613 5.613 0 0 0 2.073-1.714c.546-.732.819-1.664.819-2.79 0-1.467-.444-2.576-1.331-3.327-.889-.75-2.005-1.331-3.354-1.74-1.348-.409-2.798-.741-4.351-.998s-3.003-.641-4.352-1.151c-1.349-.512-2.466-1.237-3.353-2.176-.888-.938-1.331-2.312-1.331-4.12 0-1.296.29-2.38.87-3.25s1.322-1.562 2.227-2.073c.903-.512 1.919-.878 3.045-1.101s2.252-.333 3.378-.333c1.364 0 2.645.152 3.839.46 1.194.307 2.227.802 3.097 1.483a7.09 7.09 0 0 1 2.048 2.61c.494 1.058.742 2.338.742 3.839h-1.945c0-1.194-.196-2.217-.588-3.071-.394-.853-.939-1.544-1.638-2.072-.7-.528-1.528-.922-2.483-1.178a11.83 11.83 0 0 0-3.071-.384c-.888 0-1.782.085-2.688.256s-1.714.46-2.432.87a5.462 5.462 0 0 0-1.766 1.587c-.461.648-.69 1.434-.69 2.354 0 1.058.256 1.911.768 2.559.512.648 1.186 1.169 2.021 1.562.837.393 1.774.708 2.815.946 1.04.239 2.09.479 3.147.718 1.297.238 2.517.521 3.659.845 1.144.325 2.133.768 2.969 1.331a6.047 6.047 0 0 1 1.971 2.175c.478.888.717 2.014.717 3.378 0 1.434-.325 2.61-.972 3.532a7.519 7.519 0 0 1-2.457 2.227c-.99.562-2.091.955-3.301 1.178a19.728 19.728 0 0 1-3.559.333c-1.502 0-2.892-.197-4.171-.589-1.28-.393-2.397-.989-3.353-1.791a8.526 8.526 0 0 1-2.252-2.943c-.547-1.16-.837-2.508-.87-4.043h1.951zm24.62-27.793v15.867h.103a8.45 8.45 0 0 1 1.459-2.637 9.685 9.685 0 0 1 4.937-3.2c.99-.272 1.997-.409 3.021-.409 1.536 0 2.841.188 3.916.562s1.953.87 2.636 1.484 1.219 1.305 1.612 2.073.673 1.544.845 2.328c.17.785.272 1.544.308 2.277.033.734.052 1.375.052 1.92v16.276h-1.945v-16.635c0-.648-.051-1.468-.153-2.457s-.4-1.937-.896-2.842c-.496-.902-1.246-1.68-2.253-2.328-1.006-.648-2.397-.974-4.171-.974-1.502 0-2.833.273-3.992.819a8.647 8.647 0 0 0-2.969 2.277c-.819.973-1.442 2.134-1.868 3.48-.427 1.348-.641 2.824-.641 4.427v14.229h-1.944v-36.546h1.944v.009z" fill="#7C7E7F"/><path d="M-741.686-1851.091c-.008-.058-.208-3.039-1.587-6.498-1.388-3.461-3.336-5.453-3.392-5.513a1.662 1.662 0 0 0-1.166-.496v-.001h-.011v.001c-.419.005-.846.17-1.166.496-.054.06-2.004 2.051-3.391 5.513-1.379 3.459-1.58 6.44-1.586 6.498l-.009.38v.012l.005-.003c.023 1.888 3.056 1.965 3.119-.298l.007-.103.028-.443s.034-.564.191-1.457c.156-.895.433-2.088.899-3.256a13.178 13.178 0 0 1 1.482-2.721c.161-.229.688-.229.849 0a13.208 13.208 0 0 1 1.481 2.721c.468 1.168.746 2.361.901 3.256.156.893.189 1.457.189 1.457l.028.444.005.103c.065 2.263 3.098 2.186 3.122.298l.003.003v-.012l-.001-.381zm10.443-16.749c-.056-.011-2.922-.738-6.604-.48-3.686.263-6.162 1.522-6.233 1.558a1.689 1.689 0 0 0-.828.965v-.001c0 .002 0 .004-.002.007l-.003.006.002.001c-.125.403-.102.864.107 1.271.039.072 1.309 2.562 4.138 4.965 2.828 2.395 5.57 3.509 5.624 3.533l.354.123.003.001h.001l.007.004-.002-.005c1.784.562 2.793-2.332.685-3.092l-.095-.037-.409-.165s-.52-.208-1.312-.634c-.794-.427-1.832-1.062-2.785-1.873a13.013 13.013 0 0 1-2.102-2.265c-.166-.225-.003-.731.261-.815a12.74 12.74 0 0 1 3.019-.583c1.242-.089 2.453.015 3.342.141.888.126 1.431.267 1.431.267l.426.109.099.026c2.147.637 3.013-2.302 1.243-2.909l.004-.002-.007-.002h-.002l-.001-.001-.361-.113zm-12.53-15.216c-.028.053-1.6 2.583-2.496 6.201-.891 3.625-.472 6.395-.459 6.476.067.455.315.841.65 1.094.001.001.006.001.007.004a.01.01 0 0 0 .005.003v-.001c.339.245.78.365 1.229.289.08-.013 2.814-.467 5.949-2.443 3.128-1.979 5.022-4.271 5.062-4.312l.228-.303.001-.003h.002l.003-.008-.003.002c1.077-1.543-1.332-3.407-2.698-1.613l-.064.079-.281.343s-.356.435-1.003 1.063c-.646.631-1.564 1.432-2.622 2.101a12.979 12.979 0 0 1-2.781 1.319c-.262.087-.688-.225-.687-.505.004-.771.083-1.859.385-3.08.3-1.222.77-2.354 1.163-3.171.394-.813.692-1.291.693-1.292l.235-.375.054-.087c1.265-1.87-1.232-3.605-2.351-2.095v-.004l-.006.006v.002l-.003.002-.212.308zm-18.188 7.345c.039.043 1.936 2.336 5.062 4.315 3.136 1.977 5.871 2.429 5.948 2.443.448.075.892-.046 1.23-.289l.001.001c.002-.001.003-.004.004-.006l.006-.002v-.001c.335-.251.584-.638.651-1.093.011-.082.43-2.851-.459-6.476-.897-3.616-2.468-6.147-2.496-6.201l-.215-.31-.001-.002-.001-.002-.004-.006-.001.004c-1.118-1.513-3.616.228-2.353 2.094l.055.088.234.375c0 .002.3.479.693 1.293.393.816.864 1.949 1.165 3.171.3 1.221.381 2.309.383 3.082.002.281-.424.593-.688.505a12.837 12.837 0 0 1-2.778-1.322c-1.058-.666-1.978-1.468-2.624-2.1a13.958 13.958 0 0 1-1.001-1.064l-.281-.344-.065-.078c-1.366-1.792-3.773.069-2.697 1.614l-.002-.002.002.008h.002l.002.003.228.302zm1.29 19.756c.053-.025 2.795-1.139 5.624-3.533 2.829-2.404 4.098-4.894 4.136-4.965a1.68 1.68 0 0 0 .108-1.271h.002c0-.005-.002-.005-.003-.008l-.002-.006a1.66 1.66 0 0 0-.828-.965c-.072-.036-2.548-1.294-6.232-1.558-3.683-.257-6.549.471-6.604.481l-.359.111-.002.001h-.002l-.008.001.004.003c-1.768.606-.903 3.546 1.244 2.908l.099-.026.427-.109s.544-.144 1.431-.268c.889-.126 2.099-.229 3.342-.141 1.241.088 2.291.348 3.02.584.264.084.425.593.261.817a12.953 12.953 0 0 1-2.104 2.264c-.952.811-1.99 1.447-2.783 1.875-.791.423-1.312.632-1.312.631l-.41.165-.094.038c-2.108.761-1.1 3.651.685 3.093l-.002.003.01-.003.004-.002.348-.12z" fill="#FF8300"/><path d="M-720.349-1846.645c.821 0 1.453.209 1.896.627.443.418.664 1.056.664 1.911 0 .447-.05.845-.148 1.19a2.24 2.24 0 0 1-.463.873 2.023 2.023 0 0 1-.8.541c-.323.125-.707.187-1.149.187h-1.829v-5.33l1.829.001zm.06 4.732c.08 0 .18-.006.299-.02.119-.013.246-.042.381-.09.134-.048.268-.114.398-.205.131-.09.25-.212.354-.365.104-.154.189-.348.257-.579a3.09 3.09 0 0 0 .101-.84c0-.318-.03-.604-.093-.854a1.652 1.652 0 0 0-.306-.642 1.337 1.337 0 0 0-.55-.403 2.183 2.183 0 0 0-.827-.138h-1.195v4.135l1.181.001zm5.599-4.732l2.083 5.33h-.784l-.582-1.604h-2.254l-.598 1.604h-.724l2.075-5.33h.784zm.492 3.127l-.888-2.485h-.015l-.903 2.485h1.806zm.859-2.53v-.598h4.262v.598h-1.775v4.731h-.709v-4.731h-1.778zm6.397-.597l2.082 5.33h-.783l-.583-1.604h-2.254l-.598 1.604h-.724l2.075-5.33h.785zm.492 3.127l-.888-2.485h-.015l-.903 2.485h1.806zm6.857-2.399c-.236-.172-.539-.257-.907-.257-.148 0-.296.015-.439.045-.145.03-.272.08-.385.148-.111.07-.201.163-.269.28s-.101.262-.101.438c0 .164.049.297.146.398.097.103.228.186.388.25.162.064.346.118.55.161.203.042.411.088.624.138.211.051.419.108.623.176.203.066.387.157.549.271.162.115.291.259.388.435.097.174.146.393.146.656 0 .284-.063.526-.19.729s-.29.366-.489.493-.422.219-.668.275a3.19 3.19 0 0 1-.734.086c-.3 0-.581-.037-.849-.111a2.102 2.102 0 0 1-.702-.339 1.635 1.635 0 0 1-.478-.583 1.88 1.88 0 0 1-.175-.841h.672c0 .225.043.417.13.579s.202.294.343.399c.143.104.308.182.497.23.189.05.383.075.582.075.16 0 .32-.015.481-.045.16-.03.308-.081.437-.153a.852.852 0 0 0 .313-.295.873.873 0 0 0 .118-.478.668.668 0 0 0-.145-.448 1.083 1.083 0 0 0-.389-.28 3.052 3.052 0 0 0-.549-.176l-.624-.138a8.344 8.344 0 0 1-.622-.165c-.204-.062-.388-.145-.55-.246s-.291-.234-.388-.396a1.156 1.156 0 0 1-.146-.607c0-.27.055-.501.163-.698.109-.197.256-.358.438-.485a1.98 1.98 0 0 1 .619-.283c.23-.062.469-.094.713-.094.274 0 .528.032.762.098.234.064.439.167.616.306.176.14.316.315.418.527.103.211.158.464.168.757h-.672c-.039-.383-.177-.661-.413-.832zm2.877-.728v2.292h2.807v-2.292h.709v5.33h-.709v-2.44h-2.807v2.44h-.709v-5.33h.709zm6.912 0l2.083 5.33h-.784l-.583-1.604h-2.254l-.598 1.604h-.725l2.075-5.33h.786zm.492 3.127l-.889-2.485h-.015l-.903 2.485h1.807zm4.621-3.127c.508 0 .903.125 1.189.373.286.249.431.59.431 1.022 0 .324-.074.606-.221.851s-.382.411-.706.5v.016c.154.029.28.079.377.148a.784.784 0 0 1 .231.25c.057.098.1.205.127.325.027.119.048.244.063.374.01.129.017.261.021.396s.018.267.038.396c.02.13.048.252.086.369.037.117.093.22.168.31h-.792a.448.448 0 0 1-.101-.224 2.067 2.067 0 0 1-.034-.317l-.016-.377a2.609 2.609 0 0 0-.045-.396 4.222 4.222 0 0 0-.074-.369.86.86 0 0 0-.143-.307.67.67 0 0 0-.254-.208.93.93 0 0 0-.418-.079h-1.732v2.276h-.709v-5.33h2.514zm.149 2.418c.149-.024.28-.073.393-.146a.815.815 0 0 0 .269-.292.981.981 0 0 0 .102-.475c0-.269-.074-.487-.225-.656-.149-.169-.391-.253-.724-.253h-1.763v1.858h1.479c.163.002.32-.011.469-.036zm3.195-2.418v5.33h-.709v-5.33h.709zm1.941 0l2.808 4.322h.015v-4.322h.672v5.33h-.775l-2.784-4.276h-.015v4.276h-.673v-5.33h.752zm7.852 5.266c-.31.122-.62.183-.933.183a2.404 2.404 0 0 1-1.865-.814c-.219-.249-.386-.535-.5-.858s-.171-.659-.171-1.008c0-.389.053-.757.159-1.108.107-.351.267-.658.479-.922s.476-.474.792-.631a2.477 2.477 0 0 1 1.108-.235c.288 0 .561.033.816.102.256.067.485.173.688.316.202.146.371.327.508.549s.229.489.28.803h-.709a1.418 1.418 0 0 0-.194-.526 1.263 1.263 0 0 0-.351-.362c-.14-.095-.298-.166-.475-.213s-.365-.071-.563-.071c-.323 0-.602.064-.832.194-.231.13-.421.3-.567.512a2.248 2.248 0 0 0-.325.725 3.365 3.365 0 0 0-.104.833c0 .278.04.546.119.802a2.1 2.1 0 0 0 .351.68c.154.196.345.354.571.47.226.117.488.177.787.177.278 0 .524-.045.738-.136a1.54 1.54 0 0 0 .541-.368c.147-.157.259-.342.332-.554a1.82 1.82 0 0 0 .098-.683h-1.702v-.597h2.336v2.807h-.448l-.187-.665a1.785 1.785 0 0 1-.777.598zm5.516-5.266l1.681 4.479 1.687-4.479h.97v5.33h-.672v-4.434h-.015l-1.665 4.434h-.604l-1.665-4.434h-.015v4.434h-.672v-5.33h.97zm7.748 0l2.083 5.33h-.784l-.581-1.604h-2.255l-.597 1.604h-.724l2.075-5.33h.783zm.493 3.127l-.888-2.485h-.016l-.902 2.485h1.806zm3.942-3.127c.82 0 1.453.209 1.896.627.443.418.664 1.056.664 1.911 0 .447-.05.845-.148 1.19a2.241 2.241 0 0 1-.464.873 2.013 2.013 0 0 1-.799.541c-.323.125-.707.187-1.148.187h-1.829v-5.33l1.828.001zm.059 4.732c.08 0 .179-.006.299-.02.119-.013.246-.042.38-.09.136-.047.269-.114.399-.205.131-.09.25-.212.354-.365.104-.154.19-.348.259-.579a3.09 3.09 0 0 0 .101-.84c0-.318-.031-.604-.093-.854a1.626 1.626 0 0 0-.307-.642 1.327 1.327 0 0 0-.549-.403 2.185 2.185 0 0 0-.828-.138h-1.193v4.135l1.178.001zm7.046-4.732v.598h-2.971v1.693h2.769v.598h-2.769v1.844h2.993v.597h-3.702v-5.33h3.68zm6.637 0v.598h-2.972v1.693h2.771v.598h-2.771v1.844h2.993v.597h-3.702v-5.33h3.681zm3.112 0l2.083 5.33h-.784l-.583-1.604h-2.254l-.597 1.604h-.724l2.075-5.33h.784zm.492 3.127l-.888-2.485h-.016l-.902 2.485h1.806zm4.781-2.399c-.237-.172-.539-.257-.907-.257-.149 0-.296.015-.44.045s-.271.08-.385.148c-.112.07-.201.163-.269.28s-.102.262-.102.438c0 .164.048.297.146.398.097.103.226.186.388.25s.344.118.548.161c.204.042.412.088.623.138.212.051.419.108.624.176.204.066.387.157.549.271.162.115.291.259.389.435.097.174.146.393.146.656 0 .284-.062.526-.189.729-.126.202-.29.366-.489.493s-.422.219-.668.275a3.198 3.198 0 0 1-.735.086 3.14 3.14 0 0 1-.847-.111 2.083 2.083 0 0 1-.702-.339 1.627 1.627 0 0 1-.479-.583 1.893 1.893 0 0 1-.175-.841h.672c0 .225.043.417.132.579.086.162.201.294.343.399.142.104.307.182.497.23.188.05.383.075.582.075.158 0 .318-.015.48-.045s.308-.081.438-.153a.857.857 0 0 0 .312-.295.864.864 0 0 0 .119-.478.668.668 0 0 0-.145-.448 1.092 1.092 0 0 0-.389-.28 3.026 3.026 0 0 0-.549-.176c-.204-.044-.412-.091-.623-.138a8.527 8.527 0 0 1-.624-.165c-.204-.062-.387-.145-.549-.246s-.291-.234-.388-.396c-.098-.16-.146-.363-.146-.607 0-.27.054-.501.164-.698.109-.197.255-.358.438-.485.182-.126.388-.221.619-.283s.47-.094.713-.094c.273 0 .526.032.762.098.233.064.438.167.616.306.176.14.315.315.418.527.102.211.158.464.168.757h-.672c-.039-.383-.177-.661-.414-.832zm4.371 4.602h-.708v-2.18l-2.062-3.149h.844l1.598 2.538 1.56-2.538h.807l-2.038 3.149v2.18z" fill="#7C7E7F"/><path fill="none" stroke="#7C7E7F" stroke-miterlimit="10" d="M-773.395-1890v48"/><path d="M-860.542-1879.371v-4.845h1.373v4.688c0 1.736.648 2.431 2.132 2.431 1.404 0 2.035-.82 2.035-2.288v-4.83h1.264v4.72c0 2.162-1.073 3.535-3.347 3.535-2.384-.001-3.457-1.342-3.457-3.411zm9.863-4.844h1.373l3.583 4.907c.458.647.82 1.343.836 1.343h.032s-.063-.632-.063-1.247v-5.003h1.231v8.111h-1.231l-3.803-5.208c-.379-.552-.728-1.199-.728-1.199h-.016s.048.538.048 1.042v5.365h-1.262v-8.111zm10.209 0h1.357v8.111h-1.357v-8.111zm3.63 0h1.436l2.053 5.317c.235.602.474 1.374.474 1.391h.031c0-.017.237-.773.473-1.391l1.975-5.317h1.31l-3.141 8.111h-1.326l-3.285-8.111zm9.975 0h4.956v1.104h-3.599v2.226h3.22v1.073h-3.22v2.604h3.678v1.104h-5.035v-8.111zm7.796 0h2.54c1.895 0 2.983.772 2.983 2.241 0 1.389-1.01 2.005-2.226 2.131v.031c.174.125.475.426.963 1.104l1.926 2.604h-1.562l-1.643-2.319c-.805-1.121-.994-1.214-1.481-1.214h-.143v3.534h-1.356l-.001-8.112zm2.509 3.567c1.136 0 1.625-.427 1.625-1.263 0-.853-.536-1.248-1.703-1.248h-1.074v2.51l1.152.001zm5.27 3.882l.601-.963c.22.158.819.663 1.893.663.963 0 1.593-.426 1.593-1.136 0-.853-.771-1.089-1.956-1.641-1.042-.475-1.926-1.059-1.926-2.337 0-1.419 1.215-2.192 2.619-2.192 1.327 0 2.006.426 2.354.662l-.584.963a3.12 3.12 0 0 0-1.722-.521c-.771 0-1.341.332-1.341 1.026 0 .772.678 1.01 1.562 1.405 1.137.505 2.305 1.088 2.305 2.571 0 1.421-1.136 2.305-2.888 2.305-1.358 0-2.18-.505-2.51-.805zm8.063-7.449h1.356v8.111h-1.356v-8.111zm6.123 1.121h-2.479v-1.121h6.329v1.121h-2.478v6.991h-1.373v-6.991h.001zm8.19 3.913l-2.855-5.034h1.482l2.084 3.851h.031l2.052-3.851h1.326l-2.763 5.034v3.078h-1.357v-3.078zM-861-1866.198c0-2.226 1.563-4.229 4.277-4.229 2.715 0 4.276 1.956 4.276 4.181s-1.53 4.229-4.246 4.229c-2.713.001-4.307-1.956-4.307-4.181zm7.118 0c0-1.673-.931-3.125-2.81-3.125-1.877 0-2.856 1.438-2.856 3.078 0 1.672.947 3.109 2.826 3.109 1.877 0 2.84-1.406 2.84-3.062zm3.834-4.072h4.877v1.104h-3.521v2.305h3.109v1.087h-3.109v3.616h-1.356v-8.112zM-861-1852.285c0-2.256 1.547-4.197 4.292-4.197 1.09 0 1.815.237 2.446.646l-.646 1.01c-.474-.316-1.042-.521-1.831-.521-1.847 0-2.81 1.279-2.81 3.016 0 1.784.916 3.126 2.841 3.126.916 0 1.531-.3 2.006-.646l.567.96c-.442.378-1.388.822-2.62.822-2.762-.001-4.245-1.959-4.245-4.216zm11.394-4.04h1.327l3.298 8.113h-1.42l-.695-1.769h-3.772l-.661 1.769h-1.344l3.267-8.113zm2.099 5.24l-.963-2.478c-.269-.71-.505-1.468-.505-1.468h-.031s-.252.79-.505 1.468l-.947 2.478h2.951zm4.512-5.24h1.391v7.007h3.424v1.106h-4.814v-8.113zm7.134 0h1.356v8.113h-1.356v-8.113zm4.37 0h4.878v1.105h-3.519v2.304h3.108v1.089h-3.108v3.615h-1.359v-8.113zm6.629 4.072c0-2.226 1.562-4.229 4.276-4.229 2.716 0 4.278 1.957 4.278 4.183s-1.531 4.229-4.247 4.229c-2.713 0-4.307-1.958-4.307-4.183zm7.118 0c0-1.672-.932-3.125-2.81-3.125s-2.857 1.437-2.857 3.078c0 1.673.949 3.108 2.826 3.108 1.878.001 2.841-1.403 2.841-3.061zm3.47-4.072h2.542c1.894 0 2.982.773 2.982 2.241 0 1.389-1.011 2.004-2.225 2.13v.032c.173.125.472.427.962 1.104l1.926 2.605h-1.562l-1.643-2.321c-.805-1.121-.994-1.217-1.483-1.217h-.143v3.538h-1.357v-8.112h.001zm2.511 3.568c1.137 0 1.625-.427 1.625-1.264 0-.853-.537-1.246-1.705-1.246h-1.073v2.509l1.153.001zm5.664-3.568h1.373l3.584 4.909c.458.646.819 1.341.836 1.341h.031s-.062-.631-.062-1.246v-5.004h1.23v8.113h-1.23l-3.803-5.208c-.38-.554-.728-1.201-.728-1.201h-.016s.047.537.047 1.041v5.368h-1.263v-8.113zm9.99 0h1.357v8.113h-1.357v-8.113zm6.707 0h1.325l3.299 8.113h-1.421l-.694-1.769h-3.772l-.664 1.769h-1.341l3.268-8.113zm2.099 5.24l-.962-2.478c-.271-.71-.506-1.468-.506-1.468h-.03s-.252.79-.506 1.468l-.948 2.478h2.952zM.458 10.629V5.785H1.83v4.688c0 1.736.648 2.43 2.132 2.43 1.404 0 2.035-.819 2.035-2.287v-4.83h1.265v4.72c0 2.162-1.074 3.535-3.348 3.535-2.383-.002-3.456-1.343-3.456-3.412zm9.863-4.844h1.373l3.583 4.907c.458.647.82 1.343.836 1.343h.032s-.063-.633-.063-1.247V5.785h1.231v8.111h-1.231l-3.803-5.208c-.379-.551-.727-1.198-.727-1.198h-.016s.048.537.048 1.042v5.365h-1.262l-.001-8.112zm10.209 0h1.357v8.111H20.53V5.785zm3.63 0h1.437l2.052 5.317c.235.602.474 1.374.474 1.391h.031c0-.017.237-.773.473-1.391L30.6 5.785h1.31l-3.141 8.111h-1.326L24.16 5.785zm9.975 0h4.956V6.89h-3.599v2.226h3.22v1.073h-3.22v2.604h3.678v1.104h-5.035V5.785zm7.796 0h2.54c1.895 0 2.983.772 2.983 2.241 0 1.389-1.01 2.005-2.226 2.131v.031c.174.125.475.426.963 1.104l1.926 2.604h-1.562l-1.643-2.319c-.805-1.121-.994-1.215-1.481-1.215h-.143v3.535h-1.356l-.001-8.112zm2.509 3.567c1.136 0 1.625-.427 1.625-1.263 0-.854-.536-1.248-1.703-1.248h-1.074v2.51l1.152.001zm5.27 3.882l.601-.963c.22.158.819.663 1.893.663.963 0 1.593-.426 1.593-1.136 0-.853-.771-1.089-1.956-1.641-1.042-.475-1.926-1.059-1.926-2.337 0-1.419 1.215-2.192 2.619-2.192 1.327 0 2.006.426 2.354.662l-.585.963a3.113 3.113 0 0 0-1.721-.521c-.771 0-1.341.332-1.341 1.026 0 .773.678 1.01 1.562 1.405 1.138.505 2.306 1.088 2.306 2.571 0 1.421-1.136 2.305-2.889 2.305-1.358 0-2.18-.505-2.51-.805zm8.063-7.449h1.356v8.111h-1.356V5.785zm6.123 1.121h-2.479v-1.12h6.329v1.121H65.27v6.991h-1.373l-.001-6.992zm8.19 3.913L69.23 5.785h1.482l2.084 3.851h.031l2.052-3.851h1.326l-2.763 5.034v3.078h-1.357v-3.078zM0 23.802c0-2.226 1.563-4.229 4.277-4.229 2.715 0 4.277 1.955 4.277 4.181 0 2.225-1.531 4.229-4.247 4.229C1.594 27.984 0 26.027 0 23.802zm7.118 0c0-1.673-.931-3.125-2.81-3.125-1.877 0-2.856 1.438-2.856 3.078 0 1.672.947 3.109 2.826 3.109 1.877-.001 2.84-1.406 2.84-3.062zm3.834-4.072h4.877v1.104h-3.521v2.305h3.109v1.087h-3.109v3.616h-1.356V19.73zM0 37.715c0-2.256 1.547-4.197 4.292-4.197 1.09 0 1.815.237 2.446.646l-.646 1.01c-.474-.316-1.042-.521-1.83-.521-1.848 0-2.811 1.279-2.811 3.016 0 1.784.916 3.125 2.841 3.125.916 0 1.531-.299 2.006-.646l.567.96c-.442.378-1.388.821-2.62.821C1.483 41.93 0 39.973 0 37.715zm11.394-4.04h1.327l3.298 8.114h-1.42l-.695-1.77h-3.772l-.661 1.77H8.126l3.268-8.114zm2.099 5.24l-.963-2.478c-.268-.71-.505-1.468-.505-1.468h-.031s-.252.79-.505 1.468l-.947 2.478h2.951zm4.512-5.24h1.391v7.006h3.424v1.107h-4.814v-8.113zm7.134 0h1.356v8.114h-1.356v-8.114zm4.37 0h4.879v1.105h-3.52v2.304h3.108v1.089h-3.108v3.616h-1.359v-8.114zm6.629 4.072c0-2.226 1.562-4.229 4.276-4.229 2.716 0 4.278 1.957 4.278 4.183s-1.531 4.229-4.247 4.229c-2.713 0-4.307-1.957-4.307-4.183zm7.118 0c0-1.672-.932-3.125-2.81-3.125s-2.857 1.437-2.857 3.078c0 1.673.949 3.108 2.826 3.108 1.878.001 2.841-1.404 2.841-3.061zm3.47-4.072h2.542c1.894 0 2.982.773 2.982 2.241 0 1.389-1.011 2.004-2.225 2.13v.032c.173.125.472.427.962 1.104l1.926 2.605h-1.562l-1.643-2.321c-.805-1.121-.994-1.217-1.483-1.217h-.143v3.538h-1.357v-8.112h.001zm2.511 3.568c1.137 0 1.625-.427 1.625-1.264 0-.853-.537-1.247-1.705-1.247h-1.073v2.51l1.153.001zm5.664-3.568h1.373l3.584 4.909c.458.646.82 1.341.836 1.341h.031s-.062-.631-.062-1.247v-5.004h1.23v8.114h-1.23L56.86 36.58c-.38-.555-.728-1.201-.728-1.201h-.016s.047.537.047 1.041v5.369H54.9v-8.114zm9.99 0h1.357v8.114h-1.357v-8.114zm6.707 0h1.325l3.299 8.114h-1.421l-.694-1.77h-3.772l-.664 1.77H68.33l3.268-8.114zm2.099 5.24l-.962-2.478c-.271-.71-.506-1.468-.506-1.468h-.03s-.252.79-.506 1.468l-.948 2.478h2.952z" fill="#7E7D7E"/></svg>