<svg xmlns="http://www.w3.org/2000/svg" width="140.477" height="40.082" viewBox="0 0 140.477 40.082"><path d="M64.366 30.915h-.103c-1.092 2.082-2.457 3.644-4.095 4.684s-3.634 1.562-5.988 1.562c-1.979 0-3.686-.377-5.118-1.127-1.434-.75-2.611-1.756-3.532-3.02-.921-1.262-1.604-2.721-2.048-4.377a19.99 19.99 0 0 1-.665-5.194c0-1.945.238-3.763.716-5.451.479-1.688 1.203-3.147 2.176-4.376s2.192-2.201 3.66-2.918c1.467-.717 3.19-1.074 5.17-1.074 1.057 0 2.098.145 3.121.435 1.024.29 1.971.708 2.842 1.254a8.978 8.978 0 0 1 2.277 2.048 8.985 8.985 0 0 1 1.484 2.764h.103V0h1.944v36.545h-1.944v-5.63zm-9.777 4.556c1.672 0 3.113-.34 4.325-1.023a9.239 9.239 0 0 0 3.021-2.713c.801-1.127 1.398-2.414 1.791-3.865.392-1.449.588-2.926.588-4.427 0-1.536-.196-3.028-.588-4.479-.393-1.45-.981-2.747-1.766-3.89a8.7 8.7 0 0 0-3.046-2.738c-1.246-.684-2.705-1.024-4.376-1.024-1.74 0-3.225.333-4.453.998s-2.244 1.562-3.046 2.687c-.802 1.127-1.382 2.424-1.74 3.891a19.157 19.157 0 0 0-.537 4.556c0 1.535.195 3.028.589 4.479.392 1.45.988 2.738 1.791 3.864.801 1.127 1.816 2.021 3.045 2.688s2.695.996 4.402.996zm34.345-4.147h-.103a8.118 8.118 0 0 1-1.33 2.227 9.446 9.446 0 0 1-2.125 1.869 10.52 10.52 0 0 1-2.841 1.279c-1.058.307-2.218.461-3.479.461-2.799 0-4.966-.607-6.501-1.818-1.536-1.211-2.304-3.078-2.304-5.604 0-1.535.307-2.79.922-3.763.614-.972 1.39-1.739 2.328-2.303s1.979-.964 3.123-1.203a31.132 31.132 0 0 1 3.301-.513l3.02-.255c1.399-.103 2.5-.265 3.303-.487.801-.221 1.406-.527 1.816-.92.409-.393.666-.896.768-1.51.103-.615.154-1.383.154-2.305 0-.716-.137-1.381-.41-1.996-.273-.613-.699-1.159-1.279-1.637-.581-.479-1.331-.854-2.252-1.127-.922-.272-2.048-.409-3.379-.409-2.354 0-4.257.581-5.707 1.74-1.451 1.161-2.244 2.917-2.38 5.272h-1.944c.135-2.9 1.065-5.076 2.789-6.526 1.723-1.45 4.172-2.175 7.345-2.175 3.174 0 5.485.623 6.936 1.867 1.45 1.246 2.176 2.875 2.176 4.889v15.304c0 .376.008.751.025 1.126.017.377.077.717.179 1.023.103.309.273.556.512.742.238.188.58.282 1.024.282.341 0 .819-.052 1.433-.153v1.637a6.068 6.068 0 0 1-1.586.205c-.785 0-1.408-.102-1.869-.307-.46-.205-.811-.478-1.049-.818a3.027 3.027 0 0 1-.486-1.203 8.256 8.256 0 0 1-.128-1.51v-1.381zm0-9.724c-.479.58-1.202.973-2.175 1.178s-2.057.357-3.251.46l-3.275.308c-.956.102-1.911.248-2.866.436a8.398 8.398 0 0 0-2.586.945 5.284 5.284 0 0 0-1.867 1.818c-.479.768-.717 1.766-.717 2.994 0 1.944.613 3.387 1.842 4.324 1.229.939 2.918 1.408 5.068 1.408 2.218 0 3.975-.4 5.271-1.203 1.297-.801 2.285-1.723 2.969-2.764.683-1.041 1.117-2.047 1.306-3.02.187-.973.281-1.63.281-1.971V21.6zm8.036 6.193c.068 1.229.341 2.312.818 3.25a7.908 7.908 0 0 0 1.869 2.406 7.86 7.86 0 0 0 2.688 1.51c1.023.342 2.132.512 3.326.512.854 0 1.767-.076 2.738-.23a9.49 9.49 0 0 0 2.713-.845 5.614 5.614 0 0 0 2.073-1.714c.546-.734.819-1.664.819-2.79 0-1.468-.444-2.576-1.331-3.327-.888-.75-2.005-1.33-3.353-1.74s-2.799-.742-4.351-.998a22.684 22.684 0 0 1-4.351-1.151c-1.349-.513-2.466-1.237-3.354-2.176-.887-.938-1.33-2.312-1.33-4.12 0-1.297.289-2.381.87-3.25a6.436 6.436 0 0 1 2.227-2.073c.903-.512 1.919-.878 3.046-1.101a17.416 17.416 0 0 1 3.378-.332c1.364 0 2.644.152 3.839.46 1.193.308 2.227.802 3.097 1.484a7.08 7.08 0 0 1 2.047 2.61c.494 1.059.742 2.338.742 3.839h-1.945c0-1.194-.195-2.218-.588-3.071-.393-.852-.938-1.543-1.638-2.072-.7-.529-1.527-.922-2.482-1.178a11.835 11.835 0 0 0-3.071-.384c-.888 0-1.783.085-2.688.256-.905.171-1.714.46-2.431.87s-1.306.939-1.766 1.587c-.461.648-.691 1.433-.691 2.354 0 1.059.256 1.911.768 2.559.512.648 1.186 1.17 2.021 1.562.836.394 1.773.708 2.815.946 1.04.24 2.09.479 3.147.717 1.297.24 2.517.521 3.66.846 1.143.324 2.132.768 2.968 1.33a6.024 6.024 0 0 1 1.971 2.176c.479.887.717 2.014.717 3.378 0 1.433-.324 2.61-.972 3.532a7.54 7.54 0 0 1-2.457 2.227c-.99.562-2.091.954-3.301 1.177a19.737 19.737 0 0 1-3.559.333c-1.502 0-2.892-.197-4.171-.59-1.28-.391-2.397-.988-3.353-1.791a8.498 8.498 0 0 1-2.252-2.943c-.547-1.159-.837-2.508-.871-4.043h1.949zM121.59 0v15.867h.102a8.427 8.427 0 0 1 1.459-2.637 9.69 9.69 0 0 1 4.939-3.2 11.38 11.38 0 0 1 3.02-.408c1.536 0 2.841.188 3.916.562 1.074.375 1.953.87 2.637 1.484.682.614 1.219 1.305 1.611 2.072s.674 1.545.845 2.33c.17.785.272 1.544.308 2.277.033.734.051 1.374.051 1.92v16.275h-1.945V19.91c0-.647-.051-1.467-.153-2.457a7.481 7.481 0 0 0-.896-2.84c-.496-.904-1.246-1.681-2.253-2.329-1.007-.647-2.397-.973-4.171-.973-1.502 0-2.832.273-3.992.819s-2.15 1.305-2.969 2.277c-.819.973-1.442 2.133-1.869 3.48s-.639 2.824-.639 4.428v14.229h-1.945V0h1.944z" fill="#7C7E7F"/><path d="M24.102 38.284c-.008-.057-.208-3.038-1.587-6.497-1.387-3.462-3.336-5.453-3.391-5.512a1.662 1.662 0 0 0-1.166-.498h-.011c-.419.006-.846.17-1.166.498-.054.059-2.004 2.05-3.391 5.512-1.379 3.459-1.58 6.44-1.586 6.497l-.008.38v.012l.004-.002c.024 1.887 3.056 1.965 3.12-.299l.006-.102.029-.444s.034-.563.191-1.457c.156-.894.433-2.089.9-3.257a13.146 13.146 0 0 1 1.482-2.72c.161-.229.688-.229.849 0a13.245 13.245 0 0 1 1.481 2.72c.468 1.168.746 2.363.901 3.257.157.894.19 1.456.19 1.456l.028.445.005.102c.065 2.264 3.097 2.186 3.122.299l.003.002v-.012l-.005-.38zm10.443-16.749c-.056-.01-2.923-.738-6.604-.48-3.685.263-6.162 1.521-6.233 1.557a1.682 1.682 0 0 0-.828.965c0 .002 0 .004-.002.006l-.003.006.002.002c-.125.402-.102.863.107 1.271.039.072 1.309 2.561 4.138 4.965 2.828 2.395 5.57 3.508 5.623 3.533l.355.123.003.002h.001l.008.003-.003-.005c1.784.561 2.794-2.331.685-3.092l-.094-.037-.409-.164s-.52-.208-1.312-.635c-.793-.426-1.832-1.062-2.785-1.873a13.056 13.056 0 0 1-2.102-2.265c-.166-.224-.003-.731.262-.815a12.795 12.795 0 0 1 3.019-.584c1.242-.088 2.452.014 3.343.141.887.126 1.43.266 1.43.266l.426.109.099.027c2.147.637 3.013-2.302 1.243-2.908l.004-.002-.007-.003h-.003l-.001-.001-.362-.112zM22.015 6.319c-.028.052-1.599 2.583-2.496 6.2-.89 3.625-.471 6.395-.459 6.475.068.455.316.842.651 1.094.001.002.005.002.006.005.001.001.002.003.005.003.339.244.781.365 1.229.289.08-.014 2.814-.467 5.949-2.443 3.127-1.98 5.023-4.271 5.062-4.314l.227-.303.001-.003h.002l.003-.007-.003.002c1.077-1.543-1.332-3.408-2.698-1.614l-.064.079-.281.344s-.355.434-1.002 1.064c-.646.631-1.564 1.431-2.622 2.1a13.115 13.115 0 0 1-2.781 1.32c-.262.087-.688-.226-.687-.506.004-.771.083-1.859.385-3.08.3-1.221.77-2.354 1.163-3.171.395-.813.693-1.29.694-1.292l.235-.375.054-.088c1.265-1.869-1.233-3.605-2.351-2.095v-.005l-.006.006v.003l-.002.003-.214.309zM3.827 13.664c.039.043 1.935 2.336 5.062 4.316 3.136 1.975 5.871 2.428 5.949 2.443.448.074.891-.047 1.23-.289h.001c.002-.001.003-.004.004-.006l.006-.002v-.002a1.67 1.67 0 0 0 .651-1.093c.011-.081.43-2.851-.459-6.475-.897-3.617-2.468-6.147-2.496-6.2l-.215-.311-.001-.002-.004-.006-.001.004c-1.118-1.513-3.616.228-2.352 2.094l.055.088.234.375c0 .002.3.479.693 1.293.393.816.865 1.949 1.165 3.171.3 1.22.381 2.308.383 3.081.002.281-.424.593-.687.504a12.852 12.852 0 0 1-2.779-1.321c-1.057-.665-1.977-1.468-2.624-2.099-.644-.627-1.001-1.064-1.001-1.064l-.281-.345-.065-.078c-1.367-1.792-3.774.07-2.698 1.613l-.002-.002.002.008H3.6l.002.004.225.301zm1.29 19.756c.053-.024 2.795-1.139 5.624-3.533 2.829-2.404 4.098-4.893 4.136-4.965a1.68 1.68 0 0 0 .108-1.271h.002c0-.004-.002-.004-.003-.006-.002-.004 0-.004-.002-.007a1.658 1.658 0 0 0-.828-.965c-.072-.036-2.548-1.294-6.232-1.558-3.683-.257-6.549.471-6.605.482l-.359.11-.002.001H.953l-.008.002.004.003c-1.768.606-.903 3.546 1.244 2.907l.099-.025.426-.109s.544-.143 1.431-.268c.889-.125 2.099-.229 3.342-.141 1.241.088 2.291.348 3.019.584.264.084.425.594.261.817a12.945 12.945 0 0 1-2.103 2.264c-.952.812-1.991 1.446-2.784 1.874-.791.424-1.312.633-1.312.632l-.41.165-.094.038c-2.108.761-1.1 3.651.685 3.093l-.003.005.009-.004.004-.002.354-.123z" fill="#FF8300"/></svg>