<svg xmlns="http://www.w3.org/2000/svg" width="139.8" height="90.899" viewBox="161.3 106.4 139.8 90.899"><path d="M162 172.9h.9v6c0 2.199 1 3.1 2.8 3.1s2.8-.9 2.8-3.1v-6h.9v6.1c0 2-1.101 3.7-3.7 3.7-2.601 0-3.7-1.7-3.7-3.7v-6.1zm9.6 2.7h.9v1.2c.3-.8 1.2-1.399 2.2-1.399 2 0 2.6 1 2.6 2.699v4.5h-.9v-4.3c0-1.2-.4-2.1-1.801-2.1-1.399 0-2.1 1-2.199 2.399v4.101h-.9l.1-7.1zm7.9-2.7h.9v1.399h-.9V172.9zm0 2.7h.9v7h-.9v-7zm2.4 0h.899l2.2 6.101 2.1-6.101h.9l-2.6 7h-.9l-2.599-7zm7.9 3.7c0 1.2.7 2.7 2.3 2.7 1.2 0 1.9-.7 2.2-1.8h.9c-.4 1.6-1.3 2.5-3 2.5-2.2 0-3.101-1.7-3.101-3.7 0-1.8.9-3.7 3.101-3.7s3.1 2 3.1 3.9h-5.5v.1zm4.5-.7c0-1.3-.8-2.5-2.2-2.5-1.399 0-2.1 1.2-2.3 2.5h4.5zm2.7-3h.8v1.601c.4-1.101 1.4-1.8 2.601-1.7v.9c-1.5-.101-2.601 1-2.601 2.5v3.699h-.8v-7zm8.8 2c0-1-.899-1.5-1.8-1.5-.8 0-1.6.301-1.6 1.2 0 .8.899 1 1.399 1.2l1.101.3c1 .2 2 .7 2 1.9 0 1.5-1.5 2.1-2.801 2.1-1.6 0-2.699-.8-2.899-2.5h.899c.101 1.101.9 1.7 2 1.7.801 0 1.9-.3 1.9-1.3 0-.8-.8-1.101-1.5-1.3l-1.1-.301c-1.101-.3-2-.699-2-1.899 0-1.4 1.399-2 2.6-2 1.4 0 2.5.7 2.6 2.2l-.799.2zm3-4.7h.9v1.399h-.9V172.9zm0 2.7h.9v7h-.9v-7zm4.5 0h1.4v.7h-1.4v4.7c0 .6.101.9.7.9h.7v.699h-.8c-1.101 0-1.5-.399-1.5-1.6v-4.8h-1.2v-.7h1.2v-2.1h.899v2.201zm2.5 0h.9l2.3 5.9 2.1-5.9h.9l-3 8c-.5 1.2-.8 1.5-1.8 1.5-.3 0-.5 0-.7-.1v-.7c.2 0 .4.101.6.101.801 0 .9-.4 1.2-1.101l.3-.8-2.8-6.9zm17.5 3.4c0 2-1.2 3.7-3.3 3.7s-3.3-1.7-3.3-3.7 1.2-3.7 3.3-3.7 3.3 1.8 3.3 3.7zm-5.7 0c0 1.5.801 3 2.4 3s2.4-1.5 2.4-3-.801-3-2.4-3c-1.6.1-2.4 1.6-2.4 3zm10.2-2.7h-1.4v6.2h-.9v-6.2h-1.2v-.7h1.2v-.6c0-1.2.3-2 1.7-2 .3 0 .399 0 .7.1v.7c-.2 0-.4-.1-.601-.1-.899 0-.899.6-.899 1.399v.601h1.399v.6h.001zm13.1-.5c-.301-1.5-1.5-2.3-3-2.3-2.601 0-3.601 2.1-3.601 4.2s1.101 4.2 3.601 4.2c1.8 0 2.899-1.4 3.1-3.101h.9c-.301 2.4-1.801 3.9-4 3.9-3 0-4.5-2.4-4.5-5 0-2.601 1.5-5 4.5-5 1.8 0 3.6 1.1 3.899 3.1h-.899zm2.5 1.9c.1-1.601 1.199-2.3 2.8-2.3 1.2 0 2.6.399 2.6 2.199v3.7c0 .3.2.5.5.5.101 0 .2 0 .3-.1v.7c-.199 0-.3.1-.6.1-.8 0-1-.5-1-1.2-.6.9-1.2 1.4-2.5 1.4s-2.3-.601-2.3-2c0-2 1.899-2 3.7-2.2.699-.1 1.1-.2 1.1-.9 0-1.1-.8-1.399-1.8-1.399s-1.8.5-1.9 1.6h-.9v-.1zm4.5 1c-.101.2-.5.3-.801.3-1.399.3-3.199.3-3.199 1.6 0 .9.8 1.4 1.5 1.4 1.3 0 2.399-.8 2.399-2.2l.101-1.1zm3.3-5.8h.8v9.6h-.8v-9.6zm3.3 0h.9v1.399h-.9V172.9zm0 2.7h.9v7h-.9v-7zm5.8.7h-1.4v6.2h-.8v-6.2h-1.2v-.7h1.199v-.6c0-1.2.301-2 1.7-2 .3 0 .4 0 .7.1v.7c-.2 0-.4-.1-.6-.1-.9 0-.9.6-.9 1.399v.601h1.4v.6h-.099zm7.5 2.7c0 2-1.2 3.7-3.3 3.7s-3.3-1.7-3.3-3.7 1.2-3.7 3.3-3.7c2.1.1 3.3 1.8 3.3 3.7zm-5.8 0c0 1.5.8 3 2.4 3 1.6 0 2.399-1.5 2.399-3s-.8-3-2.399-3c-1.6.1-2.4 1.6-2.4 3zm7.1-3.4h.801v1.601c.399-1.101 1.399-1.8 2.6-1.7v.9c-1.5-.101-2.6 1-2.6 2.5v3.699h-.801v-7zm5 0h.801v1.2c.3-.8 1.199-1.399 2.199-1.399 2 0 2.601 1 2.601 2.699v4.5h-.9v-4.3c0-1.2-.399-2.1-1.8-2.1s-2.1 1-2.2 2.399v4.101h-.901l.2-7.1zm7.9-2.7h.9v1.399h-.9V172.9zm0 2.7h.9v7h-.9v-7zm3 2.1c.1-1.601 1.2-2.3 2.8-2.3 1.2 0 2.5.399 2.5 2.199v3.7c0 .3.2.5.5.5.101 0 .2 0 .3-.1v.7c-.199 0-.3.1-.6.1-.9 0-1-.5-1-1.2-.6.9-1.2 1.4-2.5 1.4s-2.3-.601-2.3-2c0-2 1.899-2 3.7-2.2.699-.1 1.1-.2 1.1-.9 0-1.1-.8-1.399-1.8-1.399s-1.8.5-1.9 1.6h-.8v-.1zm4.5 1c-.1.2-.5.3-.8.3-1.5.3-3.2.3-3.2 1.6 0 .9.8 1.4 1.5 1.4 1.3 0 2.4-.8 2.4-2.2l.1-1.1zm-137 15.2c0 2 1.4 2.6 3.1 2.6 1 0 2.601-.6 2.601-2 0-1.1-1.101-1.5-2-1.7l-2.101-.5c-1.1-.3-2.199-.8-2.199-2.3 0-.9.6-2.7 3.3-2.7 1.899 0 3.6 1 3.6 3h-.901c-.101-1.5-1.301-2.2-2.601-2.2s-2.399.5-2.399 1.9c0 .9.699 1.3 1.399 1.5l2.3.6c1.4.4 2.5.9 2.5 2.5 0 .7-.3 2.7-3.699 2.7-2.301 0-3.9-1-3.801-3.399h.901v-.001zm8.2-1.6c.1-1.6 1.2-2.3 2.8-2.3 1.2 0 2.6.4 2.6 2.2v3.7c0 .3.2.5.5.5.101 0 .2 0 .301-.101v.7c-.2 0-.301.1-.601.1-.899 0-1-.5-1-1.199-.6.899-1.2 1.399-2.5 1.399s-2.3-.6-2.3-2c0-2 1.9-2 3.7-2.2.7-.1 1.1-.199 1.1-.899 0-1.101-.8-1.4-1.8-1.4s-1.8.5-1.9 1.601h-.9v-.101zm4.5 1c-.101.2-.5.3-.8.3-1.4.301-3.2.301-3.2 1.601 0 .899.8 1.399 1.5 1.399 1.3 0 2.399-.8 2.399-2.199l.101-1.101zm3.2-3.2h.899v1.2c.3-.8 1.2-1.399 2.2-1.399 2 0 2.6 1 2.6 2.699v4.5h-.8v-4.3c0-1.2-.399-2.1-1.8-2.1s-2.1 1-2.2 2.399v4.101h-.899v-7.1zm12.3-2.6h6.1v.8h-5.2v3.5h4.601v.8H191.6v4.601h-.9V187.5zm7.4 2.6h.801v1.601c.399-1.101 1.399-1.8 2.6-1.7v.8c-1.5-.1-2.6 1-2.6 2.5v3.7H198v-6.9h.1zm4.4 2.2c.1-1.6 1.2-2.3 2.8-2.3 1.2 0 2.601.4 2.601 2.2v3.7c0 .3.199.5.5.5.1 0 .199 0 .3-.101v.7c-.2 0-.3.1-.601.1-.899 0-1-.5-1-1.199-.6.899-1.199 1.399-2.5 1.399-1.3 0-2.3-.6-2.3-2 0-2 1.9-2 3.7-2.2.7-.1 1.1-.199 1.1-.899 0-1.101-.8-1.4-1.8-1.4s-1.8.5-1.899 1.601h-.9v-.101zm4.5 1c-.1.2-.5.3-.8.3-1.4.301-3.2.301-3.2 1.601 0 .899.8 1.399 1.5 1.399 1.3 0 2.4-.8 2.4-2.199l.1-1.101zm3.2-3.2h.899v1.2c.301-.8 1.2-1.399 2.2-1.399 2 0 2.601 1 2.601 2.699v4.5h-.9v-4.3c0-1.2-.4-2.1-1.8-2.1s-2.101 1-2.2 2.399v4.101h-.9v-7.1h.1zm12.6 2.2c-.2-1-.899-1.7-2-1.7-1.6 0-2.399 1.5-2.399 3s.8 3 2.399 3c1 0 1.9-.8 2-2h.9c-.2 1.7-1.3 2.7-2.9 2.7-2.1 0-3.3-1.7-3.3-3.7s1.2-3.699 3.3-3.699c1.5 0 2.601.8 2.8 2.399h-.8zm2.7-4.8h.9v1.4h-.9v-1.4zm0 2.6h.9v7h-.9v-7zm7.1 2.1c0-1-.899-1.5-1.8-1.5-.8 0-1.6.3-1.6 1.2 0 .8.899 1 1.399 1.199l1.101.2c1 .2 2 .7 2 1.9 0 1.5-1.5 2.1-2.8 2.1-1.601 0-2.7-.8-2.9-2.5h.9c.1 1.101.899 1.7 2 1.7.8 0 1.899-.3 1.899-1.3 0-.8-.8-1.101-1.5-1.3l-1.1-.301c-1.101-.3-2-.699-2-1.899 0-1.4 1.399-2 2.6-2 1.4 0 2.5.7 2.601 2.2l-.8.301zm7.7.1c-.2-1-.899-1.7-2-1.7-1.6 0-2.399 1.5-2.399 3s.8 3 2.399 3c1 0 1.9-.8 2-2h.9c-.2 1.7-1.3 2.7-2.9 2.7-2.1 0-3.3-1.7-3.3-3.7s1.2-3.699 3.3-3.699c1.5 0 2.601.8 2.8 2.399h-.8zm8.9 1.3c0 2-1.2 3.7-3.3 3.7-2.101 0-3.301-1.7-3.301-3.7s1.2-3.699 3.301-3.699c2.1-.001 3.3 1.699 3.3 3.699zm-5.8 0c0 1.5.8 3 2.399 3 1.601 0 2.4-1.5 2.4-3s-.8-3-2.4-3c-1.599 0-2.399 1.5-2.399 3zm31.1-63.7v-6.8h-26v25.2c-.1-3-1.2-5.2-3.2-6.8-1.399-1.1-3.5-2-6.399-2.7l-6.5-1.5c-2.5-.6-4.101-1.1-4.9-1.5-.7-.399-1.2-.899-1.5-1.5-.2-.399-.3-.899-.3-1.399 0-1.101.399-2.101 1.2-2.801l.1-.1c.2-.2.4-.3.6-.4 1.2-.8 2.801-1.199 4.9-1.199 1.8 0 3.3.3 4.6.899 1.801.9 2.801 2.5 3 4.7h7.4c-.1-3.9-1.6-6.9-4.3-8.9-2.8-2-6.101-3.1-10-3.1-4.7 0-8.3 1.1-10.7 3.3-1.5 1.3-2.5 2.9-3.1 4.7l-.301 1.2c-.899 4.3-3.6 7.1-8.199 7.1-7.301 0-10-6.2-10-12.399 0-6.5 2.699-12.7 10-12.7 4 0 7.6 2.8 8.1 6.5h7.9c-1-8.5-7.801-13.3-15.9-13.3-10.9 0-17.5 7.8-18.1 18V107.3h-8.2v23c0 5.5-1.9 8-7.7 8-6.6 0-7.6-4-7.6-8v-23H161.3v23c0 10 5.8 14.9 15.8 14.9 9.9 0 15.801-4.9 15.801-14.9v-2.9c.6 10 7.199 17.699 18.1 17.699 4.5 0 8.3-1.399 11.1-4 .2.101.301.301.5.4 1.4 1 4.2 2 8.101 2.8l4 .9c2.3.5 4 1.1 5.1 1.7 1.101.699 1.601 1.6 1.601 2.8 0 2.1-1.101 3.5-3.301 4.3-1.199.4-2.6.6-4.5.6-3.1 0-5.3-.8-6.6-2.3-.7-.8-1.2-2.1-1.4-3.7h-7.3c0 3.801 1.4 6.801 4.2 9 2.8 2.2 6.6 3.301 11.4 3.301 4.699 0 8.399-1.101 11-3.301 2.399-2 3.699-4.6 3.899-7.6v10.3h8.101V145h15.5v-6.3h-15.5v-8.5h17.6v-.3z" fill="#052049"/></svg>