<svg xmlns="http://www.w3.org/2000/svg" width="146.8" height="27.4" viewBox="4.4 2.7 146.8 27.4"><g fill="#00245D"><path d="M22 16.8c0 4.3-.6 7.6-7.2 7.6-6.6 0-7.6-3.199-7.6-7.6V6.3c0-2.4-1-2.6-2.8-2.6V3h8.3v.6c-1.7 0-2.8.2-2.8 2.6v10.5c0 3.2.8 6.4 4.9 6.4 4.6 0 5.3-2.601 5.3-6.4V6.3c0-2.4-1-2.6-2.8-2.6V3h7.3v.6c-1.6.1-2.6.3-2.6 2.7v10.5zm17.5 6.8c-1.6.601-3.3.899-5.7.899-6.3 0-9.4-4.799-9.4-11.6 0-5.9 1.9-10.2 8.7-10.2 2.5 0 4.7.5 6.1.9l.3 5h-.8C38.3 6.8 37 4 33.1 4c-5.1 0-5.5 5.4-5.5 8.7 0 4.1.9 10.4 7.8 10.4 2.1 0 3.3-.5 4.1-.8v1.3zm17-16C56.2 5.9 55 4 51.6 4c-2.1 0-4 1.4-4 3.4 0 2.8 3.8 3.7 6.5 5.3 2.5 1.5 4.2 2.8 4.2 5.799 0 4-3.5 5.9-7.8 5.9-2.2 0-4.7-.5-5.4-.6l-.2-4.5h.8c.3 1.699 1.7 3.6 5.1 3.6 2.8 0 4.6-1.8 4.6-4 0-3.4-5.3-4.5-8.2-6.7-1.4-1.1-2.1-2.2-2.1-4.2 0-3.8 3.1-5.3 7.1-5.3 2.1 0 3.5.3 4.9.5l.2 4.3h-.8V7.6zm14.7 16.5c-.3.101-1 .3-2.1.3-1.6 0-2.1-.8-2.1-2.1-.9 1.3-2.1 2.1-4 2.1s-3.4-1.4-3.4-3.199c0-4.101 5.3-4.101 7.4-4.301v-1.1c0-2 0-4.1-2.4-4.1-1.7 0-2 .7-2 1.6 0 1.2-.8 1.5-1.3 1.5-.8 0-1.4-.5-1.4-1.3 0-1.8 2.7-2.8 4.7-2.8 3.9 0 4.6 1.9 4.6 4.5v7c0 1 .3 1.299 1.2 1.299.3 0 .5-.1.8-.1v.701zM67 17.9c-1.3 0-4.9.301-4.9 2.9 0 1.5 1 2.4 1.9 2.4 1.8 0 3-1.801 3-3.701V17.9zm4.8 5.7c1.2 0 2.1-.3 2.1-2.101v-7.7c0-1.7-1.3-1.8-2.1-1.8v-.5l4.3-.7v3.7h.1c.4-1 1.7-3.7 4.399-3.7 3 0 3.301 1.6 3.301 4.3V21.5c0 1.801 1 2.101 2.1 2.101v.5h-6.5v-.5c1.2 0 2.1-.3 2.1-2.101v-5.8c0-2.4 0-3.5-1.899-3.5-1.7 0-3.7 3.2-3.7 5.9v3.5c0 1.8 1 2.101 2.1 2.101v.5h-6.5V23.6h.199zm17.5-.1c1.7 0 2.8-.199 2.8-2.6V6.3c0-2.4-1-2.6-2.8-2.6V3h7.4c5.3 0 10.8 1.1 10.8 10.6 0 9.399-5.9 10.5-10.8 10.5h-7.4v-.6zm5.6-3.299c0 2.299.3 2.699 1.8 2.699 5.399 0 7.7-2.9 7.7-9.3 0-5.8-1.7-9.3-7.7-9.3-1.601 0-1.8.2-1.8 2.7v13.201zm13.8 3.399c1.2 0 2.1-.3 2.1-2.101v-7.7c0-1.7-1.3-1.8-2.1-1.8v-.5l4.3-.7v10.7c0 1.801 1 2.101 2.1 2.101v.5h-6.5v-.5h.1zm1.5-16.9c0-.9.7-1.6 1.6-1.6.9 0 1.601.7 1.601 1.6 0 .9-.7 1.6-1.601 1.6-.9 0-1.6-.7-1.6-1.6zm15.1 17.2c-.7.301-1.6.5-3.399.5-4.4 0-6.801-2.4-6.801-7.1 0-4.1 1.7-6.4 5.7-6.4 2.5 0 4.8 1.4 4.8 4.7v.6h-8.2c0 2.4 1.199 7.2 5.899 7.2.601 0 1.4-.1 2-.4v.9zm-2.1-8.6c0-1.5-.5-3.4-2.7-3.4-2.1 0-3 2.4-3 3.4h5.7zm11.7 6.6c1.399 0 4.5.1 4.5 3.2 0 3.2-3.2 5-6.9 5-2.8 0-5.6-1-5.6-3.601 0-1.699 1.3-2.5 2.199-3-.5-.299-1.199-.799-1.199-2 0-1 .899-2.1 1.199-2.399-.6-.5-1.6-1.399-1.6-3.8 0-3.6 2.6-4.4 5.3-4.4 1.3 0 2 .2 2.9.7.399-1.1 1.1-3 2.8-3 .8 0 1.4.5 1.4 1.4 0 .8-.5 1.3-1.301 1.3-.699 0-.899-.4-1.3-.4-.6 0-.899.8-1 1.3.3.4 1.3 1.4 1.3 3.4 0 2.8-1.8 4.399-5.199 4.399-1.101 0-1.9-.1-2.601-.399-.2.2-.5.601-.5 1.3 0 1.1 1.4 1.1 2.3 1.1h3.301v-.1zm-4.9 2c-.6.4-1.4.9-1.4 2.2 0 1.7 1.5 3.101 3.9 3.101 2.6 0 4.9-1.301 4.9-3.301 0-1.4-1.2-1.9-2.601-1.9H130v-.1zm2.4-4.9c2.4 0 2.7-1.9 2.7-3.4 0-2.1-.699-3.8-2.8-3.8-2.2 0-2.6 1.6-2.6 3.3 0 2.101.7 3.9 2.7 3.9z"/><path d="M139.4 17.6c0-4.2 2.3-6.8 5.899-6.8 3.601 0 5.9 2.5 5.9 6.8 0 4.2-2.3 6.8-5.9 6.8-3.599 0-5.899-2.5-5.899-6.8zm5.8 5.9c2.8 0 3.399-3.5 3.399-5.799 0-2.301-.6-5.801-3.399-5.801s-3.4 3.5-3.4 5.801c.1 2.299.6 5.799 3.4 5.799z"/></g><path d="M126.3 29H4.5v.701H127c-.3-.201-.5-.5-.7-.701zm24.6 0h-12c-.301.301-.5.5-.801.701H151V29h-.1z" fill="#D59F0F"/></svg>