<?xml version="1.0" encoding="utf-8"?>
<!-- Generator: Adobe Illustrator 16.0.0, SVG Export Plug-In . SVG Version: 6.00 Build 0)  -->
<!DOCTYPE svg PUBLIC "-//W3C//DTD SVG 1.1//EN" "http://www.w3.org/Graphics/SVG/1.1/DTD/svg11.dtd">
<svg version="1.1" id="Layer_1" xmlns="http://www.w3.org/2000/svg" xmlns:xlink="http://www.w3.org/1999/xlink" x="0px" y="0px"
	 width="140.477px" height="40.082px" viewBox="0 0 140.477 40.082" enable-background="new 0 0 140.477 40.082"
	 xml:space="preserve">
<g>
	<path fill="#7C7E7F" d="M64.366,30.915h-0.103c-1.092,2.082-2.457,3.644-4.095,4.684s-3.634,1.562-5.988,1.562
		c-1.979,0-3.686-0.377-5.118-1.127c-1.434-0.75-2.611-1.756-3.532-3.02c-0.921-1.262-1.604-2.721-2.048-4.377
		c-0.443-1.654-0.665-3.385-0.665-5.194c0-1.945,0.238-3.763,0.716-5.451c0.479-1.688,1.203-3.147,2.176-4.376
		s2.192-2.201,3.66-2.918c1.467-0.717,3.19-1.074,5.17-1.074c1.057,0,2.098,0.145,3.121,0.435c1.024,0.29,1.971,0.708,2.842,1.254
		c0.869,0.546,1.629,1.229,2.277,2.048c0.648,0.818,1.143,1.74,1.484,2.764h0.103V0h1.944v36.545h-1.944V30.915z M54.589,35.471
		c1.672,0,3.113-0.34,4.325-1.023c1.211-0.683,2.218-1.587,3.021-2.713c0.801-1.127,1.398-2.414,1.791-3.865
		c0.392-1.449,0.588-2.926,0.588-4.427c0-1.536-0.196-3.028-0.588-4.479c-0.393-1.45-0.981-2.747-1.766-3.89
		c-0.785-1.144-1.801-2.057-3.046-2.738c-1.246-0.684-2.705-1.024-4.376-1.024c-1.74,0-3.225,0.333-4.453,0.998
		s-2.244,1.562-3.046,2.687c-0.802,1.127-1.382,2.424-1.74,3.891c-0.358,1.468-0.537,2.986-0.537,4.556
		c0,1.535,0.195,3.028,0.589,4.479c0.392,1.45,0.988,2.738,1.791,3.864c0.801,1.127,1.816,2.021,3.045,2.688
		S52.882,35.471,54.589,35.471z"/>
	<path fill="#7C7E7F" d="M88.934,31.324h-0.103c-0.307,0.785-0.75,1.527-1.33,2.227c-0.581,0.701-1.289,1.322-2.125,1.869
		c-0.836,0.546-1.783,0.972-2.841,1.279c-1.058,0.307-2.218,0.461-3.479,0.461c-2.799,0-4.966-0.607-6.501-1.818
		c-1.536-1.211-2.304-3.078-2.304-5.604c0-1.535,0.307-2.79,0.922-3.763c0.614-0.972,1.39-1.739,2.328-2.303
		s1.979-0.964,3.123-1.203c1.143-0.238,2.242-0.409,3.301-0.513l3.02-0.255c1.399-0.103,2.5-0.265,3.303-0.487
		c0.801-0.221,1.406-0.527,1.816-0.92c0.409-0.393,0.666-0.896,0.768-1.51c0.103-0.615,0.154-1.383,0.154-2.305
		c0-0.716-0.137-1.381-0.41-1.996c-0.273-0.613-0.699-1.159-1.279-1.637c-0.581-0.479-1.331-0.854-2.252-1.127
		c-0.922-0.272-2.048-0.409-3.379-0.409c-2.354,0-4.257,0.581-5.707,1.74c-1.451,1.161-2.244,2.917-2.38,5.272h-1.944
		c0.135-2.9,1.065-5.076,2.789-6.526c1.723-1.45,4.172-2.175,7.345-2.175c3.174,0,5.485,0.623,6.936,1.867
		c1.45,1.246,2.176,2.875,2.176,4.889v15.304c0,0.376,0.008,0.751,0.025,1.126c0.017,0.377,0.077,0.717,0.179,1.023
		c0.103,0.309,0.273,0.556,0.512,0.742c0.238,0.188,0.58,0.282,1.024,0.282c0.341,0,0.819-0.052,1.433-0.153v1.637
		c-0.512,0.138-1.041,0.205-1.586,0.205c-0.785,0-1.408-0.102-1.869-0.307c-0.46-0.205-0.811-0.478-1.049-0.818
		c-0.239-0.342-0.401-0.742-0.486-1.203c-0.086-0.461-0.128-0.965-0.128-1.51V31.324z M88.934,21.6
		c-0.479,0.58-1.202,0.973-2.175,1.178s-2.057,0.357-3.251,0.46l-3.275,0.308c-0.956,0.102-1.911,0.248-2.866,0.436
		c-0.956,0.188-1.817,0.503-2.586,0.945c-0.768,0.445-1.391,1.05-1.867,1.818c-0.479,0.768-0.717,1.766-0.717,2.994
		c0,1.944,0.613,3.387,1.842,4.324c1.229,0.939,2.918,1.408,5.068,1.408c2.218,0,3.975-0.4,5.271-1.203
		c1.297-0.801,2.285-1.723,2.969-2.764c0.683-1.041,1.117-2.047,1.306-3.02c0.187-0.973,0.281-1.63,0.281-1.971V21.6z"/>
	<path fill="#7C7E7F" d="M96.97,27.793c0.068,1.229,0.341,2.312,0.818,3.25c0.479,0.939,1.102,1.74,1.869,2.406
		c0.768,0.664,1.664,1.169,2.688,1.51c1.023,0.342,2.132,0.512,3.326,0.512c0.854,0,1.767-0.076,2.738-0.23
		c0.973-0.153,1.877-0.436,2.713-0.845c0.837-0.409,1.527-0.98,2.073-1.714c0.546-0.734,0.819-1.664,0.819-2.79
		c0-1.468-0.444-2.576-1.331-3.327c-0.888-0.75-2.005-1.33-3.353-1.74s-2.799-0.742-4.351-0.998
		c-1.554-0.256-3.003-0.641-4.351-1.151c-1.349-0.513-2.466-1.237-3.354-2.176c-0.887-0.938-1.33-2.312-1.33-4.12
		c0-1.297,0.289-2.381,0.87-3.25c0.579-0.871,1.321-1.562,2.227-2.073c0.903-0.512,1.919-0.878,3.046-1.101
		c1.125-0.222,2.252-0.332,3.378-0.332c1.364,0,2.644,0.152,3.839,0.46c1.193,0.308,2.227,0.802,3.097,1.484
		c0.869,0.683,1.553,1.554,2.047,2.61c0.494,1.059,0.742,2.338,0.742,3.839h-1.945c0-1.194-0.195-2.218-0.588-3.071
		c-0.393-0.852-0.938-1.543-1.638-2.072c-0.7-0.529-1.527-0.922-2.482-1.178c-0.956-0.256-1.98-0.384-3.071-0.384
		c-0.888,0-1.783,0.085-2.688,0.256c-0.905,0.171-1.714,0.46-2.431,0.87s-1.306,0.939-1.766,1.587
		c-0.461,0.648-0.691,1.433-0.691,2.354c0,1.059,0.256,1.911,0.768,2.559c0.512,0.648,1.186,1.17,2.021,1.562
		c0.836,0.394,1.773,0.708,2.815,0.946c1.04,0.24,2.09,0.479,3.147,0.717c1.297,0.24,2.517,0.521,3.66,0.846
		c1.143,0.324,2.132,0.768,2.968,1.33c0.837,0.562,1.493,1.289,1.971,2.176c0.479,0.887,0.717,2.014,0.717,3.378
		c0,1.433-0.324,2.61-0.972,3.532c-0.649,0.92-1.468,1.663-2.457,2.227c-0.99,0.562-2.091,0.954-3.301,1.177
		c-1.213,0.222-2.398,0.333-3.559,0.333c-1.502,0-2.892-0.197-4.171-0.59c-1.28-0.391-2.397-0.988-3.353-1.791
		c-0.956-0.801-1.707-1.782-2.252-2.943c-0.547-1.159-0.837-2.508-0.871-4.043H96.97z"/>
	<path fill="#7C7E7F" d="M121.59,0v15.867h0.102c0.341-0.99,0.827-1.869,1.459-2.637c0.631-0.768,1.364-1.424,2.201-1.971
		c0.836-0.545,1.748-0.955,2.738-1.229c0.989-0.271,1.996-0.408,3.02-0.408c1.536,0,2.841,0.188,3.916,0.562
		c1.074,0.375,1.953,0.87,2.637,1.484c0.682,0.614,1.219,1.305,1.611,2.072s0.674,1.545,0.845,2.33
		c0.17,0.785,0.272,1.544,0.308,2.277c0.033,0.734,0.051,1.374,0.051,1.92v16.275h-1.945V19.91c0-0.647-0.051-1.467-0.153-2.457
		c-0.103-0.988-0.401-1.936-0.896-2.84c-0.496-0.904-1.246-1.681-2.253-2.329c-1.007-0.647-2.397-0.973-4.171-0.973
		c-1.502,0-2.832,0.273-3.992,0.819s-2.15,1.305-2.969,2.277c-0.819,0.973-1.442,2.133-1.869,3.48s-0.639,2.824-0.639,4.428v14.229
		h-1.945V0H121.59z"/>
</g>
<g>
	<path fill="#FF8300" d="M24.102,38.284c-0.008-0.057-0.208-3.038-1.587-6.497c-1.387-3.462-3.336-5.453-3.391-5.512
		c-0.32-0.328-0.747-0.492-1.166-0.498l0,0h-0.005h-0.006l0,0c-0.419,0.006-0.846,0.17-1.166,0.498
		c-0.054,0.059-2.004,2.05-3.391,5.512c-1.379,3.459-1.58,6.44-1.586,6.497l-0.008,0.38v0.004l0,0v0.008l0.004-0.002
		c0.024,1.887,3.056,1.965,3.12-0.299l0.006-0.102l0.029-0.444c0,0,0.034-0.563,0.191-1.457c0.156-0.894,0.433-2.089,0.9-3.257
		c0.467-1.166,1.035-2.094,1.482-2.72c0.161-0.229,0.688-0.229,0.849,0c0.446,0.626,1.013,1.554,1.481,2.72
		c0.468,1.168,0.746,2.363,0.901,3.257c0.157,0.894,0.19,1.456,0.19,1.456l0.028,0.445l0.005,0.102
		c0.065,2.264,3.097,2.186,3.122,0.299l0.003,0.002v-0.008l0,0v-0.004L24.102,38.284z"/>
	<path fill="#FF8300" d="M34.545,21.535c-0.056-0.01-2.923-0.738-6.604-0.48c-3.685,0.263-6.162,1.521-6.233,1.557
		c-0.406,0.207-0.694,0.564-0.828,0.965l0,0c0,0.002,0,0.004-0.002,0.006c0,0.002-0.002,0.005-0.003,0.006l0.002,0.002
		c-0.125,0.402-0.102,0.863,0.107,1.271c0.039,0.072,1.309,2.561,4.138,4.965c2.828,2.395,5.57,3.508,5.623,3.533l0.355,0.123
		l0.003,0.002h0.001l0.008,0.003l-0.003-0.005c1.784,0.561,2.794-2.331,0.685-3.092L31.7,30.354l-0.409-0.164
		c0,0-0.52-0.208-1.312-0.635c-0.793-0.426-1.832-1.062-2.785-1.873c-0.954-0.809-1.649-1.641-2.102-2.265
		c-0.166-0.224-0.003-0.731,0.262-0.815c0.728-0.238,1.777-0.495,3.019-0.584c1.242-0.088,2.452,0.014,3.343,0.141
		c0.887,0.126,1.43,0.266,1.43,0.266l0.426,0.109l0.099,0.027c2.147,0.637,3.013-2.302,1.243-2.908l0.004-0.002l-0.007-0.003h-0.003
		l-0.001-0.001L34.545,21.535z"/>
	<path fill="#FF8300" d="M22.015,6.319c-0.028,0.052-1.599,2.583-2.496,6.2c-0.89,3.625-0.471,6.395-0.459,6.475
		c0.068,0.455,0.316,0.842,0.651,1.094l0,0c0.001,0.002,0.005,0.002,0.006,0.005c0.001,0.001,0.002,0.003,0.005,0.003h0
		c0.339,0.244,0.781,0.365,1.229,0.289c0.08-0.014,2.814-0.467,5.949-2.443c3.127-1.98,5.023-4.271,5.062-4.314l0.227-0.303
		l0.001-0.003h0.002l0.003-0.007l-0.003,0.002c1.077-1.543-1.332-3.408-2.698-1.614l-0.064,0.079l-0.281,0.344
		c0,0-0.355,0.434-1.002,1.064c-0.646,0.631-1.564,1.431-2.622,2.1c-1.057,0.664-2.055,1.077-2.781,1.32
		c-0.262,0.087-0.688-0.226-0.687-0.506c0.004-0.771,0.083-1.859,0.385-3.08c0.3-1.221,0.77-2.354,1.163-3.171
		c0.395-0.813,0.693-1.29,0.694-1.292l0.235-0.375l0.054-0.088c1.265-1.869-1.233-3.605-2.351-2.095V5.998l-0.006,0.006
		c0,0.002,0,0.003,0,0.003L22.229,6.01L22.015,6.319z"/>
	<path fill="#FF8300" d="M3.827,13.664C3.866,13.707,5.762,16,8.889,17.98c3.136,1.975,5.871,2.428,5.949,2.443
		c0.448,0.074,0.891-0.047,1.23-0.289h0.001c0.002-0.001,0.003-0.004,0.004-0.006c0.002-0.001,0.004-0.001,0.006-0.002v-0.002
		c0.335-0.25,0.584-0.637,0.651-1.093c0.011-0.081,0.43-2.851-0.459-6.475c-0.897-3.617-2.468-6.147-2.496-6.2l-0.215-0.311
		L13.56,6.045l-0.001-0.002l-0.004-0.006l-0.001,0.004c-1.118-1.513-3.616,0.228-2.352,2.094l0.055,0.088l0.234,0.375
		c0,0.002,0.3,0.479,0.693,1.293c0.393,0.816,0.865,1.949,1.165,3.171c0.3,1.22,0.381,2.308,0.383,3.081
		c0.002,0.281-0.424,0.593-0.687,0.504c-0.725-0.242-1.724-0.653-2.779-1.321c-1.057-0.665-1.977-1.468-2.624-2.099
		c-0.644-0.627-1.001-1.064-1.001-1.064L6.36,11.818L6.295,11.74c-1.367-1.792-3.774,0.07-2.698,1.613l-0.002-0.002l0.002,0.008H3.6
		l0.002,0.004L3.827,13.664z"/>
	<path fill="#FF8300" d="M5.117,33.42c0.053-0.024,2.795-1.139,5.624-3.533c2.829-2.404,4.098-4.893,4.136-4.965
		c0.212-0.408,0.233-0.869,0.108-1.271h0.002c0-0.004-0.002-0.004-0.003-0.006c-0.002-0.004,0-0.004-0.002-0.007h0
		c-0.132-0.401-0.419-0.76-0.828-0.965c-0.072-0.036-2.548-1.294-6.232-1.558c-3.683-0.257-6.549,0.471-6.605,0.482l-0.359,0.11
		l-0.002,0.001H0.953l-0.008,0.002l0.004,0.003c-1.768,0.606-0.903,3.546,1.244,2.907l0.099-0.025l0.426-0.109
		c0,0,0.544-0.143,1.431-0.268c0.889-0.125,2.099-0.229,3.342-0.141c1.241,0.088,2.291,0.348,3.019,0.584
		c0.264,0.084,0.425,0.594,0.261,0.817c-0.451,0.622-1.147,1.456-2.103,2.264c-0.952,0.812-1.991,1.446-2.784,1.874
		c-0.791,0.424-1.312,0.633-1.312,0.632l-0.41,0.165l-0.094,0.038c-2.108,0.761-1.1,3.651,0.685,3.093L4.75,33.549l0.009-0.004l0,0
		l0.004-0.002L5.117,33.42z"/>
</g>
</svg>
