<?xml version="1.0" encoding="UTF-8" standalone="no"?>
<!-- Created with Inkscape (http://www.inkscape.org/) -->
<svg id="svg2" xmlns:rdf="http://www.w3.org/1999/02/22-rdf-syntax-ns#" xmlns="http://www.w3.org/2000/svg" height="86.078mm" width="110.07mm" version="1.1" xmlns:cc="http://creativecommons.org/ns#" xmlns:dc="http://purl.org/dc/elements/1.1/" viewBox="0 0 389.99997 304.99999">
 <metadata id="metadata7">
  <rdf:RDF>
   <cc:Work rdf:about="">
    <dc:format>image/svg+xml</dc:format>
    <dc:type rdf:resource="http://purl.org/dc/dcmitype/StillImage"/>
    <dc:title/>
   </cc:Work>
  </rdf:RDF>
 </metadata>
 <g id="layer1" transform="translate(-133.57 -171.29)">
  <path id="path3432" d="m133.57 323.79v-152.5h195 195v152.5 152.5h-195-195v-152.5z" fill="#fdfdfd"/>
  <path id="path3430" d="m179.83 467.63c-5.0859-1.8005-12.056-8.3267-14.782-13.841-1.8637-3.7699-1.9936-6.4969-2.2583-47.399-0.30989-47.883-0.1894-49.042 5.8623-56.384 1.6862-2.0456 5.1701-4.9564 7.7422-6.4683l4.6764-2.749 30.904-0.30418 30.904-0.30417-15.032-15.196c-8.2674-8.3577-15.87-16.771-16.896-18.696-2.8137-5.283-2.6224-19.062 0.34202-24.634 3.0447-5.7236 7.8296-10.248 13.756-13.008 4.7632-2.2181 6.1086-2.3386 26.213-2.3479l21.192-0.01 0.30837-35.25c0.29139-33.309 0.42355-35.498 2.4002-39.75 2.8652-6.1637 6.7553-10.532 12.264-13.77l4.6446-2.7304 34.977-0.29921c30.901-0.26434 35.493-0.10221 39.404 1.3914 5.856 2.2364 11.656 7.6087 14.947 13.844l2.6723 5.0635 0.3077 35.75 0.30771 35.75h21.283 21.283l6.0641 3.0303c9.7805 4.8874 15.203 13.781 15.224 24.97 0.0193 10.275-2.4285 14.191-19.378 31l-14.621 14.5 30.765 0.5 30.765 0.5 4.6764 2.749c2.572 1.512 6.047 4.4118 7.7221 6.444 5.964 7.2354 6.1015 8.4703 6.1015 54.807 0 48.442 0.006 48.399-8.0476 56.452-8.7199 8.7199 4.437 8.0579-158.38 7.9687-125.43-0.0687-144.62-0.27318-148.31-1.5803zm286.74-62.841v-36.5h-40.201-40.201l-21.549 21.394c-19.931 19.788-21.956 21.514-26.98 23-2.9873 0.88338-7.0682 1.6061-9.0685 1.6061-2.0004 0-6.0812-0.72276-9.0685-1.6061-5.0239-1.4856-7.0487-3.2117-26.98-23l-21.549-21.394h-40.201-40.201v36.5 36.5h138 138v-36.5zm-42.784 12.512c-3.2703-1.4843-4.7438-2.9578-6.228-6.228-1.0694-2.3561-1.9443-5.1838-1.9443-6.2838s0.87492-3.9277 1.9443-6.2838c1.4843-3.2703 2.9578-4.7438 6.228-6.228 5.446-2.4718 7.1741-2.4618 12.408 0.0719 5.3548 2.5922 8.9408 9.1145 7.9412 14.443-0.81159 4.3262-4.9848 9.3561-9.2365 11.133-4.2975 1.7956-5.9907 1.7005-11.113-0.62416zm-49.216-77.512 45.492-45.5h-32.246-32.246v-46-46h-27-27v46 46h-32.246-32.246l45.492 45.5c25.02 25.025 45.72 45.5 46 45.5 0.27953 0 20.98-20.475 46-45.5z" fill="#b1bcc3"/>
  <path id="path3428" d="m182.56 468.36c-6.9005-2.1177-13.951-8.1445-17.633-15.072-1.7342-3.2629-1.8602-6.5484-1.8602-48.5 0-44.521 0.0236-45.044 2.2114-49.134 3.0663-5.7329 7.8493-10.252 13.768-13.008 4.9036-2.2834 5.7096-2.3383 34.478-2.3479l29.457-0.01-14.587-14.75c-15.543-15.717-18.667-20.306-19.533-28.703-0.87506-8.4785 1.8102-15.781 8.1255-22.096 7.6609-7.6609 11.052-8.4513 36.263-8.4513h20.318l0.0439-35.25c0.033-26.466 0.37093-36.166 1.3562-38.925 2.1798-6.1035 7.1878-11.463 13.796-14.766l6.123-3.0597h33.215c36.917 0 38.346 0.20233 46.061 6.5243 2.5187 2.0639 5.4242 5.8508 7.0869 9.2368l2.8181 5.7388 0.31858 35.25 0.31858 35.25h20.394c18.131 0 21.004 0.22817 25.889 2.056 10.04 3.7563 17.58 14.884 17.58 25.944 0 9.9223-2.0474 13.209-18.843 30.25l-15.524 15.75 29.433 0.01c28.744 0.01 29.551 0.0646 34.454 2.3479 5.9184 2.756 10.701 7.275 13.768 13.008 2.1878 4.0904 2.2114 4.6138 2.2114 49.134 0 41.952-0.12602 45.237-1.8602 48.5-2.5915 4.8759-8.3966 10.767-13.14 13.335l-4 2.1653-145 0.17083c-79.75 0.0939-146.13-0.17532-147.51-0.59839zm284.01-63.572v-36.5h-40.219-40.219l-20.531 20.446c-23.476 23.379-25.973 25.04-37.531 24.966-10.596-0.068-13.192-1.8468-36.531-25.023l-20.531-20.388h-40.219-40.219v36.5 36.5h138 138v-36.5zm-45.451 10.409c-6.3877-5.6085-6.6809-14.534-0.66671-20.296 5.7313-5.491 14.41-5.1439 19.852 0.79387 2.8795 3.1421 3.2659 4.2301 3.2659 9.1961 0 5.2093-0.29161 5.924-3.8824 9.5147-3.5826 3.5826-4.3134 3.8824-9.4652 3.8824-4.8139 0-6.0678-0.4258-9.1037-3.0914zm-46.563-75.394 45.477-45.486-31.982-0.26436-31.982-0.26436-0.26009-45.75-0.26009-45.75h-26.98-26.98l-0.26009 45.75-0.26009 45.75-31.982 0.26436-31.982 0.26436 45.477 45.486c25.013 25.017 45.706 45.486 45.986 45.486 0.27953 0 20.973-20.469 45.986-45.486z" fill="#a6b3bc"/>
  <path id="path3426" d="m182.56 468.36c-6.8786-2.0924-13.949-8.133-17.633-15.066-1.7342-3.2629-1.8602-6.5484-1.8602-48.5 0-44.247 0.0363-45.067 2.1653-49 2.5676-4.7433 8.4588-10.548 13.335-13.14 3.15-1.6741 6.5406-1.8907 33.902-2.1651l30.402-0.30491-14.533-14.695c-17.239-17.431-19.226-20.656-19.223-31.195 0.002-9.0822 2.9932-15.74 9.618-21.41 6.6811-5.7188 11.243-6.5896 34.515-6.5896h20.318l0.0761-35.25c0.0525-24.331 0.43971-36.236 1.25-38.434 2.1999-5.9668 7.1661-11.745 12.735-14.816l5.4393-3h35.5 35.5l5.3236 2.949c5.8855 3.2602 10.769 8.755 12.776 14.376 0.9853 2.7589 1.3233 12.459 1.3562 38.925l0.0439 35.25h20.318c25.211 0 28.602 0.79041 36.263 8.4513 6.3152 6.3153 9.0006 13.618 8.1255 22.096-0.866 8.3907-3.9917 12.988-19.479 28.648l-14.533 14.695 30.402 0.30491c34.204 0.34303 34.357 0.37385 42.042 8.4702 7.6377 8.0467 7.3264 5.8619 7.651 53.704 0.25815 38.054 0.10127 43.44-1.3967 47.95-2.337 7.0362-9.095 14.052-16.039 16.65-5.3699 2.0092-7.0251 2.0308-148.64 1.9458-78.767-0.0473-144.34-0.42905-145.72-0.84839zm284.01-63.566v-36.5h-40.199-40.199l-20.63 20.481c-23.201 23.034-25.893 24.848-36.972 24.919-11.003 0.0703-13.786-1.8054-37.031-24.954l-20.531-20.446h-40.219-40.219v36.5 36.5h138 138v-36.5zm-42.582 12.531c-1.1449-0.46315-3.2824-2.2692-4.75-4.0133-2.1886-2.601-2.6684-4.1676-2.6684-8.7122 0-5.1031 0.30677-5.8477 3.8824-9.4233 3.4536-3.4536 4.4199-3.8807 8.75-3.8676 6.0346 0.0183 9.1498 1.5382 12.088 5.8977 4.3502 6.4552 2.0725 16.075-4.6261 19.539-3.2208 1.6655-9.3037 1.9437-12.675 0.5797zm-49.405-77.531 45.035-45-31.525-0.26405-31.524-0.26404v-45.986-45.986h-28-28v46 46h-31.746-31.746l45.493 45.501c25.021 25.026 45.827 45.388 46.235 45.25 0.40834-0.13807 21.008-20.501 45.778-45.251z" fill="#899ca7"/>
  <path id="path3424" d="m181.19 467.65c-3.4261-1.052-6.4623-3.0774-10.167-6.7825-8.3838-8.3838-8.4479-8.8091-8.4479-56.078 0-47.172 0.0804-47.711 8.3411-55.972 8.1911-8.1911 9.9113-8.5284 43.493-8.5284h28.478l-14.712-14.999c-9.6834-9.8726-15.378-16.507-16.662-19.409-6.0504-13.678-1.0515-28.592 12.063-35.989l5.5-3.1023 22.25-0.33317 22.25-0.33317 0.01-35.167c0.01-34.763 0.0367-35.224 2.3485-40.167 3.1708-6.7789 10.1-12.965 16.728-14.933 7.4771-2.2205 64.083-2.2997 71.49-0.10009 7.546 2.2409 12.846 6.6893 16.369 13.739l3.0548 6.1137v35.257 35.257l22.25 0.34039c21.072 0.32236 22.488 0.46489 26.75 2.6932 10.441 5.4589 15.353 13.465 15.422 25.133 0.0615 10.468-1.8988 13.651-19.244 31.25l-14.537 14.75h28.501c33.608 0 35.324 0.3364 43.517 8.5284 8.2608 8.2608 8.3411 8.8 8.3411 55.972 0 47.257-0.0661 47.697-8.4348 56.065-9.1271 9.1271 3.7666 8.4444-158 8.3651-123.3-0.0605-142.71-0.26775-146.95-1.5696zm285.38-62.861v-36.5h-40.181-40.181l-20.569 20.306c-23.326 23.027-26.203 24.959-37.2 24.977-10.789 0.0179-13.614-1.8907-36.92-24.95l-20.551-20.333h-40.199-40.199v36.5 36.5h138 138v-36.5zm-43.701 11.54c-11.482-7.0008-6.2936-25.04 7.2014-25.04 7.605 0 13.493 5.8908 13.493 13.5 0 10.578-11.633 17.065-20.694 11.54zm-47.799-76.04 45.992-46h-32.246-32.246v-46-46h-28-28v46 46h-32.246-32.246l45.992 46c25.296 25.3 46.221 46 46.5 46 0.27948 0 21.204-20.7 46.5-46z" fill="#708a96"/>
  <path id="path3422" d="m184.07 468.36c-8.1447-2.0144-14.479-7.1353-18.64-15.07l-2.36-4.5v-44-44l2.6858-5.09c3.007-5.6988 8.0439-10.561 13.601-13.131 3.1904-1.475 7.9858-1.7655 34.082-2.0647l30.369-0.34818-15.973-16.183c-17.508-17.739-18.731-19.72-18.628-30.183 0.10491-10.664 5.6604-19.535 15.154-24.197 5.6357-2.7675 5.9832-2.8074 27.458-3.1509l21.75-0.34793v-34.365c0-32.124 0.13282-34.72 2.0369-39.809 1.3545-3.6203 3.5524-6.8411 6.5604-9.6138 8.2688-7.622 7.6213-7.5171 46.403-7.5171 38.494 0 38.043-0.0695 45.962 7.0846 2.3006 2.0784 5.1628 5.6096 6.3604 7.8472 2.1039 3.9306 2.1876 5.2914 2.4738 40.221l0.29617 36.153 21.704 0.34726c21.421 0.34272 21.778 0.38375 27.408 3.1483 9.6621 4.7448 15.103 13.421 15.176 24.199 0.0717 10.552-1.1016 12.451-18.652 30.183l-16.017 16.183 30.394 0.34835c26.119 0.29936 30.916 0.58976 34.107 2.0648 5.5576 2.5694 10.594 7.4319 13.601 13.131l2.6858 5.09v44 44l-2.6568 5c-3.1444 5.9177-6.7024 9.4194-12.843 12.64l-4.5 2.36-143.5 0.15604c-78.925 0.0858-144.85-0.17786-146.5-0.58595zm283-63.57v-37l-40.48-0.26154-40.48-0.26155-21.02 20.969c-23.486 23.429-25.795 25.01-36.52 25.01-10.693 0-13.029-1.5987-36.565-25.018l-21.065-20.961-40.435 0.26151-40.435 0.2615-0.2629 35.995c-0.14459 19.797-0.0456 36.561 0.21997 37.254 0.38542 1.0044 28.387 1.2072 138.76 1.0048l138.28-0.25352v-37zm-44.201 11.54c-8.5783-5.2305-8.2242-18.925 0.60757-23.492 12.039-6.2256 24.656 6.4763 18.267 18.39-3.509 6.5428-12.517 8.9781-18.874 5.1021zm-47.799-76.04 45.992-46h-32.236-32.236l-0.25998-46.25-0.25999-46.25h-27.5-27.5l-0.25999 46.25-0.25998 46.25h-32.236-32.236l45.992 46c25.296 25.3 46.221 46 46.5 46 0.27948 0 21.204-20.7 46.5-46z" fill="#517784"/>
  <path id="path3420" d="m183.37 467.9c-10.236-2.7742-17.637-10.675-19.811-21.149-0.72307-3.483-0.99462-18.922-0.79498-45.199l0.30322-39.909 3.0104-5.8836c1.8663-3.6475 4.6385-7.1254 7.2941-9.1509 7.5511-5.7594 11.322-6.3186 42.615-6.3186h28.056l-15.194-15.25c-10.285-10.322-15.847-16.704-17.216-19.75-2.3307-5.1875-2.7043-14.097-0.85483-20.384 1.6321-5.5476 11.032-15.035 16.364-16.515 2.2626-0.62819 12.927-1.0922 25.175-1.0954l21.25-0.006v-34.318c0-38.539 0.36766-41.246 6.5896-48.515 1.9991-2.3355 5.9467-5.4658 8.7725-6.9563l5.1378-2.71h34.5c34.19 0 34.542 0.0211 39.221 2.3463 2.5964 1.2905 6.3526 4.1527 8.3472 6.3604 6.9211 7.6609 6.8779 7.3856 7.4322 47.293l0.5 36 23 0.5c25.465 0.55358 26.144 0.71039 33.071 7.638 5.147 5.147 7.6554 11.5 7.6452 19.362-0.0132 10.101-1.6736 12.741-19.026 30.25l-15.609 15.75h28.028c31.261 0 35.036 0.56009 42.586 6.3186 2.6575 2.0269 5.4266 5.502 7.2941 9.1537l3.0104 5.8863v43.071c0 41.6-0.0714 43.224-2.0918 47.571-3.1177 6.7069-6.8492 10.578-13.204 13.699l-5.7041 2.8011-142.5 0.19105c-112.73 0.15113-143.48-0.0749-147.2-1.0819zm283.96-63.359 0.26217-37.25h-40.732-40.732l-21.03 20.941c-23.491 23.392-25.85 25.007-36.53 25.028-10.819 0.0203-13.733-1.9778-36.991-25.364l-20.491-20.604h-40.759-40.759v36.833c0 20.258 0.30158 37.135 0.67017 37.504 0.3686 0.3686 62.806 0.5561 138.75 0.41667l138.08-0.25351 0.26217-37.25zm-43.685 11.983c-3.9528-2.1804-7.0773-7.3604-7.0773-11.733 0-6.8919 6.6081-13.5 13.5-13.5 4.373 0 9.5531 3.1244 11.733 7.0773 6.2576 11.345-6.8116 24.414-18.156 18.156zm-48.831-75.979c25.165-25.16 45.754-46.085 45.754-46.5 0-0.41475-14.4-0.75408-32-0.75408h-32v-46-46h-28-28v46 46h-32c-17.6 0-32 0.33569-32 0.74597 0 0.81552 91.179 92.254 91.992 92.254 0.27503 0 21.089-20.586 46.254-45.746z" fill="#45707c"/>
  <path id="path3418" d="m184.9 468.26c-8.5025-1.7017-15.907-7.668-19.704-15.876-2.0596-4.4528-2.1227-5.8687-2.1227-47.589 0-41.721 0.0632-43.137 2.1227-47.589 2.7088-5.8566 8.4313-11.579 14.288-14.288 4.297-1.9875 6.494-2.143 34.48-2.4406l29.891-0.31784-15.085-15.199c-17.106-17.235-19.145-20.498-19.165-30.665-0.0156-8.3423 3.0343-15.128 9.2649-20.612 6.6402-5.845 9.4896-6.3879 33.523-6.3879h21.087l0.29657-36.25c0.2876-35.155 0.36306-36.374 2.4988-40.366 3.5494-6.6346 7.0152-10.097 13.094-13.082l5.7041-2.8011h33.5 33.5l5.7242 2.811c3.1483 1.546 7.321 4.6764 9.2725 6.9563 6.1267 7.1577 6.5032 9.9605 6.5032 48.414v34.318h21.134c24.084 0 26.927 0.54109 33.569 6.3879 6.2306 5.4844 9.2806 12.27 9.2649 20.612-0.0192 10.247-2.0358 13.473-19.182 30.682l-15.126 15.182 29.92 0.31805 29.92 0.31804 5.7041 2.8011c6.3548 3.1206 10.086 6.992 13.204 13.699 2.0202 4.346 2.0918 5.9716 2.0918 47.5 0 41.721-0.0632 43.137-2.1227 47.589-2.7029 5.8438-7.8328 10.974-14.019 14.019l-4.8583 2.3916-142 0.1505c-78.1 0.0828-143.88-0.22539-146.17-0.68481zm282.67-63.466v-37.5h-40.701-40.701l-21.549 21.362c-19.399 19.23-22.086 21.538-26.936 23.126-7.3315 2.4011-16.502 1.6605-22.323-1.803-2.3594-1.4037-13.286-11.582-24.28-22.618l-19.991-20.066h-40.759-40.759v37.5 37.5h139 139v-37.5zm-43.5 11.639c-5.5098-3.4034-7-5.8865-7-11.664 0-5.7621 2.1982-9.2078 7.7003-12.071 5.7378-2.9854 12.881-0.51322 16.861 5.8359 6.6458 10.6-6.9482 24.454-17.562 17.899zm-49.254-75.885c25.165-25.16 45.754-46.085 45.754-46.5 0-0.41475-14.4-0.75408-32-0.75408h-32v-46-46h-28-28v46 46h-32c-17.6 0-32 0.33569-32 0.74597 0 0.81552 91.179 92.254 91.992 92.254 0.27503 0 21.089-20.586 46.254-45.746z" fill="#356876"/>
 </g>
</svg>
