<?xml version="1.0" encoding="iso-8859-1"?>
<!DOCTYPE svg PUBLIC "-//W3C//DTD SVG 1.1//EN" "http://www.w3.org/Graphics/SVG/1.1/DTD/svg11.dtd">
<svg xmlns="http://www.w3.org/2000/svg" xmlns:xlink="http://www.w3.org/1999/xlink" version="1.1" x="0px" y="0px" width="512px" height="512px" viewBox="0 0 612 612" style="enable-background:new 0 0 612 612;" xml:space="preserve">
<g>
	<path d="M612,306C612,137.004,474.995,0,306,0C137.004,0,0,137.004,0,306c0,168.995,137.004,306,306,306   C474.995,612,612,474.995,612,306z M312.954,139.091c19.195,0,34.773,15.578,34.773,34.773c0,19.194-15.578,34.772-34.773,34.772   c-19.194,0-34.772-15.578-34.772-34.772C278.182,154.669,293.76,139.091,312.954,139.091z M236.455,459h41.727V264.273h-41.727   v-27.818h111.273V459h41.727v27.818h-153V459z" fill="#FFFFFF"/>
</g>
</svg>
