<?xml version="1.0" encoding="utf-8"?>
<!-- Generator: Adobe Illustrator 16.0.0, SVG Export Plug-In . SVG Version: 6.00 Build 0)  -->
<!DOCTYPE svg PUBLIC "-//W3C//DTD SVG 1.1//EN" "http://www.w3.org/Graphics/SVG/1.1/DTD/svg11.dtd">
<svg version="1.1" id="Layer_1" xmlns="http://www.w3.org/2000/svg" xmlns:xlink="http://www.w3.org/1999/xlink" x="0px" y="0px"
	 width="161.625px" height="52px" viewBox="9.775 10.7 161.625 52" enable-background="new 9.775 10.7 161.625 52"
	 xml:space="preserve">
<g>
	<path fill="#3184C0" d="M38.2,43c-0.6,5.7-4,10.3-10.5,10.3c-6.4,0-8.9-4.5-8.3-10.899L22,12.9h-9.6L9.8,42.1
		c0,1.2-0.1,3.7,0.1,5.4c1.2,8.9,7.3,15.1,16.9,15.1c12.3,0,19.9-8.6,20.9-20l2.6-29.7h-9.6L38.2,43"/>
	<path fill="#3184C0" d="M54.3,37.6C53.1,50.7,60.5,62.7,76.7,62.7C81,62.7,85.4,61.6,90,59l1.1-11.9c-4.8,4.801-9.3,6-13.6,6
		c-9.8,0-14.3-7.1-13.6-15.8c0.8-8.9,6.4-16,16.5-16c4.1,0,8.6,0.8,12.4,5.8L93.9,15.5C89.8,13,85.6,12,81.3,12
		C65,12,55.5,23.6,54.3,37.6"/>
	<path fill="#3184C0" d="M107.6,52.5l3.5-39.6h-9.5l-4.3,48.7h28.3c0,0,0.801-8.699,0.9-9.199c-0.9,0.1-4.1,0.1-5.1,0.1
		C120.8,52.5,107.6,52.5,107.6,52.5"/>
	<path fill="#3184C0" d="M153.6,10.7H152.9L126.8,61.6H137l3.7-7.699H159l2.3,7.699H171.4L153.6,10.7 M144.6,45.6
		c0,0,6.4-14.2,6.601-14.6c0.3-0.7,0.6-1.5,0.7-2h0.1c0.1,0.6,0.2,1.3,0.4,2.1c0.5,2.2,4.199,14.5,4.199,14.5H144.6z"/>
</g>
</svg>
