<svg xmlns="http://www.w3.org/2000/svg" width="151.977" height="41.904" viewBox="0 0 151.977 41.904"><path fill="#00467F" d="M49.988 41.41c-3.57 0-3.816-1.888-3.816-3.814v-6.527h1.969v7.512c0 .983.33 2.093 1.848 2.093 1.642-.043 1.725-1.148 1.725-2.093v-6.855c0-1.026-.205-1.642-.493-2.627-.41-1.518-.903-2.338-1.642-3.734l-1.97-3.734c-.656-1.231-.903-2.012-1.148-3.324-.288-1.313-.288-2.135-.288-3.447v-1.519c0-1.889.288-3.776 3.734-3.776 3.57 0 3.775 1.93 3.775 3.816v5.828h-1.969v-6.936c0-.984-.205-2.053-1.725-2.053-1.642.042-1.848 1.109-1.848 2.053v2.052c0 1.354.043 2.175.33 3.571.286 1.23.533 1.97 1.148 3.159l1.889 3.571c.41.863 1.108 2.052 1.519 3.366.452 1.396.697 2.052.697 3.694v5.991c0 1.845-.247 3.692-3.735 3.733zm15.349-.205h-1.97V24.994h-3.53v16.211h-1.969V13.297c0-1.929.287-3.816 3.815-3.816 3.489 0 3.653 1.888 3.653 3.775v27.949zm-1.969-17.482V12.23c0-.943-.082-2.012-1.724-2.053-1.52 0-1.765 1.066-1.765 2.053v11.492h3.489zm11.819 5.006V9.604h1.97v31.561h-1.97v-5.992l-3.57-16.949v22.941h-1.97V9.604h1.765l3.775 19.125zM88.32 10.794h-2.955v30.411h-2.011V10.794h-2.873V9.645h7.798v1.149h.041zm10.877 30.411h-1.97V24.994h-3.53v16.211h-2.011V13.297c0-1.929.288-3.816 3.816-3.816 3.489 0 3.652 1.888 3.652 3.775v27.949h.043zm-1.97-17.482V12.23c0-.943-.083-2.012-1.725-2.053-1.519 0-1.765 1.066-1.765 2.053v11.492h3.49zm19.821 7.345v7.183c0 1.763-.902 3.201-3.692 3.201s-3.817-1.354-3.817-3.08V13.338c0-1.93.288-3.817 3.817-3.817 3.488 0 3.692 1.888 3.692 3.776v5.951h-2.01v-6.977c0-.944-.083-2.012-1.683-2.053-1.56 0-1.847 1.066-1.847 2.053v26.8c0 .821.698 1.559 1.847 1.559 1.147-.041 1.683-.699 1.683-1.52v-8.044h2.01v.002zm9.934 10.137V27.826c0-.943-.123-1.889-.738-2.298-.617-.452-1.067-.575-1.848-.575h-.861v16.252h-2.012V9.686h3.529c.533 0 2.012.082 2.955.781.986.697.986 1.682.986 2.789v8.414c0 .574-.084.984-.493 1.52-.451.574-1.558 1.148-1.642 1.189.084.041.984.533 1.395.984.698.738.738 1.479.738 2.34v13.461h-2.01v.041zm-.78-30.37c-.369-.164-.903-.287-1.478-.287h-1.189v13.544h.943c.862 0 1.684-.369 2.053-.82.327-.33.492-1.355.492-2.176v-8.455c-.041-.903-.164-1.518-.821-1.806zm8.865 28.237c0 .82.575 1.517 1.725 1.517 1.108 0 1.683-.737 1.683-1.558V9.645h2.012v28.689c0 1.725-.904 3.079-3.694 3.079-2.791 0-3.735-1.438-3.735-3.202V9.646h2.011v29.426zm14.159-28.278h-4.309v-1.19h6.771l-4.678 30.289h4.966v1.312h-7.388l4.638-30.411zM50.235 4.762c0 .574-.042 1.148-.452 1.641s-.984.656-1.6.656c-.575 0-1.19-.122-1.602-.574-.451-.493-.451-1.108-.451-1.723V.985h.738v3.776c0 .369 0 .861.246 1.148.247.369.74.451 1.149.451.37 0 .821-.123 1.067-.41.287-.328.287-.779.287-1.189V.985h.616v3.777zm5.827 2.216h-.739l-3.036-5.213v5.213h-.615V.985h.943l2.832 4.884V.985h.615v5.993zm1.437 0V.985h.739v5.992h-.739zm4.309 0h-.697L59.099.986h.78l1.683 4.925L63.203.986h.657l-2.052 5.992zm6.691 0H64.64V.985h3.776v.656H65.38V3.53h2.421v.616H65.38V6.32h3.118v.658h.001zm4.514 0l-1.109-2.587h-1.641v2.587h-.738V.985h2.256c.492 0 .943.041 1.354.369.411.287.656.821.656 1.313 0 .698-.409 1.354-1.106 1.519l1.189 2.791h-.861zm-1.355-3.202c.411 0 .739-.041 1.027-.328.204-.206.285-.493.285-.78 0-.329-.122-.657-.41-.821-.246-.164-.533-.205-.82-.205h-1.477v2.134h1.395zm3.57 1.437c.248.82.945 1.23 1.764 1.23.37 0 .781-.082 1.068-.287.246-.164.369-.492.369-.779 0-.615-.493-.861-1.025-.986l-.985-.244c-.41-.084-.779-.206-1.066-.494a1.464 1.464 0 0 1-.493-1.108c0-1.149.985-1.642 2.053-1.642.984 0 1.805.493 2.134 1.478l-.697.165c-.124-.656-.821-1.067-1.478-1.067-.574 0-1.273.287-1.273.944 0 .656.533.82 1.067.944l.903.205c.41.082.78.205 1.108.451.369.289.574.698.574 1.191 0 .533-.246 1.025-.657 1.354-.451.327-1.025.451-1.558.451-1.231 0-2.011-.534-2.421-1.683l.613-.123zm5.131 1.765V.985h.738v5.992h-.738zm4.062 0h-.738V1.642H82V.985h4.146v.656h-1.684v5.336h-.041zm4.638-2.545v2.545h-.737V4.473l-2.011-3.446h.86l1.603 2.75 1.6-2.75h.697l-2.012 3.406zm4.925-.412c0-1.477.738-3.119 2.463-3.119 1.683 0 2.463 1.519 2.463 2.997s-.738 3.159-2.463 3.159-2.463-1.559-2.463-3.037zm4.145-.081c0-.534-.081-1.149-.368-1.642-.289-.452-.739-.821-1.273-.821-1.312 0-1.684 1.437-1.684 2.504 0 1.026.412 2.421 1.684 2.421 1.231.041 1.641-1.436 1.641-2.462zm1.888 3.038V.985h3.652v.656h-2.914V3.53h2.421v.616h-2.421v2.831h-.738zm11.123-1.89c-.289 1.15-.944 1.971-2.217 1.971-1.724 0-2.422-1.682-2.422-3.159 0-1.56.781-3.037 2.504-3.037 1.19 0 1.93.821 2.176 1.929l-.697.123c-.206-.739-.575-1.396-1.479-1.396-1.313 0-1.642 1.396-1.642 2.463 0 .451.083 1.067.289 1.478.246.533.697.943 1.353.943.904 0 1.354-.698 1.52-1.477l.615.162zm5.211 1.89h-.779l-.615-1.765h-2.215l-.534 1.765h-.616l1.93-5.992h.863l1.966 5.992zm-2.462-5.213l-.942 2.873h1.846l-.904-2.873zm6.814 5.213h-3.529V.985h.737V6.32h2.79v.657h.002zm.82 0V.985h.739v5.992h-.739zm2.258 0V.985h3.652v.656h-2.914V3.53h2.422v.616h-2.422v2.831h-.738zm3.857-2.957c0-1.477.738-3.119 2.463-3.119 1.683 0 2.463 1.519 2.463 2.997s-.738 3.159-2.463 3.159c-1.683.001-2.463-1.559-2.463-3.037zm4.146-.081c0-.534-.083-1.149-.369-1.642-.288-.452-.739-.821-1.272-.821-1.354 0-1.684 1.437-1.684 2.504 0 1.026.411 2.421 1.684 2.421 1.271.041 1.641-1.436 1.641-2.462zm5.417 3.038l-1.109-2.587h-1.641v2.587h-.738V.985h2.257c.493 0 .943.041 1.354.369.41.287.656.821.656 1.313 0 .698-.41 1.354-1.107 1.519l1.189 2.791h-.861zm-1.354-3.202c.41 0 .738-.041 1.025-.328.205-.206.287-.493.287-.78 0-.329-.122-.657-.41-.821-.246-.205-.492-.205-.82-.205h-1.478v2.134h1.396zm7.633 3.202h-.737l-3.038-5.213v5.213h-.615V.985h.943l2.832 4.884V.985h.615v5.993zm1.437 0V.985h.738v5.992h-.738zm6.321 0h-.781l-.615-1.765h-2.215l-.534 1.765h-.574l1.93-5.992h.861l1.928 5.992zm-2.422-5.213l-.942 2.873h1.847l-.905-2.873zM35.007 21.506s-.327-.328-.902-.984c.041-.247.082-.575.124-.986l.04-.655-.287.122c-.082.041-.328.328-.656.699-.656-.699-1.52-1.602-2.545-2.669v-2.791a309.032 309.032 0 0 0 3.611 2.668c.123.082.205-.082.082-.205-.697-.534-2.052-1.56-3.693-2.749v-1.601c0-.206 0-.616-.205-.494-.371.247-2.094-.081-2.135-.04-.164.04-.287.082-.451.123-1.52-1.108-3.037-2.258-4.393-3.242-.328-.246-.452-.082-.123.164.248.205 2.094 1.56 4.227 3.119-.656.123-1.23.123-1.723.123-.78-.779-1.6-1.641-2.463-2.545-.247-.246-.452-.123-.206.164.042.041.944.986 2.216 2.34-.409-.041-.779-.123-1.189-.164-.246-.328-.451-.658-.697-.943-.41-.534-.452-.165-.205.164.123.164.287.451.492.737h-.78c-.041-.122-.082-.204-.122-.327-.164-.451-.453-.574-.248.123.043.082.043.164.084.246-.164.041-.368.123-.615.205-.084-.451-.164-.863-.246-1.313-.084-.451-.288-.411-.246.041.082.452.123.903.205 1.354-.287.165-.575.369-.738.615 0-.779 0-1.518-.041-2.216 0-.739-.205-.452-.205 0v2.052c-.205-.246-.534-.451-.861-.615.082-.411.122-.781.205-1.19.082-.492-.165-.492-.246-.041-.083.37-.124.78-.205 1.149a2.259 2.259 0 0 0-.616-.123c0-.041.04-.123.04-.164.206-.697-.082-.574-.246-.123-.041.081-.083.205-.123.287h-.82c.205-.328.41-.576.534-.78.246-.369.205-.697-.206-.163-.205.287-.452.615-.698.943-.41 0-.78.04-1.109.04 1.232-1.271 2.052-2.175 2.094-2.216.246-.287.04-.41-.206-.164-.82.862-1.6 1.643-2.339 2.38-1.189.042-1.6.124-1.97.124 2.175-1.602 4.104-3.037 4.351-3.242.326-.246.205-.41-.124-.164-1.395 1.025-3.037 2.216-4.596 3.406h-2.094c-.082 0-.246-.082-.288-.082-.206 0-.246.123-.246.328v1.683c-1.602 1.19-2.915 2.176-3.612 2.667-.122.082 0 .247.083.205 0 0 1.559-1.148 3.529-2.584v2.831a1608.585 1608.585 0 0 1-4.145 4.392c-.205.205-.041.287.123.164.574-.574 2.176-2.176 3.982-4.063v4.31c-1.478 2.379-2.503 4.104-2.545 4.146-.247.328-.205.534.041.246.042-.081 1.108-1.684 2.463-3.815v2.625c-.37.042-.862.123-1.026.369-.205.247-.123.494-.164.821 0 .204-.084.573-.124.738-.122.288-.328.493-.533.657-.165.164-.245.41-.369.656-.164.41.082.943.327 1.395.124.207.411.494.657.535.944.162 1.067-.493 1.231-.863 0-.04 0-.04.041-.04 0 .615 0 1.026.041 1.026 0 .039.493 0 1.231-.043-.164.533-.287.821-.287.821-.165.616.124.41.205.165.123-.328.246-.657.37-1.026.656-.042 1.436-.083 2.257-.123.164.245.493.655.656.903l.164.287.123.205c.124.205.247.411.328.574-.081.533-.164.863-.164.943-.205.821-.041.903.206.123 0-.041.083-.329.165-.779.082.124.205.289.328.45.247.329.821.7 2.093 1.274a5.28 5.28 0 0 0 1.97.367c.041.66.205.495.205 0 1.025 0 2.135-.121 3.201-.49a4.857 4.857 0 0 0 1.271-.904v.041c.206.781.371.698.206-.121 0 0 0-.084-.04-.123.164-.205.205-.329.245-.37.083-.124.615-1.354-.04-2.257l-.041-.041-.041-.043-.123-.121c1.271.04 2.666.121 3.611.164.082.246.205.533.287.777.081.206.369.411.205-.162l-.205-.615c.574.041.944.041.944 0v-1.314c.778-.122 1.066-.328 1.6-.82.616-.533.985-1.273.985-2.053.041.041.041.082.082.082.246.288.287.082.041-.246 0 0-.082-.123-.205-.369-.123-.41-.328-.779-.656-1.068-.288-.492-.657-1.066-1.068-1.723a4.173 4.173 0 0 0 1.232-.329c.369-.163.943-.616 1.23-1.313l.042-.123c.04-.082.04-.164.081-.246.37.369.657.656.821.822.287.326.451.203.287-.002zm-1.887-1.56c-.205.246-.45.533-.615.737-.082-.286-.123-.778-.205-1.106a2.285 2.285 0 0 0-.205-.697c.368.368.738.737 1.025 1.066zm-2.339-2.422c.287.287.533.575.82.862v.123a5.459 5.459 0 0 1-.246 2.217c-.123.451-.246.615-.492.738-.041.041-.082.041-.164.041.082-1.518.082-2.831.082-3.981zm-.739-4.965c.04-.204.369-.287.41.082.041.164.041 4.598 0 8.947-.123.041-.287.041-.41.041 0-4.391-.041-8.988 0-9.07zm-.616 0c0-.123.327-.204.288.082.041.083 0 4.555-.083 8.865-.041-.041-.122-.041-.164-.082v-.123c0-.451.206-.533 0-.738a.873.873 0 0 0-.205-.124c.083-4.105.123-7.798.164-7.88zm-.779-.205c.082-.288.328-.083.328.04 0 .082-.042 4.022-.042 8.044a.928.928 0 0 0-.326.083c-.043-2.339-.002-5.089.04-8.167zm-.083 8.29h.041s.411-.122.533-.04c.164.123.124.697.124.861v.205c0 .041.04.082.04.123.082.163.205.246.246.287-.081-.041-.164-.041-.246-.082-.123-.042-.246-.042-.369-.082-.123 0-.247-.041-.328-.041h-.287c-.247 0-.492.081-.658.164-.081.04-.121.082-.205.122 0 0-.04 0-.04.042-.041.041-.123.082-.164.163a1.523 1.523 0 0 0-.206.452c-.039-.164-.205-.37-.205-.494 0-.531.328-.861.534-1.066.081-.082.165-.123.247-.164.039 0 .039-.041.082-.041a.312.312 0 0 1 .163-.082c.042 0 .042-.041.082-.041.042-.041.123-.041.165-.082 0 0 .041 0 .041-.041.124-.08.329-.123.41-.163zm1.026 1.724s.041.042.083.042v1.147a.814.814 0 0 0-.369.083v-1.396c.081.041.122.041.205.083l.081.041zm-.697-.247v1.643c-.042 0-.042.041-.083.041-.04.041-.163.082-.287.122V22.08c.124 0 .247.041.37.041zm-.615-.041v1.93c-.042 0-.083.041-.124.041-.492.041-.779-.164-.82-.287a.884.884 0 0 1-.123-.206c-.041-.122-.041-.286-.041-.286 0-.246.122-.411.369-.74.164-.247.41-.411.739-.452zm-6.896-8.783c.082-.902 2.504-1.23 2.914-1.107.41.082 1.066.205 1.354.287 0 0 1.355.328 2.586-.122v8.208c-.246.041-.739.164-1.108.491-.411.329-.657.698-.657 1.231 0 .369.124.656.289 1.15.082.245.164.532.164.532.205.368.164.655.246.984.122.534.41.615.574.657.165.041.287.083.451.123v.615h-.123c-.82-.082-1.108-.205-1.559-.41l-.534-.328c-.944-.452-2.257-.41-2.914-.123-.327.123-.532.246-.738.493l-.042.082.042.083c.041.205.206.41.286.532.082.122.042.452.042.575 0 .246-.206.493-.288.574h.041c-.205.123-.328.41-.328.779-.247.122-.451.246-.656.37-.001-.08-.124-15.634-.042-15.676zm2.504 15.801c.04.084.122.165.164.248.082.082.164.162.287.246.123.082.246.164.328.205.041.041.124.041.164.082.082.041.165.082.246.164-.081 0-.164 0-.246.041l-.41.042h-.246c-.247.04-.41.04-.738 0-.082 0-.206-.042-.329-.083a.972.972 0 0 1-.451-.246 1.858 1.858 0 0 1-.328-.451c-.042-.083-.042-.164-.083-.248 0-.081-.041-.164-.041-.246 0-.122 0-.246.041-.369 0-.082.041-.164.083-.205v-.041c.041-.041.081-.123.122-.123l.042-.041c.082 0 .164-.041.286-.041h.329c.083 0 .204.041.288.041h.041c.123.041.287.041.409.084-.04.039-.04.08-.04.162-.041.084-.041.164-.082.205 0 .084-.042.164-.042.248.124.08.164.204.206.326zm.164-.451c0-.124.041-.288.123-.452h.164c.328.082.657.205.984.327-.45.042-.902.083-1.271.125zm2.422.246c.41.124.861.205 1.354.248-1.066.041-2.38.122-3.447.163-.123-.083-.205-.163-.246-.287.779-.041 1.599-.083 2.339-.124zm-2.012 1.56c0 .164-.041.287-.164.369-.698.573-1.271.697-2.627.533-.123 0-.246-.042-.369-.082v-.78c.369 0 .738-.124 1.107-.369.041 0 .165-.042.33-.042.122.082.287.165.491.205.658.166.74.166 1.232.166zm-2.38-1.272s-.041 0 0 0l-.287-.124c.123-.04.205-.081.287-.123-.041.042-.041.164 0 .247zm-.821 0c.656.04.984.656.943.698-.451.492-1.395.533-1.847 0-.08-.042.371-.658.904-.698zm-.984.287c.122.04-.124.123-.124.123a17.906 17.906 0 0 0-1.56-.164c0-.041-.041-.041-.041-.083 0-.04-.041-.082-.041-.123.822.083 1.437.165 1.766.247zm-1.848-.616c-.042-.122-.082-.246-.165-.369.822.123 2.135.328 2.422.574-.165.084.041-.04-.205.164-.246-.123-1.067-.245-2.052-.369zm1.354.862c.084 0 .289 0 .247.205 0-.04-.451-.04-1.148-.04a.86.86 0 0 1-.123-.207c.492.042.86.042 1.024.042zm.247.41c.369.124.575.289.944.329v.697c-.287-.082-.534-.205-.779-.327l-.739-.37c-.205-.082-.329-.205-.493-.369.575-.001.944-.001 1.067.04zm-6.157-17.605c0-.124 0-.164.165-.164 2.585.04 6.607-.945 6.978.942 0 .082.082 11.944.04 15.596-.86-.327-1.518-.492-3.036-.656l-.247-.369c-.287-.41-.369-.574-.574-.738l-.534-.533a28.698 28.698 0 0 1-.697-.616c-.821-.533-1.519-.819-2.094-.944.082-7.389-.041-11.658-.001-12.518zm-.451.245c0-.409.205-.369.205-.082.042.41 0 4.514-.082 12.312-.082 0-.205-.041-.287-.041.042-4.515.164-11.614.164-12.189zm-.738-.123c-.042-.205.205-.286.205-.041.041.082-.083 7.552-.083 12.312-.083 0-.206 0-.288.041.002-4.802.124-12.229.166-12.312zm-.862-.082c.042-.246.41-.123.37.165-.042 5.212-.083 9.438-.123 12.353h-.288c.041-5.172.041-12.395.041-12.518zm-1.027 17.238c-.205.162-.368.246-.657.204-.164 0-.493-.368-.657-.78-.041-.164-.041-.369-.041-.656 0-.082 0-.164.041-.205.042-.082.124-.164.165-.248.083.124.288.248.452.371l.369.245c.205.165.533.289.779.289-.04.164-.203.534-.451.78zm.452-1.109c-.082 0-.329.042-.739-.164l-.329-.205c-.205-.246-.287-.368-.287-.451 0 0 0-.041.042-.041.205-.164.943-.164 1.477-.123v.904c-.081.039-.164.039-.164.08zm.616 1.149c-.042-.123-.042-.904-.042-1.066v-1.026c.082 0 .205 0 .288.041 0 1.19.041 1.848.123 1.848.042.039 1.272.039 2.709.039v.042l.082.123s.042.042.042.082c-1.725-.001-3.202-.001-3.202-.083zm2.586-.82c.041.04.122.122.165.246-1.15-.042-2.012-.082-2.053-.122-.041-.043-.041-.493-.041-1.273.083.041.205.041.287.083 0 .615.042.983.042 1.026.04-.043.696-.001 1.6.04zm-1.273-.986c.124.041.205.082.329.164 0 0 0 .041 0 0 .206.122.411.246.574.41-.574 0-.903 0-.903.042v-.616zm13.009 3.283c0 .082 0 .205-.039.288v.083c-.042.082-.042.205-.084.287a1.892 1.892 0 0 1-.123.287s0 .042-.04.042c-.04.081-.082.205-.124.286-.041.124-.122.205-.163.248-.247.326-.615.572-1.519.984-.247.082-.493.164-.738.205-.043 0-.082 0-.124.041l-.616.123h-.08c-.206.041-.453.041-.658.082h-.041c-.205 0-.451.041-.656 0-.205 0-.41 0-.615-.041h-.124c-.122 0-.205-.041-.327-.041-.083 0-.123-.041-.206-.041s-.164-.041-.204-.041c-.123-.042-.289-.082-.412-.164-1.189-.535-2.011-.904-2.379-1.396a2.816 2.816 0 0 1-.288-.452c-.041-.083-.123-.205-.165-.288-.124-.163-.205-.368-.329-.573l-.122-.205-.164-.287a4.507 4.507 0 0 1-.329-.616c-.041-.083-.082-.123-.123-.206 0-.041-.164-.328-.164-.328v-.041l-.082-.122c-.042-.083-.124-.165-.164-.246a.882.882 0 0 0-.165-.206c-.124-.164-.205-.287-.287-.328 0-.041-.042-.041-.082-.082-.083-.082-.123-.124-.247-.205a29.71 29.71 0 0 1-.369-.248c-.123-.081-.288-.162-.452-.244a1.674 1.674 0 0 0-.287-.123c-.123-.043-.247-.123-.369-.164a.769.769 0 0 0-.288-.084c-.164-.04-.287-.081-.41-.122-.082 0-.205-.04-.287-.04-.124 0-.246-.043-.329-.043h-.081c-.616 0-.698-.039-.902-.039h-.289l.123-.248c.083-.205.041-.492.041-.739.042-.287.165-.655.288-.82a.559.559 0 0 1 .163-.122h.082c.042 0 .083-.041.165-.041h.534l.246-.042h.082l.205-.04c.206-.041.453-.123.698-.123.123 0 .288-.043.411-.043.205 0 .411 0 .616.084l.369.122h.041c.123.042.247.123.411.165.04 0 .04.04.082.04.123.083.288.165.411.247.041 0 .041.041.082.041l.493.369h.041c.042.041.247.205.452.369l.738.575c.165.122.451.573.699.943l.205.288c.164.244.288.532.411.861 0 .042.04.082.04.123.042.082.083.164.123.287.042.082.083.123.083.205a.976.976 0 0 0 .122.205c.042.084.083.123.124.205.041.042.082.123.124.164l.041.041a.517.517 0 0 0 .164.123s.042 0 .042.042c.083.04.123.083.205.122l.412.247c.164.081.369.205.532.286 0 0 .042 0 .042.043.205.082.41.162.615.205.082.041.205.041.287.041h.082c1.479.205 2.709 0 3.201-.533.164-.164.246-.411.246-.657h.083c.492-.041.656-.041.902.164.283.369.487.574.487.861zm4.147-1.313c-.123-.042-2.832-.122-5.008-.164a4.106 4.106 0 0 0-.451-.246c2.135.042 4.392.042 5.09 0 0-.042 0-.205.041-.452l.328-.041v.903zm2.174-4.925c.205.287.328.574.41.903.123.738.083 1.313-.492 1.847-.083.082-.165.123-.206.205l-.122.123c-.041 0-.041.041-.083.082-.041.041-.081.082-.123.082-.041 0-.041.042-.041.042-.039.042-.081.082-.123.082l-.041.042c-.041.039-.082.039-.121.082 0 0-.043 0-.043.041a.314.314 0 0 0-.164.082h-.041c-.041 0-.123.041-.205.041h-.041c-.083 0-.164.042-.246.042-.082 0-.205.041-.287.041l-.41.041c-.164.042-.288.042-.451.042-.206 0-.369.039-.575.039h-.615c-.165 0-.37 0-.534-.039h-.04a7.21 7.21 0 0 1-2.341-.616c-.163-.083-.286-.122-.451-.206-.122-.041-.246-.082-.369-.164a11.932 11.932 0 0 0-.903-.287h-.04c-.123-.041-.246-.041-.328-.041h-.451c.081-.205.123-.451.123-.615v-.123c-.042-.123-.083-.287-.164-.451-.042-.124-.123-.246-.165-.369.123-.165.206-.288.452-.41.492-.206 1.641-.328 2.544.082l.657.287c.492.246.861.451 1.764.533.164 0 .328.042.493.042h1.436c.123 0 .246 0 .369-.042.123 0 .246-.042.328-.042.164-.04.287-.04.41-.081h.082a1.8 1.8 0 0 0 .287-.124c.738-.331.861-.865.861-1.193zm-3.98.697h.327v.616c-.081 0-.204 0-.327-.041v-.575zm.656.617v-.697h.04c.124-.042.247-.124.37-.206v.903h-.41zm.821 0v-1.231c.123-.082.246-.205.41-.328v1.52c-.122.039-.245.039-.41.039zm2.134-1.437c.042.205.082.861-.738 1.108-.288.083-.493.164-.698.205v-1.725c.287-.204.656-.204 1.396.288.04.083.04.083.04.124zm-.123-.574c-.122-.041-.288-.041-.37-.041h-.369c-.082 0-.164 0-.246.041-.082 0-.164.041-.246.041a1.274 1.274 0 0 0-.328.164c-.123.083-.246.164-.328.288l-.04.04c-.165.165-.288.248-.41.289-.124.082-.247.082-.329.122h-.041c-.041 0-.082.041-.082.041a.57.57 0 0 1-.246.082 1.05 1.05 0 0 1-.616.042c-.082 0-.122-.042-.204-.042a1.108 1.108 0 0 1-.576-.616c-.04-.244.043-.287-.04-.615.122.043.246.043.37.084h.533c.082 0 .123-.041.205-.041.082-.043.205-.084.287-.123h.041c.122-.083.287-.165.492-.206.082-.04.164-.04.246-.04h1.56c.041 0 .08.04.122.04h.04c.082.041.125.041.205.083l.041.041a.544.544 0 0 0 .164.121l.041.043c0 .039.042.121.124.162zm-1.97-.821v-.942c.123.081.287.121.41.163v.821l-.41-.042zm1.766.41c-.533-.368-.781-.41-1.068-.368v-.738c.123.041.246.041.369.041.246.368.492.738.699 1.065zm2.092-4.104a3.809 3.809 0 0 1-.205.862c-.041.082-.041.164-.082.205l-.041.122c-.246.698-.574 1.19-1.56 1.52a1.163 1.163 0 0 1-.37.082h-.328c-.123 0-.246-.04-.369-.082h-.164c-.082 0-.122-.042-.205-.042-.041 0-.082-.041-.123-.041-.409-.122-.738-.369-.861-.574l-.041-.123v-.041c.124.041.288.083.494.083.121 0 .245 0 .409-.042.123 0 .206-.041.328-.082h.041c.327-.122.698-.246.903-.861.082-.287.123-1.232.164-1.725.287.616.451 1.766.451 1.889l.082.369s.123-.123.246-.287c.287-.412.493-.699.657-.904.081-.082.122-.164.163-.205.084-.082.165-.164.206-.246.082-.082.164-.123.246-.205 0 .041 0 .205-.041.328zm-19.289 8.824c.04 0 0 0 0 0zm-3.57-17.114c-.165.082-.247-.082-.083-.165.37-.245 6.526-2.995 7.018-3.2.287-.123.452.041.164.205 0 0-6.731 2.954-7.099 3.16zm6.976-3.858s.083.124 0 .124c-.164.04-2.093.121-2.216.121-.083 0-.574.043-.698.043-.369-.043-.123-.124.042-.124.615-.081 2.708-.245 2.872-.164zm13.01 3.817c.164.081.246-.083.082-.165-.369-.245-6.525-2.996-7.018-3.2-.289-.123-.451.041-.165.204 0 0 6.732 2.956 7.101 3.161zm-6.772-3.858s-.082.081.041.124c.164.041 2.052.122 2.174.122.084 0 .535.04.699.04.327-.04.082-.121-.041-.121-.246-.041-2.627-.288-2.873-.165zm-6.443 28.934v.041c-.042 0-.124 0-.124.082l-.492 1.889c-.042.082 0 .121.082.121v.042l-.738-.204v-.043c.083.043.123 0 .165-.08l.369-1.438c-.082 0-.247 0-.287.081h-.082l.122-.532h.083c0 .041.041.082.123.082.083.043.164-.041.164-.123 0-.041 0-.082-.04-.121v-.041l.655.244zm1.026 1.272c-.205-.123-.37-.327-.329-.532.041-.328.41-.575 1.067-.534.698.082 1.026.37 1.026.699 0 .205-.206.41-.452.449.287.123.452.329.411.617-.042.409-.451.657-1.15.575-.738-.083-1.108-.411-1.067-.781.001-.247.206-.411.494-.493zm.574.945c.289.04.575-.084.616-.331.042-.243-.247-.368-.533-.409-.328 0-.616.083-.616.33-.041.244.205.368.533.41zm.083-1.068c.327.043.493-.082.533-.246 0-.163-.123-.327-.451-.327-.328-.042-.493.082-.534.247-.04.164.123.285.452.326zm3.078-.287l-.082-.041c0-.123-.206-.246-.493-.246-.41.041-.656.369-.615.777.164-.162.41-.285.697-.326.533-.041.945.205.945.737 0 .37-.33.78-.986.821-.779.041-1.148-.451-1.148-1.026-.041-.696.328-1.271 1.148-1.353.369 0 .699.122.78.122.041 0 .041 0 .081-.04l.042.04-.369.535zm-.082.986c0-.248-.247-.412-.533-.412-.288 0-.493.206-.493.45 0 .247.246.411.533.411.287-.04.493-.203.493-.449zm1.189-.699c-.245 0-.451-.162-.493-.326-.081-.329.164-.699.821-.863.656-.205 1.108-.041 1.189.287a.639.639 0 0 1-.245.615c.328 0 .533.165.615.411.123.37-.205.78-.862.944-.698.205-1.188 0-1.272-.328-.123-.329.002-.535.247-.74zm.616-.328c.328-.083.451-.246.41-.41s-.246-.246-.574-.164c-.328.083-.452.245-.41.409.041.165.246.247.574.165zm.287 1.027c.287-.085.533-.29.451-.496-.082-.244-.369-.285-.656-.204-.287.083-.534.288-.452.494.042.244.329.286.657.206z"/><path fill="#00467F" d="M13.051 26.842l.616.246c.042 0 .042 0 .083-.082h.041l-.165.492h-.04v-.083l-.986-.327v-.042c.041 0 .041 0 .083-.04l.492-1.313c0-.042 0-.042-.041-.083v-.042l.369.124v.041c-.042 0-.042 0-.082.041l-.37 1.068zm1.805.656c0-.041 0-.083-.041-.083l-.329-.204-.123.246.533.328s.042 0 .083-.041l-.289.451c.042-.041.042-.084 0-.084l-.821-.491v-.041h.083l.738-1.19v-.123l.821.492s.042 0 .083-.041l-.287.451c.042-.082.042-.082 0-.082l-.534-.328-.122.205.328.205c.04.041.04 0 .082-.04l-.205.37zm.329.984c.083 0 .083 0 .083-.041l.78-.82-.247-.246s-.042 0-.081.04l.369-.369c-.041.042-.041.083-.041.083l.698.657s.04 0 .082-.041l-.369.368c.041-.041.041-.082.041-.082l-.246-.246-.78.82c0 .042-.041.042 0 .082l-.041.042-.248-.247zm1.108 1.519c.041.042.083.042.123 0l1.026-.452-.123-.287h-.082v-.041l.492-.205v.041c-.041.041-.083.041-.083.082l.411.862h.083v.042l-.493.205v-.041c.042-.043.083-.043.083-.083l-.122-.288-1.026.451c-.042 0-.042.043-.042.082h-.042l-.205-.368zm1.15 2.093c-.041 0-.041.041 0 .082l-.041.041-.247-.326.042-.041c.042.041.042.041.082 0l.451-.329-.288-.41-.453.329c-.04 0-.04.04 0 .081l-.04.042-.246-.371.042-.039c.04.039.04.039.082 0l1.109-.822c.041 0 .041-.041 0-.082l.041-.041.247.328-.042.041c-.042-.041-.042-.041-.082 0l-.37.287.288.412.369-.289c.042 0 .042-.041 0-.082l.042-.041.247.327-.041.042c-.042-.042-.042-.042-.083 0l-1.109.861zm1.354.452c0-.041 0-.083-.042-.123l-.287-.206-.165.248.493.369s.04 0 .082-.041l-.288.409c.041-.04.041-.082 0-.082l-.78-.574.042-.041c.04.041.04 0 .083 0l.82-1.149s.042-.041 0-.082l.042-.041.78.574s.041 0 .081-.041l-.286.41c.041-.082.041-.082 0-.082l-.493-.369-.164.205.288.205c.04.041.04 0 .082 0l-.288.411zm.698.862c0 .041 0 .041.041.082v.042l-.37-.124v-.041c.041 0 .041 0 .083-.041l.409-1.313c0-.042 0-.042-.041-.082v-.042l.658.205c.287.082.328.287.245.616-.082.247-.245.37-.409.37l.082.532c0 .041 0 .083.042.083v.041l-.37-.124v-.042c.041 0 .041 0 .041-.039 0-.041-.041-.494-.082-.533l-.166-.041-.163.451zm.246-.78l.329.082c.123.042.163-.04.205-.122.041-.082 0-.165-.082-.205l-.328-.081-.124.326zm1.805.698c-.04-.041-.04-.084-.082-.084l-.369-.04v.288l.615.041c.041 0 .041 0 .041-.084h.041l-.041.535h-.041c0-.042 0-.082-.041-.082l-.984-.085v-.04c.041 0 .041-.041.041-.041l.082-1.396c0-.039 0-.039-.041-.039v-.041l.985.08c.041 0 .041 0 .041-.08h.041l-.041.533h-.041c0-.083 0-.083-.042-.083l-.615-.04v.244l.371.043c.04 0 .04-.043.081-.082h.041l-.042.453zm1.067-1.027c0-.041 0-.041-.08-.041v-.042l.696-.204c.206-.041.37 0 .451.287.042.164 0 .288-.082.371.124 0 .245.082.328.287.082.245 0 .451-.247.533l-.697.246v-.041c.041-.042.041-.042.041-.083l-.41-1.313zm.412.411l.246-.083c.164-.04.204-.082.164-.206-.041-.122-.082-.122-.246-.081l-.247.081.083.289zm.204.616l.329-.084c.122-.04.164-.082.122-.244-.04-.123-.122-.167-.245-.123l-.329.082.123.369zm1.766-.986c-.042-.041-.083-.041-.124-.041l-.329.164.124.247.575-.289v-.081l.245.453-.04-.043-.862.452v-.042c.041-.041.041-.041.041-.082l-.615-1.23c0-.041-.041-.041-.083-.041v-.043l.863-.451v-.081l.245.451h-.04c-.042-.04-.042-.084-.083-.04l-.574.285.123.206.329-.164c.04 0 .04-.042.04-.081h.041l.124.451zm-.535-5.17l.656.164c.041 0 .041 0 .041-.082h.041l-.164.532h-.04v-.082l-.985-.247v-.041c.041 0 .041 0 .082-.041l.328-1.354c0-.041 0-.041-.041-.083v-.04l.369.082v.041c-.041 0-.041 0-.082.042l-.205 1.109zm.862.656c.041-.041.083-.041.083-.082l.532-1.314c0-.041 0-.041-.04-.082v-.041l.37.164v.042c-.041 0-.041 0-.084.04l-.532 1.314c0 .04 0 .04.041.082v.041l-.37-.164zm1.97.041l-.246-.082c-.041 0-.041 0-.041.041h-.042l.123-.411h.041v.042l.532.164v.041c-.039 0-.039 0-.039.041l-.124.533v.082c-.205.084-.41.123-.657.042-.327-.083-.533-.41-.41-.943.123-.534.492-.698.821-.616.123.041.164.082.288.164.04.041.082.123.121.123h.043l-.206.327v-.081c0-.043-.165-.205-.286-.248-.166-.04-.371.043-.453.371-.083.327.082.492.248.533.122.04.205.04.286 0l.001-.123zm1.888.738c0 .042 0 .042.04.042v.04l-.41-.04v-.042c.041 0 .041-.041.041-.041l.042-.533-.493-.041-.041.532c0 .042 0 .042.041.042v.041l-.41-.041v-.042c.041 0 .041-.04.041-.04l.082-1.396c0-.04 0-.04-.041-.04v-.041l.411.041v.04c-.042 0-.042.043-.042.043l-.041.492.493.041.04-.492c0-.041 0-.041-.04-.041v-.043l.411.043v.041c-.042 0-.042.041-.042.041l-.082 1.394zm.986-.041c.041-.042.041-.082.041-.082l-.164-1.108-.328.041c-.041 0-.041 0-.041.081h-.042l-.083-.491h.041c0 .081.042.081.042.081l.942-.162c.041 0 .041 0 .041-.082h.041l.083.532h-.042c0-.083-.041-.083-.041-.083l-.328.041.164 1.109c0 .041 0 .041.082.041v.04l-.408.042zm-19.578 3.859l-.041.042c-.083-.042-.122-.042-.165 0l-1.231 1.272.453.45c.082.082.123.125.205.043l.041.04-.37.411-.041-.04c.041-.043 0-.084-.083-.166l-1.313-1.271c-.082-.082-.124-.123-.205-.082l-.04-.042.37-.41.041.04c-.041.083-.041.124.041.206l.452.451 1.231-1.271c.041-.041.041-.083 0-.164l.041-.041.614.532zm-2.749-1.437l.739-.492c.041-.041.082-.082 0-.164l.041-.042.452.657h-.042c-.083-.082-.123-.082-.165-.041l-1.601 1.108c-.042.042-.083.083 0 .163l-.042.041-.451-.656.041-.041c.081.083.124.083.164.041l.615-.41-.656-.943-.616.41c-.042.041-.083.082 0 .164l-.042.042-.533-.657.041-.042c.082.083.124.083.165.042l1.601-1.109c.041-.04.082-.081 0-.164l.041-.041.452.656v.043c-.082-.083-.124-.083-.165-.043l-.738.494.699.984zm-1.191-3.201l-.493-1.149c-.042-.122-.082-.163-.165-.122l-.04-.084.493-.204.041.083c-.041.041-.041.082 0 .205l.78 1.764-.042.041c-.081-.123-.123-.123-.164-.123l-1.764.781c-.083.041-.083.082-.042.205l-.041.041-.78-1.725c-.042-.123-.082-.164-.164-.123l-.042-.082.494-.205.041.082c-.041.041-.041.084 0 .205l.451 1.067.533-.247-.286-.615c-.042-.122-.083-.163-.166-.122l-.041-.083.493-.205.041.084c-.041.039-.041.082 0 .204l.289.615.574-.288zM3.16 21.958h.041c0 .082.042.122.124.122l1.313-.041c.288 0 .493-.246.452-.615 0-.41-.205-.574-.493-.574l-1.313.041c-.083 0-.083.041-.123.123h-.084l-.041-.78h.041c0 .123.041.123.123.123l1.272-.04c.534 0 .862.287.903 1.066.041.778-.288 1.148-.821 1.148l-1.272.041c-.083 0-.083.041-.123.164h-.04l.041-.778zm2.298-2.505h-.041c0-.081 0-.123-.083-.123l-1.929-.287c-.083 0-.123 0-.123.082h-.041l.123-.861h.042c0 .082 0 .082.041.082.082 0 1.396-.738 1.601-.738l-1.355-.206c-.082 0-.123 0-.123.083h-.04l.123-.739h.041c0 .082 0 .123.083.123l1.929.287c.082 0 .124 0 .124-.081h.04l-.123.779h-.042c0-.042 0-.124-.041-.124-.082 0-1.313.739-1.724.821l1.477.246c.082 0 .123 0 .123-.082h.041l-.123.738zm.616-3.119h-.041c.042-.164 0-.205-.041-.205l-1.846-.615c-.082-.041-.124 0-.165.123H3.94l.286-.861h.042c-.042.163 0 .205.042.205l1.847.615c.083.041.123 0 .165-.123h.041l-.289.861zm.82-2.133l-.04-.041c.041-.083.041-.124 0-.164-.041-.041-1.519-.083-2.093-.125-.082 0-.165 0-.205.042l-.041-.042.328-.697.042.042c-.042.081 0 .123 0 .123.081.04 1.148.082 1.683.122-.411-.41-1.108-1.23-1.149-1.23s-.041 0-.124.082l-.04-.041.328-.657.04.042c0 .082 0 .123.083.204.493.575 1.314 1.479 1.397 1.519.04 0 .081 0 .122-.082l.041.042-.372.861zm1.191-2.751l.738-.983c.083-.084.083-.124.041-.206l.041-.042.411.329-.042.041c-.041-.041-.082 0-.165.082l-1.148 1.56-.041-.042c.082-.123.082-.164 0-.205l-1.56-1.19c-.042-.042-.082-.042-.205.083l-.042-.042 1.149-1.519c.082-.082.082-.123.042-.205l.04-.041.411.328-.04.041c-.042-.041-.083 0-.165.123l-.698.944.453.328.41-.533c.082-.083.082-.124.04-.205l.042-.042.41.328-.042.042c-.041 0-.082 0-.164.123l-.411.534.495.369zm1.682-1.518l-.04-.041c.041-.082.041-.123 0-.164L8.413 8.29c-.042-.04-.081-.04-.164 0l-.041-.04.984-.904c.452-.409.863-.451 1.15-.163.205.246.247.573 0 .903l.738.204c.205.082.287.124.369.042l.041.04-.575.534-.042-.041c.042-.041.083-.082.042-.123 0 0-.042-.041-.124-.041l-.82-.205-.369.328.533.574c.041.041.083.041.165 0l.041.041-.574.493zm-.368-1.395l.451-.412c.247-.204.288-.409.123-.532-.123-.123-.328-.123-.534.082l-.451.411.411.451zm2.626-1.314h.083v.042c.083.123.493 0 .78-.165.411-.246.492-.451.411-.615-.247-.41-1.52.738-1.97.041-.165-.287-.083-.738.534-1.107.246-.165.451-.205.615-.246.164-.041.247-.041.287-.084.042-.039.083-.08.083-.122h.042l-.042.657h-.083s0-.041-.04-.082c-.041-.082-.328-.082-.698.123-.247.164-.287.328-.247.451.247.41 1.52-.779 1.97 0 .164.287.041.821-.657 1.23a2.178 2.178 0 0 1-.574.247c-.164.042-.247.042-.328.082-.042 0-.042.041-.042.081h-.041l-.083-.533zm2.667-.656l-.041-.042c.123-.082.165-.123.123-.164l-.697-1.846c-.042-.083-.083-.083-.206-.043l-.041-.04.82-.329.042.043c-.123.08-.165.121-.123.164l.74 1.805c.04.082.081.082.205.041l.04.041-.862.37zm2.217-.821v-.042c.083-.04.083-.081.083-.122l-.41-1.725-.616.164c-.123.041-.165.041-.165.125h-.083l-.123-.535h.083c-.042.083.042.083.165.042l1.764-.452c.123-.041.165-.041.165-.123h.082l.124.533h-.083c-.04-.081-.082-.081-.205-.041l-.615.164.411 1.724c0 .082.04.082.164.082v.041l-.741.165zm3.571-.533l-.779.04v-.04c.082-.041.121-.041.121-.125l-.041-.777-.902-1.15c-.042-.041-.082-.082-.123-.082v-.042l.821-.042v.042c-.082 0-.123.041-.123.083 0 .041.368.492.616.738.123-.287.492-.738.492-.82 0-.042-.042-.042-.124-.042v-.041l.78-.041v.041c-.041 0-.082.041-.123.123l-.739 1.232.041.777c0 .084.041.084.122.125h-.039zm6.361-1.396c.779.286 1.067.902.82 1.519-.205.615-.82.943-1.601.697-.779-.287-1.066-.902-.82-1.518.206-.616.821-.985 1.601-.698zm-.658 1.887c.453.165.822-.04.986-.532.164-.493 0-.861-.451-1.025-.451-.165-.821.04-.986.532-.164.493 0 .862.451 1.025zm1.602.985l.041-.041c.123.041.164.041.205 0l.944-1.723c.041-.083.041-.083-.124-.206l.042-.041 1.642.903c.082.041.123.041.164 0l.082.041-.246.451-.082-.041c0-.082 0-.082-.123-.164l-1.025-.574-.288.492.657.369c.123.041.163.082.205 0l.082.041-.246.451-.083-.041c0-.082 0-.082-.122-.164l-.616-.287-.41.738c-.042.083-.042.083.122.205l-.041.041-.78-.45zm7.675 3.694l-.616.084v-.042s.041 0 .041-.042c.122-.081.082-.369-.122-.615-.329-.41-.698-.492-1.15-.082-.369.287-.41.739-.081 1.108.204.246.491.329.615.246 0 0 .042-.041.042-.081l.04.04-.082.657h-.041c0-.042 0-.082-.04-.082-.082-.082-.411-.041-.863-.575-.533-.616-.41-1.313.041-1.724.616-.533 1.355-.246 1.806.246.165.205.247.369.288.492s.041.205.082.247c-.043.042-.002.042.04.123zm-1.395 1.724l.04-.041c.041.041.124.041.164.041l2.012-.205c.082 0 .122 0 .164-.042.041 0 .041-.04 0-.122l.041-.041.451.779-.041.042c-.041-.083-.082-.083-.123-.083s-.041.041-.123.164l-1.231 1.561c-.041.081-.041.081-.041.163l-.083.042-.369-.658.041-.041c.041.041.041.084.082.041l.041-.041.288-.327-.451-.862-.411.042h-.081c-.042 0-.042.081 0 .122v.083l-.37-.617zm1.559.985l.615-.737-.942.122.327.615zm1.929 1.149c.082-.04.082-.04.04-.205l.041-.04.288.82-.042.041c-.081-.123-.081-.165-.163-.123l-1.684.574.369 1.108c.042.123.083.163.165.123l.041.083-.493.204-.042-.082c.042-.041.042-.083 0-.205l-.573-1.764h.041c.041.123.083.123.164.123l1.848-.657zm-1.272 3.079h.041c.041.164.082.164.164.164l1.93-.37c.08 0 .08-.04.08-.205h.042l.164.902h-.041c-.041-.163-.083-.163-.165-.163l-1.928.369c-.082 0-.082.041-.082.205h-.041l-.164-.902zm.287 1.518h.041c.041.164.041.164.122.164l1.93-.122c.083 0 .083-.042.083-.206h.041l.122 1.889c0 .121.042.164.083.164v.082h-.41v-.082c.082 0 .082-.083.082-.164l-.082-1.15-.576.041.041.739c0 .124.041.164.083.164v.082l-.534.041v-.082c.041-.041.082-.081.041-.205l-.041-.739-.82.042c-.082 0-.082.04-.082.206h-.042l-.082-.864zm2.298 4.187c-.082.819-.656 1.23-1.313 1.147-.658-.083-1.107-.615-1.025-1.437.082-.82.656-1.23 1.312-1.148s1.15.616 1.026 1.438zm-1.97-.247c-.041.493.205.779.697.862.492.082.822-.164.902-.656.042-.494-.205-.779-.696-.863-.534-.082-.821.164-.903.657zm-.657 1.929h.042c0 .082 0 .122.082.164l1.847.615c.081.042.081 0 .163-.082h.043l-.452 1.271c-.206.576-.533.82-.903.699-.328-.123-.492-.369-.41-.78l-.779.165c-.205.039-.288.039-.37.164l-.04-.043.245-.736h.041v.121h.165l.82-.205.164-.451-.738-.246c-.082-.041-.124 0-.164.082h-.042l.286-.738zm1.026 1.025l-.205.575c-.123.328-.041.491.123.534.164.039.328-.043.451-.328l.205-.576-.574-.205zm-2.094 1.889l.041.041c-.041.083-.041.123.042.164l1.683.984c.083.041.083.041.164-.04l.041.04-.451.738h-.041c.041-.082.041-.082 0-.122-.082-.041-1.56.164-1.765.122l1.19.699c.082.04.082.04.163-.041l.042.041-.369.615-.041-.041c.041-.082.041-.124-.042-.164l-1.683-.986c-.082-.039-.082-.039-.164.042l-.041-.042.41-.696.041.041c0 .04-.041.081 0 .122.082.042 1.479-.206 1.889-.163l-1.314-.739c-.082-.041-.082-.041-.164.041l-.041-.041.41-.615zm-1.722 2.709l.041.041c-.082.123-.082.164-.041.205l1.519 1.231c.042.042.082.042.206-.083l.041.041-.576.699v-.042c.084-.121.084-.163.043-.206l-1.519-1.23c-.042-.041-.083-.041-.206.082l-.041-.04.533-.698zm-.904 1.108l.042.041c-.042.041-.042.122 0 .164l.697 1.889c.041.081.041.122.082.122 0 0 .041 0 .123-.041l.041.041-.656.615h-.041c.041-.04.082-.081.041-.122 0 0-.041-.041-.165-.084l-1.806-.82c-.082-.04-.123-.04-.164 0l-.041-.04.533-.493.041.041c-.041.043-.041.081-.041.081s.041.044.082.044l.41.162.699-.656-.164-.369c0-.041-.042-.041-.042-.082-.04-.041-.082-.041-.122 0l-.041-.041.492-.452zm-.533 1.764l.903.452-.369-.902-.534.45z"/><circle fill="#00467F" cx="4.761" cy="24.379" r=".369"/><path fill="#00467F" d="M11.409 34.393a.367.367 0 0 0-.368.37.37.37 0 0 0 .738 0c-.041-.206-.206-.37-.37-.37zm4.309 2.462c-.205 0-.368.164-.368.369s.163.369.368.369c.206 0 .37-.164.37-.369s-.164-.369-.37-.369zm10.549-.164a.368.368 0 1 0 0 .738.368.368 0 1 0 0-.738z"/><circle fill="#00467F" cx="30.001" cy="34.885" r=".369"/><circle fill="#00467F" cx="31.847" cy="7.921" r=".369"/><circle fill="#00467F" cx="23.394" cy="4.227" r=".37"/><path d="M16.458 26.226h.492c.083 0 .411.041.575.041.083 0 .123.206.042.206-.534-.043-.328 0-.821-.083-.494 0-.288-.164-.288-.164zm1.887.082c.123-.042 1.559.163 1.683.287 0 0 .083.041.042.123-.083.163-.369-.123-1.355-.163-.205-.041-.492.04-.492-.125-.042-.081.04-.122.122-.122zm-2.955-11.41c-.082.04-.082.246-.082.328 0 .041-.206 0-.164-.041 0 0 .041-.369.082-.493-.042 0 .41.042.41 0 0-.081-.082-.451-.123-.451-.041.042-.123.493-.123.493h-.164s.124-.821.287-.821c.042 0 .123-.042.165.042.041.081.369 1.148.369 1.271-.041.041-.246.082-.246 0 0 0 0-.205-.083-.288-.082-.04-.246-.081-.328-.04zm1.068 3.12c-.041.123-.329.041-.575.041-.532 0-1.148.082-1.148-.082-.042-.247.656-.123.902-.123.41 0 .903-.083.821.164zm.82-.041c-.041.082-.205.082-.41.082-.082 0-.082 0-.124-.082 0-.123.205-.123.452-.123.082 0 .123.082.082.123zm1.026.041c-.042.041-.616.082-.657-.041-.04-.123.246-.165.494-.123.286 0 .245.123.163.164zm1.971.409c-.082.083-.698-.245-.986-.327-.205-.041-.369 0-.574-.041-.124-.041-.082-.164.041-.205.41-.083 1.641.451 1.519.573zm-4.147.575c-.04.123-.369.082-.574.082-.534 0-.78 0-.78-.164 0-.123.288-.04.534-.04.37 0 .862-.083.82.122zm1.396 0c-.04.123-.369.082-.575.082-.533 0-.533 0-.533-.082s.041-.122.328-.122c.329 0 .863-.083.78.122zm.903.041c-.082.123-.246.041-.452.041-.082 0-.123 0-.123-.082 0-.164.205-.122.493-.122.082 0 .124.081.082.163zm1.889.41c-.041.164-.328-.123-.615-.205-.206-.041-.699-.082-.862-.123-.124 0-.124-.164 0-.164.615-.081 1.517.328 1.477.492zm.081 1.026c0 .247-.451-.041-.739-.082-.246-.041-.615-.081-.943-.041-.124 0-.124-.205 0-.205.287-.04 1.682.165 1.682.328zm-2.174-.246c-.042.083-.288.083-.493.041-.083 0-.122-.041-.122-.082 0-.124.122-.124.368-.124.287-.041.287.083.247.165zm-1.93-.082c-.041.082-.411.041-.615 0-.533-.083-.944.165-.944-.083 0-.163.533-.122.779-.122.369.081.904 0 .78.205zm.945.041c-.042.124-.206.124-.411.082-.082 0-.122 0-.122-.082 0-.165.205-.165.492-.165.041.041.081.084.041.165zm.491-6.606c0 .164-.37.08-.615.121-.533.083-.575.124-.533 0 .081-.286 1.148-.328 1.148-.121zm.329.08c-.041 0-.083-.08 0-.123.205-.164.575-.041.616.043.083.08-.041.164-.083.164-.122-.043-.451-.043-.533-.084zm2.175.535c-.04.04-.452-.205-.656-.288-.328-.123-.657-.082-.657-.247 0-.327 1.6.247 1.313.535zm-2.626 1.642c-.042.081-.288 0-.534.04-.247 0-.411.082-.451-.082 0-.123.246-.082.533-.082.288-.041.574-.082.452.124zm.287.04c-.082 0-.082-.082 0-.164.246-.041.575 0 .657 0 .123.041.083.164-.041.164h-.616zm2.339.492c-.04.042-.328-.122-.575-.163-.246-.042-.327-.083-.369-.123-.122-.042-.04-.165 0-.165.083-.041 1.191.246.944.451zm-1.108-.492c-.041.164-.205.123-.287.082-.042 0-.083-.082-.042-.122.083-.083.329 0 .329.04zm-2.134-1.108c.082.163-.205.163-.287.163-.042 0-.083-.081-.042-.122.042-.124.287-.082.329-.041zm.411.082c-.042 0-.042-.082 0-.165.246-.081.861-.04.902 0 .165.083.082.206 0 .206-.369-.041-.82.04-.902-.041zm2.299.288c-.043.041-.494-.123-.699-.123-.247 0-.369-.041-.369-.123 0-.164.369-.123.656-.082.288.081.576.163.412.328zm.574.123c-.042.164-.205.082-.247.041-.041 0-.082-.123-.041-.164.041-.083.288.041.288.123zm-5.419 1.436c.328-.081.533.328.083.245-.165-.04-.165-.081-.165-.122 0-.042 0-.123.082-.123zm2.382.123c-.042.122-.739.082-.944.082-.534 0-.739 0-.779-.082 0-.123.287-.123.574-.123.244 0 1.23-.081 1.149.123zm1.107.082c-.041.04-.083.04-.328.04s-.41 0-.41-.081c0-.123.246-.123.492-.123.287 0 .287.082.246.164zm1.313.246c-.163.123-.246-.081-.533-.123-.205-.041-.451-.041-.615-.041-.124-.042-.083-.164.041-.206.698-.04 1.271.247 1.107.37zm.535.246c0 .123-.123.164-.247.042-.041 0-.081-.123-.041-.165.041-.083.246 0 .288.123zm-.042 4.105c-.081.164-.574-.082-.902-.123h-.411c-.124-.041-.124-.164 0-.205.411-.041 1.395.164 1.313.328zm-2.298-.205c-.041.082-.206.041-.41.041-.083 0-.37.082-.452 0-.042-.164.369-.164.493-.164.287-.041.41.041.369.123zm-1.436 0c-.083.123-.78 0-.985-.041-.411 0-.657.123-.657-.082.083-.124.739-.082.904-.041.368 0 .819-.041.738.164zm2.133-.123c.083.164-.205.164-.288.164-.042 0-.081-.082-.042-.123.084-.082.29-.082.33-.041zm4.145-7.553c.289 0 .33.082.33.165-.041.081-.412.041-.534.041-.369 0-.533.246-.698.205-.164-.04-.082-.165.082-.246.164-.083.493-.165.82-.165zm.78-.039s.451.039.533.08c.124.084.083.165.041.205-.042.042-.616-.04-.656-.04-.042 0-.083-.041-.083-.081.043-.125.043-.164.165-.164zm3.9.08c.122.041.164.247.04.247-.451.083-.532.042-.573-.042-.124-.246.491-.205.533-.205zm-1.643.084s.533 0 .616.04c.042 0 .122.123.042.206-.042.081-.698.081-.78-.165.041 0 0-.081.122-.081zm-1.149-.043s.451.043.574.043c.041 0 .164.081.124.163-.041.083-.698.083-.78-.163 0 .04-.041-.043.082-.043zm-1.189 1.109c.041-.164.45-.124.532-.041 0 0 .042.082-.04.123-.206.123-.533 0-.492-.082zm1.148.041c.124-.082.616 0 .453.164-.042 0-.37.082-.493 0-.042.041-.083-.041.04-.164zm1.602.081c.163.206-.412.206-.494.206s-.205-.041-.248-.082c.003-.205.619-.246.742-.124zm1.271-.081c.083.287-.409.246-.451.246-.082 0-.204 0-.245-.082-.042-.205.614-.329.696-.164zm-4.72-.246c.124 0 .37 0 .37.123-.083.164-.574.123-.698.164-.453.082-.533.246-.697.205-.165-.041-.082-.165.082-.246.206-.082.616-.246.943-.246zm2.135 1.313c0 .082-.04.123-.04.123-.042.042-.493.042-.575-.123 0-.041 0-.164.123-.123.163.042.492-.082.492.123zm.492-.081c.041 0 .822 0 .615.204-.04.042-.082.082-.164.082-.205 0-.532-.04-.574-.082-.041-.041-.041-.082 0-.164 0 0 .042-.04.123-.04zm1.068 0c.573.122.984-.083 1.024.081.042.123 0 .165 0 .165-.081.04-1.188.081-1.188-.083-.043-.123.081-.163.164-.163zm-2.546-.042c.124.205-.286.164-.327.164-.042 0-.164-.041-.164-.082-.043-.205.369-.205.491-.082zm-1.311-.123c.122 0 .286-.041.367.123-.123.205-.327.082-.697.164-.451.041-.451.164-.533.082s0-.164.164-.246.369-.123.699-.123zm.615 1.107c.041 0 .205 0 .287.083.04.041.04.123 0 .164-.535.082-.535-.041-.535-.041-.04-.206.165-.206.248-.206zm4.267.124c.247.123-.163.246-.451.165-.04 0-.082-.042-.082-.083-.041-.123.41-.164.533-.082zm-3.119-.124a.129.129 0 0 1 0 .247c-.041 0-.574.082-.574-.083 0-.245.533-.164.574-.164zm2.381.164c.041.165-.123.165-.246.125-.205 0-.739.04-.699-.083.041-.123.247-.042.289-.082.162-.041.615-.041.656.04zm-1.355.125c-.04.121-.615.04-.532-.125 0-.081.573-.164.532.125zm-3.078-.37c.123 0 .369 0 .369.164-.164.123-.328.041-.697.123-.328.083-.409.123-.369-.042-.001-.122.369-.245.697-.245zm.781 1.191s.45-.041.574.041c.041.041.123.082.041.205-.041.082-.698.082-.698-.082.042-.082 0-.164.083-.164zm1.148.082c.164-.041.656.082.451.246-.041.041-.41 0-.533-.082-.041-.041-.082-.123.082-.164zm.944.041c.123-.041.575.082.369.205-.04.041-.328.041-.41 0 0-.041-.081-.164.041-.205zm1.273.082c-.164.041-.369.082-.411.164 0 .082.123.082.452.082.163 0 .656.081.779.041.123-.041.123-.164.082-.164-.246-.082-.494-.205-.902-.123zm-4.105-.205c.123 0 .37-.083.328.123-.122.164-.328.123-.697.164-.328.082-.409.123-.409-.041.08-.123.491-.246.778-.246zm.904 1.312h.287c.123 0 .082.165.082.205 0 .041-.205.041-.369.041-.082 0-.205-.041-.205-.164-.042-.123.081-.082.205-.082zm.861 0c.041 0 .739 0 .574.205-.041.041-.083.083-.123.083-.163 0-.492-.042-.533-.083-.041-.04-.041-.082 0-.123 0-.041.041-.082.082-.082zm1.067.041c.123-.041.575.124.411.287-.042 0-.37 0-.493-.082 0-.081-.04-.164.082-.205zm.985.082c.042 0 .821 0 .616.205-.041.042-.082.082-.164.082-.206 0-.533-.04-.575-.082-.042-.04-.042-.082 0-.163 0 0 .082-.042.123-.042zm-3.858-.205c.164 0 .411-.082.369.123-.122.164-.245.082-.615.164-.328.083-.41.123-.41-.04.081-.124.328-.206.656-.247zm4.843.247c.123-.042.574.081.369.205-.042.04-.328.04-.41 0-.041 0-.083-.124.041-.205zm-2.586 1.025c.04 0 .738 0 .574.206-.041.04-.081.08-.123.08-.163 0-.492-.04-.533-.08-.041-.041-.041-.082 0-.124 0-.041.041-.041.082-.082zm1.15.124c.206-.042.616.041.575.205-.043.123-.165.041-.247.041-.164 0-.616.082-.574-.124.041-.081.205-.122.246-.122zm.862.247c0 .123.533.286.533.082 0-.082-.452-.371-.533-.082zm-2.587-.371s-.368-.081-.532-.041c-.041 0-.123.082-.084.165.041.082.616.122.658-.042 0 0 .041-.041-.042-.082zm-1.435-.081c.122 0 .615 0 .615.205-.081.162-.451 0-.944.082-.327.04-.41.123-.41-.041-.001-.165.41-.246.739-.246zm1.149 1.149c.164-.041.697.041.492.246-.041.041-.452 0-.574-.082 0-.041-.041-.123.082-.164zm1.108.123c.123-.043.574.082.369.205-.041.041-.369 0-.451-.082 0 0-.041-.082.082-.123zm1.354.246c.124.205-.37.164-.41.164-.041 0-.164-.042-.164-.123.04-.205.493-.205.574-.041zm.329.124c0 .122.328.204.328 0 0-.042-.287-.247-.328 0zm-4.598-.452c.041 0 1.314-.205 1.231.041 0 .042.041.083-.657.123-.164 0-.697.123-.738.082.041-.041-.041-.164.164-.246zm1.438 2.052s.451-.041.573.042c.042.041.124.082.042.205-.042.082-.699.041-.699-.123.002-.001-.039-.082.084-.124zm1.23.165c.04 0 .738.041.533.204-.041.041-.082.041-.123.041-.164 0-.492-.041-.533-.081-.04-.042-.041-.084 0-.123 0 0 .041-.041.123-.041zm1.272.369c-.205-.041-.491-.124-.451-.247.041-.081.246.042.328 0 .411 0 .452.328.123.247zm1.025.123c-.204 0-.491-.082-.491-.205.041-.123.206 0 .247-.042.492-.163.574.247.244.247zm-4.103-.574c.043.123-.162.123-.492.082-.328 0-.574.287-.656.082-.04-.082.041-.123.205-.205.206-.042.943-.083.943.041zm.78-1.151c.042 0 .533 0 .411.164 0 .041-.084.082-.123.041-.123 0-.369-.041-.41-.041-.043-.041 0-.082 0-.123.041 0 .082 0 .122-.041zm.821.083c.123-.042.861.042.656.288-.041 0-.615-.041-.697-.123-.041-.002-.082-.125.041-.165zm1.601.205c.124 0 .657.083.616.288 0 .041-.206.041-.287 0-.289-.082-.453-.123-.698-.123-.083 0-.083-.082-.083-.165.083-.042.37 0 .452 0zm-2.955-.165c0 .205-.287.123-.615.123-.329 0-.575.246-.657.04-.041-.081.041-.122.205-.204s1.025-.082 1.067.041zm3.448 2.217c.041 0 .82.042.573.247-.04.042-.082.083-.165.083-.204 0-.531-.041-.572-.125-.043-.039-.043-.082 0-.162.041-.002.122-.043.164-.043zm-.533.164c-.084.123-.616.041-.534-.164.04-.041.614-.123.534.164zm-1.397-.328c.041 0 .738.041.534.205-.042.041-.083.041-.124.041-.164 0-.492-.041-.533-.083-.041-.04-.041-.081 0-.122.041-.04.082-.041.123-.041zm-.656-.041c.122.205-.287.164-.328.123-.041 0-.164-.041-.164-.082-.041-.205.41-.205.492-.041zm-1.477-.083c.122 0 .368-.081.368.124-.122.163-.327.082-.697.163-.328.083-.41.123-.41-.04.04-.123.41-.247.739-.247zm-.535 1.109s.369-.122.575-.083c.04 0 .082.041.04.164-.164 0-.574.041-.656.123 0 .002-.041-.163.041-.204zm-4.637-3.407c.205-.041.657.205.165.246-.041 0-.328 0-.37-.041-.164-.164.164-.205.205-.205zm-.574.124c0 .122-.534.122-.985.082-.533-.04-.821 0-.821-.122.042-.205.534-.083.78-.042.369-.001 1.026-.165 1.026.082zm2.955.205c-.041.205-.78-.042-1.108-.083-.246 0-.452 0-.492-.041-.123-.041-.123-.164 0-.205.245-.041 1.6.164 1.6.329zm.657.368c-.042.084-.165 0-.328-.041-.084 0-.164-.04-.124-.164.081-.121.246 0 .329.042.123.04.163.122.123.163zm-1.314 1.766c0 .164-.78-.084-1.149-.084h-.698c-.122 0-.122-.205 0-.205.411-.08 1.847.043 1.847.289zm-2.257-.165c0 .083-.494.083-.986.042-.82 0-.862-.042-.82-.164.041-.163.493-.123.78-.123.369 0 1.026 0 1.026.245zm3.611.575c-.082.082-.328-.123-.532-.123-.083 0-.329-.041-.289-.122 0-.123.205-.123.453-.042.246.041.451.164.368.287zm-.738-1.394c-.042.287-.328-.042-1.109-.082-.246 0-.451 0-.492-.043-.123-.04-.123-.162 0-.205.41-.082 1.642.124 1.601.33zm-2.257-.412c.205-.039.698.206.164.247-.042 0-.329 0-.37-.041-.205-.165.123-.206.206-.206zm-.657.084c0 .163-.863.082-1.068.041-.533-.041-.739.041-.739-.164.042-.205.534-.082.78-.041.37.04 1.027-.084 1.027.164zm3.406.41c.206.041.493.492.041.287-.041 0-.287-.122-.287-.164-.124-.247.205-.123.246-.123zm.164 3.816c.042 0 .124 0 .042.123-.083.123-1.438-.123-1.478-.123-.124-.041-.124-.041-.124-.164.042-.082.124-.042.165-.042.041 0 1.355.206 1.395.206zm-2.011-.164c-.04.083-.656.083-.616-.042 0-.163.165-.081.411-.081.246 0 .246.081.205.123zm4.309 0c.123 0 .246-.082.206.123-.042.122-.206.082-.575.164-.328.082-.41.163-.369-.042.04-.122.411-.245.738-.245zm-.041-.984c.125 0 .287-.043.247.122-.083.082-.288.041-.616.123-.328.081-.369.163-.369 0 .04-.123.452-.245.738-.245z" fill="#00467F"/><g fill="#00467F"><path d="M14.856 13.707s-.041.083-.041.248v1.558h.041c-.041-.041-.041-.985-.041-.985v-.573c.001-.124.041-.205.041-.248.288-.041 1.109-.164 1.272-.082.042.041.083.288.083.616 0 .493-.041 1.108-.083 1.149 0 .041-.286.082-.615.082.288 0 .575-.041.615-.082.042-.041.083-.656.083-1.149 0-.328 0-.575-.083-.616-.204-.082-.983.041-1.272.082zm0 0zm0 1.807c.083.041.37.041.657 0h-.657z"/><path d="M14.816 13.625c-.124.041-.124.082-.082.863v1.025c.041.164.205.164.369.123l.288-.041h.289c.533 0 .615 0 .657-.123v-.328l-.042-.656c.042-.902-.083-.945-.124-.986-.247-.081-1.109.084-1.355.123zm1.272.125v.738l.04.697v.164c-.082 0-.451.041-.451.041h-.289l-.287.041h-.165c.042 0 .042-.246.042-.369V13.79c.331-.04.987-.124 1.11-.04z"/></g><path fill="#00467F" d="M40.22 19.822a16.286 16.286 0 0 1-.205-2.627c0-.737-.041-1.23-.205-1.559v.041l-1.559-3.775c-.329-1.108-2.997-4.268-3.161-4.433-.327-.492-2.134-1.847-2.667-2.134L30.412 3.94c-.821-.575-2.134-1.108-3.242-1.478l-1.232-.41c-1.6-.534-4.104-.616-4.431-.575h-.903c-.328-.041-2.833.041-4.351.616l-.944.329c-1.19.328-2.299.656-3.119 1.272 0 0-2.257 1.559-2.341 1.642-.533.287-2.873 1.97-3.159 2.42v-.04c-.124.164-2.545 3.036-2.874 4.144l-1.56 3.817v-.041c-.165.328-.123.943-.165 1.684 0 .697-.082 1.477-.246 2.502-.123.821-.041 1.561.083 2.422.123.861.123 1.929.287 2.668.123.656.329 1.232.37 1.643.206 1.025.739 2.421 1.026 2.789.206.289.575.78.575.78.328.411.698.943.903 1.313.247.369.328.615.493.902.246.453.493.862.739 1.23.246.37.533.699.902.986.083.082.945.656 1.355.902.493.328.616.41.738.495l.288.286c.821.821 1.437 1.479 1.969 1.766.205.121.738.246.903.246s.328-.043.451-.123c.206-.123.37-.328.451-.697 0-.041.124-.289.246-.576.165.041.411.247.575.411l-.165.491c-.082.328-.04.66.165.945.862 1.148 4.145 1.561 6.977 1.477 2.914.084 6.607-.78 7.059-1.888a.57.57 0 0 0-.123-.615c-.041-.041-.082-.123-.122-.163 0-.043.042-.043.081-.082.123-.083.288 0 .371-.041.123.205.245.449.368.695.042.123.165.166.287.206.862.124 3.571-2.257 3.612-2.298.082-.083.616-.533 1.067-.861.411-.247.738-.494.86-.576.74-.615 1.273-1.312 1.808-2.215a22.55 22.55 0 0 1 1.395-2.216l.042-.083c.574-.779 1.395-2.38 1.518-3.488.041-.41.164-.985.289-1.643.409-1.515.778-3.445.532-5.088zM14.282 37.02a1.512 1.512 0 0 0-.574-.328c.574-1.354.821-2.011.903-2.34v-.164l-.124-.247c-.083-.123-.247-.37-.247-.575 0-.287.083-.246.207-.246.122 0 .698.123 1.066.328.288.123.493.411.615.574.042.041.042.164-.04.247-.083.083-.123.083-.289.163a3.38 3.38 0 0 0-.491.329c-.329.122-.577.697-.904 1.724 0 .041 0 .041-.041.083-.042.122-.081.204-.081.327.042.001 0 .043 0 .125zm-.328-3.366c-.205-.122-.369-.205-.656-.369-.411-.287-1.355-1.068-1.806-1.314-.288-.163-.328-.326-.657-.697-.288-.328-.616-.656-.903-.861-.37-.288-.985-1.231-1.191-1.561-.738-1.189-1.888-3.447-2.134-5.704-.041-.287-.041-1.026-.041-1.683 0-.574 0-1.067-.041-1.272.041-.451.164-1.683.287-2.011.081-.246.164-.697.246-1.107.083-.329.164-.821.247-1.027 0 0 .329-.943.534-1.354l1.026-1.929s.534-1.107.944-1.52l.41-.409c.411-.452.862-.944 1.272-1.231.656-.492 1.682-1.189 2.627-1.643l1.231-.615c.451-.205.697-.327 1.066-.451.041 0 2.503-.779 4.187-.902a5.108 5.108 0 0 0-.287.861s-.37.083-.904.083c-.287 0-1.149.163-1.149.163.617.904 1.109 1.479 1.395 1.725 0 0-.286 1.765-.286 1.97.041 0 .942-.492 1.271-.657.289-.166.658-.289.699-.289 0 0 .861.369 1.066.493.492.286.781.451.902.492v-.041s-.45-1.847-.45-1.97c0 0 .246-.246.369-.41.246-.328.534-.534.697-.739.165-.205.493-.534.493-.575 0 0-2.012-.246-2.135-.286 0 0-.205-.452-.369-.821.411.041.657.082 1.149.123h.041c1.19.205 2.545.698 3.161.943 0 0 .492.206.531.206.041 0 .863.37.863.37a8.009 8.009 0 0 1 1.271.779l.289.205c.615.451 1.969 1.312 2.175 1.683l.327.45c.206.247.329.576.411.862.204.452.615 1.026 1.067 1.52.287.368.574.697.738.984 0 0 .533.78.656 1.478.123.902.369 2.258.493 2.668.656 2.175.452 3.324.206 4.473-.084.369-.247.863-.289 1.19-.041.37-.122.862-.369 1.355-.082.204-.287.655-.369.901-.122.411-.246.822-.492 1.15-.082.123-.246.41-.492.777-.575.905-1.396 2.258-2.135 3.162-.246.287-.861.779-1.354 1.189-.329.247-.576.494-.74.617-.205.205-.615.49-.984.778v-.082c0-.041 0-.083-.041-.164-.041-.122-.122-.247-.369-.327-.287-.083-.533.041-.902.205-.246.08-.576.246-.944.615-.164.123-.41.367-.329.572.042.124.206.29.371.371-.862.246-1.725.533-2.013.574-.204.041-.902.246-1.354.329-.493.081-1.026.163-1.272.163-1.067.043-2.585-.369-2.914-.533-.739-.287-1.682-.616-2.339-.78h.041c.246-.124.41-.245.451-.45.041-.123.041-.289-.165-.493-.205-.205-.493-.452-.78-.575-.082-.041-.739-.287-1.026-.287-.205 0-.328 0-.411.041-.123.082-.163.164-.163.328-.038.045.005.168.045.291zm7.182-25.733c-.205-.165-.698-.984-.698-.984.042-.123.698-1.56.698-1.56.041.246.041.779.041 1.271s-.041 1.027-.041 1.273zm-2.503-.575c.205.042.862.247.862.247.493.163.903.368 1.436.493-.082.164-.246.451-.246.451l-1.19 1.806s.327-1.724.327-1.765c-.041-.082-.697-.657-1.189-1.232zm4.556.534c0 .081-.412.534-.412.534-.082 0-1.312-.289-1.436-.328 0 0 .493-.945.698-1.027l1.765.164c-.123.042-.656.206-1.109.329-.533.204-1.025.409-1.025.409s1.355-.081 1.519-.081zm-.412 2.463c-.121-.041-1.354-.698-1.354-.698-.04-.041-.205-1.312-.205-1.559l1.559 2.257zm5.172 27.784c-.287.699-3.324 1.846-6.402 1.766-3.201.08-6.32-.411-6.977-1.271-.082-.126-.165-.454-.165-.576 0-.041 0-.123.042-.205l.165-.533v-.082c.286-.984.615-2.136.861-2.176.246 0 .246-.121 1.477.328.453.246 2.832.942 3.326.942.368.044 1.723 0 2.258-.081.451-.08.777-.205.984-.205.409-.04 2.709-.738 3.077-.861 0 0 .042 0 .042.041.082.082.162.328.246.574.041.082.041.123.041.206.04.122.082.288.123.45 0 .043.041.082.041.124l.123.369c.041.04.041.123.082.163a.684.684 0 0 0 .164.289.304.304 0 0 1 .082.164c.041.041.041.082.082.121l.288.41c.04.002.04.043.04.043zm.082-.984c-.082.042-.122.083-.164.122a3.142 3.142 0 0 1-.287-.655c0-.041-.041-.084-.041-.084-.041-.082-.082-.162-.082-.287-.042-.08-.042-.123-.082-.205 0-.04-.041-.081-.041-.123-.164-.533-.287-.942-.574-1.066h-.125c-.369 0-.738-.123-.779-.287 0-.041.041-.165.082-.205.37-.328.533-.534.739-.616.163-.082.534-.247.944-.165.082.042.123.165.123.165v.041c0 .164-.165.411-.289.534-.204.162-.287.326-.287.532 0 .329.247.698.576 1.189.164.247.369.575.615.986a1.381 1.381 0 0 0-.328.124zM39.4 24.871c-.123.657-.246 1.23-.287 1.684-.164 1.6-.74 2.338-1.438 3.282l-.041.082c-.697.862-1.107 1.601-1.477 2.257-.492.863-.861 1.561-1.561 2.094-.082.082-.451.328-.82.574-.698.453-1.148.779-1.272.861-.698.658-2.914 2.34-3.284 2.176-.492-.942-.902-1.6-1.189-2.094-.369-.574-.492-.819-.492-.983 0-.123.041-.165.164-.288.083-.082 1.026-.779 1.396-1.148.122-.123.575-.41.903-.657.533-.452 1.436-1.478 1.723-1.765.739-.902 1.19-1.6 1.725-2.504.205-.369.616-.984.698-1.066.287-.369.369-.657.491-1.067.084-.247.248-.534.329-.698.247-.576.37-1.23.411-1.642.041-.327.041-.451.082-.78.123-.615.37-1.519.37-2.422 0-.738-.124-1.312-.411-2.339-.123-.409-.37-1.806-.492-2.667-.123-.78-.615-1.807-.656-1.847-.205-.329-.533-.657-.863-1.026-.41-.493-.779-1.066-.943-1.479-.123-.328-.369-.615-.574-.902l-.328-.41c-.246-.37-1.19-1.067-2.094-1.724l-.33-.166c-.247-.164-.82-.492-1.479-.861l-.82-.451-.574-.205c-.574-.206-2.094-.698-2.627-.821-.615-.082-1.107-.206-1.888-.247a.8.8 0 0 1-.081-.245c-.042-.165-.288-.534-.371-.78-.123.083-.369.533-.574 1.025-1.683.123-4.063.781-4.185.781-.411.123-.658.246-1.109.492l-1.806.902c-1.189.575-1.805 1.108-2.134 1.354-.451.329-.78.574-1.231 1.067l-.411.41c-.451.452-1.231 1.972-1.231 2.012l-.699 1.19c-.246.41-.943 2.217-.943 2.258-.083.205-.164.533-.247.903-.082.368-.247.737-.247.984-.082 1.437-.205 2.052-.205 2.257 0 .205-.082.739-.041 1.149.041.697 0 1.437.041 1.724.124 1.312.903 3.53 1.642 4.762.042.04.575 1.23 1.929 2.79.206.246.739.698 1.026.985.369.369.493.573.821.778.411.249.821.534 1.19.821.451.328.902.616 1.353.904 0 .041 0 .082-.04.122v.042c0 .041-.041.121-.082.205 0 .041 0 .041-.042.082-.041.08-.041.164-.081.246v.04c-.042.084-.082.205-.125.288 0 .041-.04.041-.04.082-.042.084-.083.205-.123.289-.042.041-.042.121-.083.162-.04.085-.04.123-.082.206.041.165 0 .205 0 .247 0 .041-.042.082-.042.123a2.7 2.7 0 0 0-.163.41v.082c-.206.452-.247.575-.247.658-.04.204-.123.369-.245.45-.166.081-.329.163-.657.042-.452-.166-.78-.533-1.231-.945a10.452 10.452 0 0 1-.945-.942l-.492-.411c-.124-.123-.369-.327-1.067-.78-.165-.122-.328-.162-.451-.286-.165-.123-.533-.493-.575-.533-.698-.533-.862-.943-1.314-1.807-.369-.656-.903-1.6-1.066-1.805l-.411-.533c-.698-.945-1.273-1.724-1.437-3.324-.041-.452-.206-.821-.328-1.479-.083-.287-.083-.82-.165-1.148-.247-1.313-.452-2.75-.247-4.023.164-1.064.164-1.723.164-2.461-.164-.616-.164-1.149-.041-1.396l.041-.247 1.354-3.57c.165-.533 1.231-2.257 1.641-2.873.415-.573 1.523-1.763 1.523-1.803.205-.328 2.052-1.602 2.586-1.889l2.338-1.642c.781-.534 2.257-1.026 3.325-1.354l.78-.246c1.519-.534 3.776-.698 4.064-.698h.943c.288-.041 2.956.165 4.474.698l.984.205c1.068.329 2.381.862 3.161 1.396l2.503 1.684c-.328-.165 2.094 1.188 2.627 2.052.041.04 2.709 3.406 2.996 4.473l1.312 3.365c.123.247.165.944.165 1.602 0 .697.163 1.682.329 2.75.452 1.596-.04 3.401-.327 4.92z"/><path d="M20.111 25.773c-.041.164-.78-.122-1.109-.164-.247 0-.862-.041-.902-.041-.124 0-.165-.164-.083-.164.369-.082 2.134.164 2.094.369zm-3.571-.327c0 .163 0 0-.78 0-.821 0-.862 0-.821-.123.042-.163.533-.082.779-.082.37.041.822-.042.822.205zm.492-.042c.042-.082.534-.082.534.042 0 .122-.082.083-.328.083-.329-.001-.289-.043-.206-.125zM21.095.78c-.205 0-.369-.164-.369-.41 0-.205.164-.37.41-.37.205 0 .37.165.37.411-.042.205-.206.369-.411.369zm-1.394.041c-.206 0-.412-.164-.412-.369s.123-.411.369-.411c.207 0 .412.164.412.37.041.205-.124.369-.369.41zm-1.356.122a.346.346 0 0 1-.41-.328c-.042-.205.122-.411.327-.451.206-.042.411.123.452.328-.04.246-.164.411-.369.451zm-1.396.206a.377.377 0 0 1-.451-.287.38.38 0 0 1 .74-.165c.081.206-.083.411-.289.452zm-1.353.329a.446.446 0 0 1-.493-.287c-.041-.206.042-.411.288-.493a.446.446 0 0 1 .493.288c.04.245-.083.451-.288.492zm-1.314.411c-.206.081-.411-.042-.493-.247s.042-.411.246-.492c.205-.082.411.042.493.246.041.205-.041.451-.246.493zm-1.313.533c-.206.082-.411 0-.493-.206-.083-.206 0-.41.206-.492.205-.083.41 0 .492.205.082.164 0 .369-.205.493zm-1.231.574c-.206.083-.41.042-.534-.164-.082-.205-.041-.41.164-.534.206-.082.411-.041.533.164.082.206.001.452-.163.534zm-1.232.698c-.205.123-.41.041-.534-.124-.122-.164-.04-.41.125-.533.205-.123.41-.042.533.123.122.165.082.411-.124.534zm-1.149.739a.388.388 0 0 1-.533-.082.39.39 0 0 1 .082-.534.387.387 0 0 1 .533.082.39.39 0 0 1-.082.534zm-1.108.862c-.164.123-.41.123-.534-.042-.123-.165-.123-.41.042-.533.163-.123.411-.123.533.042a.384.384 0 0 1-.041.533zm-1.067.902a.383.383 0 0 1-.533 0 .383.383 0 0 1 0-.533.382.382 0 0 1 .533 0c.164.164.164.369 0 .533zm-.985.986c-.164.163-.369.163-.534 0a.39.39 0 0 1-.041-.535c.165-.164.411-.164.534 0a.352.352 0 0 1 .041.535zM5.294 8.25a.35.35 0 0 1-.533.04.35.35 0 0 1-.041-.534.35.35 0 0 1 .533-.04c.123.124.164.329.041.534zm-.862 1.066c-.122.164-.369.205-.533.082s-.205-.369-.082-.533a.389.389 0 0 1 .533-.082.387.387 0 0 1 .082.533zm-.738 1.191c-.123.206-.328.245-.533.122-.164-.122-.246-.327-.123-.532.123-.206.369-.247.533-.124.163.124.246.329.123.534zm-.698 1.19c-.082.205-.328.246-.534.163-.205-.081-.287-.327-.164-.532.083-.205.329-.246.533-.164.206.123.288.369.165.533zm-.575 1.273c-.083.204-.329.286-.493.204-.205-.082-.288-.287-.205-.492.082-.205.328-.287.492-.205.206.082.288.287.206.493zm-.533 1.271c-.083.206-.288.287-.493.247-.205-.083-.328-.287-.246-.492.082-.206.288-.33.492-.246.247.081.329.286.247.491zm-.41 1.355c-.041.205-.247.328-.493.287a.467.467 0 0 1-.247-.492.446.446 0 0 1 .493-.287c.206.082.329.287.247.492zm-.329 1.353a.38.38 0 0 1-.452.289.382.382 0 0 1-.288-.453.379.379 0 0 1 .451-.287c.207.042.371.247.289.451zm-.206 1.356c-.041.205-.205.369-.41.328-.206-.041-.37-.206-.329-.451.042-.205.206-.37.452-.328.164.041.329.246.287.451zM.82 19.701c0 .204-.205.367-.41.367-.206 0-.37-.204-.37-.41 0-.205.206-.369.411-.369.206 0 .369.206.369.412zm-.041 1.395c0 .205-.164.369-.369.41-.205 0-.41-.164-.41-.369s.164-.41.369-.41c.247-.043.41.123.41.369zM.82 22.49c0 .205-.123.41-.369.41-.247 0-.411-.122-.411-.369 0-.205.124-.41.37-.41.206 0 .41.164.41.369zm.165 1.355c.042.206-.123.411-.328.452-.206.041-.411-.124-.452-.329-.041-.204.124-.41.329-.451.204-.041.409.124.451.328zm.246 1.396a.378.378 0 1 1-.739.163.378.378 0 0 1 .287-.451c.206-.082.411.082.452.288zm.329 1.354c.041.204-.042.411-.246.493-.206.041-.411-.042-.494-.246-.083-.206.041-.412.246-.493.247-.082.452 0 .494.246zm.451 1.313c.082.205-.042.41-.247.494-.205.082-.41-.042-.492-.246-.082-.206.041-.411.246-.494.206-.082.411.041.493.246zm.492 1.273c.082.205 0 .41-.206.491a.36.36 0 0 1-.492-.204c-.082-.205 0-.411.206-.492.205-.083.41 0 .492.205zm.616 1.231c.123.205.041.41-.165.533-.205.082-.41.039-.533-.166-.083-.205-.041-.41.164-.531.206-.082.452 0 .534.164zm.698 1.231c.123.164.041.41-.124.533s-.41.082-.533-.123c-.123-.164-.041-.41.123-.533.205-.124.451-.082.534.123zm.779 1.15a.388.388 0 0 1-.082.533.389.389 0 0 1-.533-.084.386.386 0 0 1 .083-.532.387.387 0 0 1 .532.083zm.862 1.107c.123.162.123.41-.042.533s-.41.123-.533-.042c-.124-.163-.124-.409.041-.533a.352.352 0 0 1 .534.042zm.944 1.028c.165.161.124.408 0 .531-.164.164-.411.164-.534 0-.163-.164-.163-.41 0-.531.124-.165.37-.165.534 0zm.985.983c.165.165.165.37.041.534a.388.388 0 0 1-.534.041.385.385 0 0 1-.041-.532c.124-.208.37-.208.534-.043zm1.068.862a.389.389 0 0 1 .082.533.389.389 0 0 1-.533.082.39.39 0 0 1-.083-.533.39.39 0 0 1 .534-.082zm1.107.862a.388.388 0 0 1 .082.532.39.39 0 0 1-.533.084.39.39 0 0 1-.083-.534.391.391 0 0 1 .534-.082zm1.19.739c.206.121.246.329.123.532-.123.166-.328.246-.533.123-.206-.123-.246-.326-.123-.534.123-.203.328-.244.533-.121zm1.231.655c.206.083.288.329.165.534-.082.206-.328.288-.534.165-.205-.083-.286-.329-.163-.535.081-.204.327-.287.532-.164zm1.232.578c.205.08.287.285.205.49-.083.205-.288.288-.493.205-.205-.081-.287-.287-.205-.493.083-.202.329-.287.493-.202zm1.314.491c.205.082.328.288.246.491-.083.207-.287.33-.492.249-.206-.085-.328-.288-.247-.493.083-.206.288-.329.493-.247zm1.353.37a.376.376 0 0 1 .288.451c-.04.204-.247.327-.452.286a.378.378 0 0 1 .164-.737zm1.356.328c.205.042.328.244.328.45-.042.208-.246.37-.451.329-.206-.042-.37-.247-.328-.452.04-.247.245-.37.451-.327zm1.353.204c.206.04.37.205.329.41-.041.206-.205.371-.41.329-.206-.041-.37-.206-.329-.411 0-.205.205-.369.41-.328zm1.396.082c.206 0 .369.205.369.41 0 .206-.205.368-.41.368s-.369-.206-.369-.408c0-.206.204-.37.41-.37zm1.395.041c.205 0 .369.164.41.369 0 .206-.164.412-.369.412s-.41-.165-.41-.371c0-.205.164-.41.369-.41zm1.395-.083c.207 0 .412.124.412.329 0 .206-.123.412-.328.412s-.411-.124-.411-.371c-.042-.164.123-.37.327-.37zm1.355-.164c.205-.04.409.124.451.329.041.205-.123.411-.328.449-.205.044-.411-.121-.451-.326 0-.246.122-.409.328-.452zm1.396-.287a.381.381 0 0 1 .451.289.378.378 0 0 1-.287.453.381.381 0 0 1-.451-.291c-.042-.202.081-.367.287-.451zm1.313-.327c.205-.082.41.041.492.245.081.205-.041.412-.246.493-.205.084-.41-.041-.493-.247-.04-.246.042-.45.247-.491zm1.313-.452c.205-.081.41.042.493.206.082.206 0 .41-.206.493-.205.082-.41-.041-.492-.206-.082-.205.041-.451.205-.493zm1.272-.576c.205-.082.41 0 .493.165.082.205 0 .408-.205.531-.205.083-.41 0-.534-.202 0-.165.082-.37.246-.494zm1.273-.613c.205-.126.41-.044.533.162.123.205.041.41-.164.531-.205.126-.41.044-.533-.162-.082-.205-.041-.449.164-.531zm1.189-.699a.367.367 0 0 1 .534.123.363.363 0 0 1-.123.532c-.164.124-.411.083-.533-.12-.124-.206-.042-.453.122-.535zm1.151-.821a.39.39 0 0 1 .533.084.387.387 0 0 1-.082.532.387.387 0 0 1-.533-.082.39.39 0 0 1 .082-.534zm1.066-.861c.164-.124.41-.124.533.041.123.164.123.41-.041.533-.163.122-.41.122-.532-.041a.385.385 0 0 1 .04-.533zm1.026-.943c.165-.164.411-.164.534 0 .163.162.163.408 0 .531-.165.165-.411.165-.534 0-.165-.123-.165-.369 0-.531zm.945-1.027c.123-.162.369-.162.533-.041.164.123.164.369.041.534s-.369.165-.533.041c-.165-.123-.165-.37-.041-.534zm.902-1.068c.123-.163.369-.204.533-.082s.206.37.082.533a.39.39 0 0 1-.533.083c-.205-.124-.205-.369-.082-.534zm.821-1.108a.45.45 0 0 1 .534-.123c.162.123.246.369.122.534-.122.165-.37.247-.533.122-.205-.122-.247-.369-.123-.533zm.697-1.19c.124-.206.329-.246.535-.164.204.123.246.328.164.533-.123.205-.328.246-.533.122-.206-.081-.246-.327-.166-.491zm.658-1.232c.081-.204.328-.286.533-.164.205.084.287.329.164.535-.082.205-.329.287-.533.164-.164-.124-.246-.328-.164-.535zm.533-1.272a.36.36 0 0 1 .492-.205c.205.082.287.287.205.492s-.287.289-.492.205c-.164-.081-.246-.287-.205-.492zm.492-1.312c.082-.205.287-.328.492-.246s.328.287.246.492c-.082.206-.287.328-.492.246s-.328-.287-.246-.492zm.369-1.356a.379.379 0 1 1 .739.165.377.377 0 0 1-.451.286c-.206-.038-.329-.245-.288-.451zm.288-1.353c.04-.206.246-.369.451-.328.204.041.369.246.328.451s-.247.37-.452.328c-.246-.041-.368-.246-.327-.451zm.206-1.395c.041-.206.205-.369.41-.329.205.041.37.206.327.411-.04.205-.204.369-.41.328-.205.001-.369-.165-.327-.41zm.081-1.355c0-.205.165-.369.411-.369.205 0 .37.164.37.41 0 .205-.206.369-.412.369-.204-.041-.369-.205-.369-.41zm0-1.396c0-.206.165-.411.369-.411.206 0 .412.165.412.37s-.165.411-.37.411c-.246.001-.411-.165-.411-.37zM41 18.838c-.041-.205.123-.411.328-.411.206-.04.411.124.411.329.04.205-.123.41-.327.41-.205.041-.37-.123-.412-.328zm-.164-1.395c-.041-.205.082-.411.327-.452.205-.042.411.083.452.329.041.204-.124.409-.328.451-.245.041-.411-.123-.451-.328zm-.288-1.354a.378.378 0 0 1 .288-.452.378.378 0 1 1 .163.738.378.378 0 0 1-.451-.286zm-.41-1.314c-.082-.205.041-.41.246-.492.206-.082.411.04.492.245.082.206-.04.41-.246.493-.205.041-.41-.041-.492-.246zm-.451-1.314c-.083-.205 0-.41.205-.491.205-.083.41 0 .492.204.082.205 0 .412-.205.492a.36.36 0 0 1-.492-.205zm-.574-1.272c-.082-.205 0-.41.164-.492.205-.083.41 0 .533.163.082.206 0 .411-.165.534a.528.528 0 0 1-.532-.205zm-.657-1.23c-.122-.207-.04-.411.122-.534.206-.123.41-.042.535.123.121.204.039.411-.166.534-.122.122-.367.041-.491-.123zm-.699-1.191c-.122-.164-.082-.41.123-.533.164-.123.41-.082.535.123.122.164.08.41-.125.533s-.41.041-.533-.123zm-.82-1.149a.388.388 0 0 1 .083-.533c.164-.125.41-.125.533.082a.389.389 0 0 1-.083.533c-.164.123-.41.123-.533-.082zm-.903-1.067a.351.351 0 0 1 .042-.533c.163-.124.41-.124.533.04.122.164.122.411-.041.534-.123.163-.369.123-.534-.041zm-.944-.985c-.164-.165-.164-.411 0-.534.164-.164.41-.164.533 0s.164.41 0 .534c-.123.122-.369.122-.533 0zm-1.025-.944c-.165-.124-.165-.37-.042-.535a.35.35 0 0 1 .533-.039c.164.123.164.369.041.533s-.368.164-.532.041zm-1.108-.861a.39.39 0 0 1-.082-.535.386.386 0 0 1 .533-.08.387.387 0 0 1 .082.532c-.123.164-.328.205-.533.083zm-1.11-.822c-.164-.123-.246-.37-.123-.534.123-.164.37-.246.535-.123.164.123.245.369.122.534a.367.367 0 0 1-.534.123zm-1.23-.698c-.205-.123-.246-.328-.164-.534.123-.205.328-.246.532-.164.206.123.247.328.164.533-.081.207-.327.289-.532.165zm-1.232-.615c-.205-.082-.287-.329-.205-.493.082-.205.329-.287.493-.205.205.082.287.328.205.533-.082.165-.288.246-.493.165zm-1.272-.534c-.204-.083-.287-.329-.204-.493.082-.205.286-.287.493-.205.205.082.286.288.205.493-.083.165-.289.287-.494.205zm-1.315-.451c-.204-.082-.326-.287-.244-.492.04-.206.287-.329.492-.247.205.083.328.288.246.493-.082.205-.287.287-.494.246zm-1.352-.37a.38.38 0 0 1-.288-.452.378.378 0 1 1 .739.165c-.04.206-.205.328-.451.287zm-1.355-.246c-.205-.041-.369-.247-.328-.452s.246-.37.451-.328c.205.041.369.246.327.451-.04.206-.245.37-.45.329zM22.695.862c-.204 0-.368-.205-.368-.411 0-.205.206-.37.411-.37.204 0 .368.206.368.411s-.164.37-.411.37z" fill="#00467F"/></svg>