<?xml version="1.0" encoding="utf-8"?>
<!-- Generator: Adobe Illustrator 24.1.0, SVG Export Plug-In . SVG Version: 6.00 Build 0)  -->
<svg version="1.1" id="Layer_1" xmlns="http://www.w3.org/2000/svg" x="0px" y="0px"
	 viewBox="0 0 400 80" height="80" width="400" style="enable-background:new 0 0 400 80;" xml:space="preserve">
<style type="text/css">
	.st0{fill:#FFFFFF;}
	.st1{fill:#8D1844;}
	.st2{font-family:'Gotham-Black';}
	.st3{font-size:19.5297px;}
	.st4{font-family:'Gotham-Medium';}
</style>
<g>
	<g>
		<path class="st0" d="M29.9,57.5h1.3l1.5-4.4h5.3l1.5,4.4h2.2l-5.1-14.2h-4v0.4c0.9,0.2,1.5,0.2,1.5,0.9c0,0.2-0.2,0.9-0.4,1.3
			L29.9,57.5z"/>
		<polygon class="st0" points="35.4,46 37.6,52.2 33,52.2 		"/>
		<path class="st0" d="M2.7,39.1v1.1h10.2v-1.1c-3.1,0-3.8-0.7-3.8-4V15.9l0,0l14.2,24.5h4.2V16.4c0-3.3,0.7-4,3.8-4v-1.1h-10v1.1
			c3.1,0,3.8,0.7,3.8,4v18.1l0,0L11.3,11.3H2.7v1.1c3.1,0,3.8,0.7,3.8,4v18.6C6.4,38.5,5.8,39.1,2.7,39.1z"/>
		<path class="st0" d="M66.8,56.6h-2.4c-1.1,0-1.3,0-1.3-1.3v-4.6h2.7c1.3,0,1.8,0.7,1.8,1.8h0.7V48h-0.7c-0.2,0.7-0.2,1.5-1.8,1.5
			H63v-4.2c0-1.1,0.2-1.1,1.3-1.1h1.5c1.3,0,2.2,0.4,2.2,2.2h0.7v-3.1H58.6v0.4c2,0.2,2,0.2,2,2.4v11.3H69v-3.1h-0.7
			C68.6,56.2,67.9,56.6,66.8,56.6z"/>
		<path class="st0" d="M33.4,39.1v1.1h10.2v-1.1c-3.1,0-3.8-0.7-3.8-4V14.8l0,0L48.9,40H52l9.1-25.4l0,0v20.3c0,3.3-0.7,4-3.8,4V40
			H69v-1.1c-3.1,0-3.8-0.7-3.8-4V16.4c0-3.3,0.7-4,3.8-4v-1.1h-9.5l-8.4,23.7l0,0l-8.4-23.7h-9.3v1.1c3.1,0,3.8,0.7,3.8,4v18.6
			C37,38.5,36.3,39.1,33.4,39.1z"/>
		<path class="st0" d="M7.1,56.8c-1.8,0-3.3-0.9-4-1.3v1.8c0.4,0,2,0.4,3.8,0.4c2.9,0,5.3-1.1,5.3-4.2c0-4.4-6.9-4.2-6.9-7.5
			c0-1.3,0.9-2,2-2c1.5,0,3.1,0.7,3.8,0.9v-1.5c-0.4,0-2-0.4-3.3-0.4c-2.9,0-4.6,1.3-4.6,3.5c0,4.4,6.9,4.2,6.9,7.5
			C9.8,56.4,8.4,56.8,7.1,56.8z"/>
		<path class="st0" d="M51.3,57.5V44.2h1.3c1.5,0,2.2,0.4,2.2,2.2h0.7v-3.1H44.7v3.1h0.7c0.2-1.5,0.7-2,2.2-2h1.3v13.3h2.4V57.5z"/>
		<path class="st0" d="M22.6,57.5V44.2h1.3c1.5,0,2.2,0.4,2.2,2.2h0.7v-3.1H16.2v3.1h0.7c0.2-1.5,0.7-2,2.2-2h1.5v13.3h2
			C22.6,57.7,22.6,57.5,22.6,57.5z"/>
	</g>
	<g>
		<polygon class="st1" points="71.2,0 0.2,0 0.2,80 11.7,80 11.7,74.3 31.6,74.3 30.8,70.1 71.2,70.1 		"/>
		<path class="st0" d="M2.7,12.4v-1.1h8.6l13.5,23.2l0,0V16.4c0-3.3-0.7-4-3.8-4v-1.1h10.2v1.1c-3.1,0-3.8,0.7-3.8,4V40h-4.2
			L9.3,15.7l0,0v19.2c0,3.3,0.7,4,3.8,4V40H2.7v-1.1c3.1,0,3.8-0.7,3.8-4V16.4C6.4,13,5.8,12.4,2.7,12.4z"/>
		<path class="st0" d="M32.8,43.8v-0.4h4l5.1,14.2h-2.2l-1.5-4.4h-5.3l-1.5,4.4h-1.3L34.1,46c0.2-0.4,0.4-1.1,0.4-1.3
			C34.3,44,33.6,44,32.8,43.8z"/>
		<path class="st0" d="M33.4,12.4v-1.1h9.5l8.2,23.7l0,0l8.4-23.7H69v1.1c-3.1,0-3.8,0.7-3.8,4v18.6c0,3.3,0.7,4,3.8,4V40H57.3v-1.1
			c3.1,0,3.8-0.7,3.8-4V14.6l0,0L52,40h-3.1l-9.1-25.4l0,0v20.3c0,3.3,0.7,4,3.8,4V40H33.4v-1.1c3.1,0,3.8-0.7,3.8-4V16.4
			C37,13,36.3,12.4,33.4,12.4z"/>
		<path class="st0" d="M47.6,44.4c-1.8,0-2.2,0.4-2.2,2h-0.7v-3.1h10.8v3.1h-0.7c0-1.5-0.7-2.2-2.2-2.2h-1.3v13.3h-2.2V44.2h-1.5
			V44.4z"/>
		<path class="st0" d="M18.8,44.4c-1.8,0-2.2,0.4-2.2,2h-0.7v-3.1h10.8v3.1h-0.7c0-1.5-0.7-2.2-2.2-2.2h-1.3v13.3h-2.2V44.2h-1.5
			V44.4z"/>
		<path class="st0" d="M2.9,46.9c0-2.2,1.8-3.5,4.6-3.5c1.5,0,2.9,0.2,3.3,0.4v1.3c-0.7-0.2-2.2-0.9-3.8-0.9c-1.1,0-2,0.7-2,2
			c0,3.3,6.9,2.9,6.9,7.5c0,3.1-2.4,4.2-5.3,4.2c-1.5,0-3.3-0.4-3.8-0.4v-1.8c0.7,0.4,2.4,1.3,4,1.3c1.3,0,2.7-0.4,2.7-2.4
			C9.8,50.9,2.9,51.3,2.9,46.9z"/>
		<path class="st0" d="M69.2,57.5h-8.4V46.2c0-2,0-2-2-2.4v-0.4h10v3.1h-0.7c0-1.8-0.9-2.2-2.2-2.2h-1.5c-1.1,0-1.3,0-1.3,1.1v4.2
			h2.7c1.5,0,1.5-0.9,1.8-1.5h0.7v4.4h-0.7c0-1.1-0.4-1.8-1.8-1.8H63v4.6c0,1.1,0.2,1.3,1.3,1.3h2.4c1.1,0,1.8-0.4,2-2h0.7
			L69.2,57.5z"/>
		<polygon class="st1" points="37.6,52.2 35.4,46 33,52.2 		"/>
	</g>
</g>
<g>
	<path class="st1" d="M87.7,40h4.1l6.3,7.9V40h4.1v15.3h-3.8l-6.6-8.2v8.2h-4.1V40z"/>
	<path class="st1" d="M104.1,49.5L104.1,49.5c0-3.6,2.5-6.3,6-6.3c4.1,0,6,3,6,6.6c0,0.3,0,0.5,0,0.8h-7.7c0.3,1.4,1.4,1.6,2.5,1.6
		s1.6-0.3,2.7-1.1l2.2,1.6c-1.1,1.4-2.7,2.5-4.9,2.5C106.6,55.3,104.1,53.1,104.1,49.5z M111.8,48.7c-0.3-1.4-0.8-2.2-2.2-2.2
		s-1.6,0.8-2.2,2.2H111.8z"/>
	<path class="st1" d="M116.2,43.5h4.1l1.4,6l1.6-6h3.6l1.6,6l1.4-6h4.4l-3.6,11.8h-3.3l-1.6-6.3l-1.6,6.3h-3.6L116.2,43.5z"/>
	<path class="st1" d="M141.9,40h4.4l3.6,6l3.6-6h4.4v15.3h-4.4v-8.5l-3.8,6l0,0l-3.8-6v8.5h-3.6L141.9,40L141.9,40z"/>
	<path class="st1" d="M160.2,49.5L160.2,49.5c0-3.6,2.5-6.3,6-6.3c4.1,0,6,3,6,6.6c0,0.3,0,0.5,0,0.8h-7.9c0.3,1.4,1.4,1.6,2.5,1.6
		c1.1,0,1.6-0.3,2.7-1.1l2.2,1.6c-1.1,1.4-2.7,2.5-4.9,2.5C162.4,55.3,160.2,53.1,160.2,49.5z M168.2,48.7c-0.3-1.4-0.8-2.2-2.2-2.2
		c-1.1,0-1.6,0.8-2.2,2.2H168.2z"/>
	<path class="st1" d="M178.3,46.5l1.4-3h4.4l-3.8,6l4.1,6h-4.4l-1.6-3l-1.6,3h-4.4l4.1-6l-3.8-6h4.4L178.3,46.5z"/>
	<path class="st1" d="M185.7,39.4h4.4v3h-4.4V39.4z M186,43.5h4.1v11.8H186V43.5z"/>
	<path class="st1" d="M192,49.5L192,49.5c0-3.6,2.7-6.3,6.3-6.3c2.5,0,4.1,1.1,4.9,2.7l-2.7,2.2c-0.5-0.8-1.4-1.4-2.2-1.4
		c-1.4,0-2.5,1.1-2.5,2.7l0,0c0,1.4,1.1,2.7,2.5,2.7c1.1,0,1.4-0.5,2.2-1.4l2.7,1.6c-1.1,1.4-2.7,2.7-4.9,2.7
		C194.4,55.3,192,52.8,192,49.5z"/>
	<path class="st1" d="M204,49.5L204,49.5c0-3.6,2.7-6.3,6.6-6.3c3.8,0,6.6,2.7,6.6,6.3l0,0c0,3.3-2.7,6.3-6.6,6.3
		C206.8,55.3,204,52.8,204,49.5z M212.8,49.5L212.8,49.5c0-1.4-1.1-2.7-2.5-2.7s-2.5,1.1-2.5,2.7l0,0c0,1.4,1.1,2.7,2.5,2.7
		C211.7,52.3,212.8,50.9,212.8,49.5z"/>
	<path class="st1" d="M223.5,53.1l2.5-2.7c1.4,1.1,3.3,1.6,4.7,1.6c1.1,0,1.6-0.3,1.6-1.1l0,0c0-0.5-0.5-1.1-2.7-1.4
		c-3.3-0.8-5.5-1.4-5.5-4.7l0,0c0-2.7,2.2-4.7,6-4.7c2.7,0,4.4,0.8,6.3,2.2l-2.2,3c-1.4-1.1-3-1.4-4.4-1.4c-1.1,0-1.4,0.5-1.4,1.1
		l0,0c0,0.8,0.5,1.1,2.7,1.4c3.6,0.8,5.5,1.6,5.5,4.7l0,0c0,3.3-2.5,4.7-6.3,4.7C228.1,55.3,225.6,54.7,223.5,53.1z"/>
	<path class="st1" d="M239.1,52v-4.7h-1.4v-3.3h1.4v-3h4.1v3h2.7v3.3h-2.7v4.1c0,0.8,0.3,1.1,1.1,1.1c0.5,0,1.1-0.3,1.4-0.3v3.3
		c-0.8,0.5-1.4,0.8-3,0.8C241,55.3,239.1,54.5,239.1,52z"/>
	<path class="st1" d="M247,52.3L247,52.3c0-2.5,1.6-3.8,4.4-3.8c1.1,0,2.2,0.3,2.7,0.5v-0.3c0-1.4-0.8-1.6-2.5-1.6
		c-1.6,0-2.2,0.3-3.3,0.5l-0.8-3c1.4-0.5,2.7-0.8,4.7-0.8c2.2,0,3.6,0.5,4.4,1.4c0.8,0.8,1.4,2.2,1.4,3.8v6.6h-4.1v-1.4
		c-0.8,0.8-1.6,1.4-3.6,1.4C248.9,55.3,247,54.5,247,52.3z M254.7,51.2v-0.5c-0.5-0.3-1.1-0.3-1.4-0.3c-1.1,0-1.6,0.5-1.6,1.4l0,0
		c0,0.8,0.5,1.4,1.4,1.4C253.8,53.1,254.7,52.3,254.7,51.2z"/>
	<path class="st1" d="M261.5,52v-4.7h-1.4v-3.3h1.4v-3h4.1v3h2.7v3.3h-2.7v4.1c0,0.8,0.3,1.1,1.1,1.1c0.5,0,1.1-0.3,1.4-0.3v3.3
		c-0.8,0.5-1.4,0.8-3,0.8C262.6,55.3,261.5,54.5,261.5,52z"/>
	<path class="st1" d="M269.2,49.5L269.2,49.5c0-3.6,2.5-6.3,6-6.3c4.1,0,6,3,6,6.6c0,0.3,0,0.5,0,0.8h-7.7c0.3,1.4,1.4,1.6,2.5,1.6
		c1.1,0,1.6-0.3,2.7-1.1l2.2,1.6c-1.1,1.4-2.7,2.5-4.9,2.5C271.9,55.3,269.2,53.1,269.2,49.5z M277.1,48.7c-0.3-1.4-0.8-2.2-2.2-2.2
		c-1.1,0-1.6,0.8-2.2,2.2H277.1z"/>
	<path class="st1" d="M288.9,49v-8.8h4.4v8.2c0,2.2,1.1,3.3,2.7,3.3s2.7-1.1,2.7-3.3v-8.2h4.4v8.2c0,4.7-2.7,7.1-7.1,7.1
		C291.6,55.3,288.9,53.4,288.9,49z"/>
	<path class="st1" d="M305,43.5h4.1v1.4c0.8-1.1,1.6-1.6,3.6-1.6c2.5,0,4.1,1.4,4.1,4.4v7.7h-4.1v-6.6c0-1.4-0.8-1.6-1.4-1.6
		c-1.1,0-1.4,0.8-1.4,1.6v6.6h-4.1L305,43.5L305,43.5z"/>
	<path class="st1" d="M319,39.4h4.4v3H319V39.4z M319.3,43.5h4.1v11.8h-4.1V43.5z"/>
	<path class="st1" d="M324.5,43.5h4.4l2.2,7.1l2.2-7.1h4.4l-4.4,11.8h-3.8L324.5,43.5z"/>
	<path class="st1" d="M337.9,49.5L337.9,49.5c0-3.6,2.5-6.3,6-6.3c4.1,0,6,3,6,6.6c0,0.3,0,0.5,0,0.8h-7.7c0.3,1.4,1.4,1.6,2.5,1.6
		s1.6-0.3,2.7-1.1l2.2,1.6c-1.1,1.4-2.7,2.5-4.9,2.5C340.6,55.3,337.9,53.1,337.9,49.5z M345.8,48.7c-0.3-1.4-0.8-2.2-2.2-2.2
		c-1.4,0-1.6,0.8-2.2,2.2H345.8z"/>
	<path class="st1" d="M351.3,43.5h4.1V46c0.8-1.4,1.6-2.7,3.8-2.7v4.4h-0.3c-2.2,0-3.6,1.4-3.6,4.1v3.8h-4.1L351.3,43.5L351.3,43.5z
		"/>
	<path class="st1" d="M360,53.9l1.4-2.5c1.4,0.8,2.7,1.4,4.1,1.4c0.8,0,1.1-0.3,1.1-0.5l0,0c0-0.5-0.8-0.8-1.6-1.1
		c-2.5-0.5-4.1-1.4-4.1-3.8l0,0c0-2.5,1.6-3.8,4.7-3.8c1.4,0,3.6,0.5,4.7,1.4l-1.4,2.7c-1.4-0.8-2.5-1.1-3.6-1.1
		c-0.5,0-1.1,0.3-1.1,0.5l0,0c0,0.5,0.8,0.8,1.6,1.1c2.5,0.5,4.1,1.4,4.1,3.8l0,0c0,2.7-1.6,4.1-4.7,4.1
		C363.6,55.3,361.4,55,360,53.9z"/>
	<path class="st1" d="M371.8,39.4h4.4v3h-4.4V39.4z M372.1,43.5h4.1v11.8h-4.1V43.5z"/>
	<path class="st1" d="M379.2,52v-4.7h-1.4v-3.3h1.4v-3h4.1v3h2.7v3.3h-2.7v4.1c0,0.8,0.3,1.1,1.1,1.1c0.5,0,1.1-0.3,1.4-0.3v3.3
		c-0.8,0.5-1.4,0.8-3,0.8C380.6,55.3,379.2,54.5,379.2,52z"/>
	<path class="st1" d="M395.6,43.5h4.4L395.6,55c-1.1,2.7-2.2,3.8-4.4,3.8c-1.4,0-2.7-0.3-3.8-1.1l1.4-3c0.8,0.3,1.4,0.5,1.6,0.5
		c0.5,0,0.8,0,1.1-0.5l-4.7-11.2h4.4l2.5,7.1L395.6,43.5z"/>
</g>
<text transform="matrix(1 0 0 1 86.5938 29.2803)" class="st1 st2 st3">BE BOLD. </text>
<text transform="matrix(1 0 0 1 187.0762 29.2803)" class="st1 st4 st3">Shape the Future.</text>
</svg>
