<svg id="Layer_1" data-name="Layer 1" xmlns="http://www.w3.org/2000/svg" viewBox="0 0 250.92 91.91" height="91.91" width="250.92"><defs><style>.cls-1{fill:#002d72;}.cls-2{fill:#f2a900;}</style></defs><title>Logo_NYIT_2019</title><path class="cls-1" d="M888.63,375.77v22.31h-3.74l-5.41-14.73h-.09l.22,5v9.74h-3.52V375.77h3.74l5.4,14.68h.1l-.22-5.5v-9.18Z" transform="translate(-876.04 -338.55)"></path><path class="cls-1" d="M897.37,379v6.12h6v3.21h-6v6.63h6.68v3.17h-10.6V375.77h10.47V379Z" transform="translate(-876.04 -338.55)"></path><path class="cls-1" d="M927,375.77l-3.26,22.31h-4.94L917.13,386l-.32-1.94h-.06l-.28,1.94-1.7,12.1h-4.93l-3.3-22.31h3.93l2.07,16.5h.06l2.23-16.5h3.93l2.26,16.5h.07l2-16.5Z" transform="translate(-876.04 -338.55)"></path><path class="cls-1" d="M941.37,391.11l-5-15.34h4.09l2.86,10.34h.09l2.89-10.34h4.09l-5.06,15.34v7h-3.93Z" transform="translate(-876.04 -338.55)"></path><path class="cls-1" d="M952.67,394.47V379.39a3.65,3.65,0,0,1,3.77-3.77h4.78a3.65,3.65,0,0,1,3.8,3.77v15.08a3.65,3.65,0,0,1-3.8,3.77h-4.78A3.65,3.65,0,0,1,952.67,394.47Zm7.32.6a1,1,0,0,0,1.1-1.1V379.89a1,1,0,0,0-1.1-1.1h-2.32a1,1,0,0,0-1.07,1.1V394a1,1,0,0,0,1.07,1.1Z" transform="translate(-876.04 -338.55)"></path><path class="cls-1" d="M981.75,390.63v7.45h-3.93v-8.14a1,1,0,0,0-1.07-1.06h-3.39v9.2h-3.93V375.77h8.45a3.68,3.68,0,0,1,3.81,3.77l0,4.37a3.52,3.52,0,0,1-2.36,3.46A3.08,3.08,0,0,1,981.75,390.63ZM973.36,379v6.75h3.33a1,1,0,0,0,1.1-1.07V380a1,1,0,0,0-1.1-1.06Z" transform="translate(-876.04 -338.55)"></path><path class="cls-1" d="M995,398.08l-4.84-10.49v10.49h-3.93V375.77h3.93V386L995,375.77h4.24l-5.47,11,5.53,11.34Z" transform="translate(-876.04 -338.55)"></path><path class="cls-1" d="M1009.76,375.77h3.93v22.31h-3.93Z" transform="translate(-876.04 -338.55)"></path><path class="cls-1" d="M1031.09,375.77v22.31h-3.74l-5.4-14.73h-.1l.22,5v9.74h-3.52V375.77h3.74l5.41,14.68h.09l-.22-5.5v-9.18Z" transform="translate(-876.04 -338.55)"></path><path class="cls-1" d="M1035.46,394.47v-4h3.93V394a1,1,0,0,0,1,1.1h2.36a1,1,0,0,0,1.07-1.1v-3.74a1.08,1.08,0,0,0-.79-1.17l-5-1.38c-1.67-.44-2.61-2-2.61-4v-4.27a3.65,3.65,0,0,1,3.77-3.77H1044a3.63,3.63,0,0,1,3.77,3.77v4h-3.93v-3.49a1,1,0,0,0-1.07-1.1h-2.36a1,1,0,0,0-1,1.1v3.46a1,1,0,0,0,.88,1.16l4.49,1.26c2.2.53,3,1.85,3,4.21v4.49a3.63,3.63,0,0,1-3.77,3.77h-4.78A3.65,3.65,0,0,1,1035.46,394.47Z" transform="translate(-876.04 -338.55)"></path><path class="cls-1" d="M1062.05,379H1058v19.13h-3.93V379h-4v-3.18h12Z" transform="translate(-876.04 -338.55)"></path><path class="cls-1" d="M1064.84,375.77h3.93v22.31h-3.93Z" transform="translate(-876.04 -338.55)"></path><path class="cls-1" d="M1083.59,379h-4.07v19.13h-3.93V379h-4v-3.18h12Z" transform="translate(-876.04 -338.55)"></path><path class="cls-1" d="M1086.39,394.47v-18.7h3.93V394a1,1,0,0,0,1.07,1.07h2.33a1,1,0,0,0,1.06-1.07V375.77h3.93v18.7a3.63,3.63,0,0,1-3.77,3.77h-4.78A3.65,3.65,0,0,1,1086.39,394.47Z" transform="translate(-876.04 -338.55)"></path><path class="cls-1" d="M1113.54,379h-4.08v19.13h-3.92V379h-4v-3.18h12Z" transform="translate(-876.04 -338.55)"></path><path class="cls-1" d="M1120.32,379v6.12h6v3.21h-6v6.63H1127v3.17h-10.57V375.77h10.54V379Z" transform="translate(-876.04 -338.55)"></path><path class="cls-1" d="M876,426.63v-15a3.5,3.5,0,0,1,3.8-3.8h2.94a3.51,3.51,0,0,1,3.83,3.8v15a3.51,3.51,0,0,1-3.83,3.8h-2.94A3.5,3.5,0,0,1,876,426.63Zm6.14,1.88a1.85,1.85,0,0,0,2.11-2.13V411.86a1.86,1.86,0,0,0-2.11-2.14h-1.74c-1.41,0-2.07.7-2.07,2.14v14.52c0,1.44.66,2.13,2.07,2.13Z" transform="translate(-876.04 -338.55)"></path><path class="cls-1" d="M892.7,409.91v8.14h6.13V420H892.7v10.3h-2.33V408h8.91v1.92Z" transform="translate(-876.04 -338.55)"></path><path class="cls-1" d="M920.11,411.17H916V430.3H912.1V411.17H908V408h12.07Z" transform="translate(-876.04 -338.55)"></path><path class="cls-1" d="M927,411.17v6.12h6v3.21h-6v6.63h6.57v3.17H923.05V408h10.49v3.18Z" transform="translate(-876.04 -338.55)"></path><path class="cls-1" d="M937.43,426.69V411.61a3.65,3.65,0,0,1,3.77-3.77H946a3.65,3.65,0,0,1,3.8,3.77v4.58h-3.92v-4.08a1,1,0,0,0-1.11-1.1h-2.32a1,1,0,0,0-1.07,1.1v14.08a1,1,0,0,0,1.07,1.1h2.32a1,1,0,0,0,1.11-1.1V421.5h3.92v5.19a3.65,3.65,0,0,1-3.8,3.77H941.2A3.65,3.65,0,0,1,937.43,426.69Z" transform="translate(-876.04 -338.55)"></path><path class="cls-1" d="M966.73,408V430.3h-3.92V421h-4.44v9.27h-3.92V408h3.92v9.84h4.44V408Z" transform="translate(-876.04 -338.55)"></path><path class="cls-1" d="M984.57,408V430.3h-3.74l-5.41-14.73h-.09l.22,5v9.74H972V408h3.74l5.4,14.68h.1l-.22-5.5V408Z" transform="translate(-876.04 -338.55)"></path><path class="cls-1" d="M989.44,426.69V411.61a3.65,3.65,0,0,1,3.77-3.77H998a3.65,3.65,0,0,1,3.8,3.77v15.08a3.65,3.65,0,0,1-3.8,3.77h-4.77A3.65,3.65,0,0,1,989.44,426.69Zm7.32.6a1,1,0,0,0,1.1-1.1V412.11a1,1,0,0,0-1.1-1.1h-2.33a1,1,0,0,0-1.07,1.1v14.08a1,1,0,0,0,1.07,1.1Z" transform="translate(-876.04 -338.55)"></path><path class="cls-1" d="M1016.14,427.13v3.17h-9.59V408h3.93v19.14Z" transform="translate(-876.04 -338.55)"></path><path class="cls-1" d="M1018.67,426.69V411.61a3.65,3.65,0,0,1,3.77-3.77h4.78a3.65,3.65,0,0,1,3.8,3.77v15.08a3.65,3.65,0,0,1-3.8,3.77h-4.78A3.65,3.65,0,0,1,1018.67,426.69Zm7.32.6a1,1,0,0,0,1.1-1.1V412.11a1,1,0,0,0-1.1-1.1h-2.32a1,1,0,0,0-1.07,1.1v14.08a1,1,0,0,0,1.07,1.1Z" transform="translate(-876.04 -338.55)"></path><path class="cls-1" d="M1043.6,415.41v-3.3a1,1,0,0,0-1.1-1.1h-2.32a1,1,0,0,0-1.07,1.1v14.08a1,1,0,0,0,1.07,1.1h2.48a1,1,0,0,0,1.07-1.1v-4.84H1041v-3.18h6.5V430.3h-2l-.41-1.63a2.71,2.71,0,0,1-2.89,1.79H1039a3.65,3.65,0,0,1-3.77-3.77V411.61a3.65,3.65,0,0,1,3.77-3.77h4.78a3.65,3.65,0,0,1,3.8,3.77v3.8Z" transform="translate(-876.04 -338.55)"></path><path class="cls-1" d="M1054.91,423.33l-5-15.34H1054l2.86,10.34h.09l2.89-10.34h4.09l-5.06,15.34v7h-3.93Z" transform="translate(-876.04 -338.55)"></path><path class="cls-1" d="M888.63,375.77v22.31h-3.74l-5.41-14.73h-.09l.22,5v9.74h-3.52V375.77h3.74l5.4,14.68h.1l-.22-5.5v-9.18Z" transform="translate(-876.04 -338.55)"></path><path class="cls-1" d="M897.37,379v6.12h6v3.21h-6v6.63h6.68v3.17h-10.6V375.77h10.47V379Z" transform="translate(-876.04 -338.55)"></path><path class="cls-1" d="M927,375.77l-3.26,22.31h-4.94L917.13,386l-.32-1.94h-.06l-.28,1.94-1.7,12.1h-4.93l-3.3-22.31h3.93l2.07,16.5h.06l2.23-16.5h3.93l2.26,16.5h.07l2-16.5Z" transform="translate(-876.04 -338.55)"></path><path class="cls-1" d="M941.37,391.11l-5-15.34h4.09l2.86,10.34h.09l2.89-10.34h4.09l-5.06,15.34v7h-3.93Z" transform="translate(-876.04 -338.55)"></path><path class="cls-1" d="M952.67,394.47V379.39a3.65,3.65,0,0,1,3.77-3.77h4.78a3.65,3.65,0,0,1,3.8,3.77v15.08a3.65,3.65,0,0,1-3.8,3.77h-4.78A3.65,3.65,0,0,1,952.67,394.47Zm7.32.6a1,1,0,0,0,1.1-1.1V379.89a1,1,0,0,0-1.1-1.1h-2.32a1,1,0,0,0-1.07,1.1V394a1,1,0,0,0,1.07,1.1Z" transform="translate(-876.04 -338.55)"></path><path class="cls-1" d="M981.75,390.63v7.45h-3.93v-8.14a1,1,0,0,0-1.07-1.06h-3.39v9.2h-3.93V375.77h8.45a3.68,3.68,0,0,1,3.81,3.77l0,4.37a3.52,3.52,0,0,1-2.36,3.46A3.08,3.08,0,0,1,981.75,390.63ZM973.36,379v6.75h3.33a1,1,0,0,0,1.1-1.07V380a1,1,0,0,0-1.1-1.06Z" transform="translate(-876.04 -338.55)"></path><path class="cls-1" d="M995,398.08l-4.84-10.49v10.49h-3.93V375.77h3.93V386L995,375.77h4.24l-5.47,11,5.53,11.34Z" transform="translate(-876.04 -338.55)"></path><path class="cls-1" d="M1009.76,375.77h3.93v22.31h-3.93Z" transform="translate(-876.04 -338.55)"></path><path class="cls-1" d="M1031.09,375.77v22.31h-3.74l-5.4-14.73h-.1l.22,5v9.74h-3.52V375.77h3.74l5.41,14.68h.09l-.22-5.5v-9.18Z" transform="translate(-876.04 -338.55)"></path><path class="cls-1" d="M1035.46,394.47v-4h3.93V394a1,1,0,0,0,1,1.1h2.36a1,1,0,0,0,1.07-1.1v-3.74a1.08,1.08,0,0,0-.79-1.17l-5-1.38c-1.67-.44-2.61-2-2.61-4v-4.27a3.65,3.65,0,0,1,3.77-3.77H1044a3.63,3.63,0,0,1,3.77,3.77v4h-3.93v-3.49a1,1,0,0,0-1.07-1.1h-2.36a1,1,0,0,0-1,1.1v3.46a1,1,0,0,0,.88,1.16l4.49,1.26c2.2.53,3,1.85,3,4.21v4.49a3.63,3.63,0,0,1-3.77,3.77h-4.78A3.65,3.65,0,0,1,1035.46,394.47Z" transform="translate(-876.04 -338.55)"></path><path class="cls-1" d="M1062.05,379H1058v19.13h-3.93V379h-4v-3.18h12Z" transform="translate(-876.04 -338.55)"></path><path class="cls-1" d="M1064.84,375.77h3.93v22.31h-3.93Z" transform="translate(-876.04 -338.55)"></path><path class="cls-1" d="M1083.59,379h-4.07v19.13h-3.93V379h-4v-3.18h12Z" transform="translate(-876.04 -338.55)"></path><path class="cls-1" d="M1086.39,394.47v-18.7h3.93V394a1,1,0,0,0,1.07,1.07h2.33a1,1,0,0,0,1.06-1.07V375.77h3.93v18.7a3.63,3.63,0,0,1-3.77,3.77h-4.78A3.65,3.65,0,0,1,1086.39,394.47Z" transform="translate(-876.04 -338.55)"></path><path class="cls-1" d="M1113.54,379h-4.08v19.13h-3.92V379h-4v-3.18h12Z" transform="translate(-876.04 -338.55)"></path><path class="cls-1" d="M1120.32,379v6.12h6v3.21h-6v6.63H1127v3.17h-10.57V375.77h10.54V379Z" transform="translate(-876.04 -338.55)"></path><path class="cls-1" d="M876,426.63v-15a3.5,3.5,0,0,1,3.8-3.8h2.94a3.51,3.51,0,0,1,3.83,3.8v15a3.51,3.51,0,0,1-3.83,3.8h-2.94A3.5,3.5,0,0,1,876,426.63Zm6.14,1.88a1.85,1.85,0,0,0,2.11-2.13V411.86a1.86,1.86,0,0,0-2.11-2.14h-1.74c-1.41,0-2.07.7-2.07,2.14v14.52c0,1.44.66,2.13,2.07,2.13Z" transform="translate(-876.04 -338.55)"></path><path class="cls-1" d="M892.7,409.91v8.14h6.13V420H892.7v10.3h-2.33V408h8.91v1.92Z" transform="translate(-876.04 -338.55)"></path><path class="cls-1" d="M920.11,411.17H916V430.3H912.1V411.17H908V408h12.07Z" transform="translate(-876.04 -338.55)"></path><path class="cls-1" d="M927,411.17v6.12h6v3.21h-6v6.63h6.57v3.17H923.05V408h10.49v3.18Z" transform="translate(-876.04 -338.55)"></path><path class="cls-1" d="M937.43,426.69V411.61a3.65,3.65,0,0,1,3.77-3.77H946a3.65,3.65,0,0,1,3.8,3.77v4.58h-3.92v-4.08a1,1,0,0,0-1.11-1.1h-2.32a1,1,0,0,0-1.07,1.1v14.08a1,1,0,0,0,1.07,1.1h2.32a1,1,0,0,0,1.11-1.1V421.5h3.92v5.19a3.65,3.65,0,0,1-3.8,3.77H941.2A3.65,3.65,0,0,1,937.43,426.69Z" transform="translate(-876.04 -338.55)"></path><path class="cls-1" d="M966.73,408V430.3h-3.92V421h-4.44v9.27h-3.92V408h3.92v9.84h4.44V408Z" transform="translate(-876.04 -338.55)"></path><path class="cls-1" d="M984.57,408V430.3h-3.74l-5.41-14.73h-.09l.22,5v9.74H972V408h3.74l5.4,14.68h.1l-.22-5.5V408Z" transform="translate(-876.04 -338.55)"></path><path class="cls-1" d="M989.44,426.69V411.61a3.65,3.65,0,0,1,3.77-3.77H998a3.65,3.65,0,0,1,3.8,3.77v15.08a3.65,3.65,0,0,1-3.8,3.77h-4.77A3.65,3.65,0,0,1,989.44,426.69Zm7.32.6a1,1,0,0,0,1.1-1.1V412.11a1,1,0,0,0-1.1-1.1h-2.33a1,1,0,0,0-1.07,1.1v14.08a1,1,0,0,0,1.07,1.1Z" transform="translate(-876.04 -338.55)"></path><path class="cls-1" d="M1016.14,427.13v3.17h-9.59V408h3.93v19.14Z" transform="translate(-876.04 -338.55)"></path><path class="cls-1" d="M1018.67,426.69V411.61a3.65,3.65,0,0,1,3.77-3.77h4.78a3.65,3.65,0,0,1,3.8,3.77v15.08a3.65,3.65,0,0,1-3.8,3.77h-4.78A3.65,3.65,0,0,1,1018.67,426.69Zm7.32.6a1,1,0,0,0,1.1-1.1V412.11a1,1,0,0,0-1.1-1.1h-2.32a1,1,0,0,0-1.07,1.1v14.08a1,1,0,0,0,1.07,1.1Z" transform="translate(-876.04 -338.55)"></path><path class="cls-1" d="M1043.6,415.41v-3.3a1,1,0,0,0-1.1-1.1h-2.32a1,1,0,0,0-1.07,1.1v14.08a1,1,0,0,0,1.07,1.1h2.48a1,1,0,0,0,1.07-1.1v-4.84H1041v-3.18h6.5V430.3h-2l-.41-1.63a2.71,2.71,0,0,1-2.89,1.79H1039a3.65,3.65,0,0,1-3.77-3.77V411.61a3.65,3.65,0,0,1,3.77-3.77h4.78a3.65,3.65,0,0,1,3.8,3.77v3.8Z" transform="translate(-876.04 -338.55)"></path><path class="cls-1" d="M1054.91,423.33l-5-15.34H1054l2.86,10.34h.09l2.89-10.34h4.09l-5.06,15.34v7h-3.93Z" transform="translate(-876.04 -338.55)"></path><rect class="cls-2" x="0.05" width="250.8" height="19.87"></rect></svg>