<?xml version="1.0" encoding="UTF-8"?>
<!-- Generator: Adobe Illustrator 26.5.0, SVG Export Plug-In . SVG Version: 6.00 Build 0)  -->
<svg version="1.1" id="Layer_1" xmlns="http://www.w3.org/2000/svg" xmlns:xlink="http://www.w3.org/1999/xlink" x="0px" y="0px" viewBox="0 0 309 35" height="35" width="309" style="enable-background:new 0 0 309 35;" xml:space="preserve">
<style type="text/css">
	.st0{fill:#A41E35;}
	.st1{fill:#FFFFFF;}
	.st2{clip-path:url(#SVGID_00000077309341388334479080000015030486749964648360_);}
	.st3{clip-path:url(#SVGID_00000044170365365771243900000013916886751219878051_);}
	.st4{clip-path:url(#SVGID_00000024722408481169388860000005001467143284499901_);}
	.st5{clip-path:url(#SVGID_00000168821269853095228370000004309734119048746383_);}
	.st6{clip-path:url(#SVGID_00000044896400813258446700000011329468135027228317_);}
	.st7{clip-path:url(#SVGID_00000093882902133451119130000004682989612421974177_);}
	.st8{clip-path:url(#SVGID_00000044178193652698190470000017023950796834279827_);}
	.st9{clip-path:url(#SVGID_00000029039083523579667710000015738593785418883970_);}
	.st10{clip-path:url(#SVGID_00000027581340260525681820000016555570198701216440_);}
	.st11{clip-path:url(#SVGID_00000124855164445497523090000006705139137529877420_);}
	.st12{clip-path:url(#SVGID_00000173848465867105698570000009717535536016348565_);}
</style>
<g id="New">
	<rect x="22.14" y="0" class="st0" width="30.24" height="30.31"/>
	<polygon class="st1" points="27.12,3.31 27.12,11.53 28.88,11.53 28.88,4.95 45.73,4.95 45.73,11.53 47.41,11.53 47.41,3.31  "/>
	<polygon class="st1" points="31.64,21.72 31.64,23.4 36.3,23.4 36.3,7.01 30.85,7.01 30.85,11.53 32.57,11.53 32.57,8.72    34.58,8.72 34.58,21.72  "/>
	<polygon class="st1" points="38.33,6.99 38.33,23.38 42.99,23.38 42.99,21.7 40.05,21.7 40.05,8.7 42.06,8.7 42.06,11.53    43.78,11.53 43.78,6.99 40.05,6.99  "/>
	<rect x="31.64" y="25.34" class="st1" width="11.34" height="1.66"/>
	<polygon points="69.58,24.8 73.5,26.06 73.5,27.04 61.06,27.04 61.06,26.06 64.97,24.8 64.97,5.05 60.53,5.05 58.82,10.02    57.35,10.02 57.35,3.28 77.2,3.28 77.2,10.02 75.7,10.02 73.88,5.05 69.58,5.05  "/>
	<g>
		<g>
			<defs>
				<rect id="SVGID_1_" x="22.14" y="0" width="265.64" height="35"/>
			</defs>
			<clipPath id="SVGID_00000138533822655816434580000008773881863937082512_">
				<use xlink:href="#SVGID_1_" style="overflow:visible;"/>
			</clipPath>
			<path style="clip-path:url(#SVGID_00000138533822655816434580000008773881863937082512_);" d="M80.87,17.98v0.32     c0,4.19,2.76,6.78,6.39,6.78c1.22,0,2.45-0.14,4.16-0.52l0.25,1.33c-2.83,0.94-5.35,1.5-7.06,1.5c-5.03,0-8.24-3.39-8.24-8.6     c0-5.38,3.53-9.29,8.49-9.29c4.58,0,7.09,2.41,7.09,7.86v0.63L80.87,17.98L80.87,17.98z M87.3,16.13v-0.35     c0-3.6-1.29-4.89-2.97-4.89c-2.13,0-3.42,1.99-3.42,5.17v0.7L87.3,16.13z"/>
		</g>
		<g>
			<defs>
				<rect id="SVGID_00000067208775268836151660000006252542084904099980_" x="22.14" y="0" width="265.64" height="35"/>
			</defs>
			<clipPath id="SVGID_00000088134911544101706710000002318847996487105931_">
				<use xlink:href="#SVGID_00000067208775268836151660000006252542084904099980_" style="overflow:visible;"/>
			</clipPath>
			<path style="clip-path:url(#SVGID_00000088134911544101706710000002318847996487105931_);" d="M100.78,24.8l2.48,1.26v0.98h-9.95     v-0.98l3-1.26V12.43l-3-0.94v-0.91l7.48-1.29v2.03c3.32-1.4,4.37-1.82,5.8-1.82c1.64,0,2.55,0.49,3.67,1.99     c3.71-1.57,5-1.99,6.6-1.99c2.45,0,4.82,1.68,4.82,5.14V24.8l3,1.26v0.98h-9.92v-0.98l2.48-1.26v-8.67     c0-2.76-1.22-4.16-3.63-4.16c-0.91,0-1.85,0.14-2.83,0.46c0.39,0.73,0.46,1.4,0.46,2.83v9.54l2.48,1.26v0.98h-9.4v-0.98     l2.48-1.26v-8.63c0-2.69-1.19-4.02-3.56-4.02c-0.94,0-1.75,0.11-2.45,0.28L100.78,24.8L100.78,24.8z"/>
		</g>
		<g>
			<defs>
				<rect id="SVGID_00000052088812143702661990000006962909408658891928_" x="22.14" y="0" width="265.64" height="35"/>
			</defs>
			<clipPath id="SVGID_00000071520359696964192930000002121183859104662450_">
				<use xlink:href="#SVGID_00000052088812143702661990000006962909408658891928_" style="overflow:visible;"/>
			</clipPath>
			<path style="clip-path:url(#SVGID_00000071520359696964192930000002121183859104662450_);" d="M131.42,32.83l3.7,1.15V35h-11.15     v-1.01l3-1.15V12.46l-2.87-0.91v-0.94l7.3-1.29v2.16c2.38-1.26,4.47-1.99,5.83-1.99c3.63,0,6.39,3.46,6.39,8.07     c0,5.59-4.16,9.82-9.75,9.82c-0.94,0-1.61-0.11-2.48-0.39L131.42,32.83L131.42,32.83z M131.42,25.46     c0.56,0.11,0.84,0.14,1.43,0.14c3.95,0,6.19-2.62,6.19-7.34c0-4.3-1.54-6.22-4.89-6.22c-0.8,0-1.22,0.04-2.73,0.32V25.46z"/>
		</g>
		<g>
			<defs>
				<rect id="SVGID_00000016786811721130071600000003860850277854664609_" x="22.14" y="0" width="265.64" height="35"/>
			</defs>
			<clipPath id="SVGID_00000058562264296770618480000006765303559953767320_">
				<use xlink:href="#SVGID_00000016786811721130071600000003860850277854664609_" style="overflow:visible;"/>
			</clipPath>
			<polygon style="clip-path:url(#SVGID_00000058562264296770618480000006765303559953767320_);" points="146.87,5.13 143.69,4.25      143.69,3.28 151.31,1.88 151.31,24.8 154.28,26.06 154.28,27.04 143.83,27.04 143.83,26.06 146.87,24.8    "/>
		</g>
		<g>
			<defs>
				<rect id="SVGID_00000031194683869595529890000005119089530309660349_" x="22.14" y="0" width="265.64" height="35"/>
			</defs>
			<clipPath id="SVGID_00000008120027733563325010000016016652361211547785_">
				<use xlink:href="#SVGID_00000031194683869595529890000005119089530309660349_" style="overflow:visible;"/>
			</clipPath>
			<path style="clip-path:url(#SVGID_00000008120027733563325010000016016652361211547785_);" d="M158.89,17.98v0.32     c0,4.19,2.76,6.78,6.39,6.78c1.22,0,2.45-0.14,4.16-0.52l0.25,1.33c-2.83,0.94-5.35,1.5-7.06,1.5c-5.03,0-8.24-3.39-8.24-8.6     c0-5.38,3.53-9.29,8.49-9.29c4.58,0,7.09,2.41,7.09,7.86v0.63L158.89,17.98L158.89,17.98z M165.32,16.13v-0.35     c0-3.6-1.29-4.89-2.97-4.89c-2.13,0-3.42,1.99-3.42,5.17v0.7L165.32,16.13z"/>
		</g>
		<g>
			<defs>
				<rect id="SVGID_00000171719132615880279320000003163056011028384910_" x="22.14" y="0" width="265.64" height="35"/>
			</defs>
			<clipPath id="SVGID_00000098206420003002970380000006839764699624537777_">
				<use xlink:href="#SVGID_00000171719132615880279320000003163056011028384910_" style="overflow:visible;"/>
			</clipPath>
			<polygon style="clip-path:url(#SVGID_00000098206420003002970380000006839764699624537777_);" points="189.25,24.8 192.25,26.06      192.25,27.04 181.6,27.04 181.6,26.06 184.64,24.8 184.64,5.51 181.6,4.25 181.6,3.28 192.25,3.28 192.25,4.25 189.25,5.51      189.25,13.72 199.52,13.72 199.52,5.51 196.52,4.25 196.52,3.28 207.18,3.28 207.18,4.25 204.13,5.51 204.13,24.8 207.18,26.06      207.18,27.04 196.52,27.04 196.52,26.06 199.52,24.8 199.52,15.5 189.25,15.5    "/>
		</g>
		<g>
			<defs>
				<rect id="SVGID_00000046297726328259870770000010380878059048269467_" x="22.14" y="0" width="265.64" height="35"/>
			</defs>
			<clipPath id="SVGID_00000099641245407661619190000012515519759438906282_">
				<use xlink:href="#SVGID_00000046297726328259870770000010380878059048269467_" style="overflow:visible;"/>
			</clipPath>
			<path style="clip-path:url(#SVGID_00000099641245407661619190000012515519759438906282_);" d="M212.34,17.98v0.32     c0,4.19,2.76,6.78,6.39,6.78c1.22,0,2.45-0.14,4.16-0.52l0.25,1.33c-2.83,0.94-5.35,1.5-7.05,1.5c-5.03,0-8.24-3.39-8.24-8.6     c0-5.38,3.53-9.29,8.49-9.29c4.58,0,7.09,2.41,7.09,7.86v0.63L212.34,17.98L212.34,17.98z M218.78,16.13v-0.35     c0-3.6-1.29-4.89-2.97-4.89c-2.13,0-3.42,1.99-3.42,5.17v0.7L218.78,16.13z"/>
		</g>
		<g>
			<defs>
				<rect id="SVGID_00000018928292828434932550000000504706879896126900_" x="22.14" y="0" width="265.64" height="35"/>
			</defs>
			<clipPath id="SVGID_00000138544446011290996490000001701704258187692209_">
				<use xlink:href="#SVGID_00000018928292828434932550000000504706879896126900_" style="overflow:visible;"/>
			</clipPath>
			<path style="clip-path:url(#SVGID_00000138544446011290996490000001701704258187692209_);" d="M229.5,14.28h-3.18v-3.42     c3.21-0.94,5.42-1.36,7.13-1.36c3.35,0,5.45,1.26,5.45,3.74v10.31c0,0.7,0.14,0.94,1.12,1.19l1.89,0.46v1.01     c-3.35,1.01-4.09,1.19-5,1.19c-1.15,0-1.75-0.49-2.17-1.92c-2.87,1.57-3.84,1.92-5.03,1.92c-2.9,0-4.82-1.85-4.82-4.47     c0-1.5,0.49-2.48,1.5-3.28c1.26-0.98,3.64-1.43,8.25-1.82v-4.58c0-1.78-0.98-2.31-2.55-2.31c-0.14,0-0.7,0.04-0.98,0.07     L229.5,14.28z M234.64,18.96c-4.19,0.73-5.31,1.26-5.31,3.21c0,1.64,1.15,2.73,2.97,2.73c0.66,0,1.47-0.14,2.34-0.39     L234.64,18.96L234.64,18.96z"/>
		</g>
		<g>
			<defs>
				<rect id="SVGID_00000025422362440480945710000008463623434892070558_" x="22.14" y="0" width="265.64" height="35"/>
			</defs>
			<clipPath id="SVGID_00000158027858282616919240000013213548939274385341_">
				<use xlink:href="#SVGID_00000025422362440480945710000008463623434892070558_" style="overflow:visible;"/>
			</clipPath>
			<polygon style="clip-path:url(#SVGID_00000158027858282616919240000013213548939274385341_);" points="245.75,5.13 242.57,4.25      242.57,3.28 250.19,1.88 250.19,24.8 253.16,26.06 253.16,27.04 242.71,27.04 242.71,26.06 245.75,24.8    "/>
		</g>
		<g>
			<defs>
				<rect id="SVGID_00000173127736012140003180000015608817410746905241_" x="22.14" y="0" width="265.64" height="35"/>
			</defs>
			<clipPath id="SVGID_00000084498595643894979170000001848014806258946732_">
				<use xlink:href="#SVGID_00000173127736012140003180000015608817410746905241_" style="overflow:visible;"/>
			</clipPath>
			<path style="clip-path:url(#SVGID_00000084498595643894979170000001848014806258946732_);" d="M252.6,11.45v-1.22     c1.96-0.59,2.83-1.01,3.56-1.68c0.7-0.66,1.26-1.5,2.13-3.28h1.36v4.4h5.52v1.78h-5.52v11.08c0,2.2,1.4,2.62,3.18,2.62     c0.39,0,1.71-0.11,2.34-0.21l0.35,1.4c-3.95,0.94-4.58,1.05-5.76,1.05c-2.62,0-4.51-0.84-4.51-3.88V11.46L252.6,11.45     L252.6,11.45z"/>
		</g>
		<g>
			<defs>
				<rect id="SVGID_00000118383698024004312450000015148258575325674378_" x="22.14" y="0" width="265.64" height="35"/>
			</defs>
			<clipPath id="SVGID_00000037662676436190577150000014106709249505142184_">
				<use xlink:href="#SVGID_00000118383698024004312450000015148258575325674378_" style="overflow:visible;"/>
			</clipPath>
			<path style="clip-path:url(#SVGID_00000037662676436190577150000014106709249505142184_);" d="M273.81,24.8l2.66,1.26v0.98     h-10.13v-0.98l3.04-1.26V5.16l-3.18-0.87V3.31l7.62-1.43v9.4c3.46-1.29,5-1.78,6.5-1.78c2.76,0,4.47,1.96,4.47,5.9v9.4l3,1.26     v0.98h-9.89v-0.98l2.48-1.26v-8.39c0-3.21-0.98-4.44-3.63-4.44c-1.08,0-2.2,0.11-2.94,0.35L273.81,24.8L273.81,24.8z"/>
		</g>
	</g>
</g>
</svg>