<?xml version="1.0" encoding="utf-8"?>
<!-- Generator: Adobe Illustrator 25.1.0, SVG Export Plug-In . SVG Version: 6.00 Build 0)  -->
<svg version="1.1" id="Layer_1" xmlns="http://www.w3.org/2000/svg" x="0px" y="0px"
     viewBox="0 0 270 40" width="270" height="40" style="enable-background:new 0 0 270 40;" xml:space="preserve">
<style type="text/css">
	.umn-maroon{fill:#7A0019;}
	.umn-gold{fill:#FFCC33;}
</style>
<g id="Layer_1_1_">
	<g>
		<g>
			<g>
				<path class="umn-maroon" d="M84.8,7.7h5.1V28h11.3v4.5H84.8L84.8,7.7L84.8,7.7z"/>
				<path class="umn-maroon" d="M107.3,7.7h5.1v24.9h-5.1V7.7z"/>
				<path class="umn-maroon" d="M119.5,7.7h9.6c4.6,0,7.2,2.9,7.2,6.4c0,2.3-1.4,3.9-3.5,4.6c3.4,0.8,5,3.1,5,6.2c0,4.4-3.1,7.7-8.3,7.7
					h-10.1L119.5,7.7L119.5,7.7z M128.5,16.8c1.6,0,2.7-0.9,2.7-2.3c0-1.4-0.9-2.3-2.5-2.3h-4.2v4.7H128.5z M129.3,28
					c2.1,0,3.4-1.4,3.4-3.4c0-2-1.4-3.4-3.7-3.4h-4.4V28H129.3z"/>
				<path class="umn-maroon" d="M161.9,32.5H156l-4.1-6.3c-0.5,0.1-1,0.1-1.5,0.1h-1.8v6.2h-5.1V7.7h6.9c6.9,0,11.1,3.3,11.1,9.4
					c0,3.9-1.7,6.3-4.8,7.7L161.9,32.5z M150.3,21.9c4.2,0,6-1.3,6-4.8c0-3.5-1.9-4.9-6-4.9h-1.6v9.7H150.3z"/>
				<path class="umn-maroon" d="M176.8,7.4h0.4l11.4,25.1h-5.4l-1.2-2.8H172l-1.2,2.8h-4.9L176.8,7.4z M180.2,25.4l-1.8-4.3
					c-0.7-1.8-1.5-4.5-1.5-4.5s-0.7,2.7-1.5,4.5l-1.8,4.3H180.2z"/>
				<path class="umn-maroon" d="M212.1,32.5h-5.9l-4.1-6.3c-0.5,0.1-1,0.1-1.5,0.1h-1.8v6.2h-5.1V7.7h6.9c6.9,0,11.1,3.3,11.1,9.4
					c0,3.9-1.7,6.3-4.8,7.7L212.1,32.5z M200.5,21.9c4.2,0,6-1.3,6-4.8c0-3.5-1.9-4.9-6-4.9h-1.6v9.7H200.5z"/>
				<path class="umn-maroon" d="M218.2,7.7h5.1v24.9h-5.1V7.7z"/>
				<path class="umn-maroon" d="M230.4,7.7h16.4v4.5h-11.3v7.9h10v4.4h-10V28h11.8v4.5h-17L230.4,7.7L230.4,7.7z"/>
				<path class="umn-maroon" d="M251.9,27.6l4.2-2.4c1.1,1.8,2.5,3.1,5,3.1c2.1,0,3.5-1.1,3.5-2.5c0-1.8-1.4-2.4-3.7-3.4l-1.3-0.5
					c-3.7-1.6-6.1-3.5-6.1-7.7c0-3.8,2.9-6.8,7.5-6.8c3.3,0,5.6,1.1,7.3,4.1l-4,2.6c-0.9-1.6-1.8-2.2-3.3-2.2c-1.5,0-2.5,1-2.5,2.2
					c0,1.5,1,2.2,3.1,3.1l1.3,0.5c4.3,1.9,6.8,3.8,6.8,8c0,4.6-3.6,7.1-8.5,7.1C256.5,32.9,253.4,30.6,251.9,27.6z"/>
			</g>
			<g>
				<g>
					<g>
						<g>
							<path class="umn-gold" d="M68,35.4c0.2,0.1,0.4,0.2,0.5,0.3c0.1,0.1,0.3,0.3,0.3,0.5c0.1,0.2,0.2,0.5,0.2,0.7
								c0,0.3-0.1,0.6-0.2,0.8c-0.1,0.3-0.3,0.5-0.6,0.6c-0.2,0.1-0.5,0.2-0.8,0.2c-0.3,0-0.5-0.1-0.8-0.2c-0.3-0.1-0.5-0.3-0.6-0.6
								c-0.1-0.3-0.2-0.5-0.2-0.8c0-0.2,0-0.5,0.1-0.7c0.1-0.2,0.2-0.4,0.3-0.5c0.1-0.1,0.3-0.2,0.5-0.3c0.2-0.1,0.4-0.1,0.7-0.1
								C67.6,35.3,67.8,35.4,68,35.4z M69.2,36.1c-0.1-0.2-0.2-0.4-0.4-0.5c-0.2-0.2-0.4-0.3-0.6-0.4C68,35.1,67.7,35,67.4,35
								c-0.3,0-0.6,0.1-0.8,0.2c-0.2,0.1-0.4,0.2-0.5,0.4c-0.2,0.2-0.3,0.4-0.4,0.6c-0.1,0.2-0.2,0.5-0.2,0.8c0,0.3,0.1,0.7,0.3,1
								c0.2,0.3,0.4,0.5,0.7,0.7c0.3,0.2,0.6,0.3,0.9,0.3c0.3,0,0.6-0.1,0.8-0.2c0.2-0.1,0.4-0.2,0.6-0.4c0.2-0.2,0.3-0.4,0.4-0.6
								c0.1-0.2,0.1-0.5,0.1-0.7C69.3,36.7,69.3,36.4,69.2,36.1z M67.3,37.2c0.1,0,0.2,0,0.3,0.1c0.1,0,0.1,0.1,0.1,0.1
								c0,0.1,0,0.1,0.1,0.3c0,0.2,0,0.3,0,0.3h0.4c0-0.1,0-0.2,0-0.3c0-0.1,0-0.2,0-0.3c0-0.1-0.1-0.2-0.1-0.2
								c0-0.1-0.1-0.1-0.1-0.1c-0.1,0-0.1-0.1-0.2-0.1c0.1,0,0.2,0,0.2-0.1c0.1,0,0.2-0.1,0.2-0.2c0.1-0.1,0.1-0.2,0.1-0.3
								c0-0.1,0-0.2-0.1-0.3c-0.1-0.1-0.1-0.1-0.2-0.2c-0.1-0.1-0.2-0.1-0.3-0.1c-0.1,0-0.2,0-0.4,0h-0.8V38h0.5v-0.8L67.3,37.2
								L67.3,37.2z M67.6,36.2c0.1,0,0.1,0.1,0.2,0.1c0,0.1,0.1,0.1,0.1,0.2c0,0.1,0,0.1-0.1,0.2c0,0.1-0.1,0.1-0.2,0.1
								c-0.1,0-0.1,0-0.2,0h-0.3v-0.7h0.3C67.5,36.2,67.5,36.2,67.6,36.2z"/>
						</g>
						<polygon class="umn-gold" points="60.2,29.2 49,10.7 52.1,10.7 52.1,1 33.5,1 33.5,10.7 36.6,10.7 32.3,17.7 28.1,10.7 31.1,10.7
							31.1,1 12.6,1 12.6,10.7 15.6,10.7 4.5,29.2 0.5,29.2 0.5,38.9 19.4,38.9 19.4,29.2 16.1,29.2 21.9,19.5 24.1,23.3 22,23.3
							22,32.9 42.7,32.9 42.7,23.3 40.5,23.3 42.8,19.5 48.6,29.2 45.2,29.2 45.2,38.9 64.1,38.9 64.1,29.2 						"/>
					</g>
				</g>
			</g>
		</g>
	</g>
</g>
<g id="Layer_2_1_">
</g>
</svg>
