<?xml version="1.0" encoding="UTF-8" standalone="no"?>
<svg
   xmlns:dc="http://purl.org/dc/elements/1.1/"
   xmlns:cc="http://creativecommons.org/ns#"
   xmlns:rdf="http://www.w3.org/1999/02/22-rdf-syntax-ns#"
   xmlns:svg="http://www.w3.org/2000/svg"
   xmlns="http://www.w3.org/2000/svg"
   viewBox="0 0 698.12 73.41333"
   height="105"
   width="698.12"
   xml:space="preserve"
   id="svg2"
   version="1.1"><metadata
     id="metadata8"><rdf:RDF><cc:Work
         rdf:about=""><dc:format>image/svg+xml</dc:format><dc:type
           rdf:resource="http://purl.org/dc/dcmitype/StillImage" /></cc:Work></rdf:RDF></metadata><defs
     id="defs6" /><g
     transform="matrix(1.3333333,0,0,-1.3333333,0,73.413333)"
     id="g10"><g
       transform="scale(0.1)"
       id="g12"><path
         id="path14"
         style="fill:#155196;fill-opacity:1;fill-rule:nonzero;stroke:none"
         d="m 35.2773,90.3438 c 0.629,-8.3907 0.2071,-14.8829 3.5665,-23.0586 3.9843,-9.8438 14.8828,-15.9375 25.7812,-15.9375 15.7227,0 28.7188,9.4336 28.7188,25.5781 0,30.3982 -46.7461,47.1682 -46.7461,81.7622 0,22.636 15.9257,38.558 39.1992,38.558 9.2226,0 14.6721,-1.039 22.8511,-3.766 1.883,-0.628 3.981,-1.472 5.868,-1.472 2.304,0 2.726,1.051 4.191,1.894 h 3.563 l -6.493,-36.894 h -4.621 c 0,2.93 0.422,5.867 0.422,8.801 0,15.515 -10.269,24.734 -25.5663,24.734 -13.8398,0 -22.6445,-7.969 -22.6445,-22.008 0,-28.93 49.2618,-47.582 49.2618,-82.3827 0,-23.6914 -19.9142,-41.5039 -45.0704,-41.5039 -13.4141,0 -22.6406,4.1993 -30.3945,7.5469 L 30.25,45.8984 h -4.8242 l 5.6601,44.4454 h 4.1914" /><path
         id="path16"
         style="fill:#155196;fill-opacity:1;fill-rule:nonzero;stroke:none"
         d="M 215.762,74.6289 C 202.133,59.1094 185.785,44.6484 164.195,44.6484 c -16.769,0 -25.578,12.1485 -25.578,28.5157 0,28.4959 21.594,53.2379 46.328,63.2969 5.871,2.516 17.403,7.129 23.477,7.129 4.613,0 10.273,-2.942 10.273,-8.391 0,-6.289 -4.402,-10.898 -9.636,-10.898 -7.344,0 -10.696,6.707 -17.196,6.707 -21.175,0 -36.472,-38.3517 -36.472,-55.7541 0,-11.9531 7.543,-19.2969 19.918,-19.2969 14.246,0 28.296,12.5899 37.519,22.4414 l 2.934,-3.7695" /><path
         id="path18"
         style="fill:#155196;fill-opacity:1;fill-rule:nonzero;stroke:none"
         d="m 282.418,182.574 c 0,-4.816 -4.613,-9.433 -9.641,-9.433 -5.035,0 -9.648,4.617 -9.648,9.433 0,5.031 4.406,9.852 9.648,9.852 5.235,0 9.641,-4.821 9.641,-9.852 m -47.375,-66.242 c 6.074,9.227 21.172,27.258 33.117,27.258 5.031,0 6.496,-2.098 6.496,-5.246 0,-3.145 -1.879,-8.594 -2.933,-11.735 L 254.535,73.3594 c -1.258,-3.9844 -2.094,-6.9141 -2.094,-8.8008 0,-2.0977 0.629,-3.1523 2.723,-3.1523 2.938,0 13.836,11.3281 15.93,13.6328 l 3.355,-2.7149 c -6.496,-8.8086 -21.379,-27.6758 -33.332,-27.6758 -6.074,0 -7.969,3.5664 -7.969,8.3789 0,2.5196 1.055,6.0821 2.313,10.2735 l 18.031,53.2462 c 1.043,2.941 1.883,5.871 1.883,7.754 0,1.465 -0.84,2.515 -2.52,2.515 -4.394,0 -12.363,-10.062 -14.875,-13.418 l -2.937,2.934" /><path
         id="path20"
         style="fill:#155196;fill-opacity:1;fill-rule:nonzero;stroke:none"
         d="m 357.887,127.871 c 0,5.449 -3.157,9.008 -8.606,9.008 -16.14,0 -32.699,-29.34 -36.054,-43.1876 19.289,1.2695 44.66,11.3286 44.66,34.1796 m 9.218,-55.9765 c -13.839,-15.3007 -29.14,-27.2461 -47.589,-27.2461 -19.282,0 -25.782,14.2579 -25.782,28.3008 0,33.5348 29.977,70.6408 60.371,70.6408 9.434,0 20.547,-3.356 20.547,-14.883 0,-28.512 -40.043,-38.3632 -62.468,-40.4648 -1.262,-5.4492 -1.68,-10.6836 -1.68,-16.1328 0,-10.4766 7.34,-16.1524 17.187,-16.1524 12.157,0 24.532,7.9688 36.481,19.5039 l 2.933,-3.5664" /><path
         id="path22"
         style="fill:#155196;fill-opacity:1;fill-rule:nonzero;stroke:none"
         d="m 388.688,117.18 c 7.968,9.847 22.64,26.41 36.472,26.41 5.035,0 7.137,-3.145 7.137,-7.129 0,-3.566 -1.473,-7.551 -2.313,-10.059 L 419.086,94.7461 h 0.422 c 10.058,14.4649 41.082,49.0469 61.629,48.8439 6.496,0 8.383,-3.985 8.383,-8.602 0,-3.351 -1.047,-7.328 -2.098,-10.265 l -16.77,-46.1097 c -1.886,-5.0391 -3.14,-8.3985 -3.14,-10.8985 0,-2.5195 0.832,-4.414 3.773,-4.414 5.656,0 14.883,9.8633 18.028,14.6758 l 3.562,-2.7227 -7.547,-9.2305 c -7.34,-9.0117 -17.609,-18.2304 -29.14,-18.2304 -5.45,0 -7.965,3.1445 -7.965,6.914 0,3.3594 0.629,6.9258 2.933,13.0078 l 16.356,44.6482 c 0.629,1.879 2.722,7.539 2.722,10.469 0,2.727 -2.515,3.984 -4.82,3.984 -11.738,0 -23.691,-14.043 -30.605,-21.796 C 423.281,92.6563 414.262,78.1836 408.605,62.2461 l -4.191,-11.9336 c -0.629,-1.6797 -5.238,-2.3047 -7.758,-2.3047 -2.09,0 -5.66,1.25 -6.711,2.7149 l 20.547,61.8363 c 1.262,3.988 2.516,7.972 2.516,10.484 0,2.098 -0.836,3.773 -3.356,3.773 -4.398,0 -8.382,-3.355 -12.156,-7.125 l -5.66,-6.293 -3.148,3.782" /><path
         id="path24"
         style="fill:#155196;fill-opacity:1;fill-rule:nonzero;stroke:none"
         d="M 589.301,74.6289 C 575.676,59.1094 559.32,44.6484 537.73,44.6484 c -16.769,0 -25.574,12.1485 -25.574,28.5157 0,28.4959 21.594,53.2379 46.324,63.2969 5.872,2.516 17.403,7.129 23.477,7.129 4.621,0 10.273,-2.942 10.273,-8.391 0,-6.289 -4.402,-10.898 -9.636,-10.898 -7.344,0 -10.696,6.707 -17.196,6.707 -21.168,0 -36.472,-38.3517 -36.472,-55.7541 0,-11.9531 7.551,-19.2969 19.918,-19.2969 14.246,0 28.301,12.5899 37.519,22.4414 l 2.938,-3.7695" /><path
         id="path26"
         style="fill:#155196;fill-opacity:1;fill-rule:nonzero;stroke:none"
         d="m 669.996,127.871 c 0,5.449 -3.141,9.008 -8.594,9.008 -16.136,0 -32.695,-29.34 -36.054,-43.1876 19.285,1.2695 44.648,11.3286 44.648,34.1796 m 9.223,-55.9765 C 665.387,56.5938 650.082,44.6484 631.637,44.6484 c -19.282,0 -25.782,14.2579 -25.782,28.3008 0,33.5348 29.973,70.6408 60.372,70.6408 9.433,0 20.543,-3.356 20.543,-14.883 0,-28.512 -40.04,-38.3632 -62.469,-40.4648 -1.258,-5.4492 -1.68,-10.6836 -1.68,-16.1328 0,-10.4766 7.34,-16.1524 17.192,-16.1524 12.156,0 24.523,7.9688 36.476,19.5039 l 2.93,-3.5664" /><path
         id="path28"
         style="fill:#155196;fill-opacity:1;fill-rule:nonzero;stroke:none"
         d="m 829.723,140.445 -2.516,-8.593 H 804.359 L 769.352,3.76953 756.566,0 l -0.625,1.25 32.278,130.602 h -18.867 l 2.304,8.593 h 18.449 c 6.708,23.27 12.161,40.664 31.442,57.442 5.66,5.027 14.465,10.051 22.433,10.051 4.188,0 8.594,-1.668 8.594,-6.708 0,-2.929 -2.101,-10.062 -5.871,-10.062 -3.984,0 -8.387,4.199 -13.207,4.199 -12.781,0 -16.558,-14.258 -19.492,-26.203 l -7.34,-28.719 h 23.059" /><path
         id="path30"
         style="fill:#155196;fill-opacity:1;fill-rule:nonzero;stroke:none"
         d="m 880.027,50.0977 c 27.043,0 38.578,36.8945 38.578,58.4763 0,14.887 -5.66,29.567 -23.695,29.567 -28.086,0 -39.191,-35.426 -39.191,-58.4926 0,-15.7226 5.867,-29.5507 24.308,-29.5507 m 15.094,93.4923 c 24.317,0 40.246,-18.449 40.246,-42.555 0,-29.5584 -25.148,-56.3866 -55.129,-56.3866 -25.148,0 -41.293,16.7579 -41.293,42.1289 0,30.1917 25.782,56.8127 56.176,56.8127" /><path
         id="path32"
         style="fill:#155196;fill-opacity:1;fill-rule:nonzero;stroke:none"
         d="m 954.441,115.504 c 5.243,7.754 21.383,28.086 31.657,28.086 5.246,0 8.593,-2.305 8.593,-7.969 0,-2.301 -0.839,-6.285 -2.093,-10.898 l -7.965,-28.7269 h 0.418 c 5.656,10.7029 25.369,47.5939 38.569,47.5939 4.4,0 6.5,-2.52 6.5,-7.129 0,-4.824 -2.3,-15.508 -8.81,-15.508 -2.51,0 -5.24,0.84 -7.75,0.84 -14.462,0 -29.345,-40.6797 -36.271,-62.0469 l -3.769,-13.418 c -0.418,-1.4648 -3.77,-1.6797 -7.543,-1.6797 -2.723,0 -6.707,1.8946 -6.707,3.7696 0,0.625 0.207,1.2617 0.414,1.8945 l 16.562,57.8515 c 1.043,3.359 2.516,9.219 2.516,12.367 0,2.301 -1.258,5.449 -3.981,5.449 -5.664,0 -14.254,-9.859 -17.613,-14.046 l -2.727,3.57" /><path
         id="path34"
         style="fill:#155196;fill-opacity:1;fill-rule:nonzero;stroke:none"
         d="m 1136.6,166.859 h 16.77 l -8.59,-26.414 h 22.43 l -2.52,-8.593 h -22.22 l -18.23,-60.5825 c -0.63,-1.8945 -1.26,-4.3945 -1.26,-6.5039 0,-2.5195 1.05,-4.6093 4.19,-4.6093 8.18,0 20.54,12.7929 25.99,18.2421 l 2.94,-3.5742 c -9.43,-10.4687 -26.62,-30.1758 -41.93,-30.1758 -6.07,0 -9.22,5.4493 -9.22,10.8985 0,4.1992 1.68,9.8437 2.73,13.4179 l 18.65,62.8872 h -20.54 l 2.52,8.593 h 20.33 l 7.96,26.414" /><path
         id="path36"
         style="fill:#155196;fill-opacity:1;fill-rule:nonzero;stroke:none"
         d="m 1199.91,96.6406 h 0.42 c 9.01,14.2384 37.52,46.9494 57.01,46.9494 11.11,0 15.1,-7.969 15.1,-18.238 0,-21.172 -25.58,-77.559 -47.17,-77.559 -3.98,0 -5.03,2.0898 -5.03,4.6093 0,1.2579 0.62,2.9297 1.05,4.1915 l 4.4,10.2812 h 14.46 c 6.5,12.9883 15.51,37.305 15.51,51.77 0,7.121 -2.09,12.363 -8.38,12.363 -14.46,0 -39.2,-32.0627 -45.28,-43.5978 -7.13,-13.418 -8.59,-19.9102 -12.58,-35.8477 -0.41,-1.8828 -1.88,-3.3477 -9.01,-3.3477 -2.72,0 -6.7,1.043 -6.7,3.5625 0,2.0899 0.83,4.3946 1.25,6.4844 l 33.12,135.6403 -10.27,5.864 0.63,2.722 c 3.35,0.426 8.59,1.051 13.84,1.891 5.02,0.836 9.84,2.098 14.88,3.559 l 2.31,-0.833 -29.56,-110.4644" /><path
         id="path38"
         style="fill:#155196;fill-opacity:1;fill-rule:nonzero;stroke:none"
         d="m 1359.01,127.871 c 0,5.449 -3.15,9.008 -8.6,9.008 -16.14,0 -32.7,-29.34 -36.05,-43.1876 19.29,1.2695 44.65,11.3286 44.65,34.1796 m 9.22,-55.9765 c -13.84,-15.3007 -29.13,-27.2461 -47.59,-27.2461 -19.28,0 -25.78,14.2579 -25.78,28.3008 0,33.5348 29.98,70.6408 60.38,70.6408 9.43,0 20.54,-3.356 20.54,-14.883 0,-28.512 -40.04,-38.3632 -62.47,-40.4648 -1.25,-5.4492 -1.68,-10.6836 -1.68,-16.1328 0,-10.4766 7.34,-16.1524 17.19,-16.1524 12.16,0 24.52,7.9688 36.48,19.5039 l 2.93,-3.5664" /><path
         id="path40"
         style="fill:#155196;fill-opacity:1;fill-rule:nonzero;stroke:none"
         d="m 1522.92,134.988 c -25.99,0 -51.56,-43.5935 -51.56,-67.0778 0,-8.5938 3.15,-17.8125 12.79,-17.8125 25.78,0 51.35,46.3281 51.35,70.2183 0,7.965 -2.93,14.672 -12.58,14.672 m -42.13,-21.164 0.43,-0.426 c 11.31,13.004 28.5,30.192 47.37,30.192 16.77,0 23.68,-10.695 23.68,-26.621 0,-33.5393 -38.36,-72.3206 -71.48,-72.3206 -13.83,0 -24.94,7.1289 -24.94,22.4297 0,5.2461 1.25,10.4805 2.51,15.5 l 27.67,110.2739 -9.85,6.078 0.63,3.769 c 4.41,0.422 10.06,1.465 16.14,2.727 3.77,0.844 9.64,2.097 13.41,3.359 l 1.68,-1.262 -27.25,-93.699" /><path
         id="path42"
         style="fill:#155196;fill-opacity:1;fill-rule:nonzero;stroke:none"
         d="m 1636.33,127.871 c 0,5.449 -3.15,9.008 -8.6,9.008 -16.14,0 -32.7,-29.34 -36.05,-43.1876 19.28,1.2695 44.65,11.3286 44.65,34.1796 m 9.22,-55.9765 c -13.83,-15.3007 -29.14,-27.2461 -47.58,-27.2461 -19.28,0 -25.78,14.2579 -25.78,28.3008 0,33.5348 29.97,70.6408 60.36,70.6408 9.44,0 20.55,-3.356 20.55,-14.883 0,-28.512 -40.04,-38.3632 -62.47,-40.4648 -1.25,-5.4492 -1.67,-10.6836 -1.67,-16.1328 0,-10.4766 7.33,-16.1524 17.18,-16.1524 12.16,0 24.53,7.9688 36.48,19.5039 l 2.93,-3.5664" /><path
         id="path44"
         style="fill:#155196;fill-opacity:1;fill-rule:nonzero;stroke:none"
         d="m 1667.14,117.18 c 7.97,9.847 22.64,26.41 36.47,26.41 5.04,0 7.13,-3.145 7.13,-7.129 0,-3.566 -1.47,-7.551 -2.31,-10.059 l -10.9,-31.6559 h 0.43 c 10.05,14.4649 41.08,49.0469 61.62,48.8439 6.5,0 8.38,-3.985 8.38,-8.602 0,-3.351 -1.04,-7.328 -2.09,-10.265 l -16.76,-46.1097 c -1.9,-5.0391 -3.15,-8.3985 -3.15,-10.8985 0,-2.5195 0.84,-4.414 3.77,-4.414 5.66,0 14.88,9.8633 18.03,14.6758 l 3.56,-2.7227 -7.55,-9.2305 c -7.33,-9.0117 -17.6,-18.2304 -29.13,-18.2304 -5.45,0 -7.97,3.1445 -7.97,6.914 0,3.3594 0.63,6.9258 2.93,13.0078 l 16.36,44.6482 c 0.63,1.879 2.73,7.539 2.73,10.469 0,2.727 -2.52,3.984 -4.83,3.984 -11.74,0 -23.69,-14.043 -30.6,-21.796 -11.54,-12.3637 -20.55,-26.8364 -26.2,-42.7739 l -4.19,-11.9336 c -0.64,-1.6797 -5.25,-2.3047 -7.76,-2.3047 -2.1,0 -5.66,1.25 -6.71,2.7149 l 20.54,61.8363 c 1.26,3.988 2.52,7.972 2.52,10.484 0,2.098 -0.84,3.773 -3.36,3.773 -4.4,0 -8.38,-3.355 -12.16,-7.125 l -5.65,-6.293 -3.15,3.782" /><path
         id="path46"
         style="fill:#155196;fill-opacity:1;fill-rule:nonzero;stroke:none"
         d="m 1852.24,127.871 c 0,5.449 -3.15,9.008 -8.6,9.008 -16.14,0 -32.7,-29.34 -36.05,-43.1876 19.28,1.2695 44.65,11.3286 44.65,34.1796 m 9.22,-55.9765 c -13.84,-15.3007 -29.14,-27.2461 -47.59,-27.2461 -19.29,0 -25.78,14.2579 -25.78,28.3008 0,33.5348 29.97,70.6408 60.37,70.6408 9.43,0 20.55,-3.356 20.55,-14.883 0,-28.512 -40.04,-38.3632 -62.48,-40.4648 -1.25,-5.4492 -1.67,-10.6836 -1.67,-16.1328 0,-10.4766 7.33,-16.1524 17.19,-16.1524 12.15,0 24.53,7.9688 36.47,19.5039 l 2.94,-3.5664" /><path
         id="path48"
         style="fill:#155196;fill-opacity:1;fill-rule:nonzero;stroke:none"
         d="m 1885.56,140.445 h 20.33 c 5.03,24.735 13.21,42.973 33.33,57.645 8.8,6.289 18.24,9.848 29.14,9.848 9.64,0 22.43,-3.774 22.43,-15.512 0,-5.449 -3.99,-10.27 -9.44,-10.27 -3.77,0 -6.07,0.211 -6.07,4.192 0.21,9.644 -7.76,13.004 -15.1,13.004 -9.64,0 -16.98,-5.872 -22.43,-13.633 -5.45,-7.961 -8.8,-17.813 -10.48,-25.781 l -3.97,-19.493 h 58.27 l 1.89,-1.886 -19.5,-64.7699 c -1.26,-4.1993 -2.09,-7.1289 -2.09,-9.2305 0,-2.0977 0.62,-3.1523 2.72,-3.1523 2.93,0 13.83,11.7578 15.93,14.0546 l 3.35,-2.7265 c -6.49,-8.8086 -21.38,-28.086 -33.33,-28.086 -6.08,0 -7.97,3.9844 -7.97,8.8086 0,2.5 0.84,6.2891 2.1,10.2735 l 19.29,68.1215 h -42.55 L 1891.85,6.91406 1878.85,0 l -1.68,1.04688 27.26,130.80512 h -21.39 l 2.52,8.593" /><path
         id="path50"
         style="fill:#155196;fill-opacity:1;fill-rule:nonzero;stroke:none"
         d="m 2038.37,166.859 h 16.77 l -8.59,-26.414 h 22.42 l -2.51,-8.593 h -22.22 L 2026,71.2695 c -0.62,-1.8945 -1.25,-4.3945 -1.25,-6.5039 0,-2.5195 1.04,-4.6093 4.19,-4.6093 8.17,0 20.54,12.7929 26,18.2421 l 2.93,-3.5742 c -9.43,-10.4687 -26.62,-30.1758 -41.93,-30.1758 -6.08,0 -9.22,5.4493 -9.22,10.8985 0,4.1992 1.67,9.8437 2.72,13.4179 l 18.66,62.8872 h -20.54 l 2.51,8.593 h 20.34 l 7.96,26.414" /><path
         id="path52"
         style="fill:#155196;fill-opacity:1;fill-rule:nonzero;stroke:none"
         d="m 2181.96,50.0977 c 27.04,0 38.57,36.8945 38.57,58.4763 0,14.887 -5.66,29.567 -23.69,29.567 -28.09,0 -39.2,-35.426 -39.2,-58.4926 0,-15.7226 5.88,-29.5507 24.32,-29.5507 m 15.1,93.4923 c 24.31,0 40.24,-18.449 40.24,-42.555 0,-29.5584 -25.15,-56.3866 -55.13,-56.3866 -25.16,0 -41.3,16.7579 -41.3,42.1289 0,30.1917 25.79,56.8127 56.19,56.8127" /><path
         id="path54"
         style="fill:#155196;fill-opacity:1;fill-rule:nonzero;stroke:none"
         d="m 2324.29,140.445 -2.51,-8.593 h -22.85 L 2263.92,3.76953 2251.14,0 l -0.64,1.25 32.28,130.602 h -18.86 l 2.31,8.593 h 18.44 c 6.71,23.27 12.16,40.664 31.45,57.442 5.66,5.027 14.46,10.051 22.42,10.051 4.2,0 8.6,-1.668 8.6,-6.708 0,-2.929 -2.1,-10.062 -5.88,-10.062 -3.97,0 -8.38,4.199 -13.2,4.199 -12.79,0 -16.56,-14.258 -19.49,-26.203 l -7.33,-28.719 h 23.05" /><path
         id="path56"
         style="fill:#155196;fill-opacity:1;fill-rule:nonzero;stroke:none"
         d="m 2417.15,96.6406 h 0.42 c 9.02,14.2384 37.52,46.9494 57.02,46.9494 11.1,0 15.09,-7.969 15.09,-18.238 0,-21.172 -25.58,-77.559 -47.17,-77.559 -3.98,0 -5.02,2.0898 -5.02,4.6093 0,1.2579 0.63,2.9297 1.04,4.1915 l 4.4,10.2812 h 14.46 c 6.51,12.9883 15.52,37.305 15.52,51.77 0,7.121 -2.1,12.363 -8.38,12.363 -14.47,0 -39.2,-32.0627 -45.28,-43.5978 -7.13,-13.418 -8.6,-19.9102 -12.58,-35.8477 -0.42,-1.8828 -1.89,-3.3477 -9.01,-3.3477 -2.73,0 -6.71,1.043 -6.71,3.5625 0,2.0899 0.83,4.3946 1.26,6.4844 l 33.12,135.6403 -10.28,5.864 0.64,2.722 c 3.35,0.426 8.59,1.051 13.83,1.891 5.03,0.836 9.86,2.098 14.88,3.559 l 2.3,-0.833 -29.55,-110.4644" /><path
         id="path58"
         style="fill:#155196;fill-opacity:1;fill-rule:nonzero;stroke:none"
         d="m 2613.35,73.3594 c -8.59,-9.4336 -21.79,-25.5664 -35.84,-25.5664 -5.03,0 -7.76,2.7148 -7.76,7.3359 0,3.3477 1.68,8.7969 3.99,15.5156 l 12.57,37.0975 h -0.42 c -10.27,-13.2107 -44.44,-59.949 -64.98,-59.949 -4.61,0 -8.81,3.7695 -8.81,8.164 0,1.6875 0.84,5.0391 2.1,9.0235 l 18.24,54.0855 c 0,-0.218 0.84,2.301 0.84,4.61 0,1.676 -0.63,3.14 -2.73,3.14 -6.07,0 -13.42,-9.636 -17.39,-13.625 l -3.36,3.563 7.13,7.34 c 8.59,8.597 19.71,19.496 29.55,19.496 4.19,0 6.92,-2.52 6.92,-6.711 0,-3.356 -1.04,-6.492 -2.73,-10.899 l -18.86,-56.3902 c -0.21,-1.0429 -0.41,-1.875 -0.41,-2.9296 0,-1.4649 1.67,-2.1016 3.56,-2.1016 14.25,0 53.87,53.8754 60.99,72.5274 1.48,3.777 2.94,6.504 7.14,6.504 3.56,0 7.12,-3.985 9.43,-6.078 l -22.85,-68.3323 c -0.42,-1.0547 -0.63,-2.1016 -0.63,-2.9492 0,-1.6719 0.83,-2.9297 3.15,-2.9297 5.45,0 14.04,9.6484 18.23,13.0078 l 2.93,-2.9492" /><path
         id="path60"
         style="fill:#155196;fill-opacity:1;fill-rule:nonzero;stroke:none"
         d="m 2790.9,73.3594 -6.5,-7.1289 c -8.16,-9.0039 -18.03,-18.4375 -29.55,-18.4375 -3.99,0 -7.76,1.6797 -7.76,7.1289 0,2.3047 1.04,5.6523 2.51,9.8437 l 16.99,48.6324 c 1.04,2.934 2.3,6.504 2.3,8.598 0,3.356 -2.52,5.031 -4.82,5.031 -10.9,0 -29.97,-21.168 -36.68,-29.3512 -9.86,-12.1485 -15.72,-23.0469 -21.59,-38.1445 l -3.98,-9.6485 c -0.63,-1.875 -5.25,-2.5195 -7.14,-2.5195 -2.51,0 -6.71,1.4844 -7.33,2.9492 l 18.87,55.7615 c 0.62,2.09 3.56,10.047 3.56,15.504 0,2.938 -1.04,5.238 -3.98,5.238 -11.32,0 -23.9,-14.668 -30.61,-22.011 -11.53,-12.3636 -20.54,-26.8284 -26.2,-42.7542 l -4.19,-11.9531 c -0.63,-1.6797 -5.24,-2.3047 -7.76,-2.3047 -2.09,0 -5.66,1.25 -6.7,2.7148 l 22.21,66.8752 c 0.21,1.262 0.83,3.355 0.83,5.246 0,2.309 -0.83,4.187 -3.35,4.187 -4.4,0 -8.37,-3.558 -12.15,-7.328 l -5.66,-6.297 -3.15,3.778 c 7.97,9.847 22.65,26.621 36.48,26.621 5.03,0 7.13,-3.356 7.13,-7.34 0,-3.559 -1.47,-7.543 -2.3,-10.062 l -10.91,-31.6567 h 0.42 c 10.06,14.4727 41.08,49.0587 59.74,49.0587 6.51,0 9.44,-2.942 9.44,-6.926 0,-3.344 -1.06,-7.539 -2.32,-11.312 L 2716.7,94.1211 h 0.41 c 11.32,14.2579 42.78,49.4689 62.68,49.4689 6.5,0 8.39,-3.985 8.39,-8.602 0,-3.351 -1.05,-7.328 -2.1,-10.265 l -16.77,-49.0589 c -1.04,-3.3399 -2.94,-7.5391 -2.94,-9.8438 0,-1.6797 1.9,-2.5195 3.36,-2.5195 3.77,0 15.1,9.8633 18.24,13.2031 l 2.93,-3.1445" /><path
         id="path62"
         style="fill:#155196;fill-opacity:1;fill-rule:nonzero;stroke:none"
         d="m 2830.93,60.1563 c 20.34,0 46.33,44.2387 46.33,62.8867 0,5.238 -5.03,10.691 -10.48,10.691 -22.63,0 -46.53,-38.3629 -46.53,-59.1051 0,-7.1289 2.51,-14.4726 10.68,-14.4726 m 57.86,83.2187 c 0.84,1.473 2.1,4.199 4.61,4.199 h 4.41 c 1.26,0 1.88,-0.426 1.88,-1.054 0,-0.411 -0.21,-0.836 -0.41,-1.672 l -20.76,-74.4183 c -0.62,-1.8828 -0.84,-3.1445 -0.84,-5.2344 0,-1.4648 0.64,-2.9492 2.52,-2.9492 6.07,0 11.52,8.8086 15.51,12.3828 l 3.36,-2.7344 c -8.18,-8.5937 -20.34,-27.2461 -33.54,-27.2461 -3.15,0 -7.14,1.6797 -7.14,5.8594 0,3.5742 1.69,9.4336 3.57,15.3125 l 5.87,18.4375 -0.21,0.6367 c -10.69,-16.1445 -30.19,-40.2461 -46.95,-40.2461 -12.79,0 -15.94,9.8438 -15.94,17.4024 0,33.3203 40.88,81.5392 67.92,81.5392 5.25,0 10.06,-2.942 13.21,-6.926 l 2.93,6.711" /><path
         id="path64"
         style="fill:#155196;fill-opacity:1;fill-rule:nonzero;stroke:none"
         d="m 2916.25,117.18 c 7.96,9.847 22.64,26.41 36.47,26.41 5.04,0 7.13,-3.145 7.13,-7.129 0,-3.566 -1.47,-7.551 -2.31,-10.059 l -10.89,-31.6559 h 0.41 c 10.06,14.4649 41.09,49.0469 61.64,48.8439 6.49,0 8.38,-3.985 8.38,-8.602 0,-3.351 -1.05,-7.328 -2.09,-10.265 l -16.78,-46.1097 c -1.89,-5.0391 -3.15,-8.3985 -3.15,-10.8985 0,-2.5195 0.84,-4.414 3.78,-4.414 5.66,0 14.89,9.8633 18.03,14.6758 l 3.56,-2.7227 -7.54,-9.2305 c -7.34,-9.0117 -17.61,-18.2304 -29.14,-18.2304 -5.45,0 -7.96,3.1445 -7.96,6.914 0,3.3594 0.62,6.9258 2.93,13.0078 l 16.34,44.6482 c 0.64,1.879 2.74,7.539 2.74,10.469 0,2.727 -2.52,3.984 -4.83,3.984 -11.73,0 -23.69,-14.043 -30.6,-21.796 -11.53,-12.3637 -20.55,-26.8364 -26.21,-42.7739 l -4.18,-11.9336 c -0.64,-1.6797 -5.26,-2.3047 -7.77,-2.3047 -2.09,0 -5.65,1.25 -6.71,2.7149 l 20.55,61.8363 c 1.26,3.988 2.52,7.972 2.52,10.484 0,2.098 -0.84,3.773 -3.36,3.773 -4.4,0 -8.39,-3.355 -12.15,-7.125 l -5.66,-6.293 -3.15,3.782" /><path
         id="path66"
         style="fill:#155196;fill-opacity:1;fill-rule:nonzero;stroke:none"
         d="m 3087.31,182.574 c 0,-4.816 -4.62,-9.433 -9.65,-9.433 -5.04,0 -9.65,4.617 -9.65,9.433 0,5.031 4.42,9.852 9.65,9.852 5.24,0 9.65,-4.821 9.65,-9.852 m -47.38,-66.242 c 6.07,9.227 21.17,27.258 33.11,27.258 5.03,0 6.5,-2.098 6.5,-5.246 0,-3.145 -1.88,-8.594 -2.93,-11.735 l -17.19,-53.2496 c -1.26,-3.9844 -2.1,-6.9141 -2.1,-8.8008 0,-2.0977 0.63,-3.1523 2.72,-3.1523 2.94,0 13.85,11.3281 15.94,13.6328 l 3.36,-2.7149 c -6.5,-8.8086 -21.39,-27.6758 -33.34,-27.6758 -6.07,0 -7.96,3.5664 -7.96,8.3789 0,2.5196 1.05,6.0821 2.3,10.2735 l 18.03,53.2462 c 1.05,2.941 1.89,5.871 1.89,7.754 0,1.465 -0.84,2.515 -2.52,2.515 -4.4,0 -12.36,-10.062 -14.88,-13.418 l -2.93,2.934" /><path
         id="path68"
         style="fill:#155196;fill-opacity:1;fill-rule:nonzero;stroke:none"
         d="m 3132.99,166.859 h 16.78 l -8.59,-26.414 h 22.42 l -2.51,-8.593 h -22.22 l -18.24,-60.5825 c -0.63,-1.8945 -1.26,-4.3945 -1.26,-6.5039 0,-2.5195 1.05,-4.6093 4.19,-4.6093 8.18,0 20.55,12.7929 26,18.2421 l 2.93,-3.5742 c -9.44,-10.4687 -26.63,-30.1758 -41.92,-30.1758 -6.08,0 -9.23,5.4493 -9.23,10.8985 0,4.1992 1.68,9.8437 2.73,13.4179 l 18.65,62.8872 h -20.54 l 2.52,8.593 h 20.33 l 7.96,26.414" /><path
         id="path70"
         style="fill:#155196;fill-opacity:1;fill-rule:nonzero;stroke:none"
         d="m 3174.71,109.004 -5.03,2.93 c 0,13.832 5.66,31.656 22.64,31.656 29.55,0 29.13,-65.4064 33.33,-85.5236 8.8,15.7227 22.85,37.5195 22.85,55.7576 0,7.754 -2.52,11.317 -2.52,17.184 0,6.293 3.35,12.582 9.85,12.582 6.09,0 8.18,-5.664 8.18,-11.113 0,-23.063 -33.75,-80.6997 -48.63,-99.5668 C 3206.57,21.3789 3192.1,0 3175.34,0 c -4.41,0 -8.6,3.76953 -8.6,8.37891 0,4.61719 2.52,8.59379 7.54,8.59379 2.74,0 5.46,-1.4649 8.81,-1.4649 4.61,0 10.9,2.0899 17.82,10.0586 l 11.32,13.2109 -0.62,10.9024 -1.9,17.3984 c -3.34,24.1133 -10.9,60.9959 -24.52,60.9959 -5.87,0 -10.06,-3.98 -10.06,-9.64 0,-2.93 0.42,-5.243 1.47,-7.965 l -1.89,-1.465" /><path
         id="path72"
         style="fill:#155196;fill-opacity:1;fill-rule:nonzero;stroke:none"
         d="M 76.1719,530.938 36.0703,529.859 C 20.4531,529.324 14,527.98 9.96094,522.055 7.26953,518.016 5.92188,514.789 5.38672,512.633 4.84766,510.484 4.03906,509.402 2.42578,509.402 0.542969,509.402 0,510.75 0,513.711 c 0,4.305 5.11719,28.797 5.65625,30.953 0.80469,3.5 1.61328,5.109 3.22656,5.109 2.15629,0 4.84379,-2.687 11.57029,-3.226 7.8125,-0.809 18.0391,-1.344 26.918,-1.344 H 153.949 c 8.614,0 14.535,0.809 18.574,1.344 4.036,0.812 6.188,1.348 7.266,1.348 1.887,0 2.149,-1.61 2.149,-5.649 0,-5.656 -0.801,-24.23 -0.801,-31.226 -0.274,-2.696 -0.809,-4.305 -2.426,-4.305 -2.152,0 -2.691,1.34 -2.957,5.387 l -0.27,2.957 c -0.539,6.996 -7.804,14.531 -31.757,15.074 l -33.918,0.805 V 420.59 c 0,-24.766 0,-46.024 1.347,-57.598 0.813,-7.539 2.422,-13.461 10.5,-14.531 3.766,-0.539 9.688,-1.082 13.727,-1.082 2.957,0 4.305,-0.809 4.305,-2.149 0,-1.886 -2.153,-2.695 -5.114,-2.695 -17.761,0 -34.7224,0.809 -42.2537,0.809 -6.1914,0 -23.1523,-0.809 -33.918,-0.809 -3.496,0 -5.3789,0.809 -5.3789,2.695 0,1.34 1.0743,2.149 4.3047,2.149 4.0391,0 7.2657,0.543 9.6875,1.082 5.3828,1.07 7.0039,6.992 7.8086,14.797 1.3477,11.308 1.3477,32.566 1.3477,57.332 v 110.348" /><path
         id="path74"
         style="fill:#155196;fill-opacity:1;fill-rule:nonzero;stroke:none"
         d="m 376.801,460.418 c 0.804,0 1.617,0.543 1.617,1.891 v 5.644 c 0,40.918 0,48.453 -0.543,57.067 -0.535,9.144 -2.687,13.453 -11.57,15.335 -2.149,0.543 -6.731,0.805 -10.492,0.805 -2.965,0 -4.579,0.543 -4.579,2.43 0,1.879 1.879,2.422 5.657,2.422 14.531,0 31.484,-0.809 38.75,-0.809 6.461,0 23.418,0.809 33.914,0.809 3.769,0 5.648,-0.543 5.648,-2.422 0,-1.887 -1.613,-2.43 -4.836,-2.43 -2.16,0 -4.582,-0.262 -7.812,-0.805 -7.266,-1.347 -9.414,-5.917 -9.961,-15.335 -0.531,-8.614 -0.531,-16.149 -0.531,-57.067 V 420.59 c 0,-24.766 0,-46.024 1.343,-57.598 0.809,-7.539 2.418,-13.461 10.496,-14.531 3.77,-0.539 9.688,-1.082 13.731,-1.082 2.957,0 4.305,-0.809 4.305,-2.149 0,-1.886 -2.157,-2.695 -5.383,-2.695 -17.496,0 -34.453,0.809 -41.989,0.809 -6.191,0 -23.144,-0.809 -33.644,-0.809 -3.77,0 -5.652,0.809 -5.652,2.695 0,1.34 1.074,2.149 4.304,2.149 4.039,0 7.274,0.543 9.688,1.082 5.386,1.07 6.734,6.992 7.812,14.797 1.344,11.308 1.344,32.566 1.344,57.332 v 23.687 c 0,1.071 -0.813,1.614 -1.617,1.614 H 273.988 c -0.808,0 -1.617,-0.27 -1.617,-1.614 V 420.59 c 0,-24.766 0,-46.024 1.352,-57.598 0.804,-7.539 2.422,-13.461 10.492,-14.531 3.769,-0.539 9.691,-1.082 13.73,-1.082 2.957,0 4.305,-0.809 4.305,-2.149 0,-1.886 -2.156,-2.695 -5.387,-2.695 -17.492,0 -34.445,0.809 -41.984,0.809 -6.191,0 -23.145,-0.809 -33.91,-0.809 -3.496,0 -5.383,0.809 -5.383,2.695 0,1.34 1.074,2.149 4.309,2.149 4.035,0 7.269,0.543 9.679,1.082 5.387,1.07 6.735,6.992 7.813,14.797 1.347,11.308 1.347,32.566 1.347,57.332 v 47.363 c 0,40.918 0,48.453 -0.546,57.067 -0.532,9.144 -2.684,13.453 -11.571,15.335 -2.148,0.543 -6.722,0.805 -10.496,0.805 -2.957,0 -4.574,0.543 -4.574,2.43 0,1.879 1.887,2.422 5.656,2.422 14.531,0 31.485,-0.809 38.754,-0.809 6.461,0 23.414,0.809 33.91,0.809 3.77,0 5.656,-0.543 5.656,-2.422 0,-1.887 -1.617,-2.43 -4.843,-2.43 -2.16,0 -4.582,-0.262 -7.813,-0.805 -7.265,-1.347 -9.414,-5.917 -9.957,-15.335 -0.539,-8.614 -0.539,-16.149 -0.539,-57.067 v -5.644 c 0,-1.348 0.809,-1.891 1.617,-1.891 h 102.813" /><path
         id="path76"
         style="fill:#155196;fill-opacity:1;fill-rule:nonzero;stroke:none"
         d="m 507.336,467.953 c 0,40.918 0,48.453 -0.539,57.067 -0.543,9.144 -2.692,13.453 -11.57,15.335 -2.157,0.543 -6.731,0.805 -10.5,0.805 -2.965,0 -4.575,0.543 -4.575,2.43 0,1.879 1.883,2.422 5.918,2.422 14.266,0 31.227,-0.809 38.758,-0.809 8.613,0 62.168,0 67.285,0.266 5.114,0.543 9.418,1.078 11.575,1.617 1.347,0.273 2.96,1.078 4.304,1.078 1.348,0 1.617,-1.078 1.617,-2.426 0,-1.883 -1.347,-5.109 -2.152,-17.496 -0.273,-2.691 -0.809,-14.531 -1.348,-17.758 -0.269,-1.343 -0.804,-2.961 -2.687,-2.961 -1.891,0 -2.426,1.348 -2.426,3.77 0,1.875 -0.269,6.457 -1.617,9.684 -1.883,4.847 -4.57,8.082 -18.031,9.691 -4.575,0.539 -32.836,1.074 -38.219,1.074 -1.344,0 -1.883,-0.804 -1.883,-2.683 v -68.098 c 0,-1.891 0.274,-2.957 1.883,-2.957 5.926,0 36.875,0 43.066,0.535 6.457,0.531 10.493,1.348 12.922,4.035 1.879,2.153 2.957,3.5 4.305,3.5 1.074,0 1.883,-0.543 1.883,-2.152 0,-1.613 -1.352,-5.918 -2.157,-19.645 -0.535,-5.39 -1.074,-16.156 -1.074,-18.031 0,-2.152 0,-5.117 -2.426,-5.117 -1.878,0 -2.421,1.074 -2.421,2.422 -0.27,2.695 -0.27,6.191 -1.075,9.687 -1.343,5.383 -5.117,9.422 -15.074,10.496 -5.109,0.543 -31.758,0.805 -38.211,0.805 -1.347,0 -1.621,-1.078 -1.621,-2.691 V 420.59 c 0,-9.156 -0.269,-33.91 0,-41.719 0.539,-18.574 4.844,-22.605 32.301,-22.605 6.996,0 18.305,0 25.297,3.226 6.996,3.227 10.226,8.883 12.113,19.922 0.531,2.957 1.078,4.027 2.961,4.027 2.152,0 2.152,-2.152 2.152,-4.843 0,-6.188 -2.152,-24.493 -3.504,-29.871 -1.878,-6.993 -4.304,-6.993 -14.531,-6.993 -40.637,0 -58.676,1.61 -74.555,1.61 -6.183,0 -23.144,-0.809 -33.906,-0.809 -3.504,0 -5.386,0.809 -5.386,2.695 0,1.34 1.082,2.149 4.308,2.149 4.039,0 7.266,0.543 9.688,1.082 5.379,1.07 6.722,6.992 7.8,14.797 1.352,11.308 1.352,32.566 1.352,57.332 v 47.363" /><path
         id="path78"
         style="fill:#155196;fill-opacity:1;fill-rule:nonzero;stroke:none"
         d="m 851.293,446.695 c 0,-2.961 0.539,-4.035 2.422,-4.847 5.656,-1.875 13.73,-2.684 20.461,-2.684 10.765,0 14.258,1.07 19.109,4.57 8.067,5.918 15.879,18.301 15.879,40.371 0,38.219 -25.301,49.258 -41.18,49.258 -6.73,0 -11.578,-0.273 -14.269,-1.078 -1.883,-0.543 -2.422,-1.617 -2.422,-3.773 z m -31.758,21.258 c 0,40.918 0,48.453 -0.535,57.067 -0.539,9.144 -2.695,13.453 -11.574,15.335 -2.153,0.543 -6.727,0.805 -10.496,0.805 -2.961,0 -4.575,0.543 -4.575,2.43 0,1.879 1.883,2.422 5.922,2.422 14.266,0 31.219,-0.809 36.868,-0.809 9.156,0 29.605,0.809 37.957,0.809 16.953,0 34.984,-1.614 49.515,-11.574 7.535,-5.114 18.305,-18.836 18.305,-36.872 0,-19.921 -8.344,-38.226 -35.527,-60.293 23.957,-30.144 42.527,-54.093 58.406,-70.781 15.07,-15.613 26.105,-17.492 30.14,-18.304 2.961,-0.536 5.379,-0.809 7.539,-0.809 2.15,0 3.23,-0.809 3.23,-2.149 0,-2.148 -1.88,-2.695 -5.116,-2.695 h -25.567 c -15.078,0 -21.804,1.348 -28.797,5.117 -11.574,6.188 -21.8,18.84 -36.875,39.559 -10.761,14.805 -23.152,33.105 -26.64,37.144 -1.348,1.614 -2.965,1.891 -4.856,1.891 l -23.414,0.535 c -1.34,0 -2.152,-0.535 -2.152,-2.156 v -3.77 c 0,-25.031 0,-46.289 1.348,-57.597 0.804,-7.805 2.422,-13.727 10.5,-14.797 4.031,-0.539 9.961,-1.082 13.187,-1.082 2.152,0 3.227,-0.809 3.227,-2.149 0,-1.886 -1.883,-2.695 -5.379,-2.695 -15.617,0 -35.528,0.809 -39.567,0.809 -5.113,0 -22.066,-0.809 -32.836,-0.809 -3.496,0 -5.382,0.809 -5.382,2.695 0,1.34 1.074,2.149 4.308,2.149 4.031,0 7.266,0.543 9.688,1.082 5.379,1.07 6.726,6.992 7.801,14.797 1.347,11.308 1.347,32.566 1.347,57.332 v 47.363" /><path
         id="path80"
         style="fill:#155196;fill-opacity:1;fill-rule:nonzero;stroke:none"
         d="m 1200.91,439.164 c 0,60.285 -34.72,97.691 -78.86,97.691 -30.95,0 -66.21,-17.226 -66.21,-84.242 0,-55.976 30.96,-100.386 82.63,-100.386 18.84,0 62.44,9.156 62.44,86.937 m -182.2,5.113 c 0,46.02 30.41,105.496 111.15,105.496 67.01,0 108.73,-39.023 108.73,-100.656 0,-61.633 -43.06,-110.344 -111.42,-110.344 -77.25,0 -108.46,57.864 -108.46,105.504" /><path
         id="path82"
         style="fill:#155196;fill-opacity:1;fill-rule:nonzero;stroke:none"
         d="m 1328.22,368.105 c -26.38,23.145 -33.38,53.29 -33.38,79.395 0,18.305 5.65,50.066 31.49,73.746 19.38,17.762 44.94,28.527 85.05,28.527 16.69,0 26.64,-1.078 39.03,-2.687 10.22,-1.348 18.83,-3.77 26.91,-4.578 2.96,-0.262 4.04,-1.61 4.04,-3.227 0,-2.156 -0.81,-5.386 -1.35,-14.804 -0.54,-8.875 -0.27,-23.688 -0.81,-29.063 -0.26,-4.043 -0.8,-6.195 -3.22,-6.195 -2.16,0 -2.7,2.152 -2.7,5.922 -0.27,8.343 -3.76,17.765 -10.49,24.757 -8.88,9.426 -29.88,16.692 -54.64,16.692 -23.41,0 -38.76,-5.922 -50.6,-16.692 -19.64,-18.023 -24.76,-43.601 -24.76,-69.703 0,-64.058 48.71,-95.816 84.78,-95.816 23.95,0 38.49,2.695 49.25,15.074 4.58,5.113 8.08,12.918 9.16,17.758 0.8,4.309 1.34,5.387 3.49,5.387 1.89,0 2.42,-1.879 2.42,-4.039 0,-3.227 -3.22,-26.641 -5.91,-35.789 -1.35,-4.582 -2.43,-5.93 -7.01,-7.809 -10.76,-4.309 -31.22,-6.188 -48.44,-6.188 -36.87,0 -67.82,8.067 -92.31,29.332" /><path
         id="path84"
         style="fill:#155196;fill-opacity:1;fill-rule:nonzero;stroke:none"
         d="m 1598.97,456.113 h 1.35 c 9.15,9.961 48.44,50.067 56.25,59.207 7.54,8.883 13.45,15.618 13.45,20.192 0,2.961 -1.07,4.843 -3.76,5.386 -2.43,0.532 -3.5,1.079 -3.5,2.692 0,1.879 1.35,2.422 4.31,2.422 5.65,0 20.45,-0.809 27.72,-0.809 8.34,0 23.14,0.809 31.48,0.809 2.7,0 4.58,-0.543 4.58,-2.422 0,-1.887 -1.34,-2.43 -4.03,-2.43 -3.78,0 -10.5,-1.066 -15.62,-2.957 -8.34,-3.226 -17.49,-8.879 -29.06,-20.187 -8.35,-8.071 -48.99,-48.442 -58.14,-58.129 9.69,-12.653 62.45,-69.442 72.94,-79.403 11.84,-11.3 23.95,-23.41 38.49,-29.062 8.07,-3.234 13.45,-4.043 16.68,-4.043 1.89,0 3.51,-0.539 3.51,-2.149 0,-1.886 -1.35,-2.695 -6.46,-2.695 h -23.42 c -8.08,0 -12.92,0 -18.58,0.547 -14.53,1.336 -21.79,7.266 -33.37,17.488 -11.84,10.493 -64.86,72.668 -70.51,80.469 l -2.96,4.043 h -1.35 V 420.59 c 0,-24.766 0,-46.024 0.81,-57.598 0.54,-7.539 2.96,-13.461 9.69,-14.531 3.76,-0.539 9.69,-1.082 13.18,-1.082 2.15,0 3.5,-0.809 3.5,-2.149 0,-1.886 -2.15,-2.695 -5.11,-2.695 -15.07,0 -32.03,0.809 -38.75,0.809 -6.2,0 -23.15,-0.809 -33.92,-0.809 -3.49,0 -5.38,0.809 -5.38,2.695 0,1.34 1.08,2.149 4.3,2.149 4.04,0 7.28,0.543 9.7,1.082 5.38,1.07 6.73,6.992 7.8,14.797 1.35,11.308 1.35,32.566 1.35,57.332 v 47.363 c 0,40.918 0,48.453 -0.54,57.067 -0.54,9.144 -2.69,13.453 -11.58,15.335 -2.15,0.543 -6.73,0.805 -10.49,0.805 -2.96,0 -4.57,0.543 -4.57,2.43 0,1.879 1.87,2.422 5.92,2.422 14.26,0 31.21,-0.809 37.67,-0.809 6.46,0 23.42,0.809 32.57,0.809 3.77,0 5.66,-0.543 5.66,-2.422 0,-1.887 -1.62,-2.43 -3.77,-2.43 -2.69,0 -4.31,-0.262 -7.54,-0.805 -7.27,-1.347 -9.42,-5.917 -9.96,-15.335 -0.54,-8.614 -0.54,-16.149 -0.54,-57.067 v -11.84" /><path
         id="path86"
         style="fill:#155196;fill-opacity:1;fill-rule:nonzero;stroke:none"
         d="m 1799.49,467.953 c 0,40.918 0,48.453 -0.54,57.067 -0.55,9.144 -2.7,13.453 -11.58,15.335 -2.15,0.543 -6.73,0.805 -10.49,0.805 -2.97,0 -4.58,0.543 -4.58,2.43 0,1.879 1.88,2.422 5.92,2.422 14.27,0 31.22,-0.809 38.76,-0.809 8.61,0 62.17,0 67.28,0.266 5.12,0.543 9.43,1.078 11.57,1.617 1.35,0.273 2.96,1.078 4.31,1.078 1.34,0 1.61,-1.078 1.61,-2.426 0,-1.883 -1.33,-5.109 -2.15,-17.496 -0.27,-2.691 -0.81,-14.531 -1.34,-17.758 -0.27,-1.343 -0.81,-2.961 -2.69,-2.961 -1.88,0 -2.43,1.348 -2.43,3.77 0,1.875 -0.27,6.457 -1.61,9.684 -1.88,4.847 -4.58,8.082 -18.03,9.691 -4.58,0.539 -32.84,1.074 -38.22,1.074 -1.35,0 -1.88,-0.804 -1.88,-2.683 v -68.098 c 0,-1.891 0.26,-2.957 1.88,-2.957 5.92,0 36.87,0 43.06,0.535 6.46,0.531 10.5,1.348 12.92,4.035 1.88,2.153 2.96,3.5 4.31,3.5 1.08,0 1.88,-0.543 1.88,-2.152 0,-1.613 -1.34,-5.918 -2.15,-19.645 -0.54,-5.39 -1.08,-16.156 -1.08,-18.031 0,-2.152 0,-5.117 -2.42,-5.117 -1.89,0 -2.42,1.074 -2.42,2.422 -0.27,2.695 -0.27,6.191 -1.08,9.687 -1.35,5.383 -5.11,9.422 -15.07,10.496 -5.11,0.543 -31.76,0.805 -38.22,0.805 -1.35,0 -1.61,-1.078 -1.61,-2.691 V 420.59 c 0,-9.156 -0.27,-33.91 0,-41.719 0.53,-18.574 4.84,-22.605 32.29,-22.605 7,0 18.3,0 25.31,3.226 6.99,3.227 10.22,8.883 12.1,19.922 0.54,2.957 1.08,4.027 2.96,4.027 2.16,0 2.16,-2.152 2.16,-4.843 0,-6.188 -2.16,-24.493 -3.5,-29.871 -1.89,-6.993 -4.3,-6.993 -14.54,-6.993 -40.64,0 -58.67,1.61 -74.55,1.61 -6.19,0 -23.14,-0.809 -33.91,-0.809 -3.5,0 -5.39,0.809 -5.39,2.695 0,1.34 1.08,2.149 4.31,2.149 4.04,0 7.27,0.543 9.69,1.082 5.39,1.07 6.74,6.992 7.81,14.797 1.35,11.308 1.35,32.566 1.35,57.332 v 47.363" /><path
         id="path88"
         style="fill:#155196;fill-opacity:1;fill-rule:nonzero;stroke:none"
         d="m 2030.13,420.59 c 0,-25.84 0,-46.024 1.35,-57.332 0.81,-7.805 2.43,-13.727 10.5,-14.797 3.77,-0.539 9.69,-1.082 13.46,-1.082 3.5,0 4.57,-0.809 4.57,-2.149 0,-1.886 -1.88,-2.695 -5.92,-2.695 -16.96,0 -33.91,0.809 -40.91,0.809 -6.99,0 -23.95,-0.809 -34.18,-0.809 -3.77,0 -5.65,0.547 -5.65,2.695 0,1.34 1.08,2.149 4.04,2.149 4.03,0 7.26,0.543 9.69,1.082 5.38,1.07 6.72,6.992 7.8,14.797 1.35,11.308 1.35,31.492 1.35,57.332 v 47.363 c 0,40.918 0,48.453 -0.54,57.067 -0.54,9.144 -2.7,13.453 -11.57,15.335 -2.16,0.543 -6.73,0.805 -10.51,0.805 -2.69,0 -4.57,0.543 -4.57,2.156 0,2.153 2.16,2.696 6.19,2.696 14,0 30.96,-0.809 38.75,-0.809 10.23,0 64.87,0 71.06,0.266 5.12,0.269 8.34,0.269 11.03,1.078 1.62,0.539 2.97,1.617 4.31,1.617 1.08,0 1.89,-1.078 1.89,-2.426 0,-1.883 -1.35,-5.109 -2.15,-12.105 -0.27,-2.695 -0.82,-18.574 -1.35,-21.801 -0.27,-2.16 -0.81,-3.777 -2.7,-3.777 -1.88,0 -2.41,1.347 -2.69,4.308 0,2.153 0,6.461 -1.61,10.231 -1.88,3.769 -7.53,7.801 -17.76,8.074 l -41.45,0.812 c -1.61,0 -2.43,-0.812 -2.43,-3.769 v -67.293 c 0,-1.609 0.28,-2.414 1.9,-2.414 l 34.44,0.262 c 4.58,0 8.35,0 12.11,0.273 5.12,0.27 8.88,1.348 11.58,4.84 1.34,1.617 1.88,2.695 3.5,2.695 1.07,0 1.61,-0.804 1.61,-2.426 0,-1.613 -1.35,-8.339 -2.15,-16.679 -0.54,-5.387 -1.08,-17.766 -1.08,-19.656 0,-2.415 0,-5.11 -2.69,-5.11 -1.62,0 -2.15,1.891 -2.15,3.766 0,1.886 -0.54,5.121 -1.62,8.347 -1.34,3.766 -5.38,8.614 -13.73,9.684 -6.73,0.809 -35.25,0.809 -39.82,0.809 -1.35,0 -1.9,-0.532 -1.9,-2.422 V 420.59" /><path
         id="path90"
         style="fill:#155196;fill-opacity:1;fill-rule:nonzero;stroke:none"
         d="m 2190,467.953 c 0,40.918 0,48.453 -0.53,57.067 -0.54,9.144 -2.69,13.453 -11.57,15.335 -2.15,0.543 -6.73,0.805 -10.5,0.805 -2.96,0 -4.57,0.543 -4.57,2.43 0,1.879 1.88,2.422 5.92,2.422 14.26,0 31.22,-0.809 38.75,-0.809 8.62,0 62.17,0 67.29,0.266 5.11,0.543 9.41,1.078 11.57,1.617 1.35,0.273 2.96,1.078 4.3,1.078 1.35,0 1.62,-1.078 1.62,-2.426 0,-1.883 -1.35,-5.109 -2.15,-17.496 -0.27,-2.691 -0.81,-14.531 -1.35,-17.758 -0.27,-1.343 -0.81,-2.961 -2.69,-2.961 -1.89,0 -2.42,1.348 -2.42,3.77 0,1.875 -0.27,6.457 -1.62,9.684 -1.88,4.847 -4.57,8.082 -18.03,9.691 -4.57,0.539 -32.83,1.074 -38.22,1.074 -1.34,0 -1.88,-0.804 -1.88,-2.683 v -68.098 c 0,-1.891 0.27,-2.957 1.88,-2.957 5.92,0 36.88,0 43.07,0.535 6.46,0.531 10.49,1.348 12.92,4.035 1.88,2.153 2.96,3.5 4.3,3.5 1.08,0 1.88,-0.543 1.88,-2.152 0,-1.613 -1.34,-5.918 -2.14,-19.645 -0.54,-5.39 -1.08,-16.156 -1.08,-18.031 0,-2.152 0,-5.117 -2.43,-5.117 -1.88,0 -2.42,1.074 -2.42,2.422 -0.27,2.695 -0.27,6.191 -1.07,9.687 -1.35,5.383 -5.11,9.422 -15.08,10.496 -5.11,0.543 -31.75,0.805 -38.21,0.805 -1.35,0 -1.62,-1.078 -1.62,-2.691 V 420.59 c 0,-9.156 -0.27,-33.91 0,-41.719 0.54,-18.574 4.84,-22.605 32.3,-22.605 6.99,0 18.3,0 25.3,3.226 6.99,3.227 10.23,8.883 12.11,19.922 0.54,2.957 1.08,4.027 2.96,4.027 2.16,0 2.16,-2.152 2.16,-4.843 0,-6.188 -2.16,-24.493 -3.51,-29.871 -1.88,-6.993 -4.31,-6.993 -14.53,-6.993 -40.64,0 -58.67,1.61 -74.55,1.61 -6.19,0 -23.15,-0.809 -33.91,-0.809 -3.5,0 -5.39,0.809 -5.39,2.695 0,1.34 1.08,2.149 4.31,2.149 4.04,0 7.26,0.543 9.69,1.082 5.39,1.07 6.72,6.992 7.81,14.797 1.33,11.308 1.33,32.566 1.33,57.332 v 47.363" /><path
         id="path92"
         style="fill:#155196;fill-opacity:1;fill-rule:nonzero;stroke:none"
         d="m 2420.39,420.59 c 0,-34.453 0,-53.027 5.65,-57.871 4.58,-4.031 11.58,-5.918 32.57,-5.918 14.27,0 24.76,0.273 31.49,7.539 3.23,3.496 6.46,11.031 6.99,16.144 0.28,2.422 0.82,4.043 2.97,4.043 1.88,0 2.16,-1.347 2.16,-4.582 0,-2.965 -1.89,-23.144 -4.05,-30.945 -1.61,-5.918 -2.96,-7.266 -16.95,-7.266 -38.75,0 -56.52,1.61 -78.32,1.61 -6.2,0 -23.14,-0.809 -33.91,-0.809 -3.5,0 -5.38,0.809 -5.38,2.695 0,1.34 1.07,2.149 4.31,2.149 4.03,0 7.26,0.543 9.68,1.082 5.38,1.07 6.73,6.992 7.81,14.797 1.34,11.308 1.34,32.566 1.34,57.332 v 47.363 c 0,40.918 0,48.453 -0.53,57.067 -0.55,9.144 -2.7,13.453 -11.58,15.335 -2.15,0.543 -5.39,0.805 -8.88,0.805 -2.97,0 -4.58,0.543 -4.58,2.43 0,1.879 1.88,2.422 5.92,2.422 12.66,0 29.6,-0.809 36.88,-0.809 6.45,0 26.1,0.809 36.6,0.809 3.77,0 5.65,-0.543 5.65,-2.422 0,-1.887 -1.61,-2.43 -4.85,-2.43 -2.96,0 -7.26,-0.262 -10.49,-0.805 -7.27,-1.347 -9.42,-5.917 -9.96,-15.335 -0.54,-8.614 -0.54,-16.149 -0.54,-57.067 V 420.59" /><path
         id="path94"
         style="fill:#155196;fill-opacity:1;fill-rule:nonzero;stroke:none"
         d="m 2609.6,420.59 c 0,-34.453 0,-53.027 5.65,-57.871 4.58,-4.031 11.57,-5.918 32.57,-5.918 14.26,0 24.76,0.273 31.49,7.539 3.23,3.496 6.46,11.031 6.99,16.144 0.28,2.422 0.81,4.043 2.97,4.043 1.89,0 2.15,-1.347 2.15,-4.582 0,-2.965 -1.88,-23.144 -4.04,-30.945 -1.61,-5.918 -2.96,-7.266 -16.96,-7.266 -38.75,0 -56.52,1.61 -78.32,1.61 -6.18,0 -23.14,-0.809 -33.9,-0.809 -3.51,0 -5.39,0.809 -5.39,2.695 0,1.34 1.08,2.149 4.31,2.149 4.04,0 7.26,0.543 9.69,1.082 5.38,1.07 6.73,6.992 7.8,14.797 1.35,11.308 1.35,32.566 1.35,57.332 v 47.363 c 0,40.918 0,48.453 -0.54,57.067 -0.54,9.144 -2.69,13.453 -11.57,15.335 -2.16,0.543 -5.38,0.805 -8.88,0.805 -2.96,0 -4.58,0.543 -4.58,2.43 0,1.879 1.88,2.422 5.92,2.422 12.65,0 29.61,-0.809 36.88,-0.809 6.45,0 26.09,0.809 36.6,0.809 3.77,0 5.64,-0.543 5.64,-2.422 0,-1.887 -1.61,-2.43 -4.84,-2.43 -2.95,0 -7.26,-0.262 -10.49,-0.805 -7.27,-1.347 -9.43,-5.917 -9.96,-15.335 -0.54,-8.614 -0.54,-16.149 -0.54,-57.067 V 420.59" /><path
         id="path96"
         style="fill:#155196;fill-opacity:1;fill-rule:nonzero;stroke:none"
         d="m 2765.16,467.953 c 0,40.918 0,48.453 -0.53,57.067 -0.54,9.144 -2.69,13.453 -11.58,15.335 -2.15,0.543 -6.73,0.805 -10.5,0.805 -2.96,0 -4.57,0.543 -4.57,2.43 0,1.879 1.89,2.422 5.92,2.422 14.27,0 31.22,-0.809 38.76,-0.809 8.61,0 62.17,0 67.29,0.266 5.11,0.543 9.42,1.078 11.57,1.617 1.34,0.273 2.96,1.078 4.31,1.078 1.34,0 1.62,-1.078 1.62,-2.426 0,-1.883 -1.35,-5.109 -2.16,-17.496 -0.28,-2.691 -0.81,-14.531 -1.34,-17.758 -0.27,-1.343 -0.82,-2.961 -2.7,-2.961 -1.88,0 -2.42,1.348 -2.42,3.77 0,1.875 -0.27,6.457 -1.62,9.684 -1.87,4.847 -4.57,8.082 -18.03,9.691 -4.58,0.539 -32.83,1.074 -38.22,1.074 -1.35,0 -1.87,-0.804 -1.87,-2.683 v -68.098 c 0,-1.891 0.25,-2.957 1.87,-2.957 5.92,0 36.88,0 43.07,0.535 6.45,0.531 10.5,1.348 12.91,4.035 1.89,2.153 2.97,3.5 4.31,3.5 1.08,0 1.88,-0.543 1.88,-2.152 0,-1.613 -1.34,-5.918 -2.15,-19.645 -0.54,-5.39 -1.07,-16.156 -1.07,-18.031 0,-2.152 0,-5.117 -2.42,-5.117 -1.9,0 -2.43,1.074 -2.43,2.422 -0.27,2.695 -0.27,6.191 -1.07,9.687 -1.35,5.383 -5.12,9.422 -15.08,10.496 -5.12,0.543 -31.76,0.805 -38.22,0.805 -1.35,0 -1.6,-1.078 -1.6,-2.691 V 420.59 c 0,-9.156 -0.28,-33.91 0,-41.719 0.52,-18.574 4.83,-22.605 32.28,-22.605 7,0 18.3,0 25.31,3.226 7,3.227 10.22,8.883 12.1,19.922 0.54,2.957 1.09,4.027 2.96,4.027 2.16,0 2.16,-2.152 2.16,-4.843 0,-6.188 -2.16,-24.493 -3.49,-29.871 -1.89,-6.993 -4.31,-6.993 -14.55,-6.993 -40.64,0 -58.67,1.61 -74.55,1.61 -6.19,0 -23.14,-0.809 -33.9,-0.809 -3.51,0 -5.39,0.809 -5.39,2.695 0,1.34 1.07,2.149 4.3,2.149 4.04,0 7.27,0.543 9.7,1.082 5.38,1.07 6.73,6.992 7.8,14.797 1.34,11.308 1.34,32.566 1.34,57.332 v 47.363" /><path
         id="path98"
         style="fill:#155196;fill-opacity:1;fill-rule:nonzero;stroke:none"
         d="m 2985.06,446.695 c 0,-2.961 0.53,-4.035 2.42,-4.847 5.65,-1.875 13.72,-2.684 20.45,-2.684 10.77,0 14.27,1.07 19.11,4.57 8.07,5.918 15.88,18.301 15.88,40.371 0,38.219 -25.3,49.258 -41.18,49.258 -6.73,0 -11.57,-0.273 -14.26,-1.078 -1.89,-0.543 -2.42,-1.617 -2.42,-3.773 z m -31.76,21.258 c 0,40.918 0,48.453 -0.54,57.067 -0.55,9.144 -2.7,13.453 -11.57,15.335 -2.16,0.543 -6.73,0.805 -10.5,0.805 -2.97,0 -4.57,0.543 -4.57,2.43 0,1.879 1.87,2.422 5.92,2.422 14.25,0 31.22,-0.809 36.86,-0.809 9.15,0 29.61,0.809 37.96,0.809 16.95,0 34.98,-1.614 49.52,-11.574 7.53,-5.114 18.29,-18.836 18.29,-36.872 0,-19.921 -8.34,-38.226 -35.51,-60.293 23.95,-30.144 42.52,-54.093 58.4,-70.781 15.07,-15.613 26.1,-17.492 30.14,-18.304 2.97,-0.536 5.38,-0.809 7.54,-0.809 2.15,0 3.23,-0.809 3.23,-2.149 0,-2.148 -1.88,-2.695 -5.12,-2.695 h -25.57 c -15.07,0 -21.8,1.348 -28.79,5.117 -11.58,6.188 -21.8,18.84 -36.88,39.559 -10.76,14.805 -23.14,33.105 -26.64,37.144 -1.34,1.614 -2.97,1.891 -4.85,1.891 l -23.41,0.535 c -1.35,0 -2.15,-0.535 -2.15,-2.156 v -3.77 c 0,-25.031 0,-46.289 1.34,-57.597 0.81,-7.805 2.42,-13.727 10.5,-14.797 4.04,-0.539 9.96,-1.082 13.18,-1.082 2.16,0 3.24,-0.809 3.24,-2.149 0,-1.886 -1.89,-2.695 -5.39,-2.695 -15.6,0 -35.52,0.809 -39.57,0.809 -5.1,0 -22.07,-0.809 -32.83,-0.809 -3.49,0 -5.38,0.809 -5.38,2.695 0,1.34 1.08,2.149 4.31,2.149 4.03,0 7.26,0.543 9.69,1.082 5.38,1.07 6.72,6.992 7.81,14.797 1.34,11.308 1.34,32.566 1.34,57.332 v 47.363" /><path
         id="path100"
         style="fill:#155196;fill-opacity:1;fill-rule:nonzero;stroke:none"
         d="m 3287.03,467.953 c 0,40.918 0,48.453 -0.54,57.067 -0.54,9.144 -2.7,13.453 -11.56,15.335 -2.16,0.543 -6.74,0.805 -10.5,0.805 -2.97,0 -4.58,0.543 -4.58,2.43 0,1.879 1.88,2.422 5.92,2.422 14.26,0 31.22,-0.809 39.29,-0.809 6.46,0 23.42,0.809 33.11,0.809 4.03,0 5.92,-0.543 5.92,-2.422 0,-1.887 -1.61,-2.43 -4.3,-2.43 -2.97,0 -4.58,-0.262 -7.81,-0.805 -7.27,-1.347 -9.42,-5.917 -9.96,-15.335 -0.54,-8.614 -0.54,-16.149 -0.54,-57.067 v -37.68 c 0,-39.023 7.8,-55.433 21,-66.207 12.1,-9.961 24.49,-11.035 33.64,-11.035 11.83,0 26.38,3.77 37.15,14.532 14.79,14.808 15.6,39.035 15.6,66.753 v 33.637 c 0,40.918 0,48.453 -0.54,57.067 -0.53,9.144 -2.69,13.453 -11.58,15.335 -2.14,0.543 -6.73,0.805 -9.68,0.805 -2.96,0 -4.57,0.543 -4.57,2.43 0,1.879 1.88,2.422 5.65,2.422 13.73,0 30.67,-0.809 30.96,-0.809 3.22,0 20.17,0.809 30.67,0.809 3.77,0 5.65,-0.543 5.65,-2.422 0,-1.887 -1.62,-2.43 -4.84,-2.43 -2.96,0 -4.58,-0.262 -7.81,-0.805 -7.27,-1.347 -9.42,-5.917 -9.96,-15.335 -0.53,-8.614 -0.53,-16.149 -0.53,-57.067 v -28.789 c 0,-29.883 -2.97,-61.641 -25.58,-81.019 -19.11,-16.411 -38.48,-19.372 -55.97,-19.372 -14.27,0 -40.11,0.801 -59.76,18.567 -13.72,12.379 -23.95,32.301 -23.95,71.32 v 39.293" /><path
         id="path102"
         style="fill:#155196;fill-opacity:1;fill-rule:nonzero;stroke:none"
         d="m 3555.37,379.137 c 0.53,-20.992 4.03,-27.989 9.42,-29.867 4.57,-1.618 9.69,-1.891 13.99,-1.891 2.96,0 4.58,-0.539 4.58,-2.149 0,-2.148 -2.43,-2.695 -6.2,-2.695 -17.49,0 -28.25,0.809 -33.37,0.809 -2.42,0 -15.07,-0.809 -29.07,-0.809 -3.49,0 -5.92,0.274 -5.92,2.695 0,1.61 1.62,2.149 4.31,2.149 3.5,0 8.34,0.273 12.11,1.348 7,2.152 8.07,9.961 8.35,33.378 l 2.41,159.325 c 0,5.386 0.81,9.152 3.51,9.152 2.96,0 5.38,-3.496 9.96,-8.336 3.22,-3.5 44.13,-47.375 83.43,-86.394 18.3,-18.309 54.63,-57.067 59.21,-61.375 h 1.34 l -2.68,120.843 c -0.28,16.422 -2.7,21.535 -9.16,24.231 -4.04,1.609 -10.49,1.609 -14.26,1.609 -3.22,0 -4.31,0.817 -4.31,2.43 0,2.148 2.96,2.422 7,2.422 14,0 26.92,-0.809 32.56,-0.809 2.97,0 13.2,0.809 26.39,0.809 3.5,0 6.18,-0.274 6.18,-2.422 0,-1.613 -1.61,-2.43 -4.83,-2.43 -2.7,0 -4.86,0 -8.09,-0.805 -7.54,-2.152 -9.69,-7.808 -9.96,-22.878 l -2.96,-169.825 c 0,-5.918 -1.07,-8.343 -3.48,-8.343 -2.97,0 -6.21,2.957 -9.16,5.921 -16.96,16.153 -51.41,51.407 -79.4,79.125 -29.34,29.067 -59.21,62.711 -64.06,67.821 h -0.8 l 2.96,-113.039" /><path
         id="path104"
         style="fill:#155196;fill-opacity:1;fill-rule:nonzero;stroke:none"
         d="m 3805.94,467.953 c 0,40.918 0,48.453 -0.54,57.067 -0.54,9.144 -3.23,13.726 -9.15,15.074 -2.96,0.804 -6.46,1.066 -9.68,1.066 -2.7,0 -4.32,0.543 -4.32,2.695 0,1.614 2.16,2.157 6.47,2.157 10.22,0 27.17,-0.809 34.99,-0.809 6.72,0 22.59,0.809 32.83,0.809 3.5,0 5.65,-0.543 5.65,-2.157 0,-2.152 -1.62,-2.695 -4.3,-2.695 -2.7,0 -4.86,-0.262 -8.08,-0.805 -7.27,-1.347 -9.42,-5.917 -9.96,-15.335 -0.54,-8.614 -0.54,-16.149 -0.54,-57.067 V 420.59 c 0,-26.113 0,-47.371 1.08,-58.945 0.81,-7.266 2.68,-12.114 10.77,-13.184 3.76,-0.539 9.68,-1.082 13.72,-1.082 2.96,0 4.3,-0.809 4.3,-2.149 0,-1.886 -2.14,-2.695 -5.1,-2.695 -17.78,0 -34.73,0.809 -42,0.809 -6.19,0 -23.14,-0.809 -33.91,-0.809 -3.5,0 -5.38,0.809 -5.38,2.695 0,1.34 1.08,2.149 4.3,2.149 4.05,0 7.27,0.543 9.69,1.082 5.39,1.07 7.01,5.644 7.81,13.457 1.35,11.301 1.35,32.559 1.35,58.672 v 47.363" /><path
         id="path106"
         style="fill:#155196;fill-opacity:1;fill-rule:nonzero;stroke:none"
         d="m 3918.71,519.629 c -6.2,14.809 -10.78,17.769 -20.45,20.465 -4.05,1.066 -8.35,1.066 -10.5,1.066 -2.42,0 -3.22,0.817 -3.22,2.43 0,2.148 2.95,2.422 6.99,2.422 14.26,0 29.6,-0.809 39.02,-0.809 6.73,0 19.65,0.809 33.11,0.809 3.22,0 6.19,-0.543 6.19,-2.422 0,-1.887 -1.62,-2.43 -4.04,-2.43 -4.31,0 -8.34,-0.262 -10.49,-1.879 -1.89,-1.343 -2.7,-3.23 -2.7,-5.648 0,-3.5 2.42,-11.039 6.19,-20.727 l 46.29,-122.187 h 1.08 c 11.58,29.597 46.56,116.269 53.02,134.031 1.35,3.492 2.43,7.535 2.43,9.953 0,2.152 -1.08,4.305 -3.51,5.117 -3.23,1.078 -7.27,1.34 -10.76,1.34 -2.42,0 -4.57,0.27 -4.57,2.156 0,2.153 2.42,2.696 7.53,2.696 13.45,0 24.76,-0.809 28.26,-0.809 4.58,0 17.23,0.809 25.29,0.809 3.51,0 5.67,-0.543 5.67,-2.422 0,-1.887 -1.62,-2.43 -4.32,-2.43 -2.7,0 -8.34,0 -13.18,-3.222 -3.5,-2.426 -7.54,-7 -14.81,-24.227 -10.5,-25.297 -17.76,-39.828 -32.29,-72.934 -17.23,-39.297 -29.88,-68.632 -35.79,-82.089 -7.01,-15.606 -8.62,-19.915 -12.39,-19.915 -3.5,0 -5.11,3.762 -10.22,16.411 l -67.83,164.445" /><path
         id="path108"
         style="fill:#155196;fill-opacity:1;fill-rule:nonzero;stroke:none"
         d="m 4139.67,467.953 c 0,40.918 0,48.453 -0.53,57.067 -0.54,9.144 -2.69,13.453 -11.58,15.335 -2.14,0.543 -6.72,0.805 -10.49,0.805 -2.96,0 -4.58,0.543 -4.58,2.43 0,1.879 1.89,2.422 5.92,2.422 14.27,0 31.22,-0.809 38.76,-0.809 8.62,0 62.17,0 67.29,0.266 5.12,0.543 9.42,1.078 11.58,1.617 1.34,0.273 2.95,1.078 4.3,1.078 1.34,0 1.62,-1.078 1.62,-2.426 0,-1.883 -1.35,-5.109 -2.16,-17.496 -0.27,-2.691 -0.81,-14.531 -1.35,-17.758 -0.26,-1.343 -0.81,-2.961 -2.69,-2.961 -1.88,0 -2.42,1.348 -2.42,3.77 0,1.875 -0.27,6.457 -1.62,9.684 -1.88,4.847 -4.58,8.082 -18.03,9.691 -4.57,0.539 -32.84,1.074 -38.22,1.074 -1.34,0 -1.88,-0.804 -1.88,-2.683 v -68.098 c 0,-1.891 0.27,-2.957 1.88,-2.957 5.92,0 36.88,0 43.07,0.535 6.45,0.531 10.49,1.348 12.91,4.035 1.89,2.153 2.97,3.5 4.31,3.5 1.08,0 1.88,-0.543 1.88,-2.152 0,-1.613 -1.35,-5.918 -2.15,-19.645 -0.54,-5.39 -1.07,-16.156 -1.07,-18.031 0,-2.152 0,-5.117 -2.42,-5.117 -1.89,0 -2.42,1.074 -2.42,2.422 -0.28,2.695 -0.28,6.191 -1.09,9.687 -1.35,5.383 -5.11,9.422 -15.07,10.496 -5.11,0.543 -31.75,0.805 -38.22,0.805 -1.34,0 -1.61,-1.078 -1.61,-2.691 V 420.59 c 0,-9.156 -0.27,-33.91 0,-41.719 0.54,-18.574 4.85,-22.605 32.29,-22.605 7.01,0 18.3,0 25.31,3.226 7,3.227 10.22,8.883 12.12,19.922 0.52,2.957 1.06,4.027 2.94,4.027 2.16,0 2.16,-2.152 2.16,-4.843 0,-6.188 -2.16,-24.493 -3.5,-29.871 -1.88,-6.993 -4.3,-6.993 -14.53,-6.993 -40.64,0 -58.68,1.61 -74.55,1.61 -6.2,0 -23.15,-0.809 -33.92,-0.809 -3.5,0 -5.38,0.809 -5.38,2.695 0,1.34 1.07,2.149 4.31,2.149 4.04,0 7.27,0.543 9.68,1.082 5.38,1.07 6.73,6.992 7.81,14.797 1.34,11.308 1.34,32.566 1.34,57.332 v 47.363" /><path
         id="path110"
         style="fill:#155196;fill-opacity:1;fill-rule:nonzero;stroke:none"
         d="m 4368.18,446.695 c 0,-2.961 0.54,-4.035 2.41,-4.847 5.66,-1.875 13.74,-2.684 20.46,-2.684 10.77,0 14.27,1.07 19.11,4.57 8.08,5.918 15.88,18.301 15.88,40.371 0,38.219 -25.29,49.258 -41.17,49.258 -6.73,0 -11.58,-0.273 -14.28,-1.078 -1.87,-0.543 -2.41,-1.617 -2.41,-3.773 z m -31.76,21.258 c 0,40.918 0,48.453 -0.54,57.067 -0.53,9.144 -2.69,13.453 -11.58,15.335 -2.15,0.543 -6.73,0.805 -10.49,0.805 -2.96,0 -4.58,0.543 -4.58,2.43 0,1.879 1.89,2.422 5.93,2.422 14.26,0 31.22,-0.809 36.87,-0.809 9.15,0 29.61,0.809 37.95,0.809 16.96,0 34.99,-1.614 49.52,-11.574 7.54,-5.114 18.31,-18.836 18.31,-36.872 0,-19.921 -8.35,-38.226 -35.54,-60.293 23.96,-30.144 42.53,-54.093 58.41,-70.781 15.07,-15.613 26.1,-17.492 30.15,-18.304 2.95,-0.536 5.38,-0.809 7.53,-0.809 2.15,0 3.23,-0.809 3.23,-2.149 0,-2.148 -1.89,-2.695 -5.11,-2.695 h -25.58 c -15.07,0 -21.79,1.348 -28.79,5.117 -11.58,6.188 -21.8,18.84 -36.87,39.559 -10.77,14.805 -23.15,33.105 -26.65,37.144 -1.34,1.614 -2.96,1.891 -4.84,1.891 l -23.41,0.535 c -1.35,0 -2.16,-0.535 -2.16,-2.156 v -3.77 c 0,-25.031 0,-46.289 1.35,-57.597 0.81,-7.805 2.41,-13.727 10.49,-14.797 4.04,-0.539 9.96,-1.082 13.19,-1.082 2.15,0 3.22,-0.809 3.22,-2.149 0,-1.886 -1.87,-2.695 -5.38,-2.695 -15.61,0 -35.52,0.809 -39.56,0.809 -5.11,0 -22.07,-0.809 -32.83,-0.809 -3.5,0 -5.38,0.809 -5.38,2.695 0,1.34 1.06,2.149 4.29,2.149 4.05,0 7.28,0.543 9.7,1.082 5.38,1.07 6.73,6.992 7.8,14.797 1.35,11.308 1.35,32.566 1.35,57.332 v 47.363" /><path
         id="path112"
         style="fill:#155196;fill-opacity:1;fill-rule:nonzero;stroke:none"
         d="m 4553.08,345.766 c -4.31,1.886 -5.12,3.234 -5.12,9.156 0,14.797 1.09,30.953 1.34,35.25 0.28,4.039 1.1,7 3.24,7 2.43,0 2.69,-2.422 2.69,-4.574 0,-3.5 1.08,-9.157 2.43,-13.727 5.92,-19.922 21.8,-27.187 38.49,-27.187 24.22,0 36.05,16.421 36.05,30.687 0,13.188 -4.03,25.836 -26.37,43.063 l -12.38,9.687 c -29.61,23.145 -39.83,41.992 -39.83,63.789 0,29.602 24.75,50.863 62.17,50.863 17.5,0 28.79,-2.687 35.8,-4.57 2.42,-0.539 3.77,-1.348 3.77,-3.226 0,-3.504 -1.08,-11.309 -1.08,-32.305 0,-5.922 -0.81,-8.067 -2.97,-8.067 -1.88,0 -2.69,1.614 -2.69,4.84 0,2.426 -1.35,10.766 -6.99,17.758 -4.04,5.121 -11.84,13.195 -29.34,13.195 -19.92,0 -32.03,-11.574 -32.03,-27.726 0,-12.371 6.19,-21.801 28.53,-38.758 l 7.53,-5.644 c 32.3,-25.036 44.14,-43.067 44.14,-68.633 0,-15.614 -5.91,-34.188 -25.29,-46.836 -13.46,-8.613 -28.52,-11.028 -42.8,-11.028 -15.61,0 -27.72,1.879 -39.29,6.993" /><path
         id="path114"
         style="fill:#155196;fill-opacity:1;fill-rule:nonzero;stroke:none"
         d="m 4735.28,467.953 c 0,40.918 0,48.453 -0.53,57.067 -0.54,9.144 -3.23,13.726 -9.15,15.074 -2.97,0.804 -6.45,1.066 -9.7,1.066 -2.68,0 -4.3,0.543 -4.3,2.695 0,1.614 2.15,2.157 6.45,2.157 10.24,0 27.19,-0.809 35,-0.809 6.72,0 22.6,0.809 32.83,0.809 3.5,0 5.65,-0.543 5.65,-2.157 0,-2.152 -1.6,-2.695 -4.3,-2.695 -2.69,0 -4.84,-0.262 -8.07,-0.805 -7.27,-1.347 -9.43,-5.917 -9.96,-15.335 -0.54,-8.614 -0.54,-16.149 -0.54,-57.067 V 420.59 c 0,-26.113 0,-47.371 1.07,-58.945 0.81,-7.266 2.7,-12.114 10.77,-13.184 3.76,-0.539 9.69,-1.082 13.72,-1.082 2.97,0 4.32,-0.809 4.32,-2.149 0,-1.886 -2.16,-2.695 -5.12,-2.695 -17.77,0 -34.72,0.809 -41.99,0.809 -6.19,0 -23.14,-0.809 -33.91,-0.809 -3.49,0 -5.39,0.809 -5.39,2.695 0,1.34 1.09,2.149 4.32,2.149 4.03,0 7.27,0.543 9.69,1.082 5.38,1.07 6.99,5.644 7.79,13.457 1.35,11.301 1.35,32.559 1.35,58.672 v 47.363" /><path
         id="path116"
         style="fill:#155196;fill-opacity:1;fill-rule:nonzero;stroke:none"
         d="m 4901.62,530.938 -40.11,-1.079 c -15.61,-0.535 -22.06,-1.879 -26.1,-7.804 -2.69,-4.039 -4.04,-7.266 -4.58,-9.422 -0.53,-2.149 -1.34,-3.231 -2.96,-3.231 -1.89,0 -2.42,1.348 -2.42,4.309 0,4.305 5.11,28.797 5.65,30.953 0.81,3.5 1.62,5.109 3.23,5.109 2.15,0 4.84,-2.687 11.57,-3.226 7.81,-0.809 18.04,-1.344 26.92,-1.344 h 106.58 c 8.61,0 14.53,0.809 18.57,1.344 4.04,0.812 6.19,1.348 7.27,1.348 1.88,0 2.15,-1.61 2.15,-5.649 0,-5.656 -0.8,-24.23 -0.8,-31.226 -0.28,-2.696 -0.81,-4.305 -2.43,-4.305 -2.15,0 -2.69,1.34 -2.96,5.387 l -0.27,2.957 c -0.53,6.996 -7.8,14.531 -31.76,15.074 l -33.91,0.805 V 420.59 c 0,-24.766 0,-46.024 1.35,-57.598 0.81,-7.539 2.42,-13.461 10.48,-14.531 3.78,-0.539 9.7,-1.082 13.74,-1.082 2.96,0 4.3,-0.809 4.3,-2.149 0,-1.886 -2.16,-2.695 -5.11,-2.695 -17.76,0 -34.72,0.809 -42.25,0.809 -6.19,0 -23.15,-0.809 -33.92,-0.809 -3.49,0 -5.38,0.809 -5.38,2.695 0,1.34 1.08,2.149 4.31,2.149 4.03,0 7.26,0.543 9.69,1.082 5.39,1.07 6.99,6.992 7.8,14.797 1.35,11.308 1.35,32.566 1.35,57.332 v 110.348" /><path
         id="path118"
         style="fill:#155196;fill-opacity:1;fill-rule:nonzero;stroke:none"
         d="m 5115.04,412.25 c 0,14.531 -2.68,20.453 -6.19,28.254 -1.87,4.305 -37.95,63.523 -47.36,77.512 -6.73,9.964 -13.46,16.687 -18.57,19.656 -3.5,1.879 -8.07,3.488 -11.3,3.488 -2.16,0 -4.04,0.543 -4.04,2.43 0,1.613 1.88,2.422 5.11,2.422 4.84,0 25.03,-0.809 33.92,-0.809 5.64,0 16.68,0.809 28.79,0.809 2.69,0 4.04,-0.809 4.04,-2.422 0,-1.613 -1.89,-1.887 -5.92,-2.961 -2.42,-0.535 -3.77,-2.691 -3.77,-4.844 0,-2.152 1.35,-5.39 3.22,-9.156 3.77,-8.07 41.45,-72.934 45.77,-80.477 2.69,6.461 36.6,65.68 40.37,74.02 2.69,5.918 3.76,10.496 3.76,13.992 0,2.691 -1.07,5.656 -5.65,6.734 -2.43,0.532 -4.84,1.079 -4.84,2.692 0,1.879 1.34,2.422 4.57,2.422 8.88,0 17.5,-0.809 25.3,-0.809 5.92,0 23.68,0.809 28.79,0.809 2.97,0 4.85,-0.543 4.85,-2.157 0,-1.878 -2.15,-2.695 -5.1,-2.695 -2.7,0 -7.82,-1.066 -11.85,-3.222 -5.65,-2.696 -8.61,-5.922 -14.54,-13.188 -8.88,-10.77 -46.56,-74.012 -51.41,-85.586 -4.04,-9.695 -4.04,-18.035 -4.04,-26.914 v -22.078 c 0,-4.297 0,-15.606 0.82,-26.914 0.53,-7.805 2.96,-13.727 11.03,-14.797 3.78,-0.539 9.69,-1.082 13.46,-1.082 2.96,0 4.31,-0.809 4.31,-2.149 0,-1.886 -2.16,-2.695 -5.65,-2.695 -16.96,0 -33.92,0.809 -41.19,0.809 -6.73,0 -23.68,-0.809 -33.64,-0.809 -3.77,0 -5.92,0.547 -5.92,2.695 0,1.34 1.35,2.149 4.31,2.149 3.76,0 6.99,0.543 9.41,1.082 5.38,1.07 7.81,6.992 8.35,14.797 0.8,11.308 0.8,22.617 0.8,26.914 v 22.078" /></g></g></svg>