<?xml version="1.0" encoding="utf-8"?>
<!-- Generator: Adobe Illustrator 16.0.0, SVG Export Plug-In . SVG Version: 6.00 Build 0)  -->
<!DOCTYPE svg PUBLIC "-//W3C//DTD SVG 1.1//EN" "http://www.w3.org/Graphics/SVG/1.1/DTD/svg11.dtd">
<svg version="1.1" id="Layer_1" xmlns="http://www.w3.org/2000/svg" xmlns:xlink="http://www.w3.org/1999/xlink" x="0px" y="0px"
	 width="65.75px" height="25.75px" viewBox="0 8.346 65.75 25.75" enable-background="new 0 8.346 65.75 25.75"
	 xml:space="preserve">
<g>
	<g>
		<path fill="#7C7E7F" d="M4831.577-1789.073h-0.103c-1.092,2.082-2.457,3.645-4.097,4.686s-3.634,1.562-5.987,1.562
			c-1.98,0-3.687-0.376-5.117-1.127c-1.436-0.75-2.611-1.757-3.533-3.02c-0.92-1.262-1.604-2.721-2.047-4.376
			c-0.443-1.654-0.666-3.386-0.666-5.195c0-1.943,0.237-3.762,0.717-5.451c0.479-1.688,1.203-3.146,2.176-4.376
			c0.973-1.229,2.19-2.2,3.66-2.917c1.467-0.716,3.188-1.073,5.17-1.073c1.057,0,2.099,0.146,3.121,0.436
			c1.023,0.29,1.972,0.708,2.842,1.254c0.869,0.546,1.629,1.229,2.275,2.047c0.646,0.818,1.145,1.74,1.482,2.766h0.104v-16.124
			h1.942v36.546h-1.942L4831.577-1789.073L4831.577-1789.073z M4821.801-1784.515c1.672,0,3.113-0.341,4.325-1.024
			c1.211-0.682,2.218-1.586,3.021-2.713c0.801-1.126,1.398-2.414,1.791-3.864c0.394-1.448,0.59-2.926,0.59-4.427
			c0-1.536-0.196-3.028-0.59-4.479c-0.393-1.451-0.98-2.747-1.766-3.892c-0.785-1.143-1.801-2.056-3.046-2.739
			c-1.245-0.682-2.705-1.021-4.376-1.021c-1.74,0-3.225,0.333-4.453,0.998s-2.244,1.561-3.045,2.688
			c-0.803,1.126-1.383,2.425-1.74,3.892c-0.359,1.467-0.539,2.984-0.539,4.555c0,1.535,0.197,3.028,0.59,4.479
			s0.988,2.736,1.791,3.862c0.801,1.126,1.816,2.022,3.045,2.688S4820.094-1784.515,4821.801-1784.515z"/>
		<path fill="#7C7E7F" d="M4856.146-1788.662h-0.104c-0.308,0.786-0.75,1.528-1.33,2.229s-1.289,1.323-2.125,1.868
			c-0.836,0.546-1.783,0.972-2.84,1.278c-1.06,0.309-2.22,0.463-3.479,0.463c-2.799,0-4.965-0.607-6.5-1.817
			c-1.537-1.211-2.306-3.079-2.306-5.605c0-1.533,0.308-2.79,0.922-3.762c0.612-0.972,1.39-1.74,2.328-2.303
			c0.938-0.563,1.979-0.964,3.123-1.203c1.144-0.238,2.242-0.409,3.301-0.512l3.021-0.256c1.398-0.104,2.5-0.266,3.303-0.486
			s1.408-0.529,1.816-0.921c0.41-0.392,0.666-0.896,0.77-1.51c0.102-0.614,0.152-1.382,0.152-2.305c0-0.717-0.138-1.382-0.41-1.995
			c-0.272-0.615-0.699-1.16-1.278-1.64c-0.581-0.478-1.331-0.853-2.252-1.126c-0.922-0.271-2.049-0.409-3.379-0.409
			c-2.354,0-4.258,0.581-5.707,1.74c-1.45,1.16-2.244,2.917-2.38,5.272h-1.943c0.135-2.9,1.064-5.075,2.789-6.526
			c1.724-1.45,4.172-2.176,7.347-2.176c3.173,0,5.483,0.624,6.937,1.868c1.449,1.245,2.174,2.875,2.174,4.889v15.304
			c0,0.376,0.01,0.751,0.025,1.126s0.077,0.716,0.18,1.023c0.104,0.307,0.272,0.555,0.512,0.741
			c0.239,0.188,0.581,0.281,1.025,0.281c0.34,0,0.817-0.051,1.433-0.152v1.638c-0.513,0.137-1.042,0.205-1.586,0.205
			c-0.785,0-1.408-0.104-1.868-0.309c-0.461-0.205-0.812-0.478-1.051-0.817c-0.236-0.341-0.4-0.742-0.484-1.203
			c-0.086-0.461-0.129-0.964-0.129-1.51v-1.384L4856.146-1788.662L4856.146-1788.662z M4856.146-1798.386
			c-0.479,0.581-1.203,0.973-2.176,1.177c-0.974,0.205-2.058,0.358-3.25,0.46l-3.275,0.309c-0.956,0.103-1.911,0.249-2.867,0.435
			c-0.955,0.188-1.814,0.504-2.584,0.947c-0.768,0.442-1.393,1.049-1.868,1.815c-0.479,0.771-0.717,1.769-0.717,2.995
			c0,1.945,0.612,3.389,1.843,4.325c1.229,0.939,2.917,1.408,5.066,1.408c2.219,0,3.976-0.4,5.271-1.203
			c1.297-0.801,2.285-1.723,2.97-2.764c0.683-1.041,1.117-2.049,1.308-3.021c0.187-0.972,0.28-1.629,0.28-1.97V-1798.386z"/>
		<path fill="#7C7E7F" d="M4864.182-1792.193c0.068,1.229,0.34,2.312,0.819,3.25c0.478,0.938,1.101,1.738,1.868,2.404
			s1.664,1.169,2.688,1.512c1.023,0.341,2.133,0.512,3.328,0.512c0.854,0,1.767-0.077,2.737-0.23
			c0.972-0.151,1.876-0.435,2.712-0.845c0.836-0.409,1.527-0.979,2.074-1.714c0.545-0.733,0.818-1.664,0.818-2.79
			c0-1.467-0.443-2.576-1.332-3.327c-0.889-0.75-2.004-1.331-3.354-1.741c-1.35-0.409-2.798-0.74-4.352-0.998
			c-1.555-0.256-3.004-0.64-4.352-1.149c-1.35-0.514-2.466-1.237-3.354-2.178c-0.889-0.938-1.33-2.311-1.33-4.118
			c0-1.298,0.289-2.382,0.869-3.25c0.58-0.87,1.319-1.562,2.228-2.073c0.903-0.512,1.919-0.878,3.046-1.103
			c1.125-0.222,2.252-0.333,3.378-0.333c1.364,0,2.644,0.154,3.839,0.462c1.193,0.308,2.227,0.803,3.098,1.483
			c0.869,0.684,1.551,1.553,2.047,2.61c0.494,1.058,0.742,2.338,0.742,3.839h-1.943c0-1.194-0.195-2.218-0.589-3.071
			c-0.394-0.852-0.938-1.543-1.64-2.073c-0.699-0.527-1.525-0.921-2.48-1.177c-0.956-0.256-1.979-0.384-3.07-0.384
			c-0.889,0-1.783,0.085-2.688,0.256s-1.715,0.461-2.434,0.87c-0.717,0.41-1.306,0.938-1.766,1.587
			c-0.461,0.647-0.691,1.433-0.691,2.354c0,1.059,0.256,1.91,0.77,2.56c0.514,0.646,1.188,1.169,2.021,1.561
			c0.836,0.395,1.772,0.708,2.813,0.947s2.092,0.479,3.147,0.717c1.297,0.239,2.517,0.521,3.66,0.846
			c1.144,0.323,2.133,0.768,2.97,1.331c0.836,0.562,1.492,1.287,1.972,2.176c0.479,0.888,0.717,2.013,0.717,3.378
			c0,1.433-0.324,2.61-0.974,3.531c-0.647,0.922-1.467,1.664-2.457,2.227c-0.99,0.563-2.09,0.955-3.301,1.178
			c-1.212,0.223-2.397,0.333-3.56,0.333c-1.502,0-2.892-0.196-4.172-0.59c-1.278-0.392-2.396-0.987-3.353-1.791
			c-0.956-0.802-1.707-1.781-2.252-2.941c-0.547-1.16-0.838-2.509-0.87-4.043h1.949V-1792.193z"/>
		<path fill="#7C7E7F" d="M4888.801-1819.986v15.866h0.102c0.342-0.987,0.828-1.866,1.461-2.636
			c0.631-0.768,1.363-1.424,2.199-1.971c0.838-0.545,1.75-0.955,2.738-1.229c0.99-0.271,1.998-0.409,3.021-0.409
			c1.535,0,2.84,0.188,3.916,0.562c1.074,0.375,1.951,0.87,2.635,1.484c0.684,0.612,1.223,1.305,1.611,2.071
			c0.395,0.77,0.673,1.544,0.846,2.329c0.17,0.785,0.272,1.544,0.31,2.278c0.032,0.733,0.05,1.374,0.05,1.919v16.276h-1.945v-16.636
			c0-0.646-0.051-1.467-0.151-2.457c-0.103-0.988-0.399-1.936-0.896-2.84c-0.494-0.904-1.246-1.681-2.252-2.329
			c-1.006-0.646-2.398-0.973-4.172-0.973c-1.502,0-2.832,0.271-3.992,0.818s-2.15,1.306-2.97,2.277
			c-0.817,0.974-1.44,2.133-1.869,3.48c-0.429,1.347-0.642,2.822-0.642,4.427v14.229h-1.943v-36.546h1.943V-1819.986
			L4888.801-1819.986z"/>
	</g>
	<g>
		<path fill="#FF8300" d="M4791.312-1781.702c-0.006-0.057-0.207-3.038-1.586-6.497c-1.389-3.462-3.336-5.452-3.393-5.512
			c-0.318-0.328-0.746-0.493-1.166-0.498v-0.001h-0.004h-0.007v0.001c-0.419,0.005-0.847,0.17-1.166,0.498
			c-0.056,0.06-2.003,2.05-3.392,5.512c-1.379,3.459-1.58,6.44-1.586,6.497l-0.01,0.38v0.005v0.001v0.009l0.004-0.003
			c0.025,1.888,3.06,1.965,3.121-0.298l0.006-0.104l0.028-0.444c0,0,0.034-0.562,0.19-1.457c0.155-0.894,0.434-2.088,0.898-3.256
			c0.468-1.167,1.035-2.094,1.48-2.72c0.162-0.229,0.688-0.229,0.852,0c0.443,0.626,1.014,1.554,1.479,2.72
			c0.471,1.168,0.746,2.362,0.902,3.256c0.156,0.895,0.189,1.457,0.189,1.457l0.025,0.445l0.007,0.104
			c0.063,2.264,3.099,2.186,3.121,0.298l0.003,0.003v-0.009v-0.001v-0.005L4791.312-1781.702z"/>
		<path fill="#FF8300" d="M4801.758-1798.451c-0.057-0.01-2.923-0.736-6.605-0.479c-3.684,0.263-6.162,1.521-6.23,1.557
			c-0.404,0.207-0.693,0.565-0.828,0.965l0,0c0,0.001,0,0.004-0.002,0.006c0,0.001-0.003,0.006-0.004,0.008l0.004,0.001
			c-0.127,0.401-0.104,0.862,0.105,1.271c0.037,0.072,1.31,2.562,4.139,4.964c2.827,2.396,5.568,3.509,5.623,3.534l0.354,0.123
			l0.004,0.001l0,0l0.008,0.003l-0.002-0.004c1.783,0.562,2.793-2.332,0.686-3.092l-0.096-0.037l-0.41-0.165
			c0,0-0.52-0.208-1.312-0.634c-0.793-0.428-1.833-1.062-2.784-1.873c-0.954-0.812-1.65-1.643-2.104-2.267
			c-0.166-0.224-0.002-0.729,0.263-0.813c0.728-0.237,1.776-0.495,3.019-0.583c1.242-0.089,2.453,0.014,3.345,0.139
			c0.885,0.127,1.431,0.269,1.431,0.269l0.426,0.108l0.1,0.026c2.146,0.638,3.014-2.302,1.242-2.909l0.004-0.001l-0.006-0.002
			h-0.002l-0.002-0.001L4801.758-1798.451z"/>
		<path fill="#FF8300" d="M4789.227-1813.667c-0.026,0.052-1.6,2.583-2.496,6.201c-0.891,3.625-0.471,6.396-0.459,6.475
			c0.068,0.455,0.316,0.843,0.65,1.096l0,0c0,0,0.006,0,0.008,0.004c0,0,0.001,0.002,0.004,0.003l0.002-0.001
			c0.338,0.245,0.779,0.365,1.229,0.289c0.08-0.013,2.814-0.466,5.949-2.443c3.127-1.979,5.023-4.271,5.062-4.312l0.227-0.304
			l0.002-0.003h0.002l0.004-0.007l-0.004,0.001c1.076-1.543-1.332-3.407-2.699-1.613l-0.062,0.079l-0.279,0.345
			c0,0-0.355,0.435-1.002,1.063c-0.646,0.63-1.564,1.431-2.623,2.099c-1.057,0.665-2.055,1.078-2.779,1.321
			c-0.264,0.087-0.689-0.225-0.688-0.505c0.004-0.771,0.082-1.86,0.385-3.08c0.299-1.222,0.77-2.354,1.162-3.171
			c0.395-0.812,0.692-1.291,0.692-1.292l0.233-0.375l0.057-0.087c1.266-1.87-1.232-3.606-2.354-2.095v-0.004l-0.006,0.006
			c0,0.001,0,0.002,0,0.002l-0.002,0.003L4789.227-1813.667z"/>
		<path fill="#FF8300" d="M4771.039-1806.323c0.038,0.043,1.936,2.338,5.062,4.316c3.136,1.976,5.869,2.428,5.949,2.444
			c0.446,0.073,0.89-0.047,1.229-0.289h0.002c0.002-0.001,0.003-0.004,0.004-0.006c0.002-0.001,0.004-0.001,0.006-0.002v-0.002
			c0.336-0.25,0.584-0.639,0.65-1.095c0.012-0.082,0.43-2.85-0.459-6.475c-0.896-3.617-2.467-6.146-2.496-6.201l-0.215-0.31v-0.002
			v-0.001l-0.006-0.006v0.004c-1.117-1.515-3.615,0.228-2.354,2.095l0.058,0.087l0.232,0.375c0,0.003,0.3,0.479,0.691,1.293
			c0.395,0.816,0.864,1.949,1.164,3.171c0.301,1.221,0.381,2.31,0.385,3.082c0.002,0.281-0.426,0.592-0.688,0.504
			c-0.727-0.24-1.725-0.652-2.779-1.32c-1.059-0.666-1.978-1.47-2.625-2.101c-0.645-0.627-1-1.063-1-1.063l-0.283-0.346
			l-0.062-0.076c-1.367-1.792-3.771,0.068-2.695,1.612l-0.002-0.002l0.002,0.01h0.002l0.004,0.003L4771.039-1806.323z"/>
		<path fill="#FF8300" d="M4772.328-1786.565c0.053-0.025,2.795-1.141,5.625-3.533c2.828-2.405,4.098-4.896,4.137-4.965
			c0.211-0.408,0.232-0.87,0.107-1.271h0.002c0-0.004-0.004-0.004-0.004-0.007c-0.002-0.003,0-0.003-0.002-0.006l0,0
			c-0.133-0.401-0.42-0.76-0.828-0.965c-0.072-0.036-2.548-1.294-6.232-1.558c-3.683-0.259-6.549,0.471-6.604,0.48l-0.357,0.11
			l-0.004,0.001h-0.002l-0.008,0.002l0.004,0.003c-1.768,0.604-0.901,3.547,1.244,2.908l0.101-0.026l0.426-0.11
			c0,0,0.543-0.143,1.433-0.267c0.89-0.126,2.1-0.229,3.342-0.141c1.24,0.088,2.291,0.349,3.019,0.584
			c0.267,0.084,0.426,0.593,0.263,0.815c-0.451,0.622-1.146,1.456-2.104,2.266c-0.952,0.812-1.991,1.445-2.784,1.874
			c-0.791,0.423-1.312,0.633-1.312,0.632l-0.41,0.165l-0.096,0.038c-2.105,0.762-1.102,3.649,0.688,3.093l-0.004,0.002l0.01-0.002
			l0,0l0.004-0.002L4772.328-1786.565z"/>
	</g>
	<g>
		<path fill="#7C7E7F" d="M4812.65-1777.256c0.82,0,1.453,0.209,1.896,0.627s0.664,1.055,0.664,1.911
			c0,0.448-0.049,0.845-0.147,1.188c-0.101,0.349-0.254,0.64-0.463,0.874c-0.209,0.236-0.476,0.417-0.799,0.541
			c-0.322,0.125-0.707,0.188-1.148,0.188h-1.829v-5.33H4812.65z M4812.711-1772.524c0.08,0,0.18-0.008,0.299-0.02
			c0.119-0.013,0.246-0.042,0.381-0.089c0.135-0.048,0.268-0.116,0.398-0.206c0.133-0.089,0.25-0.211,0.354-0.366
			c0.104-0.152,0.188-0.348,0.258-0.579c0.064-0.229,0.102-0.511,0.102-0.84c0-0.317-0.031-0.604-0.095-0.854
			c-0.062-0.251-0.164-0.465-0.306-0.644c-0.145-0.177-0.326-0.311-0.549-0.401c-0.227-0.093-0.5-0.139-0.83-0.139h-1.192v4.136
			L4812.711-1772.524L4812.711-1772.524z"/>
		<path fill="#7C7E7F" d="M4818.311-1777.256l2.08,5.33h-0.783l-0.582-1.605h-2.254l-0.598,1.605h-0.723l2.074-5.33H4818.311z
			 M4818.803-1774.128l-0.889-2.486h-0.016l-0.902,2.486H4818.803z"/>
		<path fill="#7C7E7F" d="M4819.66-1776.659v-0.598h4.262v0.598h-1.773v4.732h-0.709v-4.732H4819.66z"/>
		<path fill="#7C7E7F" d="M4826.057-1777.256l2.084,5.33h-0.783l-0.584-1.605h-2.254l-0.598,1.605h-0.723l2.074-5.33H4826.057z
			 M4826.551-1774.128l-0.889-2.486h-0.019l-0.899,2.486H4826.551z"/>
		<path fill="#7C7E7F" d="M4833.406-1776.528c-0.236-0.173-0.539-0.259-0.906-0.259c-0.15,0-0.297,0.017-0.441,0.046
			c-0.145,0.028-0.271,0.079-0.385,0.148c-0.11,0.07-0.201,0.163-0.268,0.28c-0.068,0.116-0.102,0.263-0.102,0.437
			c0,0.165,0.049,0.299,0.146,0.4c0.097,0.103,0.226,0.186,0.39,0.25c0.16,0.064,0.345,0.118,0.547,0.161
			c0.205,0.042,0.412,0.088,0.625,0.138c0.211,0.05,0.418,0.108,0.621,0.176c0.205,0.068,0.39,0.158,0.549,0.272
			c0.162,0.114,0.291,0.259,0.39,0.433s0.146,0.396,0.146,0.657c0,0.284-0.063,0.525-0.19,0.729
			c-0.127,0.201-0.289,0.365-0.487,0.492c-0.199,0.128-0.422,0.22-0.668,0.276c-0.246,0.056-0.492,0.085-0.732,0.085
			c-0.301,0-0.583-0.037-0.85-0.112c-0.268-0.074-0.5-0.188-0.701-0.339c-0.203-0.151-0.361-0.346-0.479-0.583
			c-0.117-0.235-0.176-0.517-0.176-0.839h0.672c0,0.224,0.043,0.417,0.131,0.578c0.087,0.161,0.201,0.295,0.343,0.398
			c0.143,0.104,0.309,0.183,0.497,0.23s0.383,0.074,0.582,0.074c0.159,0,0.319-0.016,0.479-0.045
			c0.162-0.029,0.31-0.081,0.438-0.152c0.129-0.072,0.233-0.17,0.313-0.294c0.078-0.125,0.119-0.284,0.119-0.479
			c0-0.185-0.049-0.333-0.146-0.448c-0.099-0.113-0.228-0.208-0.39-0.279c-0.162-0.072-0.346-0.13-0.549-0.176
			c-0.202-0.045-0.41-0.091-0.623-0.138c-0.211-0.048-0.418-0.103-0.623-0.165c-0.203-0.062-0.388-0.145-0.549-0.246
			c-0.16-0.103-0.291-0.233-0.39-0.396c-0.097-0.162-0.146-0.365-0.146-0.607c0-0.27,0.056-0.501,0.164-0.698
			c0.108-0.195,0.256-0.357,0.438-0.484c0.184-0.126,0.389-0.221,0.62-0.283c0.231-0.062,0.47-0.094,0.713-0.094
			c0.272,0,0.526,0.033,0.763,0.098c0.231,0.064,0.438,0.167,0.615,0.307c0.176,0.14,0.315,0.313,0.418,0.525
			c0.103,0.211,0.158,0.464,0.168,0.757h-0.672C4833.781-1776.079,4833.643-1776.357,4833.406-1776.528z"/>
		<path fill="#7C7E7F" d="M4836.284-1777.256v2.292h2.806v-2.292h0.711v5.33h-0.711v-2.441h-2.806v2.441h-0.71v-5.33H4836.284z"/>
		<path fill="#7C7E7F" d="M4843.195-1777.256l2.082,5.33h-0.783l-0.582-1.605h-2.254l-0.6,1.605h-0.725l2.074-5.33H4843.195z
			 M4843.688-1774.128l-0.888-2.486h-0.017l-0.901,2.486H4843.688z"/>
		<path fill="#7C7E7F" d="M4848.309-1777.256c0.508,0,0.904,0.125,1.191,0.374c0.285,0.249,0.43,0.59,0.43,1.022
			c0,0.322-0.074,0.605-0.221,0.851s-0.383,0.411-0.706,0.5v0.015c0.153,0.029,0.28,0.079,0.378,0.149
			c0.098,0.069,0.174,0.153,0.23,0.25c0.057,0.098,0.1,0.206,0.127,0.325c0.025,0.119,0.049,0.244,0.062,0.373
			c0.01,0.13,0.019,0.261,0.021,0.396c0.006,0.134,0.02,0.268,0.037,0.396c0.021,0.13,0.049,0.253,0.086,0.37
			c0.037,0.115,0.096,0.22,0.168,0.31h-0.791c-0.051-0.055-0.084-0.13-0.102-0.224c-0.018-0.096-0.027-0.2-0.033-0.317
			c-0.004-0.117-0.01-0.243-0.014-0.377c-0.006-0.135-0.021-0.267-0.045-0.396c-0.021-0.131-0.045-0.252-0.076-0.37
			c-0.029-0.117-0.076-0.221-0.144-0.308c-0.062-0.087-0.147-0.155-0.253-0.209c-0.105-0.053-0.245-0.079-0.418-0.079h-1.73v2.277
			h-0.709v-5.33L4848.309-1777.256L4848.309-1777.256z M4848.457-1774.837c0.15-0.025,0.281-0.074,0.393-0.146
			c0.112-0.072,0.203-0.169,0.271-0.291c0.064-0.122,0.102-0.28,0.102-0.476c0-0.269-0.074-0.488-0.226-0.657
			c-0.147-0.169-0.392-0.254-0.726-0.254h-1.762v1.858h1.479C4848.152-1774.8,4848.309-1774.812,4848.457-1774.837z"/>
		<path fill="#7C7E7F" d="M4851.652-1777.256v5.33h-0.709v-5.33H4851.652z"/>
		<path fill="#7C7E7F" d="M4853.594-1777.256l2.809,4.322h0.016v-4.322h0.672v5.33h-0.775l-2.784-4.277h-0.015v4.277h-0.672v-5.33
			H4853.594z"/>
		<path fill="#7C7E7F" d="M4861.445-1771.99c-0.31,0.122-0.619,0.185-0.935,0.185c-0.396,0-0.755-0.073-1.065-0.22
			c-0.313-0.147-0.58-0.347-0.799-0.596s-0.385-0.535-0.5-0.856c-0.113-0.323-0.172-0.659-0.172-1.01
			c0-0.388,0.054-0.757,0.16-1.106c0.105-0.353,0.268-0.658,0.479-0.922c0.211-0.266,0.475-0.476,0.791-0.631
			c0.316-0.156,0.686-0.235,1.109-0.235c0.287,0,0.561,0.034,0.814,0.101c0.256,0.067,0.484,0.173,0.688,0.317
			c0.201,0.145,0.371,0.328,0.508,0.548c0.137,0.222,0.229,0.489,0.278,0.803h-0.708c-0.036-0.204-0.102-0.379-0.195-0.524
			c-0.095-0.146-0.211-0.27-0.351-0.362s-0.298-0.165-0.476-0.212c-0.176-0.047-0.363-0.071-0.562-0.071
			c-0.323,0-0.602,0.064-0.831,0.194c-0.231,0.129-0.422,0.3-0.567,0.512s-0.256,0.453-0.324,0.724
			c-0.069,0.271-0.104,0.548-0.104,0.832c0,0.279,0.04,0.546,0.12,0.804c0.079,0.256,0.195,0.481,0.352,0.679
			c0.153,0.197,0.346,0.354,0.569,0.471c0.228,0.117,0.49,0.175,0.789,0.175c0.276,0,0.522-0.045,0.737-0.135
			c0.213-0.089,0.396-0.212,0.541-0.37c0.146-0.156,0.258-0.341,0.332-0.552s0.106-0.439,0.099-0.683h-1.702v-0.599h2.337v2.809
			h-0.448l-0.188-0.665C4862.014-1772.312,4861.754-1772.114,4861.445-1771.99z"/>
		<path fill="#7C7E7F" d="M4866.962-1777.256l1.679,4.479l1.688-4.479h0.97v5.33h-0.672v-4.434h-0.015l-1.665,4.434h-0.604
			l-1.666-4.434h-0.017v4.434h-0.671v-5.33H4866.962z"/>
		<path fill="#7C7E7F" d="M4874.71-1777.256l2.083,5.33h-0.783l-0.582-1.605h-2.256l-0.598,1.605h-0.725l2.074-5.33H4874.71z
			 M4875.203-1774.128l-0.889-2.486h-0.017l-0.901,2.486H4875.203z"/>
		<path fill="#7C7E7F" d="M4879.145-1777.256c0.82,0,1.453,0.209,1.896,0.627s0.666,1.055,0.666,1.911
			c0,0.448-0.051,0.845-0.148,1.188c-0.102,0.349-0.254,0.64-0.463,0.874c-0.209,0.236-0.477,0.417-0.799,0.541
			s-0.707,0.188-1.148,0.188h-1.829v-5.33H4879.145z M4879.203-1772.524c0.08,0,0.18-0.008,0.299-0.02
			c0.119-0.013,0.246-0.042,0.381-0.089c0.135-0.048,0.268-0.116,0.4-0.206c0.131-0.089,0.25-0.211,0.354-0.366
			c0.104-0.154,0.189-0.348,0.258-0.579c0.066-0.229,0.102-0.511,0.102-0.84c0-0.317-0.029-0.604-0.094-0.854
			c-0.062-0.251-0.164-0.465-0.307-0.644c-0.144-0.177-0.324-0.311-0.549-0.401s-0.5-0.139-0.828-0.139h-1.195v4.136
			L4879.203-1772.524L4879.203-1772.524z"/>
		<path fill="#7C7E7F" d="M4886.25-1777.256v0.598h-2.971v1.694h2.77v0.597h-2.77v1.845h2.992v0.598h-3.701v-5.33L4886.25-1777.256
			L4886.25-1777.256z"/>
		<path fill="#7C7E7F" d="M4892.887-1777.256v0.598h-2.972v1.694h2.771v0.597h-2.771v1.845h2.993v0.598h-3.702v-5.33
			L4892.887-1777.256L4892.887-1777.256z"/>
		<path fill="#7C7E7F" d="M4895.998-1777.256l2.084,5.33h-0.785l-0.582-1.605h-2.254l-0.598,1.605h-0.726l2.074-5.33H4895.998z
			 M4896.49-1774.128l-0.887-2.486h-0.018l-0.9,2.486H4896.49z"/>
		<path fill="#7C7E7F" d="M4901.271-1776.528c-0.236-0.173-0.539-0.259-0.906-0.259c-0.148,0-0.296,0.017-0.441,0.046
			c-0.143,0.028-0.271,0.079-0.385,0.148c-0.108,0.07-0.199,0.163-0.268,0.28c-0.066,0.116-0.102,0.263-0.102,0.437
			c0,0.165,0.049,0.299,0.146,0.4c0.099,0.103,0.228,0.186,0.39,0.25s0.345,0.118,0.549,0.161c0.203,0.042,0.412,0.088,0.623,0.138
			s0.418,0.108,0.623,0.176c0.203,0.067,0.388,0.158,0.549,0.272c0.162,0.114,0.291,0.259,0.39,0.433
			c0.097,0.174,0.146,0.396,0.146,0.657c0,0.284-0.062,0.525-0.19,0.729c-0.125,0.201-0.289,0.365-0.487,0.492
			c-0.199,0.128-0.42,0.22-0.668,0.276c-0.246,0.057-0.49,0.085-0.733,0.085c-0.299,0-0.582-0.037-0.849-0.112
			s-0.5-0.188-0.701-0.339c-0.201-0.151-0.36-0.346-0.479-0.583c-0.117-0.235-0.176-0.517-0.176-0.839h0.672
			c0,0.224,0.045,0.417,0.131,0.578c0.088,0.161,0.202,0.295,0.345,0.398c0.144,0.104,0.309,0.183,0.496,0.23
			c0.188,0.05,0.383,0.074,0.582,0.074c0.16,0,0.319-0.016,0.481-0.045c0.161-0.029,0.308-0.081,0.438-0.152
			c0.129-0.072,0.231-0.17,0.312-0.294c0.08-0.125,0.119-0.284,0.119-0.479c0-0.185-0.049-0.333-0.146-0.448
			c-0.098-0.114-0.227-0.208-0.389-0.279c-0.161-0.072-0.348-0.13-0.55-0.176c-0.204-0.045-0.412-0.091-0.622-0.138
			c-0.213-0.048-0.42-0.103-0.624-0.165c-0.204-0.062-0.39-0.145-0.549-0.246c-0.16-0.103-0.29-0.233-0.39-0.396
			c-0.096-0.162-0.146-0.365-0.146-0.607c0-0.27,0.054-0.501,0.164-0.698c0.108-0.195,0.255-0.357,0.437-0.484
			c0.184-0.126,0.391-0.221,0.619-0.283c0.232-0.062,0.471-0.094,0.713-0.094c0.274,0,0.527,0.033,0.764,0.098
			c0.232,0.064,0.438,0.167,0.616,0.307c0.177,0.14,0.313,0.313,0.417,0.525c0.104,0.211,0.159,0.464,0.167,0.757h-0.671
			C4901.646-1776.079,4901.51-1776.357,4901.271-1776.528z"/>
		<path fill="#7C7E7F" d="M4905.643-1771.926h-0.709v-2.18l-2.061-3.15h0.844l1.6,2.538l1.561-2.538h0.807l-2.037,3.15v2.18
			H4905.643z"/>
	</g>
	<line fill="none" stroke="#7C7E7F" stroke-miterlimit="10" x1="4759.172" y1="-1821" x2="4759.172" y2="-1773"/>
	<g>
		<g>
			<path fill="#7E7D7E" d="M4672.457-1809.981v-4.847h1.373v4.688c0,1.735,0.648,2.43,2.132,2.43c1.403,0,2.035-0.818,2.035-2.288
				v-4.828h1.263v4.72c0,2.162-1.074,3.535-3.346,3.535C4673.531-1806.573,4672.457-1807.914,4672.457-1809.981z"/>
			<path fill="#7E7D7E" d="M4682.32-1814.826h1.373l3.582,4.908c0.459,0.648,0.819,1.342,0.836,1.342h0.033
				c0,0-0.063-0.632-0.063-1.247v-5.003h1.231v8.113h-1.231l-3.804-5.208c-0.379-0.552-0.729-1.2-0.729-1.2h-0.018
				c0,0,0.047,0.538,0.047,1.042v5.367h-1.262v-8.114H4682.32z"/>
			<path fill="#7E7D7E" d="M4692.529-1814.826h1.355v8.113h-1.355V-1814.826z"/>
			<path fill="#7E7D7E" d="M4696.16-1814.826h1.436l2.054,5.318c0.235,0.6,0.474,1.374,0.474,1.39h0.03
				c0-0.017,0.235-0.772,0.474-1.39l1.977-5.318h1.309l-3.141,8.113h-1.326L4696.16-1814.826z"/>
			<path fill="#7E7D7E" d="M4706.135-1814.826h4.955v1.105h-3.6v2.225h3.221v1.074h-3.221v2.604h3.679v1.105h-5.034V-1814.826z"/>
			<path fill="#7E7D7E" d="M4713.932-1814.826h2.539c1.896,0,2.982,0.773,2.982,2.242c0,1.389-1.01,2.004-2.227,2.13v0.032
				c0.176,0.126,0.476,0.426,0.965,1.104l1.926,2.604h-1.562l-1.643-2.321c-0.807-1.121-0.994-1.214-1.482-1.214h-0.143v3.535
				h-1.356L4713.932-1814.826L4713.932-1814.826z M4716.439-1811.259c1.137,0,1.625-0.427,1.625-1.263
				c0-0.854-0.537-1.248-1.703-1.248h-1.074v2.51L4716.439-1811.259L4716.439-1811.259z"/>
			<path fill="#7E7D7E" d="M4721.709-1807.376l0.602-0.963c0.22,0.157,0.818,0.663,1.895,0.663c0.963,0,1.596-0.427,1.596-1.137
				c0-0.854-0.773-1.089-1.957-1.643c-1.041-0.474-1.926-1.058-1.926-2.336c0-1.419,1.215-2.191,2.619-2.191
				c1.326,0,2.006,0.426,2.354,0.66l-0.585,0.965c-0.3-0.205-0.915-0.521-1.72-0.521c-0.773,0-1.342,0.331-1.342,1.026
				c0,0.771,0.678,1.01,1.562,1.403c1.138,0.507,2.304,1.091,2.304,2.572c0,1.421-1.135,2.307-2.887,2.307
				C4722.861-1806.573,4722.039-1807.077,4721.709-1807.376z"/>
			<path fill="#7E7D7E" d="M4729.773-1814.826h1.354v8.113h-1.354V-1814.826z"/>
			<path fill="#7E7D7E" d="M4735.896-1813.706h-2.479v-1.121h6.329v1.121h-2.479v6.992h-1.373v-6.992H4735.896z"/>
			<path fill="#7E7D7E" d="M4744.086-1809.792l-2.855-5.035h1.482l2.084,3.853h0.031l2.053-3.853h1.325l-2.763,5.035v3.078h-1.357
				V-1809.792z"/>
			<path fill="#7E7D7E" d="M4672-1796.809c0-2.228,1.562-4.229,4.277-4.229s4.275,1.956,4.275,4.183
				c0,2.226-1.529,4.229-4.246,4.229S4672-1794.584,4672-1796.809z M4679.117-1796.809c0-1.673-0.932-3.125-2.809-3.125
				c-1.879,0-2.857,1.437-2.857,3.078c0,1.673,0.947,3.107,2.826,3.107C4678.154-1793.748,4679.117-1795.153,4679.117-1796.809z"/>
			<path fill="#7E7D7E" d="M4682.951-1800.88h4.878v1.104h-3.521v2.305h3.107v1.087h-3.107v3.616h-1.357V-1800.88z"/>
			<path fill="#7E7D7E" d="M4672-1782.896c0-2.256,1.547-4.197,4.291-4.197c1.092,0,1.816,0.237,2.447,0.646l-0.646,1.012
				c-0.475-0.316-1.042-0.522-1.831-0.522c-1.847,0-2.81,1.279-2.81,3.017c0,1.782,0.916,3.126,2.84,3.126
				c0.916,0,1.529-0.302,2.008-0.646l0.564,0.961c-0.439,0.378-1.389,0.822-2.62,0.822
				C4673.482-1778.68,4672-1780.639,4672-1782.896z"/>
			<path fill="#7E7D7E" d="M4683.395-1786.936h1.326l3.297,8.111h-1.418l-0.695-1.768h-3.771l-0.662,1.768h-1.344L4683.395-1786.936
				z M4685.492-1781.698l-0.963-2.478c-0.268-0.71-0.504-1.469-0.504-1.469h-0.032c0,0-0.253,0.791-0.505,1.469l-0.947,2.478
				H4685.492z"/>
			<path fill="#7E7D7E" d="M4690.005-1786.936h1.39v7.007h3.424v1.104h-4.812L4690.005-1786.936L4690.005-1786.936z"/>
			<path fill="#7E7D7E" d="M4697.139-1786.936h1.355v8.111h-1.355V-1786.936z"/>
			<path fill="#7E7D7E" d="M4701.509-1786.936h4.878v1.104h-3.52v2.304h3.106v1.091h-3.106v3.613h-1.358V-1786.936z"/>
			<path fill="#7E7D7E" d="M4708.137-1782.865c0-2.225,1.562-4.229,4.277-4.229c2.717,0,4.279,1.957,4.279,4.181
				c0,2.229-1.531,4.231-4.248,4.231C4709.73-1778.68,4708.137-1780.639,4708.137-1782.865z M4715.256-1782.865
				c0-1.672-0.932-3.125-2.811-3.125c-1.877,0-2.855,1.438-2.855,3.077c0,1.673,0.947,3.109,2.824,3.109
				C4714.293-1779.802,4715.256-1781.207,4715.256-1782.865z"/>
			<path fill="#7E7D7E" d="M4718.727-1786.936h2.541c1.896,0,2.984,0.771,2.984,2.24c0,1.391-1.012,2.006-2.227,2.131v0.03
				c0.174,0.125,0.473,0.43,0.963,1.105l1.926,2.604h-1.562l-1.643-2.318c-0.807-1.121-0.994-1.219-1.484-1.219h-0.141v3.537h-1.359
				v-8.111L4718.727-1786.936L4718.727-1786.936z M4721.236-1783.369c1.137,0,1.625-0.426,1.625-1.263
				c0-0.853-0.537-1.246-1.705-1.246h-1.072v2.509H4721.236L4721.236-1783.369z"/>
			<path fill="#7E7D7E" d="M4726.9-1786.936h1.373l3.584,4.91c0.457,0.646,0.818,1.341,0.836,1.341h0.029
				c0,0-0.062-0.631-0.062-1.247v-5.003h1.229v8.111h-1.229l-3.805-5.208c-0.379-0.554-0.727-1.199-0.727-1.199h-0.017
				c0,0,0.047,0.536,0.047,1.04v5.366h-1.265v-8.111H4726.9z"/>
			<path fill="#7E7D7E" d="M4736.891-1786.936h1.357v8.111h-1.357V-1786.936z"/>
			<path fill="#7E7D7E" d="M4743.598-1786.936h1.326l3.299,8.111h-1.422l-0.691-1.768h-3.771l-0.662,1.768h-1.342L4743.598-1786.936
				z M4745.697-1781.698l-0.963-2.478c-0.271-0.71-0.506-1.469-0.506-1.469h-0.031c0,0-0.252,0.791-0.505,1.469l-0.948,2.478
				H4745.697z"/>
		</g>
	</g>
</g>
<rect x="1.094" y="12.54" fill="none" width="82.25" height="31.5"/>
<text transform="matrix(1 0 0 1 -1 25.071)" fill="#DD4B26" font-family="'MyriadPro-Regular'" font-size="18">DataOne</text>
</svg>
