<?xml version="1.0" encoding="utf-8"?>
<!-- Generator: Adobe Illustrator 23.0.4, SVG Export Plug-In . SVG Version: 6.00 Build 0)  -->
<svg version="1.1" id="Layer_1" xmlns="http://www.w3.org/2000/svg" xmlns:xlink="http://www.w3.org/1999/xlink" x="0px" y="0px"
	 viewBox="0 0 165.51 17.39" width="165.51" height="17.39" style="enable-background:new 0 0 165.51 17.39;" xml:space="preserve">
<style type="text/css">
	.st0{fill:#00356B;}
</style>
<g>
	<path class="st0" d="M11.7,1.71v-0.4H7.6v0.4C8.55,1.76,8.82,2,9.11,2.21L6.3,7L3.46,2.18c0.27-0.22,0.56-0.41,1.51-0.47v-0.4H0
		v0.4c0.99,0.05,1.48,0.38,2,1.22l3.1,5.09v3.58c-0.27,0.54-1.26,0.68-2.09,0.72v0.41h5.74v-0.41c-0.83-0.04-1.66-0.13-2.03-0.97
		V7.87L9.7,2.95C10.22,2.09,10.69,1.76,11.7,1.71L11.7,1.71z M17.73,11.9v-0.47c-0.41,0.29-0.65,0.45-1.04,0.45
		c-0.38,0-0.77-0.23-0.76-0.97L16,7.02c0.04-1.39-0.52-2.25-2.16-2.25c-0.79,0-2.72,0.76-3.22,2.27v0.2l1.46-0.27
		c0.04-0.88,0.47-1.51,0.97-1.51c0.83,0,1.51,0.9,1.49,1.73l-0.02,1.26L10.8,9.76c-0.29,0.41-0.36,1.03-0.36,1.51
		c0,1.04,0.92,1.64,1.8,1.64c0.67,0,1.66-0.5,2.29-1.15c0.02,0.41,0.4,1.15,1.31,1.15C16.41,12.91,17.29,12.35,17.73,11.9
		L17.73,11.9z M14.52,8.87l-0.02,2.54c-0.56,0.4-0.9,0.58-1.62,0.58c-0.54,0-0.85-0.5-0.85-1.04c0-0.36,0.05-0.76,0.13-1.04
		C12.69,9.61,14.05,9.09,14.52,8.87L14.52,8.87z M21.88,12.74v-0.41c-0.9-0.09-1.12-0.18-1.3-0.54V0.86l0.34-0.61V0h-0.29l-2.7,0.81
		v0.34c1.24,0.13,1.21,0.38,1.21,0.99v9.65c-0.14,0.31-0.36,0.49-1.22,0.54v0.41H21.88L21.88,12.74z M29.41,11.29l-0.27-0.41
		c-0.77,0.67-1.15,0.97-2.18,0.97c-1.49,0-2.75-1.26-2.75-3.15c0-0.41,0.02-0.81,0.04-0.97l4.91,0.04V7.45
		c0-1.71-0.85-2.66-2.66-2.66c-2.18,0-3.76,1.78-3.76,4.43c0,2.18,1.42,3.67,3.28,3.67C27.48,12.89,28.31,12.29,29.41,11.29
		L29.41,11.29z M27.7,7.2l-3.38,0.04c0.2-1.19,0.9-1.91,1.85-1.91C26.98,5.33,27.7,6.23,27.7,7.2L27.7,7.2z M46.35,1.71v-0.4H41.6
		v0.4c0.85,0.04,1.82,0.43,2,0.79c0.02,0.56,0.09,2.12,0.09,3.11v2.34c0,2.59-1.13,3.98-3.42,3.98c-2.16,0-3.37-1.33-3.37-3.62V2.36
		c0.18-0.36,0.9-0.61,1.73-0.65v-0.4h-5.04v0.4C34.4,1.75,35.09,2,35.27,2.36v6.23c0,2.83,1.73,4.45,4.59,4.45
		c2.79,0,4.82-1.46,4.82-4.77V2.5C44.86,2.14,45.54,1.75,46.35,1.71L46.35,1.71z M55.94,12.74v-0.49c-0.81-0.07-1.17-0.09-1.53-0.36
		V7.22c0-1.46-0.49-2.45-2.12-2.45c-0.65,0-2.02,0.67-2.83,1.26V4.75h-0.2L46.93,5.6v0.34c0.85,0.22,1.13,0.63,1.13,0.99v4.86
		c-0.16,0.31-0.29,0.49-1.17,0.54v0.41h3.76v-0.41c-0.9-0.09-0.99-0.18-1.19-0.54V6.37c0.52-0.29,1.33-0.59,1.82-0.59
		c0.99,0,1.67,0.83,1.67,1.8v4.19c-0.13,0.31-0.23,0.47-1.1,0.54v0.43H55.94L55.94,12.74z M59.33,1.22c0-0.45-0.4-0.94-0.95-0.94
		c-0.58,0-0.97,0.49-0.97,0.94c0,0.43,0.4,0.9,0.97,0.9C58.93,2.12,59.33,1.66,59.33,1.22L59.33,1.22z M60.37,12.74v-0.43
		c-0.9-0.09-1.01-0.18-1.21-0.54V4.73h-0.22l-2.32,0.85V5.9c0.92,0.23,1.15,0.56,1.15,0.97l-0.02,4.9
		c-0.18,0.31-0.32,0.47-1.21,0.54v0.43H60.37L60.37,12.74z M69.12,5.44V5.02h-3.26v0.41c0.72,0.04,1.17,0.36,1.31,0.63l-1.91,5
		l-2.02-5.31c0.25-0.14,0.52-0.29,1.15-0.32V5.02H60.5v0.41c0.79,0.04,1.17,0.34,1.37,0.81l2.56,6.64l0.68-0.14l2.66-6.3
		C67.95,5.98,68.35,5.47,69.12,5.44L69.12,5.44z M76.08,11.29l-0.27-0.41c-0.77,0.67-1.15,0.97-2.18,0.97
		c-1.49,0-2.75-1.26-2.75-3.15c0-0.41,0.02-0.81,0.04-0.97l4.91,0.04V7.45c0-1.71-0.85-2.66-2.66-2.66c-2.18,0-3.76,1.78-3.76,4.43
		c0,2.18,1.42,3.67,3.28,3.67C74.16,12.89,74.99,12.29,76.08,11.29L76.08,11.29z M74.37,7.2l-3.38,0.04c0.2-1.19,0.9-1.91,1.85-1.91
		C73.65,5.33,74.37,6.23,74.37,7.2L74.37,7.2z M82.99,5.18c-0.41-0.2-0.83-0.34-1.28-0.34c-0.65,0-1.37,0.76-2.18,1.62L79.5,4.75
		h-0.18L77.04,5.6v0.34c0.9,0.22,1.13,0.52,1.13,0.88v4.95c-0.16,0.31-0.25,0.47-1.13,0.54v0.43h4.19v-0.45
		c-0.77-0.11-1.46-0.2-1.66-0.56V6.8c0.41-0.38,0.61-0.65,1.08-0.65s0.86,0.18,1.42,0.5h0.18L82.99,5.18L82.99,5.18z M89.01,10.49
		c0-1.19-0.79-1.69-2.2-2.27c-1.37-0.56-1.67-0.94-1.67-1.69c0-0.47,0.22-1.24,1.67-1.24c0.41,0,1.13,0.85,1.67,1.89h0.4l-0.09-1.91
		c-0.47-0.22-1.22-0.49-2.18-0.49c-1.58,0-2.81,1.03-2.81,2.27c0,1.24,0.72,1.76,2.21,2.39c1.01,0.4,1.64,0.81,1.64,1.57
		c0,0.67-0.34,1.37-1.85,1.37c-0.38,0-1.22-0.92-1.78-1.96h-0.45l0.22,2c0.45,0.22,1.22,0.5,2.56,0.5
		C87.89,12.92,89.01,11.79,89.01,10.49L89.01,10.49z M93.06,1.22c0-0.45-0.4-0.94-0.95-0.94c-0.58,0-0.97,0.49-0.97,0.94
		c0,0.43,0.4,0.9,0.97,0.9C92.66,2.12,93.06,1.66,93.06,1.22L93.06,1.22z M94.1,12.74v-0.43c-0.9-0.09-1.01-0.18-1.21-0.54V4.73
		h-0.22l-2.32,0.85V5.9c0.92,0.23,1.15,0.56,1.15,0.97l-0.02,4.9c-0.18,0.31-0.32,0.47-1.21,0.54v0.43H94.1L94.1,12.74z
		 M100.2,12.01v-0.36c-0.18,0.07-0.77,0.32-1.19,0.32c-1.06,0-1.69-0.63-1.69-1.64c0-1.6,0.04-2.63,0.07-4.45l2.66,0.02V5.06h-2.68
		l0.02-1.67h-0.23l-2.14,2.12v0.38l0.99-0.02c-0.04,1.71-0.14,2.99-0.14,4.7c0,1.44,0.49,2.32,2.12,2.32
		C98.64,12.89,99.73,12.38,100.2,12.01L100.2,12.01z M108.75,5.44V5.02h-3.24v0.41c0.72,0.04,1.15,0.36,1.26,0.63l-1.85,5.09
		l-2.02-5.4c0.25-0.14,0.56-0.29,1.19-0.32V5.02h-3.89v0.41c0.77,0.04,1.15,0.36,1.3,0.81l2.57,6.82l-1.17,2.83
		c-0.14-0.05-0.43-0.14-0.59-0.14c-0.58,0-0.88,0.38-0.88,0.81c0,0.41,0.32,0.83,0.88,0.83c0.5,0,0.85-0.32,0.99-0.67
		c0.41-0.95,1.17-3.1,1.82-4.72l2.25-5.56C107.56,5.98,107.98,5.47,108.75,5.44L108.75,5.44z M121.65,12.74V9.31h-0.38
		c-0.04,1.51-0.85,2.52-2.09,2.56l-3.28,0.09V2.36c0.16-0.36,1.06-0.61,1.89-0.65v-0.4h-5.22v0.4c0.83,0.04,1.53,0.27,1.69,0.63
		v9.16c-0.25,0.59-1.3,0.79-2.05,0.83v0.41H121.65L121.65,12.74z M125.34,1.22c0-0.45-0.4-0.94-0.95-0.94
		c-0.58,0-0.97,0.49-0.97,0.94c0,0.43,0.4,0.9,0.97,0.9C124.94,2.12,125.34,1.66,125.34,1.22L125.34,1.22z M126.38,12.74v-0.43
		c-0.9-0.09-1.01-0.18-1.21-0.54V4.73h-0.22l-2.32,0.85V5.9c0.92,0.23,1.15,0.56,1.15,0.97l-0.02,4.9
		c-0.18,0.31-0.32,0.47-1.21,0.54v0.43H126.38L126.38,12.74z M135.54,8.42c0-2.54-1.64-3.65-3.28-3.65c-0.83,0-1.84,0.52-2.65,1.12
		v-5L130,0.25V0h-0.25l-2.74,0.79v0.34c1.24,0.13,1.21,0.34,1.21,1.01l-0.05,10.1c0.74,0.38,1.33,0.68,2.63,0.68
		C133.82,12.92,135.54,11,135.54,8.42L135.54,8.42z M134.03,8.98c0,1.75-0.97,3.35-2.43,3.35c-0.74,0-1.75-0.5-1.98-1.67V6.23
		c0.49-0.23,1.1-0.47,1.55-0.47C132.92,5.76,134.03,7.25,134.03,8.98L134.03,8.98z M142.71,5.18c-0.41-0.2-0.83-0.34-1.28-0.34
		c-0.65,0-1.37,0.76-2.18,1.62l-0.04-1.71h-0.18l-2.29,0.85v0.34c0.9,0.22,1.13,0.52,1.13,0.88v4.95c-0.16,0.31-0.25,0.47-1.13,0.54
		v0.43h4.19v-0.45c-0.77-0.11-1.46-0.2-1.66-0.56V6.8c0.41-0.38,0.61-0.65,1.08-0.65c0.47,0,0.86,0.18,1.42,0.5h0.18L142.71,5.18
		L142.71,5.18z M150.45,11.9v-0.47c-0.41,0.29-0.65,0.45-1.04,0.45c-0.38,0-0.77-0.23-0.76-0.97l0.07-3.89
		c0.04-1.39-0.52-2.25-2.16-2.25c-0.79,0-2.72,0.76-3.22,2.27v0.2l1.46-0.27c0.04-0.88,0.47-1.51,0.97-1.51
		c0.83,0,1.51,0.9,1.49,1.73l-0.02,1.26l-3.73,1.31c-0.29,0.41-0.36,1.03-0.36,1.51c0,1.04,0.92,1.64,1.8,1.64
		c0.67,0,1.66-0.5,2.29-1.15c0.02,0.41,0.4,1.15,1.31,1.15C149.13,12.91,150.01,12.35,150.45,11.9L150.45,11.9z M147.24,8.87
		l-0.02,2.54c-0.56,0.4-0.9,0.58-1.62,0.58c-0.54,0-0.85-0.5-0.85-1.04c0-0.36,0.05-0.76,0.13-1.04
		C145.41,9.61,146.77,9.09,147.24,8.87L147.24,8.87z M156.84,5.18c-0.41-0.2-0.83-0.34-1.28-0.34c-0.65,0-1.37,0.76-2.18,1.62
		l-0.04-1.71h-0.18l-2.29,0.85v0.34c0.9,0.22,1.13,0.52,1.13,0.88v4.95c-0.16,0.31-0.25,0.47-1.13,0.54v0.43h4.19v-0.45
		c-0.77-0.11-1.46-0.2-1.66-0.56V6.8c0.41-0.38,0.61-0.65,1.08-0.65c0.47,0,0.86,0.18,1.42,0.5h0.18L156.84,5.18L156.84,5.18z
		 M165.51,5.44V5.02h-3.24v0.41c0.72,0.04,1.15,0.36,1.26,0.63l-1.85,5.09l-2.02-5.4c0.25-0.14,0.56-0.29,1.19-0.32V5.02h-3.89v0.41
		c0.77,0.04,1.15,0.36,1.3,0.81l2.57,6.82l-1.17,2.83c-0.14-0.05-0.43-0.14-0.59-0.14c-0.58,0-0.88,0.38-0.88,0.81
		c0,0.41,0.32,0.83,0.88,0.83c0.5,0,0.85-0.32,0.99-0.67c0.41-0.95,1.17-3.1,1.82-4.72l2.25-5.56
		C164.32,5.98,164.73,5.47,165.51,5.44L165.51,5.44z"/>
</g>
</svg>
