<?xml version="1.0" encoding="utf-8"?>
<!-- Generator: Adobe Illustrator 16.0.0, SVG Export Plug-In . SVG Version: 6.00 Build 0)  -->
<!DOCTYPE svg PUBLIC "-//W3C//DTD SVG 1.1//EN" "http://www.w3.org/Graphics/SVG/1.1/DTD/svg11.dtd">
<svg version="1.1" id="Layer_1" xmlns="http://www.w3.org/2000/svg" xmlns:xlink="http://www.w3.org/1999/xlink" x="0px" y="0px"
	 width="86.619px" height="46.157px" viewBox="7.6 6.263 86.619 46.157" enable-background="new 7.6 6.263 86.619 46.157"
	 xml:space="preserve">
<g>
	<path fill="#FDB913" d="M7.6,6.883h7.689v33.793c0,3.286,1.302,4.898,4.093,4.898c2.79,0,4.092-1.612,4.092-4.898V6.883h7.689
		v33.482c0,7.688-4.465,11.905-11.782,11.905S7.6,48.056,7.6,40.365V6.883z"/>
	<path fill="#FDB913" d="M54.106,21.827v-3.473c0-3.782-1.735-5.395-3.721-5.395c-3.1,0-4.093,1.612-4.093,4.961v22.692
		c0,3.349,0.993,4.961,4.093,4.961c2.791,0,3.721-1.612,3.721-4.527v-5.395h7.689v5.146c0,6.325-3.721,11.474-11.41,11.474
		c-8.061,0-11.781-5.147-11.781-11.474V17.735c0-6.325,3.721-11.472,11.781-11.472c7.689,0,11.41,5.581,11.41,12.278v3.286H54.106z"
		/>
</g>
<g>
	<path fill="#026CB6" d="M76.747,6.985h-7.822v45.433h7.803V33.793 M87.614,31.841c2.642-1.193,5.473-4.151,5.473-11.451
		c0-9.691-4.466-13.404-13.212-13.404h-2.87l1.26,7.89l4.67-7.189l-2.868,8.611l7.759-4.712l-6.32,6.513l11.062-1.296l-10.551,3.542
		l10.135,3.601L81.504,22.59l6.32,6.517l-7.759-4.713l2.868,8.611l-4.623-7.119l-1.304,7.908c1.32-0.008,2.808-0.07,3.746-0.188
		l5.539,18.813h7.927L87.614,31.841z"/>
</g>
</svg>
