<?xml version="1.0" encoding="utf-8"?>
<!-- Generator: Adobe Illustrator 26.5.0, SVG Export Plug-In . SVG Version: 6.00 Build 0)  -->
<svg version="1.1" xmlns="http://www.w3.org/2000/svg" xmlns:xlink="http://www.w3.org/1999/xlink" x="0px" y="0px"
	 viewBox="0 0 335.49 394.19" style="enable-background:new 0 0 335.49 394.19;" xml:space="preserve">
<style type="text/css">
	.st0{fill:#5B4E3E;}
	.st1{fill:#E1D1AD;}
	.st2{fill:#F6D563;}
	.st3{fill:#E7A83A;}
	.st4{fill:#FFFFFF;}
	.st5{fill:#FFF12D;}
	.st6{fill:#1879BF;}
</style>
<g id="Guides_For_Artboard">
</g>
<g id="Layer_1">
	<g>
		<path class="st0" d="M7.41,52.91c0-26.52,21.51-48.03,48.03-48.03h224.48c26.53,0,48.03,21.51,48.03,48.03l-0.02,175.07
			c0,88.62-71.85,160.46-160.46,160.46C78.85,388.44,7,316.6,7,227.97L7.41,52.91z"/>
		<path class="st1" d="M317.7,52.91c0-20.87-16.91-37.78-37.78-37.78H55.44c-20.87,0-37.78,16.91-37.78,37.78l-0.44,175.07
			c0,82.96,67.26,150.22,150.22,150.22s150.22-67.26,150.22-150.22L317.7,52.91z"/>
		<path class="st2" d="M289.03,266.8c4.09-12.42,4.42-25.34,4.42-39.12V107.12H41.4v120.55c0,13.74,2.2,26.97,6.27,39.35
			L289.03,266.8z"/>
		<path class="st3" d="M45.94,266.81h243.1l7.1-43.35c0,0-71.15-27.19-73.75-28.15c-4.52-1.66-10.39-2.18-15.13,0.68
			c-1.96,1.19-48.39,28.52-48.39,28.52l-32.81,7.98c0,0-21.57-6.3-24.24-7.08c-2.86-0.83-6.02-0.87-8.13,0.15
			c-2.06,0.99-51.03,23.63-51.03,23.63L45.94,266.81z"/>
		<path class="st4" d="M251.24,266.8l0.34-2.7l2.65-5.64l-3.06-9.81l-31.7,2.39l-2.62,15.77l-170.9,0.01
			c16.53,50.33,65.64,86.89,121.5,86.89c55.81,0,105.04-36.63,121.6-86.9H251.24z"/>
		<path class="st0" d="M38.66,68.79v-1.28h1.36c0.27,0,0.52,0,0.8-0.09c0.08-0.05,0.19-0.09,0.24-0.17
			c0.06-0.07,0.09-0.17,0.14-0.24c0.08-0.36,0.08-0.75,0.08-1.11V53.98c0-0.44,0-1.01-0.58-1.16c-0.5-0.17-0.78-0.12-1.31-0.15
			h-0.72V51.4h18.88l0.2,6.33h-1.39c-0.94-3.23-2.55-5.04-6.59-5.04c-0.77,0-1.66-0.07-2.33,0.34c-0.39,0.29-0.33,0.82-0.33,1.21
			v4.96c2.96,0.09,3.79-0.99,4.38-3.35h1.41v8.03h-1.41c-0.06-0.58-0.17-0.9-0.47-1.46c-0.6-1.1-1.77-1.65-3.63-1.65h-0.27v5.05
			c0,1.27,0,1.56,1.58,1.61l1.44,0.07v1.28H38.66z"/>
		<path class="st0" d="M58.52,68.79v-1.28h1.44c1.27-0.12,1.16-0.7,1.16-1.64v-11.7c0-0.27,0-0.53-0.06-0.8
			c-0.14-0.29-0.11-0.48-0.5-0.58c-0.47-0.14-0.7-0.1-1.2-0.12h-0.86V51.4H69.6v1.27h-0.89c-0.58,0-1.03-0.1-1.47,0.31
			c-0.14,0.12-0.17,0.31-0.22,0.45c-0.08,0.24-0.05,0.53-0.05,0.8v12.04c0,0.39,0,0.94,0.52,1.11c0.14,0.05,0.28,0.02,0.41,0.05
			c0.42,0.07,0.59,0.05,1.03,0.07h0.67v1.28H58.52z"/>
		<path class="st0" d="M70.83,62.22h1.78c1.11,2.92,3.67,5.68,7.72,5.68c1.71,0,3.3-1.25,3.3-2.74c0-1.1-1.25-2.24-2.67-2.42
			l-2.33-0.37c-2.24-0.34-3.36-0.56-5.23-1.67c-1.57-0.92-2.57-2.6-2.57-4.16c0-3.71,3.72-5.57,8.01-5.57c1.94,0,4.1,0.47,5.71,1.36
			l1.22-1.14h1.3l0.09,6.05h-1.7c-1.13-3.01-2.96-4.94-6.71-4.94c-1.64,0-3.24,1.11-3.24,2.5c0,1.35,1.56,2.03,3.11,2.28l1.6,0.29
			c4.36,0.72,8.21,1.96,8.21,6.18c0,1.66-0.91,3.2-2.54,4.29c-1.54,0.98-3.63,1.33-5.56,1.33c-2.18,0-4.63-0.61-6.32-1.69l-1.6,1.55
			h-1.33L70.83,62.22z"/>
		<path class="st0" d="M88.16,51.4H99.1v1.27c-0.41,0-1.77-0.07-2.3,0.24c-0.24,0.36-0.24,0.82-0.24,1.25v5.51h6.82v-5.37
			c0-0.31,0.03-0.63-0.02-0.91c-0.06-0.15-0.06-0.32-0.2-0.44c-0.41-0.36-1.83-0.29-2.27-0.29V51.4h10.82v1.27l-1.83,0.07
			c-0.8,0.17-0.66,1.04-0.66,1.57v11.1c0,0.45,0.02,0.94,0.05,1.4c0.03,0.34,0.22,0.48,0.58,0.58c0.75,0.07,1.16,0.14,1.92,0.12
			v1.28h-10.88v-1.28c0.27,0,1.25-0.04,1.78-0.12c0.91-0.09,0.72-1.28,0.72-1.85v-4.31h-6.82v4.75c0,0.62,0,1.39,0.86,1.47
			c0.44,0.03,1.36,0.07,1.69,0.07v1.28H88.16v-1.28h1.53c0.39,0,0.89-0.09,0.92-0.5c0.03-0.43,0.08-0.82,0.11-1.25V54.15
			c0-0.48,0.11-1.18-0.58-1.35c-0.72-0.17-1.22-0.07-1.97-0.12V51.4z"/>
		<path class="st0" d="M123.93,62.5c0,1.11,0.61,2.34,1.36,3.23c0.83,0.99,1.85,1.54,3.27,1.54c0.52,0,1.55-0.24,1.91-0.6
			c-0.33-0.39-0.69-0.77-1.02-1.16c-1.39-1.54-2.05-2.41-3.11-4.09c-0.25-0.43-0.52-0.87-0.8-1.3
			C124.59,60.7,123.93,61.45,123.93,62.5z M131.88,54.51c0-1.16-0.8-2.29-2.24-2.29c-1.39,0-2.08,0.94-2.08,2.07
			c0,0.87,1.06,2.65,1.64,3.4c0.14-0.05,0.3-0.07,0.42-0.17C131.1,56.94,131.88,55.95,131.88,54.51z M132.79,58.99h7.53v1.25
			c-2.44,0.05-2.8,0.89-3.85,2.53c-0.5,0.77-1,1.52-1.66,2.19c0.61,0.65,1.66,1.71,2.74,1.71c1.36,0,1.94-1.08,2.1-2.1l1.3,0.27
			c-0.58,2.51-1.91,4.24-5.1,4.24c-1.49,0-3.24-0.67-4.35-1.54c-1.72,1.16-3.82,1.62-5.99,1.62c-1.6,0-3.27-0.34-4.51-1.28
			c-1.05-0.79-1.74-2.22-1.74-3.42c0-1.35,0.86-2.68,1.99-3.57c1.05-0.85,2.41-1.33,3.68-1.85c-0.69-1.09-1.14-2.15-1.14-3.4
			c0-2.94,2.6-4.6,5.82-4.6c1.33,0,2.44,0.14,3.57,0.82c1,0.6,1.61,1.57,1.61,2.63c0,2.36-2.69,3.54-4.88,4.24
			c1.22,1.81,2.58,3.52,3.96,5.23c0.58-0.67,1.39-1.64,1.39-2.53c0-1.18-1.47-1.25-2.49-1.25V58.99z"/>
		<path class="st0" d="M145.43,51.4h9.41v1.27c-0.42,0.02-0.86,0-1.28,0.12c-0.19,0.09-0.22,0.07-0.33,0.24
			c-0.14,0.12-0.08,0.34-0.05,0.48l0.22,0.55l3.32,8.86l2.3-6.24l-0.94-2.51c-0.19-0.51-0.25-0.72-0.64-1.2
			c-0.2-0.24-0.64-0.22-0.94-0.27l-0.33-0.05V51.4h9.1v1.27c-0.41,0.02-0.89-0.02-1.27,0.15c-0.12,0.05-0.23,0.14-0.31,0.21
			c-0.19,0.29,0,0.65,0.08,0.97l3.05,8.77l2.24-6.46c0.25-0.75,0.55-1.47,0.55-2.26c0-1.11-1.52-1.37-2.52-1.37V51.4h6.93v1.27
			c-0.14,0.02-0.28,0.05-0.42,0.07c-1.49,0.39-1.99,1.66-2.44,2.82l-4.9,13.59h-2.87l-3.52-10.05l-3.71,10.05h-2.92l-5.6-14.79
			c-0.14-0.34-0.25-0.73-0.47-1.04c-0.33-0.65-0.8-0.6-1.5-0.65h-0.25V51.4z"/>
		<path class="st0" d="M187.81,68.79v-1.28c0.75,0.05,1.17-0.04,1.89-0.09c0.69-0.05,0.69-0.75,0.69-1.2V54.79
			c0-2.02,0.16-2.07-2.16-2.12h-0.42V51.4h10.91v1.27h-1.17c-1.25,0-1.33,0.31-1.33,1.3v11.89c0.05,0.92-0.03,1.45,1.22,1.54
			c0.61,0.07,0.59,0.09,1.2,0.09c2.96,0,4.46-1.95,5.27-5.23h1.44l-0.33,6.5H187.81z"/>
		<path class="st0" d="M214.51,65.61c0,0.48-0.08,1.16,0.28,1.56c0.53,0.32,0.94,0.34,1.36,0.34c4.54,0,4.96-2.07,5.49-5.59
			c0.09-0.58,0.11-1.18,0.11-1.76c0-0.94-0.06-1.85-0.22-2.79c-0.61-3.11-1.45-4.75-5.24-4.75c-0.42,0-1.03,0.02-1.53,0.4
			c-0.27,0.22-0.25,0.75-0.25,1.04V65.61z M205.8,68.79v-1.28c0.75,0,1.52,0,2.24-0.09c0.11-0.02,0.25-0.07,0.33-0.17
			c0.11-0.07,0.19-0.22,0.22-0.34c0.11-0.27,0.08-0.55,0.08-0.85v-12.5c0-0.36-0.11-0.63-0.55-0.77c-0.53-0.17-1.11-0.12-1.66-0.12
			h-0.67V51.4h9.45l2.58,0.05c1.41,0.02,3.51,0.1,4.81,0.6c1.11,0.41,2.24,1.01,3.05,1.76c1.8,1.73,2.46,3.81,2.46,6.09
			c0,1.52-0.28,3.09-1,4.46c-0.89,1.71-2.63,3.15-4.63,3.83c-1.72,0.6-4.97,0.6-6.83,0.6H205.8z"/>
		<path class="st0" d="M278.11,68.79v-1.28c0.75-0.07,2.3,0.27,2.55-0.62c0.11-0.27,0.09-0.55,0.09-0.84V53.74
			c0-0.17,0.03-0.39-0.09-0.53c-0.11-0.24-0.22-0.36-0.53-0.41c-0.75-0.14-1.25-0.12-2.02-0.12V51.4h18.64l0.19,6.26h-1.38
			c-1.19-3.52-1.98-5.01-6.41-5.01c-0.67,0-1.36,0.02-1.97,0.27c-0.19,0.11-0.39,0.26-0.44,0.48c-0.19,0.39-0.16,0.81-0.16,1.23
			v4.55c2.74,0.19,4.07-1.18,4.38-3.42h1.41l0.11,8.38h-1.49c-0.12-2.31-1.64-3.76-4.41-3.69v5.27c0,1.06-0.05,1.57,1.3,1.69
			c0.5,0.05,1,0.09,1.5,0.09c4.38,0,5.32-1.71,6.49-5.2l1.38,0.1l-0.3,6.38H278.11z"/>
		<path class="st0" d="M138.42,28.67h11.51v1.28c-0.83,0.1-1.99-0.17-2.63,0.39c-0.27,0.24-0.22,0.82-0.22,1.11v8
			c0,0.94-0.03,2.29,0.39,3.15c0.41,0.87,0.86,1.2,1.86,1.59c0.86,0.32,1.63,0.44,2.58,0.44c1.52,0,3.15-0.44,4.07-1.57
			c0.97-1.13,0.94-2.45,0.94-3.8v-6.24c0-1.18-0.03-2.53-1.64-2.89c-0.44-0.17-0.97-0.14-1.44-0.17v-1.28h7.9v1.28
			c-2.63,0.07-2.96,1.3-3.05,3.25v6.86c0,0.85-0.09,1.52-0.36,2.34c-0.47,1.42-1.66,2.7-3.21,3.32c-1.31,0.55-3.19,0.7-4.63,0.7
			c-1.83,0-5.34-0.29-6.86-1.23c-1.85-1.13-2.38-2.68-2.38-4.58v-9.8c0-0.34-0.05-0.58-0.47-0.72c-0.55-0.15-2-0.15-2.36-0.15V28.67
			z"/>
		<path class="st0" d="M163.94,40.22c1.82,0,3.36,1.42,3.36,3.12c0,1.69-1.54,3.08-3.36,3.08c-1.82,0-3.35-1.39-3.35-3.08
			C160.59,41.65,162.12,40.22,163.94,40.22z"/>
		<path class="st0" d="M149.16,81.43c0.75,0.03,0.56-0.02,1.31-0.05c2.71-0.07,4.27-0.84,4.27-3.44c0-2.33-1.38-3.04-3.9-3.04
			c-0.66,0-0.48-0.02-1.12,0.17c-0.53,0.27-0.55,0.89-0.55,1.37V81.43z M151.66,73.68l2.68,0.05c1.64,0.02,3.11,0.17,4.54,0.96
			c1.22,0.7,2.02,2.05,2.02,3.32c0,2.99-2.97,4.15-5.96,4.34v0.05c2.59,0.36,3.49,1.45,4.04,3.5l0.25,1.63
			c0.14,0.53,0.01,0.71,0.29,1.19c0.06,0.09,0.14,0.19,0.25,0.29c1.41,0.48,1.54-1.09,1.62-1.86h1.38c0,0.48-0.03,0.96-0.16,1.42
			c-0.44,2.07-2.44,2.87-4.68,2.87c-1.22,0-2.9-0.34-3.76-1.08c-0.78-0.7-0.97-1.62-1.05-2.56l-0.11-1.44
			c-0.17-2.02-0.31-3.47-2.94-3.61c-0.42-0.02-0.23-0.02-0.64-0.02h-0.28v5.54c0,0.26,0,0.55,0.03,0.82
			c0.14,0.48,0.31,0.62,0.89,0.65c0.47,0.07,0.37,0.05,0.84,0.07h0.69v1.28h-10.88v-1.28c0.5,0,0.72,0,1.22-0.02
			c1.33-0.03,1.33-0.44,1.38-1.42V77.2c0-0.41,0.11-1.64-0.22-1.93c-0.47-0.41-1.16-0.29-1.8-0.31h-0.58v-1.28H151.66z"/>
		<path class="st0" d="M160.5,73.68h10.9v1.28c-0.61,0.09-1.91-0.12-2.3,0.41c-0.11,0.34,0.09,0.65,0.22,0.96l4.52,9.97l4.04-8.93
			c0.11-0.31,0.19-0.55,0.19-0.87c0-1.18-1.66-1.59-2.74-1.54v-1.28h7.81v1.28c-2.08,0.12-2.91,1.81-3.63,3.3l-6.18,13.18h-3.17
			l-6.76-14.62c-0.39-0.82-0.67-1.59-1.8-1.78c-0.36-0.03-0.75-0.05-1.11-0.07V73.68z"/>
		<path class="st0" d="M212.81,73.37h1.16l0.25,6.91l-1.41,0.12c-0.78-2.63-2.63-5.85-6.23-5.85c-1.6,0-2.77,0.41-3.74,1.52
			c-0.97,1.16-1.11,2.02-1.41,3.4c-0.19,0.92-0.22,2.05-0.22,2.99c0,1.25,0.14,2.46,0.47,3.68c0.3,1.16,0.66,1.95,1.69,2.77
			c1,0.77,2.1,1.06,3.43,1.06c3.54,0,5.62-2.41,6.21-5.23l1.63,0.33c-1.08,4.34-3.88,6.36-8.97,6.36c-2.93,0-6.11-0.47-8.16-2.3
			c-1.91-1.69-2.69-4.25-2.69-6.56c0-2.5,0.97-5.19,3.02-6.97c1.94-1.69,5.31-2.27,8.05-2.27c1.97,0,3.33,0.21,5.02,1.15
			c0.08,0.07,0.22,0.15,0.33,0.19L212.81,73.37z"/>
		<path class="st0" d="M38.06,291.98c-0.27,0.14-0.67,0.28-0.79,0.61c-0.02,0.39,0.18,0.82,0.31,1.06c1.35,2.63,2.81,2.64,4.92,1.94
			c0.34-0.11,0.69-0.27,1.01-0.43c0.52-0.27,1.01-0.56,1.48-0.93c1.54-1.24,2.03-2.54,0.9-4.75c-0.13-0.24-0.41-0.76-0.77-0.94
			c-0.21-0.1-0.49,0.07-0.65,0.15L38.06,291.98z M33.96,288.35l0.71-0.36c0.22,0.43,0.46,0.89,0.72,1.28
			c0.05,0.06,0.11,0.12,0.19,0.14c0.07,0.05,0.18,0.05,0.25,0.04c0.18-0.01,0.33-0.11,0.49-0.19l6.95-3.57
			c0.2-0.11,0.32-0.25,0.26-0.54c-0.06-0.35-0.26-0.68-0.43-1l-0.2-0.39l0.71-0.36l2.81,5.48l0.74,1.51
			c0.41,0.83,0.73,1.54,0.83,2.44c0.1,0.76,0.11,1.59-0.07,2.27c-0.43,1.54-1.38,2.51-2.65,3.17c-0.84,0.43-1.8,0.72-2.77,0.69
			c-1.21-0.03-2.54-0.62-3.51-1.59c-0.85-0.82-1.55-2.19-2.1-3.27L33.96,288.35z"/>
		<path class="st0" d="M40.35,300.77l0.67-0.43c0.3,0.39,0.78,1.52,1.33,1.36c0.18-0.03,0.32-0.14,0.47-0.24l6.49-4.12
			c0.09-0.06,0.21-0.12,0.25-0.23c0.09-0.14,0.12-0.24,0.03-0.43c-0.19-0.46-0.48-0.89-0.75-1.32l0.67-0.43l6.52,10.26l-3.23,2.21
			l-0.48-0.76c1.44-1.83,1.74-3.1,0.19-5.54c-0.23-0.37-0.49-0.74-0.83-0.99c-0.13-0.07-0.27-0.13-0.41-0.08
			c-0.27,0.02-0.49,0.18-0.71,0.32l-2.4,1.53c0.86,1.57,2.05,1.85,3.33,1.26l0.5,0.77l-4.39,2.87l-0.52-0.82
			c1.18-0.84,1.41-2.16,0.4-3.66l-2.78,1.77c-0.56,0.35-0.85,0.49-0.43,1.28c0.15,0.29,0.3,0.58,0.47,0.85
			c1.53,2.41,2.98,2.69,5.23,2.16l0.44,0.79l-3.48,1.97L40.35,300.77z"/>
		<path class="st0" d="M47.65,312.2l0.63-0.49c0.23,0.3,0.46,0.59,0.7,0.88c0.48,0.59,0.75,0.38,1.15,0.06l6.31-4.88
			c0.05-0.06,0.1-0.14,0.09-0.23c0.01-0.08,0-0.16-0.04-0.24c-0.22-0.45-0.58-0.85-0.88-1.26l0.63-0.49l4.57,5.92
			c0.16,0.2,0.3,0.41,0.44,0.62c0.7,0.99,1.28,1.88,1.41,3.06c0.12,1.14-0.27,1.87-1.05,2.48c-2.12,1.64-4.54-0.75-6.05-2.76
			l-1.11-1.49l-2.4,1.85c-0.13,0.1-0.43,0.28-0.42,0.48c-0.02,0.08,0,0.18,0.04,0.27c0.05,0.08,0.1,0.15,0.14,0.23
			c0.11,0.24,0.3,0.43,0.43,0.64l0.35,0.46l-0.63,0.48L47.65,312.2z M55.09,312.89l0.11,0.14c0.17,0.21,0.33,0.43,0.5,0.64
			c1.35,1.74,2.35,2.39,3.94,1.16c1.34-1.04,1.28-1.95,0.06-3.54c-0.22-0.29-0.6-0.83-0.95-0.93c-0.33-0.08-0.54,0.12-0.76,0.29
			L55.09,312.89z"/>
		<path class="st0" d="M66.16,317.51l0.9,1.01l-3.78,9.53c-0.35,0.89-0.43,1.16,0.35,2.09l-0.6,0.53l-4.21-4.71l0.59-0.53
			c0.23,0.23,0.65,0.8,0.96,0.83c0.32,0.04,0.38-0.21,0.47-0.44l0.75-1.71l-3.07-3.43c-0.47,0.15-1.07,0.23-1.46,0.58
			c-0.64,0.57-0.15,1.42,0.43,2.04l-0.59,0.53l-3.46-3.87l0.6-0.53c1.05,1,2.37,0.64,3.42,0.38L66.16,317.51z M61.99,323.12
			l1.6-3.83l-4.03,1.11L61.99,323.12z"/>
		<path class="st0" d="M70.68,329.49c0.35,0.34,0.71,0.64,1.08,0.96c1.33,1.17,2.4,1.51,3.5,0.31c0.99-1.07,0.63-2-0.58-3.12
			c-0.32-0.3-0.65-0.62-1.04-0.82c-0.36-0.11-0.64,0.16-0.85,0.39L70.68,329.49z M75.45,327.31l0.97,0.94
			c0.77,0.73,1.42,1.45,1.76,2.45c0.29,0.86,0.1,1.83-0.44,2.42c-1.27,1.37-3.18,0.59-4.69-0.65l-0.02,0.02
			c0.9,1.21,1.06,2.31,0.45,3.5l-0.43,0.89c-0.16,0.3-0.33,0.62-0.4,0.96c-0.02,0.07-0.02,0.15,0,0.24
			c0.47,0.85,1.38,0.02,1.75-0.29l0.66,0.61c-0.21,0.22-0.42,0.43-0.68,0.58c-1.09,0.75-2.38,0.23-3.46-0.76
			c-0.58-0.54-0.96-1.17-1.05-1.9c-0.07-0.67,0.22-1.17,0.58-1.64l0.56-0.71c0.78-1,1.33-1.72,0.13-2.96
			c-0.19-0.19-0.39-0.38-0.59-0.56l-0.42-0.39l-2.35,2.54c-0.12,0.12-0.23,0.25-0.34,0.39c-0.14,0.28-0.12,0.42,0.15,0.69
			c0.19,0.24,0.44,0.45,0.66,0.67l0.33,0.31l-0.54,0.58l-5.21-4.82l0.54-0.58c0.24,0.22,0.49,0.45,0.74,0.66
			c0.65,0.58,0.82,0.39,1.27-0.04l4.74-5.11c0.17-0.19,0.75-0.7,0.71-0.98c-0.05-0.4-0.44-0.65-0.73-0.94l-0.43-0.39l0.54-0.58
			L75.45,327.31z"/>
		<path class="st0" d="M77.74,334.94l2.71-3.06l9.48,7.25l-2.26,3.41l-0.72-0.55c0.65-1.27,1.17-3.31-0.45-4.55
			c-0.17-0.13-0.51-0.31-0.66-0.14c-0.14,0.15-0.28,0.33-0.41,0.5l-4.63,6.05c-0.33,0.43-0.41,0.54,0.09,1.02
			c0.33,0.31,0.72,0.57,1.07,0.86l-0.48,0.63l-5.8-4.43l0.48-0.64c0.43,0.33,0.88,0.62,1.32,0.89c0.12,0.08,0.37,0.08,0.47-0.02
			c0.18-0.08,0.3-0.27,0.41-0.41l4.52-5.92c0.13-0.17,0.27-0.35,0.38-0.53c0.12-0.19-0.14-0.47-0.32-0.6
			c-1.61-1.23-3.51-0.14-4.51,0.78L77.74,334.94z"/>
		<path class="st0" d="M90.54,341.77c0.14-0.22,0.42-0.55,0.25-0.86c-0.15-0.27-0.69-0.56-0.96-0.74l-0.39-0.23l0.41-0.68l5,3.03
			l-1.01,7.1l5.72-4.24l4.99,3.02l-0.41,0.68l-0.48-0.29c-0.34-0.21-0.75-0.51-1.14-0.39c-0.3,0.24-0.46,0.58-0.64,0.89l-3.75,6.19
			c-0.02,0.1-0.08,0.17-0.09,0.26c-0.15,0.46,0.57,0.8,0.91,1.03l0.4,0.24l-0.41,0.68l-5.87-3.56l0.41-0.69l0.9,0.54
			c0.14,0.01,0.28,0.1,0.41,0.12c0.15,0.04,0.3,0,0.37-0.09c0.16-0.08,0.23-0.23,0.31-0.37l4.26-7.03l-0.02-0.01l-8.54,6.37
			l-0.77-0.47l1.51-10.47l-0.01-0.01l-3.51,5.79c-0.64,1.06-0.99,1.99,0.59,2.9l-0.42,0.68l-4.39-2.66l0.41-0.68
			c1.42,0.82,1.98,0.39,2.65-0.62L90.54,341.77z"/>
		<path class="st0" d="M99.74,357.77l0.34-0.72c0.46,0.16,1.47,0.87,1.85,0.43c0.13-0.12,0.19-0.29,0.27-0.46l3.24-6.97
			c0.05-0.1,0.12-0.21,0.09-0.32c0-0.17-0.04-0.27-0.2-0.38c-0.41-0.29-0.89-0.5-1.35-0.71l0.34-0.72l11.02,5.13l-1.54,3.61
			l-0.82-0.38c0.22-2.32-0.2-3.55-2.82-4.77c-0.39-0.18-0.81-0.35-1.23-0.39c-0.15,0.02-0.3,0.04-0.39,0.15
			c-0.22,0.16-0.31,0.42-0.42,0.65l-1.2,2.58c1.57,0.87,2.72,0.45,3.49-0.73l0.84,0.39l-2.14,4.78l-0.88-0.41
			c0.54-1.34,0.02-2.58-1.64-3.3l-1.39,2.99c-0.28,0.6-0.45,0.87,0.32,1.31c0.28,0.17,0.56,0.33,0.86,0.47
			c2.59,1.21,3.96,0.67,5.57-1l0.79,0.43l-1.86,3.54L99.74,357.77z"/>
		<path class="st0" d="M111.86,363.44l0.27-0.76c1.6,0.5,1.97,0.23,2.45-0.98l2.23-6.32c-0.25-0.66-0.81-1.16-1.55-1.42l0.26-0.75
			l4.31,1.52l4.33,8.87l1.45-4.12c0.41-1.16,0.14-1.8-1.3-2.33l0.27-0.75l4.82,1.7l-0.26,0.75c-0.89-0.2-1.59-0.32-2.08,0.4
			c-0.25,0.36-0.39,0.77-0.54,1.18l-2.6,7.38l-1.05-0.37l-5.25-10.8l-1.86,5.28c-0.42,1.19-0.27,1.91,1.28,2.5l-0.27,0.75
			L111.86,363.44z"/>
		<path class="st0" d="M128.32,361.96l1.24-3.9l11.6,2.81l-0.7,4.03l-0.88-0.21c0.08-1.42-0.27-3.5-2.25-3.98
			c-0.21-0.05-0.6-0.08-0.67,0.14c-0.07,0.2-0.12,0.42-0.17,0.62l-1.79,7.4c-0.13,0.53-0.16,0.66,0.49,0.89
			c0.43,0.15,0.89,0.23,1.33,0.35l-0.19,0.78l-7.09-1.72l0.19-0.77c0.52,0.13,1.05,0.21,1.56,0.29c0.15,0.02,0.37-0.08,0.43-0.21
			c0.13-0.15,0.16-0.36,0.2-0.54l1.75-7.24c0.05-0.21,0.1-0.42,0.14-0.63c0.04-0.23-0.32-0.37-0.53-0.42
			c-1.97-0.48-3.27,1.28-3.81,2.53L128.32,361.96z"/>
		<path class="st0" d="M150.93,367.89c-0.09,1,0,2.36,0.39,3.33c0.43,1.07,1.35,1.65,2.67,1.77c2.16,0.2,2.7-1.57,3.12-2.93
			c0.16-0.53,0.25-1.13,0.3-1.68c0.16-1.75,0.12-4.9-2.74-5.16C151.61,362.94,151.1,366.03,150.93,367.89z M148.91,371.59
			c-1.06-1.14-1.66-2.69-1.53-4.1c0.14-1.54,0.94-2.95,2.39-3.92c1.29-0.88,3.16-1.3,4.86-1.14c1.92,0.18,3.5,0.8,4.76,2.08
			c1.14,1.19,1.72,2.68,1.57,4.18c-0.13,1.45-1.09,3.03-2.48,3.91c-1.51,0.98-3.09,1.26-5,1.08
			C151.69,373.52,150.03,372.8,148.91,371.59z"/>
		<path class="st0" d="M160.96,374.09l0-0.79h1.08c0.18,0,0.34,0,0.52-0.06c0.05-0.03,0.12-0.06,0.16-0.1
			c0.04-0.05,0.06-0.11,0.09-0.15c0.06-0.23,0.06-0.46,0.06-0.69v-7.45c0-0.27,0-0.63-0.38-0.72c-0.32-0.11-0.7-0.08-1.05-0.1h-0.47
			v-0.8l11.92,0l0.12,3.96h-0.9c-0.62-2.02-1.66-3.15-4.3-3.15c-0.5,0-1.08-0.05-1.52,0.21c-0.25,0.18-0.22,0.51-0.22,0.75v3.1
			c1.93,0.06,2.47-0.62,2.85-2.09h0.92v5.2h-0.92c-0.04-0.36-0.11-0.75-0.31-1.09c-0.53-0.94-1.16-1.22-2.37-1.22h-0.18v3.34
			c0,0.8,0,0.98,1.03,1.01l1.14,0.05v0.79L160.96,374.09z"/>
		<path class="st0" d="M181.52,366.71l-0.31-4.08l11.81-1.74l0.86,4l-0.89,0.13c-0.45-1.35-1.56-3.14-3.58-2.85
			c-0.21,0.03-0.58,0.15-0.57,0.37c0.01,0.21,0.05,0.43,0.07,0.64l1.11,7.54c0.08,0.54,0.1,0.67,0.79,0.64
			c0.45-0.02,0.91-0.12,1.36-0.17l0.12,0.79l-7.22,1.06l-0.12-0.79c0.54-0.08,1.05-0.2,1.56-0.32c0.14-0.04,0.32-0.22,0.31-0.35
			c0.06-0.19,0.02-0.4-0.01-0.57l-1.08-7.38c-0.03-0.21-0.07-0.43-0.12-0.64c-0.05-0.22-0.43-0.23-0.65-0.19
			c-2,0.3-2.55,2.42-2.58,3.77L181.52,366.71z"/>
		<path class="st0" d="M193.75,360.83l6.72-1.73l0.2,0.77c-0.27,0.07-1.33,0.29-1.61,0.57c-0.1,0.26-0.03,0.53,0.04,0.79l0.77,2.97
			l4.69-1.21l-0.74-2.88c-0.05-0.19-0.08-0.39-0.16-0.55c-0.05-0.08-0.08-0.18-0.19-0.23c-0.32-0.15-1.39,0.17-1.67,0.25l-0.2-0.78
			l6.65-1.71l0.2,0.77l-1.33,0.39c-0.49,0.23-0.26,0.73-0.18,1.06l1.73,6.72c0.07,0.27,0.16,0.56,0.25,0.84
			c0.07,0.2,0.21,0.25,0.46,0.25c0.48-0.08,0.95-0.15,1.42-0.29l0.2,0.77l-6.69,1.72l-0.2-0.77c0.17-0.05,0.97-0.28,1.29-0.41
			c0.56-0.21,0.26-0.89,0.17-1.24l-0.77-2.97l-4.69,1.21l0.83,3.24c0.1,0.38,0.22,0.85,0.77,0.75c0.28-0.06,1.06-0.23,1.27-0.28
			l0.2,0.77l-6.72,1.73l-0.2-0.77l1.16-0.3c0.24-0.06,0.54-0.2,0.5-0.46c-0.05-0.27-0.08-0.51-0.13-0.77l-1.81-7.03
			c-0.07-0.29-0.12-0.73-0.58-0.72c-0.48,0.02-0.97,0.2-1.45,0.3L193.75,360.83z"/>
		<path class="st0" d="M212.53,367.07l-0.28-0.75c0.44-0.21,1.64-0.44,1.6-1.02c0.01-0.18-0.07-0.34-0.14-0.51l-2.71-7.2
			c-0.04-0.1-0.07-0.23-0.17-0.29c-0.12-0.12-0.21-0.16-0.41-0.12c-0.49,0.09-0.98,0.28-1.45,0.46l-0.28-0.75l11.38-4.28l1.49,3.61
			l-0.85,0.32c-1.5-1.78-2.67-2.34-5.38-1.32c-0.41,0.15-0.82,0.33-1.14,0.61c-0.09,0.12-0.18,0.25-0.16,0.39
			c-0.03,0.27,0.08,0.52,0.17,0.75l1,2.66c1.72-0.52,2.22-1.63,1.92-3l0.86-0.33l1.92,4.88l-0.91,0.35
			c-0.57-1.33-1.83-1.82-3.5-1.14l1.16,3.09c0.23,0.61,0.31,0.93,1.17,0.68c0.31-0.09,0.63-0.17,0.93-0.29
			c2.67-1.01,3.24-2.36,3.18-4.67l0.87-0.26l1.22,3.8L212.53,367.07z"/>
		<path class="st0" d="M232.81,358.6l-0.38-0.7l1-0.54c0.7-0.46,0.46-0.74,0.19-1.26l-3.45-6.45c-0.08-0.15-0.16-0.3-0.27-0.42
			c-0.16-0.12-0.21-0.23-0.46-0.16c-0.31,0.06-0.6,0.25-0.89,0.39l-0.49,0.27l-0.38-0.7l6.2-3.31l0.38,0.71l-0.51,0.27
			c-0.34,0.18-0.8,0.36-0.93,0.72c-0.04,0.11,0,0.23,0.01,0.32c0.02,0.16,0.12,0.31,0.2,0.46l3.55,6.64
			c0.11,0.21,0.27,0.52,0.63,0.45c0.09-0.02,0.17-0.07,0.25-0.1c0.26-0.09,0.52-0.25,0.78-0.37l0.39-0.21l0.37,0.7L232.81,358.6z"/>
		<path class="st0" d="M240.63,354.52l-0.43-0.67c1.37-0.96,1.38-1.42,0.71-2.55l-3.65-5.61c-0.67-0.21-1.42-0.06-2.07,0.36
			l-0.44-0.67l3.83-2.49l9.66,1.97l-2.38-3.66c-0.67-1.03-1.34-1.21-2.64-0.39l-0.43-0.67l4.28-2.79l0.44,0.67
			c-0.7,0.58-1.22,1.07-0.94,1.89c0.14,0.42,0.37,0.78,0.61,1.15l4.27,6.56l-0.94,0.61l-11.76-2.42l3.05,4.69
			c0.69,1.06,1.35,1.39,2.76,0.5l0.44,0.67L240.63,354.52z"/>
		<path class="st0" d="M249.7,340.42l-2.33-3.36l9.29-7.5l2.77,3.01l-0.7,0.57c-1.08-0.93-2.94-1.92-4.53-0.64
			c-0.17,0.13-0.43,0.42-0.3,0.61c0.12,0.18,0.26,0.35,0.39,0.52l4.78,5.93c0.34,0.42,0.43,0.53,1.01,0.15
			c0.38-0.24,0.72-0.57,1.08-0.84l0.51,0.62l-5.68,4.58l-0.5-0.62c0.42-0.34,0.8-0.7,1.18-1.07c0.1-0.1,0.16-0.34,0.09-0.46
			c-0.05-0.2-0.19-0.35-0.31-0.49l-4.68-5.8c-0.13-0.16-0.27-0.34-0.42-0.49c-0.16-0.16-0.49,0.02-0.66,0.16
			c-1.58,1.27-0.97,3.38-0.31,4.56L249.7,340.42z"/>
		<path class="st0" d="M264.25,337.38l-0.56-0.57c0.32-0.37,1.34-1.07,1.06-1.58c-0.06-0.17-0.2-0.28-0.33-0.42l-5.36-5.52
			c-0.07-0.08-0.15-0.18-0.27-0.2c-0.16-0.06-0.26-0.06-0.43,0.06c-0.41,0.27-0.78,0.65-1.14,1l-0.56-0.57l8.72-8.47l2.82,2.72
			l-0.65,0.63c-2.09-1.04-3.39-1.07-5.46,0.94c-0.31,0.3-0.62,0.63-0.8,1.01c-0.04,0.14-0.07,0.3,0,0.42
			c0.07,0.26,0.27,0.44,0.46,0.63l1.98,2.04c1.37-1.16,1.39-2.38,0.56-3.52l0.67-0.64l3.7,3.71l-0.7,0.68
			c-1.05-0.99-2.4-0.94-3.66,0.35l2.3,2.36c0.46,0.48,0.66,0.73,1.35,0.16c0.25-0.2,0.51-0.41,0.74-0.63
			c2.05-1.99,2.03-3.46,1.05-5.55l0.69-0.59l2.63,3L264.25,337.38z"/>
		<path class="st0" d="M272.69,320.14c0.33-0.36,0.61-0.74,0.92-1.12c1.11-1.38,1.4-2.46,0.16-3.52c-1.11-0.94-2.03-0.54-3.09,0.71
			c-0.28,0.33-0.6,0.68-0.78,1.08c-0.1,0.36,0.19,0.63,0.42,0.83L272.69,320.14z M270.31,315.46l0.9-1.01
			c0.7-0.8,1.39-1.47,2.38-1.87c0.85-0.32,1.82-0.18,2.43,0.34c1.42,1.21,0.72,3.15-0.45,4.71l0.03,0.02
			c1.16-0.95,2.26-1.15,3.47-0.6l0.91,0.4c0.31,0.14,0.63,0.3,0.98,0.36c0.07,0.01,0.15,0.01,0.24-0.01
			c0.82-0.5-0.03-1.38-0.36-1.73l0.59-0.69c0.23,0.2,0.45,0.41,0.6,0.66c0.8,1.06,0.34,2.37-0.61,3.49c-0.51,0.6-1.13,1-1.85,1.13
			c-0.66,0.1-1.18-0.17-1.66-0.51l-0.73-0.53c-1.03-0.73-1.78-1.25-2.96,0c-0.18,0.2-0.36,0.4-0.54,0.61l-0.37,0.44l2.64,2.24
			c0.13,0.11,0.26,0.23,0.4,0.32c0.29,0.12,0.43,0.1,0.68-0.18c0.23-0.21,0.43-0.46,0.64-0.69l0.3-0.34l0.61,0.52l-4.6,5.41
			l-0.6-0.51c0.21-0.25,0.43-0.51,0.63-0.77c0.55-0.67,0.35-0.83-0.09-1.26l-5.31-4.52c-0.2-0.16-0.73-0.72-1.01-0.67
			c-0.39,0.07-0.63,0.46-0.91,0.77l-0.37,0.44l-0.61-0.52L270.31,315.46z"/>
		<path class="st0" d="M283.28,316.74l-0.64-0.47l0.67-0.92c0.43-0.72,0.09-0.87-0.38-1.22l-5.91-4.3c-0.14-0.1-0.27-0.2-0.43-0.26
			c-0.2-0.03-0.28-0.12-0.48,0.05c-0.25,0.2-0.43,0.49-0.63,0.74l-0.33,0.46l-0.65-0.47l4.13-5.68l0.65,0.47l-0.34,0.47
			c-0.22,0.31-0.56,0.66-0.53,1.05c0.01,0.12,0.1,0.2,0.15,0.28c0.09,0.13,0.25,0.23,0.38,0.32l6.08,4.43
			c0.19,0.14,0.48,0.35,0.76,0.13c0.08-0.05,0.12-0.14,0.18-0.2c0.2-0.19,0.36-0.45,0.54-0.67l0.26-0.35l0.65,0.47L283.28,316.74z"
			/>
		<path class="st0" d="M285.15,304.91c0.86,0.53,2.11,1.05,3.15,1.15c1.14,0.09,2.08-0.47,2.78-1.6c1.14-1.84-0.19-3.11-1.23-4.1
			c-0.4-0.38-0.89-0.73-1.36-1.02c-1.5-0.93-4.33-2.3-5.85,0.14C281.02,302.09,283.56,303.92,285.15,304.91z M287.55,308.37
			c-1.49,0.43-3.15,0.28-4.35-0.47c-1.32-0.82-2.22-2.16-2.44-3.89c-0.21-1.55,0.26-3.41,1.15-4.86c1.02-1.64,2.29-2.77,4-3.32
			c1.58-0.49,3.17-0.33,4.44,0.46c1.24,0.77,2.22,2.33,2.39,3.97c0.2,1.78-0.26,3.33-1.27,4.95
			C290.52,306.75,289.13,307.91,287.55,308.37z"/>
		<path class="st0" d="M292.09,291.45c0.23-0.43,0.41-0.87,0.61-1.31c0.74-1.61,0.76-2.73-0.7-3.45c-1.31-0.64-2.1-0.03-2.83,1.45
			c-0.19,0.39-0.41,0.8-0.49,1.23c0,0.38,0.34,0.57,0.61,0.7L292.09,291.45z M288.63,287.5l0.62-1.2c0.48-0.95,0.99-1.77,1.85-2.4
			c0.74-0.52,1.73-0.62,2.45-0.27c1.67,0.82,1.47,2.88,0.72,4.68l0.03,0.01c0.9-1.21,1.91-1.67,3.22-1.43l0.98,0.16
			c0.34,0.06,0.69,0.14,1.04,0.11c0.07-0.01,0.15-0.03,0.23-0.07c0.68-0.69-0.37-1.33-0.78-1.59l0.4-0.81
			c0.27,0.14,0.53,0.28,0.75,0.49c1.04,0.83,0.91,2.21,0.26,3.53c-0.35,0.71-0.85,1.25-1.52,1.55c-0.62,0.26-1.19,0.12-1.74-0.09
			l-0.84-0.33c-1.18-0.46-2.03-0.78-2.87,0.72c-0.13,0.23-0.25,0.48-0.37,0.72l-0.25,0.52l3.11,1.53c0.15,0.07,0.31,0.15,0.47,0.21
			c0.31,0.05,0.43-0.01,0.62-0.34c0.17-0.25,0.3-0.55,0.45-0.82l0.2-0.4l0.71,0.35l-3.13,6.37l-0.72-0.35
			c0.14-0.29,0.29-0.6,0.43-0.9c0.37-0.79,0.14-0.9-0.4-1.2l-6.25-3.08c-0.23-0.12-0.89-0.52-1.14-0.4c-0.36,0.16-0.5,0.6-0.69,0.97
			l-0.26,0.52l-0.72-0.35L288.63,287.5z"/>
		<path class="st5" d="M153.69,105.41c-0.68,3.52-1.03,7.15-1.03,10.87c0,31.68,25.69,57.37,57.37,57.37s57.37-25.69,57.37-57.37
			c0-3.96-0.4-7.83-1.16-11.56L153.69,105.41z"/>
		<polygon class="st4" points="91.64,184.1 92.65,186.21 100.97,186.27 104.98,184.55 103.97,182.44 98.59,181.25 		"/>
		<path class="st6" d="M104.98,184.55c-3.15-0.3-11.28,0.9-12.33,1.66c-0.94,8.05-0.94,18.13,7.49,25.74
			c8.43,7.6,15.21,12.12,18.37,14.98c3.16,2.86,10.39,9.34,14.6,11.14c-0.3,3.16,0.98,11.89,3.84,14.07
			c-0.15,0.53,0.07,1.81,0.07,1.81s0.98,0.98,1.51,1.13c0.53,0.15,1.2-0.3,1.2-1.66c0-1.35-0.3-0.23-0.37-1.13
			c-0.08-0.91,0.3-1.21,0.3-2.11c0-0.9-0.23-2.03-0.23-2.03s-1.21-1.96-2.18-2.56c-0.07-1.13-0.53-3.99,0.07-5.27
			c0.6-1.28,1.13-2.11,2.26-2.11c1.13,0,1.06,0.98,1.06,1.73c0,0.76,0.07,3.32,0.07,3.32s2.18,2.48,2.86,2.41
			c0,1.13,1.58,3.76,3.69,3.84c1.28,0.75,3.77,0.9,4.67,0.37c1.2,0.45,4.29,1.21,6.1,0c0.9,0.38,7.22,1.96,11.06-0.07
			c2.33-0.6,2.86-2.03,2.86-2.94c0-0.9-0.68-1.35-1.28-1.96c0.3-1.05,0.6-1.95,0.53-3.09c-0.07-1.13-0.15-3.23-1.13-4.81
			c0.38-0.98,0.9-1.51,0.6-2.63c-0.3-1.13-0.98-1.43-1.88-2.34c0.45-0.9,0.15-1.88-0.75-2.48c-0.9-0.6-2.86-0.98-4.36-2.33
			c-1.51-1.36-3.46-3.46-4.21-5.05c-0.75-1.58-1.81-8.35-7.68-10.69v-1.43c2.86-1.88,4.52-2.26,10.69-0.3
			c0.98,0.52,2.78,1.05,3.16,0.15c0.38-0.9-0.07-1.73,0.53-2.41c0.6-0.68,2.26,0.3,2.79-0.52c0.53-0.83,0.51-3.4,0.6-4.89
			c0.3-4.97,22.43-24.54,23.79-36.12c0.68-0.68,2.41-1.43,2.41-2.26c0-0.83-0.23-2.63-0.23-2.63c3.61-1.96,5.12-5.27,4.97-6.32
			c1.05-0.53,3.84-3.31,2.63-5.5c1.51-1.05,5.72-5.57,4.66-8.2c1.88-2.18,4.44-4.36,3.77-6.7c2.26-1.96,3.38-4.89,3.31-7.83
			c1.21-1.58,3.16-4.59,2.03-5.12l-4.22,4.22c2.49-3.16,4.52-6.02,3.09-7.37c0,0-5.72,7.15-7.38,9.18
			c-1.65,2.03-23.5,24.24-36.8,29.73c-6.93,2.86-11.71,13.77-13.77,14.98c-0.9,0.53-1.35-0.6-1.06-2.1c0,0-1.73,0.68-1.13-0.98
			c0.6-1.66,1.58-4.74-0.6-4.14c-1.58-1.43,2.33-3.76,0.75-4.97c-1.2-0.91-1.35-0.53-1.35-0.53s2.64-5.19,0.45-5.42
			c-2.18-0.23-2.56,0.45-2.56,0.45s2.79-3.77,1.13-4.75c-1.66-0.98-2.41,0.68-3.01,0.15c-0.6-0.53,2.63-5.11,0.6-6.1
			c-2.03-0.98-3.16,2.41-4.37,1.35c-1.2-1.06,2.86-4.52,1.51-5.94c-1.36-1.43-5.58,3.23-6.4,4.66c-0.3,0.53-0.83,0.75-1.21-0.23
			c-0.37-0.98,3.47-6.26,0.68-6.47c-1.96-0.15-15.7,15.21-20.55,25.97c-3.08,6.85-3.24,10.91-1.65,13.77
			c1.19,2.15,2.03,7-1.28,10.16c-1.58,1.5-6.14,1.02-7.64,0.11C108.61,186.24,106.39,184.89,104.98,184.55z"/>
		<path class="st6" d="M57.47,173.56c0,0,8.65-1.73,9.41-1.96c0.38-0.11,2.03-1.21,2.63-2.11l2.15-3.26
			c2.03-3.77,6.59-5.67,11.48-5.67c8.66,0,14.3,7.73,20.83,21.88c-3.15-0.3-11.27,0.9-12.33,1.66c-0.83-2.26-3.76-4.09-6.02-4.06
			c-2.86,0.04-4.98-0.59-6.4-1.32c-1.47-0.75-4.03-1.5-6.02-1.39c-3.54,0.2-6.77,0.53-8.73,0.53
			C62.51,177.85,59.28,177.17,57.47,173.56z"/>
		<g>
			<path class="st4" d="M76.02,168.53c0.69,0,1.26-0.56,1.26-1.26c0-0.69-0.57-1.25-1.26-1.25c-0.69,0-1.25,0.56-1.25,1.25
				C74.76,167.97,75.33,168.53,76.02,168.53z"/>
			<path class="st4" d="M76.02,167.27"/>
		</g>
		<path class="st6" d="M223.31,316.94c0-0.65,0.52-1.17,1.17-1.17c0.64,0,1.17,0.52,1.17,1.17c0,0.65-0.52,1.17-1.17,1.17
			C223.83,318.11,223.31,317.58,223.31,316.94z M224.48,316.94 M249.19,298.86c-0.06,2.69-4.4,3.15-6.49,1.21
			c-1.36,1.54-2.4,3.2-3.77,4.67c-2.54,2.74-5.23,5.3-8.62,6.96c-3.22,1.58-6.54,2.82-9.74,4.34c-2.43,1.16-2.62,4.62-4.43,6.85
			c-1.28,1.58-2.47,3.27-4.22,4.11c-2.71,1.31-3.51-2.03-4-4.33c-0.18-0.89-1.54-1.3-2.18-1.05c-2.45,0.97-4.87,2.36-6.01,4.96
			c-0.77,1.76-0.69,3.49-0.26,5.36c0.14,0.62,1.82,1.31,1.72,0.67c-0.27-1.65-0.32-3.06,0.93-4.19c0.85-0.75,2.03-0.5,2.88,0.03
			c1.14,0.72-0.29,1.88-0.84,2.61c0.21,0.14,0.38,0.31,0.3,0.6c0.6,0,1.27,0.15,1.77-0.07c1.96-0.87,3.38-2.66,5.75-2.01
			c0.46,0.12,0.38,0.59,0.26,0.86c-0.34,0.83-1.77,0.89-1.03,1.3c2.68,1.45,3.58-1.9,5.14-3.55c0.6-0.63,1.59,0.78,2.56,0.43
			c0.24-0.09,0.5-0.33,0.57-0.57c0.23-0.86-0.39-1.43-0.78-2.14c-0.55-1,0.31-2.08,0.72-2.87c0.49-0.95,1.85-2.2,3.02-1.46
			c0.64,0.4,2.06,0.95,1.45,1.85c-0.5,0.73-1.44,1.27-0.98,2.17c0.64,1.24,1.91,2.12,3.17,1.42c1.67-0.94,3.84-2.75,2.12-5.16
			c-0.81-1.15-0.43-2.96,0.67-4.33c1.18-1.47,3.08-2.49,4.72-1.38c0.52,0.35,1.33,0.91,1.19,1.66c-0.23,1.26-2.49,0.85-1.94,2.1
			c1.12,2.58,3.77,0.96,4.66-0.92c0.52-1.11-0.42-2.28-0.96-3.34c-1.04-2.05,0.62-4.37,2.85-4.28c0.14,0,0.91-0.02,0.85,0.43
			c-0.12,0.96-0.28,1.87,0.69,2.36c0.32,0.16,0.83,0.17,1.15,0c1.81-0.97,2.59-2.74,3.29-4.67c0.38-1.05,1.63-2.01,2.81-2.73
			c0.51-0.32,1.68,0.12,1.33,0.76c-0.45,0.84-1.02,1.94-0.14,2.41c0.9,0.48,1.69-0.23,1.87-0.89c0.34-1.21,0.36-2.5,1.73-2.9
			L249.19,298.86z"/>
		<path class="st6" d="M247.68,261.23c-0.04-0.5,0.58-1.13,1.24-1.62c0.38-0.28-0.06-0.91-0.45-1.43c-0.34-0.45,1.05-3.66,0.43-4.7
			c-0.73-1.22-0.58-2.52,0.44-3.35c0.23-0.18,1.18,1.1,1.18,1.1s-0.52,0.38-0.6,0.6c-0.07,0.23,0,0.98,0,1.28
			c0,0.3,0.75,0.53,0.98,0.6c0.23,0.08,0.07,0.6,0.07,0.83c0,0.23-0.68,0-0.9,0.07c-0.22,0.08,1.13,2.19,1.28,2.78
			c0.15,0.6-0.07,1.21-0.3,1.51c-0.23,0.3,0.23,1.05,0.6,1.21c0.37,0.15,0.45,0.45,0.15,1.2c-0.3,0.76-0.23,1.28-0.23,2.79
			c0.75,0.08,3.08,0,3.99-0.6c0.9-0.6,1.39-2.63,0.82-4.82c-0.9-3.53-3.23-8.13-4.14-12.57c-0.94-4.64-1.65-10.61-2.26-16.18
			c-0.6-5.57-3.24-12.57-6.66-19.42c-0.18-0.35-1.02-1.67-2.03-1.96c-0.68-0.19-1.77,1.02-1.88,2.37c-0.11,1.35-0.83,5.08-1.92,7.3
			l-7.24,35.26c0.41,0.5-0.54,1.41,0.13,1.98c0.18,0.15,0.61-0.05,0.83,0.1c0.77,0.51,0.01,1.45,0.42,2.01
			c0.11,0.15,0.63,0.18,0.82-0.25c0.74,0.5,0,1,0,1.51c0.29-0.08,0.46,0.09,0.6,0.3c-0.42,0.19-0.39,0.69-0.24,0.84
			c0.24,0.24,0.87-0.16,1.13,0.37c0.13,0.27-0.07,0.45-0.29,0.6L247.68,261.23z"/>
		<path class="st6" d="M213.89,266.8l-167.95,0.01c2.58,8.05,5.94,15.76,9.98,23.03v0h97.21c4.37,0,6.48-0.75,6.48-2.11
			c0-1.36-1.43-2.03-2.56-2.41c-1.36-0.45-25.29-7.53-27.25-8.13c-1.95-0.6-4.82-1.66-4.82-3.31c0-1.66,4.82-2.41,6.77-2.41
			c0.98,0,41.12,0,79.69,0c0.43-0.25,0.8-1.23,1.45-1.21c-0.1-0.62,0.02-1.18,0.61-1.48c0.27-0.14,0.52,0.05,0.56,0.29L213.89,266.8
			z"/>
		<path class="st6" d="M163.82,297.37c-7.53,0-103.37,0-103.37,0c14.13,21.73,34.68,38.91,58.96,48.82
			c2.93-0.12,12.74-0.14,15.46-1.65c1.52-0.85,2.18-3.08,1.05-4.21c-0.52-0.52-1.19,1.01-1.9,1.6c-1.66-2.04-0.88-5.72,1.54-6.06
			c2.38-0.34,4.83,2.04,4.17,4.85c0.4,0,0.89,0.14,1.16-0.07c1.04-0.78,0.6-2.47,1.63-3.13c1.07-0.68,1.93,0.83,2.51,1.89
			c0.27,0.5,1.32-0.16,1.52-0.83c0.2-0.65-0.92-1.3-0.43-2.03c0.44-0.64,1.37-0.89,1.97-0.54c1.03,0.59,1.54,2.09,2.67,1.25
			c0.61-0.46,1.19-1.6,0.33-2.15c-0.51-0.32-1.41,0-1.69-0.74c-0.24-0.66,0.04-1.45,0.6-1.7c2.55-1.16,4.02,1.68,5.5,3.41
			c0.82,0.96,2.2,0.9,3.49,0.41c-2.34-4.16-6.69-7.46-6.69-12.34c0-1.75,2.1-2.54,3.62-2.73c4.42-0.54,7.84-0.49,11.75,0.27
			L163.82,297.37z M129.56,333.19c0-0.88,0.71-1.6,1.6-1.6c0.88,0,1.6,0.71,1.6,1.6c0,0.88-0.71,1.6-1.6,1.6
			C130.27,334.79,129.56,334.08,129.56,333.19z M131.15,333.19 M130.14,324.16c0-1.06,0.86-1.91,1.92-1.91
			c1.06,0,1.91,0.85,1.91,1.91c0,1.06-0.86,1.92-1.91,1.92C131,326.08,130.14,325.22,130.14,324.16z M132.06,324.16 M139.22,314.68
			c0-1.53,1.24-2.76,2.77-2.76c1.53,0,2.77,1.24,2.77,2.76c0,1.53-1.24,2.77-2.77,2.77C140.46,317.45,139.22,316.21,139.22,314.68z
			 M141.99,314.68 M149.8,317.69c0-1.18,0.95-2.13,2.13-2.13c1.17,0,2.13,0.95,2.13,2.13c0,1.17-0.96,2.13-2.13,2.13
			C150.75,319.82,149.8,318.87,149.8,317.69z M151.93,317.69 M158.17,310.32c0-1.3,1.05-2.34,2.34-2.34c1.3,0,2.34,1.05,2.34,2.34
			c0,1.29-1.05,2.34-2.34,2.34C159.21,312.65,158.17,311.61,158.17,310.32z M160.5,310.32"/>
		<path class="st6" d="M177.94,305.8c0-1.18,0.96-2.13,2.13-2.13c1.18,0,2.13,0.95,2.13,2.13c0,1.17-0.95,2.13-2.13,2.13
			C178.9,307.93,177.94,306.97,177.94,305.8z M180.07,305.8 M167.68,321.7c3.25,0.63,6.21,1.28,9.37,0.85
			c3.03-0.41,8.27-2.92,7.67-3.43c-1.18-1-1-2.84,0.22-3.22c7.29-2.21,11.92-7.98,16.54-13.63c0.44-0.54,4.77-5.27,3.92-8.43
			c-1.27-4.69-3.01-9.38-2.26-14.21c0.38-2.47,4.02-4.72,5.09-5.74H145.6c-1.36,0-4.22,0.3-4.22,1.35c0,1.43,2.26,2.26,4.22,2.86
			c1.96,0.6,22.43,5.57,26.19,6.47c3.76,0.9,8.81,3.31,8.81,6.4c0,3.61-7.6,6.39-16.78,6.39L167.68,321.7z"/>
		<path class="st6" d="M250.7,271.48c0.21-1.54,0.42-3.3,0.54-4.68h37.8c-0.5,1.57-1.04,3.13-1.6,4.68
			C287.43,271.48,271.64,271.48,250.7,271.48z"/>
		<path class="st6" d="M237.5,218.23c-0.75-0.71-3.09-2.79-3.42-4.63c-0.34-1.84-0.52-3.23-1.24-4.78c-0.71-1.54-3.3-2.42-4.7-0.11
			c-7.72,12.72-10.04,20.8-11.85,27.92c-2.11,8.28-2.54,21.81-2.39,30.17l0.17,2.28l5.25,0.6c0.02-0.37,0.53-0.75,1.1-0.61
			c0.02-0.76-0.39-1.31-0.9-1.81c0.96-0.48,0.75-2.2,2.1-1.81c-0.07-0.61,0.2-1.12,0.63-1.47c0.22-0.18,0.43,0.06,0.57,0.27
			c0.36-0.36,0.43-1.13,0.9-1.11c0.89,0.05,1.85-0.25,2.72,0.21c0.21-2.15-1.38-3.37-2.71-4.82c-0.08,0.29,0.18,0.42,0.26,0.62
			c0.29,0.7-0.71,0.43-0.86,0.88c1.23-0.3,1.83,0.95,2.34,1.84c0.06,0.1-0.26,0.41-0.52,0.24c-0.21-0.14-0.39-0.43-0.58-0.24
			c-0.69,0.72-1.48,0.3-2.18,0.07c-0.3-0.1-0.55,0.53-0.9,0.75c-0.5,0.31-0.85-0.19-1.17-0.55c1.05-0.34,0.67-1.39,1.21-2.1
			c0.3,0.43,0.85,0.4,0.78,0.03c-0.24-1.25,0.89-0.98,0.63-2.11c-0.02-0.1-0.8,0.05-0.7-0.3c0.18-0.67,1.37-0.1,1.71-0.93
			c0.2,0.2,0.44,0.56,0.58,0.52c0.43-0.12,0.45-1.07,0.91-1.01c1.23,0.16,0.32,1.88,0.98,2.14c0.41,0.16,0.11-1.36,0.81-1.21
			c0.86,0.17,1.19,1.12,0.63,1.98c0.2,0,0.4,0,0.6,0c-0.08-0.29,0.07-0.5,0.31-0.58c0.18-0.06,0.45,0.05,0.56-0.06
			c0.1-0.1,0.07-0.37,0.02-0.56c-0.14-0.45-0.66-0.18-0.83-0.36c-0.94-0.97-0.35-2.27,0.55-2.96c-0.36-0.36-0.42-0.94-0.9-1.2
			c0.52-0.9,1.79-0.57,2.32,0.07L237.5,218.23z M223.97,252.18c-0.33,0.62-0.95,1.06-1.74,0.9c-0.24-0.05-0.47-0.35-0.27-0.53
			c0.51-0.43,0.99-1.15,1.75-0.89C223.86,251.71,224.03,252.06,223.97,252.18z M227.37,251.89c-0.17-0.24,0.06-0.43,0.27-0.58
			c-0.03,0.34,1.12,0.42,0.27,0.85C227.79,252.22,227.49,252.06,227.37,251.89z M227.88,254.06c0.16,0.21,0.21,0.71-0.25,0.83
			c-1.33,0.36-2.88-0.32-3.97,0.21c-0.54,0.26-1.09-0.51-0.75-1.03c0.63-0.98,1.35-0.98,2.42-0.2
			C225.97,254.35,227.12,253.05,227.88,254.06z M226.42,256.39c-0.15,0.09-0.4,0.07-0.58,0.01c-0.23-0.08-0.42-0.3-0.3-0.57
			c0.11-0.23,0.32-0.46,0.57-0.28C226.4,255.75,227.21,255.9,226.42,256.39z"/>
		<path class="st6" d="M219.31,269.67c-0.08,1.5,0.14,3.06-0.25,4.47c-0.05,0.17-0.84,0.31-0.98,0.67
			c-0.25,0.69,0.07,1.45,0.52,2.08c-0.33,0.02-0.91-0.06-0.8,0.26c0.54,1.53-1,2.85-0.11,4.25c-0.2,0-0.41-0.05-0.59,0.02
			c-0.24,0.08-0.39,0.29-0.31,0.58c-0.46-0.08-0.56-0.92-1.2-0.59c-0.23,0.12-0.43,0.31-0.29,0.58c0.3,0.59,0.86,0.71,1.48,0.61
			c0,0.2,0,0.4,0,0.6c-0.61-0.07-1.12,0.19-1.47,0.63c-0.32,0.4,0.44,0.9,0.2,1.09c-1.35,1.04-1.1,2.85-2.12,3.92
			c-0.42,0.44-0.75,1.1-1.42,1.28c0.5,0.79,0.23,1.67-0.6,2.11c0-0.2,0-0.4,0-0.6c0.3,0.08,0.52-0.07,0.57-0.31
			c0.07-0.32,0.14-0.87-0.26-0.81c-2.36,0.32-0.69,3.92-1.6,5.59c-0.09,0.16-0.69-0.12-0.78,0.35c-0.18,0.87-0.14,1.55,0.57,2.1
			c-0.48,0.2-0.83-0.46-1.17-0.24c-0.98,0.64-1.07,2-0.64,2.95c-0.29,0.08-0.48-0.24-0.59-0.22c-0.97,0.17-2.14,0.83-1.82,2.03
			c-0.3,0-0.61-0.05-0.9,0.03c-0.24,0.06-0.45,0.3-0.28,0.55c0.14,0.21,0.39,0.34,0.25,0.62c-0.65,1.3-2.29,2.46-2.81,0.85
			c-0.12-0.34,1.22-0.51,1.22-1.14c-0.01-1.26,1.37-1.86,1.69-2.88c0.21-0.14,0.96-0.45,0.8-0.72c-0.14-0.24-0.47-0.38-0.53-0.62
			c-0.23-0.9,0.73-1.25,1.35-1.67c1.01-0.68,0.85-2.14,0.82-3.45c-0.01-0.3,0.5-0.58,0.8-0.9c1.13-1.23,1.1-2.85,2.02-4.27
			c0.84-1.3-1.21-2.69-0.35-3.72c0.31-0.38,1.42-0.17,1.89-0.78c0.34-0.45-0.14-0.89-0.55-1.13c-0.16-0.09-0.45,0.04-0.55-0.07
			c-0.1-0.1-0.05-0.5-0.02-0.5c1.83-0.28,1.52-2.83,0.81-3.93c-0.09-0.14-0.59,0.05-0.79-0.09c-0.2-0.16,0.03-0.46,0.27-0.52
			c0.28-0.08,0.67,0.07,0.86-0.08c0.81-0.64,0.73-1.54,1.85-1.75c-0.2-0.2-0.37-0.44-0.62-0.58c-0.26-0.15-0.4,0.12-0.61,0.25
			c-0.25,0.17-0.48-0.05-0.57-0.28c-0.06-0.18-0.02-0.39-0.02-0.6c0.35,0.3,0.93,0.7,1.09,0.51c0.92-1.08-0.3-2.1,1.26-3.01
			c0.13-0.08,0.19-0.66-0.25-0.8c-0.19-0.06-0.51,0.04-0.54-0.04c-0.41-0.85,0.41-0.63,0.75-1.24c0.31-0.55,0.18-1.34,0.07-2.04
			L219.31,269.67z M214.09,284.12c-0.23,0.63-0.8,1.16-0.83,1.81c-0.01,0.19,0.39,0.56,0.5,0.52c0.65-0.26,1.23-0.96,1.17-1.72
			C214.9,284.4,214.43,284.26,214.09,284.12z M216.5,280.84c0.29,0.01,0.53-0.1,0.56-0.33c0.07-0.47-0.23-1.01-0.59-1.11
			c-0.65-0.18-1.01,0.44-0.84,1.1C215.74,280.91,216.15,280.82,216.5,280.84z M212.61,287.49c-0.06,0.03-0.07,0.36,0,0.53
			c0.23,0.47,0.57,0.44,0.88,0.01C212.9,287.98,213.63,287.12,212.61,287.49z"/>
		<path class="st6" d="M247.68,261.23c0.28,3.77-1.04,7.44-0.17,11.15c-0.32,0.02-0.88-0.11-0.82,0.29
			c0.15,0.98-1.05,1.64,0.18,2.48c0.2,0.14-0.05,0.4-0.26,0.54c0.36,0.32,0.75,0.63,0.6,1.21c-0.29-0.08-0.67,0.14-0.54,0.29
			c0.61,0.79,0,3.45-0.12,3.5c-1.26,0.62-1.03,1.84-1.45,2.83c-0.36-0.36-0.4-0.96-0.91-1.19c-0.28-0.12-0.51,0.06-0.57,0.3
			c-0.12,0.42,0.59,0.85,0.22,1.12c-0.6,0.42-1.17-0.68-1.71-0.43c-0.85,0.39-0.03,1.16,0.31,1.3c0.67,0.28,1.55-0.13,2.36-0.18
			c-0.08,0.47,0.41,2.08,1.2,1.2c0.17,0.71-0.16,1.14-0.9,1.21c0-0.3,0.19-0.62,0.04-0.81c-1.26-1.56-3.68-0.57-4.55,0.81
			c-0.71-0.4,0.38-0.8,0-1.21c0.41-0.06,1.2,0.04,1.05-0.21c-0.57-0.96,0.74-2.64-0.75-2.63c-0.33,0-1.46,0.75-1.29,0.19
			c0.31-1.08,2.25-1.74,1.71-3c-0.28-0.65-0.77-1.07-1.41-1.42c-0.5-0.28-1.28-0.63-2.02-0.46c-0.36-1.69,2.48-2.25,2.1-3.52
			c-0.23-0.78-1.85-1.12-1.8-2.5c0.29,0.08,0.56-0.09,0.54-0.3c-0.03-0.44-0.69-0.2-0.76-0.34c-0.28-0.6,0.44-1.26-0.4-1.36
			c-0.5-0.05-0.6,0.89-1.19,1.09c0.04-0.96-0.86-1.41-1.09-2.14c-0.17-0.54,1.52,0.02,0.96-0.77c-0.79-1.11-2.87-0.72-2.27-2.51
			c0.02,0.33,0.43,1.22,0.86,0.87c0.85-0.69-0.4-1.33-0.57-2.07c-0.2-0.88,0.55-1.62,0.24-2.39c-0.18-0.43-0.35-0.96-0.84-1.23
			L247.68,261.23z M244.17,281.42c-0.06-0.24-0.3-0.44-0.56-0.28c-0.83,0.53,0.2,0.69,0.34,0.79
			C244.45,282.26,244.23,281.64,244.17,281.42z M246.28,278.71c-0.07-0.24-0.35-0.46-0.54-0.27c-0.63,0.65-1.05,2.08-0.02,2.24
			C245.98,280.72,246.36,279,246.28,278.71z M245.98,277.23c-0.23-0.18-0.54,0.07-0.52,0.27c0.03,0.23,0.36,0.56,0.53,0.53
			C246.55,277.94,246.27,277.45,245.98,277.23z M245.68,274.8c-0.04-0.12-0.19-0.28-0.27-0.27c-0.23,0.03-0.42,0.28-0.29,0.56
			c0.1,0.23,0.36,0.46,0.55,0.27C245.77,275.26,245.74,274.98,245.68,274.8z M241.49,277.5c-0.19-0.43-0.64-0.39-0.87-0.25
			c-0.58,0.36-0.58,1.19,0,1.33C241,278.67,240.82,277.62,241.49,277.5z M239.68,269.37c-0.68-0.41-0.56-1.1-0.64-1.81
			c-0.02-0.23-0.28-0.42-0.55-0.29c-0.81,0.4-0.65,1.27-0.08,1.85c0.39,0.4-0.72,0.08-0.49,0.52
			C238.38,270.53,239.14,269.56,239.68,269.37z M235.09,266.51l0.11,0.57c0,0,0.3,0.07,0.64,0.11c0.34,0.04,0.38,0.11,0.45-0.04
			c0.08-0.15,0.04-0.6-0.15-0.75c-0.19-0.15-0.76,0.08-0.76,0.08L235.09,266.51z"/>
		<g>
			<path class="st6" d="M246.61,292.85c-0.21,0.65,0.39,1.17,0.3,1.8c-0.3-0.08-0.53,0.08-0.56,0.3c-0.06,0.41-0.27,0.95,0.27,1.18
				c0.17,0.07,0.39,0.02,0.59,0.02c-0.2,0-0.45-0.07-0.57,0.03c-0.61,0.5-0.91,1.37-0.02,1.76c0.27,0.12,0.45-0.08,0.59-0.29
				c-0.18,0.39,0.52,0.52,0.28,0.89c-0.74,1.19-2.79,1.07-2.73,0.03C244.87,296.7,244.92,294.4,246.61,292.85z"/>
			<path class="st6" d="M236.68,274.75c-0.9-0.25-2.14-0.61-1.68-1.71c0.17-0.41,0.68,1.26,1.34,0.23c0.16-0.25-0.06-0.44-0.27-0.59
				c0.21-0.14,0.39-0.31,0.3-0.6c0.33,0.02,0.83-0.13,0.84,0.3c0.02,1.03-0.86,1.31,0.36,1.8
				C236.98,274.24,237.75,275.05,236.68,274.75z"/>
			<path class="st6" d="M225.2,271.13c-0.62,0.53-1.32-0.27-2.09-0.02c-0.15,0.05-0.42-0.4-0.25-0.46c0.73-0.24,1.59-0.21,2.36-0.02
				C225.26,270.65,225.3,271.05,225.2,271.13z"/>
			<path class="st6" d="M225.23,267.87c-0.14-0.21-0.31-0.38-0.6-0.3c0.39-0.75,1.24-0.96,1.81-1.51
				C226.5,266.98,225.26,267.02,225.23,267.87z"/>
			<path class="st6" d="M228.55,264.25c-0.1-0.1-0.27-0.21-0.26-0.3c0.03-0.23,0.29-0.43,0.55-0.28c0.24,0.14,0.57,0.4,0.54,0.57
				C229.29,264.68,228.84,263.71,228.55,264.25z"/>
			<path class="st6" d="M230.04,260.91c-0.32,0.06-0.7,0.15-0.9-0.27c0.4,0,0.8,0,1.21,0C230.25,260.74,230.17,260.89,230.04,260.91
				z"/>
			<path class="st6" d="M231.25,261.24c-0.08-0.29,0.09-0.45,0.3-0.6C231.64,260.93,231.47,261.1,231.25,261.24z"/>
			<path class="st6" d="M230.65,259.7c-0.09,0.01-0.27-0.17-0.26-0.26c0.03-0.23,0.34-0.46,0.53-0.27
				C231.11,259.36,230.87,259.67,230.65,259.7z"/>
			<path class="st6" d="M224.3,265.78c0.1,0.13,0.1,0.44,0,0.54c-0.1,0.11-0.38,0.08-0.56,0.02c-0.23-0.09-0.42-0.3-0.29-0.58
				C223.7,265.22,224.08,265.49,224.3,265.78z"/>
			<path class="st6" d="M222.22,267.53c-0.1,0-0.28-0.2-0.26-0.25c0.18-0.48,0.56-0.45,0.86-0.02
				C222.62,267.37,222.42,267.53,222.22,267.53z"/>
			<path class="st6" d="M221.62,269.07c0.09-0.29-0.13-0.41-0.27-0.62c-0.17-0.25,0.11-0.57,0.25-0.52
				C222.13,268.14,222.08,268.67,221.62,269.07z"/>
			<path class="st6" d="M221.94,271.17c0.04,0.13,0.25,0.21,0.25,0.31c0,0.1-0.17,0.2-0.27,0.3c-0.3-0.35-0.52-0.74-0.6-1.21
				c0.2,0,0.47-0.06,0.57,0.04C221.99,270.71,221.88,270.99,221.94,271.17z"/>
			<path class="st6" d="M233.96,287.6c0.9,0.02-0.39,0.84,0,1.34c-0.3,0-0.75,0.09-0.83-0.04
				C232.73,288.22,233.62,287.58,233.96,287.6z"/>
			<path class="st6" d="M234.27,284.75c0.18-0.06,0.4-0.02,0.6-0.02c-0.08,0.29,0.09,0.46,0.3,0.6c-0.41-0.07-0.98,0.23-1.16-0.32
				C233.98,284.95,234.15,284.79,234.27,284.75z"/>
			<path class="st6" d="M238.17,286.24c0.13,0.27-0.07,0.44-0.25,0.26c-0.1-0.1-0.03-0.37-0.03-0.57
				C237.98,286.03,238.1,286.12,238.17,286.24z"/>
			<path class="st6" d="M243.66,289.75c-0.75-0.54-1.32-1.39-0.9-2.29c0.5-1.03,1.87-1.03,1.83-0.04c-0.03,0.93-0.33-0.51-0.68-0.27
				c-1.1,0.77-0.41,1.71,0.59,2.08C244.27,289.55,243.82,289.87,243.66,289.75z"/>
			<path class="st6" d="M242.39,294.68c0.72,0.04,0.09,0.62,0.3,0.89c-0.33-0.02-0.71,0.13-0.9-0.3c-0.56,0.41-0.09,1.05-0.35,1.47
				c-0.05,0.09-0.41,0.1-0.52,0c-0.58-0.54,0.04-1.6-0.67-2.01c-0.1-0.05-0.34,0.24-0.26,0.54c-0.16-0.19-0.69,0.37-0.6-0.3
				c1.01,0.23,0.87-1,1.51-1.16C241.59,293.63,241.7,294.64,242.39,294.68z"/>
			<path class="st6" d="M239.33,296.79c0.07,0.25,0.12,0.48,0.36,0.56c0.18,0.07,0.5-0.03,0.54,0.05c0.78,1.67-0.34,4.15-2.03,4.01
				c-0.24-0.02,0.48-0.77,0.29-1.33c0.99-0.01,1.39-0.87,1.69-1.55c0.42-0.97-1.61-0.84-1.39-2.06
				C238.98,296.57,239.28,296.63,239.33,296.79z"/>
			<path class="st6" d="M238.17,295.54c-0.43,0.12-0.78-0.23-0.52-0.52c0.14-0.16,0.71-0.21,0.8,0.25
				C238.45,295.35,238.3,295.5,238.17,295.54z"/>
			<path class="st6" d="M237.24,297.23c-0.32,0.08-0.33-0.62-0.27-1.07C237.12,296.55,237.89,297.07,237.24,297.23z"/>
			<path class="st6" d="M237.89,298.87c-0.14-0.28,0.07-0.44,0.25-0.26c0.1,0.1,0.04,0.36,0.04,0.57
				C238.07,299.07,237.95,298.99,237.89,298.87z"/>
			<path class="st6" d="M237.24,301.25c-0.1,0.1-0.43,0.1-0.54,0c-0.1-0.1-0.1-0.43,0-0.53c0.1-0.1,0.44-0.1,0.54,0
				C237.34,300.82,237.34,301.14,237.24,301.25z"/>
			<path class="st6" d="M237.19,302.53c0.58,1.12-0.85,1.62-1.72,2.07c0.21,0.14,0.4,0.31,0.29,0.6c-0.32,0.85-1.61,0.3-1.66,0.92
				c-0.09,1.12-0.74,0.56-1.31,1.22c-0.1,0.12,0.01,0.39-0.05,0.57c-0.08,0.23-0.31,0.45-0.56,0.28c-0.21-0.14-0.33-0.36-0.62-0.27
				c-0.09-0.62,0.05-1.15,0.61-1.51c-0.37-0.23-0.72-0.78-0.9-0.77c-1.63,0.12-2.52-1.28-3.32-2.54c1.05-0.2,1.35-1.23,1.2-2.11
				c0.33,0.02,0.74-0.14,0.89,0.31c0.27,0.84-1.32,1.47-0.25,2.05c0.32,0.17,0.8-0.03,1.16,0.1c0.48,0.17,0.44,0.56,0.02,0.86
				c1.2,0.73,1.43,1.77,1.8,3.01c0.74-0.76,1.01-2.02,2.07-2.28c0.99-0.23,0.59-1.92,1.57-2.5
				C236.63,302.4,237.13,302.4,237.19,302.53z"/>
			<path class="st6" d="M233.02,304.52c-0.11,0.06-0.41-0.27-0.24-0.51c0.34-0.48,0.78-0.82,1.18-1.22
				C234.27,303.74,233.75,304.15,233.02,304.52z"/>
			<path class="st6" d="M231.85,302.77c-0.68,0.14-0.11-0.43-0.3-0.58c0.33,0.02,0.85-0.12,0.84,0.3
				C232.39,302.59,232.07,302.72,231.85,302.77z"/>
			<path class="st6" d="M225.82,306.05c-1.25,0.47-0.84-1.21-1.67-1.67c-0.52-0.3,0.26-1.35,0.84-1.83c0.36-0.3,0.74,0.37,0.74,0.54
				c0,1.03-0.78,1.59,0.36,2.47C226.13,305.59,225.97,305.99,225.82,306.05z"/>
			<path class="st6" d="M227.33,306.39c-0.28,0.14-0.44-0.07-0.26-0.25c0.1-0.1,0.37-0.03,0.57-0.03
				C227.54,306.2,227.45,306.32,227.33,306.39z"/>
			<path class="st6" d="M226.69,308.15c-0.44,0.36-0.6-0.15-0.52-0.53c0.05-0.24,0.37-0.47,0.52-0.27
				C226.84,307.54,226.84,308.02,226.69,308.15z"/>
			<path class="st6" d="M228.24,308.51c-0.04,0.6,0.99,0.84,0.55,1.47c-0.07,0.1-0.37-0.01-0.55,0.05
				c-0.23,0.09-0.26,0.35-0.37,0.55c-0.11,0.2-0.31,0.01-0.23-0.26c0.29,0.08,0.5-0.07,0.58-0.31c0.07-0.18,0.07-0.4,0-0.59
				c-0.08-0.23-0.29-0.39-0.58-0.31c0-0.2-0.07-0.47,0.03-0.57C227.78,308.44,228.04,308.51,228.24,308.51z"/>
			<path class="st6" d="M230.06,308.8c-0.13-0.27,0.06-0.49,0.3-0.57c0.18-0.07,0.49-0.08,0.54,0.01c0.26,0.43-0.38,0.55-0.55,0.87
				C230.25,309.01,230.12,308.93,230.06,308.8z"/>
			<path class="st6" d="M225.23,311.52c0.1-0.94,1.01-1.2,1.51-1.81C226.57,310.59,226.23,311.33,225.23,311.52z"/>
			<path class="st6" d="M223.21,310.28c-0.39-0.9,0.79-1.24,1.11-2.07c0.11-0.28-0.12-0.41-0.27-0.62
				c-0.17-0.25,0.07-0.43,0.27-0.58c0.19,0.43,0.75,0.2,0.81,0.34c0.34,0.77-0.91,0.82-1.07,1.48c-0.12,0.48,0.12,1.07-0.12,1.45
				C223.87,310.41,223.26,310.39,223.21,310.28z"/>
			<path class="st6" d="M222.22,311.22c-0.61-0.29-1.21-0.44-1.46,0.32c-0.15,0.46-0.05,0.99-0.05,1.49
				c-1.21-0.6-0.36-1.89-0.9-2.71c0.29,0.08,0.52-0.07,0.57-0.31c0.09-0.39-0.03-0.79,0.07-1.19c0.06-0.24,0.33-0.46,0.54-0.27
				C221.76,309.24,221.95,310.26,222.22,311.22z"/>
			<path class="st6" d="M222.79,312.14c0.1,0.15,0.09,0.49,0,0.52c-0.32,0.16-0.86,0.19-1.12-0.01c-0.15-0.12-0.15-0.66,0-0.77
				C221.97,311.67,222.53,311.74,222.79,312.14z"/>
			<path class="st6" d="M222.22,306.69c0.68-0.07,0.24,0.45,0.24,0.61c0,0.43-0.51,0.28-0.84,0.3c0-0.3-0.09-0.65,0.05-0.88
				C221.73,306.64,222.02,306.72,222.22,306.69z"/>
			<path class="st6" d="M226.73,296.11c-0.71,0.06-0.09-0.59-0.29-0.85c0.2,0,0.4,0,0.6,0
				C227.02,295.59,227.17,296.07,226.73,296.11z"/>
			<path class="st6" d="M228.84,296.46c-0.28,0.11-0.45-0.08-0.6-0.29c0.32-0.17,0.51-0.85,0.85-0.54
				C229.24,295.77,229.28,296.29,228.84,296.46z"/>
			<path class="st6" d="M230.72,296.43c-0.29-0.58,0.38-0.08,0.53-0.27C231.32,296.8,230.76,296.51,230.72,296.43z"/>
			<path class="st6" d="M231.86,288c-0.72,0-0.09-0.6-0.3-0.87c0.3,0.08,0.46-0.23,0.61-0.23c0.42-0.01,0.37,0.55,0.25,0.82
				C232.34,287.88,232.06,288,231.86,288z"/>
			<path class="st6" d="M229.75,288.34c0.11-0.51-0.91-0.16-0.53-0.53c0.21-0.2,0.86-0.2,1.07,0
				C230.59,288.11,230.01,288.2,229.75,288.34z"/>
			<path class="st6" d="M229.43,285.87c-0.45,0.12-0.82-0.27-1.19-0.54c0.51,0.05,1.1-0.43,1.45,0.04
				C229.76,285.45,229.58,285.84,229.43,285.87z"/>
			<path class="st6" d="M209.57,278.07c-0.67,0.17-0.11-0.41-0.3-0.57c0.2,0,0.47-0.07,0.57,0.03
				C210.03,277.73,209.81,278.01,209.57,278.07z"/>
			<path class="st6" d="M206.57,281.42c-0.2,0-0.47,0.06-0.57-0.04c-0.2-0.2,0-0.37,0.26-0.25
				C206.38,281.18,206.47,281.31,206.57,281.42z"/>
			<path class="st6" d="M206.83,285.32c-0.03,0.23-0.34,0.46-0.53,0.27c-0.19-0.19,0.04-0.49,0.27-0.52
				C206.66,285.05,206.84,285.23,206.83,285.32z"/>
			<path class="st6" d="M199.99,308.24c-0.21,0.34,0.15,1.08-0.35,1.08c-0.5,0-0.39-0.78-0.22-1.06c0.55-0.89,1.92-0.41,2.63-1.25
				c0,0.2,0.06,0.48-0.04,0.56c-0.53,0.39-1.69,0.27-1.47,1.25c0-0.2,0.07-0.46-0.03-0.57
				C200.41,308.14,200.05,308.14,199.99,308.24z"/>
			<path class="st6" d="M208.3,317.34c1.17,0.84,1.74,1.18,3.09,0.8c0,0.2,0.07,0.46-0.03,0.57c-0.96,0.95-2.25-0.58-3.28,0.34
				c0.25-0.84-0.61-1.02-1.21-0.9C207.22,317.59,207.77,316.97,208.3,317.34z"/>
			<path class="st6" d="M209.59,316.63c0.07,0.31-0.12,0.46-0.26,0.27c-0.15-0.21-0.14-0.71,0-0.79
				C209.84,315.81,209.53,316.39,209.59,316.63z"/>
			<path class="st6" d="M211.65,315.15c0.18,0.24-0.04,0.46-0.27,0.57c-0.28,0.13-0.48-0.06-0.58-0.3
				c-0.13-0.27,0.07-0.53,0.29-0.55C211.28,314.85,211.53,314.98,211.65,315.15z"/>
			<path class="st6" d="M205.9,319.71c0.1,0.1,0.15,0.39,0.36,0.54c-0.3,0-0.6,0-0.9,0C205.87,320.36,205.51,319.34,205.9,319.71z"
				/>
			<path class="st6" d="M205.06,319.05c-0.92-0.12-0.59,1.45-1.11,1.07c-0.48-0.35,0.35-1.05,0.57-1.65
				c0.02-0.06,0.41-0.09,0.5,0.02C205.13,318.58,205.06,318.84,205.06,319.05z"/>
			<path class="st6" d="M200.5,319.34c-0.13,0.75-1.39,0.79-1.16,1.82c-0.13-0.7,0.26-1.34,0.1-2.13c-0.08-0.39,0.52-0.35,0.79-0.23
				C200.39,318.86,200.53,319.16,200.5,319.34z"/>
			<path class="st6" d="M194.09,325.04c-0.2,0.93-1.63,0.41-1.97-0.27c0.63-0.25,1.11-1.23,1.74-0.8
				C194.05,324.1,194.15,324.77,194.09,325.04z"/>
			<path class="st6" d="M193.62,330.48c-0.44,0.69-1.2,0.81-1.84,1.14c-0.24,0.13-0.99,0.03-0.5-0.48c0.1-0.11,0.45-0.13,0.5-0.37
				c0.09-0.39,0.03-0.79,0.03-1.19c0.33,0.02,0.71-0.13,0.91,0.3c0.21-0.14,0.44-0.33,0.27-0.58c-0.43-0.66-1.08-0.82-1.72-1.07
				c-0.36-0.14,0.64,0.04,0.54-0.45c0.58,0.76,1.6,0.99,2.07,1.83C194.06,329.9,193.8,330.2,193.62,330.48z"/>
			<path class="st6" d="M193.62,328.38c-0.15-0.21-0.31-0.38-0.6-0.3c-0.14-0.58,0.24-0.88,0.6-1.21
				C194.07,327.37,193.72,327.88,193.62,328.38z"/>
			<path class="st6" d="M189.4,317.24c-0.68,0.4-0.56,1.1-0.64,1.8c-0.03,0.23-0.28,0.41-0.56,0.29c-0.23-0.11-0.4-0.3-0.3-0.59
				c0.15-0.46,1.25-0.29,0.8-0.82c-0.35-0.42-1.37,0.03-1.41-0.98C187.99,317.1,188.78,316.6,189.4,317.24z"/>
			<path class="st6" d="M195.75,313.63c-0.37,0.61-0.97,0.68-1.52,0.9c-0.28-1.2,0.31-0.97,1.17-1.56c0.1-0.07,0.03-0.35,0.03-0.55
				C195.29,312.88,196.09,313.07,195.75,313.63z"/>
			<path class="st6" d="M185.19,321.45c0.63,0,0.68-0.89,1.2-0.85c0.44,0.03,0.28,0.52,0.3,0.85c-0.57-0.15-0.82,0.36-1.23,0.54
				C184.9,322.24,185.22,321.69,185.19,321.45z"/>
			<path class="st6" d="M183.99,322.05c0.21,0.16,0.46,0.4,0.26,0.55c-0.2,0.15-0.56,0.05-0.87,0.05c0.43-0.19,0.28-0.58,0.3-0.9
				C183.79,321.85,183.88,321.96,183.99,322.05z"/>
			<path class="st6" d="M178.14,325.58c-0.41,0.6-1.17,1.06-1.56,1.67c-0.26,0.42-0.14,1.09-0.73,1.42
				c-0.38,0.21-0.5-0.47-0.89-0.29c0.2-0.2,0.44-0.37,0.58-0.61c0.15-0.27-0.05-0.49-0.29-0.57c-0.18-0.06-0.46,0.05-0.55-0.06
				c-0.63-0.71-0.32-1.85,0.57-1.96c0.26-0.03,0.54,0.58,0.91,0.74c0.27,0.12,0.73,0.19,0.86-0.26c0.06-0.18,0.02-0.39,0.02-0.59
				c0.29,0.08,0.42-0.17,0.62-0.26C178,324.66,178.62,324.89,178.14,325.58z"/>
			<path class="st6" d="M180.99,325.99c0.63-0.41-0.03-1.48,0.57-1.39c0.69,0.1,0.23,1.55-0.58,1.67
				C180.98,326.17,180.95,326.03,180.99,325.99z"/>
			<path class="st6" d="M179.45,326.58c0.07,0.18,0.02,0.4,0.02,0.6c-0.32-0.02-0.84,0.12-0.83-0.3c0-0.16,0.32-0.31,0.23-0.6
				C179.16,326.19,179.37,326.34,179.45,326.58z"/>
			<path class="st6" d="M182.14,323.56c0.03,0.71-0.57,0.21-0.87,0.24c-0.19,0.02-0.45-0.37-0.26-0.48
				c0.19-0.11,0.38-0.23,0.59-0.33C182.05,322.78,182.12,323.3,182.14,323.56z"/>
			<path class="st6" d="M164.98,336.5c-0.27,1,1.47,0.94,0.87,1.77c-0.1,0.15-0.53,0.05-0.83,0.05c0-0.72-0.49-1.36-0.3-2.1
				C164.82,336.31,165,336.43,164.98,336.5z"/>
			<path class="st6" d="M167.44,337.73c0.56-0.23,0.1,0.68,0.6,0.59c-0.3,0-0.66,0.1-0.86-0.05
				C166.97,338.11,167.2,337.82,167.44,337.73z"/>
			<path class="st6" d="M162.86,332.01c0.23,0.62-0.4,0.09-0.55,0.28c0-0.2,0-0.4,0-0.6C162.51,331.79,162.81,331.85,162.86,332.01z
				"/>
			<path class="st6" d="M160.81,331.39c0,0.5,0.11,1.05-0.06,1.48c-0.03,0.07-0.46,0.07-0.49,0
				C160.02,332.33,160.46,331.83,160.81,331.39z"/>
			<path class="st6" d="M162.01,334.7c-0.2,0-0.46,0.07-0.57-0.03c-0.1-0.1-0.09-0.46,0-0.52
				C161.86,333.89,161.87,334.44,162.01,334.7z"/>
			<path class="st6" d="M163.21,333.5c-0.2,0-0.47,0.07-0.57-0.03c-0.19-0.2,0.03-0.48,0.27-0.54
				C163.56,332.76,163.19,333.26,163.21,333.5z"/>
			<path class="st6" d="M170.07,327.21c0.34,0.69-0.42,0-0.54,0.27C169.47,326.84,170.03,327.13,170.07,327.21z"/>
			<path class="st6" d="M172.55,325.97c0.2,0,0.47-0.07,0.57,0.03c0.1,0.1,0.03,0.37,0.03,0.57c-0.43-0.04-0.82,0.6-1.15,0.25
				c-0.16-0.16-0.15-0.6,0-0.82C172.06,325.9,172.35,325.97,172.55,325.97z"/>
			<path class="st6" d="M173.45,325.07c-0.41-0.07-0.9,0.2-1.2-0.3C172.66,324.83,173.15,324.56,173.45,325.07z"/>
			<path class="st6" d="M227.34,260.89c-0.21,0-0.46-0.32-0.27-0.52c0.1-0.1,0.43-0.1,0.53,0
				C227.79,260.57,227.55,260.89,227.34,260.89z"/>
			<path class="st6" d="M230.05,269.7c0.67-0.16,0.11,0.42,0.3,0.58c-0.29,0.08-0.53-0.07-0.57-0.31
				C229.77,269.88,229.93,269.72,230.05,269.7z"/>
			<path class="st6" d="M233.96,268.46c0.2,0,0.46-0.07,0.57,0.04c0.2,0.2,0,0.37-0.26,0.25
				C234.15,268.69,234.06,268.57,233.96,268.46z"/>
			<path class="st6" d="M234.3,270.09c0.2,0,0.47-0.07,0.57,0.03c0.2,0.2,0,0.37-0.26,0.25C234.49,270.31,234.4,270.18,234.3,270.09
				z"/>
			<path class="st6" d="M234.34,272.31c0.2,0,0.47-0.07,0.57,0.03c0.2,0.2,0,0.37-0.26,0.25
				C234.53,272.53,234.44,272.41,234.34,272.31z"/>
			<path class="st6" d="M228.24,269.15c0.2,0,0.47-0.07,0.57,0.03c0.2,0.2,0,0.37-0.26,0.25
				C228.43,269.37,228.34,269.25,228.24,269.15z"/>
			<path class="st6" d="M230.2,265.31c0.2,0,0.46-0.07,0.57,0.03c0.2,0.2,0,0.37-0.26,0.25C230.38,265.53,230.3,265.4,230.2,265.31z
				"/>
			<path class="st6" d="M226.25,271.69c0.67-0.16,0.11,0.42,0.3,0.58c-0.29,0.08-0.53-0.07-0.56-0.31
				C225.97,271.87,226.13,271.72,226.25,271.69z"/>
			<path class="st6" d="M224.9,264.35c0.67-0.16,0.11,0.42,0.3,0.58c-0.29,0.08-0.53-0.07-0.56-0.31
				C224.62,264.53,224.78,264.38,224.9,264.35z"/>
			<path class="st6" d="M226.07,263.79c0.67-0.16,0.11,0.42,0.29,0.58c-0.29,0.08-0.53-0.08-0.56-0.31
				C225.79,263.97,225.94,263.82,226.07,263.79z"/>
			<path class="st6" d="M230.51,256.97c0.67-0.16,0.11,0.42,0.3,0.58c-0.29,0.08-0.53-0.07-0.56-0.31
				C230.23,257.16,230.38,257,230.51,256.97z"/>
			<path class="st6" d="M230.21,256.7c0.67-0.16,0.11,0.42,0.3,0.58c-0.29,0.08-0.53-0.07-0.57-0.31
				C229.93,256.89,230.09,256.73,230.21,256.7z"/>
			<path class="st6" d="M229.29,266.51c-0.09,0.01-0.27-0.17-0.26-0.25c0.03-0.23,0.34-0.46,0.53-0.27
				C229.75,266.17,229.52,266.47,229.29,266.51z"/>
			<path class="st6" d="M220.64,273.21c-0.09,0.02-0.27-0.17-0.26-0.25c0.03-0.23,0.33-0.46,0.53-0.27
				C221.1,272.87,220.87,273.17,220.64,273.21z"/>
			<path class="st6" d="M222.18,273.36c-0.1,0-0.28-0.2-0.26-0.25c0.18-0.48,0.56-0.45,0.86-0.02
				C222.58,273.2,222.38,273.36,222.18,273.36z"/>
			<path class="st6" d="M234.87,275.62c-0.1,0-0.28-0.2-0.26-0.25c0.18-0.48,0.56-0.44,0.86-0.02
				C235.26,275.46,235.07,275.62,234.87,275.62z"/>
			<path class="st6" d="M234.23,272.04c0.2,0,0.46-0.07,0.57,0.04c0.2,0.2,0,0.37-0.26,0.25
				C234.41,272.27,234.32,272.14,234.23,272.04z"/>
			<path class="st6" d="M237.27,279.84c-0.1,0-0.28-0.2-0.26-0.25c0.18-0.48,0.56-0.45,0.86-0.02
				C237.68,279.67,237.47,279.84,237.27,279.84z"/>
			<path class="st6" d="M232.8,275.49c0.18-0.06,0.39-0.02,0.59-0.02c-0.08,0.29,0.09,0.46,0.3,0.6c-0.41-0.07-0.98,0.23-1.16-0.32
				C232.52,275.69,232.68,275.53,232.8,275.49z"/>
			<path class="st6" d="M237.8,283.64c-0.1,0-0.28-0.2-0.26-0.25c0.18-0.48,0.56-0.44,0.86-0.01
				C238.2,283.47,238,283.64,237.8,283.64z"/>
			<path class="st6" d="M239.8,284.47c-0.1,0-0.28-0.2-0.26-0.26c0.18-0.48,0.56-0.44,0.87-0.02
				C240.19,284.3,240,284.47,239.8,284.47z"/>
			<path class="st6" d="M239.27,281.11c-0.1,0-0.28-0.2-0.26-0.25c0.18-0.48,0.56-0.44,0.86-0.02
				C239.67,280.95,239.47,281.11,239.27,281.11z"/>
			<path class="st6" d="M224.3,265.78c0.1,0.13,0.11,0.5,0,0.54"/>
			<path class="st6" d="M228.02,262.44c-0.21,0-0.46-0.32-0.27-0.52c0.1-0.1,0.43-0.1,0.53,0
				C228.47,262.11,228.23,262.44,228.02,262.44z"/>
			<path class="st6" d="M230.16,258.48c-0.21,0-0.46-0.32-0.27-0.52c0.1-0.1,0.43-0.1,0.53,0
				C230.62,258.16,230.38,258.48,230.16,258.48z"/>
			<path class="st6" d="M233.77,266.31c-0.21,0-0.46-0.32-0.27-0.52c0.1-0.1,0.43-0.1,0.53,0
				C234.23,265.99,233.98,266.31,233.77,266.31z"/>
			<path class="st6" d="M234.83,273.54c-0.21,0-0.46-0.32-0.27-0.52c0.1-0.1,0.43-0.1,0.53,0
				C235.29,273.21,235.04,273.54,234.83,273.54z"/>
			<path class="st6" d="M236.29,278.09c-0.21,0-0.46-0.32-0.26-0.52c0.1-0.1,0.43-0.1,0.53,0
				C236.75,277.77,236.51,278.09,236.29,278.09z"/>
			<path class="st6" d="M231.52,277.6c-0.21,0-0.46-0.32-0.26-0.52c0.1-0.1,0.43-0.1,0.53,0
				C231.97,277.28,231.73,277.6,231.52,277.6z"/>
			<path class="st6" d="M232.34,278.2c-0.21,0-0.46-0.32-0.26-0.52c0.09-0.1,0.43-0.1,0.53,0
				C232.8,277.88,232.56,278.2,232.34,278.2z"/>
			<path class="st6" d="M233.89,278.2c-0.21,0-0.46-0.32-0.27-0.52c0.1-0.1,0.43-0.1,0.53,0C234.34,277.88,234.1,278.2,233.89,278.2
				z"/>
			<path class="st6" d="M234.04,282.46c-0.21,0-0.46-0.32-0.27-0.52c0.1-0.1,0.43-0.1,0.53,0
				C234.49,282.13,234.25,282.46,234.04,282.46z"/>
			<path class="st6" d="M235.47,282.01c-0.21,0-0.46-0.33-0.27-0.52c0.1-0.1,0.43-0.1,0.53,0
				C235.92,281.68,235.68,282.01,235.47,282.01z"/>
			<path class="st6" d="M230.65,284.46c0.2,0,0.47-0.07,0.57,0.03c0.2,0.2,0,0.37-0.26,0.25
				C230.83,284.69,230.75,284.56,230.65,284.46z"/>
			<path class="st6" d="M228.66,282.43c0.2,0,0.47-0.06,0.57,0.04c0.2,0.2,0,0.37-0.26,0.25
				C228.84,282.66,228.76,282.53,228.66,282.43z"/>
			<path class="st6" d="M228.73,279.6c0.2,0,0.46-0.07,0.57,0.04c0.2,0.2,0,0.37-0.26,0.25
				C228.91,279.84,228.83,279.71,228.73,279.6z"/>
			<path class="st6" d="M222.26,274.67c0.2,0,0.47-0.06,0.57,0.04c0.2,0.2,0,0.37-0.26,0.25
				C222.45,274.91,222.36,274.78,222.26,274.67z"/>
			<path class="st6" d="M237.76,280.7c0.2,0,0.47-0.06,0.57,0.04c0.2,0.2,0,0.37-0.26,0.25C237.95,280.93,237.86,280.8,237.76,280.7
				z"/>
		</g>
		<path class="st0" d="M102.06,84.57h1.78c1.11,2.93,3.67,5.69,7.72,5.69c1.71,0,3.29-1.25,3.29-2.74c0-1.1-1.25-2.24-2.67-2.42
			l-2.33-0.37c-2.24-0.34-3.36-0.56-5.23-1.67c-1.57-0.91-2.57-2.6-2.57-4.16c0-3.71,3.72-5.57,8.02-5.57
			c1.94,0,4.11,0.47,5.71,1.36l1.22-1.14h1.3l0.09,6.05h-1.7c-1.12-3-2.96-4.94-6.71-4.94c-1.64,0-3.24,1.11-3.24,2.51
			c0,1.35,1.56,2.03,3.11,2.28l1.61,0.29c4.36,0.72,8.21,1.96,8.21,6.17c0,1.66-0.91,3.2-2.54,4.29c-1.54,0.99-3.63,1.32-5.56,1.32
			c-2.18,0-4.63-0.6-6.32-1.69l-1.61,1.55h-1.33L102.06,84.57z"/>
		<path class="st0" d="M175.78,68.79v-1.28h1.44c1.27-0.12,1.16-0.7,1.16-1.64v-11.7c0-0.27,0-0.53-0.05-0.8
			c-0.14-0.29-0.11-0.48-0.5-0.58c-0.47-0.14-0.69-0.1-1.19-0.12h-0.86V51.4h11.08v1.27h-0.89c-0.58,0-1.03-0.1-1.47,0.31
			c-0.14,0.12-0.16,0.31-0.22,0.45c-0.08,0.24-0.06,0.53-0.06,0.8v12.04c0,0.39,0,0.94,0.53,1.11c0.14,0.05,0.27,0.02,0.41,0.05
			c0.41,0.07,0.59,0.05,1.03,0.07h0.66v1.28H175.78z"/>
		<path class="st0" d="M227.7,68.79v-1.28c0.75,0.05,1.17-0.04,1.89-0.09c0.69-0.05,0.69-0.75,0.69-1.2V54.79
			c0-2.02,0.17-2.07-2.16-2.12h-0.42V51.4h10.91v1.27h-1.17c-1.25,0-1.33,0.31-1.33,1.3v11.89c0.05,0.92-0.03,1.45,1.22,1.54
			c0.61,0.07,0.59,0.09,1.2,0.09c2.96,0,4.46-1.95,5.26-5.23h1.44l-0.33,6.5H227.7z"/>
		<path class="st0" d="M246.38,68.79v-1.28h1.44c1.27-0.12,1.16-0.7,1.16-1.64v-11.7c0-0.27,0-0.53-0.05-0.8
			c-0.14-0.29-0.11-0.48-0.5-0.58c-0.47-0.14-0.69-0.1-1.19-0.12h-0.86V51.4h11.07v1.27h-0.89c-0.58,0-1.03-0.1-1.47,0.31
			c-0.14,0.12-0.17,0.31-0.22,0.45c-0.08,0.24-0.06,0.53-0.06,0.8v12.04c0,0.39,0,0.94,0.53,1.11c0.14,0.05,0.27,0.02,0.41,0.05
			c0.42,0.07,0.59,0.05,1.03,0.07h0.67v1.28H246.38z"/>
		<path class="st0" d="M258.43,68.79v-1.28h1.36c0.27,0,0.52,0,0.8-0.09c0.09-0.05,0.2-0.09,0.25-0.17
			c0.06-0.07,0.08-0.17,0.14-0.24c0.08-0.36,0.08-0.75,0.08-1.11V53.98c0-0.44,0-1.01-0.58-1.16c-0.5-0.17-0.78-0.12-1.3-0.15h-0.72
			V51.4h18.89l0.19,6.33h-1.38c-0.94-3.23-2.55-5.04-6.6-5.04c-0.78,0-1.66-0.07-2.33,0.34c-0.39,0.29-0.33,0.82-0.33,1.21v4.96
			c2.97,0.09,3.79-0.99,4.38-3.35h1.41v8.03h-1.41c-0.05-0.58-0.16-0.9-0.47-1.46c-0.6-1.1-1.77-1.65-3.63-1.65h-0.28v5.05
			c0,1.27,0,1.56,1.58,1.61l1.44,0.07v1.28H258.43z"/>
		<path class="st0" d="M215.32,91.07v-1.28c0.75-0.07,2.3,0.27,2.55-0.63c0.11-0.27,0.09-0.55,0.09-0.84V76.01
			c0-0.17,0.02-0.39-0.09-0.53c-0.11-0.24-0.22-0.36-0.52-0.41c-0.75-0.14-1.25-0.12-2.03-0.12v-1.28h18.64l0.19,6.26h-1.39
			c-1.19-3.51-1.97-5.01-6.4-5.01c-0.66,0-1.36,0.02-1.97,0.27c-0.19,0.12-0.39,0.26-0.44,0.48c-0.19,0.39-0.16,0.82-0.16,1.23v4.55
			c2.74,0.19,4.07-1.18,4.37-3.42h1.42l0.11,8.38h-1.49c-0.11-2.31-1.64-3.76-4.41-3.69v5.28c0,1.06-0.06,1.57,1.3,1.69
			c0.5,0.05,1,0.1,1.5,0.1c4.37,0,5.33-1.71,6.49-5.21l1.38,0.1l-0.3,6.38H215.32z"/>
		<path class="st0" d="M120.11,91.07v-1.28c0.75-0.07,2.3,0.27,2.55-0.63c0.11-0.27,0.09-0.55,0.09-0.84V76.01
			c0-0.17,0.03-0.39-0.09-0.53c-0.11-0.24-0.22-0.36-0.53-0.41c-0.75-0.14-1.25-0.12-2.02-0.12v-1.28h18.64l0.19,6.26h-1.38
			c-1.19-3.51-1.97-5.01-6.41-5.01c-0.66,0-1.36,0.02-1.97,0.27c-0.19,0.12-0.39,0.26-0.44,0.48c-0.19,0.39-0.16,0.82-0.16,1.23
			v4.55c2.74,0.19,4.07-1.18,4.38-3.42h1.41l0.11,8.38h-1.49c-0.11-2.31-1.64-3.76-4.4-3.69v5.28c0,1.06-0.05,1.57,1.3,1.69
			c0.5,0.05,1,0.1,1.5,0.1c4.38,0,5.32-1.71,6.49-5.21l1.38,0.1l-0.3,6.38H120.11z"/>
		<path class="st0" d="M192.24,40.22c1.82,0,3.35,1.42,3.35,3.12c0,1.69-1.54,3.08-3.35,3.08c-1.82,0-3.36-1.39-3.36-3.08
			C188.88,41.65,190.42,40.22,192.24,40.22z"/>
		<path class="st0" d="M170.58,39.48h1.78c1.12,2.93,3.67,5.69,7.73,5.69c1.71,0,3.29-1.25,3.29-2.74c0-1.1-1.25-2.23-2.67-2.42
			l-2.33-0.37c-2.24-0.34-3.36-0.56-5.23-1.67c-1.57-0.92-2.57-2.59-2.57-4.16c0-3.71,3.72-5.57,8.02-5.57
			c1.94,0,4.11,0.47,5.71,1.36l1.22-1.15h1.3l0.09,6.05h-1.7c-1.13-3-2.96-4.94-6.71-4.94c-1.64,0-3.24,1.11-3.24,2.51
			c0,1.35,1.56,2.03,3.11,2.28l1.6,0.29c4.36,0.72,8.21,1.96,8.21,6.18c0,1.66-0.91,3.2-2.54,4.29c-1.54,0.98-3.63,1.32-5.57,1.32
			c-2.18,0-4.63-0.6-6.32-1.69l-1.6,1.54h-1.33L170.58,39.48z"/>
		<path class="st0" d="M183.92,91.07v-1.28h1.44c1.28-0.12,1.17-0.7,1.17-1.64v-11.7c0-0.27,0-0.53-0.05-0.8
			c-0.14-0.29-0.12-0.48-0.5-0.58c-0.47-0.14-0.7-0.09-1.2-0.12h-0.86v-1.28H195v1.28h-0.89c-0.58,0-1.03-0.1-1.47,0.31
			c-0.14,0.12-0.16,0.32-0.22,0.46c-0.08,0.24-0.05,0.53-0.05,0.8v12.04c0,0.39,0,0.94,0.52,1.11c0.14,0.05,0.28,0.02,0.42,0.05
			c0.42,0.07,0.59,0.05,1.03,0.07H195v1.28H183.92z"/>
		<path class="st6" d="M249.19,298.86c0.06-2.77-0.21-6.44-0.92-9.47c-0.3-1.28-0.53-2.71,0-4.75c0.46-1.76,1.22-6.12,1.94-10.75
			l36.34-0.01c-5.23,13.52-12.69,25.94-21.93,36.79c0.37-0.48-2.83,0.12-3.1-0.43c-0.87-1.72,1.71-1.54,1.99-2.71
			c0.33-1.41-1.38-3.05-2.98-2.24c-1.75,0.89-2.62,2.8-3.25,4.65c-0.24,0.72-1.28,1.29-2.21,0.91c-0.6-0.24-1.09-0.83-1.15-1.46
			c-0.11-1.13,1.57-1.29,1.57-2.1c0.02-1.22-1.39-1.48-2.53-1.14L249.19,298.86z M260.61,299.23c0.53,0,0.96-0.43,0.96-0.96
			c0-0.53-0.43-0.96-0.96-0.96c-0.53,0-0.96,0.43-0.96,0.96C259.65,298.8,260.08,299.23,260.61,299.23z M260.61,298.27 M260,292.17
			c0.7,0,1.28-0.58,1.28-1.28c0-0.7-0.57-1.27-1.28-1.27c-0.71,0-1.28,0.57-1.28,1.27C258.73,291.6,259.3,292.17,260,292.17z
			 M260,290.89 M263.92,283.52c1,0,1.81-0.81,1.81-1.81c0-1-0.81-1.81-1.81-1.81c-1,0-1.81,0.81-1.81,1.81
			C262.11,282.72,262.92,283.52,263.92,283.52z M263.92,281.71 M265.42,288.44c0.47,0,0.85-0.38,0.85-0.85
			c0-0.47-0.38-0.85-0.85-0.85c-0.47,0-0.85,0.38-0.85,0.85C264.57,288.06,264.95,288.44,265.42,288.44z M265.42,287.58
			 M266.02,296.07c0.53,0,0.96-0.43,0.96-0.96s-0.43-0.96-0.96-0.96s-0.96,0.43-0.96,0.96S265.49,296.07,266.02,296.07z
			 M266.02,295.11"/>
		<path class="st0" d="M298.13,102.44v125.24c0,72.19-58.52,130.71-130.7,130.71c-72.19,0-130.71-58.52-130.71-130.71V102.44H298.13
			z M41.4,107.12v120.55c0,69.6,56.43,126.02,126.03,126.02c69.6,0,126.02-56.42,126.02-126.02V107.12H41.4z"/>
		<path class="st4" d="M240.4,211c0.02-0.53,0.52-0.94,0.71-0.56c0.88,1.77-0.94,9.75-1.28,10.09c-0.34,0.34-1.54-1.17-1.54-1.17
			C239.53,217.44,240.28,213.68,240.4,211z"/>
		<path class="st4" d="M249.69,236.48c0.3,1.73-1.88,9.7-11.97,9.33c7.98-1.28,10.61-9.71,10.91-11.89
			C248.64,233.92,249.39,234.75,249.69,236.48z"/>
		<g>
			<path class="st4" d="M226.43,222.4c0-1,0.81-1.81,1.81-1.81c1,0,1.81,0.81,1.81,1.81c0,1-0.81,1.81-1.81,1.81
				C227.24,224.21,226.43,223.4,226.43,222.4z"/>
			<path class="st4" d="M228.24,222.4"/>
		</g>
	</g>
</g>
</svg>
