<?xml version="1.0" encoding="utf-8"?>
<!-- Generator: Adobe Illustrator 15.1.0, SVG Export Plug-In . SVG Version: 6.00 Build 0)  -->
<!DOCTYPE svg PUBLIC "-//W3C//DTD SVG 1.1//EN" "http://www.w3.org/Graphics/SVG/1.1/DTD/svg11.dtd">
<svg version="1.1" id="Layer_1" xmlns="http://www.w3.org/2000/svg" xmlns:xlink="http://www.w3.org/1999/xlink" x="0px" y="0px"
	 width="169.749px" height="54.941px" viewBox="0 0 169.749 54.941" enable-background="new 0 0 169.749 54.941"
	 xml:space="preserve">
<g>
	<g>
		<path fill="#5C5D60" d="M3.009,46.386h0.74l2.668,7.036h-0.8l-0.679-1.838H1.791l-0.68,1.838h-0.77L3.009,46.386z M4.689,50.904
			L3.37,47.355l-1.329,3.549H4.689z"/>
		<path fill="#5C5D60" d="M7.281,50.873v-0.1c0-1.729,1.02-2.658,2.079-2.658c0.829,0,1.35,0.5,1.689,1.069v-2.978h0.719v7.215
			h-0.719v-0.999c-0.351,0.59-0.87,1.1-1.689,1.1C8.3,53.522,7.281,52.613,7.281,50.873z M11.079,50.863v-0.09
			c0-1.229-0.749-2.008-1.568-2.008c-0.83,0-1.489,0.729-1.489,2.008v0.08c0,1.27,0.68,2.02,1.489,2.02
			C10.33,52.873,11.079,52.094,11.079,50.863z"/>
		<path fill="#5C5D60" d="M12.871,48.215h0.78l1.459,4.277l1.479-4.277h0.76l-1.909,5.248H14.79L12.871,48.215z"/>
		<path fill="#5C5D60" d="M18.111,51.913v-0.04c0-1.069,0.77-1.679,1.919-1.679c0.55,0,0.95,0.09,1.34,0.21v-0.311
			c0-0.839-0.49-1.289-1.329-1.289c-0.521,0-0.97,0.16-1.33,0.35l-0.229-0.59c0.49-0.24,0.999-0.419,1.639-0.419
			c0.63,0,1.12,0.18,1.46,0.52c0.319,0.32,0.499,0.8,0.499,1.409v3.348H21.37v-0.76c-0.31,0.49-0.819,0.87-1.589,0.87
			C18.911,53.532,18.111,52.942,18.111,51.913z M21.379,51.613v-0.649c-0.33-0.12-0.75-0.21-1.26-0.21
			c-0.829,0-1.289,0.43-1.289,1.09v0.029c0,0.65,0.49,1.06,1.109,1.06C20.74,52.942,21.379,52.373,21.379,51.613z"/>
		<path fill="#5C5D60" d="M23.531,48.215h0.72v0.85c0.29-0.52,0.76-0.95,1.539-0.95c1.06,0,1.699,0.729,1.699,1.898v3.408h-0.72
			v-3.207c0-0.93-0.439-1.45-1.199-1.45s-1.319,0.6-1.319,1.489v3.168h-0.72V48.215z"/>
		<path fill="#5C5D60" d="M28.671,50.873v-0.069c0-1.579,1.02-2.688,2.318-2.688c0.74,0,1.239,0.31,1.64,0.709l-0.43,0.541
			c-0.311-0.311-0.68-0.59-1.22-0.59c-0.869,0-1.569,0.819-1.569,2.029v0.05c0,1.229,0.72,2.02,1.6,2.02
			c0.51,0,0.889-0.26,1.219-0.6l0.42,0.479c-0.39,0.439-0.909,0.779-1.679,0.779C29.661,53.532,28.671,52.453,28.671,50.873z"/>
		<path fill="#5C5D60" d="M33.791,46.296h0.8v0.85h-0.8V46.296z M33.831,48.215h0.72v5.207h-0.72V48.215z"/>
		<path fill="#5C5D60" d="M36.14,48.215h0.72v0.85c0.29-0.52,0.76-0.95,1.539-0.95c1.06,0,1.699,0.729,1.699,1.898v3.408h-0.72
			v-3.207c0-0.93-0.439-1.45-1.199-1.45s-1.319,0.6-1.319,1.489v3.168h-0.72V48.215z"/>
		<path fill="#5C5D60" d="M41.511,54.382l0.29-0.579c0.489,0.319,1.079,0.51,1.679,0.51c0.979,0,1.59-0.521,1.59-1.56v-0.76
			c-0.36,0.579-0.89,1.069-1.72,1.069c-1.06,0-2.049-0.879-2.049-2.449v-0.039c0-1.569,1-2.459,2.06-2.459
			c0.829,0,1.358,0.48,1.709,1.029v-0.929h0.719v4.517c0,0.71-0.199,1.24-0.569,1.609c-0.399,0.4-0.989,0.6-1.729,0.6
			C42.791,54.941,42.121,54.762,41.511,54.382z M45.089,50.604v-0.029c0-1.119-0.77-1.809-1.569-1.809
			c-0.819,0-1.479,0.669-1.479,1.809v0.02c0,1.129,0.669,1.819,1.479,1.819C44.32,52.413,45.089,51.713,45.089,50.604z"/>
		<path fill="#5C5D60" d="M50.061,46.426h0.749v4.038l3.318-4.038h0.93l-2.549,3.058l2.688,3.938h-0.909l-2.299-3.328l-1.18,1.369
			v1.959h-0.749V46.426z"/>
		<path fill="#5C5D60" d="M56.17,48.215h0.72v0.85c0.29-0.52,0.76-0.95,1.539-0.95c1.06,0,1.699,0.729,1.699,1.898v3.408h-0.72
			v-3.207c0-0.93-0.439-1.45-1.199-1.45s-1.319,0.6-1.319,1.489v3.168h-0.72V48.215z"/>
		<path fill="#5C5D60" d="M61.311,50.863v-0.069c0-1.52,0.979-2.679,2.318-2.679c1.34,0,2.309,1.149,2.309,2.668v0.061
			c0,1.52-0.979,2.688-2.318,2.688S61.311,52.383,61.311,50.863z M65.208,50.854v-0.05c0-1.169-0.699-2.039-1.589-2.039
			c-0.92,0-1.569,0.87-1.569,2.029v0.05c0,1.17,0.689,2.039,1.579,2.039C64.549,52.883,65.208,52.003,65.208,50.854z"/>
		<path fill="#5C5D60" d="M66.822,48.215h0.759l1.149,4.148l1.189-4.158h0.61l1.189,4.158l1.159-4.148h0.729l-1.56,5.248h-0.649
			l-1.18-4.059l-1.189,4.059H68.38L66.822,48.215z"/>
		<path fill="#5C5D60" d="M74.832,46.207h0.72v7.215h-0.72V46.207z"/>
		<path fill="#5C5D60" d="M76.862,50.863v-0.049c0-1.59,0.93-2.699,2.148-2.699c1.31,0,2.089,1.119,2.089,2.688
			c0,0.069,0,0.21-0.01,0.3h-3.498c0.08,1.149,0.789,1.789,1.609,1.789c0.569,0,0.989-0.24,1.349-0.6l0.41,0.46
			c-0.47,0.479-1.01,0.779-1.789,0.779C77.901,53.532,76.862,52.513,76.862,50.863z M80.379,50.544
			c-0.05-0.989-0.52-1.799-1.369-1.799c-0.77,0-1.349,0.71-1.419,1.799H80.379z"/>
		<path fill="#5C5D60" d="M82.051,50.873v-0.1c0-1.729,1.02-2.658,2.079-2.658c0.829,0,1.35,0.5,1.689,1.069v-2.978h0.719v7.215
			H85.82v-0.999c-0.351,0.59-0.87,1.1-1.689,1.1C83.071,53.522,82.051,52.613,82.051,50.873z M85.849,50.863v-0.09
			c0-1.229-0.749-2.008-1.568-2.008c-0.83,0-1.489,0.729-1.489,2.008v0.08c0,1.27,0.68,2.02,1.489,2.02
			C85.1,52.873,85.849,52.094,85.849,50.863z"/>
		<path fill="#5C5D60" d="M88.021,54.382l0.29-0.579c0.489,0.319,1.079,0.51,1.679,0.51c0.979,0,1.59-0.521,1.59-1.56v-0.76
			c-0.36,0.579-0.89,1.069-1.72,1.069c-1.06,0-2.049-0.879-2.049-2.449v-0.039c0-1.569,1-2.459,2.06-2.459
			c0.829,0,1.358,0.48,1.709,1.029v-0.929h0.719v4.517c0,0.71-0.199,1.24-0.569,1.609c-0.399,0.4-0.989,0.6-1.729,0.6
			C89.3,54.941,88.63,54.762,88.021,54.382z M91.599,50.604v-0.029c0-1.119-0.77-1.809-1.569-1.809
			c-0.819,0-1.479,0.669-1.479,1.809v0.02c0,1.129,0.669,1.819,1.479,1.819C90.83,52.413,91.599,51.713,91.599,50.604z"/>
		<path fill="#5C5D60" d="M93.552,50.863v-0.049c0-1.59,0.93-2.699,2.148-2.699c1.31,0,2.089,1.119,2.089,2.688
			c0,0.069,0,0.21-0.01,0.3h-3.498c0.08,1.149,0.789,1.789,1.609,1.789c0.569,0,0.989-0.24,1.349-0.6l0.41,0.46
			c-0.47,0.479-1.01,0.779-1.789,0.779C94.591,53.532,93.552,52.513,93.552,50.863z M97.07,50.544
			c-0.05-0.989-0.52-1.799-1.369-1.799c-0.77,0-1.349,0.71-1.419,1.799H97.07z"/>
		<path fill="#5C5D60" d="M98.642,54.292c0.489-0.181,0.68-0.45,0.649-0.87h-0.37v-1.029h0.9v0.88c0,0.79-0.33,1.169-1.06,1.359
			L98.642,54.292z"/>
		<path fill="#5C5D60" d="M104.011,46.426h1.979c1.949,0,3.288,1.399,3.288,3.458v0.069c0,2.049-1.339,3.468-3.288,3.468h-1.979
			V46.426z M104.76,47.116v5.617h1.21c1.528,0,2.528-1.109,2.528-2.768v-0.07c0-1.659-1-2.779-2.528-2.779H104.76z"/>
		<path fill="#5C5D60" d="M110.64,48.215h0.72v1.15c0.31-0.73,0.939-1.26,1.789-1.22v0.779h-0.04c-0.969,0-1.749,0.68-1.749,2.019
			v2.479h-0.72V48.215z"/>
		<path fill="#5C5D60" d="M114.221,46.296h0.8v0.85h-0.8V46.296z M114.261,48.215h0.72v5.207h-0.72V48.215z"/>
		<path fill="#5C5D60" d="M116.141,48.215h0.78l1.459,4.277l1.479-4.277h0.76l-1.908,5.248h-0.65L116.141,48.215z"/>
		<path fill="#5C5D60" d="M121.741,46.296h0.8v0.85h-0.8V46.296z M121.781,48.215h0.72v5.207h-0.72V48.215z"/>
		<path fill="#5C5D60" d="M124.09,48.215h0.72v0.85c0.29-0.52,0.76-0.95,1.539-0.95c1.06,0,1.699,0.729,1.699,1.898v3.408h-0.72
			v-3.207c0-0.93-0.439-1.45-1.199-1.45s-1.319,0.6-1.319,1.489v3.168h-0.72V48.215z"/>
		<path fill="#5C5D60" d="M129.46,54.382l0.29-0.579c0.489,0.319,1.079,0.51,1.679,0.51c0.979,0,1.59-0.521,1.59-1.56v-0.76
			c-0.36,0.579-0.89,1.069-1.72,1.069c-1.06,0-2.049-0.879-2.049-2.449v-0.039c0-1.569,1-2.459,2.06-2.459
			c0.829,0,1.358,0.48,1.709,1.029v-0.929h0.719v4.517c0,0.71-0.199,1.24-0.569,1.609c-0.399,0.4-0.989,0.6-1.729,0.6
			C130.74,54.941,130.07,54.762,129.46,54.382z M133.039,50.604v-0.029c0-1.119-0.77-1.809-1.569-1.809
			c-0.819,0-1.479,0.669-1.479,1.809v0.02c0,1.129,0.669,1.819,1.479,1.819C132.269,52.413,133.039,51.713,133.039,50.604z"/>
		<path fill="#5C5D60" d="M137.741,49.965v-0.061c0-2.119,1.319-3.578,3.068-3.578c0.96,0,1.579,0.35,2.129,0.859l-0.46,0.57
			c-0.439-0.419-0.969-0.729-1.679-0.729c-1.289,0-2.278,1.179-2.278,2.869v0.039c0,1.72,0.989,2.889,2.278,2.889
			c0.72,0,1.229-0.299,1.729-0.779l0.449,0.52c-0.59,0.58-1.259,0.96-2.219,0.96C139.031,53.522,137.741,52.094,137.741,49.965z"/>
		<path fill="#5C5D60" d="M144.11,46.207h0.72v2.858c0.29-0.52,0.76-0.95,1.539-0.95c1.06,0,1.699,0.729,1.699,1.898v3.408h-0.72
			v-3.207c0-0.93-0.439-1.45-1.199-1.45s-1.319,0.6-1.319,1.489v3.168h-0.72V46.207z"/>
		<path fill="#5C5D60" d="M149.19,51.913v-0.04c0-1.069,0.77-1.679,1.919-1.679c0.55,0,0.95,0.09,1.34,0.21v-0.311
			c0-0.839-0.49-1.289-1.329-1.289c-0.521,0-0.97,0.16-1.33,0.35l-0.229-0.59c0.49-0.24,0.999-0.419,1.639-0.419
			c0.63,0,1.12,0.18,1.46,0.52c0.319,0.32,0.499,0.8,0.499,1.409v3.348h-0.709v-0.76c-0.31,0.49-0.819,0.87-1.589,0.87
			C149.99,53.532,149.19,52.942,149.19,51.913z M152.458,51.613v-0.649c-0.33-0.12-0.75-0.21-1.26-0.21
			c-0.829,0-1.289,0.43-1.289,1.09v0.029c0,0.65,0.49,1.06,1.109,1.06C151.819,52.942,152.458,52.373,152.458,51.613z"/>
		<path fill="#5C5D60" d="M154.61,48.215h0.72v0.85c0.29-0.52,0.76-0.95,1.539-0.95c1.06,0,1.699,0.729,1.699,1.898v3.408h-0.72
			v-3.207c0-0.93-0.439-1.45-1.199-1.45s-1.319,0.6-1.319,1.489v3.168h-0.72V48.215z"/>
		<path fill="#5C5D60" d="M159.981,54.382l0.29-0.579c0.489,0.319,1.079,0.51,1.679,0.51c0.979,0,1.59-0.521,1.59-1.56v-0.76
			c-0.36,0.579-0.89,1.069-1.72,1.069c-1.06,0-2.049-0.879-2.049-2.449v-0.039c0-1.569,1-2.459,2.06-2.459
			c0.829,0,1.358,0.48,1.709,1.029v-0.929h0.719v4.517c0,0.71-0.199,1.24-0.569,1.609c-0.399,0.4-0.989,0.6-1.729,0.6
			C161.26,54.941,160.59,54.762,159.981,54.382z M163.559,50.604v-0.029c0-1.119-0.77-1.809-1.569-1.809
			c-0.819,0-1.479,0.669-1.479,1.809v0.02c0,1.129,0.669,1.819,1.479,1.819C162.79,52.413,163.559,51.713,163.559,50.604z"/>
		<path fill="#5C5D60" d="M165.511,50.863v-0.049c0-1.59,0.93-2.699,2.148-2.699c1.31,0,2.089,1.119,2.089,2.688
			c0,0.069,0,0.21-0.01,0.3h-3.498c0.08,1.149,0.789,1.789,1.609,1.789c0.569,0,0.989-0.24,1.349-0.6l0.41,0.46
			c-0.47,0.479-1.01,0.779-1.789,0.779C166.55,53.532,165.511,52.513,165.511,50.863z M169.029,50.544
			c-0.05-0.989-0.52-1.799-1.369-1.799c-0.77,0-1.349,0.71-1.419,1.799H169.029z"/>
	</g>
	<g>
		<g>
			<path fill="#5C5D60" d="M47.28,5.966V1.533h1.354v4.379c0,1.43,0.736,2.189,1.947,2.189c1.199,0,1.936-0.715,1.936-2.134V1.533
				h1.354V5.9c0,2.299-1.298,3.455-3.312,3.455C48.557,9.355,47.28,8.2,47.28,5.966z"/>
			<path fill="#5C5D60" d="M56.278,1.533h1.254l4.126,5.325V1.533h1.331v7.701h-1.133l-4.247-5.479v5.479h-1.331V1.533z"/>
			<path fill="#5C5D60" d="M65.595,1.533h1.353v7.701h-1.353V1.533z"/>
			<path fill="#5C5D60" d="M68.785,1.533h1.496l2.321,5.919l2.311-5.919h1.463l-3.19,7.756h-1.199L68.785,1.533z"/>
			<path fill="#5C5D60" d="M78.245,1.533h5.709v1.21h-4.356v2.002h3.861v1.21h-3.861v2.068h4.411v1.21h-5.764V1.533z"/>
			<path fill="#5C5D60" d="M86.166,1.533h3.432c0.969,0,1.727,0.286,2.223,0.77c0.406,0.418,0.639,0.99,0.639,1.662v0.022
				c0,1.265-0.76,2.024-1.826,2.332l2.078,2.916h-1.605l-1.893-2.685h-1.693v2.685h-1.354V1.533z M89.498,5.35
				c0.969,0,1.586-0.506,1.586-1.287V4.041c0-0.825-0.596-1.276-1.596-1.276h-1.969V5.35H89.498z"/>
			<path fill="#5C5D60" d="M94.152,8.112l0.814-0.968c0.736,0.638,1.484,1.001,2.432,1.001c0.836,0,1.363-0.396,1.363-0.968V7.155
				c0-0.55-0.309-0.847-1.738-1.177c-1.639-0.396-2.563-0.88-2.563-2.299V3.656c0-1.32,1.1-2.233,2.629-2.233
				c1.121,0,2.014,0.341,2.795,0.968l-0.727,1.023c-0.693-0.517-1.387-0.792-2.09-0.792c-0.793,0-1.254,0.407-1.254,0.913v0.022
				c0,0.594,0.352,0.858,1.836,1.21c1.629,0.396,2.465,0.979,2.465,2.255v0.022c0,1.441-1.133,2.299-2.75,2.299
				C96.187,9.344,95.076,8.937,94.152,8.112z"/>
			<path fill="#5C5D60" d="M102.335,1.533h1.354v7.701h-1.354V1.533z"/>
			<path fill="#5C5D60" d="M108.189,2.787h-2.443V1.533h6.248v1.254h-2.441v6.447h-1.363V2.787z"/>
			<path fill="#5C5D60" d="M115.966,6.197l-3.059-4.665h1.605l2.145,3.399l2.18-3.399h1.551l-3.059,4.632v3.069h-1.363V6.197z"/>
			<path fill="#5C5D60" d="M46.928,19.112V19.09c0-1.661,1.32-3.036,3.103-3.036s3.092,1.353,3.092,3.014v0.022
				c0,1.65-1.32,3.025-3.113,3.025C48.237,22.116,46.928,20.763,46.928,19.112z M51.791,19.112V19.09c0-1.023-0.737-1.87-1.782-1.87
				c-1.067,0-1.749,0.836-1.749,1.848v0.022c0,1.012,0.736,1.859,1.771,1.859C51.108,20.95,51.791,20.114,51.791,19.112z"/>
			<path fill="#5C5D60" d="M55.32,17.319h-0.736v-1.111h0.736v-0.429c0-0.638,0.165-1.122,0.474-1.43
				c0.308-0.308,0.737-0.462,1.309-0.462c0.463,0,0.781,0.066,1.078,0.154v1.123c-0.264-0.088-0.495-0.143-0.78-0.143
				c-0.507,0-0.771,0.275-0.771,0.88v0.319h1.54v1.1h-1.518v4.665H55.32V17.319z"/>
			<path fill="#5C5D60" d="M63.373,18.155v-0.022c0-2.189,1.639-3.982,3.972-3.982c1.419,0,2.277,0.495,3.014,1.199l-0.869,1.001
				c-0.616-0.572-1.275-0.957-2.156-0.957c-1.463,0-2.541,1.21-2.541,2.717v0.022c0,1.507,1.067,2.729,2.541,2.729
				c0.946,0,1.552-0.374,2.212-0.99l0.869,0.88c-0.804,0.836-1.684,1.364-3.125,1.364C65.045,22.116,63.373,20.367,63.373,18.155z"
				/>
			<path fill="#5C5D60" d="M75.11,14.228h1.254l3.389,7.756h-1.431l-0.781-1.859H73.9l-0.793,1.859h-1.386L75.11,14.228z
				 M77.047,18.925l-1.332-3.08l-1.319,3.08H77.047z"/>
			<path fill="#5C5D60" d="M81.621,14.283h1.354v6.469h4.048v1.232h-5.402V14.283z"/>
			<path fill="#5C5D60" d="M88.947,14.283H90.3v7.701h-1.354V14.283z"/>
			<path fill="#5C5D60" d="M92.908,14.283h5.73v1.232h-4.377v2.101h3.883v1.232h-3.883v3.135h-1.354V14.283z"/>
			<path fill="#5C5D60" d="M100.265,18.155v-0.022c0-2.167,1.672-3.982,4.037-3.982s4.016,1.793,4.016,3.96v0.022
				c0,2.167-1.672,3.982-4.037,3.982S100.265,20.323,100.265,18.155z M106.898,18.155v-0.022c0-1.496-1.088-2.739-2.617-2.739
				s-2.598,1.221-2.598,2.717v0.022c0,1.496,1.09,2.729,2.619,2.729S106.898,19.651,106.898,18.155z"/>
			<path fill="#5C5D60" d="M110.505,14.283h3.432c0.969,0,1.727,0.286,2.223,0.77c0.406,0.418,0.639,0.99,0.639,1.662v0.022
				c0,1.265-0.76,2.024-1.826,2.332l2.078,2.916h-1.605l-1.893-2.685h-1.693v2.685h-1.354V14.283z M113.837,18.1
				c0.969,0,1.586-0.506,1.586-1.287v-0.022c0-0.825-0.596-1.276-1.596-1.276h-1.969V18.1H113.837z"/>
			<path fill="#5C5D60" d="M119.007,14.283h1.254l4.127,5.325v-5.325h1.33v7.701h-1.133l-4.246-5.479v5.479h-1.332V14.283z"/>
			<path fill="#5C5D60" d="M128.326,14.283h1.352v7.701h-1.352V14.283z"/>
			<path fill="#5C5D60" d="M134.738,14.228h1.254l3.389,7.756h-1.43l-0.781-1.859h-3.641l-0.793,1.859h-1.387L134.738,14.228z
				 M136.675,18.925l-1.332-3.08l-1.32,3.08H136.675z"/>
			<path fill="#5C5D60" d="M47.401,27.033h3.036c1.805,0,2.927,1.023,2.927,2.574v0.022c0,1.728-1.387,2.629-3.081,2.629h-1.528
				v2.476h-1.354V27.033z M50.328,31.037c1.022,0,1.661-0.572,1.661-1.375V29.64c0-0.902-0.649-1.375-1.661-1.375h-1.573v2.772
				H50.328z"/>
			<path fill="#5C5D60" d="M55.299,27.033h3.433c0.968,0,1.727,0.286,2.222,0.77c0.407,0.418,0.639,0.99,0.639,1.662v0.022
				c0,1.265-0.759,2.024-1.826,2.332l2.079,2.916h-1.606l-1.893-2.685h-1.693v2.685h-1.354V27.033z M58.632,30.85
				c0.969,0,1.585-0.506,1.585-1.287v-0.022c0-0.825-0.595-1.276-1.596-1.276h-1.969v2.585H58.632z"/>
			<path fill="#5C5D60" d="M63.802,27.033h5.71v1.21h-4.356v2.002h3.861v1.21h-3.861v2.068h4.411v1.21h-5.765V27.033z"/>
			<path fill="#5C5D60" d="M71.205,33.612l0.814-0.968c0.737,0.638,1.485,1.001,2.432,1.001c0.836,0,1.364-0.396,1.364-0.968v-0.022
				c0-0.55-0.309-0.847-1.738-1.177c-1.64-0.396-2.563-0.88-2.563-2.299v-0.022c0-1.32,1.1-2.233,2.629-2.233
				c1.122,0,2.014,0.341,2.795,0.968l-0.727,1.023c-0.692-0.517-1.386-0.792-2.09-0.792c-0.792,0-1.254,0.407-1.254,0.913v0.022
				c0,0.594,0.352,0.858,1.837,1.21c1.628,0.396,2.464,0.979,2.464,2.255v0.022c0,1.441-1.133,2.299-2.75,2.299
				C73.241,34.844,72.13,34.437,71.205,33.612z"/>
			<path fill="#5C5D60" d="M78.685,33.612l0.814-0.968c0.737,0.638,1.485,1.001,2.432,1.001c0.836,0,1.364-0.396,1.364-0.968v-0.022
				c0-0.55-0.309-0.847-1.738-1.177c-1.64-0.396-2.563-0.88-2.563-2.299v-0.022c0-1.32,1.1-2.233,2.629-2.233
				c1.122,0,2.014,0.341,2.795,0.968l-0.727,1.023c-0.693-0.517-1.386-0.792-2.09-0.792c-0.792,0-1.254,0.407-1.254,0.913v0.022
				c0,0.594,0.352,0.858,1.837,1.21c1.628,0.396,2.464,0.979,2.464,2.255v0.022c0,1.441-1.133,2.299-2.75,2.299
				C80.721,34.844,79.609,34.437,78.685,33.612z"/>
		</g>
		<path fill="#C8541A" d="M0,0v29.158h17.067v5.839l3.444,3.448v-9.287h17.072V0H0z M17.067,25.707H3.452V3.451h13.615V25.707z
			 M34.131,25.707h-13.62v-9.59h13.62V25.707z M34.131,13.036h-13.62V3.451h13.62V13.036z"/>
	</g>
</g>
</svg>
