<?xml version="1.0" encoding="utf-8"?>
<!-- Generator: Adobe Illustrator 24.0.3, SVG Export Plug-In . SVG Version: 6.00 Build 0)  -->
<svg version="1.1" id="Layer_1" xmlns="http://www.w3.org/2000/svg" x="0px" y="0px"
     viewBox="0 0 2985.93 1111.25" style="enable-background:new 0 0 2985.93 1111.25;" xml:space="preserve">
<style type="text/css">
	.st0{fill:#332A7E;}
	.st1{fill:#BDC0C3;}
	.st2{fill:#270089;}
	.st3{fill:#322A7E;}
	.st4{fill:#BAC0C3;}
	.st5{fill:#7B868C;}
	.st6{fill:#5752A3;stroke:#B4467F;stroke-width:4;stroke-miterlimit:10;}
	.st7{fill:#FFFFFF;}
</style>
<g>
	<path class="st0" d="M1078.45,457.48c-8.95,0-9.31,2.15-11.1,10.86h-3.58c0.48-3.34,1.07-6.69,1.43-10.15
		c0.48-3.34,0.72-6.69,0.72-10.15h2.87c0.95,3.58,3.94,3.46,7.16,3.46h61.61c3.22,0,6.21-0.12,6.45-3.7l2.87,0.48
		c-0.48,3.22-0.95,6.45-1.31,9.67c-0.24,3.22-0.24,6.45-0.24,9.67l-3.58,1.31c-0.24-4.42-0.84-11.46-8.84-11.46h-19.58V521
		c0,9.19,4.18,10.27,9.91,10.27h2.27v3.58c-4.66,0-13.01-0.48-19.46-0.48c-7.17,0-15.52,0.48-20.18,0.48v-3.58h2.27
		c6.57,0,9.91-0.6,9.91-10.03v-63.76H1078.45z"/>
	<path class="st0" d="M1173.37,525.62c0,5.73,4.45,6.05,8.28,6.05h2.02v3.18c-4.67,0-11.46-0.42-17.19-0.42
		c-5.41,0-11.78,0.42-16.03,0.42v-3.18h1.48c3.82,0,7.86-0.53,7.86-6.05v-55.61c0-5.52-4.03-6.05-7.86-6.05h-1.48v-3.18
		c4.24,0,10.61,0.42,16.03,0.42c5.73,0,12.52-0.42,17.19-0.42v3.18h-2.02c-3.82,0-8.28,0.32-8.28,6.05v23.24h38.52v-23.24
		c0-5.73-4.46-6.05-8.28-6.05h-2.02v-3.18c4.67,0,11.46,0.42,17.19,0.42c5.41,0,11.78-0.42,16.03-0.42v3.18h-1.48
		c-3.82,0-7.86,0.53-7.86,6.05v55.61c0,5.52,4.03,6.05,7.86,6.05h1.48v3.18c-4.25,0-10.61-0.42-16.03-0.42
		c-5.73,0-12.52,0.42-17.19,0.42v-3.18h2.02c3.82,0,8.28-0.32,8.28-6.05v-26.42h-38.52V525.62z"/>
	<path class="st0" d="M1244.17,531.67h1.48c3.82,0,7.86-0.53,7.86-6.05v-55.61c0-5.52-4.03-6.05-7.86-6.05h-1.48v-3.18
		c6.47,0,17.51,0.42,26.43,0.42c8.92,0,19.95-0.42,27.17-0.42c-0.21,4.56-0.11,11.57,0.21,16.24l-3.18,0.85
		c-0.53-6.9-1.8-12.42-12.95-12.42h-14.75v27.81h12.63c6.37,0,7.75-3.61,8.38-9.34h3.18c-0.21,4.14-0.32,8.28-0.32,12.42
		c0,4.03,0.11,8.06,0.32,12.1l-3.18,0.64c-0.64-6.37-0.96-10.51-8.28-10.51h-12.74v24.73c0,6.9,6.15,6.9,12.95,6.9
		c12.74,0,18.36-0.85,21.54-12.95l2.97,0.74c-1.38,5.63-2.66,11.25-3.61,16.88c-6.79,0-19-0.42-28.55-0.42
		c-9.55,0-22.18,0.42-28.23,0.42V531.67z"/>
	<path class="st0" d="M1424.58,476.11c-3.34-11.58-8.83-21.13-26.74-21.13c-19.58,0-29.85,15.4-29.85,36.3
		c0,19.94,10.15,40.12,32.72,40.12c12.77,0,21.25-8,24.36-19.94l3.34,0.48c-1.55,6.45-2.39,12.9-2.99,19.34
		c-6.93,2.99-16.36,5.37-27.34,5.37c-26.87,0-46.81-14.69-46.81-44.66c0-26.75,21.61-42.27,46.21-42.27
		c13.97,0,18.51,4.3,29.73,5.97c-0.12,6.57,0.12,13.25,0.95,19.94L1424.58,476.11z"/>
	<path class="st0" d="M1464.04,524.45c0,4.25,2.97,5.52,6.37,5.94c4.35,0.32,9.13,0.32,14.01-0.21c4.46-0.53,8.28-3.08,10.19-5.73
		c1.7-2.33,2.65-5.31,3.29-7.64h3.08c-1.17,6.05-2.66,11.99-3.93,18.04c-9.34,0-18.68-0.42-28.02-0.42
		c-9.34,0-18.68,0.42-28.02,0.42v-3.18h1.48c3.82,0,7.96-0.53,7.96-7.11v-54.55c0-5.52-4.14-6.05-7.96-6.05h-1.48v-3.18
		c5.63,0,11.14,0.42,16.77,0.42c5.41,0,10.72-0.42,16.13-0.42v3.18h-2.66c-4.03,0-7.22,0.11-7.22,5.73V524.45z"/>
	<path class="st0" d="M1524.18,519.68c-1.06,3.61-2.33,6.37-2.33,8.28c0,3.18,4.46,3.71,7.96,3.71h1.17v3.18
		c-4.24-0.21-8.6-0.42-12.84-0.42c-3.82,0-7.64,0.21-11.46,0.42v-3.18h0.64c4.14,0,7.64-2.44,9.23-6.9l16.98-48.71
		c1.38-3.93,3.29-9.23,3.93-13.16c3.39-1.17,7.64-3.29,9.66-4.56c0.32-0.11,0.53-0.21,0.85-0.21c0.32,0,0.53,0,0.75,0.32
		c0.32,0.85,0.64,1.8,0.95,2.65l19.53,55.51c1.27,3.72,2.55,7.64,3.93,10.83c1.27,2.97,3.5,4.25,7,4.25h0.64v3.18
		c-4.78-0.21-9.55-0.42-14.64-0.42c-5.2,0-10.51,0.21-15.92,0.42v-3.18h1.17c2.44,0,6.58-0.42,6.58-3.08c0-1.38-0.96-4.24-2.12-7.64
		l-4.14-12.31h-24.09L1524.18,519.68z M1539.68,472.66h-0.21l-9.87,30.04h19.85L1539.68,472.66z"/>
	<path class="st0" d="M1599.22,472.02c0-7.75-4.24-8.07-7.53-8.07h-1.91v-3.18c3.39,0,9.98,0.42,16.45,0.42
		c6.37,0,11.46-0.42,17.09-0.42c13.37,0,25.26,3.61,25.26,18.68c0,9.55-6.37,15.39-14.75,18.68l18.15,27.17
		c2.97,4.46,5.09,5.73,10.29,6.37v3.18c-3.5,0-6.9-0.42-10.4-0.42c-3.29,0-6.69,0.42-9.98,0.42c-8.17-10.72-15.18-22.18-22.07-34.39
		h-7.01v22.71c0,8.17,3.82,8.49,8.7,8.49h1.91v3.18c-6.05,0-12.21-0.42-18.26-0.42c-5.09,0-10.08,0.42-15.39,0.42v-3.18h1.91
		c3.93,0,7.53-1.8,7.53-5.73V472.02z M1612.81,496.65h5.2c10.61,0,16.34-4.03,16.34-16.56c0-9.45-6.05-15.49-15.49-15.49
		c-3.18,0-4.56,0.32-6.05,0.42V496.65z"/>
	<path class="st0" d="M1671.29,531.67h1.48c3.82,0,7.86-0.53,7.86-6.05v-55.61c0-5.52-4.03-6.05-7.86-6.05h-1.48v-3.18
		c6.47,0,17.51,0.42,26.43,0.42c8.92,0,19.95-0.42,27.17-0.42c-0.21,4.56-0.11,11.57,0.21,16.24l-3.18,0.85
		c-0.53-6.9-1.8-12.42-12.95-12.42h-14.75v27.81h12.63c6.37,0,7.75-3.61,8.38-9.34h3.18c-0.21,4.14-0.32,8.28-0.32,12.42
		c0,4.03,0.11,8.06,0.32,12.1l-3.18,0.64c-0.64-6.37-0.96-10.51-8.28-10.51h-12.73v24.73c0,6.9,6.15,6.9,12.95,6.9
		c12.73,0,18.36-0.85,21.54-12.95l2.97,0.74c-1.38,5.63-2.66,11.25-3.61,16.88c-6.79,0-19-0.42-28.55-0.42s-22.18,0.42-28.23,0.42
		V531.67z"/>
	<path class="st0" d="M1794.62,516.28l25.15-55.51c3.18,0,7,0.42,10.83,0.42c3.71,0,7.53-0.42,11.25-0.42v3.18h-0.96
		c-3.18,0-9.66,0.21-9.87,4.88c-0.11,2.76,0.32,5.94,0.53,8.28l4.03,48.61c0.42,5.31,3.08,5.73,9.45,5.94v3.18
		c-4.99-0.21-10.19-0.42-15.28-0.42c-5.84,0-11.67,0.21-17.51,0.42v-3.18c5.52-0.32,9.13-0.32,9.13-4.99c0-1.27,0-2.44-0.11-5.2
		l-2.97-44.79h-0.21l-27.06,59.75h-2.55l-25.68-58.58h-0.21l-3.61,46.59c0,3.4,0.85,5.09,2.23,6.05c1.59,0.95,3.82,1.06,6.79,1.17
		h1.27v3.18c-4.78-0.21-9.66-0.42-14.43-0.42c-4.14,0-8.38,0.21-12.52,0.42v-3.18h1.48c8.38-0.32,8.7-3.93,9.66-11.57l3.18-29.5
		c0.85-7.54,1.27-14.43,1.27-18.68c0-5.94-4.56-7.96-9.23-7.96h-1.38v-3.18c4.35,0,8.6,0.42,12.95,0.42c3.18,0,6.37-0.42,9.55-0.42
		L1794.62,516.28z"/>
	<path class="st0" d="M1893.96,459.18c22.61,0,40.65,14.01,40.65,36.61c0,24.41-17.51,40.65-40.11,40.65
		c-22.5,0-39.69-15.28-39.69-38.1C1854.8,476.27,1871.89,459.18,1893.96,459.18z M1895.56,531.77c20.59,0,24.2-18.15,24.2-33.64
		c0-15.5-8.38-34.28-26-34.28c-18.57,0-24.09,16.56-24.09,30.78C1869.66,513.63,1878.36,531.77,1895.56,531.77z"/>
	<path class="st0" d="M2013.9,513.95l0.21-0.21v-39.8c0-8.7-6.05-9.98-9.23-9.98h-2.33v-3.18c4.99,0,9.87,0.42,14.86,0.42
		c4.35,0,8.7-0.42,13.05-0.42v3.18h-1.59c-4.45,0-9.44,0.85-9.44,13.48v48.29c0,3.71,0.11,7.43,0.64,10.72h-4.03l-54.66-60.92v43.72
		c0,9.23,1.81,12.42,9.98,12.42h1.81v3.18c-4.56,0-9.13-0.42-13.69-0.42c-4.78,0-9.66,0.42-14.43,0.42v-3.18h1.49
		c7.32,0,9.55-4.99,9.55-13.48v-44.68c0-5.94-4.88-9.55-9.66-9.55h-1.38v-3.18c4.03,0,8.17,0.42,12.21,0.42
		c3.18,0,6.26-0.42,9.44-0.42L2013.9,513.95z"/>
	<path class="st0" d="M2051.69,466.08c-7.96,0-8.28,1.91-9.87,9.66h-3.18c0.42-2.97,0.95-5.94,1.27-9.02
		c0.42-2.97,0.64-5.94,0.64-9.02h2.55c0.85,3.18,3.5,3.08,6.37,3.08h54.76c2.87,0,5.52-0.11,5.73-3.29l2.55,0.42
		c-0.42,2.87-0.85,5.73-1.17,8.6c-0.21,2.87-0.21,5.73-0.21,8.6l-3.18,1.17c-0.21-3.93-0.74-10.19-7.85-10.19h-17.41v56.46
		c0,8.17,3.72,9.13,8.81,9.13h2.02v3.18c-4.14,0-11.57-0.42-17.3-0.42c-6.37,0-13.8,0.42-17.94,0.42v-3.18h2.02
		c5.84,0,8.81-0.53,8.81-8.91v-56.67H2051.69z"/>
	<path class="st0" d="M2232.22,476.11c-3.34-11.58-8.83-21.13-26.74-21.13c-19.58,0-29.85,15.4-29.85,36.3
		c0,19.94,10.15,40.12,32.72,40.12c12.77,0,21.25-8,24.36-19.94l3.34,0.48c-1.55,6.45-2.39,12.9-2.99,19.34
		c-6.93,2.99-16.36,5.37-27.34,5.37c-26.87,0-46.81-14.69-46.81-44.66c0-26.75,21.61-42.27,46.21-42.27
		c13.97,0,18.51,4.3,29.73,5.97c-0.12,6.57,0.12,13.25,0.95,19.94L2232.22,476.11z"/>
	<path class="st0" d="M2290.43,459.18c22.61,0,40.65,14.01,40.65,36.61c0,24.41-17.51,40.65-40.11,40.65
		c-22.5,0-39.69-15.28-39.69-38.1C2251.27,476.27,2268.35,459.18,2290.43,459.18z M2292.02,531.77c20.59,0,24.2-18.15,24.2-33.64
		c0-15.5-8.38-34.28-26-34.28c-18.57,0-24.09,16.56-24.09,30.78C2266.12,513.63,2274.83,531.77,2292.02,531.77z"/>
	<path class="st0" d="M2366.21,524.45c0,4.25,2.97,5.52,6.37,5.94c4.35,0.32,9.13,0.32,14.01-0.21c4.46-0.53,8.28-3.08,10.19-5.73
		c1.7-2.33,2.65-5.31,3.29-7.64h3.08c-1.17,6.05-2.66,11.99-3.93,18.04c-9.34,0-18.68-0.42-28.02-0.42
		c-9.34,0-18.68,0.42-28.02,0.42v-3.18h1.48c3.82,0,7.96-0.53,7.96-7.11v-54.55c0-5.52-4.14-6.05-7.96-6.05h-1.48v-3.18
		c5.62,0,11.14,0.42,16.77,0.42c5.41,0,10.72-0.42,16.13-0.42v3.18h-2.66c-4.03,0-7.22,0.11-7.22,5.73V524.45z"/>
	<path class="st0" d="M2436.37,524.45c0,4.25,2.97,5.52,6.37,5.94c4.35,0.32,9.13,0.32,14.01-0.21c4.46-0.53,8.28-3.08,10.19-5.73
		c1.7-2.33,2.65-5.31,3.29-7.64h3.08c-1.17,6.05-2.66,11.99-3.93,18.04c-9.34,0-18.68-0.42-28.02-0.42
		c-9.34,0-18.68,0.42-28.02,0.42v-3.18h1.48c3.82,0,7.96-0.53,7.96-7.11v-54.55c0-5.52-4.14-6.05-7.96-6.05h-1.48v-3.18
		c5.63,0,11.14,0.42,16.77,0.42c5.41,0,10.72-0.42,16.13-0.42v3.18h-2.66c-4.03,0-7.22,0.11-7.22,5.73V524.45z"/>
	<path class="st0" d="M2483.07,531.67h1.48c3.82,0,7.86-0.53,7.86-6.05v-55.61c0-5.52-4.03-6.05-7.86-6.05h-1.48v-3.18
		c6.47,0,17.51,0.42,26.43,0.42c8.91,0,19.95-0.42,27.17-0.42c-0.21,4.56-0.11,11.57,0.21,16.24l-3.18,0.85
		c-0.53-6.9-1.8-12.42-12.95-12.42H2506v27.81h12.63c6.37,0,7.75-3.61,8.38-9.34h3.18c-0.21,4.14-0.32,8.28-0.32,12.42
		c0,4.03,0.11,8.06,0.32,12.1l-3.18,0.64c-0.64-6.37-0.96-10.51-8.28-10.51H2506v24.73c0,6.9,6.15,6.9,12.95,6.9
		c12.74,0,18.36-0.85,21.54-12.95l2.97,0.74c-1.38,5.63-2.66,11.25-3.61,16.88c-6.79,0-19-0.42-28.55-0.42s-22.18,0.42-28.23,0.42
		V531.67z"/>
	<path class="st0" d="M2620.09,481.47c-3.18-13.05-12.2-17.62-24.62-17.62c-19,0-28.34,14.01-28.34,31.73
		c0,17.51,8.38,36.19,28.65,36.19c5.09,0.11,10.4-0.74,11.78-2.02v-17.3c0-4.35-4.14-5.41-8.07-5.41h-1.38v-3.18
		c5.31,0.21,10.61,0.42,15.92,0.42c4.78,0,9.44-0.21,14.22-0.42v3.18h-1.38c-3.71,0-5.73,1.7-5.73,5.41v16.13l2.44,1.38v1.91
		c-9.45,2.65-18.68,4.56-29.61,4.56c-23.77,0-41.71-14.22-41.71-39.8c0-24.62,21.02-37.46,42.45-37.46c6.58,0,11.14,0.95,15.28,1.91
		c4.14,0.95,7.75,1.91,11.99,2.02c0,3.93,0,11.99,1.27,18.15L2620.09,481.47z"/>
	<path class="st0" d="M2637.82,531.67h1.48c3.82,0,7.86-0.53,7.86-6.05v-55.61c0-5.52-4.03-6.05-7.86-6.05h-1.48v-3.18
		c6.47,0,17.51,0.42,26.43,0.42s19.95-0.42,27.17-0.42c-0.21,4.56-0.11,11.57,0.21,16.24l-3.18,0.85
		c-0.53-6.9-1.8-12.42-12.95-12.42h-14.75v27.81h12.63c6.37,0,7.75-3.61,8.38-9.34h3.18c-0.21,4.14-0.32,8.28-0.32,12.42
		c0,4.03,0.11,8.06,0.32,12.1l-3.18,0.64c-0.64-6.37-0.96-10.51-8.28-10.51h-12.74v24.73c0,6.9,6.15,6.9,12.95,6.9
		c12.73,0,18.36-0.85,21.54-12.95l2.97,0.74c-1.38,5.63-2.66,11.25-3.61,16.88c-6.79,0-19-0.42-28.55-0.42s-22.18,0.42-28.23,0.42
		V531.67z"/>
	<path class="st0" d="M2746.82,476.48c-0.74-6.9-5.2-13.48-12.52-13.48c-8.38,0-13.05,4.99-13.05,13.37
		c0,17.62,31.84,12.31,31.84,37.78c0,14.64-12.1,22.29-25.68,22.29c-5.94,0-11.67-2.12-16.87-4.78c-0.53-5.41-1.27-10.72-1.81-16.13
		l2.97-0.64c1.27,9.02,6.37,16.87,16.45,16.87c7.21,0,13.05-4.56,13.05-12.1c0-18.78-31.2-12.95-31.2-38.52
		c0-13.8,9.76-21.97,23.45-21.97c2.97,0,11.99,1.17,15.28,1.59c0,4.99,0.42,10.08,1.06,15.18L2746.82,476.48z"/>
</g>
<rect x="1022.63" y="599.08" class="st0" width="1735.96" height="4.09"/>
<g>
	<g id="NB3LKB.tif_35_">
		<g>
			<path class="st0" d="M1100.06,600.02c-0.68-0.05-29.43-0.86-42.9-1.41c-3.99-0.14-7.94-0.41-11.88-0.73
				c-5.94-0.5-11.83-1.04-17.68-1.68c-5.35-0.54-10.66-1-15.92-1.86c-7.94-1.27-15.83-2.77-23.67-4.4
				c-11.43-2.36-22.58-5.58-33.28-10.38c-17.68-7.89-32.24-19.54-42.67-36.09c-7.44-11.84-12.24-24.76-15.73-38.23
				c-1.45-5.53-3.08-11.02-4.04-16.6c-0.36-2.13-0.68-4.26-0.95-6.39c1.27-0.18,2.58-0.36,3.85-0.54c8.3-1.09,16.69-1.77,25.03-2.49
				c7.98-0.68,15.96-1.22,23.94-1.63c7.66-0.41,15.33-0.59,22.99-0.77c4.9-0.09,9.98-0.32,14.87-0.32
				c15.92-0.18,16.1-0.18,0.23-0.54c-0.68-0.09-29.43-0.91-42.9-1.45c-3.95-0.14-7.94-0.41-11.88-0.73
				c-5.9-0.5-11.84-1.04-17.68-1.68c-5.35-0.54-10.66-0.95-15.92-1.81c-1.27-0.23-2.49-0.41-3.76-0.68
				c-1.09-13.65-6.76-125.79-6.94-136.85c-0.09-5.21-0.05-10.43-0.05-15.64c-0.14-1.81-0.14-1.77-0.27,0
				c-0.27,16.51-4.44,124.61-5.8,150.09c-2.27-0.41-4.58-0.91-6.85-1.36c-11.43-2.36-22.58-5.58-33.28-10.34
				c-17.68-7.94-32.24-19.54-42.62-36.09c-7.48-11.88-12.29-24.8-15.78-38.27c-1.45-5.53-3.08-11.02-4.04-16.6
				c-1.09-6.08-1.59-12.2-2.13-18.32c-0.91-9.61-6.8-126.29-6.98-137.53c-0.09-5.21-0.05-10.47-0.05-15.69
				c-0.14-1.81-0.14-1.77-0.27,0c-0.32,18.18-5.35,147.82-6.12,155.13c-0.68,6.44-1.31,12.92-2.49,19.27
				c-2.4,13.33-6.08,26.25-11.65,38.63c-8.89,19.82-22.63,35.1-41.76,45.48c-15.64,8.48-32.58,13.26-49.82,16.71
				c-1.31-19.73-6.55-124.81-6.73-135.47c-0.09-5.21-0.05-10.43-0.05-15.64c-0.14-1.81-0.14-1.77-0.27,0
				c-0.27,16.78-4.58,128.19-5.85,151.27c-4.31-0.82-8.62-1.63-12.88-2.54c-11.47-2.36-22.63-5.58-33.33-10.34
				c-17.68-7.94-32.24-19.54-42.62-36.09c-7.44-11.88-12.29-24.8-15.78-38.27c-1.41-5.53-3.04-11.02-4.04-16.6
				c-1.04-6.08-1.54-12.2-2.13-18.32c-0.91-9.61-6.76-126.29-6.98-137.53c-0.09-5.21,0-10.47,0-15.69c-0.18-1.81-0.18-1.77-0.32,0
				c-0.27,18.18-5.35,147.82-6.12,155.13c-0.68,6.44-1.31,12.92-2.45,19.27c-2.45,13.33-6.12,26.25-11.7,38.63
				c-8.89,19.82-22.58,35.1-41.76,45.48c-15.83,8.57-32.97,12.92-50.42,16.37c-1.36-19.36-6.62-124.43-6.8-135.13
				c-0.14-5.21-0.05-10.43-0.05-15.64c-0.14-1.81-0.14-1.77-0.27,0c-0.32,17.19-4.81,133.9-5.99,152.86
				c-2.9,0.41-5.76,0.77-8.66,1.13c-6.21,0.82-12.42,1.45-18.68,2.04c-5.53,0.45-11.11,0.77-16.69,1.09
				c-9.57,0.5-19.14,0.95-28.66,1.36c-4.9,0.18-11.11,0.32-16.64,0.41c-2.22,0.14-2.18,0.18,0,0.23c5.4,0.23,10.52,0.5,15.83,0.59
				c4.99,0.05,9.93,0.18,14.87,0.41c8.93,0.5,17.82,1.04,26.75,1.68c5.89,0.41,11.83,0.73,17.68,1.45
				c4.35,0.54,8.66,1.09,13.01,1.68c-0.41,3.17-0.86,6.35-1.45,9.48c-2.45,13.29-6.12,26.25-11.65,38.63
				c-8.89,19.82-22.63,35.1-41.81,45.48c-15.87,8.62-33.15,12.97-50.7,16.41c-7.07,1.36-14.28,2.22-21.45,3.17
				c-6.21,0.82-12.47,1.45-18.68,2c-5.58,0.5-11.15,0.82-16.73,1.13c-9.52,0.5-19.09,0.95-28.66,1.36
				c-4.9,0.18-11.06,0.32-16.64,0.41c-2.22,0.14-2.18,0.18,0.05,0.23c5.35,0.23,10.52,0.5,15.83,0.59
				c4.94,0.05,9.93,0.14,14.87,0.41c8.89,0.5,17.82,1.04,26.71,1.68c5.89,0.36,11.83,0.73,17.73,1.45
				c8.89,1.09,17.73,2.31,26.57,3.72c13.01,2.09,25.71,5.35,38.04,10.07c24.49,9.34,41.45,25.35,52.55,49.38
				c6.62,14.28,10.52,29.34,13.33,44.76c0.27,1.5,0.54,3.54,0.86,6.08c-2.09,0.32-4.17,0.59-6.26,0.86
				c-6.21,0.82-12.42,1.45-18.68,2c-5.53,0.5-11.11,0.82-16.69,1.09c-9.57,0.5-19.14,1-28.66,1.36c-4.9,0.23-11.11,0.36-16.64,0.45
				c-2.22,0.09-2.18,0.14,0,0.23c5.4,0.23,10.52,0.5,15.83,0.59c4.99,0.05,9.93,0.14,14.87,0.41c8.93,0.45,17.82,1.04,26.75,1.63
				c5.89,0.41,11.83,0.77,17.68,1.5c4.31,0.54,8.66,1.09,12.97,1.68c2.13,23.4,4.44,59.49,4.76,66.38c0.5,9.57,1.81,61.67,2,77.49
				c0.09,7.35,0.63,4.72,0.91-2.9c0.27-8.43,2.27-73.78,2.54-78.95c0.32-5.8,2.36-41.94,3.49-59.99
				c12.97,2.09,26.71,6.53,39.04,11.2c24.49,9.39,44.62,25.8,57.13,54.73c13.92,26.21,16.91,104.74,17.14,108.55
				c0-3.76,1.73-99.84,37.23-136.75c9.75-10.11,27.39-22.26,40.77-27.57c13.1-5.17,25.42-7.58,38.61-9.85
				c2.09,23.4,4.33,57.28,4.65,64.04c0.5,9.57,1.81,61.67,2,77.49c0.09,7.35,0.63,4.72,0.91-2.9c0.27-8.43,2.27-73.78,2.54-78.95
				c0.32-5.8,2.31-41.63,3.49-59.76c12.65,2.13,25.94,6.44,37.82,10.97c24.53,9.39,44.62,25.8,57.18,54.73
				c14.01,26.3,17.67,106.31,17.86,109.58c0-3.31,0.92-100.78,36.51-137.78c9.75-10.11,27.39-22.26,40.77-27.57
				c11.25-4.44,21.95-7.35,33.1-9.52c2.09,23.4,4.22,57.04,4.53,63.71c0.5,9.57,1.81,61.67,2,77.49c0.09,7.35,0.63,4.72,0.91-2.9
				c0.27-8.43,2.27-73.78,2.54-78.95c0.32-5.99,2.49-44.21,3.58-61.62c1.72-0.27,3.49-0.5,5.26-0.73c8.3-1.09,16.69-1.77,25.03-2.49
				c7.98-0.68,15.96-1.27,23.94-1.68c7.66-0.36,15.33-0.59,22.99-0.73c4.9-0.14,9.98-0.36,14.87-0.36
				c15.92-0.14,16.1-0.14,0.23-0.54c-0.68-0.09-29.43-0.91-42.9-1.41c-3.95-0.14-7.94-0.41-11.88-0.77
				c-5.89-0.5-11.79-1.04-17.68-1.63c-5.31-0.54-10.66-1-15.92-1.86c-0.95-0.14-1.9-0.32-2.86-0.5c0.32-3.31,0.68-6.58,1.31-9.84
				c2-10.66,4.76-21.13,8.62-31.29c4.99-13.1,13.2-25.12,22.99-35.28c10.07-10.43,22.22-17.73,35.6-22.99
				c17.37-6.89,35.55-10.34,53.96-12.74c8.3-1.09,16.69-1.77,25.03-2.49c7.98-0.68,15.96-1.22,23.94-1.68
				c7.66-0.36,15.33-0.54,22.99-0.73c4.9-0.14,9.98-0.32,14.87-0.32C1115.75,600.43,1115.89,600.43,1100.06,600.02z M774.03,584.02
				c2-10.66,4.76-21.13,8.62-31.29c4.99-13.1,13.2-25.12,22.99-35.28c10.07-10.43,22.22-17.68,35.6-22.99
				c11.06-4.4,22.49-7.39,34.05-9.61c-0.27,2.27-0.63,4.44-1.04,6.67c-2.4,13.29-6.12,26.25-11.65,38.63
				c-8.89,19.82-22.63,35.1-41.81,45.48c-15.01,8.16-31.24,12.47-47.79,15.83C773.21,588.96,773.58,586.46,774.03,584.02z
				 M756.21,590.91c-1.63-0.27-3.26-0.63-4.9-0.95c-11.43-2.36-22.58-5.58-33.28-10.38c-17.68-7.89-32.24-19.54-42.62-36.09
				c-7.48-11.84-12.29-24.76-15.78-38.23c-1.45-5.53-3.42-11.86-4.37-17.44c-0.23-1.36-0.45-2.72-0.63-4.08
				c11.93,2.13,23.96,6.06,35.3,10.41c24.49,9.34,41.45,25.39,52.55,49.38c6.62,14.28,10.52,29.34,13.33,44.76
				C755.94,589,756.07,589.91,756.21,590.91z M531.33,583.42c2-10.66,4.64-20.54,8.5-30.69c5.03-13.1,13.24-25.12,23.04-35.28
				c10.07-10.43,22.17-17.68,35.55-22.99c13.06-5.17,26.57-8.43,40.31-10.7c-0.32,2.63-0.73,5.21-1.18,7.75
				c-2.4,13.29-6.08,26.25-11.65,38.63c-8.89,19.82-22.63,35.1-41.76,45.48c-15.92,8.62-33.04,11.64-50.59,15.09
				c-1.13,0.23-2.22,0.41-3.36,0.59C530.45,588.4,530.78,586.28,531.33,583.42z M447.09,494.14c24.53,9.34,41.49,25.39,52.6,49.38
				c6.58,14.28,10.52,29.34,13.29,44.76c0.14,0.77,0.27,1.68,0.41,2.77c-1.86-0.32-3.72-0.68-5.58-1.09
				c-11.43-2.36-22.58-5.58-33.28-10.38c-17.68-7.89-32.24-19.54-42.67-36.09c-7.44-11.84-12.24-24.76-15.73-38.23
				c-1.45-5.53-3.08-11.02-4.04-16.6c-0.23-1.41-0.45-2.77-0.68-4.17C423.56,486.57,435.48,489.7,447.09,494.14z M513.66,615.62
				c-2.45,13.29-6.12,26.25-11.7,38.63c-8.89,19.77-22.58,35.1-41.76,45.48c-15.6,8.43-32.47,12.74-49.65,16.14
				c0.27-2.58,0.59-5.17,1.09-7.75c2-10.66,4.72-21.13,8.62-31.29c4.99-13.1,13.2-25.12,22.99-35.28
				c10.07-10.43,22.22-17.73,35.6-22.99c11.65-4.63,23.67-7.71,35.87-9.93C514.43,611,514.07,613.31,513.66,615.62z M531.62,613.13
				c-0.27-1.63-0.5-3.22-0.73-4.85c0.68,0.09,1.36,0.23,2.04,0.32c13.01,2.09,25.75,4.93,38.08,9.65
				c24.49,9.34,41.45,25.35,52.55,49.38c6.62,14.28,10.52,29.34,13.33,44.76c0.18,0.95,0.36,2.18,0.54,3.63
				c-3.36-0.59-6.67-1.27-10.02-1.95c-11.47-2.36-22.63-5.58-33.33-10.38c-17.68-7.94-32.24-19.54-42.62-36.09
				c-7.44-11.84-12.29-24.76-15.78-38.23C534.29,623.83,532.62,618.76,531.62,613.13z M755.94,615.62
				c-2.4,13.29-6.08,26.25-11.65,38.63c-8.89,19.77-22.63,35.1-41.76,45.48c-15.24,8.25-31.7,12.56-48.47,15.92
				c0.27-2.54,0.63-5.03,1.09-7.53c1.99-10.66,4.76-21.13,8.62-31.29c4.99-13.1,13.2-25.12,23.04-35.28
				c10.02-10.43,22.17-17.73,35.55-22.99c11.25-4.49,22.85-7.48,34.64-9.7C756.71,611.13,756.35,613.4,755.94,615.62z
				 M773.35,608.82c11.74,2.09,23.22,5.17,34.37,9.43c24.49,9.34,41.45,25.35,52.55,49.38c6.62,14.28,10.52,29.34,13.33,44.76
				c0.14,0.73,0.27,1.59,0.36,2.54c-1.41-0.27-2.86-0.59-4.26-0.86c-11.43-2.36-22.58-5.58-33.28-10.38
				c-17.68-7.94-32.24-19.54-42.62-36.09c-7.48-11.84-12.29-24.76-15.78-38.23c-1.45-5.53-3.08-11.02-4.04-16.64
				C773.76,611.4,773.53,610.13,773.35,608.82"/>
		</g>
	</g>
	<path class="st1" d="M646.52,653.78c0,0,4.22-16.64,20.47-33.81c16.95-17.91,31-19.51,31-19.51l0,0c0,0-18.91-3.99-33.62-19.98
		c-16-17.4-17.86-31.51-17.86-31.51l0,0c0,0-1.86,14.11-17.86,31.51c-14.71,15.99-33.62,19.98-33.62,19.98l0,0
		c0,0,14.06,1.6,31,19.51C642.29,637.14,646.52,653.78,646.52,653.78L646.52,653.78z"/>
</g>
<g>
	<path class="st2" d="M1132.73,751.16c0-23.98-0.87-63.71-1.31-70.45c-0.87-9.74-3.06-13.49-16.17-13.49h-20.54
		c-2.62,0-3.06-1.87-3.06-3.75v-8.24c0-1.87,0.44-2.62,3.06-2.62c4.81,0,20.54,1.12,56.81,1.12c42.39,0,60.74-1.12,64.67-1.12
		c3.5,0,3.93,1.12,3.93,3v8.62c0,1.87-0.87,3-4.37,3h-26.22c-13.55,0-15.29,3.75-15.29,14.62c0,4.87-1.31,61.46-1.31,87.69v32.23
		c0,6.37,0,87.32,1.31,102.68c9.61,0.75,96.14,1.5,109.68,0c25.78-3.37,52-48.34,58.12-62.96c0.87-1.5,1.75-2.25,3.5-1.5l6.99,2.25
		c1.31,0.75,1.31,1.12,0.87,3.37c-1.31,2.62-18.79,64.46-21.41,74.57c-5.68-0.37-39.77-0.75-78.66-0.75
		c-38.89-0.37-81.72-0.37-105.31-0.37c-17.04,0-29.72,0.37-38.89,0.37c-8.74,0.37-13.98,0.75-17.04,0.75s-3.5-0.75-3.5-2.62v-9.37
		c0-1.87,0.44-2.62,3.06-2.62h20.98c16.17,0,18.79-5.25,18.79-10.12c0-7.12,1.31-100.43,1.31-123.29V751.16z"/>
	<path class="st2" d="M1801.24,738.68c-0.5-9.36-4.96-14.51-18.85-14.51h-4.96c-1.49,0-1.98-1.4-1.98-3.28v-11.23
		c0-1.4,0.99-2.34,2.98-2.34c2.48,0,33.23,1.4,42.15,1.4c5.95,0,49.1-1.4,55.54-1.4c29.76,0,52.07,7.96,64.47,18.25
		c10.91,9.83,17.36,23.4,17.36,34.17c0,32.29-19.34,51.01-58.52,64.12v0.94c11.41,2.34,21.33,16.85,41.66,43.99
		c6.94,9.36,18.35,23.4,27.77,29.95c6.94,4.68,13.39,5.15,22.32,5.15c1.98,0,2.48,1.4,2.48,4.21v9.36c0,1.87-0.99,3.28-2.98,3.28
		c-0.99,0-4.96-0.47-9.92-0.94c-4.46,0-10.41-0.47-15.37-0.47c-11.41,0-23.31,0.47-31.74,0.94c-9.42-6.55-31.24-44.46-35.71-51.48
		c-17.85-29.02-25.29-39.31-46.12-39.31c-4.96,0-9.42,0-12.89,0.94v61.78c0.99,6.55,3.97,11.7,13.89,11.7h12.89
		c1.98,0,2.98,0.94,2.98,2.34v11.23c0,2.34-0.99,3.28-3.97,3.28c-3.47,0-30.25-1.4-46.62-1.4c-12.4,0-37.69,1.4-41.16,1.4
		c-1.98,0-2.97-1.4-2.97-3.74v-10.76c0-1.4,0.99-2.34,2.97-2.34h5.95c11.9,0,17.85-1.87,17.85-12.17c0.5-22.93,0-50.55,0.5-79.09
		V738.68z M1838.93,814.5c3.47,0.47,8.43,0.94,14.88,0.94c55.05,0,63.48-36.51,63.48-48.67c0-14.04-7.44-26.68-16.36-32.29
		c-13.39-7.96-27.28-12.17-47.11-12.17c-7.44,0-14.88,1.87-14.88,10.3V814.5z"/>
	<path class="st2" d="M2089.68,837.53l-19.89,50.25c-2.98,9.39-1.49,15.5,8.95,15.5h12.43c2.98,0,3.48,1.41,3.48,3.29v10.33
		c0,1.88-0.5,3.29-2.98,3.29c-3.98,0-30.34-1.41-38.29-1.41c-9.45,0-34.32,1.41-38.79,1.41c-1.99,0-1.99-2.35-1.99-4.23v-9.86
		c0-1.88,0-2.82,1.99-2.82h6.96c8.45,0,16.41-4.7,20.39-9.86c3.48-3.76,28.85-60.11,40.78-83.59c3.48-6.57,32.82-70.44,35.81-78.42
		c1-2.82,3.98-7.98,0.5-9.39c-1-0.94-2.49-3.29-1.99-4.7c-0.5-0.94,0.5-2.35,4.97-3.29c9.45-1.41,23.38-9.86,27.85-13.62
		c0.99-1.88,2.98-3.29,5.97-3.29c2.98,0,3.98,1.88,4.97,5.17c6.96,18.78,32.33,85.93,38.79,104.72
		c7.46,23.48,28.85,78.89,32.33,83.59c6.47,8.45,14.92,12.68,23.38,12.68h9.45c1.99,0,2.49,1.41,2.49,2.82v9.86
		c0,1.41-0.5,4.23-3.48,4.23c-5.97,0-32.33-1.41-43.77-1.41c-9.45,0-38.79,1.41-45.26,1.41c-3.48,0-3.98-2.35-3.98-4.23v-9.86
		c0-1.41,0.5-2.82,2.49-2.82h7.96c5.97,0,7.96-4.23,7.96-7.98c-1.99-9.39-15.42-46.96-19.4-57.76H2089.68z M2164.78,822.5
		l-26.36-80.77c-0.99-2.82-1.49-4.7-2.98-4.7c-1.49,0-2.49,1.41-3.98,5.17c-1.49,3.76-31.83,75.6-34.32,80.3H2164.78z"/>
	<path class="st2" d="M2324.72,738.6c-0.5-9.34-5.03-14.47-19.11-14.47h-5.03c-1.51,0-2.01-1.4-2.01-3.27v-11.2
		c0-1.4,1.01-2.33,3.02-2.33c2.51,0,33.69,1.4,42.74,1.4c6.03,0,49.79-1.4,56.32-1.4c30.17,0,52.8,7.94,65.37,18.2
		c11.06,9.8,17.6,23.34,17.6,34.07c0,32.21-19.61,50.88-59.34,63.95v0.93c11.57,2.33,21.62,16.8,42.24,43.88
		c7.04,9.34,18.61,23.34,28.16,29.87c7.04,4.67,13.58,5.13,22.63,5.13c2.01,0,2.51,1.4,2.51,4.2v9.34c0,1.87-1.01,3.27-3.02,3.27
		c-1.01,0-5.03-0.47-10.06-0.93c-4.53,0-10.56-0.47-15.59-0.47c-11.57,0-23.64,0.47-32.18,0.93c-9.55-6.53-31.68-44.34-36.21-51.35
		c-18.1-28.94-25.65-39.21-46.77-39.21c-5.03,0-9.55,0-13.07,0.93v61.62c1.01,6.53,4.02,11.67,14.08,11.67h13.07
		c2.01,0,3.02,0.93,3.02,2.33v11.2c0,2.33-1.01,3.27-4.02,3.27c-3.52,0-30.68-1.4-47.27-1.4c-12.57,0-38.22,1.4-41.74,1.4
		c-2.01,0-3.02-1.4-3.02-3.73V905.7c0-1.4,1.01-2.33,3.02-2.33h6.04c12.07,0,18.1-1.87,18.1-12.14c0.5-22.87,0-50.41,0.5-78.89
		V738.6z M2362.94,814.21c3.52,0.47,8.55,0.93,15.09,0.93c55.82,0,64.37-36.41,64.37-48.55c0-14-7.54-26.61-16.59-32.21
		c-13.58-7.94-27.66-12.14-47.77-12.14c-7.54,0-15.09,1.87-15.09,10.27V814.21z"/>
	<path class="st2" d="M2651.25,861.6c0.48,11.55,0,24.02,0.97,29.56c0.97,9.7,8.71,10.16,17.42,10.16h6.29
		c2.42,0,3.39,0.92,3.39,2.31v11.09c0,1.85-0.97,3.23-3.87,3.23c-2.9,0-30-1.39-45.97-1.39c-10.64,0-38.71,1.39-41.61,1.39
		c-2.42,0-3.39-0.92-3.39-3.7V904.1c0-1.39,0.97-2.77,2.9-2.77h7.26c15.48,0,18.39-2.77,18.87-9.24c0.48-4.16,0.48-20.79,0.48-48.04
		v-16.63c-4.35-8.31-63.38-91-71.13-97.93c-4.84-4.62-13.55-5.54-17.42-5.54h-6.77c-2.42,0-3.39-0.92-3.39-3.7v-10.16
		c0-1.39,0.97-2.77,3.87-2.77s28.06,1.39,39.68,1.39c10.64,0,43.55-1.39,46.93-1.39c1.94,0,3.39,0.92,3.39,3.23v10.16
		c0,1.85-0.48,3.23-3.39,3.23h-7.26c-8.71,0-9.19,5.08-7.26,7.85c2.9,4.16,43.06,65.59,50.8,76.68
		c7.26-11.55,47.42-67.44,49.35-71.13c3.87-7.39,4.35-13.4-6.29-13.4h-7.74c-2.42,0-3.39-1.39-3.39-3.23v-10.16
		c0-1.85,0.97-3.23,3.39-3.23c2.9,0,27.1,1.39,41.61,1.39c8.71,0,25.64-1.39,28.55-1.39c2.42,0,3.39,0.92,3.39,3.7v9.7
		c0,2.31-0.97,3.23-2.9,3.23h-4.84c-7.74,0-13.06,1.39-17.42,3.7c-7.26,3.7-63.38,78.99-74.51,95.15V861.6z"/>
	<path class="st2" d="M1381.8,707.86c0,0,40.22,3.18,105.89,0v12.7c0,0-23.86-1.79-27.72,4.34c-3.86,6.14-2.73,11.82-2.73,12.04
		s-0.45,143.61-0.45,143.61s-0.68,18.86,12.5,22.95c9.77,2.55,20.68,1.59,20.68,1.59v12.85c0,0-40.91-1.41-53.97-1.33
		s-51.01,1.33-51.01,1.33s-1.41,0.86-1.25-4.78c0.16-5.65,0.16-7.37,0.16-7.37s0-0.55,1.65-0.47c1.65,0.08,18.98,0.16,24.39-0.94
		c5.41-1.1,8.08-2.43,10.19-8.08l0.63-13.25l0.39-32.38l0.16-35.52l-0.08-28.86l-0.39-26.58l-0.55-24.46c0,0,2.2-9.88-8.7-12.62
		c-10.9-2.74-29.77-2.27-29.77-2.27V707.86z"/>
	<path class="st2" d="M1566.5,902.45c7.21-4.23,7.68-14.58,7.68-14.58l0.86-18.35l0.24-20.23v-21.56l-0.16-30.19l-0.31-27.76
		c0,0-0.31-28.93-2.27-37.87s-10.51-10.98-13.96-11.45c-3.45-0.47-17.88-0.39-17.88-0.39l0.39-12.78h2.27c0,0,26.42,0.86,36.78,1.33
		c10.35,0.47,23.68-0.16,23.68-0.16s20.78-1.18,31.99-1.18c11.21,0,33.4,1.49,40.62,2.67c7.21,1.18,21.56,3.53,32.85,15.06
		c11.29,11.53,12.78,25.41,10.04,41.72c-2.74,16.31-19.52,23.68-19.52,23.68l-28.7,13.02c0,0,15.21,3.76,38.58,16.31
		s25.01,37.17,25.01,37.17s2.2,18.19-7.61,33.56c-9.8,15.37-17.96,17.25-31.6,21.49c-13.64,4.23-48.22,5.88-54.73,6.04
		c-6.51,0.16-55.91-1.57-55.91-1.57l-42.5,1.18V905.2C1542.35,905.2,1559.29,906.69,1566.5,902.45z M1633.62,800.05
		c0,0,18.43,0.31,34.11-9.57c15.68-9.88,16.86-28.93,16.86-28.93s1.65-26.35-20.31-36.31c-21.96-9.96-37.72-8.31-46.26-8
		s-8.7,9.33-8.7,9.33l-0.39,72.85L1633.62,800.05z M1608.92,810.01l0.08,61.71c0,0,0.55,20.54,8.08,26.74
		c7.53,6.19,13.64,10.74,33.09,9.25c19.45-1.49,29.8-10.98,33.72-14.98c3.92-4,12.47-15.45,11.37-31.84
		c-1.1-16.39-4.31-21.96-10.98-30.58s-18.35-14.74-34.89-17.68C1632.84,809.69,1608.92,810.01,1608.92,810.01z"/>
</g>
</svg>
