<?xml version="1.0" encoding="utf-8"?>
<!-- Generator: Adobe Illustrator 23.0.1, SVG Export Plug-In . SVG Version: 6.00 Build 0)  -->
<svg version="1.1" id="Layer_1" xmlns="http://www.w3.org/2000/svg" x="0px" y="0px"
     viewBox="0 0 400 80" width="400" height="80" style="enable-background:new 0 0 400 80;" xml:space="preserve">
<style type="text/css">
	.st0{fill:#231F20;}
	.st1{fill:#CD1446;}
</style>
<g>
	<g>
		<path class="st0" d="M73.72,58.44v-6.53h1.33v6.5c0,1.95,1.06,3.18,3.02,3.18c1.97,0,3.02-1.23,3.02-3.18v-6.5h1.33v6.51
			c0,2.66-1.46,4.35-4.35,4.35C75.18,62.78,73.72,61.07,73.72,58.44z"/>
		<path class="st0" d="M92.08,62.59l-6.23-8.51v8.51h-1.33V51.91h1.36l6.15,8.34v-8.34h1.33v10.68H92.08z"/>
		<path class="st0" d="M95.45,62.59V51.91h1.33v10.68H95.45z"/>
		<path class="st0" d="M102.06,62.59l-4.29-10.68h1.52l3.6,9.22l3.6-9.22h1.52l-4.31,10.68H102.06z"/>
		<path class="st0" d="M109.01,62.59V51.91H116v1.18h-5.67v3.44h5.55v1.18h-5.55v3.68H116v1.18H109.01z"/>
		<path class="st0" d="M123.89,62.59l-2.72-4.24h-2.13v4.24h-1.33V51.91H122c1.95,0,3.35,1.25,3.35,3.22c0,1.92-1.31,2.98-2.77,3.1
			l2.88,4.35H123.89z M123.97,55.13c0-1.2-0.86-2.03-2.13-2.03h-2.8v4.08h2.8C123.11,57.18,123.97,56.33,123.97,55.13z"/>
		<path class="st0" d="M126.4,61.08l0.78-1.01c0.7,0.78,1.86,1.52,3.36,1.52c1.9,0,2.51-1.02,2.51-1.84c0-2.75-6.32-1.23-6.32-5.04
			c0-1.76,1.57-2.96,3.67-2.96c1.63,0,2.9,0.54,3.79,1.49l-0.8,0.98c-0.8-0.88-1.92-1.28-3.09-1.28c-1.28,0-2.19,0.69-2.19,1.7
			c0,2.4,6.32,1.02,6.32,5.01c0,1.55-1.06,3.14-3.94,3.14C128.64,62.78,127.28,62.07,126.4,61.08z"/>
		<path class="st0" d="M136.02,62.59V51.91h1.33v10.68H136.02z"/>
		<path class="st0" d="M142.09,62.59V53.1h-3.38v-1.18h8.1v1.18h-3.39v9.49H142.09z"/>
		<path class="st0" d="M151.27,62.59v-4.51l-4.21-6.16h1.55l3.31,4.96l3.31-4.96h1.55l-4.19,6.16v4.51H151.27z"/>
		<path class="st0" d="M161.51,62.59V51.91h1.33v9.49h4.96v1.18H161.51z"/>
		<path class="st0" d="M169.28,62.59V51.91h1.33v10.68H169.28z"/>
		<path class="st0" d="M172.7,62.59V51.91h4.75c1.86,0,2.99,1.12,2.99,2.72c0,1.34-0.9,2.24-1.87,2.45
			c1.14,0.18,2.08,1.34,2.08,2.62c0,1.71-1.14,2.88-3.09,2.88H172.7z M179.07,54.82c0-0.96-0.64-1.73-1.84-1.73h-3.2v3.44h3.2
			C178.43,56.54,179.07,55.8,179.07,54.82z M179.28,59.56c0-0.98-0.67-1.84-1.98-1.84h-3.26v3.68h3.26
			C178.54,61.4,179.28,60.7,179.28,59.56z"/>
		<path class="st0" d="M188.54,62.59l-2.72-4.24h-2.13v4.24h-1.33V51.91h4.29c1.95,0,3.35,1.25,3.35,3.22c0,1.92-1.31,2.98-2.77,3.1
			l2.88,4.35H188.54z M188.62,55.13c0-1.2-0.86-2.03-2.13-2.03h-2.8v4.08h2.8C187.76,57.18,188.62,56.33,188.62,55.13z"/>
		<path class="st0" d="M199.31,62.59l-0.94-2.37h-5.31l-0.94,2.37h-1.52l4.29-10.68h1.65l4.31,10.68H199.31z M195.71,53.29
			l-2.27,5.75h4.53L195.71,53.29z"/>
		<path class="st0" d="M208,62.59l-2.72-4.24h-2.13v4.24h-1.33V51.91h4.29c1.95,0,3.35,1.25,3.35,3.22c0,1.92-1.31,2.98-2.77,3.1
			l2.88,4.35H208z M208.08,55.13c0-1.2-0.86-2.03-2.13-2.03h-2.8v4.08h2.8C207.22,57.18,208.08,56.33,208.08,55.13z"/>
		<path class="st0" d="M211.16,62.59V51.91h1.33v10.68H211.16z"/>
		<path class="st0" d="M214.58,62.59V51.91h6.99v1.18h-5.67v3.44h5.55v1.18h-5.55v3.68h5.67v1.18H214.58z"/>
		<path class="st0" d="M222.64,61.08l0.78-1.01c0.7,0.78,1.86,1.52,3.36,1.52c1.9,0,2.51-1.02,2.51-1.84c0-2.75-6.32-1.23-6.32-5.04
			c0-1.76,1.57-2.96,3.66-2.96c1.63,0,2.9,0.54,3.79,1.49l-0.8,0.98c-0.8-0.88-1.92-1.28-3.09-1.28c-1.28,0-2.19,0.69-2.19,1.7
			c0,2.4,6.32,1.02,6.32,5.01c0,1.55-1.06,3.14-3.94,3.14C224.89,62.78,223.53,62.07,222.64,61.08z"/>
	</g>
	<g>
		<path class="st1" d="M27.89,28.96l3.46-3.46h11.21l3.46,3.46v23.05l-3.46,3.46H31.35l-3.46-3.46V28.96L27.89,28.96z M54.76,25.19
			l-8.55-8.53H27.69l-8.6,8.6v30.45l8.6,8.6h18.52l8.55-8.51V25.19L54.76,25.19z"/>
		<path class="st0" d="M17.97,56.21V24.59l9.31-9.3l19.46,0l9.15,9.18l0.03,31.81l-9.25,9.25l-19.39,0L17.97,56.21L17.97,56.21z
			 M26.89,14.4l-9.79,9.79v32.42l9.73,9.85h20.26l9.79-9.8V24.19l-9.72-9.79H26.89L26.89,14.4z"/>
		<path class="st0" d="M32.37,27.71h9.2l2.19,2.19v21.2l-2.11,2.11h-9.36l-2.08-2.08V29.88L32.37,27.71L32.37,27.71z M44.64,29.58
			l-2.75-2.75h-9.91l-2.71,2.71v21.92l2.65,2.65h10.09l2.63-2.63V29.58L44.64,29.58z"/>
	</g>
	<g>
		<polygon class="st0" points="70,42.49 70,43.4 380.12,43.4 380.12,42.49 70,42.49 		"/>
		<g>
			<path class="st0" d="M82.29,21.13L82,19.11h-3.69v13.03l1.96,0.29v1.24H73.3v-1.24l1.96-0.29V19.11h-3.69l-0.29,2.01h-1.31v-3.71
				H83.6v3.71H82.29z"/>
			<path class="st0" d="M92.41,33.67V32.5l1.82-0.29v-4.44h-4.85v4.44l1.82,0.29v1.16h-6.62V32.5l1.89-0.29v-9.82l-1.89-0.29v-1.16
				h6.62v1.16l-1.82,0.29v3.83h4.85v-3.83l-1.82-0.29v-1.16h6.62v1.16l-1.89,0.29v9.82l1.89,0.29v1.16H92.41z"/>
			<path class="st0" d="M111.42,33.67h-10.99V32.5l1.89-0.29v-9.82l-1.89-0.29v-1.16h10.99v3.37h-1.24l-0.29-1.82h-4.66v3.78h2.91
				l0.29-1.63h1.09v4.71h-1.09l-0.29-1.63h-2.91v4.39h4.66l0.29-1.82h1.24V33.67z"/>
			<path class="st0" d="M126.87,33.96c-5.05,0-7.25-3.01-7.25-8.46c0-5.43,2.23-8.37,7.28-8.37s7.25,3.01,7.25,8.47
				C134.15,31.02,131.92,33.96,126.87,33.96z M126.9,18.9c-2.69,0-4.07,2.16-4.07,6.62c0,4.49,1.33,6.67,4.03,6.67
				c2.69,0,4.07-2.16,4.07-6.62C130.92,21.08,129.59,18.9,126.9,18.9z"/>
			<path class="st0" d="M143.29,33.67V32.5l1.82-0.29v-4.44h-4.85v4.44l1.82,0.29v1.16h-6.62V32.5l1.89-0.29v-9.82l-1.89-0.29v-1.16
				h6.62v1.16l-1.82,0.29v3.83h4.85v-3.83l-1.82-0.29v-1.16h6.62v1.16l-1.89,0.29v9.82l1.89,0.29v1.16H143.29z"/>
			<path class="st0" d="M151.49,33.67V32.5l1.89-0.29v-9.82l-1.89-0.29v-1.16h6.7v1.16l-1.89,0.29v9.82l1.89,0.29v1.16H151.49z"/>
			<path class="st0" d="M165.36,33.91c-4.29,0-6.16-2.4-6.16-6.62c0-4.22,1.89-6.57,6.18-6.57c4.29,0,6.16,2.4,6.16,6.62
				C171.55,31.56,169.66,33.91,165.36,33.91z M165.39,22.39c-2.04,0-3.13,1.48-3.13,4.9c0,3.44,1.04,4.95,3.08,4.95
				c2.04,0,3.15-1.48,3.15-4.9C168.49,23.89,167.42,22.39,165.39,22.39z"/>
			<path class="st0" d="M184.81,33.96c-2.81,0-5.07-0.97-5.07-0.97v-3.47h1.38l0.32,2.23c0,0,1.04,0.36,2.89,0.36
				c1.89,0,3.59-0.63,3.59-2.69c0-1.87-1.31-2.13-2.91-2.67c-2.55-0.85-5.24-1.58-5.24-5.07c0-2.84,1.77-4.56,5.48-4.56
				c1.7,0,3.47,0.39,4.85,0.92v3.25h-1.38l-0.31-2.09c0,0-1.46-0.31-2.86-0.31c-1.41,0-2.86,0.48-2.86,2.35
				c0,4.05,8.15,1.38,8.15,7.86C190.83,32.16,188.84,33.96,184.81,33.96z"/>
			<path class="st0" d="M202.33,24.45l-0.29-1.96h-2.81v9.73l1.89,0.29v1.16h-6.69V32.5l1.89-0.29v-9.73h-2.81l-0.29,1.96h-1.24
				v-3.52h11.59v3.52H202.33z"/>
			<path class="st0" d="M211.35,33.67V32.5l1.82-0.29l-0.9-2.3h-4.85l-0.9,2.3l1.82,0.29v1.16h-5.55V32.5l1.82-0.29l4.37-11.28h2.79
				l4.37,11.28l1.82,0.29v1.16H211.35z M209.84,23.38L208,28.43h3.69L209.84,23.38z"/>
			<path class="st0" d="M227.52,24.45l-0.29-1.96h-2.81v9.73l1.89,0.29v1.16h-6.69V32.5l1.89-0.29v-9.73h-2.81l-0.29,1.96h-1.24
				v-3.52h11.59v3.52H227.52z"/>
			<path class="st0" d="M240.86,33.67h-10.99V32.5l1.89-0.29v-9.82l-1.89-0.29v-1.16h10.99v3.37h-1.24l-0.29-1.82h-4.66v3.78h2.91
				l0.29-1.63h1.09v4.71h-1.09l-0.29-1.63h-2.91v4.39h4.66l0.29-1.82h1.24V33.67z"/>
			<path class="st0" d="M263.01,18.94v8.3c0,2.79-0.17,4-1.48,5.31c-0.95,0.95-2.5,1.41-4.8,1.41c-2.28,0-3.98-0.63-5.05-1.7
				c-1.38-1.38-1.24-3.44-1.24-5.24v-8.08l-1.96-0.29v-1.24h6.98v1.24l-1.97,0.29v9.51c0,2.67,1.48,3.74,3.76,3.74
				c1.21,0,2.21-0.24,2.86-0.95c0.58-0.61,0.9-1.55,0.9-2.79v-9.51l-1.97-0.29v-1.24h5.92v1.24L263.01,18.94z"/>
			<path class="st0" d="M278.31,22.39v11.28h-2.28l-6.48-9.1v7.64l1.89,0.29v1.16h-5.7V32.5l1.89-0.29v-9.82l-1.89-0.29v-1.16h4.44
				l6.21,8.68v-7.23l-1.89-0.29v-1.16h5.7v1.16L278.31,22.39z"/>
			<path class="st0" d="M281.7,33.67V32.5l1.89-0.29v-9.82l-1.89-0.29v-1.16h6.69v1.16l-1.89,0.29v9.82l1.89,0.29v1.16H281.7z"/>
			<path class="st0" d="M302.61,22.39l-4.24,11.28h-2.81l-4.24-11.28l-1.82-0.29v-1.16h6.6v1.16l-1.82,0.29l3.23,8.73l3.2-8.73
				l-1.82-0.29v-1.16h5.55v1.16L302.61,22.39z"/>
			<path class="st0" d="M316.41,33.67h-10.99V32.5l1.89-0.29v-9.82l-1.89-0.29v-1.16h10.99v3.37h-1.24l-0.29-1.82h-4.66v3.78h2.91
				l0.29-1.63h1.09v4.71h-1.09l-0.29-1.63h-2.91v4.39h4.66l0.29-1.82h1.24V33.67z"/>
			<path class="st0" d="M327.57,33.67l-1.19-2.91c-0.8-1.94-1.29-2.84-2.98-2.84h-0.22v4.29L325,32.5v1.16h-6.62V32.5l1.89-0.29
				v-9.82l-1.89-0.29v-1.16h6.43c1.31,0,2.84,0.07,3.83,0.99c0.66,0.61,1.02,1.43,1.02,2.38c0,1.48-0.97,2.81-2.31,3.23
				c1.07,0.8,1.99,3.42,2.52,4.68l1.82,0.29v1.16H327.57z M326.21,22.87c-0.49-0.51-1.53-0.46-2.18-0.46h-0.85v4.07h0.51
				c0.82,0,1.97,0.1,2.57-0.58c0.39-0.44,0.48-0.95,0.48-1.5C326.74,23.84,326.62,23.31,326.21,22.87z"/>
			<path class="st0" d="M337.44,33.91c-2.38,0-4.37-0.8-4.37-0.8v-3.3h1.31l0.32,2.09c0,0,0.92,0.27,2.35,0.27
				c1.55,0,2.74-0.51,2.74-1.89c0-0.97-0.53-1.31-1.33-1.58c-2.35-0.8-5.36-1.14-5.36-4.32c0-2.28,1.58-3.66,4.71-3.66
				c1.43,0,2.91,0.29,4.19,0.75v3.15h-1.31l-0.32-1.99c0,0-1.07-0.24-2.26-0.24c-1.19,0-2.23,0.41-2.23,1.65
				c0,2.84,6.72,0.95,6.72,5.99C342.61,32.5,340.81,33.91,337.44,33.91z"/>
			<path class="st0" d="M344.3,33.67V32.5l1.89-0.29v-9.82l-1.89-0.29v-1.16H351v1.16l-1.89,0.29v9.82L351,32.5v1.16H344.3z"/>
			<path class="st0" d="M362.74,24.45l-0.29-1.96h-2.81v9.73l1.89,0.29v1.16h-6.69V32.5l1.89-0.29v-9.73h-2.81l-0.29,1.96h-1.24
				v-3.52h11.59v3.52H362.74z"/>
			<path class="st0" d="M377.36,22.39l-3.71,5.75v4.07l1.89,0.29v1.16h-6.7V32.5l1.89-0.29v-4.07l-3.76-5.75l-1.82-0.29v-1.16h6.74
				v1.16l-1.82,0.29l2.62,4.12l2.6-4.12l-1.75-0.29v-1.16h5.63v1.16L377.36,22.39z"/>
		</g>
	</g>
</g>
</svg>
