<svg id="Layer_1" data-name="Layer 1" xmlns="http://www.w3.org/2000/svg" xmlns:xlink="http://www.w3.org/1999/xlink" viewBox="0 0 598 201.37" width="598" height="201.37"><defs><style>.cls-1{fill:url(#Web_Shield_blend);}.cls-2{fill:#282728;}.cls-3{fill:#c5050c;}.cls-4{fill:#fff;}</style><radialGradient id="Web_Shield_blend" cx="539.53" cy="46.19" r="162.71" gradientTransform="translate(-212.7 78.22) scale(0.51 0.51)" gradientUnits="userSpaceOnUse"><stop offset="0.17" stop-color="#fff"/><stop offset="0.3" stop-color="#f6ede4"/><stop offset="0.69" stop-color="#debe9b"/><stop offset="0.87" stop-color="#d4ac7f"/></radialGradient></defs><title>uw-web-logo-flush</title><path class="cls-1" d="M65,202a8.72,8.72,0,0,1-2.43-2.68l-0.14-.21-0.25-.06C20.38,189.34-2.91,125.15,2.34,73.64a110.07,110.07,0,0,1,3-16.74,81.64,81.64,0,0,1,5.36-14.74,54.33,54.33,0,0,1,8.66-13c6.95-7.61,15.53-11.7,24.83-11.83A0.76,0.76,0,0,0,45,16.71c1.63-3.32,5.82-5.63,8.94-6.07l0.44-.06,0.11-.43C54.6,9.81,56.59,2,65,2S75.53,10,75.55,10.12l0.1,0.43,0.44,0.06C79.23,11,83.39,13.4,85,16.7a0.75,0.75,0,0,0,.86.59c9.31,0.13,17.89,4.22,24.84,11.83a55.41,55.41,0,0,1,9.79,15.48l0.54,1.27a98.18,98.18,0,0,1,6.66,27.76c5.24,51.51-18,115.7-59.86,125.45l-0.25.06-0.14.21A8.72,8.72,0,0,1,65,202Z" transform="translate(-1 -1.32)"/><path class="cls-2" d="M128.31,73.58a114.18,114.18,0,0,0-2-12.68,91.84,91.84,0,0,0-3.22-11.37A72.18,72.18,0,0,0,118,38.16a52.21,52.21,0,0,0-6.82-9.47c-7-7.69-15.68-11.92-25.29-12.06H85.65c-1.56-3.42-5.86-6.19-9.6-6.72,0,0-2-8.56-11-8.6s-11,8.6-11,8.6c-3.74.52-8,3.3-9.6,6.72H44.19C34.58,16.77,25.92,21,18.9,28.7a52.21,52.21,0,0,0-6.82,9.47A72.18,72.18,0,0,0,6.95,49.53,91.84,91.84,0,0,0,3.73,60.9a114.18,114.18,0,0,0-2,12.68C-3.57,125.76,19.9,189.89,62.11,199.73c0.64,1,2.11,3,2.92,3s2.28-2,2.92-3C110.15,189.89,133.62,125.76,128.31,73.58ZM65,3.33A9,9,0,0,1,74.08,9.7a11.21,11.21,0,0,0-8.9,5.7,0.4,0.4,0,0,1-.16.22,0.36,0.36,0,0,1-.16-0.22A11.21,11.21,0,0,0,56,9.7,9,9,0,0,1,65,3.33Zm-4.29,9.89a8.11,8.11,0,0,1,3.67,4.86A1.06,1.06,0,0,0,65,19a1.06,1.06,0,0,0,.62-1,8.11,8.11,0,0,1,3.67-4.86,9.66,9.66,0,0,1,13.93,3.66,30.86,30.86,0,0,0-3.85,1,15.23,15.23,0,0,0-5.48,3A21.69,21.69,0,0,0,66.9,35C65.36,51.83,84.71,49.18,85.69,49.1c2.5,0,4.39-3.94,4.39-9.16s-1.94-9.16-4.39-9.16c-1.5,0-4.09,1.2-4.33,5.87-0.17,3.29,1.44,7.65,3.51,7.93,1.08,0.14,2.06-1.76,2.37-3.69,0.27-1.68.13-4.31-1.37-4.69a0.88,0.88,0,0,0-1.07.65c-0.11.43,0.93,1.16,0.89,3.1-0.06,2.89-3,1.44-2.57-3.14C83.47,32.73,85.54,33,85.63,33c1.16,0,2.91,2.42,2.91,7,0,4-1.95,8.37-5.66,6.11-3.13-2.29-4.37-7.56-3.5-11.64,0.39-1.87,2-7,7.22-7,7.52,0,14.53,4,20.12,11.3-0.61,2-4.49,9.46-16.8,16.64-0.26.13-.65,0.36-0.67,0.35a25.34,25.34,0,0,0-11.38-2.25,62.46,62.46,0,0,0-10.7,1.7,9.43,9.43,0,0,1-2.12.35h0a9.43,9.43,0,0,1-2.12-.35,62.46,62.46,0,0,0-10.7-1.7,25.34,25.34,0,0,0-11.38,2.25s-0.41-.22-0.67-0.35C27.83,48.2,24,40.71,23.34,38.74c5.59-7.35,12.6-11.3,20.12-11.3,5.21,0,6.83,5.1,7.22,7,0.87,4.08-.37,9.35-3.5,11.64-3.72,2.27-5.66-2.07-5.66-6.11,0-4.53,1.75-7,2.91-7,0.09,0,2.16-.25,2.51,3.81,0.39,4.58-2.51,6-2.57,3.14,0-1.93,1-2.67.89-3.1a0.88,0.88,0,0,0-1.07-.65c-1.5.38-1.64,3-1.37,4.69,0.31,1.93,1.29,3.83,2.37,3.69,2.08-.27,3.68-4.64,3.51-7.93-0.24-4.68-2.84-5.87-4.33-5.87-2.45,0-4.39,3.94-4.39,9.16s1.89,9.16,4.39,9.16c1,0.08,20.33,2.73,18.79-14.14a21.69,21.69,0,0,0-7-14.07,15.23,15.23,0,0,0-5.48-3,30.86,30.86,0,0,0-3.85-1A9.66,9.66,0,0,1,60.73,13.22ZM24.14,84a75,75,0,0,0-.73,7.63,102.47,102.47,0,0,0,4.72,35.17,114.16,114.16,0,0,0,9.54,21.5c-4,3.59-9.87,5-11.87,5.4C15.11,132.41,9.67,105,10.87,80.25A37.22,37.22,0,0,0,24.14,84ZM10.95,78.89C12,62,16.24,48.78,22.45,40c1.1,2.87,5.93,10,17.06,16.56C30,62.21,25.77,74,24.33,82.74A36.46,36.46,0,0,1,10.95,78.89Zm27.35,70.47c7.09,12.23,14.13,19.53,19.49,23.38-1.94,4.93-6.55,8.8-8.16,10-9.25-6.22-17.08-16.08-23.24-28C28.75,154.32,34.31,152.86,38.29,149.36Zm20.56,24.13A28.13,28.13,0,0,0,65,176.88a28.13,28.13,0,0,0,6.17-3.39c2,4.79,6.23,8.51,8.15,10a43.12,43.12,0,0,1-8.26,4.11c0-.1,0-0.2,0-0.3-0.59-3-4.57-3.67-6-3.67s-5.43.63-6,3.67c0,0.1,0,.2,0,0.3a43.12,43.12,0,0,1-8.26-4.11C52.62,182,56.84,178.28,58.86,173.49Zm13.41-.75c5.36-3.85,12.4-11.15,19.49-23.38,4,3.51,9.54,5,11.91,5.44-6.16,11.9-14,21.77-23.24,28C78.81,181.54,74.21,177.67,72.26,172.74Zm20.12-24.48a114.16,114.16,0,0,0,9.54-21.5,101.74,101.74,0,0,0,3.83-16.89,102.29,102.29,0,0,0,.89-18.28,75,75,0,0,0-.73-7.63,37.22,37.22,0,0,0,13.26-3.71c1.21,24.73-4.23,52.16-14.92,73.41C102.26,153.27,96.34,151.85,92.39,148.26Zm13.33-65.53c-1.44-8.76-5.78-20.3-15.17-26.21C101.68,50,106.5,42.82,107.6,40c6.21,8.82,10.49,22.06,11.5,38.93A36.46,36.46,0,0,1,105.72,82.74ZM58.14,196a53.73,53.73,0,0,1-13.54-6.76,63.44,63.44,0,0,1-7.49-6,71.75,71.75,0,0,1-5.43-5.69q-1.74-2-3.36-4.18A109.56,109.56,0,0,1,15.47,151a147.42,147.42,0,0,1-7.9-23.53,162.55,162.55,0,0,1-4.13-25,149,149,0,0,1-.16-25C3.65,73,4.18,68.54,5,64.14A90.72,90.72,0,0,1,8.28,51.21,71.6,71.6,0,0,1,13.13,40a48.29,48.29,0,0,1,7.26-10.23,37.36,37.36,0,0,1,9.15-7.16,32.13,32.13,0,0,1,4.46-2q1.17-.42,2.37-0.75a20.35,20.35,0,0,1,2.38-.6,32.34,32.34,0,0,1,5.91-.48,17.5,17.5,0,0,1,9,2.42,18.44,18.44,0,0,1,7.69,13.95c0.91,10.42-9.71,12.06-11.79,12-0.32,0-.49-0.3.55-1.37A15.06,15.06,0,0,0,52.48,34c-1-4.78-4.38-8.52-9.27-8.51-7.32,0-13.86,3.68-18.73,9s-8,11.59-10.31,18.15A98.48,98.48,0,0,0,9.1,78.9a144,144,0,0,0,.53,24.55,158.52,158.52,0,0,0,4.5,24.44,140.31,140.31,0,0,0,8.14,22.73A100,100,0,0,0,34.9,171.44,59.73,59.73,0,0,0,53.67,187.3a41.86,41.86,0,0,0,5.09,2.21,15.49,15.49,0,0,0,1.53,7.16A15.28,15.28,0,0,1,58.14,196Zm7.6,3.57a1.39,1.39,0,0,1-.72.48,1.39,1.39,0,0,1-.72-0.48c-1.81-2.27-4.5-6.67-3.49-11.93,0.29-1.48,2.78-2.15,4.21-2.16s3.92,0.68,4.21,2.16C70.25,192.92,67.55,197.32,65.75,199.59Zm60.87-97.14a162.55,162.55,0,0,1-4.13,25,147.42,147.42,0,0,1-7.9,23.53,109.56,109.56,0,0,1-12.86,22.35q-1.62,2.14-3.36,4.18a71.75,71.75,0,0,1-5.43,5.69,63.44,63.44,0,0,1-7.49,6A53.73,53.73,0,0,1,71.91,196a15.28,15.28,0,0,1-2.15.64,15.49,15.49,0,0,0,1.53-7.16,41.86,41.86,0,0,0,5.09-2.21,59.73,59.73,0,0,0,18.77-15.86,100,100,0,0,0,12.64-20.81,140.31,140.31,0,0,0,8.14-22.73,158.52,158.52,0,0,0,4.5-24.44A144,144,0,0,0,121,78.9a98.48,98.48,0,0,0-5.08-26.25c-2.32-6.56-5.57-13-10.31-18.15s-11.4-9-18.73-9c-4.89,0-8.27,3.73-9.27,8.51A15.06,15.06,0,0,0,80,45.8c1,1.07.87,1.37,0.55,1.37-2.08,0-12.7-1.63-11.79-12a18.44,18.44,0,0,1,7.69-13.95,17.5,17.5,0,0,1,9-2.42,32.34,32.34,0,0,1,5.91.48,20.23,20.23,0,0,1,2.38.6q1.2,0.33,2.37.75a32.13,32.13,0,0,1,4.46,2,37.36,37.36,0,0,1,9.15,7.16A48.29,48.29,0,0,1,116.92,40a71.6,71.6,0,0,1,4.85,11.22,90.72,90.72,0,0,1,3.29,12.93c0.8,4.4,1.34,8.85,1.71,13.31A149,149,0,0,1,126.61,102.45Z" transform="translate(-1 -1.32)"/><path class="cls-3" d="M104.35,91.92c-0.26-6.2-2.07-25.14-15-33.35a21.72,21.72,0,0,0-10.12-2.79c-6.33-.41-11,2-14.17,2.09H64.95c-3.16-.09-7.88-2.51-14.21-2.09a21.58,21.58,0,0,0-10.08,2.79C27.77,66.78,26,85.72,25.7,91.92a100.41,100.41,0,0,0,8.17,43.8c8.92,19.63,19.68,33.51,30.31,38.23L65,174.33l0.86-.38c10.62-4.72,21.39-18.6,30.3-38.23A100.42,100.42,0,0,0,104.35,91.92Z" transform="translate(-1 -1.32)"/><path class="cls-4" d="M84.17,77v4.29L85,81.18a3.09,3.09,0,0,1,.41,0,2.71,2.71,0,0,1,1.89.64,2.92,2.92,0,0,1,.49,2.56s-8.62,37.35-10.26,44.46c-1.88-9-12.14-58.08-12.14-58.08l0-.21h-2l0,0.22-8.9,57.35L44.21,84.4a6.22,6.22,0,0,1,0-.64,2.93,2.93,0,0,1,.71-2.19,2.25,2.25,0,0,1,1.66-.51l0.85,0.11V77H33v4.05l0.64,0.1a2.67,2.67,0,0,1,2.18,1.92L53.4,158.47l0,0.2H56l0-.22c0.08-.5,6.94-45.36,8.22-53.76,1.63,8.37,10.36,53.27,10.45,53.77l0,0.21H77L93.7,83.06A2.25,2.25,0,0,1,96,81.32h0.17L97,81.39V77H84.17Z" transform="translate(-1 -1.32)"/><path class="cls-3" d="M208.3,77c7,2.51,4,10,2.42,15.33l-10.13,34L188.14,86.14c-1.26-4.09-1.87-7.06-1.34-9.38H174.16V77c4.93,2.61,3.14,8.64,1.44,14.31L165.1,126.66,151.76,83.45c-0.54-1.77-1.43-4.65-1.07-6.69H137.6V77c4.48,3.16,5.83,9.2,7.44,14.31l10.58,34.29c3,9.58,3.76,8.92,11.91,15.06l14-46.93,9.85,32c3,9.57,3.59,9.11,11.83,15l18.9-63.93H208.3V77Z" transform="translate(-1 -1.32)"/><path class="cls-3" d="M225.15,77c4.57,1.77,3.94,8.55,3.94,12.83v35c0,4.18.54,11.06-3.94,12.73v0.28h17v-0.28c-4.48-1.77-3.95-8.56-3.95-12.73v-35c0-4.18-.53-11.06,3.95-12.83V76.76h-17V77Z" transform="translate(-1 -1.32)"/><path class="cls-3" d="M257.85,90.42c0-6.41,6.46-8.46,11.56-8.46a20,20,0,0,1,14.07,5.85V77.31a43.6,43.6,0,0,0-13.36-2c-10.93,0-22.49,4.47-22.49,16.17,0,19.7,30.82,17.1,30.82,31.6,0,6.5-7.7,9.66-12.81,9.66A30.39,30.39,0,0,1,246,125l2.6,11.61a44.84,44.84,0,0,0,16,2.79c14,0,24-9.3,24-19.23C288.68,103,257.85,103.14,257.85,90.42Z" transform="translate(-1 -1.32)"/><path class="cls-3" d="M325,131.68c-13.8,0-22.77-12.18-22.77-25.84,0-13.48,8.6-22.86,21-22.86a30.35,30.35,0,0,1,16.58,5.3V77.59a69.2,69.2,0,0,0-16.31-2.33c-18.37,0-31.46,12.73-31.46,32,0,19.89,13.09,32.15,34.24,32.15a30.71,30.71,0,0,0,13.53-2.79l4.57-10.77h-0.27C338.44,129.16,331.72,131.68,325,131.68Z" transform="translate(-1 -1.32)"/><path class="cls-3" d="M376.67,75.18c-18.81-.47-33.6,14.3-33.6,32,0,19.06,15,32.25,32.71,32.25s33-13.76,33-32.72A31.45,31.45,0,0,0,376.67,75.18Zm-0.44,57.51c-14.07,0-22.95-13.38-22.95-26.39,0-14,8.88-24.44,22.77-24.44,14.15,0,22.48,13.11,22.48,26.67C398.54,122.39,389.85,132.69,376.23,132.69Z" transform="translate(-1 -1.32)"/><path class="cls-3" d="M454.79,77c4.75,2.79,4.66,6.51,4.66,11.71V124L426.65,81l-1.26-1.86a5.72,5.72,0,0,1-1.34-2.33V76.76H411V77c4.66,2.79,4.66,6.51,4.66,11.71v37.08c0,5.2,0,8.91-4.75,11.8v0.28h15.86v-0.28c-4.75-2.89-4.66-6.6-4.66-11.8v-36l30.74,40.42c3.94,5.3,6.72,8.37,13.08,10.6V88.74c0-5.2,0-8.92,4.66-11.71V76.76H454.79V77Z" transform="translate(-1 -1.32)"/><path class="cls-3" d="M483.67,90.42c0-6.41,6.45-8.46,11.56-8.46a20,20,0,0,1,14.07,5.85V77.31a43.51,43.51,0,0,0-13.35-2c-10.92,0-22.49,4.47-22.49,16.17,0,19.7,30.82,17.1,30.82,31.6,0,6.5-7.7,9.66-12.82,9.66A30.41,30.41,0,0,1,471.84,125l2.6,11.61a44.89,44.89,0,0,0,16,2.79c14,0,24-9.3,24-19.23C514.5,103,483.67,103.14,483.67,90.42Z" transform="translate(-1 -1.32)"/><path class="cls-3" d="M517.88,77c4.57,1.77,3.94,8.55,3.94,12.83v35c0,4.18.54,11.06-3.94,12.73v0.28h17v-0.28c-4.48-1.77-3.94-8.56-3.94-12.73v-35c0-4.18-.55-11.06,3.94-12.83V76.76h-17V77Z" transform="translate(-1 -1.32)"/><path class="cls-3" d="M583.23,76.76V77c4.76,2.79,4.67,6.51,4.67,11.71V124L555.09,81l-1.26-1.86a6,6,0,0,1-1.34-2.33V76.76H539.41V77c4.66,2.79,4.66,6.51,4.66,11.71v37.08c0,5.2,0,8.91-4.74,11.8v0.28h15.86v-0.28c-4.75-2.89-4.66-6.6-4.66-11.8v-36l30.73,40.42c3.94,5.3,6.73,8.37,13.08,10.6V88.74c0-5.2,0-8.92,4.66-11.71V76.76H583.23Z" transform="translate(-1 -1.32)"/><path class="cls-2" d="M166.52,151.8V162.6a6.41,6.41,0,0,1-.79,3.24,5.27,5.27,0,0,1-2.3,2.13,8,8,0,0,1-3.59.75,6.7,6.7,0,0,1-4.83-1.64,5.94,5.94,0,0,1-1.72-4.52V151.8H156v10.56a4.21,4.21,0,0,0,1,3,4,4,0,0,0,2.94,1q3.86,0,3.86-4V151.8h2.73Z" transform="translate(-1 -1.32)"/><path class="cls-2" d="M185,168.48h-3.34l-8.2-13.29h-0.09l0.06,0.74q0.16,2.12.16,3.88v8.67h-2.48V151.8h3.31L182.56,165h0.07c0-.18,0-0.81-0.09-1.91s-0.07-2-.07-2.58V151.8H185v16.68Z" transform="translate(-1 -1.32)"/><path class="cls-2" d="M189.88,168.48V151.8h2.73v16.68h-2.73Z" transform="translate(-1 -1.32)"/><path class="cls-2" d="M207,151.8h2.83L204,168.48h-2.87l-5.82-16.68h2.81l3.48,10.37q0.27,0.74.58,1.91c0.2,0.78.34,1.36,0.4,1.74,0.1-.58.25-1.25,0.46-2s0.37-1.32.5-1.69Z" transform="translate(-1 -1.32)"/><path class="cls-2" d="M222,168.48h-9.44V151.8H222v2.31H215.3v4.54h6.29v2.28H215.3v5.24H222v2.32Z" transform="translate(-1 -1.32)"/><path class="cls-2" d="M228.86,161.82v6.66h-2.73V151.8h4.71a7.75,7.75,0,0,1,4.78,1.21,4.35,4.35,0,0,1,1.55,3.65,4.56,4.56,0,0,1-3.24,4.44l4.71,7.38h-3.1l-4-6.66h-2.69Zm0-2.26h1.9a4.3,4.3,0,0,0,2.76-.71,2.56,2.56,0,0,0,.86-2.1,2.26,2.26,0,0,0-.92-2,5.08,5.08,0,0,0-2.79-.62h-1.8v5.45Z" transform="translate(-1 -1.32)"/><path class="cls-2" d="M251.2,164a4.2,4.2,0,0,1-1.61,3.49,7,7,0,0,1-4.44,1.27,10.58,10.58,0,0,1-4.63-.88v-2.58a12.47,12.47,0,0,0,2.43.84,10.18,10.18,0,0,0,2.39.31,3.81,3.81,0,0,0,2.39-.62,2,2,0,0,0,.77-1.66,2.07,2.07,0,0,0-.71-1.59,10.71,10.71,0,0,0-2.92-1.54,7.69,7.69,0,0,1-3.22-2.11,4.46,4.46,0,0,1-.94-2.85,4,4,0,0,1,1.48-3.29,6.16,6.16,0,0,1,4-1.2,11.68,11.68,0,0,1,4.77,1.05l-0.87,2.22a10.4,10.4,0,0,0-4-.94,3,3,0,0,0-2,.58,1.89,1.89,0,0,0-.69,1.52,2.12,2.12,0,0,0,.27,1.11,2.79,2.79,0,0,0,.9.87,14.9,14.9,0,0,0,2.26,1.08,12.56,12.56,0,0,1,2.69,1.43A4.24,4.24,0,0,1,250.8,162,4.54,4.54,0,0,1,251.2,164Z" transform="translate(-1 -1.32)"/><path class="cls-2" d="M254.94,168.48V151.8h2.73v16.68h-2.73Z" transform="translate(-1 -1.32)"/><path class="cls-2" d="M268.35,168.48h-2.73V154.14h-4.91V151.8h12.54v2.34h-4.91v14.34Z" transform="translate(-1 -1.32)"/><path class="cls-2" d="M281,159.41L285,151.8h3L282.39,162v6.47h-2.74v-6.38l-5.53-10.3h3Z" transform="translate(-1 -1.32)"/><path class="cls-2" d="M312.06,160.12a9.11,9.11,0,0,1-2,6.33,8.56,8.56,0,0,1-11.57,0,9.17,9.17,0,0,1-2-6.37,9,9,0,0,1,2-6.34,7.51,7.51,0,0,1,5.81-2.21,7.35,7.35,0,0,1,5.75,2.25A9.12,9.12,0,0,1,312.06,160.12Zm-12.73,0a7.48,7.48,0,0,0,1.24,4.67,5.06,5.06,0,0,0,7.35,0,9.47,9.47,0,0,0,0-9.34,4.33,4.33,0,0,0-3.66-1.59,4.42,4.42,0,0,0-3.7,1.59A7.39,7.39,0,0,0,299.32,160.12Z" transform="translate(-1 -1.32)"/><path class="cls-2" d="M318.86,168.48h-2.7V151.8h9.41v2.31h-6.71v5.21h6.28v2.32h-6.28v6.84Z" transform="translate(-1 -1.32)"/><path class="cls-2" d="M351.08,168.48h-3l-2.83-9.95q-0.18-.65-0.46-1.88T344.5,155c-0.08.48-.2,1.12-0.37,1.89s-0.31,1.35-.43,1.73l-2.76,9.9h-3l-2.16-8.35-2.19-8.33h2.79l2.38,9.72a41.18,41.18,0,0,1,.8,4.13c0.08-.65.21-1.37,0.38-2.17s0.32-1.45.46-1.94l2.72-9.74h2.7l2.78,9.79a36.25,36.25,0,0,1,.85,4.06,29.4,29.4,0,0,1,.82-4.15l2.37-9.7h2.76Z" transform="translate(-1 -1.32)"/><path class="cls-2" d="M358.3,168.48V151.8H361v16.68H358.3Z" transform="translate(-1 -1.32)"/><path class="cls-2" d="M375.56,164a4.19,4.19,0,0,1-1.61,3.49,7,7,0,0,1-4.44,1.27,10.58,10.58,0,0,1-4.63-.88v-2.58a12.4,12.4,0,0,0,2.43.84,10.16,10.16,0,0,0,2.39.31,3.82,3.82,0,0,0,2.39-.62,2,2,0,0,0,.77-1.66,2.07,2.07,0,0,0-.71-1.59,10.67,10.67,0,0,0-2.92-1.54A7.73,7.73,0,0,1,366,158.9a4.46,4.46,0,0,1-.93-2.85,4,4,0,0,1,1.48-3.29,6.16,6.16,0,0,1,4-1.2,11.67,11.67,0,0,1,4.77,1.05l-0.86,2.22a10.41,10.41,0,0,0-4-.94,3,3,0,0,0-2,.58,1.89,1.89,0,0,0-.68,1.52,2.12,2.12,0,0,0,.27,1.11,2.77,2.77,0,0,0,.9.87,15.19,15.19,0,0,0,2.26,1.08,12.49,12.49,0,0,1,2.69,1.43,4.21,4.21,0,0,1,1.26,1.49A4.5,4.5,0,0,1,375.56,164Z" transform="translate(-1 -1.32)"/><path class="cls-2" d="M386.4,153.9a4.5,4.5,0,0,0-3.7,1.67,8.76,8.76,0,0,0,0,9.24,4.57,4.57,0,0,0,3.75,1.57,9.88,9.88,0,0,0,2.06-.21q1-.21,2.06-0.54V168a12.48,12.48,0,0,1-4.45.74,7.11,7.11,0,0,1-5.62-2.22,9.28,9.28,0,0,1-2-6.35,10.28,10.28,0,0,1,1-4.55,6.79,6.79,0,0,1,2.75-3,8.35,8.35,0,0,1,4.23-1,10.54,10.54,0,0,1,4.72,1.07l-1,2.27a14.58,14.58,0,0,0-1.79-.7A6.41,6.41,0,0,0,386.4,153.9Z" transform="translate(-1 -1.32)"/><path class="cls-2" d="M409.44,160.12a9.1,9.1,0,0,1-2,6.33,8.56,8.56,0,0,1-11.57,0,9.18,9.18,0,0,1-2-6.37,9.06,9.06,0,0,1,2-6.34,7.51,7.51,0,0,1,5.81-2.21,7.35,7.35,0,0,1,5.75,2.25A9.11,9.11,0,0,1,409.44,160.12Zm-12.73,0a7.48,7.48,0,0,0,1.24,4.67,5.06,5.06,0,0,0,7.36,0,9.47,9.47,0,0,0,0-9.34,4.33,4.33,0,0,0-3.66-1.59,4.42,4.42,0,0,0-3.7,1.59A7.41,7.41,0,0,0,396.71,160.12Z" transform="translate(-1 -1.32)"/><path class="cls-2" d="M427.43,168.48h-3.34l-8.2-13.29H415.8l0.06,0.74q0.16,2.12.16,3.88v8.67h-2.48V151.8h3.31L425,165h0.07c0-.18,0-0.81-0.09-1.91s-0.07-2-.07-2.58V151.8h2.5v16.68Z" transform="translate(-1 -1.32)"/><path class="cls-2" d="M442,164a4.19,4.19,0,0,1-1.61,3.49,7,7,0,0,1-4.44,1.27,10.58,10.58,0,0,1-4.63-.88v-2.58a12.4,12.4,0,0,0,2.43.84,10.16,10.16,0,0,0,2.39.31,3.82,3.82,0,0,0,2.39-.62,2,2,0,0,0,.77-1.66,2.07,2.07,0,0,0-.71-1.59,10.67,10.67,0,0,0-2.92-1.54,7.73,7.73,0,0,1-3.22-2.11,4.46,4.46,0,0,1-.93-2.85,4,4,0,0,1,1.48-3.29,6.16,6.16,0,0,1,4-1.2,11.67,11.67,0,0,1,4.77,1.05l-0.86,2.22a10.41,10.41,0,0,0-4-.94,3,3,0,0,0-2,.58,1.89,1.89,0,0,0-.68,1.52,2.12,2.12,0,0,0,.27,1.11,2.77,2.77,0,0,0,.9.87,15.19,15.19,0,0,0,2.26,1.08,12.49,12.49,0,0,1,2.69,1.43,4.21,4.21,0,0,1,1.26,1.49A4.5,4.5,0,0,1,442,164Z" transform="translate(-1 -1.32)"/><path class="cls-2" d="M445.71,168.48V151.8h2.73v16.68h-2.73Z" transform="translate(-1 -1.32)"/><path class="cls-2" d="M467.26,168.48h-3.35l-8.2-13.29h-0.09l0.06,0.74q0.16,2.12.16,3.88v8.67h-2.48V151.8h3.31L464.85,165h0.07c0-.18,0-0.81-0.09-1.91s-0.07-2-.07-2.58V151.8h2.5v16.68Z" transform="translate(-1 -1.32)"/><path class="cls-2" d="M470.91,163.29v-2.17h9.81v2.17h-9.81Z" transform="translate(-1 -1.32)"/><path class="cls-2" d="M491.58,168.48l-4.84-13.93h-0.09q0.19,3.11.19,5.82v8.11h-2.48V151.8h3.85l4.63,13.27h0.07l4.77-13.27h3.86v16.68h-2.63v-8.25q0-1.24.06-3.24t0.11-2.42H499l-5,13.91h-2.41Z" transform="translate(-1 -1.32)"/><path class="cls-2" d="M516.79,168.48l-1.66-4.63h-6.38l-1.63,4.63h-2.88l6.24-16.75h3l6.24,16.75h-2.9Zm-2.38-7L512.85,157q-0.17-.46-0.47-1.44T512,154.09a25.61,25.61,0,0,1-.9,3.07l-1.51,4.35h4.86Z" transform="translate(-1 -1.32)"/><path class="cls-2" d="M536,160a8.32,8.32,0,0,1-2.29,6.32q-2.3,2.19-6.61,2.18h-4.67V151.8h5.16a8.53,8.53,0,0,1,6.2,2.15A8,8,0,0,1,536,160Zm-2.88.09q0-6-5.6-6h-2.36v12.11h1.94Q533.1,166.19,533.1,160.07Z" transform="translate(-1 -1.32)"/><path class="cls-2" d="M540.07,168.48V151.8h2.73v16.68h-2.73Z" transform="translate(-1 -1.32)"/><path class="cls-2" d="M557.33,164a4.2,4.2,0,0,1-1.61,3.49,7,7,0,0,1-4.44,1.27,10.56,10.56,0,0,1-4.63-.88v-2.58a12.38,12.38,0,0,0,2.42.84,10.18,10.18,0,0,0,2.39.31,3.81,3.81,0,0,0,2.39-.62,2,2,0,0,0,.77-1.66,2.08,2.08,0,0,0-.71-1.59A10.7,10.7,0,0,0,551,161a7.7,7.7,0,0,1-3.21-2.11,4.46,4.46,0,0,1-.94-2.85,4,4,0,0,1,1.48-3.29,6.16,6.16,0,0,1,4-1.2,11.68,11.68,0,0,1,4.77,1.05l-0.87,2.22a10.4,10.4,0,0,0-4-.94,3,3,0,0,0-2,.58,1.88,1.88,0,0,0-.69,1.52,2.12,2.12,0,0,0,.27,1.11,2.79,2.79,0,0,0,.9.87,15,15,0,0,0,2.26,1.08,12.46,12.46,0,0,1,2.7,1.43,4.2,4.2,0,0,1,1.25,1.49A4.5,4.5,0,0,1,557.33,164Z" transform="translate(-1 -1.32)"/><path class="cls-2" d="M575.89,160.12a9.12,9.12,0,0,1-2,6.33,8.56,8.56,0,0,1-11.57,0,9.18,9.18,0,0,1-2-6.37,9,9,0,0,1,2-6.34,7.51,7.51,0,0,1,5.81-2.21,7.35,7.35,0,0,1,5.75,2.25A9.11,9.11,0,0,1,575.89,160.12Zm-12.73,0a7.48,7.48,0,0,0,1.24,4.67,5.06,5.06,0,0,0,7.36,0,9.48,9.48,0,0,0,0-9.34,4.33,4.33,0,0,0-3.66-1.59,4.42,4.42,0,0,0-3.7,1.59A7.41,7.41,0,0,0,563.16,160.12Z" transform="translate(-1 -1.32)"/><path class="cls-2" d="M593.88,168.48h-3.34l-8.2-13.29h-0.09l0.06,0.74q0.16,2.12.16,3.88v8.67H580V151.8h3.31L591.48,165h0.07q0-.26-0.09-1.91c0-1.1-.07-2-0.07-2.58V151.8h2.5v16.68Z" transform="translate(-1 -1.32)"/></svg>