<?xml version="1.0" encoding="UTF-8" standalone="no"?>
<svg
        id="Layer_1"
        data-name="Layer 1"
        viewBox="0 0 209.78 53.14"
        width="209.78" height="53.14"
        version="1.1"
        sodipodi:docname="MSUL_Helmet Signature.svg"
        inkscape:version="1.1 (c68e22c387, 2021-05-23)"
        xmlns:inkscape="http://www.inkscape.org/namespaces/inkscape"
        xmlns:sodipodi="http://sodipodi.sourceforge.net/DTD/sodipodi-0.dtd"
        xmlns="http://www.w3.org/2000/svg"
        xmlns:rdf="http://www.w3.org/1999/02/22-rdf-syntax-ns#"
        xmlns:cc="http://creativecommons.org/ns#"
        xmlns:dc="http://purl.org/dc/elements/1.1/">
  <sodipodi:namedview
     id="namedview102"
     pagecolor="#ffffff"
     bordercolor="#666666"
     borderopacity="1.0"
     inkscape:pageshadow="2"
     inkscape:pageopacity="0.0"
     inkscape:pagecheckerboard="0"
     showgrid="false"
     inkscape:zoom="5.0433788"
     inkscape:cx="56.708015"
     inkscape:cy="26.668629"
     inkscape:window-width="1920"
     inkscape:window-height="1017"
     inkscape:window-x="-8"
     inkscape:window-y="-8"
     inkscape:window-maximized="1"
     inkscape:current-layer="Layer_1" />
  <defs
     id="defs7">
    <style
       id="style2">.cls-1,.cls-11{fill:none;}.cls-2{fill:#004f39;}.cls-3{font-size:30px;fill:#231f20;font-family:Gotham-Light, Gotham;}.cls-4{letter-spacing:-0.04em;}.cls-5{letter-spacing:-0.06em;}.cls-6{letter-spacing:-0.06em;}.cls-7{letter-spacing:-0.07em;}.cls-8{letter-spacing:-0.05em;}.cls-9{letter-spacing:-0.05em;}.cls-10{letter-spacing:-0.03em;}.cls-11{stroke:#231f20;stroke-miterlimit:10;}.cls-12{clip-path:url(#clip-path);}.cls-13{fill:#173e34;}</style>
    <clipPath
       id="clip-path">
      <rect
         class="cls-1"
         x="7.16"
         y="8.47"
         width="31.09"
         height="36"
         id="rect4" />
    </clipPath>
  </defs>
  <title
     id="title9">MSUL_Helmet Signature</title>
  <path
     class="cls-2"
     d="M145.61,37.17v4.52c0,.75.24,1.82,1.57,1.82s1.66-.84,1.66-1.91l0-4.43a.52.52,0,0,0-.28-.49h1.19a.51.51,0,0,0-.27.49l0,4.41A2.23,2.23,0,0,1,147,44.12a2.44,2.44,0,0,1-2.72-2.47V37.17a.54.54,0,0,0-.33-.49h2A.53.53,0,0,0,145.61,37.17Z"
     id="path11" />
  <path
     class="cls-2"
     d="M156.42,37.17a.49.49,0,0,0-.27-.49h1.14a.51.51,0,0,0-.27.49v7.15s-4.91-6.1-4.91-6.19v5.41a.52.52,0,0,0,.29.48h-1.14a.54.54,0,0,0,.27-.48V37.77c0-.42,0-.43-.19-.68a1.66,1.66,0,0,0-.46-.41h1.76l3.78,4.74Z"
     id="path13" />
  <path
     class="cls-2"
     d="M160.58,36.69a.48.48,0,0,0-.27.49v6.36a.5.5,0,0,0,.27.48h-1.85a.52.52,0,0,0,.27-.48V37.17a.5.5,0,0,0-.27-.49Z"
     id="path15" />
  <path
     class="cls-2"
     d="M166.8,37.22c.09-.28.05-.43-.21-.54h1.25a.82.82,0,0,0-.39.52c-.17.42-2.64,7-2.64,7s-2.67-6.64-2.86-7a1,1,0,0,0-.55-.52h2.26c-.26.11-.28.33-.22.59,0,.09,1.73,4.53,1.73,4.53S166.79,37.3,166.8,37.22Z"
     id="path17" />
  <path
     class="cls-2"
     d="M173,37.64a.88.88,0,0,0-.8-.39c-.3,0-1.73,0-1.73,0V39.7H172a.51.51,0,0,0,.37-.3v1.15a.48.48,0,0,0-.37-.32h-1.54V43.4a8.91,8.91,0,0,0,1.33.06c.89,0,1.3,0,1.68-.68L173.22,44h-4.4a.53.53,0,0,0,.31-.48V37.17a.53.53,0,0,0-.31-.49h4.11Z"
     id="path19" />
  <path
     class="cls-2"
     d="M177.48,40.3a1.52,1.52,0,0,1,1.15.81s1.23,2,1.58,2.48a1.76,1.76,0,0,0,.65.43l-1.33,0a1.19,1.19,0,0,1-.91-.5c-.46-.68-.91-1.47-1.28-2.07-.27-.43-.5-.9-.94-.9l-.45,0v2.95a.52.52,0,0,0,.29.48h-1.85a.52.52,0,0,0,.27-.48V37.17a.5.5,0,0,0-.27-.49h2.21c2.12,0,2.59,1.09,2.59,1.81A1.85,1.85,0,0,1,177.48,40.3ZM176,37.22V40l.46,0a1.37,1.37,0,0,0,1.43-1.5,1.29,1.29,0,0,0-1.3-1.36C176.26,37.2,176,37.22,176,37.22Z"
     id="path21" />
  <path
     class="cls-2"
     d="M185.63,41.86a2.3,2.3,0,0,1-2.38,2.27,4.15,4.15,0,0,1-2-.52l-.05-1.82a2.14,2.14,0,0,0,1.87,1.78,1.24,1.24,0,0,0,1.32-1.29c0-1-.89-1.18-1.82-1.71a2.18,2.18,0,0,1-1.35-2,2.1,2.1,0,0,1,2.23-2A3.13,3.13,0,0,1,185,37l0,1.6a1.87,1.87,0,0,0-1.7-1.44,1,1,0,0,0-1.09,1c0,.66.44.91,1.4,1.37S185.63,40.36,185.63,41.86Z"
     id="path23" />
  <path
     class="cls-2"
     d="M188.5,36.69a.48.48,0,0,0-.27.49v6.36a.5.5,0,0,0,.27.48h-1.85a.53.53,0,0,0,.26-.48V37.17a.5.5,0,0,0-.26-.49Z"
     id="path25" />
  <path
     class="cls-2"
     d="M193,37.22v6.31a.54.54,0,0,0,.27.48h-1.83a.52.52,0,0,0,.27-.48V37.22c-.76,0-1.64.08-1.64.08-.25,0-.42.25-.51.43v-1h5.6v1a.66.66,0,0,0-.48-.43S193.71,37.22,193,37.22Z"
     id="path27" />
  <path
     class="cls-2"
     d="M201.79,36.69a1.28,1.28,0,0,0-.68.66l-1.64,3.28v2.92a.61.61,0,0,0,.36.48h-2a.58.58,0,0,0,.35-.48V40.66l-2-3.46a1.11,1.11,0,0,0-.53-.52h2.31c-.25.11-.43.16-.17.67L199.2,40l1.35-2.78a.33.33,0,0,0-.21-.54Z"
     id="path29" />
  <path
     class="cls-2"
     d="M63.54,36.78h1.71a.49.49,0,0,0-.26.48v6.28a.51.51,0,0,0,.26.48H63.44a.51.51,0,0,0,.26-.48V38.19a1.6,1.6,0,0,1,0-.24l-.09.24-2.42,6-2.44-5.81-.07-.29v5.47A.51.51,0,0,0,59,44H57.85a.53.53,0,0,0,.26-.48V37.26a.59.59,0,0,0-.32-.48h1.78l2,4.88Z"
     id="path31" />
  <path
     class="cls-2"
     d="M68.71,36.78a.47.47,0,0,0-.26.48v6.28a.49.49,0,0,0,.26.48H66.88a.51.51,0,0,0,.26-.48V37.26a.49.49,0,0,0-.26-.48Z"
     id="path33" />
  <path
     class="cls-2"
     d="M76.46,38.87a2.41,2.41,0,0,0-2.28-1.63c-1.73,0-2.71,1.33-2.71,3,0,1.46.69,3.26,2.77,3.26a2.48,2.48,0,0,0,2.28-1.63s-.09,1.53-.09,1.53a5,5,0,0,1-2.57.68,3.64,3.64,0,0,1-3.76-3.7A3.68,3.68,0,0,1,74,36.67a5.22,5.22,0,0,1,2.37.55S76.48,38.91,76.46,38.87Z"
     id="path35" />
  <path
     class="cls-2"
     d="M82.37,36.78H84.2a.49.49,0,0,0-.28.48v6.28a.51.51,0,0,0,.28.48H82.37a.51.51,0,0,0,.26-.48V40.28H79.49v3.26a.49.49,0,0,0,.26.48H77.93a.51.51,0,0,0,.26-.48V37.26a.49.49,0,0,0-.26-.48h1.83a.47.47,0,0,0-.26.48v2.5h3.14v-2.5A.49.49,0,0,0,82.37,36.78Z"
     id="path37" />
  <path
     class="cls-2"
     d="M87.66,36.78a.47.47,0,0,0-.26.48v6.28a.5.5,0,0,0,.26.48H85.83a.51.51,0,0,0,.26-.48V37.26a.49.49,0,0,0-.26-.48Z"
     id="path39" />
  <path
     class="cls-2"
     d="M95.34,37.22l.07,1.69a2.43,2.43,0,0,0-2.27-1.67,2.74,2.74,0,0,0-2.71,3c0,1.46.69,3.26,2.78,3.26a2.35,2.35,0,0,0,1.29-.35V41.34a.53.53,0,0,0-.26-.49H96a.54.54,0,0,0-.26.49v1.58a.63.63,0,0,0,.16.43,7.22,7.22,0,0,1-3.09.78,3.66,3.66,0,0,1-3.79-3.7A3.7,3.7,0,0,1,93,36.67,5.55,5.55,0,0,1,95.34,37.22Z"
     id="path41" />
  <path
     class="cls-2"
     d="M102.71,43.5a.91.91,0,0,0,.5.52h-2.16c.26-.15.31-.3.25-.52s-.29-.76-.58-1.48H98.25c-.3.72-.55,1.35-.57,1.47s0,.4.23.53H96.52A1.26,1.26,0,0,0,97,43.5c.19-.41,2.85-6.94,2.85-6.94S102.53,43.09,102.71,43.5Zm-2.22-2c-.48-1.18-1-2.61-1-2.61s-.69,1.81-1,2.61Z"
     id="path43" />
  <path
     class="cls-2"
     d="M108.93,37.26a.49.49,0,0,0-.26-.48h1.12a.51.51,0,0,0-.26.48v7.06s-4.85-6-4.85-6.11v5.33A.51.51,0,0,0,105,44h-1.12a.53.53,0,0,0,.26-.48V37.86c0-.41,0-.43-.18-.67a1.62,1.62,0,0,0-.46-.4h1.74l3.73,4.68Z"
     id="path45" />
  <path
     class="cls-2"
     d="M118.07,41.89a2.27,2.27,0,0,1-2.35,2.23,4.11,4.11,0,0,1-1.94-.51l-.05-1.8a2.11,2.11,0,0,0,1.85,1.76,1.22,1.22,0,0,0,1.31-1.28c0-1-.88-1.16-1.8-1.68a2.16,2.16,0,0,1-1.33-1.93,2.07,2.07,0,0,1,2.2-2,3.13,3.13,0,0,1,1.52.39l0,1.58a1.84,1.84,0,0,0-1.69-1.42,1,1,0,0,0-1.07,1c0,.65.43.9,1.38,1.35S118.07,40.41,118.07,41.89Z"
     id="path47" />
  <path
     class="cls-2"
     d="M122.11,37.31v6.23a.53.53,0,0,0,.26.48h-1.8a.51.51,0,0,0,.26-.48V37.31c-.75,0-1.62.07-1.62.07-.24,0-.41.25-.51.43v-1h5.54v1c-.09-.18-.23-.41-.48-.43C123.76,37.39,122.84,37.31,122.11,37.31Z"
     id="path49" />
  <path
     class="cls-2"
     d="M129.5,43.5a.91.91,0,0,0,.5.52h-2.16c.26-.15.31-.3.24-.52s-.29-.76-.58-1.48H125c-.3.72-.54,1.35-.56,1.47s0,.4.23.53h-1.4a1.22,1.22,0,0,0,.48-.52c.19-.41,2.85-6.94,2.85-6.94S129.31,43.09,129.5,43.5Zm-2.22-2c-.47-1.18-1-2.61-1-2.61s-.69,1.81-1,2.61Z"
     id="path51" />
  <path
     class="cls-2"
     d="M132.64,37.31v6.23a.53.53,0,0,0,.26.48h-1.8a.51.51,0,0,0,.26-.48V37.31c-.75,0-1.62.07-1.62.07-.24,0-.42.25-.51.43v-1h5.54v1c-.09-.18-.23-.41-.47-.43C134.3,37.39,133.38,37.31,132.64,37.31Z"
     id="path53" />
  <path
     class="cls-2"
     d="M140,37.72a.88.88,0,0,0-.79-.38c-.31,0-1.71,0-1.71,0v2.45H139a.51.51,0,0,0,.36-.3v1.13a.48.48,0,0,0-.36-.31h-1.52v3.13a8.23,8.23,0,0,0,1.31.06c.88,0,1.29,0,1.66-.67L140.2,44h-4.34a.51.51,0,0,0,.31-.48V37.26a.52.52,0,0,0-.31-.48h4.06Z"
     id="path55" />
  <text
     class="cls-3"
     transform="translate(55.08 30.52)"
     id="text75"
     style="-inkscape-font-specification:'Gotham, Light';font-family:Gotham;font-weight:300;font-style:normal;font-stretch:normal;font-variant:normal;font-size:30px;font-variant-ligatures:normal;font-variant-caps:normal;font-variant-numeric:normal;font-variant-east-asian:normal;fill:#231f20"><tspan
       class="cls-4"
       id="tspan57"
       style="-inkscape-font-specification:'Gotham, Light';font-family:Gotham;font-weight:300;font-style:normal;font-stretch:normal;font-variant:normal;font-size:30px;font-variant-ligatures:normal;font-variant-caps:normal;font-variant-numeric:normal;font-variant-east-asian:normal">L</tspan><tspan
       class="cls-5"
       x="17.28"
       y="0"
       id="tspan59"
       style="-inkscape-font-specification:'Gotham, Light';font-family:Gotham;font-weight:300;font-style:normal;font-stretch:normal;font-variant:normal;font-size:30px;font-variant-ligatures:normal;font-variant-caps:normal;font-variant-numeric:normal;font-variant-east-asian:normal">i</tspan><tspan
       class="cls-6"
       x="23.04"
       y="0"
       id="tspan61"
       style="-inkscape-font-specification:'Gotham, Light';font-family:Gotham;font-weight:300;font-style:normal;font-stretch:normal;font-variant:normal;font-size:30px;font-variant-ligatures:normal;font-variant-caps:normal;font-variant-numeric:normal;font-variant-east-asian:normal">b</tspan><tspan
       class="cls-5"
       x="41.07"
       y="0"
       id="tspan63"
       style="-inkscape-font-specification:'Gotham, Light';font-family:Gotham;font-weight:300;font-style:normal;font-stretch:normal;font-variant:normal;font-size:30px;font-variant-ligatures:normal;font-variant-caps:normal;font-variant-numeric:normal;font-variant-east-asian:normal">r</tspan><tspan
       class="cls-7"
       x="51.36"
       y="0"
       id="tspan65"
       style="-inkscape-font-specification:'Gotham, Light';font-family:Gotham;font-weight:300;font-style:normal;font-stretch:normal;font-variant:normal;font-size:30px;font-variant-ligatures:normal;font-variant-caps:normal;font-variant-numeric:normal;font-variant-east-asian:normal">a</tspan><tspan
       class="cls-8"
       x="66.57"
       y="0"
       id="tspan67"
       style="-inkscape-font-specification:'Gotham, Light';font-family:Gotham;font-weight:300;font-style:normal;font-stretch:normal;font-variant:normal;font-size:30px;font-variant-ligatures:normal;font-variant-caps:normal;font-variant-numeric:normal;font-variant-east-asian:normal">r</tspan><tspan
       class="cls-9"
       x="77.07"
       y="0"
       id="tspan69"
       style="-inkscape-font-specification:'Gotham, Light';font-family:Gotham;font-weight:300;font-style:normal;font-stretch:normal;font-variant:normal;font-size:30px;font-variant-ligatures:normal;font-variant-caps:normal;font-variant-numeric:normal;font-variant-east-asian:normal">i</tspan><tspan
       class="cls-10"
       x="82.89"
       y="0"
       id="tspan71"
       style="-inkscape-font-specification:'Gotham, Light';font-family:Gotham;font-weight:300;font-style:normal;font-stretch:normal;font-variant:normal;font-size:30px;font-variant-ligatures:normal;font-variant-caps:normal;font-variant-numeric:normal;font-variant-east-asian:normal">e</tspan><tspan
       x="99.51"
       y="0"
       id="tspan73"
       style="-inkscape-font-specification:'Gotham, Light';font-family:Gotham;font-weight:300;font-style:normal;font-stretch:normal;font-variant:normal;font-size:30px;font-variant-ligatures:normal;font-variant-caps:normal;font-variant-numeric:normal;font-variant-east-asian:normal">s</tspan></text>
  <line
     class="cls-11"
     x1="49.58"
     y1="4.87"
     x2="49.58"
     y2="48.07"
     id="line77" />
  <g
     class="cls-12"
     clip-path="url(#clip-path)"
     id="g83">
    <path
       class="cls-13"
       d="M36.32,10.95s-1.87,4-2.82,6a17.28,17.28,0,0,0-15.88.59c-3.42,2.09-6.18,5.8-6.46,9.79-.1,2.66,1.06,5.57.68,8.23a10,10,0,0,1-1.09,4.08c-.85,1.43-1.88,2.66-3.59,2.76.38-.47,3-1.78,2-7.75C8.73,32.28,5.47,26.4,8.62,19c2.87-6.73,15.31-14.7,27.7-8.09Z"
       id="path79" />
    <path
       class="cls-13"
       d="M22.07,22.74a9.29,9.29,0,0,1,5.12-.21A8.75,8.75,0,0,1,34,27.94c1.23,3,2.12,5.47,4.23,8.06A23.9,23.9,0,0,1,35,35.41c.82-6-4.85-6.25-6.41-4a5.67,5.67,0,0,0,4.76,1.71,42,42,0,0,0,1.24,11.35c-1.35-.19-7.54-3.83-9.35-5.41-2.66.47-4.74,1.46-7.82,1.88a23.56,23.56,0,0,0,.47-3.41c0-3.13-2.4-6.07-.7-9.92a8.42,8.42,0,0,1,4.93-4.87Z"
       id="path81" />
  </g>
  <path
     class="cls-13"
     d="M24.3,20.94c.18,0,.45,0,.46,0a4.66,4.66,0,0,1,1.49-2.78,5.12,5.12,0,0,1,3.24-1.1,13.77,13.77,0,0,0-5.06-.49l-.13,4.34Z"
     id="path85" />
  <path
     class="cls-13"
     d="M12.57,26.34a15.32,15.32,0,0,0-.15,4.32,5.17,5.17,0,0,1,1.13-2.37,3.07,3.07,0,0,1,2.06-.88,5.33,5.33,0,0,0,.15-.59l-3.19-.48Z"
     id="path87" />
  <path
     class="cls-13"
     d="M16.14,26a7.93,7.93,0,0,1,.34-.72L13.2,24a6.84,6.84,0,0,0-.43,1.35l3.37.64Z"
     id="path89" />
  <path
     class="cls-13"
     d="M16.93,24.76s.53-.67.54-.66l-3-2.26a6,6,0,0,0-.77,1.29l3.24,1.63Z"
     id="path91" />
  <path
     class="cls-13"
     d="M18,23.53l.67-.61-2.6-3A7.69,7.69,0,0,0,15,21.14L18,23.53Z"
     id="path93" />
  <path
     class="cls-13"
     d="M19.4,22.51a4.83,4.83,0,0,0,.76-.45l-1.93-3.52a8.54,8.54,0,0,0-1.43.89l2.6,3.07Z"
     id="path95" />
  <path
     class="cls-13"
     d="M20.83,21.73a6.08,6.08,0,0,1,.92-.31l-1.1-4a8.93,8.93,0,0,0-1.63.66l1.81,3.6Z"
     id="path97" />
  <path
     class="cls-13"
     d="M22.46,21.19s.83-.18.84-.18l.1-4.28s-1,.18-1.81.41l.87,4.05Z"
     id="path99" />
  <metadata
     id="metadata140">
    <rdf:RDF>
      <cc:Work
         rdf:about="">
        <dc:title>MSUL_Helmet Signature</dc:title>
      </cc:Work>
    </rdf:RDF>
  </metadata>
</svg>
