<?xml version="1.0" encoding="utf-8"?>
<!-- Generator: Adobe Illustrator 18.1.0, SVG Export Plug-In . SVG Version: 6.00 Build 0)  -->
<svg version="1.1" id="Double_T_x5F_4C" xmlns="http://www.w3.org/2000/svg" x="0px"
	 y="0px" viewBox="263 345.7 85.9 100.7" width="85.9" height="100.7" enable-background="new 263 345.7 85.9 100.7" xml:space="preserve">
<g id="Double_T_x5F_4C_1_">
	<path id="Black" d="M349,378.6h-12.2l0,18h-16.4v20.9h8.1v28.7h-44.9v-28.8h8.1l0-20.9h-16.5v-18H263v-32.9H349V378.6z
		 M330.4,444.6c0-0.8,0.6-1.5,1.5-1.5c0.8,0,1.5,0.6,1.5,1.5c0,0.9-0.6,1.5-1.5,1.5C331.1,446.1,330.4,445.4,330.4,444.6z
		 M331.9,446.3c1,0,1.8-0.8,1.8-1.8c0-1-0.8-1.8-1.8-1.8c-1,0-1.8,0.8-1.8,1.8C330.1,445.6,330.9,446.3,331.9,446.3z M331.5,444.7
		h0.4l0.6,0.9h0.3l-0.6-0.9c0.3,0,0.5-0.2,0.5-0.6c0-0.4-0.2-0.6-0.7-0.6h-0.8v2.1h0.3V444.7z M331.5,444.4v-0.6h0.4
		c0.2,0,0.4,0.1,0.4,0.3c0,0.3-0.2,0.3-0.5,0.3H331.5z"/>
	<path id="Gray" fill="#B3B4B6" d="M296.2,390.1h-2h-4v4.2H278l1.9-2h8.3v-4.1h14l-1.9,1.8L296.2,390.1L296.2,390.1z M283.9,366.7
		v7.5h-16.3l-2.3,2.2h20.5v-7.6h8.4l2-2H283.9z M345.1,374.2h-16.6l-1.9,2.2H347v-28.5l-2,2.2L345.1,374.2L345.1,374.2z
		 M316.4,366.7v11.8h2v-9.8h8.1l1.9-2H316.4L316.4,366.7z M316.4,435.7h-20.1l-2,2h24.2v-12.2l0,0l-2.1,1.9l0,0l0,0L316.4,435.7
		L316.4,435.7z M310.4,388.3v39.2h0l2-1.9h0v-35.4h4v31.3h8.2v0.1v20.6h-36.8l-1.9,1.9h40.6v-24.4h-8.2v-29.5h4l2-1.8H310.4
		L310.4,388.3z M332.7,392.4h-8.3l-2,2h12.1v-15.8l-1.9,1.9L332.7,392.4L332.7,392.4z"/>
	<path id="Red" fill="#CC0000" d="M284.1,388.3l-4.3,4v-11.9h52.8l-4,4h-22.5h-22.1V388.3z M316.4,427.5L316.4,427.5h-6.1l-4.1,4.1
		h6.3L316.4,427.5z M328.7,384.4l-4.3,3.9v4.1l4.3-4V384.4z M275.5,357.9h30.9h0h30.3l8.3-8h-77.4v24.2l7.8-7.8V357.9z M336.8,357.9
		l-8.4,8.7v7.5l8.4-7.9V357.9z M296.2,366.7v11.8h10.2v-20.6L296.2,366.7z M312.4,425.5h6.1l0,0l0,0v1.7l6.1-5.7v-0.1h-8.2
		L312.4,425.5L312.4,425.5L312.4,425.5z M296.3,427.5v8.2l3.9-4.2h6v-47.2l-4,3.9v39.2L296.3,427.5L296.3,427.5z M294.3,425.5h6
		v-35.4h-4v31.3h-8.4v20.7l6.4-6.7V425.5z"/>
	<path id="White" fill="#FFFFFF" d="M328.4,374.2l-1.9,2.2v-7.6l1.9-2V374.2z M265.4,376.4l2.3-2.2V350h77.4l2-2.2h-81.7V376.4z
		 M306.4,378.5h-10.2v-11.8l-2,2v9.8H278v15.8l1.9-2v-11.9h52.8l1.9-1.9h-16.1h-2H306.4L306.4,378.5z M287.8,421.5h8.4v-31.3h-2
		v29.5h-8.3V444l1.9-1.9L287.8,421.5L287.8,421.5z M324.4,388.3l-2,1.8v4.2l2-2V388.3z M316.4,427.5L316.4,427.5l2.1-1.9l0,0l0,0
		h-6.1l0,0l0,0l-2,1.9l0,0H316.4z M294.3,425.5v9.9v2.3l2-2v-8.2h5.9v-39.2l-1.9,1.8v35.4H294.3z"/>
</g>
</svg>
