<?xml version="1.0" encoding="UTF-8" standalone="no"?>
<svg xmlns="http://www.w3.org/2000/svg" xml:space="preserve" height="61.61" viewBox="0 0 154.64438 61.609692"
     width="154.64" version="1.1"
><g transform="matrix(1.25 0 0 -1.25 -306.18 623.19)"><path d="m1.4492 1.0293c-0.0862 0-0.1301 0.0853-0.1738 0.2734-0.0288 0.1157-0.3047 1.4348-0.3047 1.6661 0 0.1593 0.02899 0.2324 0.1309 0.2324 0.0868 0 0.1314-0.0576 0.1601-0.1739 0.0288-0.115 0.1011-0.2903 0.2461-0.5078 0.2169-0.3187 0.5643-0.3899 1.4043-0.4199l2.1582-0.0566v5.9375c0 1.3331 0.0002 2.4775-0.0723 3.0855-0.0437 0.421-0.1299 0.74-0.4199 0.797-0.13 0.03-0.3046 0.057-0.5215 0.057-0.1737 0-0.2304 0.044-0.2304 0.117 0 0.101 0.1015 0.143 0.289 0.143 0.5794 0 1.4905-0.043 1.8243-0.043 0.4056 0 1.3197 0.043 2.2753 0.043 0.1594 0 0.2754-0.042 0.2754-0.143 0-0.073-0.0736-0.117-0.2324-0.117-0.2175 0-0.5371-0.027-0.7402-0.057-0.4344-0.057-0.5207-0.377-0.5645-0.783-0.0725-0.623-0.0722-1.7664-0.0722-3.0995v-5.9375l1.8242 0.0429c1.29 0.0288 1.6819 0.4343 1.7109 0.8106l0.014 0.1601c0.013 0.2175 0.045 0.2891 0.16 0.2891 0.087 0 0.114-0.088 0.129-0.2324 0-0.3763 0.043-1.376 0.043-1.6797 0-0.2175-0.014-0.3047-0.116-0.3047-0.058 0-0.173 0.0305-0.39 0.0742-0.218 0.0294-0.5344 0.0723-0.9982 0.0723h-5.7363c-0.4788 0-1.0292-0.0292-1.4492-0.0723-0.3619-0.0287-0.5068-0.1738-0.6231-0.1738zm31.475 0.0859c-0.073 0-0.16 0.0443-0.233 0.0586-0.116 0.0294-0.348 0.0572-0.623 0.086-0.275 0.015-3.157 0.0156-3.621 0.0156-0.202 0-0.536-0.0156-0.912-0.0293-0.362 0-0.781-0.0156-1.172-0.0156-0.217 0-0.318 0.0296-0.318 0.1308 0 0.1013 0.086 0.1309 0.246 0.1309 0.203 0 0.448 0.0136 0.564 0.043 0.479 0.1012 0.595 0.3343 0.624 0.8261 0.028 0.4638 0.027 0.8691 0.027 3.0703v2.5489c0 1.3331 0 2.4775-0.072 3.0855-0.058 0.42-0.13 0.737-0.42 0.795-0.131 0.03-0.304 0.061-0.52 0.061-0.174 0-0.232 0.042-0.232 0.115 0 0.101 0.101 0.145 0.289 0.145 0.29 0 0.666-0.03 1-0.03 0.348-0.015 0.665-0.015 0.824-0.015 0.435 0 0.884 0.016 1.506 0.045 0.624 0.015 1.421 0.043 2.508 0.043 0.55 0 0.679 0 0.781-0.377 0.072-0.29 0.187-1.275 0.187-1.608 0-0.145 0-0.2595-0.115-0.2595-0.101 0-0.131 0.0585-0.16 0.2165-0.101 0.595-0.273 0.898-0.65 1.073-0.376 0.173-0.985 0.173-1.362 0.173-1.477 0-1.709-0.219-1.738-1.218-0.014-0.4198 0-1.7514 0-2.2445v-1.1446c0-0.0868 0.015-0.1445 0.088-0.1445 0.347 0 1.781 0.0162 2.057 0.0449 0.535 0.0582 0.738 0.2732 0.81 0.5625 0.043 0.1888 0.042 0.3771 0.057 0.5215 0 0.0731 0.029 0.1309 0.131 0.1309 0.13 0 0.13-0.1598 0.13-0.2754 0-0.1013 0.043-0.6794 0.057-0.9688 0.058-0.7393 0.117-0.9717 0.117-1.0586 0-0.0868-0.043-0.1152-0.101-0.1152-0.073 0-0.131 0.0713-0.233 0.1875-0.13 0.1444-0.347 0.19-0.695 0.2188-0.333 0.0287-1.998 0.0273-2.316 0.0273-0.087 0-0.102-0.0563-0.102-0.1582v-3.6641c0-0.1012 0.03-0.1445 0.102-0.1445 0.29 0 1.809 0.0279 2.056 0.0566 0.725 0.0875 0.87 0.2603 0.971 0.5215 0.072 0.1738 0.086 0.419 0.086 0.5215 0 0.13 0.029 0.2031 0.131 0.2031 0.101 0 0.13-0.0876 0.144-0.1601 0.03-0.1738 0.058-0.8101 0.073-0.9551 0.043-0.6663 0.115-0.8402 0.115-0.9414 0-0.0731-0.014-0.1309-0.086-0.1309zm-20.654 0.1153c-0.203 0-0.305 0.0296-0.305 0.1308 0 0.1013 0.087 0.1309 0.246 0.1309 0.202 0 0.451 0.0142 0.566 0.043 0.478 0.1012 0.594 0.3343 0.623 0.8261 0.029 0.4632 0.028 0.8691 0.028 3.0703v2.5489c0 1.3331 0 2.4775-0.073 3.0855-0.058 0.42-0.129 0.738-0.419 0.795-0.13 0.03-0.304 0.059-0.522 0.059-0.174 0-0.23 0.044-0.23 0.117 0 0.101 0.101 0.145 0.289 0.145 0.579 0 1.491-0.045 1.824-0.045 0.406 0 1.318 0.045 2.26 0.045 0.173 0 0.289-0.044 0.289-0.145 0-0.073-0.071-0.117-0.231-0.117-0.217 0-0.537-0.029-0.74-0.059-0.434-0.057-0.521-0.375-0.564-0.781-0.073-0.623-0.073-1.7664-0.073-3.0995v-1.2735c0-0.0725 0.045-0.0879 0.088-0.0879h5.533c0.044 0 0.086 0.0298 0.086 0.0879v1.2735c0 1.3331 0 2.4775-0.072 3.0855-0.059 0.42-0.131 0.738-0.42 0.795-0.13 0.03-0.304 0.059-0.521 0.059-0.174 0-0.233 0.044-0.233 0.117 0 0.101 0.102 0.145 0.305 0.145 0.564 0 1.478-0.045 1.81-0.045 0.407 0 1.318 0.045 2.26 0.045 0.174 0 0.289-0.044 0.289-0.145 0-0.073-0.073-0.117-0.232-0.117-0.217 0-0.534-0.029-0.738-0.059-0.434-0.057-0.522-0.375-0.565-0.781-0.073-0.623-0.072-1.7664-0.072-3.0995v-2.5489c0-2.2012 0-2.6071 0.029-3.0703 0.03-0.5068 0.143-0.7536 0.535-0.8261 0.174-0.0288 0.305-0.043 0.42-0.043 0.174 0 0.262-0.0296 0.262-0.1309 0-0.1012-0.102-0.1308-0.305-0.1308-0.565 0-1.476 0.0449-1.824 0.0449-0.391 0-1.304-0.0449-2.086-0.0449-0.203 0-0.305 0.0296-0.305 0.1308 0 0.1013 0.087 0.1309 0.247 0.1309 0.202 0 0.449 0.0142 0.564 0.043 0.479 0.1012 0.594 0.3343 0.623 0.8261 0.029 0.4632 0.029 0.8691 0.029 3.0703v0.3047c0 0.0719-0.042 0.1016-0.086 0.1016h-5.533c-0.043 0-0.088-0.0297-0.088-0.1016v-0.3047c0-2.2012 0-2.6071 0.03-3.0703 0.028-0.5068 0.144-0.7536 0.535-0.8261 0.173-0.0288 0.303-0.043 0.42-0.043 0.173 0 0.261-0.0296 0.261-0.1309 0-0.1012-0.102-0.1308-0.304-0.1308-0.565 0-1.477 0.0449-1.825 0.0449-0.391 0-1.303-0.0449-2.085-0.0449zm10.841 20.64c-0.222 0-0.287 0.312-0.287 0.756l-0.201 13.156c-0.022 1.933-0.11 2.579-0.687 2.756-0.312 0.089-0.712 0.111-1 0.111-0.223 0-0.358 0.046-0.358 0.178 0 0.201 0.2 0.223 0.49 0.223 1.155 0 2.201-0.067 2.401-0.067 0.422 0 1.311 0.067 2.756 0.067 0.31 0 0.509-0.045 0.509-0.223 0-0.132-0.132-0.178-0.377-0.178-0.355 0-0.777-0.023-1.156-0.156-0.444-0.155-0.733-0.734-0.777-2.467l-0.244-9.334h0.066c0.4 0.422 2.866 3.201 5.289 5.6 2.311 2.289 5.157 5.203 6.557 6.535 0.244 0.245 0.509 0.488 0.754 0.488 0.2 0 0.289-0.2 0.289-0.689l0.244-14.022c0.022-1.245 0.201-1.712 0.824-1.89 0.266-0.066 0.444-0.065 0.666-0.065 0.267 0 0.399-0.066 0.399-0.201 0-0.177-0.221-0.201-0.51-0.201-1.089 0-1.933 0.066-2.178 0.066-0.467 0-1.534-0.066-2.689-0.066-0.334 0-0.579 0.024-0.579 0.201 0 0.135 0.09 0.201 0.356 0.201 0.311 0 0.845 0.001 1.178 0.133 0.533 0.223 0.734 0.645 0.756 2l0.222 9.979h-0.111c-0.378-0.356-3.378-3.557-4.889-5.069-3.245-3.222-6.622-6.844-6.888-7.132-0.378-0.4-0.58-0.69-0.825-0.69zm82.459 0.067c-3.09 0-5.13 1.756-5.13 4.201 0 1.8 0.84 3.355 3.29 5.265l1.02 0.801c1.84 1.443 2.18 2.468 2.18 3.557 0 1.178-0.98 2.533-2.98 2.533-1.38 0-2.69-0.602-3.18-2.246-0.11-0.378-0.2-0.844-0.2-1.133 0-0.178-0.02-0.377-0.22-0.377-0.18 0-0.24 0.246-0.27 0.578-0.02 0.355-0.109 1.689-0.109 2.912 0 0.489 0.069 0.599 0.419 0.754 0.96 0.423 1.96 0.578 3.25 0.578 1.18 0 2.42-0.2 3.53-0.912 1.6-1.044 2.09-2.578 2.09-3.867 0-2.111-0.95-3.644-3.64-5.666l-0.63-0.467c-1.84-1.4-2.35-2.177-2.35-3.199 0-1.334 1-2.289 2.64-2.289 1.45 0 2.09 0.665 2.43 1.088 0.46 0.577 0.57 1.267 0.57 1.467 0 0.266 0.07 0.4 0.23 0.4 0.17 0 0.24-0.177 0.24-0.666 0-1.734 0.09-2.38 0.09-2.668 0-0.156-0.11-0.223-0.31-0.268-0.58-0.155-1.51-0.376-2.96-0.376zm16.42 0c-0.13 0-0.2 0.133-0.26 0.421-0.05 0.179-0.47 2.202-0.47 2.557 0 0.244 0.05 0.355 0.2 0.355 0.13 0 0.2-0.09 0.25-0.267 0.04-0.178 0.15-0.444 0.37-0.777 0.34-0.489 0.87-0.601 2.16-0.645l3.31-0.088v9.111c0 2.044 0 3.799-0.11 4.733-0.07 0.644-0.2 1.134-0.65 1.223-0.2 0.043-0.46 0.089-0.8 0.089-0.26 0-0.35 0.066-0.35 0.178 0 0.156 0.15 0.223 0.44 0.223 0.89 0 2.29-0.067 2.8-0.067 0.63 0 2.02 0.067 3.49 0.067 0.25 0 0.42-0.067 0.42-0.223 0-0.112-0.11-0.178-0.35-0.178-0.34 0-0.82-0.046-1.14-0.089-0.66-0.089-0.79-0.577-0.86-1.2-0.11-0.955-0.11-2.712-0.11-4.756v-9.111l2.8 0.067c1.98 0.044 2.58 0.666 2.62 1.244l0.02 0.244c0.03 0.334 0.07 0.445 0.25 0.445 0.13 0 0.17-0.133 0.2-0.355 0-0.578 0.06-2.112 0.06-2.578 0-0.334-0.02-0.467-0.17-0.467-0.09 0-0.27 0.044-0.6 0.111-0.34 0.044-0.83 0.111-1.54 0.111h-8.8c-0.73 0-1.58-0.045-2.22-0.111-0.56-0.045-0.78-0.267-0.96-0.267zm-42.646 0.134c-0.112 0-0.246 0.065-0.358 0.088-0.177 0.044-0.531 0.089-0.953 0.133-0.423 0.022-4.845 0.023-5.556 0.023-0.312 0-0.823-0.022-1.401-0.045-0.555 0-1.201-0.023-1.801-0.023-0.332 0-0.488 0.046-0.488 0.201 0 0.156 0.133 0.199 0.377 0.199 0.311 0 0.69 0.022 0.867 0.067 0.734 0.155 0.911 0.512 0.955 1.267 0.045 0.712 0.045 1.333 0.045 4.711v3.912c0 2.045 0 3.801-0.111 4.735-0.089 0.644-0.2 1.132-0.645 1.221-0.2 0.045-0.467 0.089-0.8 0.089-0.267 0-0.356 0.067-0.356 0.178 0 0.156 0.156 0.223 0.445 0.223 0.445 0 1.023-0.045 1.534-0.045 0.533-0.022 1.022-0.024 1.267-0.024 0.666 0 1.355 0.024 2.311 0.069 0.955 0.022 2.177 0.066 3.844 0.066 0.844 0 1.045 0 1.201-0.578 0.11-0.445 0.289-1.955 0.289-2.467 0-0.222 0-0.4-0.178-0.4-0.155 0-0.201 0.089-0.246 0.334-0.156 0.911-0.421 1.378-0.998 1.644-0.579 0.267-1.512 0.266-2.09 0.266-2.267 0-2.622-0.332-2.666-1.865-0.022-0.645 0-2.689 0-3.446v-1.755c0-0.134 0.022-0.223 0.133-0.223 0.533 0 2.734 0.023 3.156 0.068 0.822 0.088 1.133 0.421 1.244 0.866 0.067 0.288 0.068 0.578 0.09 0.8 0 0.112 0.044 0.2 0.199 0.2 0.2 0 0.2-0.244 0.2-0.422 0-0.155 0.067-1.044 0.089-1.489 0.089-1.133 0.178-1.49 0.178-1.623s-0.067-0.177-0.156-0.177c-0.111 0-0.199 0.111-0.356 0.289-0.2 0.222-0.534 0.287-1.068 0.332-0.51 0.045-3.066 0.045-3.555 0.045-0.133 0-0.154-0.09-0.154-0.245v-5.623c0-0.155 0.043-0.22 0.154-0.22 0.444 0 2.778 0.043 3.157 0.088 1.111 0.133 1.332 0.401 1.488 0.8 0.111 0.267 0.135 0.644 0.135 0.799 0 0.2 0.043 0.313 0.199 0.313 0.155 0 0.2-0.135 0.223-0.246 0.044-0.267 0.088-1.245 0.111-1.467 0.065-1.022 0.178-1.287 0.178-1.444 0-0.11-0.023-0.199-0.133-0.199zm-77.528 0.176c-0.3331 0-0.4883 0.046-0.4883 0.201 0 0.156 0.1332 0.199 0.377 0.199 0.3112 0 0.6897 0.022 0.8672 0.067 0.7337 0.155 0.9107 0.512 0.955 1.267 0.0444 0.712 0.045 1.333 0.045 4.711v3.246c0 3.223 0.8447 4.867 1.9785 5.889 1.6225 1.467 3.7554 1.533 4.9332 1.533 1.444 0 3.044-0.244 4.621-1.599 1.867-1.6 2.112-4.223 2.112-6.69v-2.379c0-3.378 0.001-3.999 0.045-4.711 0.045-0.777 0.222-1.156 0.822-1.267 0.267-0.045 0.4-0.067 0.645-0.067 0.266 0 0.4-0.043 0.4-0.199 0-0.155-0.156-0.201-0.467-0.201-0.867 0-2.266 0.068-2.533 0.068-0.023 0-1.424-0.068-2.557-0.068-0.31 0-0.467 0.046-0.467 0.201 0 0.156 0.134 0.199 0.377 0.199 0.245 0 0.624 0.022 0.801 0.067 0.734 0.155 0.911 0.512 0.955 1.267 0.045 0.712 0.045 1.333 0.045 4.711v2.78c0 2.289-0.067 4.288-1.289 5.511-0.889 0.889-2.088 1.2-3.066 1.2-0.757 0-1.7776-0.089-2.7776-0.911-1.0894-0.889-1.7344-2.246-1.7344-5.468v-3.112c0-3.378-0.0001-3.999 0.0449-4.711 0.0438-0.777 0.2223-1.156 0.8223-1.267 0.2669-0.045 0.4002-0.067 0.6445-0.067 0.2225 0 0.3555-0.043 0.3555-0.199 0-0.155-0.1552-0.201-0.4883-0.201-0.7994 0-2.2012 0.068-2.7344 0.068-0.6675 0-2.0666-0.068-3.2441-0.068zm40.704 0c-0.356 0-0.534 0.046-0.534 0.18 0 0.178 0.134 0.22 0.356 0.22 0.267 0 0.556 0.024 0.801 0.09 0.489 0.112 0.711 0.489 0.755 1.244 0.045 0.712 0.043 1.333 0.043 4.711v3.912c0 2.157 0 3.911-0.111 4.844-0.067 0.644-0.199 1.023-0.644 1.112-0.2 0.045-0.465 0.089-0.799 0.089-0.267 0-0.356 0.067-0.356 0.178 0 0.156 0.155 0.223 0.444 0.223 0.888 0 2.289-0.069 2.8-0.069 0.601 0 2.001 0.069 3.467 0.069 0.245 0 0.424-0.067 0.424-0.223 0-0.111-0.112-0.178-0.357-0.178-0.334 0-0.823-0.044-1.133-0.089-0.668-0.089-0.822-0.489-0.889-1.09-0.089-0.955-0.09-2.709-0.09-4.866v-3.912c0-3.378 0.001-3.999 0.045-4.711 0.045-0.777 0.222-1.156 0.822-1.267 0.267-0.045 0.445-0.067 0.666-0.067 0.223 0 0.356-0.042 0.356-0.22 0-0.134-0.176-0.18-0.465-0.18-0.844 0-2.158 0.068-2.713 0.068-0.645 0-2.045-0.068-2.888-0.068zm7.459 0c-0.334 0-0.579 0.024-0.579 0.201 0 0.134 0.067 0.201 0.268 0.201 0.177 0 0.534 0 0.867 0.088 0.8 0.222 1.178 0.468 1.69 1.69l5.599 13.578c0.422 1.045 0.555 1.355 0.844 1.355 0.311 0 0.445-0.355 1.023-1.644 0.489-1.111 1.534-3.534 2.955-6.778 1.2-2.733 1.8-3.934 2.666-6.023 0.601-1.422 0.934-1.8 1.223-2 0.4-0.266 0.867-0.266 1.09-0.266 0.222 0 0.355-0.045 0.355-0.201 0-0.155-0.177-0.201-0.466-0.201-0.667 0-1.712 0.068-2.09 0.068-0.29 0-1.222-0.068-2.334-0.068-0.422 0-0.621 0.045-0.621 0.223 0 0.155 0.178 0.179 0.379 0.179 0.288 0 0.621 0.021 0.888 0.11 0.2 0.067 0.287 0.245 0.287 0.422 0 0.2-0.088 0.534-0.199 0.822-0.533 1.467-3.423 8.624-4.379 11.068h-0.088l-3.822-10.09c-0.311-0.8-0.512-1.421-0.512-1.711 0-0.2 0.068-0.356 0.223-0.466 0.178-0.134 0.512-0.155 0.867-0.155 0.2 0 0.332-0.045 0.332-0.201 0-0.155-0.243-0.201-0.509-0.201-1.112 0-2.179 0.068-2.735 0.068-0.778 0-2.046-0.068-3.222-0.068zm33.06 0c-0.333 0-0.49 0.046-0.49 0.201 0 0.156 0.134 0.199 0.379 0.199 0.311 0 0.688 0.022 0.865 0.067 0.733 0.155 0.913 0.512 0.957 1.267 0.045 0.712 0.045 1.333 0.045 4.711v3.912c0 2.045 0 3.801-0.111 4.735-0.09 0.644-0.202 1.132-0.647 1.221-0.199 0.045-0.466 0.089-0.799 0.089-0.266 0-0.355 0.066-0.355 0.176 0 0.156 0.156 0.225 0.445 0.225 0.889 0 2.288-0.069 2.711-0.069 0.333 0 1.979 0.069 3.268 0.069 0.288 0 0.443-0.069 0.443-0.225 0-0.11-0.089-0.176-0.268-0.176-0.265 0-0.754-0.044-1.087-0.089-0.667-0.089-0.801-0.577-0.868-1.221-0.111-0.934-0.111-2.69-0.111-4.758v-0.311c0-0.133 0.066-0.177 0.178-0.177l1.933 0.045c0.156 0 0.291 0.021 0.401 0.154 0.289 0.333 1.311 1.846 2.199 3.068 1.245 1.711 2.089 2.755 3.045 3.266 0.578 0.311 1.134 0.424 2.379 0.424h2.111c0.266 0 0.418-0.047 0.418-0.225 0-0.11-0.084-0.176-0.262-0.176s-0.378-0.022-0.623-0.066c-0.333-0.067-1.246-0.222-2.49-1.512-1.311-1.377-2.844-3.356-4.822-5.845 2.244-1.822 2.933-3.334 2.933-4.979 0-1.488-0.886-2.62-1.509-3.043-1.2-0.822-2.69-0.957-4.09-0.957-0.69 0-2.377 0.068-3.133 0.068-0.468 0-1.867-0.068-3.045-0.068zm30.091 0c-0.36 0-0.54 0.046-0.54 0.18 0 0.178 0.14 0.22 0.36 0.22 0.27 0 0.56 0.024 0.8 0.09 0.49 0.112 0.71 0.489 0.75 1.244 0.05 0.712 0.05 1.333 0.05 4.711v3.912c0 2.157 0 3.911-0.11 4.844-0.07 0.644-0.2 1.023-0.65 1.112-0.2 0.045-0.46 0.089-0.8 0.089-0.26 0-0.35 0.067-0.35 0.178 0 0.156 0.15 0.223 0.44 0.223 0.89 0 2.29-0.069 2.8-0.069 0.6 0 2 0.069 3.47 0.069 0.24 0 0.42-0.067 0.42-0.223 0-0.111-0.11-0.178-0.35-0.178-0.34 0-0.83-0.044-1.14-0.089-0.66-0.089-0.82-0.489-0.89-1.09-0.08-0.955-0.09-2.709-0.09-4.866v-3.912c0-3.378 0.01-3.999 0.05-4.711 0.04-0.777 0.22-1.156 0.82-1.267 0.27-0.045 0.45-0.067 0.67-0.067s0.35-0.042 0.35-0.22c0-0.134-0.17-0.18-0.46-0.18-0.85 0-2.16 0.068-2.71 0.068-0.65 0-2.05-0.068-2.89-0.068zm23.71 0c-0.27 0-0.42 0.068-0.42 0.201 0 0.156 0.15 0.199 0.33 0.199 0.26 0 0.64 0.134 0.93 0.29 0.42 0.243 0.98 0.801 1.54 1.623 0.77 1.156 3.75 6.045 3.91 6.4 0.29 0.644 0.51 1.134 0.51 2.334v1.822c0 0.355 0 1.289-0.07 2.223-0.04 0.644-0.24 1.132-0.69 1.221-0.2 0.045-0.46 0.089-0.78 0.089-0.24 0-0.35 0.067-0.35 0.178 0 0.178 0.18 0.223 0.49 0.223 0.82 0 2.22-0.069 2.78-0.069 0.6 0 2 0.069 3.4 0.069 0.28 0 0.46-0.067 0.46-0.223 0-0.111-0.11-0.178-0.35-0.178-0.31 0-0.8-0.044-1.11-0.089-0.67-0.089-0.87-0.577-0.91-1.221-0.07-0.934-0.07-1.868-0.07-2.223v-1.822c0-0.733 0-1.422 0.33-2.223 0.4-0.955 3.51-6.177 4.25-7.066 0.48-0.6 0.73-0.867 1.2-1.09 0.33-0.178 0.75-0.268 0.98-0.268 0.24 0 0.42-0.064 0.42-0.22 0-0.134-0.16-0.18-0.4-0.18-0.43 0-1.89 0.068-2.38 0.068-0.65 0-1.36-0.068-2.09-0.068-0.27 0-0.38 0.046-0.38 0.201 0 0.135 0.2 0.179 0.4 0.223 0.38 0.088 0.47 0.333 0.47 0.555 0 0.289-0.09 0.667-0.31 1.156-0.31 0.689-3.11 5.578-3.34 6.111-0.35-0.622-3.46-5.977-3.77-6.644-0.16-0.311-0.27-0.578-0.27-0.756s0.11-0.358 0.31-0.401c0.33-0.089 0.49-0.109 0.49-0.244 0-0.133-0.11-0.201-0.33-0.201-1 0-1.91 0.068-2.38 0.068-0.73 0-2.4-0.068-2.8-0.068zm-48.045 1.045c1.311 0 3.398 0.913 3.398 4.068 0 1.823-0.643 2.844-1.31 3.334-0.401 0.288-0.688 0.377-1.576 0.377-0.557 0-1.225-0.067-1.692-0.222-0.155-0.067-0.199-0.156-0.199-0.401v-6.756c0-0.178 0.044-0.265 0.199-0.31 0.223-0.067 0.624-0.09 1.18-0.09zm31.425 25.986c-0.14 0-0.23 0.159-0.4 0.575l-3.6 9.007c-0.29 0.717-0.56 1.203-1.22 1.289-0.1 0.013-0.28 0.026-0.4 0.028 0.01-0.029 0.02-0.05 0.03-0.084 0.11-0.416 0.21-1.493 0.21-1.651 0-0.172-0.01-0.242-0.11-0.242-0.12 0-0.15 0.086-0.16 0.215-0.03 0.272-0.2 0.673-0.37 0.859-0.36 0.387-0.92 0.403-1.68 0.403-1.12 0-1.49-0.102-1.74-0.317-0.3-0.258-0.3-1.247-0.3-3.082v-2.525c0-2.179 0-2.581 0.03-3.039 0.03-0.502 0.14-0.747 0.53-0.819 0.17-0.028 0.4-0.042 0.56-0.042 0.17 0 0.26-0.029 0.26-0.129 0-0.101-0.1-0.129-0.3-0.129-0.56 0-1.61 0.043-1.95 0.043-0.39 0-1.3-0.043-1.97-0.043-0.21 0-0.31 0.028-0.31 0.129 0 0.1 0.08 0.129 0.24 0.129 0.19 0 0.36 0.014 0.47 0.042 0.48 0.1 0.59 0.331 0.62 0.819 0.03 0.458 0.03 0.86 0.03 3.039v2.525c0 1.32 0 2.452-0.07 3.055-0.06 0.416-0.13 0.732-0.42 0.789-0.13 0.029-0.3 0.057-0.51 0.057-0.18 0-0.23 0.042-0.23 0.115 0 0.1 0.1 0.143 0.28 0.143 0.29 0 0.66-0.03 0.99-0.03 0.35-0.014 0.66-0.013 0.82-0.013 0.59 0 1.1 0.014 1.75 0.043 0.64 0.014 1.39 0.042 2.42 0.042 0.4 0 0.6-0.023 0.72-0.089 0.04 0.031 0.11 0.047 0.22 0.047 0.74 0 1.53-0.043 1.69-0.043 0.44 0 1.06 0.043 1.52 0.043 0.16 0 0.24-0.029 0.24-0.143 0-0.087-0.04-0.115-0.21-0.115h-0.22c-0.44 0-0.57-0.188-0.57-0.446 0-0.172 0.07-0.515 0.21-0.873l0.78-2.052c0.03-0.086 0.05-0.114 0.13-0.114h3.19c0.08 0 0.12 0.029 0.15 0.1l1.14 3.041c0.08 0.172-0.02 0.301-0.12 0.33-0.15 0.014-0.2 0.042-0.2 0.129 0 0.099 0.17 0.1 0.43 0.115 1.14 0.028 2.19 0.028 2.71 0.028 0.3 0 0.46-0.011 0.55-0.04 0.06 0.03 0.14 0.04 0.25 0.04 0.75 0 1.42-0.043 1.55-0.043 0.27 0 0.85 0.043 1.78 0.043 0.2 0 0.33-0.028 0.33-0.143 0-0.086-0.09-0.115-0.25-0.115-0.23 0-0.5-0.016-0.74-0.102-0.29-0.1-0.48-0.473-0.5-1.592l-0.16-6.023h0.04c0.26 0.272 1.85 2.066 3.41 3.615 1.5 1.476 3.33 3.356 4.24 4.217 0.15 0.157 0.33 0.314 0.48 0.314 0.13 0 0.19-0.128 0.19-0.443l0.16-9.051c0.01-0.803 0.13-1.104 0.53-1.219 0.17-0.043 0.29-0.042 0.43-0.042 0.17 0 0.26-0.043 0.26-0.129 0-0.115-0.15-0.129-0.33-0.129-0.71 0-1.25 0.043-1.41 0.043-0.3 0-0.99-0.043-1.73-0.043-0.22 0-0.38 0.014-0.38 0.129 0 0.086 0.06 0.129 0.23 0.129 0.2 0 0.55-0.001 0.76 0.085 0.35 0.144 0.48 0.416 0.49 1.291l0.14 6.44h-0.07c-0.24-0.229-2.18-2.294-3.15-3.27-2.1-2.079-4.28-4.419-4.45-4.605-0.24-0.258-0.37-0.443-0.53-0.443-0.14 0-0.19 0.199-0.19 0.486l-0.12 8.492c-0.02 1.248-0.08 1.663-0.45 1.777-0.2 0.058-0.46 0.073-0.65 0.073-0.05 0-0.08 0.009-0.12 0.017-0.03-0.013-0.07-0.017-0.12-0.017-0.17 0-0.39-0.014-0.6-0.057-0.3-0.072-0.72-0.273-1.27-1.564-0.91-2.181-3.21-8.032-3.55-8.821-0.15-0.33-0.23-0.459-0.36-0.459zm-111.84 0.116c-4.3025 0-5.9219 3.168-5.9219 5.621 0 2.538 1.6637 5.623 5.7793 5.623 3.6438 0 5.9378-2.597 5.9378-5.881 0-3.285-2.224-5.363-5.7952-5.363zm50.562 0c-4.302 0-5.924 3.168-5.924 5.621 0 2.538 1.664 5.623 5.78 5.623 3.643 0 5.937-2.597 5.937-5.881 0-3.285-2.221-5.363-5.793-5.363zm43.945 0c-1.99 0-3.31 1.132-3.31 2.71 0 1.162 0.55 2.165 2.12 3.399l0.66 0.516c1.19 0.932 1.41 1.591 1.41 2.294 0 0.76-0.63 1.635-1.92 1.635-0.89 0-1.74-0.387-2.055-1.449-0.071-0.243-0.129-0.544-0.129-0.73 0-0.115-0.013-0.245-0.143-0.245-0.115 0-0.157 0.158-0.171 0.373-0.015 0.23-0.073 1.091-0.073 1.879 0 0.315 0.042 0.388 0.272 0.489 0.619 0.272 1.259 0.373 2.099 0.373 0.76 0 1.56-0.129 2.28-0.588 1.03-0.674 1.34-1.664 1.34-2.496 0-1.363-0.61-2.352-2.35-3.657l-0.4-0.302c-1.19-0.904-1.52-1.404-1.52-2.065 0-0.86 0.65-1.476 1.71-1.476 0.93 0 1.34 0.43 1.56 0.703 0.3 0.372 0.37 0.816 0.37 0.945 0 0.172 0.05 0.258 0.15 0.258 0.11 0 0.16-0.114 0.16-0.43 0-1.119 0.05-1.534 0.05-1.72 0-0.102-0.07-0.144-0.2-0.172-0.37-0.101-0.97-0.244-1.91-0.244zm-80.163 0.085c-0.071 0-0.143 0.058-0.229 0.086-0.144 0.043-0.315 0.043-0.588 0.057-0.33 0.014-3.242 0.016-3.787 0.016-0.201 0-0.531-0.015-0.904-0.03-0.373 0-0.788-0.013-1.16-0.013-0.217 0-0.33 0.028-0.33 0.142 0 0.087 0.099 0.116 0.242 0.116 0.201 0 0.446 0.014 0.56 0.042 0.473 0.1 0.588 0.331 0.617 0.819 0.029 0.458 0.03 0.86 0.03 3.039v2.525c0 1.377-0.001 2.452-0.073 3.055-0.057 0.416-0.129 0.732-0.416 0.789-0.128 0.029-0.302 0.057-0.517 0.057-0.158 0-0.215 0.042-0.215 0.115 0 0.114 0.101 0.143 0.301 0.143 0.545 0 1.45-0.043 1.822-0.043 0.373 0 1.276 0.043 2.18 0.043 0.215 0 0.316-0.043 0.316-0.143 0-0.073-0.057-0.115-0.244-0.115-0.201 0-0.516-0.028-0.717-0.057-0.43-0.057-0.516-0.373-0.558-0.789-0.072-0.603-0.073-1.678-0.073-3.055v-1.162c0-0.1 0.028-0.129 0.1-0.129 0.243 0 1.764 0 2.123 0.043 0.445 0.057 0.659 0.315 0.731 0.516 0.056 0.171 0.085 0.345 0.085 0.445 0 0.101 0.03 0.201 0.116 0.201 0.143 0 0.142-0.144 0.142-0.273 0-0.099 0.031-0.76 0.059-1.047 0.044-0.445 0.115-0.803 0.115-0.889 0-0.085-0.028-0.129-0.086-0.129-0.086 0-0.116 0.056-0.187 0.143-0.143 0.186-0.345 0.243-0.618 0.258-0.2 0.014-0.4 0.015-0.644 0.015l-1.836 0.014c-0.087 0-0.1-0.043-0.1-0.129v-3.586c0-0.158 0.043-0.201 0.129-0.201l2.207 0.043c0.547 0.015 0.847 0.23 0.948 0.432 0.085 0.2 0.086 0.428 0.086 0.543 0.014 0.158 0.043 0.23 0.144 0.23s0.129-0.087 0.143-0.201c0.028-0.172 0.058-1.018 0.072-1.162 0.043-0.373 0.113-0.545 0.113-0.645 0-0.071-0.041-0.129-0.099-0.129zm63.328 0c-0.073 0-0.16 0.043-0.231 0.057-0.115 0.028-0.344 0.057-0.617 0.086-0.272 0.014-3.127 0.016-3.586 0.016-0.201 0-0.53-0.015-0.902-0.03-0.359 0-0.777-0.013-1.162-0.013-0.217 0-0.317 0.028-0.317 0.129 0 0.1 0.087 0.127 0.244 0.127 0.201 0 0.446 0.016 0.561 0.044 0.473 0.1 0.588 0.329 0.617 0.817 0.029 0.459 0.027 0.86 0.027 3.041v2.525c0 1.32 0.001 2.452-0.072 3.055-0.057 0.416-0.129 0.732-0.416 0.789-0.129 0.029-0.3 0.057-0.515 0.057-0.172 0-0.229 0.042-0.229 0.115 0 0.1 0.1 0.143 0.285 0.143 0.288 0 0.66-0.028 0.99-0.028 0.345-0.014 0.661-0.015 0.819-0.015 0.43 0 0.873 0.014 1.49 0.043 0.617 0.014 1.407 0.042 2.482 0.042 0.545 0 0.673 0.001 0.774-0.373 0.072-0.286 0.187-1.261 0.187-1.591 0-0.144 0-0.258-0.115-0.258-0.1 0-0.129 0.057-0.158 0.215-0.101 0.587-0.272 0.889-0.645 1.06-0.373 0.173-0.975 0.174-1.347 0.174-1.463 0-1.694-0.215-1.723-1.205-0.014-0.416 0-1.736 0-2.223v-1.133c0-0.086 0.015-0.144 0.086-0.144 0.345 0 1.764 0.014 2.037 0.043 0.531 0.057 0.732 0.272 0.803 0.559 0.044 0.186 0.043 0.373 0.058 0.517 0 0.072 0.03 0.129 0.129 0.129 0.13 0 0.129-0.158 0.129-0.273 0-0.1 0.044-0.675 0.059-0.961 0.057-0.732 0.113-0.961 0.113-1.047s-0.044-0.114-0.101-0.114c-0.072 0-0.128 0.072-0.229 0.186-0.129 0.144-0.344 0.186-0.687 0.215-0.331 0.028-1.98 0.029-2.295 0.029-0.087 0-0.102-0.057-0.102-0.158v-3.629c0-0.1 0.029-0.143 0.102-0.143 0.286 0 1.791 0.028 2.035 0.057 0.717 0.086 0.862 0.26 0.963 0.518 0.072 0.172 0.084 0.415 0.084 0.515 0 0.129 0.029 0.201 0.129 0.201 0.101 0 0.13-0.086 0.144-0.158 0.029-0.172 0.058-0.804 0.072-0.947 0.043-0.661 0.116-0.831 0.116-0.932 0-0.071-0.016-0.129-0.086-0.129zm-19.78 0.114c-0.215 0-0.316 0.03-0.316 0.131 0 0.1 0.087 0.129 0.244 0.129 0.201 0 0.444 0.014 0.559 0.042 0.474 0.1 0.589 0.33 0.617 0.819 0.029 0.459 0.027 0.858 0.027 3.039v2.525c0 1.32 0.001 2.451-0.07 3.053-0.058 0.416-0.129 0.733-0.416 0.791-0.129 0.029-0.301 0.057-0.516 0.057-0.172 0-0.23 0.043-0.23 0.115 0 0.1 0.101 0.143 0.287 0.143 0.287 0 0.66-0.028 0.99-0.028 0.344-0.015 0.659-0.015 0.817-0.015 0.358 0 0.861 0.043 1.406 0.085 0.545 0.044 1.131 0.086 1.648 0.086 2.653 0 4.146-1.017 4.807-1.691 0.802-0.817 1.56-2.195 1.56-4.002 0-1.707-0.673-2.896-1.39-3.643-1.563-1.635-3.958-1.636-5.75-1.636-0.861 0-1.765 0.045-2.209 0.045-0.401 0-1.305-0.045-2.065-0.045zm73.435 0c-0.21 0-0.31 0.03-0.31 0.131 0 0.1 0.09 0.129 0.24 0.129 0.2 0 0.45 0.014 0.56 0.042 0.47 0.1 0.59 0.33 0.62 0.819 0.03 0.459 0.03 0.858 0.03 3.039v2.525c0 1.32 0 2.451-0.07 3.053-0.06 0.416-0.13 0.733-0.42 0.791-0.13 0.029-0.3 0.057-0.52 0.057-0.17 0-0.23 0.043-0.23 0.115 0 0.1 0.1 0.143 0.29 0.143 0.29 0 0.66-0.028 0.99-0.028 0.34-0.015 0.66-0.015 0.82-0.015 0.36 0 0.86 0.043 1.4 0.085 0.55 0.044 1.14 0.086 1.65 0.086 2.65 0 4.15-1.017 4.81-1.691 0.8-0.817 1.56-2.195 1.56-4.002 0-1.707-0.68-2.896-1.39-3.643-1.56-1.635-3.96-1.636-5.75-1.636-0.86 0-1.77 0.045-2.21 0.045-0.4 0-1.31-0.045-2.07-0.045zm-110.44 0.002c-0.216 0-0.315 0.028-0.315 0.129 0 0.1 0.086 0.129 0.244 0.129 0.202 0 0.444 0.014 0.559 0.042 0.474 0.101 0.588 0.329 0.617 0.817 0.029 0.459 0.029 0.86 0.029 3.041v2.525c0 1.32-0.001 2.451-0.074 3.053-0.057 0.416-0.127 0.733-0.414 0.791-0.129 0.029-0.301 0.057-0.516 0.057-0.172 0-0.23 0.044-0.23 0.115 0 0.101 0.101 0.143 0.287 0.143 0.574 0 1.476-0.043 1.748-0.043 0.216 0 1.278 0.043 2.109 0.043 0.187 0 0.288-0.042 0.288-0.143 0-0.071-0.057-0.115-0.172-0.115-0.173 0-0.488-0.028-0.703-0.057-0.43-0.058-0.516-0.375-0.559-0.791-0.072-0.602-0.072-1.735-0.072-3.068v-0.2c0-0.086 0.044-0.115 0.115-0.115l1.246 0.028c0.101 0 0.187 0.014 0.26 0.101 0.185 0.215 0.846 1.189 1.42 1.979 0.802 1.103 1.348 1.779 1.965 2.109 0.372 0.201 0.731 0.272 1.535 0.272h1.361c0.066 0 0.111-0.01 0.154-0.022 0.041 0.009 0.075 0.022 0.133 0.022 0.574 0 1.479-0.043 1.809-0.043 0.401 0 1.304 0.043 2.236 0.043 0.172 0 0.287-0.042 0.287-0.143 0-0.073-0.072-0.115-0.23-0.115-0.215 0-0.529-0.028-0.731-0.057-0.429-0.058-0.516-0.373-0.558-0.775-0.072-0.617-0.073-1.751-0.073-3.071v-1.261c0-0.072 0.043-0.084 0.086-0.084h5.479c0.044 0 0.086 0.026 0.086 0.084v1.261c0 1.32 0.001 2.454-0.07 3.057-0.059 0.417-0.13 0.731-0.416 0.789-0.129 0.029-0.303 0.057-0.518 0.057-0.173 0-0.231 0.042-0.231 0.115 0 0.101 0.102 0.143 0.303 0.143 0.559 0 1.463-0.043 1.793-0.043 0.402 0 1.305 0.043 2.236 0.043 0.173 0 0.288-0.042 0.288-0.143 0-0.073-0.071-0.115-0.229-0.115-0.215 0-0.532-0.028-0.732-0.057-0.43-0.058-0.515-0.373-0.559-0.775-0.071-0.617-0.072-1.751-0.072-3.071v-2.523c0-2.18 0.001-2.582 0.029-3.041 0.029-0.502 0.143-0.746 0.529-0.817 0.173-0.028 0.303-0.042 0.418-0.042 0.172 0 0.258-0.029 0.258-0.129 0-0.101-0.101-0.129-0.303-0.129-0.559 0-1.462 0.043-1.806 0.043-0.388 0-1.29-0.043-2.065-0.043-0.2 0-0.302 0.028-0.302 0.129 0 0.1 0.086 0.129 0.244 0.129 0.201 0 0.445 0.014 0.56 0.042 0.473 0.1 0.587 0.329 0.616 0.817 0.028 0.459 0.029 0.861 0.029 3.041v0.301c0 0.072-0.042 0.101-0.086 0.101h-5.479c-0.043 0-0.086-0.029-0.086-0.101v-0.301c0-2.18 0.001-2.582 0.03-3.041 0.028-0.502 0.142-0.746 0.529-0.817 0.172-0.028 0.302-0.042 0.416-0.042 0.173 0 0.258-0.029 0.258-0.129 0-0.101-0.101-0.129-0.301-0.129-0.56 0-1.463 0.043-1.807 0.043-0.387 0-1.291-0.043-2.066-0.043-0.201 0-0.299 0.028-0.299 0.129 0 0.1 0.085 0.129 0.242 0.129 0.201 0 0.445 0.014 0.559 0.042 0.473 0.1 0.589 0.329 0.617 0.817 0.029 0.459 0.029 0.861 0.029 3.041v2.523c0 1.32-0.001 2.454-0.072 3.057-0.057 0.417-0.129 0.731-0.416 0.789-0.129 0.029-0.3 0.057-0.515 0.057-0.037 0-0.05 0.008-0.077 0.011-0.019-0.003-0.03-0.011-0.054-0.011-0.115 0-0.243-0.015-0.401-0.043-0.215-0.043-0.803-0.144-1.607-0.977-0.846-0.889-1.836-2.164-3.111-3.771 1.447-1.177 1.892-2.152 1.892-3.213 0-0.961-0.573-1.693-0.974-1.965-0.775-0.53-1.737-0.615-2.641-0.615-0.443 0-1.533 0.043-2.022 0.043-0.301 0-1.204-0.043-1.964-0.043zm63.873 0c-0.23 0-0.346 0.027-0.346 0.113 0 0.115 0.086 0.143 0.228 0.143 0.173 0 0.361 0.015 0.518 0.058 0.316 0.071 0.46 0.315 0.488 0.803 0.029 0.459 0.028 0.86 0.028 3.041v2.525c0 1.391 0.001 2.524-0.071 3.125-0.042 0.417-0.129 0.662-0.416 0.719-0.129 0.029-0.301 0.057-0.517 0.057-0.172 0-0.229 0.042-0.229 0.115 0 0.1 0.101 0.143 0.287 0.143 0.574 0 1.476-0.043 1.807-0.043 0.387 0 1.293 0.043 2.238 0.043 0.158 0 0.272-0.043 0.272-0.143 0-0.073-0.072-0.115-0.229-0.115-0.215 0-0.53-0.028-0.73-0.057-0.431-0.057-0.533-0.316-0.576-0.703-0.058-0.616-0.057-1.75-0.057-3.141v-2.525c0-2.181 0-2.582 0.029-3.041 0.029-0.503 0.144-0.745 0.531-0.817 0.172-0.028 0.286-0.044 0.43-0.044 0.143 0 0.229-0.028 0.229-0.143 0-0.086-0.114-0.113-0.301-0.113-0.544 0-1.392 0.043-1.75 0.043-0.416 0-1.318-0.043-1.863-0.043zm-85.174 0.486c2.3522 0 4.2032 1.995 4.2032 5.207 0 4.145-2.3238 4.633-3.3282 4.633-2.7531 0-4.4023-2.367-4.4023-5.352 0-3.57 1.8785-4.488 3.5273-4.488zm50.56 0c2.353 0 4.203 1.995 4.203 5.207 0 4.145-2.323 4.633-3.326 4.633-2.753 0-4.404-2.367-4.404-5.352 0-3.57 1.879-4.488 3.527-4.488zm-25.545 0.188c0.847 0 2.196 0.588 2.196 2.625 0 1.175-0.417 1.834-0.846 2.15-0.259 0.186-0.446 0.244-1.02 0.244-0.358 0-0.788-0.044-1.089-0.144-0.101-0.044-0.129-0.1-0.129-0.258v-4.36c0-0.114 0.028-0.173 0.129-0.201 0.143-0.043 0.401-0.056 0.759-0.056zm37.336 0c1.119 0 2.755 0.171 4.075 1.433 0.616 0.588 1.377 1.765 1.377 3.586 0 1.478-0.287 2.781-1.206 3.57-0.86 0.746-1.836 1.034-3.298 1.034-1.134 0-1.693-0.302-1.879-0.575-0.115-0.158-0.143-0.731-0.158-1.089-0.014-0.273-0.028-1.376-0.028-2.897v-1.807c0-1.133-0.001-2.382 0.014-2.869 0-0.158 0.043-0.229 0.172-0.287 0.115-0.057 0.644-0.099 0.931-0.099zm73.442 0c1.12 0 2.75 0.171 4.07 1.433 0.62 0.588 1.38 1.765 1.38 3.586 0 1.478-0.29 2.781-1.21 3.57-0.86 0.746-1.83 1.034-3.29 1.034-1.14 0-1.7-0.302-1.88-0.575-0.12-0.158-0.15-0.731-0.16-1.089-0.02-0.273-0.03-1.376-0.03-2.897v-1.807c0-1.133 0-2.382 0.01-2.869 0-0.158 0.05-0.229 0.18-0.287 0.11-0.057 0.64-0.099 0.93-0.099zm-23.9 1.949c0.04 0 0.06 0.073 0.07 0.131l1.29 3.541c0.02 0.042 0 0.086-0.07 0.086h-2.64c-0.05 0-0.07-0.043-0.05-0.1l1.32-3.527c0.01-0.058 0.04-0.131 0.08-0.131z" transform="matrix(.8 0 0 -.8 244.94 498.56)" fill="#002147"/></g></svg>
