<?xml version="1.0" encoding="utf-8"?>
<!-- Generator: Adobe Illustrator 19.1.0, SVG Export Plug-In . SVG Version: 6.00 Build 0)  -->
<svg version="1.1" id="Layer_1" xmlns="http://www.w3.org/2000/svg" xmlns:xlink="http://www.w3.org/1999/xlink" x="0px" y="0px"
	 viewBox="0 0 155.7 82.7" enable-background="new 0 0 155.7 82.7" xml:space="preserve">
<g>
	<polyline fill="#00529C" points="155.7,82.7 0,82.7 0,0 155.7,0 155.7,82.7 	"/>
	<path fill="#FFCC32" d="M26.6,16.1v1.3c-3.3,0.3-3.7,0.6-3.7,5.6v9.8c0,7.4,2.3,11.5,7.6,11.5c5.4,0,8.1-4.3,8.1-12.4V29
		c0-5.3-0.2-7.9-0.4-9.3c-0.2-1.7-1.5-2.2-4.3-2.4v-1.3h10.9v1.3c-2.2,0.1-3.4,0.7-3.6,2.4c-0.2,1.4-0.4,4-0.4,9.3v3.3
		c0,4.5-0.8,8.3-3.3,11.1c-2,2.2-5.2,3.5-8.3,3.5c-2.8,0-5.7-0.6-8-2.5c-2.4-2-3.4-5.3-3.4-10.8V22.9c0-5-0.4-5.3-3.9-5.6v-1.3H26.6
		"/>
	<path fill="none" stroke="#FFCC32" stroke-width="0.2072" d="M26.6,16.1v1.3c-3.3,0.3-3.7,0.6-3.7,5.6v9.8c0,7.4,2.3,11.5,7.6,11.5
		c5.4,0,8.1-4.3,8.1-12.4V29c0-5.3-0.2-7.9-0.4-9.3c-0.2-1.7-1.5-2.2-4.3-2.4v-1.3h10.9v1.3c-2.2,0.1-3.4,0.7-3.6,2.4
		c-0.2,1.4-0.4,4-0.4,9.3v3.3c0,4.5-0.8,8.3-3.3,11.1c-2,2.2-5.2,3.5-8.3,3.5c-2.8,0-5.7-0.6-8-2.5c-2.4-2-3.4-5.3-3.4-10.8V22.9
		c0-5-0.4-5.3-3.9-5.6v-1.3H26.6L26.6,16.1z"/>
	<path fill="#FFCC32" d="M103.1,23.1c-0.9-2.7-2.5-5.9-6.7-5.9c-3.3,0-5.2,2.2-5.2,4.9c0,2.6,2,4.3,5.9,5.9l1.3,0.6
		c4,1.6,7.6,4.1,7.6,8.9c0,5.5-4.7,9.4-11.6,9.4c-1.9,0-3.7-0.4-5.1-0.8c-1.4-0.4-2.3-0.8-2.9-1c-0.4-1.2-1-4.3-1.5-7.2l1.5-0.5
		c1,2.4,3.7,7.5,9,7.5c3.3,0,5.3-2.4,5.3-5.2c0-2.6-1.4-4.4-5.4-6.2l-1.6-0.7c-3.3-1.6-7.6-4-7.6-8.6c0-4.9,4-8.8,10.8-8.8
		c1.4,0,3.2,0.2,4.6,0.6c0.8,0.3,1.5,0.4,2.1,0.6c0.2,1.6,0.5,3.7,1,6.2L103.1,23.1"/>
	<path fill="none" stroke="#FFCC32" stroke-width="0.2072" d="M103.1,23.1c-0.9-2.7-2.5-5.9-6.7-5.9c-3.3,0-5.2,2.2-5.2,4.9
		c0,2.6,2,4.3,5.9,5.9l1.3,0.6c4,1.6,7.6,4.1,7.6,8.9c0,5.5-4.7,9.4-11.6,9.4c-1.9,0-3.7-0.4-5.1-0.8c-1.4-0.4-2.3-0.8-2.9-1
		c-0.4-1.2-1-4.3-1.5-7.2l1.5-0.5c1,2.4,3.7,7.5,9,7.5c3.3,0,5.3-2.4,5.3-5.2c0-2.6-1.4-4.4-5.4-6.2l-1.6-0.7
		c-3.3-1.6-7.6-4-7.6-8.6c0-4.9,4-8.8,10.8-8.8c1.4,0,3.2,0.2,4.6,0.6c0.8,0.3,1.5,0.4,2.1,0.6c0.2,1.6,0.5,3.7,1,6.2L103.1,23.1
		L103.1,23.1z"/>
	<path fill="#FFCC32" d="M74.7,24.1c-1.4-5.3-4.3-6.8-8.4-6.8c-7.4,0-10.7,6.3-10.7,13.2C55.6,39,59.7,45,66.3,45
		c4.8,0,7.1-2.6,9.4-7.5l1.3,0.3c-0.5,2.2-1.5,5.9-2.2,7.7c-1.3,0.4-5.3,1.4-8.4,1.4c-11.7,0-16.5-7.9-16.5-15.2
		c0-9.7,7.3-16.2,17.3-16.2c3.9,0,6.8,0.9,8.1,1.2c0.4,2.6,0.5,4.6,0.8,7.3L74.7,24.1"/>
	<path fill="none" stroke="#FFCC32" stroke-width="0.2072" d="M74.7,24.1c-1.4-5.3-4.3-6.8-8.4-6.8c-7.4,0-10.7,6.3-10.7,13.2
		C55.6,39,59.7,45,66.3,45c4.8,0,7.1-2.6,9.4-7.5l1.3,0.3c-0.5,2.2-1.5,5.9-2.2,7.7c-1.3,0.4-5.3,1.4-8.4,1.4
		c-11.7,0-16.5-7.9-16.5-15.2c0-9.7,7.3-16.2,17.3-16.2c3.9,0,6.8,0.9,8.1,1.2c0.4,2.6,0.5,4.6,0.8,7.3L74.7,24.1L74.7,24.1z"/>
	<path fill="#FFCC32" d="M122.4,30.9v8.2c0,4.3,0.6,5.3,3.7,5.2c3.3,0,6.6-1.7,6.6-6.5c0-4.7-3.6-6.9-8.7-6.9H122.4L122.4,30.9z
		 M122.4,29.2h2c4.2,0,6.9-1.9,6.9-5.7c0-4.3-3.2-5.6-6.2-5.6c-1.3,0-2,0.1-2.3,0.2c-0.4,0.2-0.4,1-0.4,2.1V29.2L122.4,29.2z
		 M126.7,16.1c3.8,0,5.8,0.5,7.6,1.5c1.8,1.1,2.8,2.8,2.8,5.3c0,4-4.1,6.1-7,6.6v0.1c5,0.6,8.9,3.1,8.9,7.7c0,3.3-1.7,5.5-4.4,7
		c-2.3,1.3-5.8,1.9-9.4,1.9h-12.3v-1.3c3.8-0.3,4.2-0.6,4.2-5.6V23c0-5-0.4-5.4-3.9-5.6v-1.3H126.7"/>
	<path fill="none" stroke="#FFCC32" stroke-width="0.2072" d="M122.4,30.9v8.2c0,4.3,0.6,5.3,3.7,5.2c3.3,0,6.6-1.7,6.6-6.5
		c0-4.7-3.6-6.9-8.7-6.9H122.4L122.4,30.9z M122.4,29.2h2c4.2,0,6.9-1.9,6.9-5.7c0-4.3-3.2-5.6-6.2-5.6c-1.3,0-2,0.1-2.3,0.2
		c-0.4,0.2-0.4,1-0.4,2.1V29.2L122.4,29.2z M126.7,16.1c3.8,0,5.8,0.5,7.6,1.5c1.8,1.1,2.8,2.8,2.8,5.3c0,4-4.1,6.1-7,6.6v0.1
		c5,0.6,8.9,3.1,8.9,7.7c0,3.3-1.7,5.5-4.4,7c-2.3,1.3-5.8,1.9-9.4,1.9h-12.3v-1.3c3.8-0.3,4.2-0.6,4.2-5.6V23c0-5-0.4-5.4-3.9-5.6
		v-1.3H126.7L126.7,16.1z"/>
	<path fill="#FFCC32" d="M92.8,57.1c-9.9-8.7-35.9-3.5-45.8,0.5c-13.7,5.2-26.5,12.6-35.8,6.7c-0.1-0.1-0.2-0.1-0.2-0.1
		c0,0.1,0,0.2,0.1,0.2c10.2,8.7,35.8,3.9,45.6-0.3c13.8-5.3,26.9-12.8,36-6.9c0.1,0,0.2,0,0.2-0.1C92.9,57.3,92.9,57.2,92.8,57.1"/>
	<path fill="none" stroke="#FFCC32" stroke-width="0.2072" d="M92.8,57.1c-9.9-8.7-35.9-3.5-45.8,0.5c-13.7,5.2-26.5,12.6-35.8,6.7
		c-0.1-0.1-0.2-0.1-0.2-0.1c0,0.1,0,0.2,0.1,0.2c10.2,8.7,35.8,3.9,45.6-0.3c13.8-5.3,26.9-12.8,36-6.9c0.1,0,0.2,0,0.2-0.1
		C92.9,57.3,92.9,57.2,92.8,57.1L92.8,57.1z"/>
	<path fill="#FFCC32" d="M142.8,57.1c-9.7-8.7-35.8-3.5-45.8,0.5c-13.7,5.2-26.5,12.6-35.7,6.7c-0.1-0.1-0.2-0.1-0.2-0.1
		c0,0.1,0,0.2,0.1,0.2c10.2,8.7,35.7,3.9,45.5-0.3c13.8-5.3,26.9-12.8,36-6.9c0.1,0,0.2,0,0.2-0.1C142.9,57.3,142.9,57.2,142.8,57.1
		"/>
	<path fill="none" stroke="#FFCC32" stroke-width="0.2072" d="M142.8,57.1c-9.7-8.7-35.8-3.5-45.8,0.5c-13.7,5.2-26.5,12.6-35.7,6.7
		c-0.1-0.1-0.2-0.1-0.2-0.1c0,0.1,0,0.2,0.1,0.2c10.2,8.7,35.7,3.9,45.5-0.3c13.8-5.3,26.9-12.8,36-6.9c0.1,0,0.2,0,0.2-0.1
		C142.9,57.3,142.9,57.2,142.8,57.1L142.8,57.1z"/>
</g>
</svg>
