<?xml version="1.0" encoding="UTF-8"?>
<svg id="Layer_1" xmlns="http://www.w3.org/2000/svg" viewBox="0 0 391.93 121.96" width="391.93" height="121.96">
  <defs>
    <style>.cls-1{fill:#fff;}.cls-2{fill:#004c23;}.cls-3{fill:none;}</style>
  </defs>
  <rect class="cls-3" width="379.81" height="121.96"/>
  <g>
    <path class="cls-2" d="M106.29,69.83v-21.54h2.68v19.15h10.01v2.39h-12.69Z"/>
    <path class="cls-2" d="M124.17,69.83v-21.54h2.68v21.54h-2.68Z"/>
    <path class="cls-2"
          d="M133.49,69.83v-21.54h9.59c3.75,0,6.04,2.26,6.04,5.49,0,2.71-1.81,4.52-3.78,4.94,2.29,.35,4.2,2.71,4.2,5.29,0,3.46-2.29,5.81-6.23,5.81h-9.82Zm12.85-15.66c0-1.94-1.29-3.49-3.71-3.49h-6.46v6.94h6.46c2.42,0,3.71-1.49,3.71-3.45Zm.42,9.56c0-1.97-1.36-3.71-3.97-3.71h-6.62v7.43h6.62c2.49,0,3.97-1.42,3.97-3.71Z"/>
    <path class="cls-2"
          d="M167.71,69.83l-5.46-8.56h-4.33v8.56h-2.68v-21.54h8.65c3.94,0,6.78,2.52,6.78,6.49s-2.68,6.01-5.62,6.26l5.81,8.78h-3.16Zm.19-15.05c0-2.45-1.78-4.1-4.33-4.1h-5.65v8.23h5.65c2.55,0,4.33-1.71,4.33-4.13Z"/>
    <path class="cls-2"
          d="M191.72,69.83l-1.91-4.81h-10.72l-1.9,4.81h-3.07l8.69-21.54h3.33l8.65,21.54h-3.07Zm-7.27-18.79l-4.55,11.62h9.14l-4.59-11.62Z"/>
    <path class="cls-2"
          d="M211.34,69.83l-5.46-8.56h-4.33v8.56h-2.68v-21.54h8.65c3.94,0,6.78,2.52,6.78,6.49s-2.68,6.01-5.62,6.26l5.81,8.78h-3.16Zm.19-15.05c0-2.45-1.78-4.1-4.33-4.1h-5.65v8.23h5.65c2.55,0,4.33-1.71,4.33-4.13Z"/>
    <path class="cls-2" d="M220.14,69.83v-21.54h2.68v21.54h-2.68Z"/>
    <path class="cls-2" d="M229.46,69.83v-21.54h14.11v2.39h-11.43v6.94h11.2v2.39h-11.2v7.43h11.43v2.39h-14.11Z"/>
    <path class="cls-2"
          d="M248.15,66.8l1.62-2.07c1.39,1.62,3.71,3.1,6.75,3.1,3.84,0,5.07-2.07,5.07-3.75,0-5.55-12.75-2.45-12.75-10.14,0-3.55,3.16-6.01,7.43-6.01,3.26,0,5.81,1.13,7.62,3.03l-1.61,1.97c-1.61-1.81-3.87-2.58-6.23-2.58-2.55,0-4.42,1.39-4.42,3.42,0,4.84,12.75,2.07,12.75,10.11,0,3.1-2.13,6.33-7.94,6.33-3.71,0-6.49-1.42-8.27-3.42Z"/>
  </g>
  <g>
    <path class="cls-2"
          d="M111.73,85.49h-3.73c-1.65,0-2.56,.83-2.56,2.33v6.59c0,1.51,.91,2.33,2.56,2.33h3.73c1.65,0,2.56-.83,2.56-2.33v-1.75h-2.47v1.64c0,.15-.03,.32-.4,.32h-3.14c-.33,0-.38-.15-.38-.32v-6.38c0-.16,.05-.32,.38-.32h3.14c.37,0,.4,.16,.4,.32v1.65h2.47v-1.75c0-1.51-.91-2.33-2.56-2.33Z"/>
    <path class="cls-2"
          d="M123.26,85.49h-3.94c-1.65,0-2.56,.83-2.56,2.33v6.59c0,1.51,.91,2.33,2.56,2.33h3.94c1.65,0,2.56-.83,2.56-2.33v-6.59c0-1.51-.91-2.33-2.56-2.33Zm.1,8.82c0,.15-.03,.32-.4,.32h-3.36c-.33,0-.38-.15-.38-.32v-6.38c0-.16,.05-.32,.38-.32h3.36c.36,0,.4,.16,.4,.32v6.38Z"/>
    <polygon class="cls-2"
             points="130.84 85.49 128.38 85.49 128.38 96.75 136.1 96.75 136.1 94.63 130.84 94.63 130.84 85.49"/>
    <path class="cls-2"
          d="M144.38,85.49h-3.94c-1.65,0-2.56,.83-2.56,2.33v6.59c0,1.51,.91,2.33,2.56,2.33h3.94c1.65,0,2.56-.83,2.56-2.33v-6.59c0-1.51-.91-2.33-2.56-2.33Zm.1,8.82c0,.15-.03,.32-.4,.32h-3.36c-.33,0-.38-.15-.38-.32v-6.38c0-.16,.05-.32,.38-.32h3.36c.36,0,.4,.16,.4,.32v6.38Z"/>
    <path class="cls-2"
          d="M158.27,90.25v-2.43c0-1.51-.91-2.33-2.56-2.33h-6.21v11.26h2.47v-4.17h1.98l2.15,4.17h2.7l-2.21-4.26c1.1-.27,1.69-1.05,1.69-2.24Zm-2.47-.06c0,.16-.05,.32-.38,.32h-3.46v-2.91h3.46c.33,0,.38,.15,.38,.32v2.28Z"/>
    <path class="cls-2"
          d="M164.62,85.49l-4.13,11.26h2.6l.9-2.67h3.89l.9,2.67h2.7l-4.15-11.26h-2.71Zm.08,6.47l1.23-3.67,1.23,3.67h-2.47Z"/>
    <path class="cls-2"
          d="M179.89,85.49h-6.34v11.26h6.34c1.65,0,2.56-.83,2.56-2.33v-6.59c0-1.51-.91-2.33-2.56-2.33Zm.1,8.82c0,.16-.05,.32-.38,.32h-3.59v-7.02h3.59c.33,0,.38,.15,.38,.32v6.38Z"/>
    <path class="cls-2"
          d="M191.46,85.49h-3.94c-1.65,0-2.57,.83-2.57,2.33v6.59c0,1.51,.91,2.33,2.57,2.33h3.94c1.65,0,2.57-.83,2.57-2.33v-6.59c0-1.51-.91-2.33-2.57-2.33Zm.1,8.82c0,.16-.05,.32-.4,.32h-3.36c-.33,0-.38-.15-.38-.32v-6.38c0-.16,.05-.32,.38-.32h3.36c.37,0,.4,.16,.4,.32v6.38Z"/>
    <path class="cls-2"
          d="M206.54,90.29l-3.09-.61c-.55-.11-.59-.22-.59-.52v-1.26c0-.16,.03-.33,.39-.33h2.88c.32,0,.38,.13,.38,.33v1.3h2.43v-1.38c0-1.51-.91-2.33-2.56-2.33h-3.43c-1.65,0-2.56,.83-2.56,2.33v1.59c0,1.64,1.24,2.12,2.58,2.39l3.09,.63c.54,.11,.59,.2,.59,.5v1.41c0,.2-.06,.33-.38,.33h-3.11c-.31,0-.38-.13-.38-.33v-1.42h-2.44v1.5c0,1.51,.91,2.33,2.57,2.33h3.64c1.65,0,2.56-.83,2.56-2.33v-1.74c0-1.64-1.24-2.12-2.59-2.39Z"/>
    <polygon class="cls-2"
             points="219.77 85.49 210.75 85.49 210.75 87.59 214.03 87.59 214.03 96.75 216.49 96.75 216.49 87.59 219.77 87.59 219.77 85.49"/>
    <path class="cls-2"
          d="M223.55,85.49l-4.13,11.26h2.6l.9-2.67h3.88l.9,2.67h2.7l-4.15-11.26h-2.71Zm.08,6.47l1.23-3.67,1.23,3.67h-2.47Z"/>
    <polygon class="cls-2"
             points="230.19 87.59 233.46 87.59 233.46 96.75 235.93 96.75 235.93 87.59 239.21 87.59 239.21 85.49 230.19 85.49 230.19 87.59"/>
    <polygon class="cls-2"
             points="241.1 96.75 249.24 96.75 249.24 94.63 243.56 94.63 243.56 92.04 248.24 92.04 248.24 89.95 243.56 89.95 243.56 87.61 249.24 87.61 249.24 85.49 241.1 85.49 241.1 96.75"/>
    <path class="cls-2"
          d="M262.31,94.31c0,.16-.05,.32-.38,.32h-3.29c-.35,0-.4-.15-.4-.32v-8.82h-2.47v8.93c0,1.51,.91,2.33,2.56,2.33h3.88c1.65,0,2.56-.83,2.56-2.33v-8.93h-2.47v8.82Z"/>
    <polygon class="cls-2"
             points="274.47 92.7 269.79 85.49 267.33 85.49 267.33 96.75 269.67 96.75 269.67 89.32 274.49 96.75 276.82 96.75 276.82 85.49 274.47 85.49 274.47 92.7"/>
    <rect class="cls-2" x="279.37" y="85.49" width="2.47" height="11.26"/>
    <polygon class="cls-2"
             points="289.11 93.74 286.54 85.49 283.86 85.49 287.76 96.75 290.41 96.75 294.32 85.49 291.7 85.49 289.11 93.74"/>
    <polygon class="cls-2"
             points="296.39 96.75 304.53 96.75 304.53 94.63 298.86 94.63 298.86 92.04 303.54 92.04 303.54 89.95 298.86 89.95 298.86 87.61 304.53 87.61 304.53 85.49 296.39 85.49 296.39 96.75"/>
    <path class="cls-2"
          d="M315.76,90.25v-2.43c0-1.51-.91-2.33-2.57-2.33h-6.21v11.26h2.47v-4.17h1.98l2.14,4.17h2.7l-2.21-4.26c1.1-.27,1.69-1.05,1.69-2.24Zm-2.47-.06c0,.16-.05,.32-.38,.32h-3.46v-2.91h3.46c.33,0,.38,.15,.38,.32v2.28Z"/>
    <path class="cls-2"
          d="M324.35,90.29l-3.09-.61c-.55-.11-.59-.22-.59-.52v-1.26c0-.16,.03-.33,.39-.33h2.88c.32,0,.38,.13,.38,.33v1.3h2.43v-1.38c0-1.51-.91-2.33-2.56-2.33h-3.43c-1.65,0-2.56,.83-2.56,2.33v1.59c0,1.64,1.24,2.12,2.58,2.39l3.09,.63c.54,.11,.59,.2,.59,.5v1.41c0,.2-.06,.33-.38,.33h-3.11c-.31,0-.38-.13-.38-.33v-1.42h-2.44v1.5c0,1.51,.91,2.33,2.57,2.33h3.64c1.65,0,2.56-.83,2.56-2.33v-1.74c0-1.64-1.24-2.12-2.59-2.39Z"/>
    <rect class="cls-2" x="329.4" y="85.49" width="2.47" height="11.26"/>
    <polygon class="cls-2"
             points="333.73 87.59 337.01 87.59 337.01 96.75 339.48 96.75 339.48 87.59 342.75 87.59 342.75 85.49 333.73 85.49 333.73 87.59"/>
    <polygon class="cls-2"
             points="351.7 85.49 349.09 90.38 346.47 85.49 343.76 85.49 347.84 92.8 347.84 96.75 350.3 96.75 350.3 92.8 354.38 85.49 351.7 85.49"/>
  </g>
  <g>
    <g>
      <polygon class="cls-2" points="80.88 41.84 80.88 41.84 80.88 41.84 80.88 41.84"/>
      <path class="cls-2"
            d="M57.81,25.52c-18.31,0-33.2,14.89-33.2,33.18s14.89,33.21,33.2,33.21,33.18-14.9,33.18-33.21-14.88-33.18-33.18-33.18Zm30.06,33.19c0,16.56-13.51,30.09-30.06,30.09s-30.08-13.53-30.08-30.09,13.5-30.09,30.08-30.09,30.06,13.51,30.06,30.09Zm-23.23,3.74c-.58-2.32,2.04-5.29,3.05-4.36,.79,.71,.82,1.87-.02,2.41-.49,.3-1.59,.15-2.04,.91-.6,.99-.73,1.14-.99,1.05Zm15.19-21.41c-4.57-6.35-13.79-10.85-22-10.63-8.15-.23-17.55,4.37-22.06,10.62,8.56-6.21,17.63,1.93,19.88,4.78,1.63,2.04,.2,5.14-.52,6-.54,.67-3.39,1.25-4.02,.67-4.04-3.63-6.38-11.53-19.79-3.61,1.46-.21,4.13-1.01,5.39-.21,3.6,2.24-5.1,7.4,.58,17.61-.04,.06-3.32-1.64-4.58-1.59-.83,.04-1.26,.6-1.13,1.44,.17,1.16,1.04,1.9,1.8,2.52,3.15,2.58,7.73,8.77,5.41,8.64-2.26-.11-7.34-7.57-8.15-9.35,.94,3.12,2.78,6.06,4.67,8.62,1,1.36,2.15,2.47,3.58,2.99,.93,.36,1.89,.52,2.82,.09,.72-.32,1.19-1.05,1.33-1.87,.17-1.2-.5-2.62-1.11-3.57-.8-1.35-2.63-3.72-4.76-5.29-3.02-2.24-5.13-2.86-4.34-3.38,.54-.37,3.41,1.21,3.98,1.51,3.19,1.66,7.64,6.45,8.17,10,.36,2.44-2.04,4.27-4.12,4.2,6.87,5.52,14.39,5.72,16.93,5.78h.05c2.49-.06,9.99-.25,16.89-5.78-2.07,.07-4.48-1.76-4.12-4.2,.52-3.55,4.95-8.34,8.17-10,.56-.3,3.43-1.87,3.97-1.51,.78,.52-1.33,1.14-4.35,3.38-2.13,1.57-3.97,3.94-4.78,5.29-.58,.95-1.26,2.37-1.09,3.57,.13,.82,.59,1.55,1.33,1.87,.93,.43,1.89,.28,2.8-.09,1.46-.52,2.6-1.63,3.6-2.99,1.87-2.56,3.74-5.51,4.67-8.62-.8,1.79-5.89,9.25-8.17,9.35-2.3,.13,2.28-6.06,5.43-8.64,.74-.62,1.63-1.36,1.8-2.52,.13-.84-.3-1.4-1.13-1.44-1.26-.04-4.54,1.66-4.58,1.59,5.67-10.21-3.02-15.37,.59-17.61,1.24-.8,3.93,0,5.38,.21-13.4-7.91-15.74-.02-19.79,3.61-.63,.58-3.47,0-4.04-.67-.72-.86-2.13-3.96-.52-6,2.28-2.85,11.32-10.99,19.9-4.78Zm-36.22,16.14c-1.31-.11-1.1-1.18-2.99-1.33,0,0-2.37,.17-2.32,.93,.07,1.12,1.29,1.53,2.08,1.8,1.21,.39,2.56-.19,3.51,.91,.3,.36,.56,.82,.43,1.22-.11,.41-.13,.24-1.44,.34,.71,.91,1.16,2.28,1.18,3.49,.02,3.25,.83,5.76,.54,6.88-1.59-1.89-1.55-4.75-1.81-7.03-.15-1.18-.6-2.5-1.16-3.35-.67-1.01-1.96-1.06-2.77-1.68-.8-.58-2.04-1.57-1.94-2.5,.15-1.25,1.25-1.63,2.22-1.94,2.8-.88,3.98,.22,4.77,.3-.86-1.01-.64-2.69,.5-2.88,2.19-.34,1.59,2,1.08,3.1-.35,.69-.8,1.83-1.87,1.74Zm3.63,9.85c-.95-2.02-1.35-5.23-1.29-7.4,.15-1.05,.39-2.39,1.35-2.94,.6-.32,1.42-.48,2.15-.21,1.1,.3,1.46,1.31,2.08,2.21,.62,.95,1.66,1.61,2.52,1.96,.54,1.25-.39,4.19-1.27,5.55-.47,1.01-2.54,3.46-2.09,7.18-1.61-2.34-2.9-4.84-3.46-6.34Zm10.6,11.31c-.53,.02-4.19-.73-3.55-2.09,0,0,.13-.13,.3-.11,1.09,.11,2.29,.36,3.26,.34,.97,.02,2.16-.24,3.26-.34,.17-.02,.3,.11,.3,.11,.64,1.36-3.04,2.11-3.57,2.09Zm13.64-26c1.16,.19,1.37,1.87,.49,2.88,.82-.09,2-1.18,4.8-.3,.97,.3,2.06,.69,2.21,1.94,.11,.93-1.14,1.91-1.93,2.5-.84,.62-2.11,.67-2.77,1.68-.58,.86-1.01,2.17-1.16,3.35-.26,2.28-.24,5.14-1.81,7.03-.32-1.12,.5-3.63,.54-6.88,.02-1.2,.45-2.58,1.18-3.49-1.31-.11-1.36,.07-1.46-.34-.11-.41,.13-.86,.43-1.22,.97-1.1,2.32-.52,3.51-.91,.79-.28,2.02-.69,2.11-1.8,.04-.75-2.32-.93-2.32-.93-1.9,.15-1.7,1.22-3.01,1.33-1.08,.09-1.5-1.05-1.85-1.74-.52-1.1-1.12-3.44,1.05-3.1Zm-9.96,8.3c.86-.34,1.89-1.01,2.51-1.96,.65-.9,.99-1.91,2.09-2.21,.73-.26,1.55-.11,2.15,.21,.97,.56,1.23,1.89,1.35,2.94,.09,2.17-.34,5.38-1.29,7.4-.54,1.51-1.83,4-3.44,6.34,.43-3.72-1.61-6.17-2.11-7.18-.88-1.35-1.81-4.3-1.27-5.55Zm-1.14,5.48c1.68,1.81,5.08,6.3,2.58,8.43-1.1,.95-2.52,1.59-4.52,.99-.49-.34-.19-1.35,.07-1.81,.93-1.2,2.34-.73,2.75-1.33,.39-.58,.15-1.03-.11-1.33-.32-.43-.9-.32-1.36-.19-.84,.19-1.43,.54-1.94,1.06v.04l-.02-.02s-.01,.01-.02,.02v-.04c-.53-.51-1.1-.87-1.94-1.06-.47-.13-1.03-.24-1.38,.19-.24,.3-.5,.75-.11,1.33,.41,.6,1.85,.13,2.77,1.33,.26,.45,.54,1.47,.04,1.81-1.98,.6-3.42-.04-4.52-.99-2.47-2.13,.93-6.62,2.58-8.43,.95-1,1.51-1.87,2.54-1.89h.04c1,.02,1.58,.89,2.51,1.89Zm-10.43-4.73c-.43-.75-1.53-.6-2.04-.91-.84-.54-.79-1.7-.02-2.41,1.01-.93,3.64,2.04,3.05,4.36-.26,.09-.39-.06-.99-1.05Z"/>
      <polygon class="cls-2" points="75.6 81.07 75.6 81.07 75.6 81.07 75.6 81.07"/>
    </g>
    <g>
      <path class="cls-1"
            d="M44.4,52.34c-1.14,.19-1.36,1.87-.5,2.88-.79-.09-1.98-1.18-4.77-.3-.97,.3-2.06,.69-2.22,1.94-.11,.93,1.14,1.91,1.94,2.5,.82,.62,2.11,.67,2.77,1.68,.56,.86,1.01,2.17,1.16,3.35,.26,2.28,.21,5.14,1.81,7.03,.3-1.12-.52-3.63-.54-6.88-.03-1.2-.48-2.58-1.18-3.49,1.31-.11,1.33,.07,1.44-.34,.13-.41-.13-.86-.43-1.22-.95-1.1-2.3-.52-3.51-.91-.79-.28-2.02-.69-2.08-1.8-.04-.75,2.32-.93,2.32-.93,1.89,.15,1.67,1.22,2.99,1.33,1.08,.09,1.53-1.05,1.87-1.74,.52-1.1,1.12-3.44-1.08-3.1Z"/>
      <path class="cls-1"
            d="M57.86,64.24h-.04c-1.03,.02-1.58,.89-2.54,1.89-1.66,1.81-5.05,6.3-2.58,8.43,1.1,.95,2.54,1.59,4.52,.99,.49-.34,.21-1.35-.04-1.81-.93-1.2-2.37-.73-2.77-1.33-.39-.58-.13-1.03,.11-1.33,.34-.43,.9-.32,1.38-.19,.84,.19,1.41,.54,1.94,1.06v.04s.01-.01,.02-.02l.02,.02v-.04c.51-.52,1.1-.87,1.94-1.06,.45-.13,1.03-.24,1.36,.19,.26,.3,.49,.75,.11,1.33-.41,.6-1.83,.13-2.75,1.33-.26,.45-.56,1.47-.07,1.81,2,.6,3.42-.04,4.52-.99,2.5-2.13-.9-6.62-2.58-8.43-.93-1-1.51-1.87-2.51-1.89Z"/>
      <path class="cls-1"
            d="M68.27,56.69c-.6-.32-1.42-.48-2.15-.21-1.1,.3-1.44,1.31-2.09,2.21-.62,.95-1.65,1.61-2.51,1.96-.54,1.25,.39,4.19,1.27,5.55,.49,1.01,2.53,3.46,2.11,7.18,1.61-2.34,2.9-4.84,3.44-6.34,.95-2.02,1.38-5.23,1.29-7.4-.13-1.05-.39-2.39-1.35-2.94Zm-.6,3.81c-.49,.3-1.59,.15-2.04,.91-.6,.99-.73,1.14-.99,1.05-.58-2.32,2.04-5.29,3.05-4.36,.79,.71,.82,1.87-.02,2.41Z"/>
      <path class="cls-1"
            d="M52.79,66.19c.88-1.35,1.81-4.3,1.27-5.55-.86-.34-1.89-1.01-2.52-1.96-.62-.9-.99-1.91-2.08-2.21-.73-.26-1.55-.11-2.15,.21-.97,.56-1.2,1.89-1.35,2.94-.06,2.17,.34,5.38,1.29,7.4,.56,1.51,1.85,4,3.46,6.34-.45-3.72,1.61-6.17,2.09-7.18Zm-2.84-4.79c-.43-.75-1.53-.6-2.04-.91-.84-.54-.79-1.7-.02-2.41,1.01-.93,3.64,2.04,3.05,4.36-.26,.09-.39-.06-.99-1.05Z"/>
      <path class="cls-1"
            d="M61.11,76.15c-1.09,.11-2.29,.36-3.26,.34-.97,.02-2.17-.24-3.26-.34-.18-.02-.3,.11-.3,.11-.64,1.36,3.02,2.11,3.55,2.09,.53,.02,4.21-.73,3.57-2.09,0,0-.13-.13-.3-.11Z"/>
      <path class="cls-1"
            d="M76.77,54.92c-2.8-.88-3.98,.22-4.8,.3,.88-1.01,.67-2.69-.49-2.88-2.17-.34-1.57,2-1.05,3.1,.34,.69,.77,1.83,1.85,1.74,1.31-.11,1.12-1.18,3.01-1.33,0,0,2.36,.17,2.32,.93-.09,1.12-1.32,1.53-2.11,1.8-1.18,.39-2.54-.19-3.51,.91-.3,.36-.54,.82-.43,1.22,.11,.41,.15,.24,1.46,.34-.73,.91-1.16,2.28-1.18,3.49-.04,3.25-.86,5.76-.54,6.88,1.57-1.89,1.55-4.75,1.81-7.03,.15-1.18,.58-2.5,1.16-3.35,.67-1.01,1.94-1.06,2.77-1.68,.8-.58,2.04-1.57,1.93-2.5-.15-1.25-1.25-1.63-2.21-1.94Z"/>
      <path class="cls-1"
            d="M57.8,28.62c-16.58,0-30.08,13.51-30.08,30.09s13.5,30.09,30.08,30.09,30.06-13.53,30.06-30.09-13.51-30.09-30.06-30.09Zm17.8,52.44h0Zm-1.74-1.44c-.73-.32-1.19-1.05-1.33-1.87-.17-1.2,.5-2.62,1.09-3.57,.81-1.35,2.65-3.72,4.78-5.29,3.02-2.24,5.13-2.86,4.35-3.38-.54-.37-3.41,1.21-3.97,1.51-3.22,1.66-7.65,6.45-8.17,10-.36,2.44,2.04,4.27,4.12,4.2-6.9,5.53-14.41,5.73-16.89,5.79h-.05c-2.54-.06-10.05-.26-16.93-5.79,2.08,.08,4.48-1.76,4.12-4.2-.52-3.55-4.97-8.34-8.17-10-.57-.3-3.43-1.87-3.98-1.51-.78,.52,1.32,1.14,4.34,3.38,2.13,1.57,3.95,3.94,4.76,5.29,.61,.95,1.28,2.37,1.11,3.57-.13,.82-.61,1.55-1.33,1.87-.94,.43-1.89,.28-2.82-.09-1.43-.52-2.58-1.63-3.58-2.99-1.89-2.56-3.73-5.51-4.67-8.62,.8,1.79,5.89,9.25,8.15,9.35,2.32,.13-2.26-6.06-5.41-8.64-.76-.62-1.63-1.36-1.8-2.52-.13-.84,.3-1.4,1.13-1.44,1.26-.04,4.54,1.66,4.58,1.59-5.69-10.21,3.02-15.37-.58-17.61-1.26-.8-3.93,0-5.39,.21,13.4-7.91,15.75-.02,19.79,3.61,.63,.58,3.47,0,4.02-.67,.72-.86,2.15-3.96,.52-6-2.25-2.85-11.31-10.99-19.88-4.78,4.51-6.26,13.92-10.85,22.06-10.62,8.21-.23,17.43,4.28,22,10.63-8.58-6.22-17.63,1.93-19.9,4.78-1.61,2.04-.19,5.14,.52,6,.56,.67,3.41,1.25,4.04,.67,4.04-3.63,6.39-11.53,19.79-3.61-1.45-.21-4.15-1.01-5.38-.21-3.61,2.24,5.08,7.4-.59,17.61,.04,.06,3.33-1.64,4.58-1.59,.83,.04,1.26,.6,1.13,1.44-.17,1.16-1.06,1.9-1.8,2.52-3.15,2.58-7.73,8.77-5.43,8.64,2.28-.11,7.36-7.57,8.17-9.35-.93,3.12-2.8,6.06-4.67,8.62-1,1.36-2.15,2.47-3.6,2.99-.91,.36-1.87,.52-2.8,.09Zm7.02-37.79h0Z"/>
    </g>
  </g>
  <rect class="cls-3" x="366.5" y="10.29" width="25.43" height="25.43"/>
</svg>