<?xml version="1.0" encoding="UTF-8" standalone="no"?>
<svg
        xmlns:dc="http://purl.org/dc/elements/1.1/"
        xmlns:cc="http://creativecommons.org/ns#"
        xmlns:rdf="http://www.w3.org/1999/02/22-rdf-syntax-ns#"
        xmlns="http://www.w3.org/2000/svg"
        viewBox="0 0 763.35999 366.04001"
        height="366.04001"
        width="763.35999"
        xml:space="preserve"
        id="svg2"
        version="1.1"><metadata
     id="metadata8"><rdf:RDF><cc:Work
         rdf:about=""><dc:format>image/svg+xml</dc:format><dc:type
           rdf:resource="http://purl.org/dc/dcmitype/StillImage" /></cc:Work></rdf:RDF></metadata><defs
     id="defs6" /><g
     transform="matrix(1.3333333,0,0,-1.3333333,0,366.04)"
     id="g10"><g
       transform="scale(0.1)"
       id="g12"><path
         id="path14"
         style="fill:#2c3892;fill-opacity:1;fill-rule:nonzero;stroke:none"
         d="m 1391.92,1988.76 c -71.94,69.07 -89.75,159.58 -89.75,235.02 0,53.19 17.05,146.09 83.07,216.74 44.52,47.64 112.02,84.96 226.25,84.96 29.67,0 71.22,-2.38 107.56,-9.53 28.2,-5.55 51.93,-10.31 75.67,-11.91 8.16,-0.79 9.64,-3.97 9.64,-8.73 0,-6.35 -2.22,-15.88 -3.71,-44.45 -1.48,-26.21 -1.48,-69.87 -2.22,-81.79 -0.74,-11.9 -2.22,-16.66 -6.68,-16.66 -5.19,0 -5.93,5.55 -5.93,16.66 0,30.98 -11.87,63.52 -31.16,80.99 -25.96,23.82 -83.08,45.25 -148.36,45.25 -98.66,0 -144.65,-30.96 -170.62,-57.96 -54.14,-55.58 -66.75,-126.24 -66.75,-207.22 0,-151.66 109.04,-290.59 267.79,-290.59 55.63,0 99.4,7.15 129.07,39.69 15.57,17.48 25.22,52.4 27.44,66.7 1.49,8.73 2.98,11.9 7.42,11.9 3.71,0 5.19,-5.55 5.19,-11.9 0,-5.55 -8.9,-74.64 -16.31,-101.63 -4.46,-15.09 -5.94,-16.67 -19.29,-23.02 -29.67,-12.71 -86.05,-18.26 -133.52,-18.26 -111.28,0 -186.2,29.37 -244.8,85.74" /><path
         id="path16"
         style="fill:#2c3892;fill-opacity:1;fill-rule:nonzero;stroke:none"
         d="m 2226.49,1933.18 c 58.61,0 176.56,33.36 176.56,228.67 0,161.96 -91.99,246.92 -195.1,246.92 -109.04,0 -187.67,-73.05 -187.67,-219.93 0,-157.21 88.28,-255.66 206.21,-255.66 z m -14.82,500.99 c 146.87,0 258.13,-96.06 258.13,-253.26 0,-150.86 -104.59,-275.51 -261.85,-275.51 -178.77,0 -255.18,143.71 -255.18,265.18 0,108.78 78.64,263.59 258.9,263.59" /><path
         id="path18"
         style="fill:#2c3892;fill-opacity:1;fill-rule:nonzero;stroke:none"
         d="m 2733.95,2108.65 c 0,-99.24 1.48,-139.74 13.35,-151.65 10.39,-11.1 35.61,-15.88 86.79,-15.88 34.13,0 63.05,0.81 78.63,20.65 8.17,10.32 13.35,24.61 15.58,38.11 0.74,4.76 2.97,8.75 6.68,8.75 2.96,0 4.44,-3.19 4.44,-10.34 0,-7.14 -4.44,-47.63 -9.63,-67.48 -4.47,-15.88 -6.68,-18.27 -41.55,-18.27 -46.74,0 -83.08,0.8 -113.48,2.39 -29.68,0.79 -51.94,1.58 -71.22,1.58 -2.97,0 -14.1,0 -26.71,-0.79 -13.35,-0.79 -27.45,-1.59 -37.84,-1.59 -6.67,0 -10.38,1.59 -10.38,5.57 0,2.37 1.49,5.55 5.2,5.55 5.94,0 14.09,1.59 20.03,3.17 12.6,3.18 14.09,15.88 17.06,35.72 3.71,27.79 3.71,80.99 3.71,146.11 v 119.08 c 0,104.81 0,123.86 -1.49,145.3 -1.48,23.02 -5.19,34.14 -26.7,37.32 -5.19,0.79 -16.32,1.59 -22.25,1.59 -2.24,0 -5.21,3.17 -5.21,5.56 0,3.96 2.97,5.55 10.4,5.55 29.66,0 70.47,-1.59 74.18,-1.59 2.96,0 51.91,1.59 71.95,1.59 6.68,0 10.39,-1.59 10.39,-5.55 0,-2.39 -2.97,-4.78 -5.2,-4.78 -4.44,0 -14.09,-0.78 -21.51,-1.58 -19.28,-3.97 -22.99,-14.29 -24.48,-38.11 -0.74,-21.44 -0.74,-40.49 -0.74,-145.3 v -120.68" /><path
         id="path20"
         style="fill:#2c3892;fill-opacity:1;fill-rule:nonzero;stroke:none"
         d="m 3102.69,2229.33 c 0,104.81 0,123.86 -1.49,145.3 -1.47,21.44 -5.17,34.14 -26.7,37.32 -5.19,0.79 -16.33,1.59 -22.26,1.59 -2.21,0 -5.19,3.17 -5.19,5.56 0,3.96 2.98,5.55 10.39,5.55 29.66,0 68.99,-1.59 74.9,-1.59 5.96,0 46.75,1.59 66.04,1.59 7.42,0 11.13,-1.59 11.13,-5.55 0,-2.39 -2.96,-5.56 -5.93,-5.56 -4.45,0 -8.18,0 -16.32,-1.59 -17.06,-3.18 -20.79,-15.08 -22.25,-37.32 -1.49,-21.44 -1.49,-40.49 -1.49,-145.3 v -94.47 c 0,-97.66 20.02,-138.15 48.21,-165.15 31.9,-30.96 60.08,-36.53 97.18,-36.53 40.06,0 78.62,19.05 100.88,47.64 30.42,38.9 37.09,94.49 37.09,163.56 v 84.95 c 0,104.81 -0.74,123.86 -1.48,145.3 -0.74,21.44 -4.44,34.14 -25.97,37.32 -5.18,0.79 -16.3,1.59 -22.25,1.59 -2.96,0 -5.18,3.17 -5.18,5.56 0,3.96 2.95,5.55 10.36,5.55 28.95,0 66.76,-1.59 70.47,-1.59 4.47,0 35.62,1.59 54.91,1.59 7.43,0 10.39,-1.59 10.39,-5.55 0,-2.39 -2.22,-5.56 -5.21,-5.56 -4.43,0 -8.14,0 -16.3,-1.59 -17.82,-3.97 -21.52,-15.08 -23.01,-37.32 -1.48,-21.44 -0.73,-40.49 -0.73,-145.3 v -72.24 c 0,-73.05 -8.91,-154.83 -60.84,-202.46 -47.46,-43.67 -97.91,-49.23 -136.48,-49.23 -21.53,0 -89.76,1.59 -135.76,47.63 -31.89,31.75 -57.11,78.6 -57.11,177.06 v 99.24" /><path
         id="path22"
         style="fill:#2c3892;fill-opacity:1;fill-rule:nonzero;stroke:none"
         d="m 4225.09,2001.46 c 2.21,-23.81 6.68,-60.34 33.38,-69.86 18.54,-6.35 35.59,-6.35 42.28,-6.35 2.97,0 5.2,-1.59 5.2,-4.77 0,-3.97 -5.94,-6.35 -13.36,-6.35 -14.85,0 -87.53,1.59 -111.26,3.96 -15.6,1.61 -18.56,3.98 -18.56,7.16 0,2.38 1.49,4.75 4.46,5.56 3.7,0.79 4.45,11.12 2.96,23.82 l -31.14,341.4 h -1.49 L 3980.3,1951.45 c -13.35,-29.38 -17.08,-35.73 -23.01,-35.73 -5.92,0 -9.64,6.35 -22.25,30.97 -17.04,33.34 -60.08,119.88 -76.41,156.4 -19.27,42.88 -71.94,156.42 -83.07,184.21 h -2.96 l -25.24,-304.89 c -0.73,-10.32 -0.73,-23.02 -0.73,-34.14 0,-10.33 5.93,-16.67 15.57,-19.06 11.13,-3.18 20.78,-3.96 25.23,-3.96 2.21,0 5.21,-2.38 5.21,-4.77 0,-4.76 -4.48,-6.35 -11.89,-6.35 -24.49,0 -55.63,2.38 -60.81,2.38 -5.94,0 -37.1,-2.38 -54.91,-2.38 -6.67,0 -11.13,1.59 -11.13,6.35 0,2.39 2.98,4.77 6.69,4.77 5.19,0 9.63,0.78 19.28,2.38 21.52,3.97 22.25,28.58 25.22,53.99 l 47.47,440.64 c 0.75,7.15 3.7,11.91 7.42,11.91 4.45,0 9.64,-2.37 13.35,-10.31 l 197.32,-419.22 189.91,418.42 c 2.96,6.35 5.92,11.11 10.37,11.11 4.46,0 8.16,-5.55 9.64,-18.25 l 44.52,-414.46" /><path
         id="path24"
         style="fill:#2c3892;fill-opacity:1;fill-rule:nonzero;stroke:none"
         d="m 4546.33,2140.41 c 0,-52.39 0,-133.39 0.73,-143.7 2.24,-32.57 2.24,-40.5 22.26,-50.81 17.81,-8.75 45.26,-9.54 57.13,-9.54 43,0 95.69,17.47 95.69,104.02 0,30.15 -11.14,88.12 -62.32,123.05 -22.25,15.09 -43.03,14.3 -58.6,17.48 -8.16,1.58 -40.8,1.58 -51.18,1.58 -2.21,0 -3.71,-1.58 -3.71,-4.76 z m 0,74.63 c 0,-4.77 1.5,-6.35 4.44,-7.13 3.71,-0.81 15.59,-3.19 40.06,-3.19 36.36,0 50.45,1.59 63.79,17.46 14.13,16.68 25.24,39.7 25.24,72.27 0,51.6 -26.72,108.77 -91.99,108.77 -7.42,0 -23,-0.81 -33.39,-3.17 -5.93,-1.6 -8.15,-3.18 -8.15,-7.16 z m -56.37,14.29 c 0,104.81 0,123.86 -1.5,145.3 -1.48,23.02 -5.2,35.72 -26.68,38.91 -5.21,0.78 -16.31,1.59 -22.27,1.59 -2.23,0 -5.18,1.58 -5.18,3.97 0,3.96 2.95,5.55 10.37,5.55 29.68,0 71.95,-1.59 75.66,-1.59 15.58,0 46,1.59 76.4,1.59 109.06,0 137.25,-67.48 137.25,-103.21 0,-53.2 -32.64,-86.55 -66.03,-118.31 49.71,-15.88 114.97,-64.31 114.97,-140.54 0,-75.41 -52.65,-150.05 -163.92,-150.05 -11.86,0 -35.61,0.8 -56.36,2.39 -20.78,0.79 -39.33,1.58 -42.31,1.58 -1.49,0 -13.34,-0.79 -26.69,-0.79 -13.36,-0.79 -28.94,-1.59 -39.32,-1.59 -6.66,0 -10.39,1.59 -10.39,5.57 0,2.37 1.51,3.96 5.2,3.96 5.94,0 14.09,2.37 20.03,3.18 12.6,2.37 14.07,17.46 17.06,37.3 3.71,27.79 3.71,80.99 3.71,146.11 v 119.08" /><path
         id="path26"
         style="fill:#2c3892;fill-opacity:1;fill-rule:nonzero;stroke:none"
         d="m 5050.82,2110.25 c 0,-65.12 0,-118.32 2.96,-146.11 2.23,-19.84 4.45,-32.54 23.72,-35.72 9.66,-1.58 23.75,-3.17 29.67,-3.17 3.72,0 5.2,-3.18 5.2,-5.55 0,-3.19 -2.96,-5.57 -10.38,-5.57 -36.34,0 -78.63,2.38 -81.59,2.38 -3.71,0 -44.51,-2.38 -64.55,-2.38 -6.68,0 -10.38,1.59 -10.38,5.57 0,2.37 1.49,5.55 5.2,5.55 5.93,0 14.1,1.59 20.04,3.17 12.59,3.18 14.84,15.88 17.05,35.72 2.96,27.79 3.71,80.99 3.71,146.11 v 119.08 c 0,104.81 0,123.86 -1.5,145.3 -1.46,23.02 -6.67,33.35 -20.76,36.53 -7.41,1.58 -15.57,2.38 -20.04,2.38 -2.95,0 -5.18,3.17 -5.18,5.56 0,3.96 2.97,5.55 10.39,5.55 21.51,0 62.31,-1.59 66.02,-1.59 2.96,0 45.25,1.59 65.28,1.59 7.42,0 10.38,-1.59 10.38,-5.55 0,-2.39 -2.96,-5.56 -5.2,-5.56 -4.44,0 -8.89,0 -16.31,-1.59 -17.79,-3.97 -21.51,-13.5 -23,-37.32 -0.73,-21.44 -0.73,-40.49 -0.73,-145.3 v -119.08" /><path
         id="path28"
         style="fill:#2c3892;fill-opacity:1;fill-rule:nonzero;stroke:none"
         d="m 5520.45,2130.09 c 2.95,0 2.95,1.59 2.21,4.77 l -64.53,184.98 c -3.73,10.33 -7.43,10.33 -11.15,0 l -60.8,-184.98 c -0.75,-3.18 0,-4.77 2.23,-4.77 z m -72.71,281.07 c 8.17,22.22 11.13,26.19 15.57,26.19 6.69,0 8.92,-9.52 15.59,-24.61 11.87,-28.58 116.45,-307.27 156.52,-409.69 23.73,-60.34 41.54,-69.08 55.62,-73.84 9.65,-3.18 19.3,-3.96 25.96,-3.96 3.71,0 8.18,-1.59 8.18,-5.55 0,-3.98 -7.42,-5.57 -14.84,-5.57 -9.65,0 -57.86,0 -103.1,1.59 -12.62,0.79 -23.01,0.79 -23.01,4.76 0,3.18 1.49,3.18 4.44,4.77 3.71,1.59 10.38,7.14 5.95,18.26 l -58.6,154.83 c -1.5,3.16 -2.21,3.97 -5.93,3.97 h -150.6 c -2.97,0 -5.19,-1.6 -6.67,-5.56 l -37.1,-107.99 c -5.93,-16.67 -9.65,-33.34 -9.65,-45.25 0,-13.51 11.15,-18.26 22.26,-18.26 h 5.95 c 5.18,0 6.67,-2.38 6.67,-5.55 0,-3.98 -3.7,-5.57 -9.64,-5.57 -15.59,0 -51.19,2.38 -58.6,2.38 -6.67,0 -39.33,-2.38 -66.02,-2.38 -8.15,0 -12.62,1.59 -12.62,5.57 0,3.17 2.97,5.55 5.94,5.55 4.44,0 14.09,0.78 19.29,1.59 29.67,3.97 42.27,27.79 54.88,61.92 l 153.56,422.4" /><path
         id="path30"
         style="fill:#2c3892;fill-opacity:1;fill-rule:nonzero;stroke:none"
         d="m 1343.71,1331.41 c 0,123.87 0,146.1 -1.49,171.52 -1.49,26.98 -7.42,39.69 -31.9,45.24 -5.94,1.59 -18.54,2.39 -25.21,2.39 -2.97,0 -5.94,1.58 -5.94,4.75 0,4.78 3.7,6.36 11.87,6.36 33.37,0 78.63,-2.39 85.31,-2.39 6.67,0 51.18,2.39 73.44,2.39 8.15,0 11.86,-1.58 11.86,-6.36 0,-3.17 -2.97,-4.75 -5.93,-4.75 -5.2,0 -9.64,-0.8 -18.55,-2.39 -20.03,-3.17 -25.96,-17.47 -27.44,-45.24 -1.49,-25.42 -1.49,-47.65 -1.49,-171.52 v -111.14 c 0,-114.33 23.74,-163.56 55.64,-196.12 36.34,-36.521 69.73,-43.67 112,-43.67 45.26,0 89.76,23.03 116.47,57.18 34.12,45.24 43.02,112.75 43.02,194.52 v 99.23 c 0,123.87 0,146.1 -1.48,171.52 -1.48,26.98 -7.42,39.69 -31.9,45.24 -5.93,1.59 -18.54,2.39 -25.22,2.39 -2.97,0 -5.93,1.58 -5.93,4.75 0,4.78 3.71,6.36 11.87,6.36 33.38,0 74.17,-2.39 78.62,-2.39 5.19,0 40.06,2.39 62.32,2.39 8.15,0 11.86,-1.58 11.86,-6.36 0,-3.17 -2.97,-4.75 -5.93,-4.75 -5.2,0 -9.64,-0.8 -18.54,-2.39 -20.03,-4.77 -25.97,-17.47 -27.45,-45.24 -1.48,-25.42 -1.48,-47.65 -1.48,-171.52 v -84.94 c 0,-85.76 -8.91,-181.03 -68.26,-237.4 -53.4,-50.808 -109.03,-58.738 -152.8,-58.738 -25.22,0 -100.14,3.156 -152.81,56.348 -36.35,37.33 -64.53,92.91 -64.53,208.81 v 115.92" /><path
         id="path32"
         style="fill:#2c3892;fill-opacity:1;fill-rule:nonzero;stroke:none"
         d="m 1992.15,1053.54 c 1.49,-55.579 7.43,-72.27 25.22,-77.028 11.87,-3.172 26.7,-3.961 32.64,-3.961 2.96,0 5.2,-2.379 5.2,-5.563 0,-3.968 -4.46,-5.558 -11.88,-5.558 -37.08,0 -63.06,2.379 -68.98,2.379 -5.93,0 -33.38,-2.379 -63.05,-2.379 -6.68,0 -10.39,0.82 -10.39,5.558 0,3.184 2.23,5.563 5.19,5.563 5.2,0 17.06,0.789 26.7,3.961 16.32,4.758 18.56,23.027 18.56,84.168 v 386.66 c 0,27 3.7,34.13 8.9,34.13 7.42,0 18.54,-13.49 25.22,-20.63 10.37,-11.12 105.33,-119.09 206.21,-230.26 64.54,-71.45 134.27,-151.65 154.3,-173.87 l -6.68,338.22 c -0.74,43.67 -4.45,58.76 -24.48,62.72 -11.87,2.4 -26.7,3.19 -31.9,3.19 -4.44,0 -5.19,3.97 -5.19,6.35 0,3.97 5.19,4.76 12.61,4.76 29.68,0 60.84,-1.58 68.25,-1.58 7.42,0 28.93,1.58 55.63,1.58 6.68,0 11.87,-0.79 11.87,-4.76 0,-2.38 -2.97,-6.35 -7.41,-6.35 -2.97,0 -8.16,0 -15.58,-1.59 -21.52,-4.76 -23.01,-18.26 -23.01,-58.75 l -1.47,-395.38 c 0,-44.472 -0.74,-48.448 -5.19,-48.448 -6.68,0 -13.36,5.578 -49.7,41.289 -6.68,6.349 -100.89,105.599 -169.87,182.599 -75.67,84.97 -149.11,167.53 -169.14,191.35 l 7.42,-318.37" /><path
         id="path34"
         style="fill:#2c3892;fill-opacity:1;fill-rule:nonzero;stroke:none"
         d="m 2628.74,1157.55 c 0,-65.12 0,-118.3 2.96,-146.09 2.23,-19.851 4.46,-32.55 23.74,-35.73 9.64,-1.589 23.73,-3.179 29.67,-3.179 3.7,0 5.19,-3.18 5.19,-5.563 0,-3.179 -2.96,-5.558 -10.38,-5.558 -36.35,0 -78.63,2.379 -81.59,2.379 -3.72,0 -44.53,-2.379 -64.55,-2.379 -6.67,0 -10.38,1.59 -10.38,5.558 0,2.383 1.49,5.563 5.2,5.563 5.93,0 14.09,1.59 20.02,3.179 12.62,3.18 14.84,15.879 17.06,35.73 2.97,27.79 3.71,80.97 3.71,146.09 v 119.08 c 0,104.81 0,123.87 -1.48,145.3 -1.48,23.03 -6.67,33.35 -20.77,36.53 -7.42,1.59 -15.58,2.38 -20.03,2.38 -2.97,0 -5.19,3.17 -5.19,5.56 0,3.97 2.97,5.55 10.38,5.55 21.5,0 62.31,-1.58 66.03,-1.58 2.96,0 45.24,1.58 65.27,1.58 7.42,0 10.38,-1.58 10.38,-5.55 0,-2.39 -2.96,-5.56 -5.19,-5.56 -4.45,0 -8.9,0 -16.32,-1.59 -17.8,-3.97 -21.51,-13.51 -22.99,-37.32 -0.74,-21.43 -0.74,-40.49 -0.74,-145.3 v -119.08" /><path
         id="path36"
         style="fill:#2c3892;fill-opacity:1;fill-rule:nonzero;stroke:none"
         d="m 3002.73,1049.56 c 37.83,90.51 123.14,320.76 137.24,369.2 2.95,10.31 5.94,19.84 5.94,25.4 0,5.56 -2.23,11.91 -8.91,14.3 -7.42,2.38 -14.83,2.38 -22.24,2.38 -3.72,0 -7.43,2.38 -7.43,5.56 0,3.97 4.45,5.55 14.84,5.55 25.96,0 55.63,-1.58 63.79,-1.58 3.7,0 31.9,1.58 51.2,1.58 6.67,0 10.37,-1.58 10.37,-4.76 0,-3.18 -2.23,-6.35 -7.42,-6.35 -4.46,0 -19.28,0 -31.15,-7.95 -8.9,-6.35 -19.3,-15.87 -36.36,-61.93 -7.41,-19.05 -39.31,-100.03 -72.68,-182.59 -40.07,-98.47 -68.99,-171.5 -83.83,-204.86 -17.8,-40.49 -21.51,-50.819 -28.19,-50.819 -7.42,0 -11.86,8.739 -24.47,41.297 l -160.24,413.662 c -14.83,38.09 -23.73,45.24 -45.24,50.81 -10.38,2.38 -21.51,2.38 -25.23,2.38 -3.71,0 -5.19,3.97 -5.19,6.35 0,3.97 6.67,4.76 17.06,4.76 31.16,0 68.25,-1.58 76.41,-1.58 6.67,0 35.61,1.58 60.83,1.58 11.86,0 17.8,-1.58 17.8,-4.76 0,-3.18 -2.23,-6.35 -6.68,-6.35 -7.42,0 -17.8,-0.79 -23.73,-3.19 -6.68,-3.16 -7.42,-7.13 -7.42,-11.91 0,-8.72 8.16,-29.37 17.81,-56.35 l 123.12,-339.83" /><path
         id="path38"
         style="fill:#2c3892;fill-opacity:1;fill-rule:nonzero;stroke:none"
         d="m 3345.58,1276.63 c 0,104.81 0,123.87 -1.48,145.3 -1.48,23.03 -5.2,34.14 -26.72,37.32 -5.17,0.8 -16.31,1.59 -22.24,1.59 -2.25,0 -5.19,3.17 -5.19,5.56 0,3.97 2.94,5.55 10.36,5.55 29.68,0 71.98,-1.58 75.7,-1.58 4.43,0 140.93,-0.8 155.76,0 12.6,0.79 24.49,3.16 29.66,3.97 2.98,0.79 5.95,3.17 8.9,3.17 2.24,0 2.99,-3.17 2.99,-6.35 0,-4.76 -3.7,-12.7 -5.2,-31.76 -0.74,-6.35 -2.21,-36.52 -3.71,-44.47 -0.74,-3.17 -2.98,-7.15 -5.92,-7.15 -3.7,0 -5.21,3.18 -5.21,8.75 0,4.76 -0.73,15.88 -3.7,23.82 -4.45,11.12 -11.13,15.88 -46.75,20.64 -11.11,1.58 -86.79,2.39 -94.2,2.39 -2.96,0 -3.71,-2.39 -3.71,-7.15 v -183.41 c 0,-4.77 0,-7.14 3.71,-7.14 8.17,0 94.2,0 109.05,1.58 15.57,1.6 25.22,2.39 31.9,9.53 4.43,4.75 7.41,8.74 9.63,8.74 2.22,0 3.7,-1.59 3.7,-5.57 0,-3.96 -3.7,-15.09 -5.19,-37.32 -1.46,-13.49 -2.93,-38.9 -2.93,-43.65 0,-5.56 -1.51,-12.71 -5.94,-12.71 -2.99,0 -4.48,2.37 -4.48,6.33 0,6.38 0,13.51 -2.94,22.24 -2.24,9.55 -8.18,17.48 -33.39,20.64 -17.82,2.4 -87.54,3.18 -98.66,3.18 -3.71,0 -4.46,-2.38 -4.46,-4.75 v -56.37 c 0,-23.03 -0.74,-101.63 0,-115.14 1.48,-45.23 13.36,-53.969 77.88,-53.969 17.07,0 48.23,0 65.28,7.137 17.08,7.932 25.96,19.842 29.66,46.832 1.51,7.94 3,10.33 6.71,10.33 3.7,0 4.43,-5.57 4.43,-10.33 0,-4.75 -5.19,-50.801 -8.89,-65.109 -4.46,-17.461 -11.13,-17.461 -36.36,-17.461 -48.95,0 -86.78,1.59 -113.48,2.41 -27.47,1.559 -44.52,1.559 -54.14,1.559 -1.5,0 -14.12,0 -28.21,-0.789 -12.61,-0.77 -27.45,-1.59 -37.83,-1.59 -6.66,0 -10.37,1.59 -10.37,5.558 0,2.383 1.47,5.563 5.19,5.563 5.94,0 14.07,2.39 20,3.179 12.63,2.391 14.11,15.879 17.08,35.73 3.71,27.79 3.71,80.97 3.71,146.09 v 119.08" /><path
         id="path40"
         style="fill:#2c3892;fill-opacity:1;fill-rule:nonzero;stroke:none"
         d="m 3812.31,1219.46 c 0,-3.97 1.48,-6.34 4.44,-8.72 9.66,-5.55 43.03,-10.32 71.95,-10.32 15.58,0 33.39,0.8 48.97,11.91 22.25,15.88 39.31,51.61 39.31,103.22 0,84.15 -43.02,132.58 -112.76,132.58 -19.28,0 -40.05,-2.39 -46.73,-3.97 -2.96,-1.59 -5.18,-3.96 -5.18,-7.93 z m -56.39,57.17 c 0,104.81 0,123.87 -1.48,145.3 -1.48,23.03 -5.19,34.14 -26.71,37.32 -5.2,0.8 -16.32,1.59 -22.26,1.59 -2.22,0 -5.18,3.17 -5.18,5.56 0,3.97 2.96,5.55 10.37,5.55 29.69,0 73.45,-1.58 77.15,-1.58 6.68,0 61.57,1.58 81.6,1.58 41.55,0 87.53,-3.97 121.66,-29.38 16.32,-12.71 45.26,-45.25 45.26,-92.1 0,-50.01 -19.29,-98.43 -80.11,-154.02 53.39,-71.46 98.66,-132.59 136.48,-174.68 34.87,-38.122 56.38,-44.469 72.68,-46.829 12.63,-2.39 19.31,-2.39 23.02,-2.39 3.71,0 5.94,-3.18 5.94,-5.563 0,-3.968 -3.71,-5.558 -15.59,-5.558 h -40.81 c -37.08,0 -53.39,3.968 -69.73,13.511 -28.16,15.86 -51.91,48.429 -89.02,99.239 -27.43,36.51 -56.37,80.19 -70.46,98.43 -2.95,3.19 -4.45,3.99 -8.9,3.99 l -83.08,1.58 c -2.96,0 -4.44,-1.58 -4.44,-5.57 v -15.87 c 0,-65.09 0,-117.49 2.94,-145.28 2.24,-19.851 5.94,-32.55 25.99,-35.73 8.91,-1.589 22.98,-3.179 28.92,-3.179 4.45,0 5.19,-3.18 5.19,-5.563 0,-3.179 -2.96,-5.558 -10.37,-5.558 -35.61,0 -77.17,2.379 -80.12,2.379 -0.75,0 -44.51,-2.379 -64.55,-2.379 -6.66,0 -10.38,1.59 -10.38,5.558 0,2.383 1.48,5.563 5.19,5.563 5.93,0 14.1,1.59 20.04,3.179 12.61,3.18 14.09,15.879 17.05,35.73 3.71,27.79 3.71,80.97 3.71,146.09 v 119.08" /><path
         id="path42"
         style="fill:#2c3892;fill-opacity:1;fill-rule:nonzero;stroke:none"
         d="m 4194.48,970.969 c -8.91,4.761 -9.66,7.152 -9.66,25.39 0,33.361 2.97,60.351 3.72,71.471 0,7.14 1.47,11.1 5.18,11.1 3.71,0 5.94,-2.38 5.94,-7.93 0,-5.56 0,-15.08 2.23,-24.6 10.39,-49.22 59.35,-66.701 103.1,-66.701 64.55,0 97.94,38.891 97.94,89.721 0,48.41 -24.49,71.45 -82.35,117.5 l -29.68,23.82 c -70.47,56.37 -93.47,97.65 -93.47,144.5 0,79.39 58.61,127.04 144.66,127.04 25.96,0 51.91,-3.97 67.5,-7.94 12.61,-3.18 17.8,-3.18 23,-3.18 5.19,0 6.67,-0.79 6.67,-4.76 0,-3.18 -2.97,-25.41 -2.97,-71.47 0,-10.3 -0.74,-15.09 -5.19,-15.09 -4.45,0 -5.19,3.18 -5.93,8.75 -0.75,7.94 -5.94,26.19 -9.65,33.34 -4.45,7.93 -25.95,33.35 -84.55,33.35 -47.48,0 -86.79,-25.42 -86.79,-73.05 0,-42.88 20.01,-67.48 84.54,-114.32 l 18.57,-13.51 c 79.36,-57.95 106.8,-104.78 106.8,-162.75 0,-39.7 -14.08,-82.58 -60.82,-115.138 -27.44,-19.051 -68.24,-23.821 -103.85,-23.821 -30.41,0 -68.25,4.77 -94.94,18.278" /><path
         id="path44"
         style="fill:#2c3892;fill-opacity:1;fill-rule:nonzero;stroke:none"
         d="m 4684.17,1157.55 c 0,-65.12 0,-118.3 3,-146.09 2.21,-19.851 4.44,-32.55 23.72,-35.73 9.65,-1.589 23.73,-3.179 29.68,-3.179 3.71,0 5.18,-3.18 5.18,-5.563 0,-3.179 -2.95,-5.558 -10.38,-5.558 -36.34,0 -78.64,2.379 -81.59,2.379 -3.7,0 -44.52,-2.379 -64.55,-2.379 -6.67,0 -10.38,1.59 -10.38,5.558 0,2.383 1.48,5.563 5.18,5.563 5.94,0 14.11,1.59 20.04,3.179 12.61,3.18 14.85,15.879 17.06,35.73 2.97,27.79 3.7,80.97 3.7,146.09 v 119.08 c 0,104.81 0,123.87 -1.47,145.3 -1.48,23.03 -6.68,33.35 -20.77,36.53 -7.42,1.59 -15.58,2.38 -20.03,2.38 -2.97,0 -5.18,3.17 -5.18,5.56 0,3.97 2.95,5.55 10.37,5.55 21.51,0 62.33,-1.58 66.03,-1.58 2.95,0 45.25,1.58 65.28,1.58 7.41,0 10.38,-1.58 10.38,-5.55 0,-2.39 -2.97,-5.56 -5.19,-5.56 -4.46,0 -8.89,0 -16.32,-1.59 -17.82,-3.97 -21.52,-13.51 -23,-37.32 -0.76,-21.43 -0.76,-40.49 -0.76,-145.3 v -119.08" /><path
         id="path46"
         style="fill:#2c3892;fill-opacity:1;fill-rule:nonzero;stroke:none"
         d="m 5057.45,1157.55 c 0,-65.12 0,-118.3 2.96,-146.09 2.24,-19.851 5.19,-32.55 25.22,-35.73 8.91,-1.589 23.75,-3.179 29.69,-3.179 4.44,0 5.19,-3.18 5.19,-5.563 0,-3.179 -2.98,-5.558 -10.4,-5.558 -35.61,0 -77.13,2.379 -80.85,2.379 -2.96,0 -48.22,-2.379 -67.5,-2.379 -7.41,0 -10.38,1.59 -10.38,5.558 0,2.383 1.48,4.762 5.19,4.762 5.94,0 13.36,1.59 19.28,3.191 13.36,3.18 17.06,16.668 19.28,36.519 2.98,27.79 2.98,80.97 2.98,146.09 v 283.44 l -94.2,-1.59 c -40.81,-0.8 -56.39,-5.57 -66.02,-21.44 -7.41,-11.91 -8.17,-16.67 -10.4,-21.43 -1.47,-5.57 -3.71,-6.35 -6.67,-6.35 -1.48,0 -4.46,1.58 -4.46,5.56 0,7.14 13.36,67.48 14.12,73.03 1.47,3.98 4.42,12.7 6.65,12.7 4.47,0 11.14,-5.55 28.93,-7.94 18.55,-2.37 43.76,-3.16 51.18,-3.16 h 246.3 c 21.5,0 36.33,1.58 46.72,3.16 9.64,1.6 15.56,3.18 18.56,3.18 2.94,0 2.94,-3.96 2.94,-7.94 0,-20.64 -2.22,-69.07 -2.22,-77.01 0,-5.56 -2.95,-8.74 -5.93,-8.74 -2.97,0 -4.44,2.4 -5.21,11.91 l -0.7,7.15 c -2.24,20.64 -16.34,35.73 -78.67,37.32 l -81.58,1.59 v -283.44" /><path
         id="path48"
         style="fill:#2c3892;fill-opacity:1;fill-rule:nonzero;stroke:none"
         d="m 5458.14,1136.89 c 0,36.54 -4.46,50.03 -14.11,69.09 -5.18,10.31 -93.45,160.37 -115.7,196.1 -15.58,25.42 -31.16,40.49 -43.04,49.23 -9.63,6.34 -22.23,9.53 -27.45,9.53 -3.71,0 -6.67,3.17 -6.67,6.35 0,3.18 2.23,4.76 8.17,4.76 12.6,0 61.55,-1.58 64.54,-1.58 4.45,0 31.15,1.58 56.36,1.58 7.43,0 8.92,-1.58 8.92,-4.76 0,-2.38 -4.46,-4.76 -10.4,-7.14 -5.2,-2.4 -8.14,-5.56 -8.14,-11.12 0,-9.53 4.43,-17.46 8.88,-26.21 l 118.7,-210.39 c 13.33,28.58 94.94,173.09 106.82,195.32 8.16,15.07 11.12,26.18 11.12,34.92 0,9.54 -2.96,15.08 -10.41,17.48 -5.91,1.58 -9.62,4.76 -9.62,7.93 0,2.39 3.71,3.97 10.38,3.97 17.07,0 40.05,-1.58 45.26,-1.58 4.44,0 51.18,1.58 63.79,1.58 4.46,0 8.16,-1.58 8.16,-3.97 0,-3.17 -2.96,-7.14 -8.16,-7.14 -7.41,0 -20.04,-2.38 -30.4,-8.73 -12.62,-7.95 -18.56,-15.09 -32.66,-33.35 -21.5,-27 -113.5,-185.79 -126.84,-214.36 -11.13,-23.84 -8.16,-45.27 -8.16,-67.51 v -57.96 c 0,-11.1 0,-39.68 2.23,-67.47 1.48,-19.851 5.93,-32.55 25.22,-35.73 8.88,-1.589 23.72,-3.179 29.67,-3.179 3.71,0 5.19,-3.18 5.19,-5.563 0,-3.179 -3.72,-5.558 -10.38,-5.558 -36.34,0 -78.64,2.379 -82.35,2.379 -2.95,0 -44.5,-2.379 -63.79,-2.379 -7.42,0 -10.38,1.59 -10.38,5.558 0,2.383 1.48,5.563 5.19,5.563 5.93,0 13.35,1.59 19.29,3.179 13.36,3.18 17.79,15.879 19.29,35.73 1.48,27.79 1.48,56.37 1.48,67.47 v 57.96" /><path
         id="path50"
         style="fill:#2c3892;fill-opacity:1;fill-rule:nonzero;stroke:none"
         d="m 1449.04,237.398 c 0,-116.718 2.96,-167.5386 16.31,-181.8277 11.89,-12.7109 31.16,-18.2383 89.03,-18.2383 39.31,0 71.95,0.7891 89.75,23.8086 9.65,12.711 17.07,32.5391 19.29,47.6404 0.74,6.348 2.22,10.328 6.67,10.328 3.71,0 4.46,-3.179 4.46,-11.91 0,-8.7498 -5.2,-56.3904 -11.13,-79.4177 -5.2,-18.24224 -7.42,-21.42192 -46.74,-21.42192 -53.41,0 -91.97,1.57031 -123.13,2.3789 -31.15,1.58202 -54.15,2.38282 -75.67,2.38282 -2.96,0 -15.57,-0.8008 -30.4,-0.8008 -14.84,-0.78124 -31.16,-1.58202 -42.29,-1.58202 -8.16,0 -11.87,1.58202 -11.87,6.35152 0,2.3907 1.48,4.75 5.93,4.75 6.68,0 15.58,1.6094 22.26,3.1915 14.84,3.1679 18.55,20.6406 21.51,43.6601 3.7,33.3596 3.7,96.0706 3.7,172.2966 v 139.731 c 0,123.871 0,146.09 -1.48,171.5 -1.47,27 -7.41,39.691 -31.89,45.25 -5.94,1.59 -18.55,2.39 -25.22,2.39 -2.97,0 -5.94,1.59 -5.94,4.75 0,4.782 3.71,6.371 11.88,6.371 33.38,0 80.1,-2.39 83.81,-2.39 3.71,0 57.86,2.39 80.11,2.39 8.17,0 11.88,-1.589 11.88,-6.371 0,-3.16 -2.97,-4.75 -5.93,-4.75 -5.19,0 -15.58,-0.8 -24.49,-2.39 -21.51,-3.957 -27.45,-17.449 -28.93,-45.25 -1.48,-25.41 -1.48,-47.629 -1.48,-171.5 V 237.398" /><path
         id="path52"
         style="fill:#2c3892;fill-opacity:1;fill-rule:nonzero;stroke:none"
         d="m 1963.24,204.852 c 0,-65.102 0,-118.3207 2.97,-146.102 2.23,-19.8398 4.45,-32.5508 23.74,-35.7187 9.64,-1.5821 23.74,-3.1915 29.67,-3.1915 3.71,0 5.19,-3.1679 5.19,-5.539 0,-3.1797 -2.96,-5.56252 -10.39,-5.56252 -36.33,0 -78.62,2.38282 -81.59,2.38282 -3.7,0 -44.51,-2.38282 -64.53,-2.38282 -6.68,0 -10.38,1.58202 -10.38,5.56252 0,2.3711 1.47,5.539 5.19,5.539 5.93,0 14.08,1.6094 20.02,3.1915 12.62,3.1679 14.84,15.8789 17.07,35.7187 2.96,27.7813 3.71,81 3.71,146.102 v 119.097 c 0,104.789 0,123.86 -1.5,145.289 -1.48,23.024 -6.66,33.352 -20.75,36.532 -7.43,1.57 -15.59,2.371 -20.04,2.371 -2.97,0 -5.19,3.179 -5.19,5.57 0,3.969 2.96,5.551 10.38,5.551 21.51,0 62.32,-1.582 66.02,-1.582 2.97,0 45.26,1.582 65.29,1.582 7.41,0 10.38,-1.582 10.38,-5.551 0,-2.391 -2.97,-5.57 -5.2,-5.57 -4.45,0 -8.9,0 -16.32,-1.602 -17.8,-3.949 -21.51,-13.488 -22.99,-37.301 -0.75,-21.429 -0.75,-40.5 -0.75,-145.289 V 204.852" /><path
         id="path54"
         style="fill:#2c3892;fill-opacity:1;fill-rule:nonzero;stroke:none"
         d="m 2329.11,235.02 c 0,-52.411 0,-133.391 0.74,-143.6997 2.23,-32.5703 2.23,-40.5117 22.25,-50.8086 17.81,-8.75 45.25,-9.5429 57.13,-9.5429 43.02,0 95.69,17.4609 95.69,104.0112 0,30.161 -11.13,88.122 -62.31,123.059 -22.25,15.09 -43.03,14.301 -58.6,17.473 -8.17,1.59 -40.81,1.59 -51.19,1.59 -2.22,0 -3.71,-1.59 -3.71,-4.762 z m 0,74.609 c 0,-4.75 1.49,-6.34 4.44,-7.117 3.72,-0.813 15.6,-3.18 40.07,-3.18 36.35,0 50.44,1.59 63.79,17.469 14.1,16.66 25.22,39.687 25.22,72.25 0,51.621 -26.7,108.769 -91.98,108.769 -7.41,0 -22.99,-0.8 -33.38,-3.172 -5.93,-1.597 -8.16,-3.168 -8.16,-7.16 z m -56.37,14.32 c 0,104.789 0,123.86 -1.49,145.289 -1.48,23.024 -5.19,35.723 -26.7,38.903 -5.2,0.8 -16.32,1.589 -22.26,1.589 -2.22,0 -5.19,1.59 -5.19,3.981 0,3.969 2.97,5.551 10.39,5.551 29.66,0 71.95,-1.582 75.66,-1.582 15.57,0 46,1.582 76.4,1.582 109.05,0 137.24,-67.492 137.24,-103.211 0,-53.211 -32.64,-86.563 -66.03,-118.313 49.71,-15.879 114.98,-64.308 114.98,-140.539 0,-75.4099 -52.65,-150.05056 -163.93,-150.05056 -11.87,0 -35.6,0.78125 -56.38,2.39062 -20.77,0.78124 -39.32,1.58204 -42.28,1.58204 -1.48,0 -13.36,-0.8008 -26.7,-0.8008 -13.35,-0.78124 -28.94,-1.58202 -39.32,-1.58202 -6.68,0 -10.39,1.58202 -10.39,5.56252 0,2.3711 1.49,3.9687 5.2,3.9687 5.93,0 14.09,2.3711 20.03,3.1797 12.61,2.3711 14.09,17.461 17.06,37.3008 3.71,27.7813 3.71,81 3.71,146.102 v 119.097" /><path
         id="path56"
         style="fill:#2c3892;fill-opacity:1;fill-rule:nonzero;stroke:none"
         d="m 2857.41,266.77 c 0,-3.969 1.49,-6.348 4.45,-8.731 9.65,-5.559 43.02,-10.309 71.96,-10.309 15.57,0 33.38,0.782 48.96,11.911 22.25,15.871 39.31,51.597 39.31,103.199 0,84.172 -43.02,132.601 -112.75,132.601 -19.29,0 -40.06,-2.39 -46.74,-3.961 -2.96,-1.609 -5.19,-3.992 -5.19,-7.949 z m -56.37,57.179 c 0,104.789 0,123.86 -1.49,145.289 -1.48,23.024 -5.19,34.141 -26.7,37.301 -5.19,0.801 -16.32,1.602 -22.26,1.602 -2.22,0 -5.19,3.179 -5.19,5.57 0,3.969 2.97,5.551 10.39,5.551 29.66,0 73.43,-1.582 77.13,-1.582 6.69,0 61.58,1.582 81.6,1.582 41.54,0 87.53,-3.992 121.67,-29.391 16.3,-12.699 45.26,-45.242 45.26,-92.101 0,-50.008 -19.3,-98.438 -80.12,-154.008 53.41,-71.473 98.65,-132.602 136.48,-174.6839 34.87,-38.1093 56.37,-44.457 72.69,-46.8476 12.62,-2.3907 19.29,-2.3907 23.01,-2.3907 3.71,0 5.93,-3.1679 5.93,-5.539 0,-3.9805 -3.71,-5.56252 -15.58,-5.56252 h -40.8 c -37.09,0 -53.4,3.97262 -69.73,13.49222 -28.17,15.8906 -51.92,48.4414 -89.01,99.2385 -27.44,36.551 -56.38,80.211 -70.48,98.453 -2.95,3.18 -4.45,3.969 -8.89,3.969 l -83.09,1.597 c -2.96,0 -4.45,-1.597 -4.45,-5.566 v -15.871 c 0,-65.09 0,-117.5197 2.97,-145.301 2.22,-19.8398 5.93,-32.5508 25.97,-35.7187 8.91,-1.5821 22.99,-3.1915 28.93,-3.1915 4.44,0 5.18,-3.1679 5.18,-5.539 0,-3.1797 -2.95,-5.56252 -10.37,-5.56252 -35.62,0 -77.17,2.38282 -80.12,2.38282 -0.75,0 -44.52,-2.38282 -64.55,-2.38282 -6.67,0 -10.38,1.58202 -10.38,5.56252 0,2.3711 1.49,5.539 5.2,5.539 5.93,0 14.1,1.6094 20.03,3.1915 12.6,3.1679 14.09,15.8789 17.06,35.7187 3.71,27.7813 3.71,81 3.71,146.102 v 119.097" /><path
         id="path58"
         style="fill:#2c3892;fill-opacity:1;fill-rule:nonzero;stroke:none"
         d="m 3570.43,224.711 c 2.95,0 2.95,1.57 2.21,4.75 l -64.54,184.98 c -3.71,10.348 -7.43,10.348 -11.14,0 l -60.81,-184.98 c -0.75,-3.18 0,-4.75 2.23,-4.75 z m -72.71,281.059 c 8.17,22.21 11.13,26.179 15.58,26.179 6.68,0 8.91,-9.527 15.57,-24.609 11.88,-28.57 116.46,-307.27 156.53,-409.6681 23.71,-60.3399 41.55,-69.0899 55.63,-73.8516 9.63,-3.1797 19.28,-3.9805 25.95,-3.9805 3.71,0 8.18,-1.5703 8.18,-5.539 0,-3.9805 -7.44,-5.56252 -14.85,-5.56252 -9.65,0 -57.85,0 -103.11,1.58202 -12.61,0.8008 -22.98,0.8008 -22.98,4.7695 0,3.1797 1.47,3.1797 4.43,4.75 3.71,1.6094 10.4,7.1602 5.94,18.2813 L 3586,192.941 c -1.5,3.161 -2.21,3.969 -5.95,3.969 h -150.58 c -2.96,0 -5.18,-1.601 -6.68,-5.558 L 3385.7,83.3516 c -5.93,-16.6602 -9.64,-33.3203 -9.64,-45.2305 0,-13.5 11.12,-18.2813 22.26,-18.2813 h 5.93 c 5.19,0 6.69,-2.3593 6.69,-5.539 0,-3.9805 -3.72,-5.56252 -9.64,-5.56252 -15.6,0 -51.2,2.38282 -58.61,2.38282 -6.67,0 -39.32,-2.38282 -66.02,-2.38282 -8.16,0 -12.63,1.58202 -12.63,5.56252 0,3.1797 2.98,5.539 5.95,5.539 4.45,0 14.1,0.8008 19.29,1.6094 29.68,3.961 42.28,27.7813 54.87,61.9024 L 3497.72,505.77" /><path
         id="path60"
         style="fill:#2c3892;fill-opacity:1;fill-rule:nonzero;stroke:none"
         d="m 4012.67,266.77 c 0,-3.969 1.47,-6.348 4.45,-8.731 9.65,-5.559 43.04,-10.309 71.95,-10.309 15.59,0 33.37,0.782 48.97,11.911 22.26,15.871 39.31,51.597 39.31,103.199 0,84.172 -43.02,132.601 -112.76,132.601 -19.28,0 -40.05,-2.39 -46.73,-3.961 -2.98,-1.609 -5.19,-3.992 -5.19,-7.949 z m -56.38,57.179 c 0,104.789 0,123.86 -1.49,145.289 -1.47,23.024 -5.19,34.141 -26.67,37.301 -5.21,0.801 -16.34,1.602 -22.28,1.602 -2.23,0 -5.19,3.179 -5.19,5.57 0,3.969 2.96,5.551 10.39,5.551 29.66,0 73.42,-1.582 77.14,-1.582 6.68,0 61.56,1.582 81.6,1.582 41.53,0 87.52,-3.992 121.65,-29.391 16.32,-12.699 45.25,-45.242 45.25,-92.101 0,-50.008 -19.29,-98.438 -80.12,-154.008 53.41,-71.473 98.67,-132.602 136.5,-174.6839 34.86,-38.1093 56.36,-44.457 72.68,-46.8476 12.63,-2.3907 19.29,-2.3907 22.99,-2.3907 3.71,0 5.95,-3.1679 5.95,-5.539 0,-3.9805 -3.7,-5.56252 -15.58,-5.56252 h -40.8 c -37.1,0 -53.42,3.97262 -69.72,13.49222 -28.18,15.8906 -51.92,48.4414 -89.02,99.2385 -27.46,36.551 -56.37,80.211 -70.47,98.453 -2.97,3.18 -4.44,3.969 -8.9,3.969 l -83.08,1.597 c -2.98,0 -4.45,-1.597 -4.45,-5.566 v -15.871 c 0,-65.09 0,-117.5197 2.96,-145.301 2.23,-19.8398 5.93,-32.5508 25.97,-35.7187 8.91,-1.5821 22.99,-3.1915 28.92,-3.1915 4.46,0 5.19,-3.1679 5.19,-5.539 0,-3.1797 -2.96,-5.56252 -10.37,-5.56252 -35.61,0 -77.15,2.38282 -80.12,2.38282 -0.75,0 -44.51,-2.38282 -64.55,-2.38282 -6.68,0 -10.38,1.58202 -10.38,5.56252 0,2.3711 1.5,5.539 5.21,5.539 5.92,0 14.1,1.6094 20.04,3.1915 12.59,3.1679 14.07,15.8789 17.05,35.7187 3.7,27.7813 3.7,81 3.7,146.102 v 119.097" /><path
         id="path62"
         style="fill:#2c3892;fill-opacity:1;fill-rule:nonzero;stroke:none"
         d="m 4609.22,204.852 c 0,-65.102 0,-118.3207 2.96,-146.102 2.22,-19.8398 4.46,-32.5508 23.75,-35.7187 9.63,-1.5821 23.74,-3.1915 29.66,-3.1915 3.7,0 5.2,-3.1679 5.2,-5.539 0,-3.1797 -2.97,-5.56252 -10.38,-5.56252 -36.37,0 -78.64,2.38282 -81.6,2.38282 -3.72,0 -44.52,-2.38282 -64.54,-2.38282 -6.67,0 -10.39,1.58202 -10.39,5.56252 0,2.3711 1.5,5.539 5.2,5.539 5.93,0 14.08,1.6094 20.02,3.1915 12.61,3.1679 14.84,15.8789 17.06,35.7187 2.98,27.7813 3.72,81 3.72,146.102 v 119.097 c 0,104.789 0,123.86 -1.49,145.289 -1.49,23.024 -6.68,33.352 -20.76,36.532 -7.42,1.57 -15.6,2.371 -20.03,2.371 -2.98,0 -5.21,3.179 -5.21,5.57 0,3.969 2.99,5.551 10.4,5.551 21.5,0 62.3,-1.582 66.02,-1.582 2.96,0 45.23,1.582 65.27,1.582 7.41,0 10.38,-1.582 10.38,-5.551 0,-2.391 -2.97,-5.57 -5.2,-5.57 -4.44,0 -8.9,0 -16.31,-1.602 -17.78,-3.949 -21.49,-13.488 -23,-37.301 -0.73,-21.429 -0.73,-40.5 -0.73,-145.289 V 204.852" /><path
         id="path64"
         style="fill:#2c3892;fill-opacity:1;fill-rule:nonzero;stroke:none"
         d="m 4918.7,323.949 c 0,104.789 0,123.86 -1.48,145.289 -1.48,23.024 -5.2,34.141 -26.7,37.301 -5.22,0.801 -16.33,1.602 -22.27,1.602 -2.21,0 -5.19,3.179 -5.19,5.57 0,3.969 2.98,5.551 10.4,5.551 29.67,0 71.95,-1.582 75.65,-1.582 4.45,0 140.95,-0.809 155.77,0 12.63,0.781 24.49,3.16 29.68,3.949 2.99,0.793 5.94,3.18 8.91,3.18 2.22,0 2.97,-3.18 2.97,-6.348 0,-4.75 -3.72,-12.691 -5.18,-31.762 -0.76,-6.359 -2.25,-36.527 -3.71,-44.461 -0.77,-3.179 -2.99,-7.148 -5.95,-7.148 -3.7,0 -5.18,3.18 -5.18,8.738 0,4.762 -0.76,15.891 -3.71,23.832 -4.47,11.11 -11.13,15.871 -46.74,20.629 -11.12,1.582 -86.79,2.391 -94.2,2.391 -2.97,0 -3.74,-2.391 -3.74,-7.149 V 300.129 c 0,-4.77 0,-7.16 3.74,-7.16 8.15,0 94.2,0 109.03,1.601 15.57,1.571 25.21,2.371 31.91,9.52 4.43,4.769 7.43,8.719 9.63,8.719 2.22,0 3.7,-1.571 3.7,-5.528 0,-3.992 -3.7,-15.101 -5.2,-37.332 -1.47,-13.48 -2.94,-38.91 -2.94,-43.668 0,-5.551 -1.48,-12.699 -5.96,-12.699 -2.95,0 -4.43,2.379 -4.43,6.34 0,6.359 0,13.508 -2.98,22.25 -2.23,9.519 -8.16,17.469 -33.37,20.629 -17.81,2.379 -87.53,3.187 -98.65,3.187 -3.71,0 -4.48,-2.386 -4.48,-4.777 v -56.359 c 0,-23.032 -0.73,-101.633 0,-115.1332 1.5,-45.25 13.36,-54 77.9,-54 17.05,0 48.23,0 65.28,7.1406 17.06,7.9492 25.97,19.8594 29.67,46.8594 1.49,7.9531 2.97,10.3322 6.68,10.3322 3.71,0 4.46,-5.5705 4.46,-10.3322 0,-4.75 -5.2,-50.8086 -8.91,-65.0977 -4.45,-17.47266 -11.13,-17.47266 -36.33,-17.47266 -48.98,0 -86.79,1.58984 -113.5,2.39062 -27.46,1.58204 -44.51,1.58204 -54.17,1.58204 -1.47,0 -14.08,0 -28.18,-0.8008 -12.6,-0.78124 -27.43,-1.58202 -37.84,-1.58202 -6.67,0 -10.37,1.58202 -10.37,5.56252 0,2.3711 1.47,5.539 5.17,5.539 5.94,0 14.1,2.3907 20.04,3.1915 12.61,2.3789 14.09,15.8789 17.05,35.7187 3.72,27.7813 3.72,81 3.72,146.102 v 119.097" /><path
         id="path66"
         style="fill:#2c3892;fill-opacity:1;fill-rule:nonzero;stroke:none"
         d="m 5367.63,18.2695 c -8.9,4.7618 -9.63,7.1407 -9.63,25.4024 0,33.3398 2.97,60.3401 3.71,71.4571 0,7.141 1.47,11.109 5.17,11.109 3.74,0 5.95,-2.379 5.95,-7.937 0,-5.563 0,-15.082 2.22,-24.6213 C 5385.45,44.4688 5434.39,27 5478.16,27 c 64.54,0 97.91,38.8984 97.91,89.719 0,48.422 -24.47,71.453 -82.33,117.5 l -29.67,23.82 c -70.48,56.391 -93.45,97.652 -93.45,144.5 0,79.391 58.58,127.043 144.63,127.043 25.97,0 51.92,-3.973 67.52,-7.953 12.6,-3.168 17.79,-3.168 22.96,-3.168 5.22,0 6.71,-0.781 6.71,-4.75 0,-3.18 -2.99,-25.422 -2.99,-71.473 0,-10.308 -0.73,-15.09 -5.19,-15.09 -4.44,0 -5.18,3.184 -5.94,8.743 -0.72,7.937 -5.91,26.191 -9.63,33.347 -4.45,7.934 -25.96,33.352 -84.56,33.352 -47.47,0 -86.8,-25.418 -86.8,-73.059 0,-42.859 20.04,-67.48 84.56,-114.32 l 18.56,-13.512 c 79.37,-57.937 106.83,-104.789 106.83,-162.738 0,-39.6993 -14.13,-82.5704 -60.84,-115.1407 C 5538.98,4.75 5498.2,0 5462.58,0 c -30.42,0 -68.24,4.75 -94.95,18.2695" /><path
         id="path68"
         style="fill:#2c3892;fill-opacity:1;fill-rule:nonzero;stroke:none"
         d="m 695.508,2071.99 c -25.406,-7.6 -41.332,3.71 -41.266,25.56 0.078,17.31 2.727,34.18 12.926,42.44 0,0 48.883,0.33 53.91,5.02 5.027,4.65 8.938,36.12 8.047,42.4 -0.941,6.35 -53.328,-5.11 -56.121,0.98 -2.738,6.11 13.512,41.86 10.605,47.91 -2.91,5.98 -42.461,-0.34 -42.461,-0.34 -5.113,-2.58 -9.746,-45.41 -14.781,-49.8 -4.988,-4.39 -42.402,1.59 -47.097,-2.86 -4.696,-4.52 -12.625,-39.03 -9.735,-43.39 2.961,-4.46 44.418,2.34 47.813,-2.39 4.031,-14 -8.516,-37.7 -23.907,-52.13 -11.191,-10.44 -23.468,-16.62 -38.777,-16.59 -23.359,0.2 -51.434,34.51 -60.289,88.61 -6.223,37.74 8.656,112.66 23.469,147.78 31.836,75.58 12.543,70.92 21.344,76.74 35.894,23.88 96.843,43.74 143,58.39 44.039,14.03 87.046,23.52 128.011,6.75 67.196,-27.38 51.742,-118.93 26.149,-174.89 -34.832,-76.13 -93.5,-186.03 -140.84,-200.19 m -282.852,85.42 c -8.89,-54.1 -36.941,-88.41 -60.301,-88.61 -15.312,-0.03 -27.621,6.15 -38.761,16.59 -15.403,14.43 -27.949,38.13 -23.899,52.13 3.414,4.73 44.821,-2.07 47.762,2.39 2.957,4.36 -5.039,38.87 -9.699,43.39 -4.699,4.45 -42.113,-1.53 -47.117,2.86 -4.977,4.39 -9.645,47.22 -14.786,49.8 0,0 -39.55,6.32 -42.41,0.34 -2.902,-6.05 13.348,-41.8 10.582,-47.91 -2.757,-6.09 -55.179,5.37 -56.117,-0.98 -0.89,-6.28 3.028,-37.75 8.063,-42.4 5.004,-4.69 53.925,-5.02 53.925,-5.02 10.145,-8.26 12.821,-25.13 12.856,-42.44 0.101,-21.85 -15.836,-33.16 -41.199,-25.56 -47.36,14.16 -106.047,124.06 -140.8909,200.19 -25.6211,55.96 -41.0469,147.51 26.1562,174.89 40.9727,16.77 83.9457,7.28 128.0197,-6.75 46.156,-14.65 107.078,-34.51 143.015,-58.39 8.782,-5.82 -10.515,-1.16 21.305,-76.74 14.84,-35.12 29.692,-110.04 23.496,-147.78 m 491.739,238.49 c -9.586,59.81 -54.77,101.5 -109.993,106.25 -98.781,8.48 -184.004,-48.04 -279.812,-66.08 -7.652,-1.51 -17.949,15.94 -27.246,25.93 44.433,35.84 38.383,106.09 -13.059,136.43 -3.555,4.32 -2.258,44.8 -0.226,46.62 4.203,3.79 37.027,-3.01 41.648,1.36 4.684,4.32 3.731,46.5 0.762,50.52 -2.989,4 -39.953,-0.32 -42.039,2.41 -2.086,2.7 1.039,40.61 -2.473,43.56 -2.484,2.15 -12.746,2.4 -18.437,2.35 -5.715,0.05 -15.965,-0.2 -18.469,-2.35 -3.496,-2.95 -0.363,-40.86 -2.469,-43.56 -2.07,-2.73 -39.031,1.59 -42.047,-2.41 -2.957,-4.02 -3.863,-46.2 0.758,-50.52 4.676,-4.37 37.473,2.43 41.668,-1.36 2.012,-1.82 3.309,-42.3 -0.219,-46.62 -51.465,-30.34 -57.488,-100.59 -13.039,-136.43 -9.328,-9.99 -19.625,-27.44 -27.293,-25.93 -95.789,18.04 -181.004,74.56 -279.758,66.08 C 57.3945,2497.4 12.25,2455.71 2.625,2395.9 c -17.2813,-107.72 55.0273,-190.5 90.1172,-282 11.0858,-28.79 20.8208,-67.61 19.0978,-100.95 h 337.777 v -0.07 c 0,0 1.395,0 3.903,0 2.515,0 3.886,0 3.886,0 v 0.07 h 337.797 c -1.742,33.34 8,72.16 19.121,100.95 35.071,91.5 107.364,174.28 90.071,282" /><path
         id="path70"
         style="fill:#2c3892;fill-opacity:1;fill-rule:nonzero;stroke:none"
         d="M 457.406,1962.84 H 104.137 v -63.5 h 698.754 v 63.5 H 457.406" /></g></g></svg>