<?xml version="1.0" encoding="utf-8"?>
<!-- Generator: Adobe Illustrator 19.2.1, SVG Export Plug-In . SVG Version: 6.00 Build 0)  -->
<!DOCTYPE svg PUBLIC "-//W3C//DTD SVG 1.1//EN" "http://www.w3.org/Graphics/SVG/1.1/DTD/svg11.dtd">
<svg version="1.1" xmlns="http://www.w3.org/2000/svg" xmlns:xlink="http://www.w3.org/1999/xlink" x="0px" y="0px"
   viewBox="0 0 121 121" enable-background="new 0 0 121 121" width="121" height="121" xml:space="preserve">
<g id="Layer_1">
  <rect id="XMLID_1_" fill="#A32035" width="121" height="121"/>
</g>
<g id="Layer_2">
  <g id="XMLID_8_">
    <polygon id="XMLID_6_" fill="#FFFFFF" points="21,14.9 21,47.1 27.8,47.1 27.8,21.2 93.5,21.2 93.5,46.6 100,46.6 100,14.9     "/>
    <polygon id="XMLID_5_" fill="#FFFFFF" points="38.6,86.5 38.6,93 56.7,93 56.7,29.1 35.5,29.1 35.5,46.8 42.2,46.8 42.2,35.8 
      50,35.8 50,86.5     "/>
    <polygon id="XMLID_4_" fill="#FFFFFF" points="64.7,29.2 64.7,93 82.8,93 82.8,86.5 71.4,86.5 71.4,35.9 79.2,35.9 79.2,46.8 
      85.9,46.8 85.9,29.2     "/>
    <rect id="XMLID_3_" x="38.6" y="100.7" fill="#FFFFFF" width="44.2" height="6.5"/>
  </g>
</g>
<g id="Layer_3" display="none">
  <g id="XMLID_9_" display="inline">
    
      <rect id="XMLID_10_" x="141" y="-85.2" fill="none" stroke="#ED1C24" stroke-width="0.25" stroke-miterlimit="10" width="13.3" height="57.4"/>
    
      <rect id="XMLID_11_" x="154.3" y="-85.2" fill="none" stroke="#ED1C24" stroke-width="0.25" stroke-miterlimit="10" width="13.3" height="57.4"/>
    
      <rect id="XMLID_12_" x="167.7" y="-85.2" fill="none" stroke="#ED1C24" stroke-width="0.25" stroke-miterlimit="10" width="13.3" height="57.4"/>
  </g>
  <g id="XMLID_14_" display="inline">
    
      <rect id="XMLID_17_" x="-62" y="-85.2" fill="none" stroke="#ED1C24" stroke-width="0.25" stroke-miterlimit="10" width="13.3" height="57.4"/>
    
      <rect id="XMLID_16_" x="-48.7" y="-85.2" fill="none" stroke="#ED1C24" stroke-width="0.25" stroke-miterlimit="10" width="13.3" height="57.4"/>
    
      <rect id="XMLID_15_" x="-35.3" y="-85.2" fill="none" stroke="#ED1C24" stroke-width="0.25" stroke-miterlimit="10" width="13.3" height="57.4"/>
  </g>
  <g id="XMLID_7_" display="inline">
    
      <rect id="XMLID_21_" x="53.7" y="71.8" transform="matrix(4.488327e-11 -1 1 4.488327e-11 -40.1466 160.8133)" fill="none" stroke="#ED1C24" stroke-width="0.25" stroke-miterlimit="10" width="13.3" height="57.4"/>
    
      <rect id="XMLID_22_" x="53.7" y="85.3" transform="matrix(4.488327e-11 -1 1 4.488327e-11 -53.6667 174.3333)" fill="none" stroke="#ED1C24" stroke-width="0.25" stroke-miterlimit="10" width="13.3" height="57.4"/>
  </g>
  <g id="XMLID_19_" display="inline">
    
      <rect id="XMLID_23_" x="54.1" y="-144" transform="matrix(4.488327e-11 -1 1 4.488327e-11 176.1136 -54.555)" fill="none" stroke="#ED1C24" stroke-width="0.25" stroke-miterlimit="10" width="13.3" height="57.4"/>
    
      <rect id="XMLID_20_" x="54.1" y="-130.5" transform="matrix(4.488327e-11 -1 1 4.488327e-11 162.5936 -41.035)" fill="none" stroke="#ED1C24" stroke-width="0.25" stroke-miterlimit="10" width="13.3" height="57.4"/>
  </g>
</g>
</svg>
