<?xml version="1.0" encoding="utf-8"?>
<!-- Generator: Adobe Illustrator 23.1.1, SVG Export Plug-In . SVG Version: 6.00 Build 0)  -->
<svg version="1.1" id="Layer_1" xmlns="http://www.w3.org/2000/svg" xmlns:xlink="http://www.w3.org/1999/xlink" x="0px" y="0px"
	 viewBox="0 0 200 40" width="200" height="40" style="enable-background:new 0 0 200 40;" xml:space="preserve">
<style type="text/css">
	.st0{fill:#231F20;}
	.st1{fill:#CB2026;}
	.st2{fill:#FFFFFF;}
</style>
<g>
	<g>
		<path class="st0" d="M88.37,21.65c0,1.53,0,3.71,2.39,3.71s2.39-2.18,2.39-3.71v-7.39h1.04v8.15c0,3.03-1.59,3.82-3.43,3.82
			c-1.84,0-3.43-0.8-3.43-3.82v-8.15h1.04V21.65z"/>
		<path class="st0" d="M97.3,26.01h-0.98V17.8h0.98v1.01h0.03c0.47-0.68,1.11-1.17,1.99-1.17c2.03,0,2.25,1.51,2.25,2.59v5.79h-0.98
			v-5.74c0-0.96-0.37-1.86-1.51-1.86c-0.88,0-1.77,0.6-1.77,2.44V26.01z"/>
		<path class="st0" d="M103.61,15.5v-1.24h1.2v1.24H103.61z M103.73,26.01V17.8h0.98v8.22H103.73z"/>
		<path class="st0" d="M109.31,24.78h0.03l2-6.98h0.94l-2.44,8.22h-1.12l-2.44-8.22h1.06L109.31,24.78z"/>
		<path class="st0" d="M114.29,22.11v0.64c0,1.14,0.31,2.65,1.86,2.65c1.22,0,1.82-0.78,1.81-1.89h1.03
			c-0.11,1.99-1.19,2.67-2.83,2.67c-1.42,0-2.83-0.57-2.83-3.06V21.1c0-2.38,0.99-3.47,2.83-3.47c2.83,0,2.83,2.03,2.83,4.48H114.29
			z M118,21.33c0-1.82-0.29-2.91-1.86-2.91c-1.56,0-1.86,1.09-1.86,2.91H118z"/>
		<path class="st0" d="M121.79,18.9h0.03c0.41-0.78,1.27-1.27,2.26-1.27v0.99c-1.38-0.11-2.3,0.72-2.3,2.1v5.29h-0.98V17.8h0.98
			V18.9z"/>
		<path class="st0" d="M127.68,26.18c-1.77,0-2.47-0.86-2.46-2.6h0.99c0,1.12,0.26,1.87,1.51,1.87c0.94,0,1.4-0.54,1.4-1.45
			c0-2.15-3.69-1.59-3.69-4.31c0-1.51,1.04-2.05,2.47-2.05c1.63,0,2.15,1.12,2.15,2.38h-0.96c-0.05-1.04-0.33-1.59-1.43-1.59
			c-0.7,0-1.25,0.46-1.25,1.19c0,2.05,3.69,1.5,3.69,4.25C130.1,25.4,129.21,26.18,127.68,26.18z"/>
		<path class="st0" d="M131.89,15.5v-1.24h1.2v1.24H131.89z M132.01,26.01V17.8h0.98v8.22H132.01z"/>
		<path class="st0" d="M134.61,18.58V17.8h1.32V16.1l0.98-0.42v2.12h1.66v0.78h-1.66v5.27c0,1.09,0.11,1.35,0.89,1.35
			c0.33,0,0.55-0.02,0.77-0.05V26c-0.29,0.03-0.62,0.05-0.93,0.05c-1.32,0-1.71-0.59-1.71-1.59v-5.88H134.61z"/>
		<path class="st0" d="M142.24,26.03l-2.6-8.23h1.06l2,6.74h0.03l1.94-6.74h0.98l-3.4,11.33h-0.96L142.24,26.03z"/>
		<path class="st0" d="M150.5,26.01V14.26h1.04v10.87h3.89v0.88H150.5z"/>
		<path class="st0" d="M157.09,15.5v-1.24h1.2v1.24H157.09z M157.21,26.01V17.8h0.98v8.22H157.21z"/>
		<path class="st0" d="M160.28,26.01c0.05-0.28,0.1-0.54,0.1-0.81V14.26h0.98v4.46l0.03,0.03c0.5-0.78,1.16-1.12,2.08-1.12
			c2.67,0,2.46,2.8,2.46,4.26c0,1.81-0.15,4.28-2.54,4.28c-0.96,0-1.66-0.39-2.07-1.16h-0.03v0.99H160.28z M163.1,25.4
			c1.81,0,1.86-1.55,1.86-3.47c0-1.92-0.05-3.51-1.86-3.51c-1.58,0-1.77,2.13-1.77,3.37C161.32,23.08,161.32,25.4,163.1,25.4z"/>
		<path class="st0" d="M168.66,18.9h0.03c0.41-0.78,1.27-1.27,2.26-1.27v0.99c-1.38-0.11-2.3,0.72-2.3,2.1v5.29h-0.98V17.8h0.98
			V18.9z"/>
		<path class="st0" d="M176.6,25h-0.03c-0.52,0.78-1.32,1.17-2.33,1.17c-1.46,0-2.26-0.99-2.26-2.43c0-2.88,2.9-2.59,4.56-2.72
			v-0.68c0-1.2-0.36-1.94-1.66-1.94c-0.89,0-1.61,0.44-1.61,1.42h-1.04c0.08-1.58,1.3-2.2,2.73-2.2c0.83,0,2.55,0.08,2.55,2.18v4.13
			c0,0.59,0,1.11,0.1,2.07h-1.01V25z M176.53,21.81c-1.4,0.05-3.51-0.11-3.51,1.89c0,0.93,0.47,1.69,1.48,1.69
			c1.12,0,2.03-1.01,2.03-2.08V21.81z"/>
		<path class="st0" d="M180.57,18.9h0.03c0.41-0.78,1.27-1.27,2.26-1.27v0.99c-1.38-0.11-2.3,0.72-2.3,2.1v5.29h-0.98V17.8h0.98
			V18.9z"/>
		<path class="st0" d="M184.36,15.5v-1.24h1.2v1.24H184.36z M184.47,26.01V17.8h0.98v8.22H184.47z"/>
		<path class="st0" d="M188.38,22.11v0.64c0,1.14,0.31,2.65,1.86,2.65c1.22,0,1.82-0.78,1.81-1.89h1.03
			c-0.11,1.99-1.19,2.67-2.83,2.67c-1.42,0-2.83-0.57-2.83-3.06V21.1c0-2.38,0.99-3.47,2.83-3.47c2.83,0,2.83,2.03,2.83,4.48H188.38
			z M192.09,21.33c0-1.82-0.29-2.91-1.86-2.91c-1.56,0-1.86,1.09-1.86,2.91H192.09z"/>
		<path class="st0" d="M197.13,26.18c-1.77,0-2.47-0.86-2.46-2.6h0.99c0,1.12,0.26,1.87,1.51,1.87c0.94,0,1.4-0.54,1.4-1.45
			c0-2.15-3.69-1.59-3.69-4.31c0-1.51,1.04-2.05,2.47-2.05c1.63,0,2.15,1.12,2.15,2.38h-0.96c-0.05-1.04-0.33-1.59-1.43-1.59
			c-0.7,0-1.25,0.46-1.25,1.19c0,2.05,3.69,1.5,3.69,4.25C199.56,25.4,198.66,26.18,197.13,26.18z"/>
	</g>
	<g>
		<rect x="0.44" y="7.09" class="st1" width="81.73" height="25.82"/>
		<polygon class="st2" points="9.58,25.86 9.58,14.14 12.89,14.14 16.01,22.26 16.04,22.26 16.04,14.14 18.33,14.14 18.33,25.86 
			15.1,25.86 11.9,17.29 11.87,17.29 11.87,25.86 		"/>
		<path class="st2" d="M20.28,20c0-3.1,0-6.06,4.04-6.06c2.5,0,3.51,1.38,3.41,3.9h-2.4c0-1.56-0.27-2.14-1-2.14
			c-1.38,0-1.56,1.3-1.56,4.3c0,3,0.18,4.3,1.56,4.3c1.14,0,1.09-1.46,1.12-2.39h2.42c0,3.13-1.25,4.14-3.54,4.14
			C20.28,26.06,20.28,23.07,20.28,20"/>
		<path class="st2" d="M36.2,26.06c-3.04,0-3.6-1.79-3.48-3.82h2.45c0,1.12,0.05,2.06,1.4,2.06c0.83,0,1.23-0.54,1.23-1.33
			c0-2.11-4.93-2.24-4.93-5.73c0-1.83,0.88-3.3,3.86-3.3c2.39,0,3.57,1.07,3.41,3.52h-2.39c0-0.87-0.14-1.76-1.14-1.76
			c-0.79,0-1.27,0.44-1.27,1.25c0,2.22,4.93,2.03,4.93,5.71C40.29,25.7,38.07,26.06,36.2,26.06"/>
		<polygon class="st2" points="49.03,14.14 49.03,16.09 46.3,16.09 46.3,25.86 43.85,25.86 43.85,16.09 41.12,16.09 41.12,14.14 		
			"/>
		<path class="st2" d="M48.3,25.86l3.25-11.72h3.23l3.18,11.72h-2.58l-0.64-2.59h-3.35l-0.66,2.59H48.3z M53.02,16.4h-0.03
			l-1.12,5.07h2.34L53.02,16.4z"/>
		<polygon class="st2" points="65.1,14.14 65.1,16.09 62.37,16.09 62.37,25.86 59.92,25.86 59.92,16.09 57.2,16.09 57.2,14.14 		"/>
		<polygon class="st2" points="66.24,25.86 66.24,14.14 72.63,14.14 72.63,15.94 68.69,15.94 68.69,18.84 72.32,18.84 72.32,20.63 
			68.69,20.63 68.69,24.06 72.76,24.06 72.76,25.86 		"/>
	</g>
</g>
</svg>
