<?xml version="1.0" encoding="utf-8"?>
<!-- Generator: Adobe Illustrator 16.0.0, SVG Export Plug-In . SVG Version: 6.00 Build 0)  -->
<!DOCTYPE svg PUBLIC "-//W3C//DTD SVG 1.1//EN" "http://www.w3.org/Graphics/SVG/1.1/DTD/svg11.dtd">
<svg version="1.1" id="Layer_1" xmlns="http://www.w3.org/2000/svg" xmlns:xlink="http://www.w3.org/1999/xlink" x="0px" y="0px"
	 width="235.688px" height="49.193px" viewBox="0 0 235.688 49.193" enable-background="new 0 0 235.688 49.193"
	 xml:space="preserve">
<g>
	<g>
		<path fill="#7C7E7F" d="M4831.577-1789.071h-0.103c-1.092,2.082-2.457,3.643-4.095,4.684s-3.634,1.562-5.989,1.562
			c-1.979,0-3.685-0.376-5.117-1.127c-1.434-0.75-2.611-1.757-3.533-3.02c-0.92-1.262-1.604-2.721-2.046-4.376
			c-0.444-1.654-0.666-3.386-0.666-5.195c0-1.945,0.238-3.762,0.717-5.451c0.478-1.689,1.203-3.148,2.175-4.376
			c0.973-1.229,2.192-2.201,3.66-2.917c1.467-0.716,3.189-1.075,5.17-1.075c1.057,0,2.099,0.146,3.121,0.436
			c1.025,0.29,1.972,0.708,2.842,1.254c0.87,0.546,1.629,1.229,2.277,2.047s1.143,1.74,1.484,2.764h0.103v-16.124h1.944v36.546
			h-1.944V-1789.071z M4821.801-1784.515c1.672,0,3.113-0.341,4.325-1.024c1.211-0.682,2.218-1.586,3.021-2.713
			c0.801-1.126,1.398-2.414,1.791-3.864c0.392-1.45,0.589-2.926,0.589-4.427c0-1.536-0.197-3.028-0.589-4.479
			c-0.393-1.45-0.982-2.747-1.766-3.89c-0.785-1.143-1.801-2.056-3.046-2.739c-1.245-0.682-2.705-1.023-4.376-1.023
			c-1.74,0-3.225,0.333-4.453,0.998s-2.244,1.561-3.045,2.688c-0.803,1.126-1.383,2.423-1.741,3.89s-0.538,2.986-0.538,4.555
			c0,1.535,0.197,3.028,0.59,4.479c0.392,1.451,0.988,2.738,1.791,3.864c0.801,1.126,1.816,2.022,3.045,2.687
			C4818.627-1784.848,4820.094-1784.515,4821.801-1784.515z"/>
		<path fill="#7C7E7F" d="M4856.146-1788.662h-0.102c-0.308,0.786-0.751,1.528-1.331,2.227c-0.58,0.7-1.289,1.323-2.125,1.868
			c-0.836,0.546-1.783,0.972-2.84,1.28c-1.059,0.307-2.219,0.461-3.48,0.461c-2.799,0-4.965-0.607-6.501-1.817
			c-1.536-1.211-2.304-3.079-2.304-5.605c0-1.535,0.307-2.79,0.922-3.762c0.614-0.972,1.389-1.74,2.328-2.303
			c0.939-0.563,1.979-0.964,3.123-1.203c1.143-0.238,2.243-0.409,3.301-0.512l3.02-0.256c1.399-0.103,2.5-0.264,3.303-0.486
			c0.801-0.222,1.407-0.529,1.816-0.921c0.41-0.392,0.666-0.896,0.769-1.51c0.102-0.614,0.153-1.382,0.153-2.303
			c0-0.717-0.137-1.382-0.41-1.997s-0.699-1.16-1.279-1.638c-0.581-0.478-1.331-0.853-2.252-1.126
			c-0.922-0.272-2.049-0.409-3.379-0.409c-2.354,0-4.258,0.581-5.707,1.74c-1.451,1.16-2.244,2.917-2.38,5.272h-1.944
			c0.135-2.9,1.065-5.075,2.789-6.526c1.723-1.45,4.172-2.176,7.346-2.176c3.173,0,5.484,0.624,6.936,1.868
			c1.449,1.246,2.174,2.875,2.174,4.889v15.304c0,0.376,0.01,0.751,0.026,1.126s0.077,0.716,0.179,1.023
			c0.104,0.307,0.273,0.555,0.512,0.742c0.238,0.188,0.58,0.282,1.024,0.282c0.341,0,0.819-0.051,1.433-0.154v1.638
			c-0.512,0.137-1.041,0.205-1.586,0.205c-0.785,0-1.408-0.103-1.868-0.307c-0.461-0.205-0.812-0.478-1.05-0.819
			c-0.238-0.341-0.402-0.742-0.486-1.203c-0.086-0.461-0.128-0.964-0.128-1.51V-1788.662z M4856.146-1798.386
			c-0.478,0.581-1.202,0.973-2.175,1.177c-0.973,0.205-2.057,0.358-3.25,0.46l-3.276,0.307c-0.956,0.103-1.911,0.249-2.866,0.435
			c-0.956,0.188-1.816,0.504-2.585,0.947c-0.768,0.444-1.392,1.049-1.868,1.817c-0.479,0.769-0.717,1.767-0.717,2.995
			c0,1.945,0.613,3.387,1.843,4.325c1.228,0.939,2.917,1.408,5.067,1.408c2.218,0,3.975-0.4,5.271-1.203
			c1.297-0.801,2.286-1.723,2.969-2.764c0.682-1.041,1.117-2.047,1.307-3.02c0.186-0.972,0.28-1.629,0.28-1.97V-1798.386z"/>
		<path fill="#7C7E7F" d="M4864.182-1792.193c0.068,1.229,0.34,2.312,0.819,3.25c0.478,0.939,1.101,1.74,1.868,2.406
			s1.664,1.169,2.688,1.51c1.023,0.341,2.132,0.512,3.327,0.512c0.853,0,1.766-0.077,2.738-0.23s1.876-0.435,2.712-0.845
			c0.836-0.409,1.527-0.98,2.074-1.714c0.545-0.733,0.818-1.664,0.818-2.79c0-1.467-0.443-2.576-1.331-3.327
			c-0.888-0.75-2.005-1.331-3.353-1.741c-1.348-0.409-2.798-0.742-4.351-0.998c-1.554-0.256-3.003-0.64-4.351-1.151
			c-1.349-0.512-2.466-1.237-3.354-2.176c-0.887-0.938-1.33-2.311-1.33-4.12c0-1.296,0.29-2.38,0.87-3.25
			c0.579-0.87,1.321-1.561,2.227-2.073c0.903-0.512,1.919-0.878,3.046-1.101c1.125-0.222,2.252-0.333,3.378-0.333
			c1.364,0,2.644,0.154,3.839,0.461c1.194,0.307,2.227,0.802,3.097,1.484c0.87,0.683,1.552,1.553,2.048,2.61
			c0.494,1.058,0.742,2.338,0.742,3.839h-1.945c0-1.194-0.197-2.218-0.589-3.071c-0.393-0.852-0.938-1.543-1.638-2.073
			c-0.699-0.529-1.527-0.921-2.482-1.177c-0.956-0.256-1.98-0.384-3.071-0.384c-0.888,0-1.783,0.085-2.687,0.256
			c-0.905,0.171-1.715,0.461-2.432,0.87c-0.717,0.41-1.306,0.939-1.766,1.587c-0.461,0.648-0.691,1.433-0.691,2.354
			c0,1.058,0.256,1.911,0.768,2.559c0.512,0.648,1.186,1.169,2.021,1.561c0.836,0.393,1.773,0.708,2.814,0.947
			s2.092,0.479,3.148,0.717c1.297,0.239,2.516,0.521,3.66,0.844c1.143,0.325,2.133,0.768,2.969,1.331s1.492,1.288,1.971,2.176
			s0.717,2.013,0.717,3.378c0,1.433-0.324,2.61-0.973,3.531c-0.648,0.922-1.467,1.664-2.457,2.227s-2.09,0.955-3.301,1.177
			c-1.212,0.222-2.398,0.333-3.558,0.333c-1.503,0-2.892-0.197-4.172-0.589c-1.28-0.392-2.397-0.989-3.353-1.791
			s-1.707-1.783-2.252-2.943c-0.547-1.16-0.838-2.508-0.87-4.043H4864.182z"/>
		<path fill="#7C7E7F" d="M4888.801-1819.986v15.868h0.102c0.342-0.989,0.828-1.868,1.461-2.636c0.63-0.768,1.363-1.424,2.199-1.971
			c0.837-0.545,1.749-0.955,2.738-1.229c0.99-0.272,1.998-0.41,3.021-0.41c1.536,0,2.841,0.188,3.917,0.563
			c1.074,0.375,1.951,0.87,2.635,1.484c0.683,0.614,1.221,1.305,1.612,2.073c0.393,0.768,0.674,1.544,0.845,2.329
			c0.17,0.785,0.273,1.544,0.309,2.278c0.032,0.734,0.05,1.374,0.05,1.919v16.277h-1.945v-16.635c0-0.648-0.051-1.467-0.153-2.457
			c-0.102-0.989-0.401-1.936-0.896-2.84c-0.495-0.904-1.246-1.681-2.253-2.329c-1.006-0.648-2.397-0.973-4.172-0.973
			c-1.501,0-2.832,0.273-3.991,0.819c-1.161,0.546-2.15,1.305-2.969,2.278c-0.819,0.973-1.442,2.133-1.868,3.48
			c-0.428,1.348-0.641,2.824-0.641,4.427v14.229h-1.945v-36.546H4888.801z"/>
	</g>
	<g>
		<path fill="#FF8300" d="M4791.313-1781.702c-0.007-0.057-0.208-3.038-1.587-6.497c-1.387-3.462-3.336-5.454-3.391-5.512
			c-0.32-0.328-0.746-0.493-1.166-0.498v-0.001h-0.004h-0.006v0.001c-0.42,0.005-0.847,0.17-1.167,0.498
			c-0.054,0.058-2.003,2.05-3.391,5.512c-1.379,3.459-1.579,6.44-1.586,6.497l-0.009,0.38v0.003v0.001v0.009l0.004-0.003
			c0.025,1.888,3.058,1.965,3.121-0.298l0.006-0.102l0.028-0.444c0,0,0.034-0.564,0.19-1.457c0.157-0.894,0.434-2.088,0.9-3.256
			c0.468-1.167,1.035-2.094,1.482-2.72c0.161-0.229,0.688-0.229,0.85,0c0.445,0.626,1.013,1.554,1.48,2.72
			c0.469,1.168,0.746,2.362,0.902,3.256c0.156,0.893,0.189,1.457,0.189,1.457l0.027,0.445l0.007,0.102
			c0.065,2.264,3.098,2.186,3.122,0.298l0.002,0.003v-0.009v-0.001v-0.003L4791.313-1781.702z"/>
		<path fill="#FF8300" d="M4801.758-1798.451c-0.057-0.01-2.923-0.738-6.605-0.481c-3.684,0.263-6.162,1.522-6.232,1.557
			c-0.406,0.207-0.694,0.565-0.828,0.965v0c0,0.001,0,0.004-0.002,0.006c0,0.001-0.003,0.004-0.004,0.006l0.004,0.001
			c-0.127,0.403-0.104,0.864,0.106,1.272c0.038,0.072,1.309,2.561,4.138,4.964c2.828,2.395,5.57,3.509,5.623,3.534l0.355,0.123
			l0.004,0.001l0,0l0.008,0.003l-0.003-0.004c1.784,0.561,2.794-2.332,0.685-3.092l-0.095-0.037l-0.409-0.165
			c0,0-0.52-0.208-1.312-0.634c-0.793-0.426-1.832-1.062-2.784-1.873c-0.954-0.81-1.65-1.641-2.103-2.265
			c-0.166-0.224-0.003-0.731,0.262-0.815c0.727-0.237,1.777-0.495,3.019-0.583c1.241-0.089,2.453,0.014,3.343,0.139
			c0.886,0.127,1.43,0.267,1.43,0.267l0.426,0.11l0.099,0.026c2.147,0.638,3.013-2.302,1.243-2.909l0.004-0.001l-0.006-0.002h-0.003
			l-0.002-0.001L4801.758-1798.451z"/>
		<path fill="#FF8300" d="M4789.227-1813.667c-0.028,0.052-1.599,2.583-2.496,6.201c-0.891,3.625-0.471,6.394-0.459,6.475
			c0.068,0.455,0.316,0.841,0.65,1.094l0,0c0,0,0.006,0,0.007,0.004c0,0,0.002,0.002,0.005,0.003l0.002-0.001
			c0.338,0.245,0.779,0.365,1.229,0.289c0.08-0.013,2.814-0.466,5.949-2.443c3.127-1.979,5.023-4.271,5.062-4.314l0.227-0.302
			l0.002-0.003h0.001l0.004-0.007l-0.004,0.001c1.077-1.543-1.332-3.407-2.698-1.613l-0.064,0.079l-0.28,0.343
			c0,0-0.356,0.435-1.003,1.065c-0.645,0.63-1.564,1.431-2.622,2.099c-1.056,0.665-2.054,1.078-2.78,1.321
			c-0.263,0.087-0.689-0.225-0.688-0.505c0.004-0.772,0.082-1.86,0.385-3.08c0.3-1.222,0.77-2.354,1.162-3.171
			c0.395-0.814,0.693-1.291,0.694-1.292l0.235-0.375l0.055-0.087c1.264-1.87-1.234-3.606-2.352-2.095v-0.004l-0.006,0.006
			c0,0.001,0,0.002,0,0.002l-0.002,0.003L4789.227-1813.667z"/>
		<path fill="#FF8300" d="M4771.039-1806.322c0.038,0.043,1.936,2.336,5.062,4.316c3.136,1.976,5.87,2.428,5.949,2.444
			c0.448,0.075,0.89-0.047,1.23-0.289l0.001,0c0.002-0.001,0.003-0.004,0.004-0.006c0.002-0.001,0.004-0.001,0.006-0.002v-0.002
			c0.336-0.25,0.585-0.637,0.651-1.093c0.011-0.082,0.429-2.85-0.459-6.475c-0.897-3.617-2.468-6.148-2.497-6.201l-0.214-0.31
			l-0.001-0.002v-0.001l-0.005-0.006l-0.001,0.004c-1.117-1.513-3.615,0.228-2.352,2.095l0.055,0.087l0.234,0.375
			c0,0.003,0.3,0.479,0.693,1.293c0.393,0.816,0.864,1.949,1.164,3.171c0.301,1.221,0.381,2.308,0.384,3.082
			c0.003,0.281-0.425,0.592-0.687,0.504c-0.726-0.242-1.725-0.654-2.78-1.322c-1.058-0.666-1.977-1.468-2.624-2.099
			c-0.645-0.627-1-1.065-1-1.065l-0.283-0.344l-0.064-0.078c-1.367-1.792-3.773,0.07-2.697,1.614l-0.002-0.002l0.002,0.008h0.003
			l0.003,0.003L4771.039-1806.322z"/>
		<path fill="#FF8300" d="M4772.328-1786.565c0.053-0.025,2.795-1.139,5.625-3.533c2.828-2.405,4.098-4.894,4.137-4.965
			c0.211-0.408,0.232-0.87,0.107-1.271h0.002c0-0.004-0.003-0.004-0.004-0.007c-0.001-0.003,0-0.003-0.001-0.006h-0.001
			c-0.133-0.401-0.42-0.76-0.828-0.965c-0.072-0.036-2.548-1.294-6.232-1.558c-3.683-0.257-6.549,0.471-6.604,0.482l-0.358,0.11
			l-0.003,0.001h-0.003l-0.008,0.002l0.005,0.003c-1.768,0.606-0.903,3.547,1.243,2.908l0.1-0.026l0.426-0.11
			c0,0,0.543-0.143,1.432-0.267c0.889-0.126,2.099-0.229,3.342-0.141c1.24,0.088,2.291,0.349,3.018,0.584
			c0.266,0.084,0.426,0.593,0.262,0.817c-0.451,0.622-1.146,1.456-2.103,2.264c-0.952,0.812-1.991,1.447-2.784,1.874
			c-0.791,0.423-1.312,0.633-1.312,0.632l-0.41,0.165l-0.094,0.038c-2.107,0.762-1.1,3.651,0.686,3.093l-0.003,0.002l0.009-0.002
			l0,0l0.004-0.002L4772.328-1786.565z"/>
	</g>
	<g>
		<path fill="#7C7E7F" d="M4812.651-1777.256c0.821,0,1.453,0.209,1.896,0.627c0.443,0.418,0.665,1.055,0.665,1.911
			c0,0.448-0.05,0.845-0.149,1.19c-0.1,0.347-0.254,0.638-0.463,0.874c-0.209,0.236-0.475,0.417-0.799,0.541
			c-0.323,0.125-0.707,0.187-1.149,0.187h-1.829v-5.33H4812.651z M4812.711-1772.524c0.08,0,0.18-0.006,0.299-0.018
			c0.119-0.013,0.246-0.042,0.381-0.089c0.135-0.048,0.268-0.116,0.398-0.206c0.133-0.089,0.25-0.211,0.355-0.366
			c0.104-0.154,0.189-0.348,0.258-0.579c0.066-0.231,0.1-0.511,0.1-0.84c0-0.319-0.031-0.604-0.093-0.854
			c-0.062-0.251-0.164-0.465-0.306-0.642c-0.143-0.177-0.325-0.311-0.549-0.403c-0.225-0.092-0.5-0.138-0.828-0.138h-1.195v4.135
			H4812.711z"/>
		<path fill="#7C7E7F" d="M4818.31-1777.256l2.081,5.33h-0.783l-0.582-1.605h-2.254l-0.598,1.605h-0.723l2.074-5.33H4818.31z
			 M4818.803-1774.128l-0.889-2.486h-0.016l-0.902,2.486H4818.803z"/>
		<path fill="#7C7E7F" d="M4819.66-1776.659v-0.598h4.262v0.598h-1.775v4.732h-0.709v-4.732H4819.66z"/>
		<path fill="#7C7E7F" d="M4826.057-1777.256l2.084,5.33h-0.784l-0.583-1.605h-2.254l-0.598,1.605h-0.723l2.074-5.33H4826.057z
			 M4826.551-1774.128l-0.889-2.486h-0.016l-0.902,2.486H4826.551z"/>
		<path fill="#7C7E7F" d="M4833.406-1776.528c-0.236-0.171-0.539-0.257-0.906-0.257c-0.15,0-0.297,0.015-0.441,0.045
			c-0.145,0.029-0.271,0.08-0.385,0.149c-0.111,0.07-0.201,0.163-0.268,0.28c-0.068,0.117-0.102,0.263-0.102,0.437
			c0,0.165,0.049,0.298,0.146,0.4s0.226,0.185,0.389,0.25c0.16,0.065,0.344,0.118,0.547,0.161c0.205,0.042,0.412,0.088,0.625,0.138
			c0.211,0.05,0.418,0.108,0.622,0.176s0.388,0.158,0.549,0.272c0.161,0.115,0.29,0.259,0.388,0.433
			c0.098,0.174,0.146,0.394,0.146,0.657c0,0.284-0.064,0.526-0.191,0.728s-0.289,0.366-0.488,0.493s-0.422,0.219-0.668,0.276
			c-0.246,0.057-0.492,0.085-0.734,0.085c-0.3,0-0.582-0.037-0.848-0.112c-0.267-0.075-0.5-0.188-0.702-0.339
			c-0.202-0.152-0.361-0.346-0.478-0.583c-0.117-0.236-0.176-0.516-0.176-0.839h0.672c0,0.224,0.043,0.417,0.131,0.578
			c0.087,0.162,0.201,0.295,0.343,0.399s0.308,0.182,0.497,0.231s0.383,0.075,0.582,0.075c0.159,0,0.32-0.015,0.48-0.045
			c0.162-0.03,0.309-0.081,0.438-0.153c0.129-0.072,0.234-0.17,0.314-0.294c0.078-0.125,0.119-0.284,0.119-0.478
			c0-0.184-0.049-0.333-0.146-0.448c-0.097-0.114-0.227-0.208-0.389-0.28c-0.161-0.072-0.344-0.13-0.549-0.175
			c-0.203-0.045-0.41-0.091-0.623-0.138c-0.211-0.047-0.418-0.102-0.623-0.165c-0.203-0.062-0.387-0.144-0.549-0.246
			c-0.16-0.102-0.291-0.234-0.389-0.396c-0.096-0.162-0.145-0.365-0.145-0.608c0-0.269,0.055-0.501,0.164-0.698
			c0.109-0.196,0.256-0.358,0.438-0.485c0.182-0.126,0.388-0.221,0.619-0.283c0.232-0.062,0.469-0.094,0.713-0.094
			c0.273,0,0.527,0.033,0.762,0.097c0.232,0.065,0.439,0.167,0.615,0.306c0.177,0.14,0.316,0.315,0.418,0.526
			s0.158,0.464,0.168,0.757h-0.672C4833.781-1776.079,4833.643-1776.357,4833.406-1776.528z"/>
		<path fill="#7C7E7F" d="M4836.284-1777.256v2.292h2.806v-2.292h0.71v5.33h-0.71v-2.441h-2.806v2.441h-0.71v-5.33H4836.284z"/>
		<path fill="#7C7E7F" d="M4843.195-1777.256l2.083,5.33h-0.784l-0.582-1.605h-2.254l-0.598,1.605h-0.724l2.075-5.33H4843.195z
			 M4843.688-1774.128l-0.888-2.486h-0.016l-0.902,2.486H4843.688z"/>
		<path fill="#7C7E7F" d="M4848.309-1777.256c0.508,0,0.904,0.125,1.191,0.374c0.285,0.249,0.429,0.59,0.429,1.022
			c0,0.324-0.073,0.607-0.22,0.851c-0.147,0.244-0.383,0.411-0.706,0.5v0.015c0.154,0.029,0.28,0.079,0.378,0.149
			c0.097,0.069,0.174,0.153,0.23,0.25c0.057,0.098,0.1,0.206,0.127,0.325c0.027,0.119,0.049,0.244,0.063,0.373
			c0.01,0.13,0.017,0.261,0.022,0.396c0.005,0.134,0.018,0.266,0.037,0.395c0.02,0.13,0.049,0.253,0.086,0.37
			c0.037,0.117,0.094,0.22,0.168,0.31h-0.791c-0.051-0.055-0.084-0.13-0.102-0.224c-0.017-0.094-0.028-0.2-0.033-0.317
			c-0.004-0.117-0.01-0.243-0.014-0.377c-0.006-0.135-0.021-0.267-0.045-0.396c-0.021-0.129-0.045-0.252-0.076-0.37
			c-0.029-0.117-0.076-0.219-0.141-0.306c-0.064-0.087-0.15-0.157-0.254-0.209c-0.105-0.053-0.244-0.079-0.418-0.079h-1.732v2.277
			h-0.709v-5.33H4848.309z M4848.457-1774.837c0.15-0.025,0.281-0.074,0.393-0.146c0.112-0.072,0.202-0.169,0.27-0.291
			c0.066-0.122,0.1-0.28,0.1-0.474c0-0.269-0.074-0.488-0.223-0.657c-0.15-0.169-0.391-0.254-0.725-0.254h-1.762v1.858h1.479
			C4848.152-1774.8,4848.309-1774.812,4848.457-1774.837z"/>
		<path fill="#7C7E7F" d="M4851.652-1777.256v5.33h-0.708v-5.33H4851.652z"/>
		<path fill="#7C7E7F" d="M4853.594-1777.256l2.807,4.322h0.015v-4.322h0.672v5.33h-0.776l-2.784-4.277h-0.015v4.277h-0.672v-5.33
			H4853.594z"/>
		<path fill="#7C7E7F" d="M4861.446-1771.99c-0.31,0.122-0.62,0.183-0.933,0.183c-0.398,0-0.756-0.073-1.068-0.22
			c-0.313-0.147-0.58-0.345-0.799-0.594s-0.385-0.535-0.5-0.858c-0.113-0.323-0.172-0.659-0.172-1.008
			c0-0.388,0.054-0.757,0.161-1.108c0.106-0.351,0.267-0.658,0.478-0.922c0.211-0.264,0.475-0.474,0.791-0.631
			c0.316-0.156,0.686-0.235,1.109-0.235c0.287,0,0.561,0.034,0.816,0.101c0.256,0.067,0.486,0.173,0.688,0.317
			c0.201,0.145,0.371,0.328,0.508,0.548c0.136,0.222,0.229,0.489,0.279,0.803h-0.709c-0.035-0.204-0.1-0.379-0.194-0.526
			c-0.095-0.146-0.212-0.268-0.351-0.362c-0.14-0.094-0.298-0.165-0.475-0.212c-0.176-0.047-0.364-0.071-0.562-0.071
			c-0.324,0-0.602,0.064-0.832,0.194c-0.232,0.129-0.422,0.3-0.568,0.512s-0.256,0.453-0.324,0.724
			c-0.07,0.271-0.105,0.548-0.105,0.832c0,0.279,0.04,0.546,0.12,0.802c0.079,0.256,0.196,0.483,0.351,0.679
			c0.154,0.197,0.345,0.354,0.571,0.471c0.226,0.117,0.489,0.175,0.788,0.175c0.277,0,0.523-0.045,0.738-0.135
			c0.214-0.089,0.395-0.212,0.541-0.37c0.146-0.156,0.258-0.341,0.332-0.552c0.075-0.211,0.107-0.439,0.098-0.683h-1.702v-0.597
			h2.337v2.807h-0.448l-0.187-0.665C4862.014-1772.312,4861.754-1772.112,4861.446-1771.99z"/>
		<path fill="#7C7E7F" d="M4866.962-1777.256l1.679,4.479l1.688-4.479h0.97v5.33h-0.672v-4.434h-0.015l-1.665,4.434h-0.604
			l-1.665-4.434h-0.015v4.434h-0.672v-5.33H4866.962z"/>
		<path fill="#7C7E7F" d="M4874.71-1777.256l2.083,5.33h-0.783l-0.582-1.605h-2.256l-0.598,1.605h-0.723l2.074-5.33H4874.71z
			 M4875.203-1774.128l-0.889-2.486h-0.015l-0.903,2.486H4875.203z"/>
		<path fill="#7C7E7F" d="M4879.145-1777.256c0.82,0,1.453,0.209,1.895,0.627c0.443,0.418,0.666,1.055,0.666,1.911
			c0,0.448-0.051,0.845-0.15,1.19c-0.1,0.347-0.254,0.638-0.462,0.874c-0.21,0.236-0.476,0.417-0.799,0.541
			s-0.707,0.187-1.149,0.187h-1.829v-5.33H4879.145z M4879.203-1772.524c0.08,0,0.18-0.006,0.299-0.018
			c0.119-0.013,0.246-0.042,0.381-0.089c0.135-0.048,0.268-0.116,0.4-0.206c0.131-0.089,0.25-0.211,0.354-0.366
			s0.19-0.348,0.258-0.579c0.067-0.231,0.101-0.511,0.101-0.84c0-0.319-0.03-0.604-0.093-0.854
			c-0.062-0.251-0.164-0.465-0.307-0.642c-0.142-0.177-0.324-0.311-0.549-0.403c-0.225-0.092-0.5-0.138-0.828-0.138h-1.195v4.135
			H4879.203z"/>
		<path fill="#7C7E7F" d="M4886.25-1777.256v0.598h-2.971v1.694h2.77v0.597h-2.77v1.843h2.993v0.598h-3.702v-5.33H4886.25z"/>
		<path fill="#7C7E7F" d="M4892.887-1777.256v0.598h-2.972v1.694h2.77v0.597h-2.77v1.843h2.993v0.598h-3.702v-5.33H4892.887z"/>
		<path fill="#7C7E7F" d="M4895.998-1777.256l2.084,5.33h-0.785l-0.582-1.605h-2.254l-0.598,1.605h-0.724l2.075-5.33H4895.998z
			 M4896.49-1774.128l-0.887-2.486h-0.016l-0.902,2.486H4896.49z"/>
		<path fill="#7C7E7F" d="M4901.271-1776.528c-0.236-0.171-0.538-0.257-0.906-0.257c-0.148,0-0.296,0.015-0.441,0.045
			c-0.143,0.029-0.271,0.08-0.385,0.149c-0.11,0.07-0.199,0.163-0.268,0.28c-0.066,0.117-0.101,0.263-0.101,0.437
			c0,0.165,0.048,0.298,0.146,0.4s0.227,0.185,0.389,0.25c0.161,0.065,0.344,0.118,0.549,0.161c0.203,0.042,0.411,0.088,0.623,0.138
			c0.211,0.05,0.418,0.108,0.623,0.176c0.203,0.067,0.387,0.158,0.549,0.272c0.161,0.115,0.291,0.259,0.389,0.433
			c0.096,0.174,0.145,0.394,0.145,0.657c0,0.284-0.062,0.526-0.191,0.728c-0.125,0.202-0.289,0.366-0.488,0.493
			s-0.421,0.219-0.668,0.276c-0.246,0.057-0.491,0.085-0.734,0.085c-0.299,0-0.582-0.037-0.848-0.112s-0.5-0.188-0.701-0.339
			c-0.201-0.152-0.361-0.346-0.479-0.583c-0.116-0.236-0.176-0.516-0.176-0.839h0.672c0,0.224,0.045,0.417,0.131,0.578
			c0.088,0.162,0.202,0.295,0.344,0.399c0.143,0.104,0.308,0.182,0.496,0.231c0.189,0.05,0.383,0.075,0.582,0.075
			c0.16,0,0.32-0.015,0.482-0.045c0.161-0.03,0.307-0.081,0.437-0.153c0.129-0.072,0.233-0.17,0.313-0.294
			c0.08-0.125,0.119-0.284,0.119-0.478c0-0.184-0.049-0.333-0.146-0.448s-0.226-0.208-0.388-0.28
			c-0.162-0.072-0.346-0.13-0.549-0.175c-0.205-0.045-0.412-0.091-0.623-0.138c-0.213-0.047-0.42-0.102-0.624-0.165
			c-0.204-0.062-0.388-0.144-0.549-0.246s-0.29-0.234-0.388-0.396c-0.097-0.162-0.146-0.365-0.146-0.608
			c0-0.269,0.054-0.501,0.164-0.698c0.109-0.196,0.255-0.358,0.437-0.485c0.182-0.126,0.389-0.221,0.619-0.283
			c0.232-0.062,0.469-0.094,0.713-0.094c0.274,0,0.527,0.033,0.762,0.097c0.234,0.065,0.439,0.167,0.616,0.306
			c0.177,0.14,0.315,0.315,0.417,0.526s0.159,0.464,0.168,0.757h-0.672C4901.646-1776.079,4901.51-1776.357,4901.271-1776.528z"/>
		<path fill="#7C7E7F" d="M4905.643-1771.926h-0.709v-2.18l-2.061-3.15h0.844l1.598,2.538l1.559-2.538h0.807l-2.037,3.15V-1771.926z
			"/>
	</g>
	<line fill="#4D4D4D" stroke="#7C7E7F" stroke-miterlimit="10" x1="4759.172" y1="-1821" x2="4759.172" y2="-1773"/>
	<g>
		<g>
			<path fill="#7E7D7E" d="M4672.457-1809.981v-4.845h1.373v4.688c0,1.735,0.648,2.43,2.132,2.43c1.403,0,2.035-0.82,2.035-2.288
				v-4.83h1.263v4.72c0,2.162-1.074,3.535-3.346,3.535C4673.531-1806.572,4672.457-1807.914,4672.457-1809.981z"/>
			<path fill="#7E7D7E" d="M4682.32-1814.826h1.373l3.583,4.908c0.458,0.648,0.82,1.342,0.836,1.342h0.032
				c0,0-0.063-0.632-0.063-1.247v-5.003h1.231v8.113h-1.231l-3.804-5.208c-0.379-0.552-0.727-1.2-0.727-1.2h-0.016
				c0,0,0.047,0.538,0.047,1.042v5.367h-1.262V-1814.826z"/>
			<path fill="#7E7D7E" d="M4692.53-1814.826h1.356v8.113h-1.356V-1814.826z"/>
			<path fill="#7E7D7E" d="M4696.16-1814.826h1.436l2.052,5.318c0.237,0.6,0.474,1.374,0.474,1.39h0.031
				c0-0.017,0.236-0.774,0.473-1.39l1.975-5.318h1.31l-3.142,8.113h-1.325L4696.16-1814.826z"/>
			<path fill="#7E7D7E" d="M4706.135-1814.826h4.955v1.105h-3.6v2.225h3.221v1.074h-3.221v2.604h3.679v1.105h-5.034V-1814.826z"/>
			<path fill="#7E7D7E" d="M4713.931-1814.826h2.54c1.895,0,2.982,0.773,2.982,2.242c0,1.389-1.01,2.004-2.226,2.13v0.032
				c0.175,0.126,0.475,0.426,0.964,1.104l1.926,2.604h-1.562l-1.643-2.321c-0.805-1.121-0.994-1.214-1.482-1.214h-0.143v3.535
				h-1.356V-1814.826z M4716.439-1811.259c1.137,0,1.625-0.427,1.625-1.263c0-0.853-0.537-1.248-1.703-1.248h-1.074v2.51H4716.439z"
				/>
			<path fill="#7E7D7E" d="M4721.709-1807.376l0.601-0.963c0.22,0.157,0.819,0.663,1.894,0.663c0.963,0,1.594-0.427,1.594-1.137
				c0-0.852-0.773-1.089-1.957-1.641c-1.041-0.474-1.926-1.058-1.926-2.336c0-1.419,1.215-2.193,2.619-2.193
				c1.327,0,2.006,0.426,2.354,0.662l-0.585,0.963c-0.3-0.205-0.915-0.521-1.72-0.521c-0.773,0-1.342,0.331-1.342,1.026
				c0,0.773,0.678,1.01,1.562,1.405c1.137,0.505,2.303,1.089,2.303,2.572c0,1.421-1.135,2.305-2.887,2.305
				C4722.861-1806.572,4722.039-1807.077,4721.709-1807.376z"/>
			<path fill="#7E7D7E" d="M4729.773-1814.826h1.356v8.113h-1.356V-1814.826z"/>
			<path fill="#7E7D7E" d="M4735.896-1813.706h-2.479v-1.121h6.329v1.121h-2.478v6.992h-1.373V-1813.706z"/>
			<path fill="#7E7D7E" d="M4744.086-1809.792l-2.855-5.035h1.482l2.084,3.851h0.031l2.053-3.851h1.325l-2.763,5.035v3.078h-1.357
				V-1809.792z"/>
			<path fill="#7E7D7E" d="M4672-1796.809c0-2.226,1.562-4.229,4.277-4.229s4.277,1.956,4.277,4.181c0,2.226-1.531,4.23-4.246,4.23
				S4672-1794.584,4672-1796.809z M4679.117-1796.809c0-1.673-0.932-3.125-2.809-3.125c-1.878,0-2.857,1.437-2.857,3.078
				c0,1.673,0.947,3.109,2.826,3.109C4678.154-1793.748,4679.117-1795.153,4679.117-1796.809z"/>
			<path fill="#7E7D7E" d="M4682.951-1800.88h4.878v1.104h-3.521v2.305h3.109v1.087h-3.109v3.616h-1.357V-1800.88z"/>
			<path fill="#7E7D7E" d="M4672-1782.896c0-2.256,1.547-4.197,4.291-4.197c1.092,0,1.816,0.237,2.447,0.646l-0.646,1.01
				c-0.474-0.316-1.042-0.522-1.831-0.522c-1.847,0-2.81,1.279-2.81,3.015c0,1.784,0.916,3.126,2.84,3.126
				c0.916,0,1.531-0.3,2.008-0.646l0.566,0.961c-0.441,0.378-1.388,0.822-2.62,0.822C4673.482-1778.68,4672-1780.639,4672-1782.896z
				"/>
			<path fill="#7E7D7E" d="M4683.394-1786.936h1.327l3.297,8.113h-1.419l-0.696-1.768h-3.771l-0.662,1.768h-1.343L4683.394-1786.936
				z M4685.492-1781.696l-0.962-2.478c-0.269-0.71-0.505-1.469-0.505-1.469h-0.032c0,0-0.253,0.791-0.505,1.469l-0.947,2.478
				H4685.492z"/>
			<path fill="#7E7D7E" d="M4690.005-1786.936h1.39v7.007h3.424v1.105h-4.813V-1786.936z"/>
			<path fill="#7E7D7E" d="M4697.139-1786.936h1.356v8.113h-1.356V-1786.936z"/>
			<path fill="#7E7D7E" d="M4701.509-1786.936h4.878v1.105h-3.52v2.304h3.108v1.089h-3.108v3.615h-1.358V-1786.936z"/>
			<path fill="#7E7D7E" d="M4708.137-1782.864c0-2.225,1.562-4.229,4.277-4.229c2.717,0,4.279,1.957,4.279,4.181
				c0,2.227-1.531,4.231-4.248,4.231C4709.731-1778.68,4708.137-1780.639,4708.137-1782.864z M4715.256-1782.864
				c0-1.672-0.932-3.125-2.811-3.125c-1.877,0-2.855,1.437-2.855,3.077c0,1.673,0.947,3.109,2.824,3.109
				C4714.293-1779.802,4715.256-1781.207,4715.256-1782.864z"/>
			<path fill="#7E7D7E" d="M4718.726-1786.936h2.542c1.894,0,2.984,0.773,2.984,2.242c0,1.389-1.012,2.004-2.226,2.129v0.032
				c0.173,0.125,0.472,0.428,0.962,1.105l1.926,2.605h-1.562l-1.643-2.32c-0.805-1.121-0.994-1.217-1.483-1.217h-0.142v3.537h-1.358
				V-1786.936z M4721.236-1783.369c1.137,0,1.625-0.426,1.625-1.263c0-0.853-0.537-1.246-1.704-1.246h-1.073v2.509H4721.236z"/>
			<path fill="#7E7D7E" d="M4726.9-1786.936h1.373l3.584,4.91c0.457,0.646,0.82,1.341,0.836,1.341h0.031
				c0,0-0.062-0.631-0.062-1.247v-5.003h1.23v8.113h-1.23l-3.803-5.208c-0.38-0.554-0.727-1.201-0.727-1.201h-0.016
				c0,0,0.047,0.537,0.047,1.04v5.368h-1.264V-1786.936z"/>
			<path fill="#7E7D7E" d="M4736.891-1786.936h1.357v8.113h-1.357V-1786.936z"/>
			<path fill="#7E7D7E" d="M4743.598-1786.936h1.326l3.299,8.113h-1.422l-0.693-1.768h-3.773l-0.662,1.768h-1.342L4743.598-1786.936
				z M4745.697-1781.696l-0.963-2.478c-0.27-0.71-0.506-1.469-0.506-1.469h-0.031c0,0-0.252,0.791-0.505,1.469l-0.948,2.478
				H4745.697z"/>
		</g>
	</g>
</g>
<g>
	<g>
		<path fill="#7C7E7F" d="M159.577,31.929h-0.103c-1.092,2.082-2.457,3.643-4.095,4.684s-3.634,1.562-5.989,1.562
			c-1.979,0-3.685-0.376-5.117-1.127c-1.434-0.75-2.611-1.757-3.533-3.02c-0.92-1.262-1.604-2.721-2.046-4.376
			c-0.444-1.654-0.666-3.386-0.666-5.195c0-1.945,0.238-3.762,0.717-5.451c0.478-1.689,1.203-3.148,2.175-4.376
			c0.973-1.229,2.192-2.201,3.66-2.917c1.467-0.716,3.189-1.075,5.17-1.075c1.057,0,2.099,0.146,3.121,0.436
			c1.025,0.29,1.972,0.708,2.842,1.254c0.87,0.546,1.629,1.229,2.277,2.047s1.143,1.74,1.484,2.764h0.103V1.014h1.944V37.56h-1.944
			V31.929z M149.801,36.485c1.672,0,3.113-0.341,4.325-1.024c1.211-0.682,2.218-1.586,3.021-2.713
			c0.801-1.126,1.398-2.414,1.791-3.864c0.392-1.45,0.589-2.926,0.589-4.427c0-1.536-0.197-3.028-0.589-4.479
			c-0.393-1.45-0.982-2.747-1.766-3.89c-0.785-1.143-1.801-2.056-3.046-2.739c-1.245-0.682-2.705-1.023-4.376-1.023
			c-1.74,0-3.225,0.333-4.453,0.998s-2.244,1.561-3.045,2.688c-0.803,1.126-1.383,2.423-1.741,3.89s-0.538,2.986-0.538,4.555
			c0,1.535,0.197,3.028,0.59,4.479c0.392,1.451,0.988,2.738,1.791,3.864c0.801,1.126,1.816,2.022,3.045,2.687
			C146.627,36.152,148.094,36.485,149.801,36.485z"/>
		<path fill="#7C7E7F" d="M184.146,32.338h-0.102c-0.308,0.786-0.751,1.528-1.331,2.227c-0.58,0.7-1.289,1.323-2.125,1.868
			c-0.836,0.546-1.783,0.972-2.84,1.28c-1.059,0.307-2.219,0.461-3.48,0.461c-2.799,0-4.965-0.607-6.501-1.817
			c-1.536-1.211-2.304-3.079-2.304-5.605c0-1.535,0.307-2.79,0.922-3.762c0.614-0.972,1.389-1.74,2.328-2.303
			c0.939-0.563,1.979-0.964,3.123-1.203c1.143-0.238,2.243-0.409,3.301-0.512l3.02-0.256c1.399-0.103,2.5-0.264,3.303-0.486
			c0.801-0.222,1.407-0.529,1.816-0.921c0.41-0.392,0.666-0.896,0.769-1.51c0.102-0.614,0.153-1.382,0.153-2.303
			c0-0.717-0.137-1.382-0.41-1.997s-0.699-1.16-1.279-1.638c-0.581-0.478-1.331-0.853-2.252-1.126
			c-0.922-0.272-2.049-0.409-3.379-0.409c-2.354,0-4.258,0.581-5.707,1.74c-1.451,1.16-2.244,2.917-2.38,5.272h-1.944
			c0.135-2.9,1.065-5.075,2.789-6.526c1.723-1.45,4.172-2.176,7.346-2.176c3.173,0,5.484,0.624,6.936,1.868
			c1.449,1.246,2.174,2.875,2.174,4.889v15.304c0,0.376,0.01,0.751,0.026,1.126s0.077,0.716,0.179,1.023
			c0.104,0.307,0.273,0.555,0.512,0.742c0.238,0.188,0.58,0.282,1.024,0.282c0.341,0,0.819-0.051,1.433-0.154v1.638
			c-0.512,0.137-1.041,0.205-1.586,0.205c-0.785,0-1.408-0.103-1.868-0.307c-0.461-0.205-0.812-0.478-1.05-0.819
			c-0.238-0.341-0.402-0.742-0.486-1.203c-0.086-0.461-0.128-0.964-0.128-1.51V32.338z M184.146,22.614
			c-0.478,0.581-1.202,0.973-2.175,1.177c-0.973,0.205-2.057,0.358-3.25,0.46l-3.276,0.307c-0.956,0.103-1.911,0.249-2.866,0.435
			c-0.956,0.188-1.816,0.504-2.585,0.947c-0.768,0.444-1.392,1.049-1.868,1.817c-0.479,0.769-0.717,1.767-0.717,2.995
			c0,1.945,0.613,3.387,1.843,4.325c1.228,0.939,2.917,1.408,5.067,1.408c2.218,0,3.975-0.4,5.271-1.203
			c1.297-0.801,2.286-1.723,2.969-2.764c0.682-1.041,1.117-2.047,1.307-3.02c0.186-0.972,0.28-1.629,0.28-1.97V22.614z"/>
		<path fill="#7C7E7F" d="M192.182,28.807c0.068,1.229,0.34,2.312,0.819,3.25c0.478,0.939,1.101,1.74,1.868,2.406
			s1.664,1.169,2.688,1.51c1.023,0.341,2.132,0.512,3.327,0.512c0.853,0,1.766-0.077,2.738-0.23s1.876-0.435,2.712-0.845
			c0.836-0.409,1.527-0.98,2.074-1.714c0.545-0.733,0.818-1.664,0.818-2.79c0-1.467-0.443-2.576-1.331-3.327
			c-0.888-0.75-2.005-1.331-3.353-1.741c-1.348-0.409-2.798-0.742-4.351-0.998c-1.554-0.256-3.003-0.64-4.351-1.151
			c-1.349-0.512-2.466-1.237-3.354-2.176c-0.887-0.938-1.33-2.311-1.33-4.12c0-1.296,0.29-2.38,0.87-3.25
			c0.579-0.87,1.321-1.561,2.227-2.073c0.903-0.512,1.919-0.878,3.046-1.101c1.125-0.222,2.252-0.333,3.378-0.333
			c1.364,0,2.644,0.154,3.839,0.461c1.194,0.307,2.227,0.802,3.097,1.484c0.87,0.683,1.552,1.553,2.048,2.61
			c0.494,1.058,0.742,2.338,0.742,3.839h-1.945c0-1.194-0.197-2.218-0.589-3.071c-0.393-0.852-0.938-1.543-1.638-2.073
			c-0.699-0.529-1.527-0.921-2.482-1.177c-0.956-0.256-1.98-0.384-3.071-0.384c-0.888,0-1.783,0.085-2.687,0.256
			c-0.905,0.171-1.715,0.461-2.432,0.87c-0.717,0.41-1.306,0.939-1.766,1.587c-0.461,0.648-0.691,1.433-0.691,2.354
			c0,1.058,0.256,1.911,0.768,2.559c0.512,0.648,1.186,1.169,2.021,1.561c0.836,0.393,1.773,0.708,2.814,0.947
			s2.092,0.479,3.148,0.717c1.297,0.239,2.516,0.521,3.66,0.844c1.143,0.325,2.133,0.768,2.969,1.331s1.492,1.288,1.971,2.176
			s0.717,2.013,0.717,3.378c0,1.433-0.324,2.61-0.973,3.531c-0.648,0.922-1.467,1.664-2.457,2.227s-2.09,0.955-3.301,1.177
			c-1.212,0.222-2.398,0.333-3.558,0.333c-1.503,0-2.892-0.197-4.172-0.589c-1.28-0.392-2.397-0.989-3.353-1.791
			s-1.707-1.783-2.252-2.943c-0.547-1.16-0.838-2.508-0.87-4.043H192.182z"/>
		<path fill="#7C7E7F" d="M216.801,1.014v15.868h0.102c0.342-0.989,0.828-1.868,1.461-2.636c0.63-0.768,1.363-1.424,2.199-1.971
			c0.837-0.545,1.749-0.955,2.738-1.229c0.99-0.272,1.998-0.41,3.021-0.41c1.536,0,2.841,0.188,3.917,0.563
			c1.074,0.375,1.951,0.87,2.635,1.484c0.683,0.614,1.221,1.305,1.612,2.073c0.393,0.768,0.674,1.544,0.845,2.329
			c0.17,0.785,0.273,1.544,0.309,2.278c0.032,0.734,0.05,1.374,0.05,1.919V37.56h-1.945V20.925c0-0.648-0.051-1.467-0.153-2.457
			c-0.102-0.989-0.401-1.936-0.896-2.84c-0.495-0.904-1.246-1.681-2.253-2.329c-1.006-0.648-2.397-0.973-4.172-0.973
			c-1.501,0-2.832,0.273-3.991,0.819c-1.161,0.546-2.15,1.305-2.969,2.278c-0.819,0.973-1.442,2.133-1.868,3.48
			c-0.428,1.348-0.641,2.824-0.641,4.427V37.56h-1.945V1.014H216.801z"/>
	</g>
	<g>
		<path fill="#FF8300" d="M119.313,39.298c-0.007-0.057-0.208-3.038-1.587-6.497c-1.387-3.462-3.336-5.454-3.391-5.512
			c-0.32-0.328-0.746-0.493-1.166-0.498v-0.001h-0.004h-0.006v0.001c-0.42,0.005-0.847,0.17-1.167,0.498
			c-0.054,0.058-2.003,2.05-3.391,5.512c-1.379,3.459-1.579,6.44-1.586,6.497l-0.009,0.38v0.003v0.001v0.009l0.004-0.003
			c0.025,1.888,3.058,1.965,3.121-0.298l0.006-0.102l0.028-0.444c0,0,0.034-0.564,0.19-1.457c0.157-0.894,0.434-2.088,0.9-3.256
			c0.468-1.167,1.035-2.094,1.482-2.72c0.161-0.229,0.688-0.229,0.85,0c0.445,0.626,1.013,1.554,1.48,2.72
			c0.469,1.168,0.746,2.362,0.902,3.256c0.156,0.893,0.189,1.457,0.189,1.457l0.027,0.445l0.007,0.102
			c0.065,2.264,3.098,2.186,3.122,0.298l0.002,0.003v-0.009v-0.001v-0.003L119.313,39.298z"/>
		<path fill="#FF8300" d="M129.758,22.549c-0.057-0.01-2.923-0.738-6.605-0.481c-3.684,0.263-6.162,1.522-6.232,1.557
			c-0.406,0.207-0.694,0.565-0.828,0.965v0c0,0.001,0,0.004-0.002,0.006c0,0.001-0.003,0.004-0.004,0.006l0.004,0.001
			c-0.127,0.403-0.104,0.864,0.106,1.272c0.038,0.072,1.309,2.561,4.138,4.964c2.828,2.395,5.57,3.509,5.623,3.534l0.355,0.123
			l0.004,0.001l0,0l0.008,0.003l-0.003-0.004c1.784,0.561,2.794-2.332,0.685-3.092l-0.095-0.037l-0.409-0.165
			c0,0-0.52-0.208-1.312-0.634c-0.793-0.426-1.832-1.062-2.784-1.873c-0.954-0.81-1.65-1.641-2.103-2.265
			c-0.166-0.224-0.003-0.731,0.262-0.815c0.727-0.237,1.777-0.495,3.019-0.583c1.241-0.089,2.453,0.014,3.343,0.139
			c0.886,0.127,1.43,0.267,1.43,0.267l0.426,0.11l0.099,0.026c2.147,0.638,3.013-2.302,1.243-2.909l0.004-0.001l-0.006-0.002h-0.003
			l-0.002-0.001L129.758,22.549z"/>
		<path fill="#FF8300" d="M117.227,7.333c-0.028,0.052-1.599,2.583-2.496,6.201c-0.891,3.625-0.471,6.394-0.459,6.475
			c0.068,0.455,0.316,0.841,0.65,1.094l0,0c0,0,0.006,0,0.007,0.004c0,0,0.002,0.002,0.005,0.003l0.002-0.001
			c0.338,0.245,0.779,0.365,1.229,0.289c0.08-0.013,2.814-0.466,5.949-2.443c3.127-1.979,5.023-4.271,5.062-4.314l0.227-0.302
			l0.002-0.003h0.001l0.004-0.007l-0.004,0.001c1.077-1.543-1.332-3.407-2.698-1.613l-0.064,0.079l-0.28,0.343
			c0,0-0.356,0.435-1.003,1.065c-0.645,0.63-1.564,1.431-2.622,2.099c-1.056,0.665-2.054,1.078-2.78,1.321
			c-0.263,0.087-0.689-0.225-0.688-0.505c0.004-0.772,0.082-1.86,0.385-3.08c0.3-1.222,0.77-2.354,1.162-3.171
			c0.395-0.814,0.693-1.291,0.694-1.292l0.235-0.375l0.055-0.087c1.264-1.87-1.234-3.606-2.352-2.095V7.013l-0.006,0.006
			c0,0.001,0,0.002,0,0.002l-0.002,0.003L117.227,7.333z"/>
		<path fill="#FF8300" d="M99.039,14.678c0.038,0.043,1.936,2.336,5.062,4.316c3.136,1.976,5.87,2.428,5.949,2.444
			c0.448,0.075,0.89-0.047,1.23-0.289l0.001,0c0.002-0.001,0.003-0.004,0.004-0.006c0.002-0.001,0.004-0.001,0.006-0.002v-0.002
			c0.336-0.25,0.585-0.637,0.651-1.093c0.011-0.082,0.429-2.85-0.459-6.475c-0.897-3.617-2.468-6.148-2.497-6.201l-0.214-0.31
			l-0.001-0.002V7.057l-0.005-0.006l-0.001,0.004c-1.117-1.513-3.615,0.228-2.352,2.095l0.055,0.087l0.234,0.375
			c0,0.003,0.3,0.479,0.693,1.293c0.393,0.816,0.864,1.949,1.164,3.171c0.301,1.221,0.381,2.308,0.384,3.082
			c0.003,0.281-0.425,0.592-0.687,0.504c-0.726-0.242-1.725-0.654-2.78-1.322c-1.058-0.666-1.977-1.468-2.624-2.099
			c-0.645-0.627-1-1.065-1-1.065l-0.283-0.344l-0.064-0.078c-1.367-1.792-3.773,0.07-2.697,1.614l-0.002-0.002l0.002,0.008h0.003
			l0.003,0.003L99.039,14.678z"/>
		<path fill="#FF8300" d="M100.328,34.435c0.053-0.025,2.795-1.139,5.625-3.533c2.828-2.405,4.098-4.894,4.137-4.965
			c0.211-0.408,0.232-0.87,0.107-1.271h0.002c0-0.004-0.003-0.004-0.004-0.007c-0.001-0.003,0-0.003-0.001-0.006h-0.001
			c-0.133-0.401-0.42-0.76-0.828-0.965c-0.072-0.036-2.548-1.294-6.232-1.558c-3.683-0.257-6.549,0.471-6.604,0.482l-0.358,0.11
			l-0.003,0.001h-0.003l-0.008,0.002l0.005,0.003c-1.768,0.606-0.903,3.547,1.243,2.908l0.1-0.026l0.426-0.11
			c0,0,0.543-0.143,1.432-0.267c0.889-0.126,2.099-0.229,3.342-0.141c1.24,0.088,2.291,0.349,3.018,0.584
			c0.266,0.084,0.426,0.593,0.262,0.817c-0.451,0.622-1.146,1.456-2.103,2.264c-0.952,0.812-1.991,1.447-2.784,1.874
			c-0.791,0.423-1.312,0.633-1.312,0.632l-0.41,0.165l-0.094,0.038c-2.107,0.762-1.1,3.651,0.686,3.093l-0.003,0.002l0.009-0.002
			l0,0l0.004-0.002L100.328,34.435z"/>
	</g>
	<g>
		<path fill="#7C7E7F" d="M140.651,43.744c0.821,0,1.453,0.209,1.896,0.627c0.443,0.418,0.665,1.055,0.665,1.911
			c0,0.448-0.05,0.845-0.149,1.19c-0.1,0.347-0.254,0.638-0.463,0.874c-0.209,0.236-0.475,0.417-0.799,0.541
			c-0.323,0.125-0.707,0.187-1.149,0.187h-1.829v-5.33H140.651z M140.711,48.476c0.08,0,0.18-0.006,0.299-0.018
			c0.119-0.013,0.246-0.042,0.381-0.089c0.135-0.048,0.268-0.116,0.398-0.206c0.133-0.089,0.25-0.211,0.355-0.366
			c0.104-0.154,0.189-0.348,0.258-0.579c0.066-0.231,0.1-0.511,0.1-0.84c0-0.319-0.031-0.604-0.093-0.854
			c-0.062-0.251-0.164-0.465-0.306-0.642c-0.143-0.177-0.325-0.311-0.549-0.403c-0.225-0.092-0.5-0.138-0.828-0.138h-1.195v4.135
			H140.711z"/>
		<path fill="#7C7E7F" d="M146.31,43.744l2.081,5.33h-0.783l-0.582-1.605h-2.254l-0.598,1.605h-0.723l2.074-5.33H146.31z
			 M146.803,46.872l-0.889-2.486h-0.016l-0.902,2.486H146.803z"/>
		<path fill="#7C7E7F" d="M147.66,44.341v-0.598h4.262v0.598h-1.775v4.732h-0.709v-4.732H147.66z"/>
		<path fill="#7C7E7F" d="M154.057,43.744l2.084,5.33h-0.784l-0.583-1.605h-2.254l-0.598,1.605h-0.723l2.074-5.33H154.057z
			 M154.551,46.872l-0.889-2.486h-0.016l-0.902,2.486H154.551z"/>
		<path fill="#7C7E7F" d="M161.406,44.472c-0.236-0.171-0.539-0.257-0.906-0.257c-0.15,0-0.297,0.015-0.441,0.045
			c-0.145,0.029-0.271,0.08-0.385,0.149c-0.111,0.07-0.201,0.163-0.268,0.28c-0.068,0.117-0.102,0.263-0.102,0.437
			c0,0.165,0.049,0.298,0.146,0.4s0.226,0.185,0.389,0.25c0.16,0.065,0.344,0.118,0.547,0.161c0.205,0.042,0.412,0.088,0.625,0.138
			c0.211,0.05,0.418,0.108,0.622,0.176s0.388,0.158,0.549,0.272c0.161,0.115,0.29,0.259,0.388,0.433
			c0.098,0.174,0.146,0.394,0.146,0.657c0,0.284-0.064,0.526-0.191,0.728s-0.289,0.366-0.488,0.493s-0.422,0.219-0.668,0.276
			c-0.246,0.057-0.492,0.085-0.734,0.085c-0.3,0-0.582-0.037-0.848-0.112c-0.267-0.075-0.5-0.188-0.702-0.339
			c-0.202-0.152-0.361-0.346-0.478-0.583c-0.117-0.236-0.176-0.516-0.176-0.839h0.672c0,0.224,0.043,0.417,0.131,0.578
			c0.087,0.162,0.201,0.295,0.343,0.399s0.308,0.182,0.497,0.231s0.383,0.075,0.582,0.075c0.159,0,0.32-0.015,0.48-0.045
			c0.162-0.03,0.309-0.081,0.438-0.153c0.129-0.072,0.234-0.17,0.314-0.294c0.078-0.125,0.119-0.284,0.119-0.478
			c0-0.184-0.049-0.333-0.146-0.448c-0.097-0.114-0.227-0.208-0.389-0.28c-0.161-0.072-0.344-0.13-0.549-0.175
			c-0.203-0.045-0.41-0.091-0.623-0.138c-0.211-0.047-0.418-0.102-0.623-0.165c-0.203-0.062-0.387-0.144-0.549-0.246
			c-0.16-0.102-0.291-0.234-0.389-0.396c-0.096-0.162-0.145-0.365-0.145-0.608c0-0.269,0.055-0.501,0.164-0.698
			c0.109-0.196,0.256-0.358,0.438-0.485c0.182-0.126,0.388-0.221,0.619-0.283c0.232-0.062,0.469-0.094,0.713-0.094
			c0.273,0,0.527,0.033,0.762,0.097c0.232,0.065,0.439,0.167,0.615,0.306c0.177,0.14,0.316,0.315,0.418,0.526
			s0.158,0.464,0.168,0.757h-0.672C161.781,44.921,161.643,44.643,161.406,44.472z"/>
		<path fill="#7C7E7F" d="M164.284,43.744v2.292h2.806v-2.292h0.71v5.33h-0.71v-2.441h-2.806v2.441h-0.71v-5.33H164.284z"/>
		<path fill="#7C7E7F" d="M171.195,43.744l2.083,5.33h-0.784l-0.582-1.605h-2.254l-0.598,1.605h-0.724l2.075-5.33H171.195z
			 M171.688,46.872l-0.888-2.486h-0.016l-0.902,2.486H171.688z"/>
		<path fill="#7C7E7F" d="M176.309,43.744c0.508,0,0.904,0.125,1.191,0.374c0.285,0.249,0.429,0.59,0.429,1.022
			c0,0.324-0.073,0.607-0.22,0.851c-0.147,0.244-0.383,0.411-0.706,0.5v0.015c0.154,0.029,0.28,0.079,0.378,0.149
			c0.097,0.069,0.174,0.153,0.23,0.25c0.057,0.098,0.1,0.206,0.127,0.325c0.027,0.119,0.049,0.244,0.063,0.373
			c0.01,0.13,0.017,0.261,0.022,0.396c0.005,0.134,0.018,0.266,0.037,0.395c0.02,0.13,0.049,0.253,0.086,0.37
			c0.037,0.117,0.094,0.22,0.168,0.31h-0.791c-0.051-0.055-0.084-0.13-0.102-0.224c-0.017-0.094-0.028-0.2-0.033-0.317
			c-0.004-0.117-0.01-0.243-0.014-0.377c-0.006-0.135-0.021-0.267-0.045-0.396c-0.021-0.129-0.045-0.252-0.076-0.37
			c-0.029-0.117-0.076-0.219-0.141-0.306c-0.064-0.087-0.15-0.157-0.254-0.209c-0.105-0.053-0.244-0.079-0.418-0.079h-1.732v2.277
			h-0.709v-5.33H176.309z M176.457,46.163c0.15-0.025,0.281-0.074,0.393-0.146c0.112-0.072,0.202-0.169,0.27-0.291
			c0.066-0.122,0.1-0.28,0.1-0.474c0-0.269-0.074-0.488-0.223-0.657c-0.15-0.169-0.391-0.254-0.725-0.254h-1.762V46.2h1.479
			C176.152,46.2,176.309,46.188,176.457,46.163z"/>
		<path fill="#7C7E7F" d="M179.652,43.744v5.33h-0.708v-5.33H179.652z"/>
		<path fill="#7C7E7F" d="M181.594,43.744l2.807,4.322h0.015v-4.322h0.672v5.33h-0.776l-2.784-4.277h-0.015v4.277h-0.672v-5.33
			H181.594z"/>
		<path fill="#7C7E7F" d="M189.446,49.01c-0.31,0.122-0.62,0.183-0.933,0.183c-0.398,0-0.756-0.073-1.068-0.22
			c-0.313-0.147-0.58-0.345-0.799-0.594s-0.385-0.535-0.5-0.858c-0.113-0.323-0.172-0.659-0.172-1.008
			c0-0.388,0.054-0.757,0.161-1.108c0.106-0.351,0.267-0.658,0.478-0.922c0.211-0.264,0.475-0.474,0.791-0.631
			c0.316-0.156,0.686-0.235,1.109-0.235c0.287,0,0.561,0.034,0.816,0.101c0.256,0.067,0.486,0.173,0.688,0.317
			c0.201,0.145,0.371,0.328,0.508,0.548c0.136,0.222,0.229,0.489,0.279,0.803h-0.709c-0.035-0.204-0.1-0.379-0.194-0.526
			c-0.095-0.146-0.212-0.268-0.351-0.362c-0.14-0.094-0.298-0.165-0.475-0.212c-0.176-0.047-0.364-0.071-0.562-0.071
			c-0.324,0-0.602,0.064-0.832,0.194c-0.232,0.129-0.422,0.3-0.568,0.512s-0.256,0.453-0.324,0.724
			c-0.07,0.271-0.105,0.548-0.105,0.832c0,0.279,0.04,0.546,0.12,0.802c0.079,0.256,0.196,0.483,0.351,0.679
			c0.154,0.197,0.345,0.354,0.571,0.471c0.226,0.117,0.489,0.175,0.788,0.175c0.277,0,0.523-0.045,0.738-0.135
			c0.214-0.089,0.395-0.212,0.541-0.37c0.146-0.156,0.258-0.341,0.332-0.552c0.075-0.211,0.107-0.439,0.098-0.683h-1.702v-0.597
			h2.337v2.807h-0.448l-0.187-0.665C190.014,48.688,189.754,48.888,189.446,49.01z"/>
		<path fill="#7C7E7F" d="M194.962,43.744l1.679,4.479l1.688-4.479h0.97v5.33h-0.672V44.64h-0.015l-1.665,4.434h-0.604l-1.665-4.434
			h-0.015v4.434h-0.672v-5.33H194.962z"/>
		<path fill="#7C7E7F" d="M202.71,43.744l2.083,5.33h-0.783l-0.582-1.605h-2.256l-0.598,1.605h-0.723l2.074-5.33H202.71z
			 M203.203,46.872l-0.889-2.486H202.3l-0.903,2.486H203.203z"/>
		<path fill="#7C7E7F" d="M207.145,43.744c0.82,0,1.453,0.209,1.895,0.627c0.443,0.418,0.666,1.055,0.666,1.911
			c0,0.448-0.051,0.845-0.15,1.19c-0.1,0.347-0.254,0.638-0.462,0.874c-0.21,0.236-0.476,0.417-0.799,0.541
			s-0.707,0.187-1.149,0.187h-1.829v-5.33H207.145z M207.203,48.476c0.08,0,0.18-0.006,0.299-0.018
			c0.119-0.013,0.246-0.042,0.381-0.089c0.135-0.048,0.268-0.116,0.4-0.206c0.131-0.089,0.25-0.211,0.354-0.366
			s0.19-0.348,0.258-0.579c0.067-0.231,0.101-0.511,0.101-0.84c0-0.319-0.03-0.604-0.093-0.854
			c-0.062-0.251-0.164-0.465-0.307-0.642c-0.142-0.177-0.324-0.311-0.549-0.403c-0.225-0.092-0.5-0.138-0.828-0.138h-1.195v4.135
			H207.203z"/>
		<path fill="#7C7E7F" d="M214.25,43.744v0.598h-2.971v1.694h2.77v0.597h-2.77v1.843h2.993v0.598h-3.702v-5.33H214.25z"/>
		<path fill="#7C7E7F" d="M220.887,43.744v0.598h-2.972v1.694h2.77v0.597h-2.77v1.843h2.993v0.598h-3.702v-5.33H220.887z"/>
		<path fill="#7C7E7F" d="M223.998,43.744l2.084,5.33h-0.785l-0.582-1.605h-2.254l-0.598,1.605h-0.724l2.075-5.33H223.998z
			 M224.49,46.872l-0.887-2.486h-0.016l-0.902,2.486H224.49z"/>
		<path fill="#7C7E7F" d="M229.271,44.472c-0.236-0.171-0.538-0.257-0.906-0.257c-0.148,0-0.296,0.015-0.441,0.045
			c-0.143,0.029-0.271,0.08-0.385,0.149c-0.11,0.07-0.199,0.163-0.268,0.28c-0.066,0.117-0.101,0.263-0.101,0.437
			c0,0.165,0.048,0.298,0.146,0.4s0.227,0.185,0.389,0.25c0.161,0.065,0.344,0.118,0.549,0.161c0.203,0.042,0.411,0.088,0.623,0.138
			c0.211,0.05,0.418,0.108,0.623,0.176c0.203,0.067,0.387,0.158,0.549,0.272c0.161,0.115,0.291,0.259,0.389,0.433
			c0.096,0.174,0.145,0.394,0.145,0.657c0,0.284-0.062,0.526-0.191,0.728c-0.125,0.202-0.289,0.366-0.488,0.493
			s-0.421,0.219-0.668,0.276c-0.246,0.057-0.491,0.085-0.734,0.085c-0.299,0-0.582-0.037-0.848-0.112s-0.5-0.188-0.701-0.339
			c-0.201-0.152-0.361-0.346-0.479-0.583c-0.116-0.236-0.176-0.516-0.176-0.839h0.672c0,0.224,0.045,0.417,0.131,0.578
			c0.088,0.162,0.202,0.295,0.344,0.399c0.143,0.104,0.308,0.182,0.496,0.231c0.189,0.05,0.383,0.075,0.582,0.075
			c0.16,0,0.32-0.015,0.482-0.045c0.161-0.03,0.307-0.081,0.437-0.153c0.129-0.072,0.233-0.17,0.313-0.294
			c0.08-0.125,0.119-0.284,0.119-0.478c0-0.184-0.049-0.333-0.146-0.448s-0.226-0.208-0.388-0.28
			c-0.162-0.072-0.346-0.13-0.549-0.175c-0.205-0.045-0.412-0.091-0.623-0.138c-0.213-0.047-0.42-0.102-0.624-0.165
			c-0.204-0.062-0.388-0.144-0.549-0.246s-0.29-0.234-0.388-0.396c-0.097-0.162-0.146-0.365-0.146-0.608
			c0-0.269,0.054-0.501,0.164-0.698c0.109-0.196,0.255-0.358,0.437-0.485c0.182-0.126,0.389-0.221,0.619-0.283
			c0.232-0.062,0.469-0.094,0.713-0.094c0.274,0,0.527,0.033,0.762,0.097c0.234,0.065,0.439,0.167,0.616,0.306
			c0.177,0.14,0.315,0.315,0.417,0.526s0.159,0.464,0.168,0.757h-0.672C229.646,44.921,229.51,44.643,229.271,44.472z"/>
		<path fill="#7C7E7F" d="M233.643,49.074h-0.709v-2.18l-2.061-3.15h0.844l1.598,2.538l1.559-2.538h0.807l-2.037,3.15V49.074z"/>
	</g>
	<line fill="#4D4D4D" stroke="#7C7E7F" stroke-miterlimit="10" x1="87.172" y1="0" x2="87.172" y2="48"/>
	<g>
		<g>
			<path fill="#7E7D7E" d="M0.457,11.019V6.174H1.83v4.688c0,1.735,0.648,2.43,2.132,2.43c1.403,0,2.035-0.82,2.035-2.288v-4.83
				H7.26v4.72c0,2.162-1.074,3.535-3.346,3.535C1.531,14.428,0.457,13.086,0.457,11.019z"/>
			<path fill="#7E7D7E" d="M10.32,6.174h1.373l3.583,4.908c0.458,0.648,0.82,1.342,0.836,1.342h0.032c0,0-0.063-0.632-0.063-1.247
				V6.174h1.231v8.113h-1.231l-3.804-5.208c-0.379-0.552-0.727-1.2-0.727-1.2h-0.016c0,0,0.047,0.538,0.047,1.042v5.367H10.32V6.174
				z"/>
			<path fill="#7E7D7E" d="M20.53,6.174h1.356v8.113H20.53V6.174z"/>
			<path fill="#7E7D7E" d="M24.16,6.174h1.436l2.052,5.318c0.237,0.6,0.474,1.374,0.474,1.39h0.031c0-0.017,0.236-0.774,0.473-1.39
				L30.6,6.174h1.31l-3.142,8.113h-1.325L24.16,6.174z"/>
			<path fill="#7E7D7E" d="M34.135,6.174h4.955v1.105h-3.6v2.225h3.221v1.074H35.49v2.604h3.679v1.105h-5.034V6.174z"/>
			<path fill="#7E7D7E" d="M41.931,6.174h2.54c1.895,0,2.982,0.773,2.982,2.242c0,1.389-1.01,2.004-2.226,2.13v0.032
				c0.175,0.126,0.475,0.426,0.964,1.104l1.926,2.604h-1.562l-1.643-2.321c-0.805-1.121-0.994-1.214-1.482-1.214h-0.143v3.535
				h-1.356V6.174z M44.439,9.741c1.137,0,1.625-0.427,1.625-1.263c0-0.853-0.537-1.248-1.703-1.248h-1.074v2.51H44.439z"/>
			<path fill="#7E7D7E" d="M49.709,13.624l0.601-0.963c0.22,0.157,0.819,0.663,1.894,0.663c0.963,0,1.594-0.427,1.594-1.137
				c0-0.852-0.773-1.089-1.957-1.641c-1.041-0.474-1.926-1.058-1.926-2.336c0-1.419,1.215-2.193,2.619-2.193
				c1.327,0,2.006,0.426,2.354,0.662l-0.585,0.963c-0.3-0.205-0.915-0.521-1.72-0.521c-0.773,0-1.342,0.331-1.342,1.026
				c0,0.773,0.678,1.01,1.562,1.405c1.137,0.505,2.303,1.089,2.303,2.572c0,1.421-1.135,2.305-2.887,2.305
				C50.861,14.428,50.039,13.923,49.709,13.624z"/>
			<path fill="#7E7D7E" d="M57.773,6.174h1.356v8.113h-1.356V6.174z"/>
			<path fill="#7E7D7E" d="M63.896,7.294h-2.479V6.174h6.329v1.121H65.27v6.992h-1.373V7.294z"/>
			<path fill="#7E7D7E" d="M72.086,11.208L69.23,6.174h1.482l2.084,3.851h0.031l2.053-3.851h1.325l-2.763,5.035v3.078h-1.357V11.208
				z"/>
			<path fill="#7E7D7E" d="M0,24.191c0-2.226,1.562-4.229,4.277-4.229s4.277,1.956,4.277,4.181c0,2.226-1.531,4.23-4.246,4.23
				S0,26.416,0,24.191z M7.117,24.191c0-1.673-0.932-3.125-2.809-3.125c-1.878,0-2.857,1.437-2.857,3.078
				c0,1.673,0.947,3.109,2.826,3.109C6.154,27.252,7.117,25.847,7.117,24.191z"/>
			<path fill="#7E7D7E" d="M10.951,20.12h4.878v1.104h-3.521v2.305h3.109v1.087h-3.109v3.616h-1.357V20.12z"/>
			<path fill="#7E7D7E" d="M0,38.104c0-2.256,1.547-4.197,4.291-4.197c1.092,0,1.816,0.237,2.447,0.646l-0.646,1.01
				c-0.474-0.316-1.042-0.522-1.831-0.522c-1.847,0-2.81,1.279-2.81,3.015c0,1.784,0.916,3.126,2.84,3.126
				c0.916,0,1.531-0.3,2.008-0.646l0.566,0.961c-0.441,0.378-1.388,0.822-2.62,0.822C1.482,42.32,0,40.361,0,38.104z"/>
			<path fill="#7E7D7E" d="M11.394,34.064h1.327l3.297,8.113h-1.419l-0.696-1.768h-3.771l-0.662,1.768H8.126L11.394,34.064z
				 M13.492,39.304l-0.962-2.478c-0.269-0.71-0.505-1.469-0.505-1.469h-0.032c0,0-0.253,0.791-0.505,1.469l-0.947,2.478H13.492z"/>
			<path fill="#7E7D7E" d="M18.005,34.064h1.39v7.007h3.424v1.105h-4.813V34.064z"/>
			<path fill="#7E7D7E" d="M25.139,34.064h1.356v8.113h-1.356V34.064z"/>
			<path fill="#7E7D7E" d="M29.509,34.064h4.878v1.105h-3.52v2.304h3.108v1.089h-3.108v3.615h-1.358V34.064z"/>
			<path fill="#7E7D7E" d="M36.137,38.136c0-2.225,1.562-4.229,4.277-4.229c2.717,0,4.279,1.957,4.279,4.181
				c0,2.227-1.531,4.231-4.248,4.231C37.731,42.32,36.137,40.361,36.137,38.136z M43.256,38.136c0-1.672-0.932-3.125-2.811-3.125
				c-1.877,0-2.855,1.437-2.855,3.077c0,1.673,0.947,3.109,2.824,3.109C42.293,41.198,43.256,39.793,43.256,38.136z"/>
			<path fill="#7E7D7E" d="M46.726,34.064h2.542c1.894,0,2.984,0.773,2.984,2.242c0,1.389-1.012,2.004-2.226,2.129v0.032
				c0.173,0.125,0.472,0.428,0.962,1.105l1.926,2.605h-1.562l-1.643-2.32c-0.805-1.121-0.994-1.217-1.483-1.217h-0.142v3.537h-1.358
				V34.064z M49.236,37.631c1.137,0,1.625-0.426,1.625-1.263c0-0.853-0.537-1.246-1.704-1.246h-1.073v2.509H49.236z"/>
			<path fill="#7E7D7E" d="M54.9,34.064h1.373l3.584,4.91c0.457,0.646,0.82,1.341,0.836,1.341h0.031c0,0-0.062-0.631-0.062-1.247
				v-5.003h1.23v8.113h-1.23l-3.803-5.208c-0.38-0.554-0.727-1.201-0.727-1.201h-0.016c0,0,0.047,0.537,0.047,1.04v5.368H54.9
				V34.064z"/>
			<path fill="#7E7D7E" d="M64.891,34.064h1.357v8.113h-1.357V34.064z"/>
			<path fill="#7E7D7E" d="M71.598,34.064h1.326l3.299,8.113h-1.422l-0.693-1.768h-3.773l-0.662,1.768H68.33L71.598,34.064z
				 M73.697,39.304l-0.963-2.478c-0.27-0.71-0.506-1.469-0.506-1.469h-0.031c0,0-0.252,0.791-0.505,1.469l-0.948,2.478H73.697z"/>
		</g>
	</g>
</g>
</svg>
