<svg xmlns="http://www.w3.org/2000/svg" width="29.405" height="18.903" viewBox="0 0 29.405 18.903"><path fill="#005581" d="M29.405 9.452c0 .372-.109.75-.328 1.132-1.531 2.517-3.591 4.532-6.178 6.047-2.588 1.516-5.32 2.272-8.197 2.272s-5.609-.76-8.196-2.281c-2.587-1.52-4.646-3.533-6.178-6.038C.108 10.201 0 9.824 0 9.452s.108-.749.328-1.132c1.531-2.505 3.591-4.518 6.178-6.039S11.825 0 14.702 0s5.609.76 8.197 2.281c2.587 1.521 4.646 3.534 6.178 6.039.219.383.328.76.328 1.132zm-2.099 0c-1.663-2.582-3.747-4.513-6.252-5.792a7.185 7.185 0 0 1 1 3.692c0 2.024-.719 3.755-2.157 5.193s-3.17 2.157-5.194 2.157c-2.023 0-3.755-.719-5.193-2.157-1.439-1.438-2.158-3.169-2.158-5.193 0-1.324.334-2.555 1.002-3.692-2.506 1.28-4.59 3.211-6.252 5.792 1.454 2.243 3.279 4.029 5.472 5.358a13.513 13.513 0 0 0 7.13 1.994c2.561 0 4.938-.665 7.131-1.994s4.016-3.116 5.471-5.358zM15.261 3.708a.758.758 0 0 0 .229-.558.76.76 0 0 0-.229-.558.76.76 0 0 0-.559-.229c-1.367 0-2.541.49-3.52 1.469s-1.469 2.152-1.469 3.52c0 .219.076.404.23.558.152.153.338.23.557.23s.405-.077.559-.23.229-.339.229-.558c0-.941.334-1.745 1.001-2.413a3.291 3.291 0 0 1 2.412-1.001.76.76 0 0 0 .56-.23z"/></svg>