<svg xmlns="http://www.w3.org/2000/svg" width="185.602" height="67.601" viewBox="9.3 11.9 185.602 67.601"><path d="M9.3 20.1h6.1v39.5h22.5v5.3H9.3V20.1zm34 0h5.6v6.2h-5.6v-6.2zm0 12.3h5.6v32.5h-5.6V32.4zm13.4-12.5H62v16.3c1.2-1.6 2.6-2.8 4.3-3.6 1.7-.8 3.5-1.2 5.5-1.2 4.101 0 7.4 1.4 9.9 4.2s3.8 6.9 3.8 12.4c0 5.2-1.3 9.5-3.8 12.899S75.7 66 71.3 66c-2.5 0-4.6-.601-6.3-1.8-1-.7-2.1-1.9-3.3-3.4V65h-5.1V19.9h.1zm21 37.6c1.5-2.4 2.2-5.5 2.2-9.3 0-3.4-.7-6.301-2.2-8.5-1.5-2.301-3.7-3.4-6.5-3.4-2.5 0-4.7.9-6.6 2.8-1.9 1.9-2.8 4.9-2.8 9.2 0 3.101.4 5.601 1.2 7.5 1.4 3.601 4.2 5.4 8.101 5.4C74 61.1 76.2 59.9 77.7 57.5zm14.4-25.3h5.2v5.6c.4-1.1 1.5-2.4 3.101-4 1.7-1.6 3.6-2.4 5.8-2.4h.5c.2 0 .7.101 1.3.101v5.8c-.3-.1-.6-.1-.899-.1h-.899c-2.8 0-4.9.899-6.4 2.699-1.502 1.8-2.202 3.8-2.202 6.1v18.8h-5.5L92.1 32.2zm38.2 12.9c1.301-.2 2.102-.7 2.5-1.6.2-.5.4-1.2.4-2.101 0-1.899-.7-3.199-2-4.1-1.3-.8-3.2-1.3-5.7-1.3-2.899 0-4.899.8-6.1 2.3-.7.9-1.102 2.1-1.301 3.8H113c.101-4 1.4-6.899 3.9-8.399 2.5-1.601 5.398-2.4 8.699-2.4 3.801 0 7 .7 9.399 2.2 2.4 1.5 3.601 3.7 3.601 6.8v18.8c0 .602.101 1 .399 1.4.2.3.7.5 1.5.5h.8c.301 0 .602-.101 1-.101V65c-.898.2-1.5.399-2 .5-.398.1-1.1.1-1.8.1-1.899 0-3.3-.699-4.1-2a7.08 7.08 0 0 1-.9-3c-1.1 1.5-2.7 2.7-4.8 3.801-2.101 1.101-4.4 1.601-6.9 1.601-3 0-5.5-.9-7.398-2.8-1.9-1.801-2.9-4.102-2.9-6.9 0-3 .9-5.399 2.8-7 1.9-1.7 4.4-2.7 7.4-3.1l8.6-1.102zm-11.6 14.8c1.2.899 2.5 1.399 4.1 1.399 1.9 0 3.801-.399 5.602-1.3 3.1-1.5 4.6-3.9 4.6-7.3v-4.4c-.7.4-1.5.8-2.6 1.101-1.102.3-2.102.5-3.102.6l-3.3.4c-2 .301-3.5.699-4.5 1.199-1.7 1-2.5 2.5-2.5 4.602 0 1.599.5 2.799 1.7 3.699zm29-27.7h5.2v5.6c.398-1.1 1.5-2.4 3.1-4 1.7-1.6 3.601-2.4 5.8-2.4h.5c.2 0 .7.101 1.301.101v5.8c-.301-.1-.601-.1-.899-.1h-.9c-2.8 0-4.898.899-6.398 2.699-1.5 1.801-2.2 3.801-2.2 6.101v18.8h-5.5V32.2h-.004zm41.1 0h6.102c-.801 2.1-2.5 6.899-5.2 14.3-2 5.6-3.7 10.2-5 13.7-3.2 8.3-5.4 13.398-6.7 15.199s-3.5 2.699-6.7 2.699c-.8 0-1.398 0-1.8-.1-.4-.101-.899-.2-1.5-.3v-5c1 .3 1.601.398 2.101.5.399.1.801.1 1.101.1 1 0 1.8-.2 2.2-.5.398-.3.898-.7 1.199-1.2.101-.199.5-1 1.101-2.5.6-1.5 1.1-2.6 1.399-3.398L165 32.2h6.2l8.8 26.6 8.8-26.6z" fill="#003A70"/><path d="M67.5 12.2c.8-.2 2.1-.3 3.4-.3 1.8 0 3 .301 3.899 1 .7.601 1.2 1.4 1.2 2.5C76 16.8 75.1 18 73.6 18.5c1.399.3 3 1.5 3 3.6 0 1.2-.5 2.2-1.2 2.9-1 .899-2.601 1.3-5 1.3-1.3 0-2.3-.1-2.9-.2V12.2zm1.8 5.9H71c2 0 3.101-1 3.101-2.399C74.1 14 72.8 13.4 71 13.4c-.899 0-1.3.101-1.6.101v4.6h-.1zm0 6.9c.4.1.9.1 1.601.1 1.899 0 3.7-.7 3.7-2.8 0-2-1.7-2.8-3.7-2.8h-1.5V25H69.3zm17.1-5.4h-5.6v5.2H87v1.6h-8V12h7.7v1.6h-5.9v4.5h5.6v1.5zm3-7.4c.9-.2 2.3-.3 3.5-.3 2 0 3.3.4 4.1 1.2.7.6 1.1 1.6 1.1 2.7 0 1.9-1.2 3.1-2.7 3.7v.1c1.1.4 1.8 1.4 2.1 2.9.5 2 .8 3.399 1.101 3.899h-1.9C96.5 26 96.1 24.8 95.7 23c-.4-2-1.2-2.7-2.9-2.8h-1.7v6.2h-1.8V12.2h.1zm1.9 6.5h1.9c2 0 3.2-1.101 3.2-2.7 0-1.8-1.3-2.7-3.3-2.7-.9 0-1.5.1-1.801.2v5.2h.001zm9.6-6.7h1.8v6.9h.1c.4-.6.801-1.1 1.102-1.5L108.3 12h2.301l-5.199 6.1 5.6 8.2h-2.2l-4.699-7-1.399 1.6v5.5h-1.8V12h-.004zm18.9 7.6h-5.6v5.2h6.2v1.6h-8.1V12h7.7v1.6h-5.9v4.5h5.601v1.5h.099zm3-7.6h1.801v12.8h6.101v1.6h-8V12h.098zm17.5 7.6h-5.6v5.2h6.2v1.6h-8.1V12h7.7v1.6h-5.9v4.5h5.601v1.5h.099zm6.3 6.8v-6.1l-4.5-8.2h2.101l2 4c.6 1.101 1 2 1.399 3 .4-.9.9-1.9 1.4-3l2.101-4h2.101l-4.8 8.2v6.1H146.6zm-135 44.9v4.8c0 1.801.8 2.602 1.899 2.602 1.2 0 2-.801 2-2.602v-4.8H16.6V76c0 2.5-1.301 3.5-3.101 3.5-1.7 0-2.899-.9-2.899-3.5v-4.8h1v.1zm6.7 8.1v-8.1h1.1l2.6 4.1c.6.899 1.1 1.8 1.5 2.6-.1-1.101-.1-2.101-.1-3.3v-3.4h1v8.1h-1.1l-2.6-4.1c-.6-.899-1.1-1.8-1.5-2.7.1 1 .1 2 .1 3.301v3.5l-1-.001zm8.9-8.1v8.1h-1v-8.1h1zm3.6 8.1l-2.6-8.1h1.1l1.301 4c.3 1.101.6 2.101.899 3 .2-.899.601-2 .9-3l1.399-4H34.9L32 79.4h-1.2zm9.1-3.8h-3.1v2.9h3.5v.9h-4.5v-8.1h4.4v.9h-3.3v2.6H40v.8h-.1zm1.7-4.2c.5-.101 1.3-.199 2-.199 1.1 0 1.8.199 2.3.699.399.399.6.899.6 1.5 0 1.101-.7 1.801-1.5 2.101.601.2 1 .8 1.2 1.6.3 1.102.5 1.9.6 2.2h-1.1c-.1-.2-.3-.899-.5-1.899-.2-1.102-.7-1.502-1.6-1.602h-1v3.5h-1v-7.9zm1.1 3.7h1.1c1.101 0 1.801-.6 1.801-1.5 0-1-.801-1.5-1.9-1.5-.5 0-.9 0-1 .102V75.1zm5.3 3c.5.301 1.2.5 1.9.5 1.1 0 1.7-.6 1.7-1.398 0-.8-.4-1.201-1.5-1.602-1.3-.5-2.1-1.2-2.1-2.3 0-1.3 1-2.2 2.601-2.2.8 0 1.399.2 1.8.4l-.401.9c-.3-.1-.8-.4-1.5-.4-1.1 0-1.5.7-1.5 1.2 0 .8.5 1.1 1.601 1.6 1.399.5 2.1 1.2 2.1 2.4 0 1.199-.9 2.3-2.8 2.3-.8 0-1.601-.2-2.101-.5l.2-.9zm7.1-6.8v8.1h-1v-8.1h1zm3.3.9H56v-.9h6v.9h-2.5v7.2h-1.1v-7.2zm6.6 7.2V76l-2.6-4.7h1.2l1.1 2.2c.3.6.6 1.1.8 1.7.2-.5.5-1.102.8-1.7l1.2-2.2h1.2L66 75.9v3.4h-1v.1zm14.1-4.2c0 2.8-1.7 4.3-3.801 4.3-2.1 0-3.6-1.7-3.6-4.101 0-2.601 1.6-4.199 3.8-4.199 2.201-.1 3.601 1.6 3.601 4zm-6.2.2c0 1.699.899 3.301 2.6 3.301s2.601-1.5 2.601-3.4c0-1.6-.801-3.3-2.601-3.3S72.9 73.6 72.9 75.4zm7.6-4.1h4.4v.9h-3.3v2.7h3.1v.9h-3.1v3.7h-1v-8.2h-.1zm14 7.8c-.399.2-1.2.4-2.1.4-2.3 0-4-1.4-4-4.101 0-2.5 1.7-4.199 4.2-4.199 1 0 1.6.199 1.899.398l-.3.9c-.4-.2-1-.3-1.6-.3-1.9 0-3.2 1.199-3.2 3.3 0 2 1.1 3.3 3.1 3.3.601 0 1.3-.1 1.7-.3l.301.602zm2.7-2.3l-.8 2.5h-1.1l2.7-8.1h1.3l2.801 8.1H101l-.899-2.5H97.2zm2.6-.8l-.8-2.3c-.2-.5-.3-1-.399-1.5-.101.5-.301 1-.4 1.5L97.4 76h2.4zm3.4-4.7h1v7.2h3.5v.9h-4.5v-8.1zm6.7 0v8.1h-1v-8.1h1zm1.9 0h4.4v.9h-3.3v2.7h3.1v.9h-3.1v3.7h-1v-8.2h-.1zm12.7 3.9c0 2.8-1.7 4.3-3.8 4.3-2.101 0-3.601-1.7-3.601-4.101 0-2.601 1.601-4.199 3.801-4.199 2.2-.1 3.6 1.6 3.6 4zm-6.3.2c0 1.699.899 3.301 2.6 3.301s2.602-1.5 2.602-3.4c0-1.6-.801-3.3-2.602-3.3-1.7-.001-2.6 1.599-2.6 3.399zm7.7-4c.5-.101 1.3-.199 2-.199 1.1 0 1.8.199 2.3.699.399.399.6.899.6 1.5 0 1.101-.699 1.801-1.5 2.101.602.2 1 .8 1.2 1.6.3 1.102.5 1.9.601 2.2H130c-.1-.2-.3-.899-.5-1.899-.2-1.101-.7-1.5-1.6-1.601h-1v3.5h-1V71.4zm1 3.7h1.1c1.101 0 1.8-.6 1.8-1.5 0-1-.8-1.5-1.898-1.5-.5 0-.9 0-1 .102L126.9 75.1zm5.4 4.3v-8.1h1.102L136 75.4c.6.899 1.1 1.8 1.5 2.6-.1-1.101-.1-2.101-.1-3.3v-3.4h1v8.1h-1.1l-2.6-4.101a17.983 17.983 0 0 1-1.5-2.7c.1 1 .1 2 .1 3.301v3.5h-1zm9-8.1v8.1h-1v-8.1h1zm3.1 5.5l-.801 2.5h-1.101l2.7-8.1h1.3l2.8 8.1h-1.1l-.9-2.5H144.4zm2.7-.8l-.801-2.3c-.199-.5-.3-1-.398-1.5-.102.5-.301 1-.4 1.5l-.8 2.3h2.399z" fill="#D19000"/></svg>