<?xml version="1.0" encoding="UTF-8" standalone="no"?>
<!-- Created with Inkscape (http://www.inkscape.org/) -->
<svg id="svg2" xmlns:rdf="http://www.w3.org/1999/02/22-rdf-syntax-ns#" xmlns="http://www.w3.org/2000/svg" height="86.078mm" width="110.07mm" version="1.1" xmlns:cc="http://creativecommons.org/ns#" xmlns:dc="http://purl.org/dc/elements/1.1/" viewBox="0 0 389.99997 305.00002">
 <metadata id="metadata7">
  <rdf:RDF>
   <cc:Work rdf:about="">
    <dc:format>image/svg+xml</dc:format>
    <dc:type rdf:resource="http://purl.org/dc/dcmitype/StillImage"/>
    <dc:title/>
   </cc:Work>
  </rdf:RDF>
 </metadata>
 <g id="layer1" transform="translate(-36.429 -68.434)">
  <path id="path3417" d="m36.429 220.93v-152.5h195 195v152.5 152.5h-195-195v-152.5z" fill="#fdfdfd"/>
  <path id="path3415" d="m109.93 348.46c-8.4477-2.1718-14.328-6.7785-18.064-14.151-2.3883-4.7131-2.4354-5.2898-2.4138-29.59 0.02017-22.767 0.18772-25.149 2.059-29.283 1.1203-2.475 3.248-5.7795 4.728-7.3432 2.702-2.8548 11.01-7.623 13.408-7.6955 0.70578-0.0213 4.4332-1.5162 8.2832-3.322l7-3.2832-7.8451-0.67325c-12.836-1.1016-20.456-5.6299-25.077-14.902l-2.5778-5.1729 0.02196-55.054c0.02056-51.537 0.14093-55.316 1.8845-59.155 2.2988-5.0619 7.5237-10.399 12.69-12.962 3.722-1.8467 6.5289-1.9367 60.403-1.9367h56.5l4.5108 2.652 4.5108 2.652 4.4892-2.652 4.4892-2.652h56.5c63.606 0 60.232-0.38464 68.147 7.7705 7.1567 7.3745 7.0313 6.1512 6.5897 64.295-0.4393 57.833-0.56246 59.061-8.2359 82.095-14.823 44.496-48.768 75.283-96.753 87.75-14.395 3.7402-18.536 4.0832-25.36 2.1004-4.5835-1.3317-7.0269-2.8505-11.037-6.8607-7.787-7.787-8.5306-11.314-8.1542-38.675 0.20745-15.079-0.0143-21.603-0.69544-20.461-9.5982 16.085-23.144 31.308-36.264 40.755-15.915 11.459-35.901 20.166-56.56 24.642-10.197 2.2092-12.365 2.3496-17.176 1.1128zm18.436-29.612c21.161-5.8002 38.19-15.562 51.607-29.584 12.719-13.292 20.648-27.107 25.84-45.023 4.9046-16.925 5.6166-26.012 5.6166-71.684v-42.122h-47.5-47.5v47.5 47.5h25.5 25.5v4.2899c0 14.952-10.418 34.24-23.799 44.063-5.625 4.1291-17.052 9.9569-22.951 11.705l-4.25 1.2593v17.342c0 13.207 0.29803 17.342 1.25 17.341 0.6875-0.0004 5.4963-1.1646 10.686-2.5872zm137.06-1.6555c35.505-11.208 59.989-35.172 71.023-69.513 5.8849-18.317 6.2014-21.7 6.6882-71.493l0.44725-45.75h-47.579-47.579v47.5 47.5h25.638 25.638l-0.66396 6.4807c-1.4361 14.017-9.5651 30.174-19.301 38.361-6.447 5.4215-15.844 10.872-24.034 13.94l-7.2556 2.7184-0.0108 17.295-0.0108 17.295 3.75-0.66754c2.0625-0.36714 8.025-2.0171 13.25-3.6665zm-24.17-56.84c3.6699-1.2064 8.4726-3.1263 10.673-4.2663l4-2.0727-7.2079-0.75846c-3.9643-0.41716-8.8568-1.4474-10.872-2.2895-4.6758-1.9537-5.4125-1.9241-5.4532 0.21899-0.0182 0.9625-1.5222 5.6632-3.3421 10.446l-3.309 8.696 4.4196-3.8903c2.7811-2.448 6.8933-4.7035 11.092-6.0838z" fill="#afd0ea"/>
  <path id="path3413" d="m110.58 348.34c-5.66-1.0927-12.433-5.1071-15.582-9.2356-5.2573-6.8927-5.5648-8.8033-5.5648-34.577 0-25.017 0.2639-26.911 4.6362-33.267 3.3899-4.9278 8.3606-8.1864 17.364-11.383 4.125-1.4647 9.075-3.627 11-4.8051l3.5-2.142-9-0.53915c-10.023-0.60045-14.443-2.2614-19.76-7.4254-7.5059-7.2897-7.2066-4.6816-7.5219-65.536-0.2537-48.973-0.1126-54.947 1.3914-58.904 2.086-5.4884 7.4889-11.564 12.823-14.419 4.0399-2.1624 4.4581-2.1776 60.068-2.1776h56l4.8766 2.7504 4.8766 2.7503 6.1616-3.0333 6.1615-3.0333 54.962 0.28297c54.168 0.27888 55.02 0.31419 58.962 2.4453 5.3159 2.8737 9.9308 7.8291 12.421 13.338 1.9523 4.3179 2.0348 6.3816 2.0383 51 0.003 35.433-0.34394 48.945-1.4568 56.774-6.9733 49.055-31.56 85.687-71.128 105.98-19.4 9.9475-45.825 17.279-54.927 15.239-9.4048-2.1077-15.131-6.4892-19.588-14.988-2.2812-4.3497-2.36-5.2683-2.36-27.5 0-12.65 0.36889-24.35 0.81975-26 0.46466-1.7005-1.3216 0.55181-4.1237 5.1995-18.316 30.38-46.747 50.847-83.696 60.25-13.738 3.4963-17.866 4.0195-23.353 2.9602zm24.726-31.47c46.573-15.562 71.995-50.454 76.096-104.44 0.56407-7.425 1.0267-28.912 1.028-47.75l0.002-34.25h-48-48v47.5 47.5h25.645 25.645l-0.60586 6.488c-1.3647 14.614-9.7596 30.394-21.102 39.665-5.8949 4.8184-21.237 13.053-26.831 14.401l-2.75 0.66277v17.519 17.519l4.25-0.67509c2.3375-0.3713 8.9179-2.2349 14.623-4.1413zm129.03 0.94808c19.272-5.8355 34.867-15.207 47.802-28.725 12.554-13.121 20.511-27.019 25.68-44.856 4.9046-16.925 5.6166-26.012 5.6166-71.684v-42.122h-48-48v47.5 47.5h26 26l-0.0174 2.75c-0.035 5.5372-3.0567 16.874-6.3413 23.79-3.9373 8.2909-13.043 18.535-21.454 24.136-3.1281 2.0831-9.7375 5.4176-14.687 7.41l-9 3.6225-0.27418 17.277-0.27418 17.277 4.2742-0.66602c2.3508-0.36631 8.0548-1.8108 12.676-3.21zm-26.001-55.985c2.5297-0.90667 7.9745-3.2638 12.099-5.238l7.5-3.5895-9.5-0.60488c-5.225-0.33268-10.739-1.21-12.254-1.9496-1.5148-0.73963-2.8976-1.1592-3.0729-0.93233-0.17529 0.22684-1.9263 5.0197-3.8911 10.651l-3.5724 10.238 4.0459-3.4631c2.2252-1.9047 6.1157-4.205 8.6454-5.1116z" fill="#95c4e4"/>
  <path id="path3411" d="m104.76 346.5c-5.7043-2.59-11.847-9.1917-13.75-14.778-1.9773-5.8031-2.313-47.834-0.42638-53.386 2.8628-8.4242 9.2714-14.203 19.845-17.894 7.5786-2.6456 13.601-5.5512 14.491-6.9911 0.40317-0.65235-2.1597-1.0178-7.1822-1.0241-12.535-0.0157-21.471-5.4627-26.23-15.99-1.965-4.3459-2.035-6.3488-2.0468-58.5l-0.01219-54 2.3542-5.0556c1.2948-2.7806 4.2787-6.703 6.6309-8.7164 8.0483-6.8891 7.4135-6.8279 67.604-6.5114l53.891 0.28339 5.0421 2.7958 5.0421 2.7958 4.9579-2.7958 4.9579-2.7958 53.891-0.28339c60.509-0.31819 59.713-0.39794 67.89 6.7997 2.6486 2.3314 5.3352 5.9891 6.6585 9.0651 2.214 5.1467 2.2175 5.2553 1.7956 55.788-0.41915 50.201-0.44512 50.734-3.0586 62.743-10.882 50.004-38.858 83.924-83.952 101.79-11.094 4.3947-28.547 8.5868-35.778 8.5938-11.141 0.0108-19.452-5.4471-24.354-15.994-1.9227-4.1361-2.0918-6.2789-2.0918-26.5 0-12.1 0.34136-23.575 0.75857-25.5 0.63509-2.9303 0.0796-2.3606-3.4126 3.5-16.213 27.209-40.004 46.367-71.346 57.452-20.033 7.0856-34.072 8.7873-42.168 5.1115zm24.668-27.611c10.718-2.8686 26.861-10.226 35.63-16.241 24.159-16.568 38.966-41.452 45.033-75.682 1.2441-7.019 1.7054-18.772 2.0717-52.78l0.47118-43.75h-48.103-48.103v47.5 47.5h25.642 25.642l-0.63137 6.0407c-2.5222 24.131-18.379 43.333-43.416 52.577l-7.2378 2.6722v17.355c0 20.17-1.3389 18.645 13 14.807zm131.58-0.004c45.785-13.268 72.274-43.313 80.474-91.277 1.7181-10.05 1.9437-16.35 1.9437-54.271v-42.901h-48-48v47.5 47.5h25.531c21.556 0 25.619 0.22919 26.096 1.472 1.0376 2.704-2.7201 17.941-6.2358 25.285-4.249 8.8761-13.089 18.609-22.031 24.256-6.0352 3.8116-19.81 9.9862-22.277 9.9862-0.73661 0-1.0834 5.6018-1.0834 17.5v17.5h2.3881c1.3135 0 6.3508-1.1484 11.194-2.5519zm-28.31-54.307c1.7813-1.1009 7.0613-3.3948 11.733-5.0975 4.672-1.7027 9.6195-3.974 10.995-5.0473l2.5-1.9514-8-0.0766c-4.9912-0.0478-9.6902-0.72423-12.494-1.7986l-4.4942-1.7219-2.1193 6.5263c-1.1656 3.5895-3.0973 9.0013-4.2926 12.026l-2.1734 5.5 2.5536-3.1788c1.4045-1.7483 4.011-4.0795 5.7923-5.1804z" fill="#82bbe0"/>
  <path id="path3409" d="m106.6 347.23c-5.1798-1.7584-12.613-9.0688-15.1-14.85-2.0981-4.8772-2.185-6.2268-1.8858-29.279 0.29312-22.582 0.45651-24.433 2.4913-28.235 2.9716-5.5517 9.0275-10.794 14.919-12.914 2.697-0.97055 8.2786-3.3745 12.404-5.3421l7.5-3.5774-9.5-0.62427c-13.086-0.85995-20.163-4.9026-25.338-14.474-2.1431-3.9644-2.1624-4.4982-2.1624-60v-56l2.749-4.6764c1.512-2.572 4.437-6.0724 6.5-7.7787 7.1616-5.9231 8.4658-6.0449 64.751-6.0449 54.312 0 57.753 0.26444 63.635 4.8914 2.3611 1.8572 2.4571 1.8574 4.7369 0.0113 5.7132-4.6263 9.3014-4.9028 63.628-4.9028 56.285 0 57.589 0.12175 64.751 6.0449 2.063 1.7063 4.988 5.2067 6.5 7.7787l2.749 4.6764 0.30993 43.5c0.32277 45.303-0.34139 58.428-3.7796 74.694-11.396 53.913-47.529 91.382-101.56 105.31-14.841 3.8266-22.195 3.9308-29.251 0.41475-5.8488-2.9146-9.6641-6.9599-12.426-13.175-1.7202-3.8709-1.8632-6.5211-1.5918-29.505l0.29809-25.252-5.5 8.7126c-10.482 16.605-21.577 28.053-37.792 38.995-22.164 14.956-59.037 26.012-72.036 21.599zm29.877-30.336c16.336-5.3897 30.513-14.038 42.541-25.949 9.3044-9.2144 15.075-17.368 20.448-28.893 10.939-23.462 12.962-38.092 12.962-93.725v-37.894h-48.51-48.51l0.25969 47.75 0.2597 47.75 25.75 0.26688 25.75 0.26688-0.0174 2.2331c-0.0399 5.1359-3.2047 16.668-6.4488 23.499-6.3444 13.359-19.376 24.565-36.59 31.463l-8.4441 3.3838-0.27579 16.405c-0.15168 9.0228-0.0662 16.951 0.18996 17.619 0.54994 1.4331 8.5243-0.18097 20.635-4.1767zm131.72-0.0278c36.075-12.063 61.097-38.947 70.72-75.983 4.1518-15.979 4.6653-22.591 5.2191-67.199l0.53698-43.25h-48.632-48.632l0.25969 47.75 0.2597 47.75 25.759 0.2669 25.759 0.2669-0.59767 4.2331c-2.2833 16.172-7.1721 26.503-17.42 36.81-5.9168 5.9511-9.5252 8.5739-16.82 12.226-5.1082 2.5572-11.064 5.1814-13.234 5.8318l-3.9465 1.1824v17.175c0 9.4463 0.23699 17.412 0.52664 17.702 0.71358 0.71357 11.353-1.7889 20.241-4.761zm-33.734-53.141c1.3562-0.66501 6.1603-2.6032 10.676-4.3072 4.5154-1.704 9.2404-3.9574 10.5-5.0076l2.2901-1.9095-8-0.0552c-5.741-0.0396-9.231-0.61379-12.359-2.0333-2.3976-1.088-4.4993-1.9781-4.6706-1.9781-0.17124 0-0.62964 1.4625-1.0187 3.25-0.5795 2.6626-3.2346 9.9519-7.1938 19.75-0.33337 0.825 1.1751-0.3 3.3522-2.5s5.068-4.5441 6.4242-5.2091z" fill="#6cb2dc"/>
  <path id="path3407" d="m107.43 346.96c-6.1139-1.9833-11.524-6.6958-14.784-12.877l-2.7156-5.1488v-24c0-25.593 0.30398-27.582 5.2395-34.288 3.0386-4.1284 8.1841-7.392 15.26-9.6791 3.025-0.97768 8.1863-3.1851 11.47-4.9054l5.9696-3.1278-9.6132-0.62972c-14.08-0.92233-20.551-4.804-26.458-15.87-1.7578-3.2934-1.8681-6.6871-1.8681-57.5 0-49.577 0.14723-54.382 1.7974-58.657 2.2357-5.7934 10.009-13.279 15.321-14.753 2.5539-0.70913 22.408-1.0798 58.031-1.0835l54.148-0.006 5.3515 2.8087 5.3516 2.8087 5.3642-2.8087 5.3642-2.8087 54.136 0.006c36.394 0.004 55.447 0.36741 58.136 1.1097 2.5765 0.71118 5.83 2.9334 9.1424 6.2444 8.1847 8.1815 8.3581 9.2826 8.3552 53.072-0.003 40.422-1.012 58.946-4.0088 73.568-10.618 51.809-42.533 87.819-91.989 103.79-11.238 3.6294-22.569 6.2096-27.269 6.2096-8.5316 0-18.744-6.3705-23.015-14.357-2.1211-3.9661-2.2155-5.2289-2.2155-29.643v-25.5l2.749-4.6764c3.8323-6.5191 8.919-10.363 17.556-13.267 4.0731-1.3695 9.4958-3.7398 12.05-5.2674l4.6447-2.7774-9.1902-0.65275c-5.1452-0.36545-10.605-1.3584-12.404-2.2558-1.7674-0.88171-3.5574-1.6031-3.9777-1.6031-0.42033 0-1.9818 3.7125-3.47 8.25-14.685 44.774-48.477 75.732-96.401 88.315-12.333 3.238-20.278 3.836-26.057 1.9611zm24-28.032c36.483-10.936 62.033-34.929 73.467-68.991 6.5855-19.618 6.8823-22.618 7.2954-73.753l0.37774-46.75h-48.58-48.58l0.25961 48.25 0.2596 48.25 25.653 0.26669 25.653 0.26668-0.50541 4.2333c-2.9742 24.912-17.676 43.133-42.26 52.378l-8.5395 3.2113-0.27291 18.164-0.27292 18.164 4.2729-0.72066c2.3501-0.39637 7.6479-1.7324 11.773-2.9688zm127.97 0.96297c45.681-12.238 74.272-43.88 82.681-91.505 1.6078-9.1054 1.8456-16.122 1.8456-54.452v-44l-48.25-0.25961-48.25-0.2596v48.51 48.51h25.5 25.5l-0.0148 3.25c-0.0258 5.665-2.9477 16.003-6.6361 23.479-7.2018 14.597-20.962 25.129-42.599 32.604-1.5796 0.54571-1.75 2.3602-1.75 18.636 0 13.76 0.29612 18.031 1.25 18.029 0.6875-0.001 5.513-1.1446 10.723-2.5405z" fill="#4ba8d8"/>
  <path id="path3405" d="m243.99 347.1c-1.325-0.96886-1.4336-1.3333-0.39723-1.3333 0.78442 0 1.9867 0.6 2.6717 1.3333 0.68504 0.73333 0.86379 1.3333 0.39723 1.3333-0.46657 0-1.6688-0.6-2.6717-1.3333zm-123.56-0.66667c0-0.55 0.45-1 1-1s1 0.45 1 1-0.45 1-1 1-1-0.45-1-1zm-13-0.96862c0-0.53273 0.675-0.70959 1.5-0.39301 0.825 0.31659 1.5 0.75246 1.5 0.96862 0 0.21615-0.675 0.39301-1.5 0.39301s-1.5-0.43588-1.5-0.96862zm-3.4674-1.6719c-0.50916-1.2369-0.92244-1.4389-1.2344-0.60323-0.52657 1.4105-2.2982 0.69846-2.2982-0.92366 0-0.62 1.0229-0.79265 2.5-0.42193 3.5036 0.87934 3.1269-0.29613-0.5-1.5605-2.8441-0.99145-4.1483-2.8502-2-2.8502 0.55 0 1 0.49814 1 1.107 0 0.60884 0.675 0.84797 1.5 0.53138 0.825-0.31658 1.5-0.13972 1.5 0.39301 0 0.53274 0.47656 0.96862 1.059 0.96862 0.58246 0 0.7809-0.45 0.44098-1s-0.11115-1 0.50837-1c1.1055 0 0.62542 2.8693-0.98034 5.8595-0.5684 1.0584-0.89952 0.94775-1.4955-0.5zm29.467 0.24753c0-0.21616 0.675-0.65203 1.5-0.96862 0.825-0.31658 1.5-0.13972 1.5 0.39301 0 0.53274-0.675 0.96862-1.5 0.96862s-1.5-0.17686-1.5-0.39301zm132.18-2.107c0.6265-1.375 1.8116-2.5 2.6336-2.5 1.2034 0 1.1234 0.43488-0.41051 2.2328-1.1672 1.368-1.2884 1.7587-0.31298 1.0087 0.8756-0.67325 1.8667-0.94942 2.2024-0.61372 0.3357 0.33571 1.3389-0.1182 2.2294-1.0087 1.8517-1.8517 3.4762-2.1134 3.4762-0.56003 0 0.58246-0.39901 0.81241-0.88669 0.51101-0.48768-0.30141-1.4598 0.14252-2.1602 0.98649-0.70043 0.84397-1.862 1.3087-2.5813 1.0327-0.71927-0.27601-1.5737-0.0715-1.8988 0.45449-0.32508 0.52598-1.2298 0.95633-2.0106 0.95633-1.1513 0-1.2043-0.47247-0.28047-2.5zm-128.97-0.47639c-2.278-1.8994-2.2794-1.9158-0.25-3.0019 1.37-0.73319 2.0405-0.75188 2.0405-0.0569 0 0.56935-0.51974 1.0352-1.155 1.0352-0.65499 0-0.37144 0.86581 0.65499 2 2.2691 2.5073 1.7007 2.5177-1.2905 0.0236zm95.232 0.49013c-1.7759-1.3598-1.6645-1.394 1.3089-0.40218 3.3935 1.132 4.1711 1.8884 1.9411 1.8884-0.71988 0-2.1824-0.66882-3.25-1.4863zm29.059 0.48626c-0.33992-0.55-0.16803-1 0.38197-1s1.2781 0.45 1.618 1c0.33992 0.55 0.16803 1-0.38197 1s-1.2781-0.45-1.618-1zm-128.5-1.059c0-0.58246 0.45-0.7809 1-0.44098s1 0.81648 1 1.059c0 0.24254-0.45 0.44098-1 0.44098s-1-0.47656-1-1.059zm10.079-0.52431c0.048-1.165 0.28494-1.4019 0.60416-0.60417 0.28887 0.72187 0.25335 1.5844-0.0789 1.9167-0.3323 0.33229-0.56864-0.25834-0.52522-1.3125zm-45.579-0.41667c-0.33992-0.55 0.08352-1 0.94098-1s1.559 0.45 1.559 1-0.42344 1-0.94098 1-1.2191-0.45-1.559-1zm42.547 0.5c-0.0362-2.1977 1.6553-3.3747 4.7246-3.2874 1.7756 0.0505 3.2283 0.44351 3.2283 0.87339s-1.1748 0.56856-2.6108 0.30818c-1.7505-0.31743-3.058 0.11626-3.9682 1.3162-0.74658 0.9843-1.3648 1.3396-1.3739 0.78964zm8.9529-1.5c0-0.55 0.47656-1 1.059-1 0.58246 0 0.7809 0.45 0.44098 1s-0.81648 1-1.059 1c-0.24254 0-0.44098-0.45-0.44098-1zm79.072-0.8649c-0.62847-1.1743-0.83209-2.1351-0.4525-2.1351 0.3796 0-0.0484-0.81614-0.95116-1.8136-1.3113-1.4489-1.3927-2.0818-0.40499-3.1472 0.99753-1.0759 0.9305-1.2269-0.34698-0.78169-0.93531 0.32598-1.5833-0.00095-1.5833-0.79881 0-1.0072 0.47327-1.0974 1.8613-0.35448 1.0237 0.54788 1.5972 1.4236 1.2743 1.946-0.32286 0.52241 0.002 0.95672 0.72199 0.96514 1.0307 0.0121 1.0429 0.18426 0.0576 0.8099-0.95317 0.60522-0.79809 1.2812 0.65072 2.8363 1.1516 1.2361 1.5891 2.5482 1.1089 3.3252-0.59119 0.95656-1.0843 0.73965-1.9359-0.85162zm6.1899 1.1732c0.96924-0.25283 1.4622-0.94516 1.0955-1.5385-0.3964-0.6414-0.19863-0.78952 0.48776-0.3653 1.922 1.1878 1.2968 2.6028-1.0955 2.4795-1.7122-0.0883-1.8288-0.22587-0.48776-0.57568zm27.738-0.41797c-1.2661-0.91077-1.2271-0.99124 0.25-0.51607 0.9625 0.30962 1.75 0.10052 1.75-0.46468s0.45-0.74952 1-0.4096c1.409 0.87083 1.2448 2.503-0.25 2.4847-0.6875-0.008-1.925-0.50087-2.75-1.0943zm14.686-0.26535c-0.62988-1.6414 3.9877-1.9614 4.9864-0.34549 0.35218 0.56985 0.15165 0.73-0.44914 0.35869-0.59698-0.36895-1.3681-0.21348-1.7135 0.34549-0.88387 1.4301-2.2015 1.2628-2.8237-0.35869zm-178.69-2.28c0-1.1016 0.66667-2 1.4841-2 1.193 0 1.2485 0.31057 0.28297 1.5833-0.66064 0.87083-1.3285 1.7708-1.4841 2-0.15563 0.22916-0.28297-0.48334-0.28297-1.5833zm-3.5955-0.48784c-0.44208-0.7153-0.27432-0.88306 0.44098-0.44098 1.8156 1.1221 1.3476-0.52783-0.59549-2.0994-1.5793-1.2774-1.5305-1.3091 0.5-0.32506 1.2375 0.59969 2.25 1.7495 2.25 2.5552 0 1.7465-1.5904 1.9366-2.5955 0.31031zm193.24-0.0747c0.35444-0.5735 0.69256-1.988 0.75138-3.1434 0.1085-2.1312 3.6069-3.7235 3.6069-1.6417 0 0.62279-0.39884 0.88585-0.88631 0.58457-0.48747-0.30127-1.1296 0.38272-1.427 1.52-0.40147 1.5352-0.15983 1.9216 0.93825 1.5002 0.81344-0.31214 1.2376-0.177 0.94262 0.30031-0.29499 0.47731-1.444 1.1052-2.5533 1.3953-1.2496 0.32679-1.7718 0.13077-1.3725-0.51527zm-130.17-3.1742c0.0266-2.9238 0.20366-3.0902 2.2711-2.1338 2.4857 1.1499 3.1412 2.8135 0.74646 1.8945-1.0421-0.39989-1.3347-0.11973-0.94253 0.90235 0.31285 0.81526-0.0326 1.7131-0.76754 1.9951-0.94514 0.36269-1.3279-0.41549-1.3075-2.6582zm136.8-0.60245c0.10751-1.4273 0.4597-1.6289 1.4336-0.82068 0.9645 0.80046 1.291 0.6611 1.291-0.55098 0-0.89234 0.46583-1.6224 1.0352-1.6224 1.4629 0-0.57375 3.609-2.441 4.3255-0.98691 0.37872-1.4151-0.0535-1.3188-1.3314zm-197.77 0.0174c-0.35129-0.5684 0.05346-0.73358 0.95232-0.38866 1.1352 0.43561 1.3939 0.15862 0.94495-1.0114-0.87924-2.2913 0.31739-1.9998 1.5956 0.38861 0.90253 1.6864 0.76049 2-0.9058 2-1.0869 0-2.2511-0.44485-2.5871-0.98855zm67.952-1.078c-0.36253-0.58659-0.44468-1.281-0.18255-1.5431 0.26212-0.26213 0.74306 0.21781 1.0688 1.0665 0.67618 1.7621 0.0999 2.0721-0.8862 0.4766zm-71.959-0.93352c0.33992-0.55 1.0415-1 1.559-1 0.51754 0 0.94098 0.45 0.94098 1s-0.70156 1-1.559 1c-0.85746 0-1.2809-0.45-0.94098-1zm208.17-0.5c0.37374-1.1 1.1623-2.3306 1.7525-2.7347 0.72789-0.49841 0.68104-0.73961-0.14568-0.75-2.8125-0.0353 0.028-2.5464 2.984-2.6379l3.2346-0.10013-2.5994 1.1114c-1.6697 0.71386-2.5013 1.77-2.325 2.953 0.15092 1.0129 0.0152 1.5824-0.30169 1.2656-0.31685-0.31685-1.1842 0.20441-1.9274 1.1584-1.2477 1.6014-1.2992 1.5811-0.67182-0.26554zm-185.07-1.3361c-0.25451-0.41181 0.40608-0.81419 1.468-0.89418 2.2966-0.17299 2.4986 0.29838 0.46274 1.0796-0.80738 0.30982-1.6762 0.22638-1.9307-0.18543zm6.3987-0.16391c0-0.55 0.47656-1 1.059-1 0.58246 0 0.7809 0.45 0.44098 1s-0.81648 1-1.059 1c-0.24254 0-0.44098-0.45-0.44098-1zm105.5 0.23469c-1.5051-1.1058-1.6883-3.9014-0.25556-3.9014 0.69056 0 1.2556 1.05 1.2556 2.3333v2.318c0-0.008-0.45-0.34592-1-0.75zm-136.33-2.25c0-1.375 0.22697-1.9375 0.50439-1.25 0.27741 0.6875 0.27741 1.8125 0 2.5s-0.50439 0.125-0.50439-1.25zm81.842 0.94098c0-0.58246 0.41891-0.80012 0.9309-0.48369 0.512 0.31644 1.2136 0.11799 1.559-0.44098 0.34546-0.55897 1.1376-1.0163 1.7602-1.0163 0.62266 0 0.2586 0.66069-0.80902 1.4682-2.3217 1.756-3.4411 1.9098-3.4411 0.47278zm77.192-1.016c0.19708-0.59125 0.78583-1.075 1.3083-1.075 0.5225 0 1.1112 0.48375 1.3083 1.075 0.19709 0.59125-0.39166 1.075-1.3083 1.075-0.91667 0-1.5054-0.48375-1.3083-1.075zm-141.19-0.80697c0-0.55 0.45-1.2781 1-1.618 0.55-0.33992 1-0.16803 1 0.38197s-0.45 1.2781-1 1.618c-0.55 0.33992-1 0.16803-1-0.38197zm13.812 0.19886c0.72187-0.28887 1.5844-0.25335 1.9167 0.0789 0.33229 0.33229-0.25834 0.56864-1.3125 0.52522-1.165-0.048-1.4019-0.28494-0.60417-0.60416zm99.914-0.29132c0.89768-1.0088 0.93186-1.7326 0.12755-2.7018-0.69825-0.84134-0.72857-1.3238-0.0832-1.3238 1.8506 0 2.1388 2.8325 0.41999 4.1287-1.4195 1.0705-1.4939 1.0539-0.46435-0.10309zm-107.94-1.43c-1.0687-0.78142-1.3601-1.6066-0.77429-2.1924 0.51665-0.51665 1.0887-8.1285 1.2713-16.915l0.33197-15.976-0.0561 17.251c-0.0346 10.645 0.32683 17.39 0.94388 17.613 0.55 0.19892 0.7743 0.61149 0.49843 0.91681-0.27586 0.30533-1.2727-0.009-2.2152-0.69789zm58.856 0.72271c-0.35171-0.35172-0.60785-1.352-0.56919-2.2228 0.0517-1.1645 0.29762-1.0543 0.92971 0.41667 0.47269 1.1 0.89106 1.3894 0.92971 0.64301 0.0387-0.74634 0.69046-1.119 1.4484-0.82814 0.75798 0.29086 1.808 0.099 2.3333-0.42635 0.60692-0.60692 0.95519-0.3835 0.95519 0.61277 0 0.87308-0.70169 1.4529-1.5833 1.3083-0.87083-0.14281-2.0831 0.0544-2.6938 0.43819-0.61079 0.38382-1.3983 0.41009-1.75 0.0584zm-51.244-1.0234c1.5459-0.39584 1.638-0.66493 0.5-1.4601-1.1797-0.82432-1.1732-0.91484 0.0423-0.58622 2.4838 0.6715 2.4012 2.7722-0.10417 2.6476-1.9153-0.0952-1.9938-0.20295-0.43819-0.60128zm126.6-0.28272c0-0.55 0.47656-1 1.059-1 0.58246 0 0.7809 0.45 0.44098 1s-0.81648 1-1.059 1c-0.24254 0-0.44098-0.45-0.44098-1zm-3.365-1.5087c-0.31841-0.82978-0.1527-2.6298 0.36826-4 0.60815-1.5996 0.59811-2.4913-0.0281-2.4913-0.53639 0-0.97525-0.4875-0.97525-1.0833 0-0.59584 0.5625-0.89593 1.25-0.66688 1.4539 0.48441 2.313 9.7502 0.90393 9.7502-0.51697 0-1.2005-0.67891-1.5189-1.5087zm65.865 0.50868c-0.33992-0.55-0.14148-1 0.44098-1s1.059 0.45 1.059 1-0.19844 1-0.44098 1-0.7191-0.45-1.059-1zm-129.71-0.75c-0.18093-0.4125-0.31999-2.325-0.30902-4.25 0.0178-3.1219 0.31702-3.5109 2.7699-3.6009 1.5125-0.0555 2.75 0.29057 2.75 0.76905s-1.125 0.58761-2.5 0.2425c-1.5404-0.38661-2.5-0.20201-2.5 0.48095 0 0.60963 0.38542 1.1084 0.85648 1.1084 0.47107 0 0.80857 1.349 0.75 2.9977-0.0991 2.7896-1.0596 3.98-1.8174 2.2523zm120.02 0.0669c0.72187-0.28887 1.5844-0.25335 1.9167 0.0789 0.33229 0.33229-0.25834 0.56864-1.3125 0.52522-1.165-0.048-1.4019-0.28494-0.60417-0.60416zm-190.64-0.8169c-0.15299-0.55-0.32285-8.0875-0.37746-16.75-0.0546-8.6625-0.48031-15.75-0.94597-15.75-2.2153 0-0.50812-1.5894 1.9033-1.772 1.6397-0.12416 2.2555 0.10815 1.5251 0.57539-0.86702 0.55466-1.3128 5.7378-1.5259 17.74-0.16554 9.3261-0.42616 16.506-0.57914 15.956zm14.83 0.18939c0-0.29008 1.9125-0.95892 4.25-1.4863 2.3375-0.52739 5.0375-1.287 6-1.688 0.98312-0.40959 1.75-0.29276 1.75 0.26661 0 0.54763-1.6875 1.3015-3.75 1.6753-2.0625 0.37377-4.7625 0.92263-6 1.2197-1.2375 0.29708-2.25 0.3028-2.25 0.0127zm15.546-2.242c0.14067-3.2135 1.0679-4.0331 1.7241-1.5239 0.28807 1.1016-0.006 2.4425-0.6534 2.9799-0.85111 0.70636-1.1477 0.30308-1.0707-1.456zm3.5823 0.71924c1.1532-1.8465 3.872-2.5487 3.872-1 0 0.45833-0.675 0.83333-1.5 0.83333s-1.5 0.45-1.5 1-0.45381 1-1.0085 1c-0.62835 0-0.57691-0.69105 0.13646-1.8333zm82.826-3.9167c-0.0252-3.1625-0.0868-10.151-0.13686-15.53-0.05-5.3789 0.19565-10.066 0.54592-10.417 0.35027-0.35028 0.63686 6.6381 0.63686 15.53 0 8.8917-0.225 16.167-0.5 16.167s-0.52066-2.5875-0.54592-5.75zm34.046 4.75c-1.2819-0.82843-1.2456-0.9716 0.25-0.98469 0.9625-0.008 1.75 0.43469 1.75 0.98469 0 1.2196-0.11279 1.2196-2 0zm12.875 0.5c-0.0687-0.275-0.18125-1.0625-0.25-1.75-0.17435-1.7435-2.8587-1.6081-4.4492 0.22436-0.95575 1.1012-1.1188 1.1306-0.58595 0.1057 0.56279-1.0825 0.2834-1.2467-1.1758-0.69075-1.3996 0.53319-1.6181 0.43079-0.81312-0.38098 0.6055-0.61059 2.068-1.183 3.25-1.272s2.1491-0.44378 2.1491-0.78832 1.4625-0.5345 3.25-0.42214c1.7875 0.11235 3.5806-0.29749 3.9847-0.91077 0.522-0.79225 0.73912-0.76337 0.75 0.0998 0.0181 1.4391-3.4433 3.4932-4.3532 2.5833-0.34731-0.34732-0.63148 0.14507-0.63148 1.0942s0.45 1.4476 1 1.1076c0.55-0.33992 1-0.14148 1 0.44098 0 1.0344-2.8775 1.5491-3.125 0.55902zm-90.86-1.1276c0.0302-1.7202 1.7289-3.5953 2.3487-2.5925 0.33769 0.5464-0.0561 1.5495-0.875 2.2292-0.81894 0.67966-1.4821 0.84315-1.4737 0.3633zm-45.015-1.3724c0-0.55 0.45-1 1-1s1 0.45 1 1-0.45 1-1 1-1-0.45-1-1zm178.37-2.3714c-0.0546-1.7208 0.0939-2.5914 0.33017-1.9348 0.23624 0.65661 1.188 0.95737 2.1149 0.66837 1.4685-0.45785 1.4534-0.33496-0.11761 0.95517-1.2751 1.0471-1.4363 1.6029-0.55056 1.8981 0.91332 0.30444 0.85577 0.56969-0.21256 0.97965-1.0837 0.41586-1.4908-0.25211-1.5644-2.5665zm-173.37 0.47834c0-0.49116 0.73865-1.1765 1.6414-1.5229 1.3725-0.52667 1.4343-0.38034 0.37756 0.89301-1.4401 1.7352-2.019 1.9158-2.019 0.62988zm177.67-0.94032c0.26368-1.0083 1.1234-1.8333 1.9105-1.8333 1.1586 0 1.1151 0.34916-0.22803 1.8333-0.91253 1.0083-1.7723 1.8333-1.9105 1.8333-0.13826 0-0.0356-0.825 0.22804-1.8333zm-130.63-0.9881c-0.0175-0.72678 0.59949-1.9527 1.3711-2.7243 1.2038-1.2038 1.4951-1.1626 2.0529 0.29095 0.35748 0.9316 0.33319 1.377-0.054 0.98984-0.38719-0.38718-1.2967 0.0765-2.021 1.0305-0.89452 1.178-1.3273 1.3105-1.3489 0.41303zm-40.763-1.8716c0.97297-0.25354 2.323-0.23687 3 0.0371 0.67703 0.27393-0.11903 0.48137-1.769 0.46099-1.65-0.0204-2.2039-0.2445-1.231-0.49804zm10.603-1.057c-1.2143-1.5484-1.189-1.607 0.21957-0.50868 0.8756 0.68273 1.9602 0.90773 2.4103 0.5 0.45008-0.40772 0.49462-0.17882 0.099 0.50868-0.92979 1.6157-1.0931 1.5858-2.7289-0.5zm125.79 0c0.70132-2.7835 1.9285-2.8756 3.3336-0.25 0.7257 1.356 0.73703 2 0.0352 2-0.56937 0-1.0352-0.76101-1.0352-1.6911 0-1.4732-0.18685-1.441-1.4503 0.25-1.4007 1.8748-1.4309 1.8642-0.88337-0.30887zm-130.22-0.81c-1.864-1.4934-1.8518-1.5118 0.30887-0.46481 1.2375 0.59969 2.25 1.2995 2.25 1.5552 0 0.76522-0.51861 0.54424-2.5589-1.0904zm135.12-1.1517c-0.54268-1.4252-0.42782-1.5401 0.5598-0.5598 0.68342 0.67834 0.99067 1.4852 0.68278 1.7931-0.30789 0.30789-0.86705-0.24711-1.2426-1.2333zm36.054 0.25881c0.39245-1.0227 0.0232-1.5519-1.0829-1.5519-1.4919 0-1.5118-0.16667-0.17842-1.5 0.825-0.825 1.7009-1.5 1.9464-1.5 0.83015 0 0.45332 5.0322-0.41712 5.5702-0.47495 0.29353-0.59555-0.16468-0.26801-1.0182zm-167.62-0.64858c-3.5969-0.6578-2.35-1.279 1.8624-0.92776 1.5009 0.12515 2.1139-0.20508 1.6809-0.90562-0.3748-0.60643-1.1699-0.80073-1.7669-0.43178-0.6326 0.39096-0.799 0.2074-0.39887-0.44002 0.68338-1.1057 3.6363-0.56641 3.6072 0.65881-0.0451 1.8918-1.8278 2.6237-4.9847 2.0464zm36.875 0.59664c-0.0687-0.275-0.18125-0.96641-0.25-1.5365-0.0687-0.57007-0.8-1.4632-1.625-1.9847-0.89563-0.56616-1.0201-0.95438-0.30902-0.96353 0.65504-0.008 1.4736 0.44203 1.8191 1.001 0.34546 0.55897 1.1595 0.69759 1.809 0.30804 0.82624-0.49555 0.80809-0.24757-0.0604 0.8257-0.68273 0.84368-0.94523 1.8301-0.58334 2.192 0.3619 0.36189 0.35799 0.65799-0.009 0.65799-0.36667 0-0.72292-0.225-0.79167-0.5zm-7.4161-1.5665c-0.36253-0.58659-0.44468-1.281-0.18255-1.5431 0.26212-0.26213 0.74306 0.21781 1.0688 1.0665 0.67618 1.7621 0.0999 2.0721-0.8862 0.4766zm2.5411 0.67352c0-0.21616 0.69837-0.661 1.5519-0.98855 0.88992-0.34149 1.2913-0.17385 0.94098 0.39301-0.58726 0.95021-2.4929 1.4054-2.4929 0.59554zm138-2.607c0-0.55 0.57499-1 1.2778-1 0.70277 0 1.9886-0.83025 2.8575-1.845 1.4407-1.6826 1.4382-1.9509-0.0278-3.0479-1.4465-1.0824-1.4322-1.1512 0.1425-0.68638 1.1067 0.32664 1.75-0.0233 1.75-0.95211 0-1.8844 1.6175-1.9079 2.3366-0.034 0.32989 0.85967-1.0311 2.8636-3.3959 5-4.1801 3.7766-4.9406 4.1714-4.9406 2.5654zm-159.23-2.79c-0.31673-1.2112-0.13818-2.4726 0.39678-2.8033 1.6146-0.99787 2.2157 0.44124 1.1664 2.7927l-0.98734 2.2127-0.57587-2.2021zm27.447 0.39674c0.70919-0.76953 1.447-1.2495 1.6396-1.0665 0.59314 0.56346-0.91014 2.4657-1.9486 2.4657-0.53923 0-0.40017-0.62961 0.30901-1.3991zm106.61-1.299c1.7832-1.65 2.093-2.2917 0.92753-1.9211-1.1458 0.36437-1.75 0.0291-1.75-0.97113 0-0.8402 0.42742-1.2635 0.94983-0.94061 0.5224 0.32287 1.4099-0.27267 1.9723-1.3234 1.1058-2.0663 7.1935-3.6104 6.4344-1.632-0.23991 0.62518-1.4221 1.1029-2.6271 1.0616-1.8834-0.0646-2.1842 0.44694-2.1433 3.6453 0.0408 3.1885-0.16746 3.5459-1.4565 2.5-1.2252-0.99418-1.4003-0.94235-0.9444 0.27957 0.38878 1.042-0.14261 1.5427-1.7403 1.6397-2.2846 0.13877-2.2821 0.12317 0.37757-2.3379zm-4.8225-0.1115c0-0.53699 0.7126-1.2498 1.5836-1.584 0.97391-0.37373 1.4311-0.15024 1.1875 0.58051-0.49828 1.4948-2.7711 2.3179-2.7711 1.0035zm-103-1.1551c0-0.56935 0.675-1.0352 1.5-1.0352s1.5-0.47656 1.5-1.059c0-0.58246-0.51953-0.73793-1.1545-0.34549-0.7153 0.44208-0.88306 0.27432-0.44098-0.44098 1.0051-1.6263 2.5955-1.4362 2.5955 0.31031 0 0.80565-0.9 1.9465-2 2.5352-1.356 0.7257-2 0.73703-2 0.0352zm4.9636-0.49138c0.66469-0.8009 0.87526-1.9954 0.46793-2.6545-0.43044-0.69648-0.31798-0.93712 0.26855-0.57463 1.3181 0.81462 5.5489-3.6917 4.559-4.8559-0.41753-0.49106 0.0283-0.29008 0.99085 0.44663 0.9625 0.73671 1.7431 1.8469 1.7347 2.467-0.008 0.62016-0.45153 0.45256-0.98469-0.37244-0.88714-1.3728-1.4448-0.69741-1.0936 1.3243 0.0787 0.45338-0.2708 0.56847-0.7768 0.25574-0.99347-0.614-2.5181 2.3647-1.6531 3.2297 0.28795 0.28795 0.52354-0.001 0.52354-0.64312 0-0.64167 0.5625-1.1517 1.25-1.1334 1.7732 0.0472-3.1507 3.9667-4.9832 3.9667-1.2101 0-1.2706-0.29049-0.30312-1.4562zm-23.535-5.5903c0-0.99365 0.34775-1.5917 0.77277-1.329 0.99075 0.61232 4.5316-2.6677 4.9665-4.6006 0.50215-2.2319 2.6858-4.2323 3.8408-3.5185 0.56319 0.34807 0.76055 1.0591 0.43857 1.5801-0.32197 0.52097-1.0043 0.68832-1.5163 0.37188-0.51199-0.31643-0.9309-0.0153-0.9309 0.66924 0 0.68451-1.0125 2.3581-2.25 3.7192-2.109 2.3196-2.1247 2.4345-0.25 1.8353 1.6358-0.52292 1.5659-0.33157-0.38416 1.0509-3.2481 2.3027-4.6873 2.3708-4.6873 0.22161zm6.5714 1.169c0-1.2562 2.9343-3.5215 3.6432-2.8126 0.32719 0.32719-0.10154 1.2913-0.95273 2.1425-1.7377 1.7377-2.6905 1.975-2.6905 0.67006zm130.08-0.70577c0.048-1.165 0.28494-1.4019 0.60416-0.60417 0.28887 0.72187 0.25335 1.5844-0.0789 1.9167-0.33229 0.33229-0.56864-0.25834-0.52522-1.3125zm26.254-1.8727c0-0.80081 0.38234-1.2197 0.84965-0.9309 0.4673 0.28881 0.59075 0.94401 0.27431 1.456-0.80862 1.3084-1.124 1.1611-1.124-0.52511zm-132.33-2.544c-0.83655-1.5631-0.76049-2 0.34818-2 0.78021 0 1.6539 0.9 1.9416 2 0.28766 1.1 0.13097 2-0.34819 2-0.47915 0-1.3529-0.9-1.9416-2zm104.58 0.35856c-0.52667-1.3725-0.38034-1.4343 0.89301-0.37756 1.7352 1.4401 1.9158 2.019 0.62988 2.019-0.49116 0-1.1765-0.73865-1.5229-1.6414zm28.726-2.9771c-1.0209-2.1676-0.98536-2.3572 0.25-1.3319 1.8073 1.5 1.9632-0.34398 0.19033-2.2519-0.6875-0.73988-1.3738-2.0095-1.5251-2.8214-0.15131-0.8119 0.62618-0.35119 1.7278 1.0238 2.134 2.6636 2.3014 3.5104 1.227 6.2044-0.58057 1.4558-0.85332 1.3358-1.87-0.82292zm-129.81 0.61855c0.33992-0.55 0.81648-1 1.059-1 0.24254 0 0.44098 0.45 0.44098 1s-0.47656 1-1.059 1c-0.58246 0-0.7809-0.45-0.44098-1zm102.5 0.40773c0-0.32575 0.9-1.7364 2-3.1349 1.4077-1.7897 2-2.0769 2-0.96988 0 0.97148 0.78744 1.5134 2.0598 1.4176 1.3675-0.10301 1.9178-0.69832 1.6372-1.7712-0.23243-0.88882 0.10054-1.616 0.73994-1.616s1.2247 0.825 1.3006 1.8333c0.076 1.0083-0.31049 1.8333-0.85877 1.8333-0.54827 0-0.73662 0.42108-0.41855 0.93573 0.3573 0.57813-0.62994 0.5892-2.5834 0.029-3.3346-0.95636-5.2986-0.45594-4.3342 1.1044 0.31643 0.51199 0.0988 0.9309-0.48369 0.9309-0.58246-0.00003-1.059-0.26655-1.059-0.5923zm-224.43-2.08c-0.35187-0.91697-0.14836-2.1545 0.45226-2.75 0.78716-0.7805 0.90604-0.59423 0.42579 0.66722-0.38603 1.014-0.20066 1.75 0.44075 1.75 0.60884 0 1.107 0.45 1.107 1 0 1.6198-1.7309 1.1437-2.4258-0.66722zm132.34-0.0828c0.63667-1.2375 1.3509-2.25 1.5872-2.25s0.96914 1.0125 1.6285 2.25c1.0396 1.9511 1.0013 2.0871-0.28861 1.0238-1.1746-0.96827-1.7607-0.96827-2.7861 0-1.0603 1.0012-1.0862 0.81328-0.14102-1.0238zm22.671 0.10856c-0.52667-1.3725-0.38034-1.4343 0.89301-0.37756 1.7352 1.4401 1.9158 2.019 0.62988 2.019-0.49116 0-1.1765-0.73865-1.5229-1.6414zm-31.964-1.1644c-0.75247-1.2175 1.8794-5.7288 3.1819-5.4541 0.62611 0.13202 1.6122-0.64535 2.1914-1.7275 0.82601-1.5434 0.7592-1.8548-0.30993-1.4445-0.74961 0.28766-1.9401-0.17247-2.6456-1.0225-1.0842-1.3064-0.97323-1.5455 0.71734-1.5455 1.1 0 2.5672 0.68344 3.2605 1.5188 1.0276 1.2382 0.95749 1.8535-0.37974 3.3312-0.90211 0.99682-1.3392 2.1134-0.97135 2.4812 0.36787 0.36787 0.18135 0.66885-0.41448 0.66885s-1.2945-0.5625-1.5526-1.25c-0.27399-0.72985-0.88046-0.20971-1.4574 1.25-0.68964 1.7447-0.64857 2.722 0.13593 3.2347 0.81269 0.53115 0.79416 0.73893-0.0669 0.75-0.65504 0.008-1.4151-0.34732-1.689-0.79052zm132.77-0.36884c-0.41038-0.66401-0.24176-1.3754 0.37472-1.5809 0.61648-0.20549 0.87301-1.0196 0.57006-1.809-0.35764-0.93201 0.10042-1.43 1.3062-1.4201 1.1328 0.009 1.4248 0.30182 0.74863 0.75-0.6096 0.40408-0.98718 1.5204-0.83907 2.4807 0.33151 2.1494-1.1423 3.2268-2.1605 1.5793zm-118.83-1.5322c-0.54268-1.4252-0.42782-1.5401 0.5598-0.5598 0.68342 0.67834 0.99067 1.4852 0.68278 1.7931-0.30789 0.30789-0.86705-0.24711-1.2426-1.2333zm-117.81-1.4598c0.26369-1.0083 0.59947-1.8333 0.74617-1.8333 0.14671 0 0.48248 0.825 0.74616 1.8333 0.27231 1.0413-0.05 1.8333-0.74616 1.8333-0.69612 0-1.0185-0.79202-0.74617-1.8333zm3.2462 0.60765c0-0.85746 0.45734-1.2764 1.0163-0.9309 0.55897 0.34546 0.75742 1.047 0.44098 1.559-0.85723 1.387-1.4573 1.1284-1.4573-0.62812zm4.7001 0.21994c-0.2802-0.73017 0.12265-1.3276 0.89521-1.3276 1.5746 0 1.8789 1.2556 0.50945 2.1019-0.49237 0.3043-1.1245-0.0441-1.4047-0.77432zm129.3 0.28006c0-0.58246-0.44485-0.78408-0.98855-0.44806-0.56686 0.35034-0.7345-0.0511-0.39301-0.94098 0.848-2.2098 2.3816-1.9213 2.3816 0.44806 0 1.1-0.225 2-0.5 2s-0.5-0.47656-0.5-1.059zm3.261-1.1264c-0.11258-1.4946 0.16006-1.71 1.1375-0.89881 0.70706 0.58681 1.5264 0.82603 1.8208 0.53162 0.29442-0.29441 1.8179-0.76787 3.3855-1.0521 1.5676-0.28426 2.564-0.2307 2.2143 0.11901-0.34971 0.34971-1.2396 0.72723-1.9775 0.83893-0.7379 0.11169-1.7916 0.45854-2.3416 0.77077-2.9075 1.6506-4.0979 1.5637-4.239-0.30939zm-128.4 0.2912c1.1509-0.72914 1.1509-0.935 0-1.3219-0.74973-0.25205 0.16982-0.50343 2.0435-0.55863l3.4066-0.10035-2.7709 1.4376c-3.0089 1.561-4.8865 1.9418-2.6792 0.54331zm103.13-0.10574c-0.12897-0.825-0.15107-2.1077-0.0491-2.8504 0.10195-0.7427-0.29473-1.0536-0.88152-0.69099-0.5868 0.36266-1.0669 0.18282-1.0669-0.39964 0-1.5719 1.9769-1.2828 2.616 0.38257 0.30425 0.79287 0.34233 2.2554 0.0846 3.25-0.34437 1.3291-0.53072 1.4108-0.70305 0.30841zm96.197-1.9403c1.3514-2.164 2.8052-2.7314 2.8052-1.0948 0 0.53065-0.92058 1.4575-2.0457 2.0596-1.8894 1.0112-1.9474 0.9374-0.75945-0.96481zm-224.19-0.9372c0-1.2562 2.9343-3.5215 3.6432-2.8126 0.32719 0.32719-0.10154 1.2913-0.95273 2.1425-1.7377 1.7377-2.6905 1.975-2.6905 0.67006zm31.564-0.41557c0.37553-0.98622 0.93469-1.5412 1.2426-1.2333 0.30789 0.30789 0.00064 1.1148-0.68278 1.7931-0.98762 0.98026-1.1025 0.8654-0.5598-0.5598zm63.668-0.70687c1.3773-2.2054 1.7127-2.3224 3.4651-1.2083 0.78959 0.50194 0.87992 1.2628 0.26532 2.2347-0.75869 1.1997-0.9404 1.1019-0.97763-0.52639-0.042-1.8391-0.12774-1.8592-1.065-0.25-0.5606 0.9625-1.4507 1.75-1.9781 1.75-0.52734 0-0.39673-0.9 0.29023-2zm138.77 0.5c0-0.83333-0.88889-1.5-2-1.5-1.1 0-2-0.49814-2-1.107 0-0.60884 0.675-0.84797 1.5-0.53138 0.95648 0.36703 1.5-0.0169 1.5-1.0597 0-2.3066 0.90307-1.1267 1.961 2.5622 0.54822 1.9115 0.53618 3.1358-0.0309 3.1358-0.5116 0-0.93019-0.675-0.93019-1.5zm-205.92-1.08c0.048-1.165 0.28494-1.4019 0.60416-0.60417 0.28887 0.72187 0.25335 1.5844-0.079 1.9167-0.33229 0.33229-0.56864-0.25834-0.52522-1.3125zm6.2544 0.0527c0-0.74706 0.2625-1.33 0.58334-1.2954 1.8534 0.19977 3.0833-0.31118 3.0833-1.2809 0-0.61554-0.72872-0.82735-1.6414-0.47711-1.3921 0.53419-1.4435 0.39132-0.33828-0.94034 1.0388-1.2517 1.4701-1.3071 2.1261-0.27289 0.64247 1.0128 0.82967 0.96836 0.85358-0.20267 0.0272-1.3333 0.13833-1.3333 1 0 0.5789 0.89579 0.97554 1.0215 0.98469 0.31215 0.008-0.65332 0.90995-1.1205 2.0034-1.0381 2.5065 0.18881 1.0427 1.7726-1.839 1.9897-1.182 0.089-2.1491 0.46437-2.1491 0.83407 0 0.36971-1.05 1.3602-2.3333 2.201-1.8822 1.2332-2.3333 1.2662-2.3333 0.17056zm218.33 0.86393c-0.92399-0.92395-0.83794-3.3333 0.11904-3.3333 0.43215 0 0.78572 0.9 0.78572 2 0 2.2548 0.007 2.2449-0.90476 1.3333zm-136.2-1.3836c-0.91846-1.4861-0.188-2.0122 1.4168-1.0204 0.85973 0.53135 0.96201 1.0467 0.29014 1.4619-0.57071 0.35272-1.3388 0.15403-1.7069-0.44153zm48.82 0.13355c-0.43413-0.32083-0.92723-1.222-1.0958-2.0026-0.25528-1.1824-0.0426-1.2003 1.2742-0.1075 2.0983 1.7415 3.0462 0.68357 1.1165-1.2461-1.348-1.348-1.2556-1.4957 0.85642-1.369 1.3021 0.0781 2.1761 0.45177 1.9423 0.83047-0.23379 0.3787 0.37189 1.2002 1.346 1.8255 1.655 1.0625 1.6564 1.1013 0.021 0.59285-1.0492-0.32622-1.75-0.0227-1.75 0.75783 0 1.3288-2.2859 1.7715-3.7107 0.71861zm-170.29-1.0833c0-0.55 0.41968-1 0.93261-1 0.51294 0 1.2229-0.91446 1.5776-2.0321 0.53286-1.6789 4.9594-6.9679 5.8317-6.9679 0.13806 0 0.2301 1.1266 0.20455 2.5037-0.02556 1.377-0.49647 2.457-1.0465 2.4-0.55-0.057-0.8875-0.50866-0.75-1.0037 0.3857-1.3885-0.36604-1.0714-1.8776 0.79196-1.1646 1.4357-1.1635 1.5661 0.0073 0.8608 0.95924-0.57785 1.2259-0.40778 0.875 0.55804-0.2776 0.76406-1.1235 1.2702-1.8797 1.1247-0.77372-0.14883-0.5004 0.45662 0.625 1.3845 1.5845 1.3064 1.6431 1.5263 0.28202 1.0582-0.94489-0.32498-1.9839-0.16052-2.309 0.36546-0.7781 1.259-2.473 1.229-2.473-0.0437zm260 0c0-0.55 0.47656-1 1.059-1 0.58246 0 0.7809 0.45 0.44098 1s-0.81648 1-1.059 1c-0.24254 0-0.44098-0.45-0.44098-1zm-224-0.96862c0-0.53273-0.7364-0.68603-1.6364-0.34065-1.0807 0.41469-1.4889 0.18541-1.2021-0.67507 0.51036-1.5311 5.8386-2.3418 5.8386-0.88842 0 0.54494-0.52647 0.66542-1.1699 0.26773-0.78665-0.48618-0.96074-0.1779-0.53138 0.94099 0.3512 0.91522 0.20267 1.664-0.33007 1.664-0.53273 0-0.96861-0.43588-0.96861-0.96862zm67.5-0.0314c-0.33992-0.55-0.14148-1 0.44098-1s1.059 0.45 1.059 1-0.19844 1-0.44098 1-0.7191-0.45-1.059-1zm129.5 0.31175c0-0.62368 1.3845-2.299 3.0767-3.7229s2.5172-2.5889 1.8333-2.5889c-1.5435 0-0.3315-1.3209 1.4522-1.5827 0.71741-0.10529 1.3044 0.43274 1.3044 1.1956 0 0.76288-0.40037 1.387-0.88971 1.387-0.48933 0-2.2143 1.4503-3.8333 3.2229s-2.9436 2.7126-2.9436 2.0889zm-97.74-2.8598c-0.68203-0.74045-0.84168-1.5925-0.35479-1.8934 0.48689-0.30092 1.168 0.1897 1.5136 1.0903 0.82718 2.1556 0.37537 2.4687-1.1588 0.80313zm40.74 0.45093c0-0.65438 0.87234-0.90807 2.0571-0.59825 1.3202 0.34524 1.9023 0.11835 1.625-0.63337-0.23765-0.64422-0.93835-1.0588-1.5571-0.92131-0.61875 0.1375-1.125 0.031-1.125-0.23658 0-0.69068 7.3215-3.8623 8.3727-3.627 0.47998 0.10744 0.58217-0.56171 0.22711-1.487-0.54138-1.4108-0.39978-1.4784 0.87732-0.41845 1.2317 1.0222 1.8575 1.0047 3.2729-0.0913 1.4166-1.097 1.386-0.92865-0.16054 0.88368-1.0508 1.2314-2.102 2.0474-2.3361 1.8134-0.23405-0.23406-1.6243 0.9034-3.0895 2.5277-2.7297 3.0262-8.1639 4.8824-8.1639 2.7885zm7.595-3.0484c1.8948-2.134 1.8929-2.1392-0.34501-0.96482-1.2375 0.64939-2.25 1.6149-2.25 2.1455 0 1.4206 0.47868 1.2028 2.595-1.1807zm74.323 3.8955c-0.74852-2.2757-0.74744-5.9946 0.002-7.8681 0.73232-1.83 0.96785-1.9627 1.0166-0.57284 0.0349 0.99496 0.51339 1.5309 1.0634 1.191 0.55-0.33992 1-0.0933 1 0.54797 0 0.6413-0.675 0.90699-1.5 0.5904-0.88847-0.34093-1.5-0.0108-1.5 0.80968 0 0.76191 0.52318 1.5597 1.1626 1.7728 1.6971 0.56571 1.9088 3.7791 0.24889 3.7791-0.77634 0-1.4485-0.1125-1.4938-0.25zm-153.92-2.1276c0-0.89234 0.34175-1.6224 0.75945-1.6224s1.3509-0.94709 2.0738-2.1046c0.87425-1.3999 0.92139-1.8618 0.14078-1.3793-0.89119 0.55079-0.90049 0.21502-0.0386-1.3954 1.2485-2.3329 1.6333-2.4202 4.5646-1.035 1.6807 0.79422 1.5721 0.86256-0.68067 0.42807-2.5385-0.4896-2.637-0.36491-1.8582 2.3507 0.82712 2.884-0.23707 6.193-1.5647 4.8653-0.3918-0.3918-1.3163-0.21117-2.0544 0.4014-1.0289 0.85391-1.342 0.73522-1.342-0.50868zm4.5-1.6224c0.33992-0.55 0.14148-1-0.44098-1s-1.059 0.45-1.059 1 0.19844 1 0.44098 1 0.7191-0.45 1.059-1zm28.937 0.89828c-0.4998-0.80869-0.28243-0.9789 0.65836-0.51552 0.77248 0.38048 0.68114 0.15526-0.20299-0.50049-1.466-1.0873-1.4684-1.3547-0.0278-3.0373 0.86886-1.0148 2.1547-1.845 2.8575-1.845 0.70277 0 1.2778-0.46774 1.2778-1.0394 0-0.63528 0.50006-0.5723 1.2861 0.16197 1.2797 1.1954 1.6756 6.2491 0.57569 7.349-0.31723 0.31723-1.2034-0.19547-1.9693-1.1393-0.76587-0.94387-0.92643-1.4378-0.35679-1.0976 0.56965 0.3402 1.0357-0.24199 1.0357-1.2938 0-2.2906-1.5958-0.98023-1.9781 1.6242-0.32621 2.2226-2.1344 2.9864-3.1562 1.3332zm125.17-0.31232c0.50561-1.3272 0.37398-1.6945-0.4293-1.1981-0.77331 0.47793-0.94651 0.1636-0.52094-0.94541 0.58987-1.5372 0.70891-1.5339 1.5922 0.0444 0.63998 1.1436 0.57134 2.0861-0.20824 2.8595-0.8819 0.87488-0.98669 0.69115-0.43369-0.76042zm-212.27-1.21c0-1.1748 1.9818-2.5735 3.9531-2.79 0.43257-0.0475 1.1579-0.6873 1.6118-1.4218 0.45393-0.73448 1.2145-1.4095 1.6902-1.5 1.2527-0.23841 1.5592-3.4553 0.39758-4.1732-0.54232-0.33517-0.98604-1.065-0.98604-1.6218 0-0.55682 0.72857-0.28384 1.619 0.60664 0.89047 0.89048 1.8899 1.3482 2.221 1.0171 0.33109-0.3311 0.0148-0.9649-0.7029-1.4085-1.0497-0.64877-1.0238-0.91433 0.13262-1.3581 1.0628-0.40783 1.4066 0.2147 1.319 2.388-0.13303 3.2994-6.9312 10.41-8.8304 9.2359-0.68091-0.42083-0.87989-0.10976-0.52364 0.81863 0.31962 0.83291 0.0252 1.4974-0.66339 1.4974-0.6809 0-1.238-0.58064-1.238-1.2903zm78.746 0.90881c-0.0434-0.66815 0.79147-1.6806 1.8553-2.25 2.7264-1.4591 3.5187-1.2858 2.0749 0.45381-0.67967 0.81894-1.5963 1.2661-2.037 0.99377-0.4407-0.27237-1.0292 0.0701-1.3077 0.76101-0.37905 0.94019-0.52633 0.95061-0.58541 0.0414zm-18.664-2.4234c-0.43129-0.69784-0.29172-0.9039 0.34549-0.51008 0.58801 0.36341 1.297 0.0954 1.5756-0.59549 0.3625-0.89914 0.52891-0.91769 0.58541-0.0652 0.11408 1.7209-1.6556 2.5475-2.5065 1.1708zm67.585-0.83748c0-0.6283 0.41594-0.88529 0.92432-0.57109 0.50837 0.31419 1.1376-0.11807 1.3982-0.96059 0.36656-1.1849 0.44033-1.1498 0.32568 0.15489-0.16547 1.8832-2.6482 3.174-2.6482 1.3768zm86.015-0.19099c-0.008-0.91666-0.35281-1.8554-0.76531-2.0861-0.4125-0.23069-0.21657-0.29347 0.43539-0.13951 0.65197 0.15396 1.4039-0.25729 1.671-0.9139 0.30325-0.74541 0.50957-0.63041 0.5493 0.30618 0.035 0.825-0.37258 2.175-0.90574 3-0.83841 1.2974-0.97144 1.2748-0.98469-0.16667zm-214.02-0.83333c0-0.55 0.47656-1 1.059-1 0.58246 0 0.7809 0.45 0.44098 1s-0.81648 1-1.059 1c-0.24254 0-0.44098-0.45-0.44098-1zm79.603 0.16667c-0.28327-0.45834 0.12038-0.83334 0.89699-0.83334s1.1803 0.375 0.89699 0.83334c-0.28326 0.45833-0.68691 0.83333-0.89699 0.83333s-0.61373-0.375-0.89699-0.83333zm2.9804-2.8098c-0.34679-0.90372-0.33333-1.9162 0.0299-2.25 0.36324-0.33378 0.86227-0.0416 1.1089 0.64936 0.24668 0.69093 0.97258 0.94205 1.6131 0.55804 0.64052-0.384 0.54699 0.0632-0.20785 0.99377-1.6884 2.0815-1.7636 2.0829-2.5441 0.0488zm-114.73-0.23045c-1.4035-0.53262-1.2666-0.91404 0.91461-2.5473 1.4109-1.0565 2.2396-1.394 1.8416-0.75-0.39799 0.64397-0.26943 1.1708 0.2857 1.1708s1.468-0.7875 2.0286-1.75c0.77875-1.337 1.0265-1.4025 1.0497-0.27749 0.0198 0.95994 0.60199 0.65646 1.6725-0.87186 1.482-2.1158 1.7346-2.179 2.5917-0.6475 1.1849 2.1173 0.00001 3.5304-1.2728 1.5179-0.76853-1.2152-0.93298-1.1481-0.94563 0.38595-0.0105 1.2716-0.50879 1.6676-1.5807 1.2563-1.2017-0.46113-1.4184-0.13747-0.93261 1.393 0.36233 1.1416 0.17658 1.9937-0.43461 1.9937-0.58707 0-1.0674-0.5051-1.0674-1.1224 0-0.76402-0.39916-0.80348-1.25-0.12359-0.6875 0.54937-1.9928 0.71697-2.9007 0.37245zm7.7154-0.0216c-0.3043-0.49236 0.14252-1.1622 0.99292-1.4885 0.85041-0.32633 1.295-0.18692 0.98803 0.3098-0.30699 0.49673 0.007 1.131 0.69806 1.4096 0.7809 0.31483 0.6164 0.53634-0.43475 0.58541-0.93004 0.0434-1.94-0.3239-2.2443-0.81627zm4.8512-0.46326c-0.31346-0.81688-0.0329-2.4886 0.6234-3.715 1.0265-1.918 0.96737-2.1431-0.423-1.6095-1.9243 0.73844-2.1451-0.63323-0.3427-2.1291 1.3307-1.1044 9.3884-0.86464 10.554 0.31407 0.36969 0.37379-1.3528 0.55484-3.8278 0.40233-3.1444-0.19376-4.4206 0.0923-4.2365 0.94973 0.14493 0.67486-0.18897 2.0725-0.74201 3.1058-0.7153 1.3366-0.66125 1.9936 0.18724 2.2764 0.91786 0.30595 0.91439 0.56962-0.0151 1.144-0.69737 0.431-1.4487 0.11879-1.7777-0.73878zm113.99 0.21349c-0.48846-0.79035 0.11271-0.98817 1.941-0.63867 1.9625 0.37515 2.6668 0.0889 2.7189-1.105 0.0623-1.4273 0.1479-1.42 0.75 0.0643 0.56812 1.4005 0.96445 1.4664 2.4142 0.40113 0.95395-0.70098 1.4147-1.68 1.0238-2.1756-0.39086-0.49561 0.12793-0.14825 1.1529 0.77192 1.4268 1.281 2.4521 1.4493 4.3751 0.71815 2.1262-0.80839 2.3289-0.73479 1.3209 0.47971-0.92736 1.1174-0.905 1.5578 0.10112 1.992 0.71046 0.30655-0.0583 0.46281-1.7083 0.34724-1.65-0.11556-3.3238-0.66012-3.7195-1.2101-0.46812-0.65064-1.4241-0.56329-2.7364 0.25-2.5231 1.5637-6.6967 1.6211-7.6337 0.10501zm100.88-0.59299c-0.92974-0.30991-0.94283-0.83876-0.0559-2.259 1.0757-1.7224 1.2487-1.7351 2.4321-0.17869 0.70074 0.92161 1.2884 1.9382 1.3059 2.259 0.0367 0.67359-1.9135 0.76823-3.6821 0.17869zm-5.2861-0.671c0-0.19039 0.675-0.90637 1.5-1.5911 0.86459-0.71755 1.5-0.81474 1.5-0.22943 0 0.5585-0.675 1.2745-1.5 1.5911-0.825 0.31658-1.5 0.41982-1.5 0.22943zm25.667-0.25773c-1.4667-1.4667-0.55101-3.3274 1.5833-3.2173 1.6932 0.0873 1.8169 0.22918 0.5 0.57333-0.9625 0.25152-1.75 0.90088-1.75 1.443 0 0.54213 0.51953 0.66461 1.1545 0.27217 0.7153-0.44208 0.88306-0.27432 0.44098 0.44098-0.82788 1.3395-1.0268 1.3898-1.9288 0.48784zm-155.67-1.8776c0-0.11599 0.675-0.77109 1.5-1.4558 1.2165-1.0096 1.5-0.96975 1.5 0.21089 0 0.80068-0.675 1.4558-1.5 1.4558s-1.5-0.0949-1.5-0.21089zm22.458-1.2058c0.26335-0.6875 0.0804-1.25-0.40647-1.25-0.48691 0-1.0652 0.53975-1.2851 1.1994-0.26593 0.79779-0.59677 0.68617-0.98799-0.33333-0.81398-2.1212 2.1407-2.0151 4.9715 0.17853l2.2504 1.7438-2.5106-0.14424c-1.5596-0.0896-2.3292-0.61773-2.0318-1.3942zm23.106 0.85478c-0.3043-0.49236 0.14251-1.1622 0.99292-1.4885 1.009-0.38718 1.2974-0.19081 0.83021 0.56515-0.4825 0.78072-0.15641 0.94376 1 0.5 1.0193-0.39113 1.4679-0.25712 1.105 0.33006-0.762 1.2329-3.1882 1.2906-3.9282 0.0933zm37.435-0.0458c0-0.51754 0.48921-1.2433 1.0871-1.6129 0.78285-0.48382 0.78285-0.97617 0-1.759-0.59792-0.59792-1.0871-1.5331-1.0871-2.0783 0-0.54512 0.57857-0.19989 1.2857 0.76719 1.2 1.6411 1.2857 1.6206 1.2857-0.30887 0-1.137-0.55061-2.0672-1.2236-2.0672-0.67296 0-1.1567-0.88711-1.0751-1.9714 0.10453-1.3877 0.80532-1.917 2.3671-1.7878 1.2202 0.10099 2.1972 0.4256 2.1709 0.72136-0.24452 2.7584 0.24026 3.2435 1.9392 1.9405 0.9625-0.73821 0.625-0.0457-0.75 1.5388-1.375 1.5846-1.825 2.5491-1 2.1436 0.825-0.40559 0.375 0.25635-1 1.471s-2.3875 2.5989-2.25 3.0762c0.1375 0.47727-0.2 0.86777-0.75 0.86777s-1-0.42344-1-0.94098zm4-8.5c0-1.0555-1.9191-1.4989-2.4899-0.57533-0.34546 0.55897 0.0734 1.0163 0.9309 1.0163 0.85746 0 1.559-0.19844 1.559-0.44098zm51.079 6.8576c0.048-1.165 0.28494-1.4019 0.60416-0.60417 0.28887 0.72187 0.25335 1.5844-0.0789 1.9167-0.33229 0.33229-0.56864-0.25834-0.52522-1.3125zm-185.08-0.47569c0-0.58246 0.45-0.7809 1-0.44098 0.97227 0.6009 1.4048-0.70728 1.0746-3.25-0.0893-0.6875 0.5324-1.25 1.3815-1.25 0.84911 0 1.5438-0.47656 1.5438-1.059 0-0.58246-0.5625-0.73531-1.25-0.33967s-0.92833 0.36303-0.53518-0.0725c0.39315-0.43549 0.26481-1.6326-0.28519-2.6603-1.4972-2.7975-0.41032-2.2511 1.5876 0.79817 1.6695 2.548 1.6661 2.726-0.0761 4-1.0029 0.73332-1.4966 1.3333-1.0971 1.3333 0.39948 0 0.24465 0.9-0.34405 2-1.1378 2.126-3 2.7101-3 0.94098zm73.638-0.44098c0.31659-0.825 0.75246-1.5 0.96862-1.5 0.21615 0 0.39301 0.675 0.39301 1.5s-0.43588 1.5-0.96862 1.5c-0.53273 0-0.70959-0.675-0.39301-1.5zm108.36-0.44098c0-0.51754 0.44485-1.2159 0.98855-1.5519 0.56686-0.35034 0.7345 0.0511 0.39301 0.94098-0.66479 1.7324-1.3816 2.0494-1.3816 0.61096zm20.229-1.559c0.21938-2.6507 1.3252-3.3365 2.0198-1.2527 0.25027 0.75079 0.92688 0.29234 1.6997-1.1516 1.0898-2.0363 1.0647-2.3149-0.16578-1.8427-0.82864 0.31798-1.4497-0.0268-1.4497-0.80479 0-0.91955 0.48925-1.0873 1.5082-0.51705 1.7132 0.95877 2.486 4.0688 1.011 4.0688-0.53379 0-0.64945 0.51953-0.25701 1.1545 0.44208 0.7153 0.27432 0.88306-0.44098 0.44098-0.68411-0.4228-1.1545-0.0783-1.1545 0.84549 0 0.85746-0.66996 1.559-1.4888 1.559-0.97656 0-1.4176-0.86015-1.2819-2.5zm-102.51 0.38c0.67834-0.68342 1.4852-0.99067 1.7931-0.68278 0.30789 0.30789-0.24711 0.86705-1.2333 1.2426-1.4252 0.54268-1.5401 0.42782-0.5598-0.5598zm4.7128 0.037c-0.36954-0.59793-0.19401-1.565 0.39006-2.1491 0.74927-0.74927 1.0143-0.42917 0.90007 1.0871-0.1843 2.4466-0.35007 2.583-1.2901 1.062zm-130.45-2.261c0-0.78021 0.9-1.6539 2-1.9416 1.1-0.28766 2-0.13097 2 0.34819 0 0.47915-0.9 1.3529-2 1.9416-1.5631 0.83655-2 0.76049-2-0.34818zm208.17-0.52797c-1.0739-0.68077-1.0252-0.96395 0.25-1.4533 1.002-0.38452 1.5838-0.0683 1.5838 0.86083 0 1.6997-0.0577 1.7184-1.8338 0.59247zm-130.42-0.78613c0.6875-0.27741 1.25-0.94344 1.25-1.4801 0-0.53663-0.375-0.74392-0.83333-0.46066-0.45834 0.28327-0.83334-0.0784-0.83334-0.80377 0-0.81358 0.79812-1.1466 2.0833-0.86927 1.7033 0.36753 1.8097 0.25408 0.58333-0.62189-0.825-0.58929-1.05-1.0852-0.5-1.1021 0.55-0.0168 0.39946-0.4113-0.33453-0.87658-1.0145-0.64309-0.83435-0.97675 0.75138-1.3914 1.2144-0.31756 1.8355-0.14029 1.4866 0.42427-0.32964 0.53337 0.20701 1.8608 1.1926 2.9498 1.5124 1.6712 1.5396 1.8832 0.17466 1.3594-1.0419-0.39983-2.0128 0.11848-2.7291 1.457-0.61153 1.1427-1.6585 2.042-2.3267 1.9986-0.91564-0.0595-0.90698-0.20316 0.0352-0.58333zm-91.607-1.228c-0.83426-0.52861-0.97089-1.0982-0.35479-1.479 0.55109-0.34059 1.26 0.0532 1.5754 0.875 0.66263 1.7268 0.60022 1.7577-1.2206 0.60395zm9.6693 0.2072c0.72187-0.28887 1.5844-0.25335 1.9167 0.0789 0.33229 0.33229-0.25834 0.56864-1.3125 0.52522-1.165-0.048-1.4019-0.28494-0.60417-0.60416zm104.62-1.3591c0-0.99822 0.24107-1.7938 0.53572-1.768 1.9628 0.17218 2.167-0.37337 0.57535-1.5372-1.4387-1.052-1.5563-1.5243-0.53662-2.1545 0.83744-0.51756 1.0634-0.41465 0.62988 0.28684-0.41259 0.66757 0.11186 1.0346 1.3455 0.9417 1.1119-0.0838 2.0216-0.49239 2.0216-0.90809s0.69441-0.48934 1.5431-0.16366c1.4582 0.55958 1.1462 1.8451-0.44789 1.8451-1.1046 0-4.076 3.1859-3.5045 3.7574 0.27253 0.27253-0.10247 0.72498-0.83334 1.0054-0.80432 0.30864-1.3288-0.20648-1.3288-1.305zm21.155 1.1255c0.32084-0.32083 0.99584-0.63958 1.5-0.70833 0.50417-0.0687 1.0292-0.23928 1.1667-0.37895 0.94567-0.9606 5.75-0.36947 5.75 0.70748 0 1.6594-2.671 1.6966-3.3405 0.0465-0.36054-0.88856-0.74608-0.93229-1.3333-0.15125-0.45437 0.60431-1.6136 1.0918-2.5761 1.0833-0.9625-0.008-1.4875-0.27791-1.1667-0.59875zm-140.58-1.0833c0-0.55 0.70156-1 1.559-1 0.85746 0 1.2809 0.45 0.94098 1s-1.0415 1-1.559 1c-0.51754 0-0.94098-0.45-0.94098-1zm132.5 0c0.33992-0.55 1.293-1 2.118-1s1.2219 0.45 0.88197 1c-0.33992 0.55-1.293 1-2.118 1s-1.2219-0.45-0.88197-1zm5 0c0.33992-0.55 1.068-1 1.618-1s0.72189 0.45 0.38197 1-1.068 1-1.618 1-0.72189-0.45-0.38197-1zm-143.05-3.7569c-1.0209-3.67-1.3261-5.2431-1.0174-5.2431 1.0742 0 5.8285 5.0719 5.274 5.6264-0.38884 0.38884-0.70698 0.18198-0.70698-0.45968 0-0.64167-0.7301-1.1667-1.6224-1.1667-1.2833 0-1.3777 0.29495-0.45145 1.411 0.69852 0.84167 0.79097 1.6458 0.22912 1.9931-0.51803 0.32017-1.2853-0.65227-1.7049-2.161zm55.55 0.25691c-0.8601-1.0364-0.89795-1.5-0.12244-1.5 0.61734 0 1.1224-0.9551 1.1224-2.1224 0-1.6622 0.29102-1.8809 1.342-1.0087 0.7381 0.61257 1.7102 0.78017 2.1603 0.37244 0.45008-0.40772 0.49008-0.17148 0.0889 0.52499-0.40119 0.69647-1.1637 0.99794-1.6944 0.66992-0.56471-0.34901-0.77091 0.4738-0.49712 1.9837 0.52269 2.8825-0.5159 3.3499-2.3997 1.0801zm178 1.1224c0-0.20765 0.6853-0.9463 1.5229-1.6414 1.2734-1.0568 1.4197-0.99492 0.89301 0.37756-0.53789 1.4017-2.4159 2.3842-2.4159 1.2639zm-45-3.059c0-0.92481 0.41157-1.4271 0.91459-1.1162 0.50302 0.31089 1.1425-0.00005 1.421-0.69098 0.31556-0.7827 0.53622-0.8312 0.58541-0.12867 0.0434 0.62015-0.59605 1.6878-1.421 2.3724-1.2322 1.0226-1.5 0.94468-1.5-0.43657zm-194.35-1.06c-2.0207-2.0206-2.0246-2.1429-0.09338-2.884 1.014-0.38909 1.3037-0.19394 0.83596 0.56295-0.47816 0.77368-0.16325 0.94638 0.94806 0.51993 1.8173-0.69738 2.1011 0.0611 0.79404 2.1226-0.67798 1.0694-1.1557 1.0076-2.4847-0.32143zm60.434-1.0858c0.048-1.165 0.28494-1.4019 0.60416-0.60417 0.28887 0.72187 0.25335 1.5844-0.0789 1.9167-0.3323 0.33229-0.56864-0.25834-0.52522-1.3125zm51.171 0.49899c-2.4567-0.92942-2.9804-1.9246-1-1.9004 1.588 0.0195 4.345 1.7338 3.721 2.3138-0.25907 0.24079-1.4835 0.0548-2.721-0.41341zm19.75-0.85739c0-0.51796 1.532-0.85546 3.4044-0.75 1.8724 0.10545 3.1959 0.52923 2.941 0.94173-0.67471 1.0918-6.3454 0.92051-6.3454-0.19173zm65.09-2.3673c-0.0496-0.99496-0.46519-1.5772-0.92352-1.294-0.45834 0.28327-0.83334-0.0973-0.83334-0.84564 0-0.74837 0.6-1.1304 1.3333-0.84902 0.8654 0.33209 1.3333-0.27077 1.3333-1.7178 0-1.8683-0.24295-2.0278-1.5-0.98454-1.0364 0.8601-1.5 0.89795-1.5 0.12244 0-0.79371-6.0526-1.1224-20.667-1.1224-11.367 0-20.411-0.25542-20.099-0.5676 0.79007-0.79008 40.35-0.8072 41.627-0.018 0.571 0.3529 1.5266-0.27097 2.1235-1.3864 0.59695-1.1154 1.632-1.9925 2.3002-1.9491 0.91564 0.0595 0.90698 0.20316-0.0352 0.58333-0.6875 0.27741-1.25 0.94344-1.25 1.4801 0 0.53663 0.48322 0.67704 1.0738 0.31202 0.76168-0.47074 0.76637-0.12453 0.0162 1.191-0.58171 1.02-1.4744 3.4296-1.9836 5.3546-0.50929 1.925-0.96656 2.6859-1.0162 1.691zm48.371-0.0393c1.0141-0.74156 1.5236-1.8666 1.1321-2.5-1.0404-1.6833-2.3803-1.4073-2.9044 0.5983-0.35313 1.3513-0.48376 1.2508-0.57333-0.44098-0.0638-1.205 0.36468-2.4881 0.95217-2.8512 0.5875-0.3631 0.83215-1.2752 0.54368-2.027-0.28848-0.75175-0.0942-1.6328 0.43182-1.9579 0.52598-0.32508 0.95633 0.47051 0.95633 1.768s0.4947 2.8537 1.0993 3.4584c1.4916 1.4916 0.15654 5.3007-1.8579 5.3007-1.3895 0-1.3577-0.19454 0.22017-1.3483zm-248.95-0.63c-0.35034-0.56686 0.05106-0.7345 0.94098-0.39301 1.7324 0.66479 2.0494 1.3816 0.61096 1.3816-0.51754 0-1.2159-0.44485-1.5519-0.98855zm114.87-0.20243c-0.40484-0.65504-0.2036-1.3685 0.44721-1.5854 0.6508-0.21694 0.89209-0.9185 0.53618-1.559-0.3559-0.64052 0.14454-0.42027 1.1121 0.48945 0.96755 0.90972 1.4544 2.1472 1.0818 2.75-0.88654 1.4344-2.2574 1.3934-3.1773-0.095zm138.18-0.10215c0.37553-0.98622 0.93469-1.5412 1.2426-1.2333 0.30789 0.30789 0.00064 1.1148-0.68278 1.7931-0.98762 0.98026-1.1025 0.8654-0.5598-0.5598zm-249.86-0.35c-0.33193-0.33193 0.0715-1.2785 0.8965-2.1035 1.9417-1.9417 2.6143-1.269 0.97412 0.97413-0.69691 0.95309-1.5387 1.4613-1.8706 1.1294zm-4.6987-1.622c0-0.14113-0.41859-1.7161-0.93019-3.5-1.2216-4.2596-0.02209-4.1034 2.159 0.2812 1.4697 2.9544 1.5072 3.4754 0.25 3.4754-0.81336 0-1.4788-0.11547-1.4788-0.2566zm3.5-2.7434c0.33992-0.55 0.81648-1 1.059-1 0.24254 0 0.44098 0.45 0.44098 1s-0.47656 1-1.059 1c-0.58246 0-0.7809-0.45-0.44098-1zm68.899 0.25c0.5674-0.98598-4.6088-1.25-24.506-1.25-13.874 0-25.017-0.20891-24.761-0.46425 0.25534-0.25533 11.468-0.52636 24.917-0.60228 17.158-0.0969 24.677-0.48039 25.205-1.2858 0.42543-0.64862 0.61783-0.18048 0.44243 1.0765-0.17069 1.2233-0.6941 2.5733-1.1631 3-0.46902 0.42667-0.52906 0.21327-0.13342-0.47423zm200.27 0.0833c-0.36667-0.36663-0.66667-1.1316-0.66667-1.7 0-0.6266 0.46577-0.56756 1.1833 0.15 0.65084 0.65084 0.95084 1.4158 0.66667 1.7-0.28417 0.28417-0.81667 0.21667-1.1833-0.15zm-255.16-3.3272c-0.99854-1.1034-1.3509-2.0061-0.78298-2.0061 1.2582 0 3.7524 2.8584 3.0805 3.5303-0.26508 0.26508-1.299-0.4208-2.2975-1.5242zm136.49 1.1105c0-0.84258 3.3814-2.1137 5.5-2.0675 1.0905 0.0238-3.5267 2.8577-4.75 2.9155-0.4125 0.0195-0.75-0.36208-0.75-0.84793zm-35.082-0.36663c-0.60807-1.8487-0.87335-6.0389-0.34912-5.5147 0.77066 0.77067 1.5012 5.7647 0.84329 5.7647-0.22657 0-0.44894-0.1125-0.49417-0.25zm81.161-2.3834c-0.0524-1.4145 0.67925-2.3244 2.171-2.7003 1.9206-0.48391 2.0176-0.39119 0.66223 0.63337-0.87327 0.66014-1.8502 1.8753-2.171 2.7003-0.40803 1.0493-0.60701 0.85899-0.66223-0.63337zm-179.39-2.3473-2.814-2.814-0.18597-44.034-0.18596-44.034 2.481-0.47406c2.2087-0.42205 2.291-0.33517 0.75 0.79166-1.5955 1.1666-1.731 4.6771-1.731 44.838 0 41.991 0.0692 43.594 1.9076 44.178 1.6677 0.5293 3.6283 3.3267 2.8659 4.0891-0.15045 0.15045-1.5399-0.99277-3.0876-2.5405zm231.31 2.2212c0-0.4177 0.9-1.3215 2-2.0085 2.1896-1.3674 2.7119-0.34393 0.8 1.5679-1.3545 1.3545-2.8 1.5819-2.8 0.44055zm-97.484-2.223c-1.0103-1.1164-1.5503-2.3164-1.1999-2.6668 0.35034-0.35035 0.9195 0.0992 1.2648 0.99902 0.43936 1.1449 1.4219 1.4863 3.2735 1.1371 1.4552-0.27437 1.9707-0.2037 1.1457 0.15706s-1.7581 1.0491-2.0736 1.5296c-0.3155 0.48053-1.4002-0.0397-2.4105-1.1561zm-82.516-0.0175c0-0.55 0.45-1 1-1s1 0.45 1 1-0.45 1-1 1-1-0.45-1-1zm180-1.5c-0.70675-0.85158-1.06-1.7733-0.785-2.0483s1.0782 0.19675 1.785 1.0483c0.70675 0.85158 1.06 1.7733 0.785 2.0483s-1.0782-0.19675-1.785-1.0483zm20.277-0.25c0.0816-1.2375 0.50267-2.25 0.93562-2.25 0.43296 0 0.82273-0.7875 0.86615-1.75 0.0434-0.9625 0.29693-1.2145 0.56335-0.55995 0.26642 0.65452-0.19014 2.4545-1.0146 4-1.3527 2.5357-1.4845 2.5904-1.3506 0.55995zm-249.82-44.25c0-24.475 0.13016-34.488 0.28926-22.25s0.1591 32.262 0 44.5c-0.15909 12.238-0.28926 2.225-0.28926-22.25zm231.18 40.5c0.31659-0.825 0.75246-1.5 0.96862-1.5 0.21615 0 0.39301 0.675 0.39301 1.5s-0.43588 1.5-0.96862 1.5c-0.53273 0-0.70959-0.675-0.39301-1.5zm-2.6384-2c0-0.825 0.17686-1.5 0.39301-1.5 0.21616 0 0.65203 0.675 0.96862 1.5 0.31658 0.825 0.13972 1.5-0.39301 1.5-0.53274 0-0.96862-0.675-0.96862-1.5zm21.651-3.968c-0.30982-0.80739-0.13297-1.734 0.39301-2.059 0.52598-0.32508 0.98796-1.577 1.0266-2.782 0.0675-2.1036 0.10241-2.1113 0.87641-0.19098 0.45113 1.1192 0.38227 2.5312-0.15637 3.2062-0.52938 0.6634-0.67221 1.6759-0.3174 2.25 0.35481 0.57409 0.21669 1.0438-0.30692 1.0438-0.52362 0-1.2055-0.66059-1.5154-1.468zm3.5072-6.532c0-1.375 0.22698-1.9375 0.50439-1.25s0.27741 1.8125 0 2.5-0.50439 0.125-0.50439-1.25zm-3.9259-3c0-1.925 0.2058-2.7125 0.45733-1.75 0.25152 0.9625 0.25152 2.5375 0 3.5-0.25153 0.9625-0.45733 0.175-0.45733-1.75zm1.9584-1.9167c0.14281-0.87083-0.0388-2.0578-0.40356-2.6378-0.86563-1.3763-1.2575-79.875-0.40565-81.253 0.35828-0.5797 0.19407-1.3367-0.3649-1.6821-0.55897-0.34547-1.002-1.1641-0.98451-1.8191 0.0175-0.65504 0.67808-0.33719 1.468 0.70634 0.78989 1.0435 1.1558 2.3509 0.81323 2.9052-0.34261 0.55436-0.74212 2.6256-0.88779 4.6027-0.2618 3.5532-0.252 3.563 0.84801 0.84476 1.3838-3.4196 2.4768-3.538 2.4768-0.26824 0 1.365-0.3466 2.2676-0.77022 2.0057-1.7101-1.0569-1.9798 4.1464-1.9798 38.201 0 30.823 0.19432 35.451 1.468 34.962 0.80739-0.30982 1.7769-0.0634 2.1545 0.54752 0.44306 0.71689 0.22568 0.82601-0.61296 0.3077-0.97001-0.59949-1.1792-0.17383-0.82504 1.6788 0.31761 1.6615 0.0235 2.482-0.88964 2.482-0.75024 0-1.2472-0.7125-1.1044-1.5833zm-22.111-1.7743c-0.0434-1.205 0.40099-2.4876 0.98758-2.8501 1.4102-0.87158 2.6883 0.44672 1.3044 1.3455-0.5891 0.3826-1.328 1.3706-1.6421 2.1956-0.3886 1.0208-0.59621 0.80011-0.64994-0.69098zm2.116-22.809c0.0204-1.65 0.2445-2.2039 0.49804-1.231 0.25354 0.97297 0.23687 2.323-0.0371 3-0.27393 0.67703-0.48137-0.11903-0.46099-1.769zm-0.116-21.083c0.048-1.1649 0.28494-1.4019 0.60416-0.60416 0.28887 0.72187 0.25335 1.5844-0.0789 1.9167-0.33229 0.33229-0.56864-0.25833-0.52522-1.3125zm0-5c0.048-1.1649 0.28494-1.4019 0.60416-0.60416 0.28887 0.72187 0.25335 1.5844-0.0789 1.9167-0.33229 0.33229-0.56864-0.25833-0.52522-1.3125zm0.116-4.9167c0.0204-1.65 0.2445-2.2039 0.49804-1.231 0.25354 0.97297 0.23687 2.323-0.0371 3-0.27388 0.67703-0.48132-0.11903-0.46094-1.769zm-100.89-14.08c-1.1834-2.5501-0.76661-5.8195 0.63167-4.9553 0.63262 0.39098 1.3728 7.5497 0.77838 7.5286-0.12075-0.004-0.75527-1.1623-1.41-2.5733zm98.69 1.5811c0-0.55 0.7875-1.0355 1.75-1.079 1.0454-0.0472 1.2467-0.28202 0.5-0.58333-1.5181-0.61256-1.674-3.3377-0.19098-3.3377 0.58246 0 0.7809-0.45 0.44098-1s-0.14148-1 0.44098-1c1.4089 0 1.3426 1.3164-0.14098 2.8-0.93333 0.93333-0.93333 1.2 0 1.2 1.7644 0 1.4622 2.6854-0.38179 3.393-2.134 0.81888-2.4182 0.77269-2.4182-0.39301zm25.158-1c0-1.375 0.22698-1.9375 0.50439-1.25s0.27741 1.8125 0 2.5-0.50439 0.125-0.50439-1.25zm-259.77-0.76532c-0.67756-0.44705-0.80295-1.5177-0.32028-2.7347 0.67244-1.6955 0.80392-1.7335 0.8635-0.25 0.0387 0.9625 0.74529 1.75 1.5703 1.75 1.8149 0 1.9965-1.656 0.25-2.2798-0.6875-0.24553-0.90785-0.81268-0.48967-1.2603 0.41819-0.44764 1.3834 0.0382 2.145 1.0797 1.1977 1.638 1.1626 2.0625-0.26033 3.1452-1.9351 1.4724-2.2832 1.5233-3.7585 0.54991zm-16.861-14.18c-0.35642-0.5767-0.0084-1.0486 0.77346-1.0486 0.92278 0 1.3252-0.8771 1.1471-2.5-0.23679-2.1571 0.12492-2.5 2.6375-2.5 1.6016 0 2.9119 0.49814 2.9119 1.107 0 0.60884-0.6033 0.87547-1.3407 0.59252-0.73738-0.28296-1.9459-0.1404-2.6857 0.31679-1.11 0.68602-1.1164 1.1067-0.03687 2.4075 0.71948 0.86692 1.793 1.5762 2.3857 1.5762 0.70205 0 0.65938-0.41818-0.12244-1.2-0.66-0.66-1.2-1.5922-1.2-2.0714 0-0.47929 0.675-0.19643 1.5 0.62857s1.5 1.9821 1.5 2.5714c0 1.3784-2.6815 1.3958-3.53 0.0229-0.44822-0.72523-1.0557-0.71026-1.97 0.0486-0.91431 0.75881-1.5218 0.77378-1.97 0.0486zm4.8152-8.4865c3.1541-3.0173 6.9846-5.4762 7.7723-4.9894 0.48535 0.29996 0.88246 0.0423 0.88246-0.57264 0-0.61492 0.47185-0.82642 1.0486-0.46999 0.71728 0.4433 0.67999 1.0921-0.11803 2.0537-0.64162 0.7731-0.93043 2.3087-0.64181 3.4124s0.11673 1.7545-0.38198 1.4463c-0.49871-0.30822-0.90674-1.1823-0.90674-1.9424 0-2.0399-2.0886-2.9694-3.0965-1.3781-1.1808 1.8643-1.1292 3.1356 0.0965 2.3781 0.55-0.33992 1-0.21648 1 0.27431 0 0.4908-1.5321 0.89235-3.4048 0.89235-2.5151 0-3.103-0.28863-2.25-1.1046zm124.04-1.0282c-1.1602-2.4584-0.26923-2.8419 2.536-1.0917 1.0938 0.68246 1.2608 0.47127 0.72711-0.91956-0.59661-1.5547-0.47255-1.6227 0.89325-0.48916 1.4378 1.1932 1.4166 1.4089-0.22711 2.306-0.99726 0.54431-2.0436 1.3314-2.3252 1.749-0.2816 0.41767-1.0034-0.28191-1.604-1.5546zm6.7364 1.5406c-0.99243-0.61336-1.0336-1.0101-0.16063-1.5496 0.64531-0.39882 1.4475-0.45096 1.7826-0.11585 0.33511 0.3351 1.6552-0.37328 2.9335-1.5742s2.3242-1.8249 2.3242-1.3867c0 0.43821 0.66968 0.24097 1.4882-0.43831 1.1994-0.99538 1.6-0.94356 2.0646 0.26704 0.82177 2.1415 4.2471 0.96815 4.7549-1.6288 0.41451-2.12 0.42179-2.1206 0.55619-0.053 0.0749 1.1523-0.80446 2.9463-1.9541 3.9867-2.0513 1.8564-2.1167 1.8557-3.5038-0.0413-1.033-1.4127-1.7112-1.6352-2.52-0.82644-0.80871 0.80871-0.39265 1.4806 1.5458 2.4963l2.6524 1.3897h-3.6921c-2.0306 0.00001-3.1746-0.17249-2.5421-0.38333 1.5047-0.50155 1.4882-2.2167-0.0213-2.2167-0.64419 0-1.892 0.65223-2.7728 1.4494-0.96706 0.87518-2.1301 1.1228-2.9355 0.625zm123.39-0.0907c0.34546-0.55897 1.047-0.75742 1.559-0.44099 1.387 0.85724 1.1284 1.4573-0.62812 1.4573-0.85746 0-1.2764-0.45734-0.9309-1.0163zm4.7955-0.40036c0.29464-1.6416 3.0327-2.4654 4.4444-1.3373 1.5 1.1986 1.6412 2.754 0.25 2.754-0.55 0-0.8875-0.3375-0.75-0.75s-0.2-0.8175-0.75-0.9-0.9125 0.18-0.80556 0.58333c0.10695 0.40333-0.43055 0.73333-1.1944 0.73333-0.76389 0-1.3014-0.4875-1.1944-1.0833zm-5.6597-1.8193c0.36285-0.58711-0.11095-1.631-1.0529-2.3198-0.94193-0.68877-1.2828-1.5179-0.75756-1.8426 0.52529-0.32464 1.2131 0.0822 1.5285 0.904 0.31537 0.82184 1.5141 1.4943 2.6638 1.4943 1.3255 0 1.8293-0.42247 1.3769-1.1545-0.44208-0.7153-0.27432-0.88306 0.44098-0.44098 1.87 1.1557 1.3475 2.0842-1.8524 3.292-2.0423 0.77089-2.7953 0.79256-2.3472 0.0675zm-129.83-3.4472c0.72187-0.28887 1.5844-0.25334 1.9167 0.0789 0.33229 0.33229-0.25834 0.56864-1.3125 0.52522-1.165-0.048-1.4019-0.28494-0.60417-0.60416zm-102.55-2c0.97297-0.25355 2.323-0.23687 3 0.0371 0.67703 0.27392-0.11903 0.48137-1.769 0.46099-1.65-0.0204-2.2039-0.2445-1.231-0.49804zm9.5435 0.01c0.72187-0.28888 1.5844-0.25335 1.9167 0.079 0.33229 0.33229-0.25834 0.56864-1.3125 0.52522-1.165-0.048-1.4019-0.28494-0.60417-0.60417zm7 0c0.72187-0.28888 1.5844-0.25335 1.9167 0.079 0.33229 0.33229-0.25834 0.56864-1.3125 0.52522-1.165-0.048-1.4019-0.28494-0.60417-0.60417zm6.9492-0.0241c1.2439-0.2392 3.0439-0.23012 4 0.0202 0.95609 0.25029-0.0617 0.44599-2.2617 0.43489s-2.9822-0.21588-1.7383-0.45507zm9.0508 0.0241c0.72187-0.28888 1.5844-0.25335 1.9167 0.079 0.33229 0.33229-0.25834 0.56864-1.3125 0.52522-1.165-0.048-1.4019-0.28494-0.60417-0.60417zm12 0c0.72187-0.28888 1.5844-0.25335 1.9167 0.079 0.33229 0.33229-0.25834 0.56864-1.3125 0.52522-1.165-0.048-1.4019-0.28494-0.60417-0.60417zm4.9375 0.0208c0.6875-0.27742 1.8125-0.27742 2.5 0 0.6875 0.27741 0.125 0.50438-1.25 0.50438s-1.9375-0.22697-1.25-0.50438zm6.519-0.0307c0.97297-0.25355 2.323-0.23687 3 0.037 0.67703 0.27392-0.11903 0.48136-1.769 0.46098-1.65-0.0204-2.2039-0.24449-1.231-0.49804zm17.481 0.0307c0.6875-0.27742 1.8125-0.27742 2.5 0 0.6875 0.27741 0.125 0.50438-1.25 0.50438s-1.9375-0.22697-1.25-0.50438zm68 0c0.6875-0.27742 1.8125-0.27742 2.5 0 0.6875 0.27741 0.125 0.50438-1.25 0.50438s-1.9375-0.22697-1.25-0.50438zm7 0c0.6875-0.27742 1.8125-0.27742 2.5 0 0.6875 0.27741 0.125 0.50438-1.25 0.50438s-1.9375-0.22697-1.25-0.50438zm5.519-0.0307c0.97297-0.25355 2.323-0.23687 3 0.037 0.67703 0.27392-0.11903 0.48136-1.769 0.46098-1.65-0.0204-2.2039-0.24449-1.231-0.49804zm22.543 0.01c0.72187-0.28887 1.5844-0.25335 1.9167 0.0789 0.33229 0.33229-0.25834 0.56864-1.3125 0.52522-1.165-0.048-1.4019-0.28495-0.60417-0.60417zm4 0c0.72187-0.28887 1.5844-0.25335 1.9167 0.0789 0.33229 0.33229-0.25834 0.56864-1.3125 0.52522-1.165-0.048-1.4019-0.28495-0.60417-0.60417zm4.9492-0.0242c1.2439-0.2392 3.0439-0.23012 4 0.0202 0.95609 0.25029-0.0617 0.44599-2.2617 0.43489s-2.9822-0.21588-1.7383-0.45507zm25.988 0.002c1.2375-0.23836 3.2625-0.23836 4.5 0 1.2375 0.23835 0.225 0.43337-2.25 0.43337s-3.4875-0.19502-2.25-0.43337z" fill="#4aa6d8"/>
  <path id="path3403" d="m243.87 346.88c-1.8303-1.4664-1.7984-1.4872 0.55887-0.36454 3.061 1.4578 3.6283 1.9197 2.3578 1.9197-0.53655 0-1.849-0.69982-2.9167-1.5552zm-135.63-1.1279c0.72187-0.28887 1.5844-0.25335 1.9167 0.0789 0.33229 0.33229-0.25834 0.56864-1.3125 0.52522-1.165-0.048-1.4019-0.28494-0.60417-0.60416zm-6.7336-2.0079c-0.11408-1.7209 1.6556-2.5475 2.5065-1.1708 0.43129 0.69784 0.29172 0.9039-0.34549 0.51008-0.588-0.36341-1.297-0.0954-1.5756 0.59549-0.3625 0.89914-0.52891 0.91769-0.58541 0.0652zm169.49-1.6022c0.37553-0.98622 0.93469-1.5412 1.2426-1.2333 0.30789 0.30789 0.00064 1.1148-0.68278 1.7931-0.98762 0.98026-1.1025 0.8654-0.5598-0.5598zm-174.17-1.96c-0.39564-0.6875-0.3511-0.9164 0.09897-0.50868 0.45007 0.40773 1.4325 0.23158 2.1832-0.39144 1.0787-0.89525 1.2328-0.78858 0.73502 0.50868-0.75001 1.9545-2.0227 2.1196-3.0172 0.39144zm7.0602 0.18347c-0.36253-0.58659-0.44468-1.281-0.18255-1.5431 0.26212-0.26213 0.74306 0.21781 1.0688 1.0665 0.67618 1.7621 0.0999 2.0721-0.8862 0.4766zm35.572 0.43897c-0.0445-1.6502 2.6961-3.6444 4.186-3.0459 0.82668 0.33205 0.67835 0.5437-0.41669 0.59454-0.93517 0.0434-2.159 0.86645-2.7196 1.829-0.56061 0.9625-1.033 1.2426-1.0497 0.62244zm-4.262-1.5409c0.5811-0.5811 1.6468-0.85979 2.3683-0.61931 0.74895 0.24965 0.29565 0.70294-1.0566 1.0566-1.6634 0.43497-2.0538 0.30483-1.3117-0.43724zm127.74 0.15214c0.34546-0.55897 1.047-0.75742 1.559-0.44098 1.387 0.85723 1.1284 1.4573-0.62812 1.4573-0.85746 0-1.2764-0.45734-0.9309-1.0163zm4.3024 0.3332c0.72187-0.28887 1.5844-0.25335 1.9167 0.0789 0.33229 0.33229-0.25834 0.56864-1.3125 0.52522-1.165-0.048-1.4019-0.28494-0.60417-0.60416zm9.1875-0.61459c0-1.2149 3.5423-1.7503 4.2296-0.63934 0.1487 0.24037 0.0987 0.34037-0.11111 0.22222-0.20982-0.11815-1.2223 0.23519-2.25 0.78519-1.4015 0.75003-1.8685 0.65803-1.8685-0.36807zm-182-4.7023c-0.90129-0.58246-1.0246-0.97549-0.30902-0.98469 0.65504-0.008 1.4691 0.43469 1.809 0.98469 0.7673 1.2415 0.42112 1.2415-1.5 0zm63.5 0c0.33992-0.55 0.81648-1 1.059-1 0.24254 0 0.44098 0.45 0.44098 1s-0.47656 1-1.059 1c-0.58246 0-0.7809-0.45-0.44098-1zm-61.993-1.9886c-0.35034-0.56686 0.05106-0.7345 0.94098-0.39301 1.7324 0.66479 2.0494 1.3816 0.61096 1.3816-0.51754 0-1.2159-0.44485-1.5519-0.98855zm63.993-0.0114c-0.33992-0.55-0.14148-1 0.44098-1s1.059 0.45 1.059 1-0.19844 1-0.44098 1-0.7191-0.45-1.059-1zm66.01-1.0154c0.61536-0.99568 0.34343-1.1434-1.0955-0.59526-1.5354 0.58494-1.6668 0.48008-0.66404-0.53006 0.90012-0.90679 1.5543-0.95496 2.3371-0.17212 0.78285 0.78285 0.7396 1.3019-0.15451 1.8545-0.85723 0.5298-0.98822 0.35734-0.42308-0.55707zm-134.51-0.37c0-0.21616 0.675-0.65203 1.5-0.96862 0.825-0.31658 1.5-0.13972 1.5 0.39301 0 0.53274-0.675 0.96862-1.5 0.96862s-1.5-0.17686-1.5-0.39301zm135.14-2.4973c-0.83426-0.52861-0.97089-1.0982-0.35479-1.479 0.55109-0.34059 1.26 0.0532 1.5754 0.875 0.66263 1.7268 0.60022 1.7577-1.2206 0.60395zm74.857-0.10969c-1.3333-0.86167-1.3333-0.97278 0-1 1.2147-0.0248 1.2439-0.19293 0.15363-0.88389-0.98684-0.62541-0.51038-1.1447 1.7842-1.9446 1.8117-0.63156 2.8807-0.68693 2.5374-0.13142-0.3263 0.52796-1.2159 0.95992-1.9768 0.95992-0.84529 0-1.2337 0.7781-0.9984 2 0.44321 2.3014 0.47793 2.2782-1.5 1zm-52-1.9686c0-0.53273 0.675-0.70959 1.5-0.39301 0.825 0.31659 1.5 0.75246 1.5 0.96862 0 0.21615-0.675 0.39301-1.5 0.39301s-1.5-0.43588-1.5-0.96862zm-141-0.97236c0-0.51754 0.44485-1.2159 0.98855-1.5519 0.56686-0.35034 0.7345 0.0511 0.39301 0.94098-0.66479 1.7324-1.3816 2.0494-1.3816 0.61096zm64.603-0.89235c-0.28327-0.45834 0.12038-0.83334 0.89699-0.83334s1.1803 0.375 0.89699 0.83334c-0.28326 0.45833-0.68691 0.83333-0.89699 0.83333s-0.61373-0.375-0.89699-0.83333zm3.397-0.71089c0-0.11599 0.6-0.70885 1.3333-1.3175 0.99637-0.82691 1.3333-0.77361 1.3333 0.21089 0 0.7246-0.6 1.3175-1.3333 1.3175-0.73333 0-1.3333-0.0949-1.3333-0.21089zm72-0.45578c0-0.55 0.47656-1 1.059-1 0.58246 0 0.7809 0.45 0.44098 1s-0.81648 1-1.059 1c-0.24254 0-0.44098-0.45-0.44098-1zm-104.5-3c0.33992-0.55 0.81648-1 1.059-1 0.24254 0 0.44098 0.45 0.44098 1s-0.47656 1-1.059 1c-0.58246 0-0.7809-0.45-0.44098-1zm36.955-2.0233c-0.0207-1.5601 0.3183-2.6165 0.75343-2.3476 1.0064 0.62197 1.0342 4.1027 0.0377 4.7185-0.41438 0.2561-0.77039-0.81081-0.79114-2.3709zm63.56 2.3447c0.0286-1.5324 1.8723-3.7672 2.5494-3.0901 0.37039 0.37038-0.0551 1.402-0.94562 2.2925-0.89048 0.89048-1.6122 1.2494-1.6037 0.79762zm17.485-0.32143c-0.33992-0.55-0.14148-1 0.44098-1s1.059 0.45 1.059 1-0.19844 1-0.44098 1-0.7191-0.45-1.059-1zm12.643 0.10969c-0.94581-0.5993-1.0215-1.0669-0.25-1.5437 0.60872-0.37621 1.1068-0.1809 1.1068 0.43402s0.51953 0.79695 1.1545 0.40451c0.7153-0.44208 0.88306-0.27432 0.44098 0.44098-0.84269 1.3635-0.73555 1.352-2.4522 0.2642zm-164.22-0.35969c-0.5282-1.6254-0.30082-6.0139 0.33185-6.4049 0.45268-0.27977 0.71451 1.1031 0.58184 3.0731-0.20355 3.0224-0.57457 4.3753-0.91369 3.3318zm31.066-1.441c-0.0127-1.5043-0.172-1.5613-0.94563-0.33798-0.51167 0.80907-1.1907 1.2107-1.5088 0.8925-0.3182-0.3182 0.0476-1.0982 0.81295-1.7334 1.0673-0.88577 1.6667-0.82322 2.5727 0.26847 0.80628 0.97151 0.8484 1.629 0.13268 2.0714-0.58244 0.35996-1.0554-0.15613-1.0639-1.161zm42.031 1c0.008-0.44496 0.45153-1.484 0.98469-2.309 0.8354-1.2927 0.97149-1.2663 0.98469 0.19098 0.008 0.93004-0.43469 1.9691-0.98469 2.309-0.55 0.33992-0.99311 0.25398-0.98469-0.19098zm85.494-0.32445c0.61536-0.99568 0.34343-1.1434-1.0955-0.59526-1.5354 0.58494-1.6668 0.48008-0.66404-0.53006 0.90012-0.90679 1.5543-0.95496 2.3371-0.17212 0.78285 0.78285 0.7396 1.3019-0.15451 1.8545-0.85723 0.5298-0.98822 0.35734-0.42308-0.55707zm-134.01-0.98457c0.33992-0.55 0.81648-1 1.059-1 0.24254 0 0.44098 0.45 0.44098 1s-0.47656 1-1.059 1c-0.58246 0-0.7809-0.45-0.44098-1zm135.91-1.1382c-0.43129-0.69784-0.29172-0.9039 0.34549-0.51008 0.58801 0.36341 1.297 0.0954 1.5756-0.59549 0.3625-0.89914 0.52891-0.91769 0.58541-0.0652 0.11408 1.7209-1.6556 2.5475-2.5065 1.1708zm-25.271-1.7521c-0.83426-0.52861-0.97089-1.0982-0.35479-1.479 0.55109-0.34059 1.26 0.0532 1.5754 0.875 0.66263 1.7268 0.60022 1.7577-1.2206 0.60395zm71.364-0.0982c-0.35034-0.56686 0.0511-0.7345 0.94098-0.39301 1.7324 0.66479 2.0494 1.3816 0.61096 1.3816-0.51754 0-1.2159-0.44485-1.5519-0.98855zm-126.16-1.56c0-0.8008 0.375-1.456 0.83334-1.456 0.45833 0 0.83333 0.42344 0.83333 0.94098s-0.375 1.1728-0.83333 1.456c-0.45834 0.28327-0.83334-0.14017-0.83334-0.94098zm-30.461-2.206c-1.2143-1.5484-1.189-1.607 0.21957-0.50868 0.8756 0.68273 1.9602 0.90773 2.4103 0.5 0.45008-0.40772 0.49462-0.17882 0.099 0.50868-0.92979 1.6157-1.0931 1.5858-2.7289-0.5zm128.13 0.33333c0-0.77916-0.5625-1.6436-1.25-1.921-0.94216-0.38017-0.95082-0.52383-0.0352-0.58333 0.66817-0.0434 1.6965 0.82105 2.2852 1.921 0.7257 1.356 0.73703 2 0.0352 2-0.56937 0-1.0352-0.6375-1.0352-1.4167zm-177.84-1.5833c0-1.375 0.22697-1.9375 0.50438-1.25s0.27741 1.8125 0 2.5-0.50438 0.125-0.50438-1.25zm45.283 0.44483c-1.864-1.4934-1.8518-1.5118 0.30887-0.46481 1.2375 0.59969 2.25 1.2995 2.25 1.5552 0 0.76522-0.51861 0.54424-2.5589-1.0904zm-45.283-5.4448c0-1.375 0.22697-1.9375 0.50438-1.25s0.27741 1.8125 0 2.5-0.50438 0.125-0.50438-1.25zm215.84 1c0-0.55 0.47656-1 1.059-1 0.58246 0 0.7809 0.45 0.44098 1s-0.81648 1-1.059 1c-0.24254 0-0.44098-0.45-0.44098-1zm3.0078 0.28518c0.004-0.43185 1.1298-1.3056 2.5012-1.9417 1.3714-0.63608 2.2428-0.751 1.9365-0.25538-0.81513 1.3189-4.4469 3.1169-4.4377 2.197zm-23.403-5.4551c0.47003-0.76053 0.19907-0.96886-0.77432-0.59534-0.83291 0.31962-1.4974 0.0252-1.4974-0.66339 0-0.6809 0.6-1.238 1.3333-1.238 0.73333 0 1.3333 0.40156 1.3333 0.89235 0 0.4908 0.5625 0.55442 1.25 0.14138 0.84936-0.51028 0.81011-0.20868-0.12244 0.94098-1.562 1.9256-2.6126 2.2859-1.5225 0.52202zm-196.04-6.1761c0.0347-3.3847-0.34055-6.4288-0.83384-6.7648-0.49329-0.33596-0.18416-0.88433 0.68695-1.2186 1.351-0.51841 1.5838 0.40823 1.5838 6.3018 0 3.8003-0.3375 7.1179-0.75 7.3726-0.4125 0.25463-0.72163-2.3063-0.68696-5.691zm89.516 4.537c-0.0452-0.74876-0.61395-1.007-1.329-0.60329-0.99237 0.56026-0.9958 0.43159-0.0167-0.62432 1.4224-1.5339 2.726-0.71551 1.9498 1.2241-0.43135 1.0779-0.53932 1.0786-0.60416 0.003zm-19.844-2.6984c0.40395-0.43716 0.0582-1.2893-0.76835-1.8937-1.1967-0.87504-0.78613-1.0989 2.0155-1.0989 1.9351 0 3.5184 0.0608 3.5184 0.13499 0 0.0742-1.2375 0.92641-2.75 1.8937-1.5125 0.9673-2.4195 1.401-2.0155 0.96389zm5.7655-0.99259c0-0.825 0.43588-1.5 0.96862-1.5 0.53273 0 0.70959 0.675 0.39301 1.5-0.31659 0.825-0.75246 1.5-0.96862 1.5-0.21615 0-0.39301-0.675-0.39301-1.5zm23.089-4.3333c-0.74725-1.3962-0.62617-1.8333 0.50785-1.8333 0.81896 0 1.2699 0.57093 1.0022 1.2687-0.26777 0.6978 0.0504 1.4873 0.70697 1.7544 0.91061 0.37045 0.90563 0.50439-0.021 0.56461-0.66815 0.0434-1.6563-0.74605-2.196-1.7544zm3.4108-2.1667c0.33992-0.55 0.81648-1 1.059-1 0.24254 0 0.44098 0.45 0.44098 1s-0.47656 1-1.059 1c-0.58246 0-0.7809-0.45-0.44098-1zm110.18-0.75c-0.47466-0.80614 0.96673-5.25 1.7029-5.25 0.39032 0 0.11356 2.6284-0.4212 4-0.10721 0.275-0.14164 0.8375-0.0765 1.25 0.0651 0.4125-0.08 0.75-0.32256 0.75-0.24254 0-0.63971-0.3375-0.88259-0.75zm19.927-0.0833c-0.28327-0.45834 0.12038-0.83334 0.89699-0.83334s1.1803 0.375 0.89699 0.83334c-0.28326 0.4583-0.68691 0.8333-0.89699 0.8333s-0.61373-0.375-0.89699-0.83333zm-157.17-0.93732c0.34132-0.34131 1.3238-0.72378 2.1833-0.84993 0.85947-0.12614 1.2834 0.0499 0.94211 0.39123-0.34132 0.34131-1.3238 0.72378-2.1833 0.84993-0.85947 0.12614-1.2834-0.0499-0.94211-0.39123zm37.563-0.39605c0-0.45833 0.675-0.83333 1.5-0.83333s1.5 0.375 1.5 0.83333c0 0.45834-0.675 0.83334-1.5 0.83334s-1.5-0.375-1.5-0.83334zm123-1.8333c0-0.55 0.47656-1 1.059-1 0.58246 0 0.7809 0.45 0.44098 1s-0.81648 1-1.059 1c-0.24254 0-0.44098-0.45-0.44098-1zm-236.39-1.183c0.28881-0.4673 0.94401-0.59075 1.456-0.27431 1.3084 0.80862 1.1611 1.124-0.52511 1.124-0.80081 0-1.2197-0.38234-0.9309-0.84965zm104.39-0.52791c0-0.57432 0.7875-1.6618 1.75-2.4167 1.6188-1.2695 1.64-1.2224 0.28297 0.62756-0.80687 1.1-1.5944 2.1875-1.75 2.4167-0.15563 0.22916-0.28297-0.0532-0.28297-0.62756zm10.564-0.99598c-0.54268-1.4252-0.42782-1.5401 0.5598-0.5598 0.68342 0.67834 0.99067 1.4852 0.68278 1.7931-0.30789 0.30789-0.86705-0.24711-1.2426-1.2333zm21.091 0.16169c0.30462-0.79383 0.95671-1.1944 1.4491-0.89006 1.2401 0.76643 1.126 1.1327-0.55385 1.7773-0.96661 0.37092-1.2647 0.0755-0.89522-0.88726zm7.3443 1.1676c0-0.20765 0.7875-0.99515 1.75-1.75 1.5861-1.2439 1.6214-1.2085 0.37756 0.37756-1.3064 1.6658-2.1276 2.1955-2.1276 1.3724zm68.461-2.5794c2.1782-2.4069 2.6774-2.5673 1.9302-0.62035-0.30027 0.78248-1.2734 1.7018-2.1626 2.043-1.3281 0.50964-1.2867 0.25575 0.2323-1.4227zm-129.23-2.043c1.3985-2.2393 1.6974-2.3308 3.6247-1.1097 0.94581 0.5993 1.0215 1.0669 0.25 1.5437-0.60872 0.37621-1.1068 0.17531-1.1068-0.44643 0-0.65351-0.66299-0.46746-1.5714 0.44098-2.1605 2.1605-2.694 1.9694-1.1965-0.42857zm-94.232-0.0314c0-0.53274 0.675-0.96862 1.5-0.96862s1.5 0.17686 1.5 0.39301c0 0.21616-0.675 0.65203-1.5 0.96862-0.825 0.31658-1.5 0.13972-1.5-0.39301zm33.406-1.1204c-0.39336-0.63647-0.28668-0.89238 0.23706-0.56869s1.6058 0.16822 2.4045-0.34549c1.264-0.81291 1.2578-1.0665-0.0477-1.9556-1.1508-0.7837-0.87318-0.91797 1.1922-0.5767 1.4807 0.24466 2.9095 0.0181 3.175-0.50347 0.26552-0.52156 0.34777-0.37455 0.18277 0.3267s-0.80625 1.1625-1.425 1.025-1.125 0.18417-1.125 0.71482c0 1.6544-3.778 3.2033-4.5938 1.8834zm82.197 0.31847c-0.28327-0.45834 0.12038-0.83334 0.89699-0.83334s1.1803 0.375 0.89699 0.83334c-0.28326 0.45833-0.68691 0.83333-0.89699 0.83333s-0.61373-0.375-0.89699-0.83333zm50.29-0.53783c0.9146-1.102 0.84305-1.7499-0.32191-2.9148-1.3305-1.3305-1.2334-1.482 0.86952-1.3559 1.3021 0.0781 2.1761 0.45177 1.9423 0.83047-0.23379 0.3787 0.37189 1.2002 1.346 1.8255 1.655 1.0625 1.6564 1.1013 0.021 0.59285-0.9625-0.29927-1.75-0.15639-1.75 0.31751 0 0.47389-0.73865 1.1451-1.6414 1.4915-1.3239 0.50803-1.414 0.35576-0.46549-0.78706zm-46.257-1.1346c-0.31537-0.82184-0.16408-1.4943 0.3362-1.4943 1.3556 0 2.1973 1.7771 1.1487 2.4252-0.50134 0.30984-1.1696-0.10906-1.4849-0.9309zm112.07-0.49426c0.28766-1.1 0.69553-2 0.90638-2s0.38337 0.9 0.38337 2-0.40787 2-0.90638 2-0.67103-0.9-0.38337-2zm-235.71-0.95c0-0.51754 0.44485-1.2159 0.98855-1.5519 0.56686-0.35034 0.73451 0.0511 0.39301 0.94098-0.66479 1.7324-1.3816 2.0494-1.3816 0.61096zm31.756 0.27662c0.69093-0.27855 1.0615-0.8216 0.82342-1.2068-0.23805-0.38517 0.46438-0.70031 1.561-0.70031 1.8696 0 1.8843 0.0801 0.23545 1.2857-0.96708 0.70714-2.2348 1.2502-2.8172 1.2068-0.58238-0.0434-0.49357-0.30685 0.19736-0.58541zm201.46-1.8686c1.4958-1.5735 2.899-2.6598 3.1182-2.414 0.21919 0.24583-1.0047 1.5333-2.7197 2.861l-3.1182 2.414 2.7197-2.861zm-56.805 0.39476c-0.45192-0.73122-0.29014-0.90292 0.4309-0.45729 0.71101 0.43943 1.1545 0.015 1.1545-1.105 0-1.0002 0.9-2.3805 2-3.0675 1.1-0.68696 2-0.84335 2-0.34753 0 0.49581-0.675 1.1605-1.5 1.4771-0.825 0.31658-1.5 1.2382-1.5 2.048 0 1.9708-1.6812 2.9152-2.5854 1.4522zm80.095 0.12189c0.34546-0.55897 1.047-0.75742 1.559-0.44098 1.387 0.85723 1.1284 1.4573-0.62812 1.4573-0.85746 0-1.2764-0.45734-0.9309-1.0163zm-154.18-1.4397c0-0.80081 0.38234-1.2197 0.84965-0.9309 0.4673 0.28881 0.59075 0.94401 0.27431 1.456-0.80862 1.3084-1.124 1.1611-1.124-0.52511zm2.6667 0.0784c0-0.20765 0.6853-0.9463 1.5229-1.6414 1.2734-1.0568 1.4197-0.99492 0.89301 0.37756-0.53789 1.4017-2.4159 2.3842-2.4159 1.2639zm36.225-0.66527c0.24693-1.0707-1.5789-1.8804-4.9212-2.1824-0.87778-0.0793-0.9157-0.63178-0.14251-2.0765 0.75679-1.4141 1.2659-1.6247 1.8078-0.74792 0.41487 0.67128 1.0415 1.1821 1.3925 1.1351 1.9001-0.25429 2.8943-0.008 2.3135 0.57258-0.36189 0.3619-0.19004 1.2218 0.38189 1.911 0.72218 0.87018 0.71196 1.4556-0.0335 1.9163-0.59033 0.36485-0.94968 0.12719-0.79856-0.52813zm-136.83-1.46c0.1219-0.83057 0.75708-1.9556 1.4115-2.5 0.83522-0.69484 0.9151-0.6555 0.26802 0.13198-0.50702 0.61702-0.68388 1.742-0.39301 2.5 0.29086 0.75797 0.07052 1.3781-0.48966 1.3781s-0.91877-0.67956-0.79687-1.5101zm43.935-0.14067c0-0.9845 0.33697-1.0378 1.3333-0.21089 0.73333 0.60861 1.3333 1.2015 1.3333 1.3175 0 0.11599-0.6 0.21089-1.3333 0.21089-0.73334 0-1.3333-0.59286-1.3333-1.3175zm206.67 0.68217c0-0.53273 0.675-0.70959 1.5-0.39301 0.825 0.31659 1.5 0.75246 1.5 0.96862 0 0.21615-0.675 0.39301-1.5 0.39301s-1.5-0.43588-1.5-0.96862zm-150.72-1.8163c0.1816-1.1899 0.62766-2.461 0.99125-2.8246 0.3636-0.36359 0.4643 0.3607 0.2238 1.6095-0.56992 2.9594-1.6454 4.0348-1.215 1.215zm-53.742-0.14595c-0.31644-0.512-0.19299-1.1672 0.27431-1.456 0.46731-0.28881 0.84965 0.13009 0.84965 0.9309 0 1.6862-0.31534 1.8335-1.124 0.52511zm77.457 0.54753c0-0.21085 0.90062-0.61888 2.0014-0.90674 1.1008-0.28785 1.7492-0.11534 1.441 0.38337-0.53825 0.87091-3.4424 1.3124-3.4424 0.52337zm48-1.6756c0-0.58246 0.45-0.7809 1-0.44098s1 0.81648 1 1.059c0 0.24254-0.45 0.44098-1 0.44098s-1-0.47656-1-1.059zm10.5-0.94098c0.99549-1.1 2.035-2 2.31-2s-0.31449 0.9-1.31 2c-0.99549 1.1-2.035 2-2.31 2s0.31449-0.9 1.31-2zm69.959 0.93347c-0.36253-0.58659-0.38909-1.3366-0.059-1.6667 0.33008-0.33007 0.60014-0.0486 0.60014 0.62555 0 0.67413 0.51953 0.9046 1.1545 0.51216 0.7153-0.44208 0.88306-0.27432 0.44098 0.44098-0.88413 1.4306-1.2964 1.4475-2.1366 0.088zm5.5564-0.12445c-0.008-0.93004 0.43469-1.9691 0.98469-2.309 1.2656-0.78218 1.2656 0.54163 0 2.5-0.8354 1.2927-0.97149 1.2663-0.98469-0.19098zm-214.02-0.80902c0-0.55 0.47656-1 1.059-1 0.58246 0 0.7809 0.45 0.44098 1s-0.81648 1-1.059 1c-0.24254 0-0.44098-0.45-0.44098-1zm92.459-1.0665c-1.0261-1.6602-0.10511-1.8904 1.3306-0.33261 0.70918 0.76953 0.84824 1.3991 0.30901 1.3991-0.53922 0-1.277-0.47994-1.6396-1.0665zm-83.906-0.93347c0.49331-0.825 0.76738-2.2875 0.60903-3.25-0.34501-2.0972 0.19886-2.2248 1.7118-0.40179 0.85698 1.0326 0.6113 1.7934-1.0494 3.25-1.3274 1.1642-1.8205 1.32-1.2714 0.40179zm-40.98-0.93867c-1.7218-0.63585-1.7484-0.78009-0.25-1.3551 0.99885-0.3833 1.6897-0.15075 1.7085 0.57513 0.0174 0.67024 1.1424-0.044 2.5-1.5871 1.3576-1.5432 2.4684-2.3041 2.4684-1.691 0 0.61313 0.51953 0.7937 1.1545 0.40126 0.72104-0.44563 0.88282-0.27393 0.4309 0.45729-0.39798 0.64395-1.219 0.86466-1.8244 0.49047-0.70405-0.43513-0.8751-0.0921-0.47457 0.95166 0.34444 0.89761 0.12639 1.941-0.48457 2.3186-0.67266 0.41573-0.82938 0.23113-0.39731-0.46797 0.83868-1.357-0.5791-1.5515-1.9545-0.26805-0.5225 0.48755-1.8171 0.56624-2.8769 0.17487zm7.934-0.0499c-0.35034-0.56686 0.0511-0.7345 0.94098-0.39301 1.7324 0.66479 2.0494 1.3816 0.61096 1.3816-0.51754 0-1.2159-0.44485-1.5519-0.98855zm4.9088-0.36993c-0.31346-0.81688-0.0695-2.4204 0.54225-3.5634 1.2884-2.4074-0.11409-2.8001-1.9782-0.55397-0.69572 0.83829-1.4711 1.318-1.723 1.0661-0.71039-0.71038 3.5663-4.9471 5.2421-5.193 0.82116-0.12052 1.7532 0.20194 2.0713 0.71658 0.31806 0.51464 0.20735 0.81206-0.24603 0.66094-0.45338-0.15113-0.86079-0.0498-0.90535 0.22522-0.0446 0.275-0.65352 1.5697-1.3532 2.8772-0.99008 1.85-1.0039 2.543-0.0622 3.125 0.87132 0.53851 0.89824 0.94051 0.0962 1.4362-0.6126 0.37861-1.3703 0.02-1.6838-0.79686zm114.19 0.52515c-0.28327-0.45834 0.14017-0.83334 0.94098-0.83334 0.8008 0 1.456 0.375 1.456 0.83334 0 0.45833-0.42344 0.83333-0.94098 0.83333s-1.1728-0.375-1.456-0.83333zm13.064 0.16666c-0.36667-0.36664-0.66667-1.1166-0.66667-1.6666s0.2961-0.70391 0.65799-0.34201c0.3619 0.36189 1.3744 0.0994 2.25-0.58334 1.4346-1.1186 1.4469-1.0435 0.12498 0.75868-0.80687 1.1-1.5194 2.1125-1.5833 2.25-0.064 0.1375-0.4163-0.05-0.78296-0.41667zm-25.667-1.3333c0-0.55 0.45-1 1-1s1 0.45 1 1-0.45 1-1 1-1-0.45-1-1zm114.56-0.29313c0.37553-0.98622 0.93469-1.5412 1.2426-1.2333 0.30789 0.30789 0.00064 1.1148-0.68278 1.7931-0.98762 0.98026-1.1025 0.8654-0.5598-0.5598zm-6.5643-0.0844c0-0.20765 0.7875-0.99515 1.75-1.75 1.5861-1.2439 1.6214-1.2085 0.37756 0.37756-1.3064 1.6658-2.1276 2.1955-2.1276 1.3724zm25.345-1.1656c-0.32569-0.84872-0.31156-1.8237 0.0314-2.1667 0.34295-0.34295 0.62354 0.15301 0.62354 1.1021 0 1.0498 0.45219 1.4462 1.1545 1.0122 0.7153-0.44208 0.88306-0.27432 0.44098 0.44098-0.96046 1.5541-1.5436 1.4534-2.2504-0.38862zm-155.35-0.86581c0-0.19039 0.675-0.90637 1.5-1.5911 0.86459-0.71755 1.5-0.81474 1.5-0.22943 0 0.5585-0.675 1.2745-1.5 1.5911-0.825 0.31658-1.5 0.41982-1.5 0.22943zm46-0.53204c0-0.51754 0.44485-1.2159 0.98855-1.5519 0.56686-0.35034 0.7345 0.0511 0.39301 0.94098-0.66479 1.7324-1.3816 2.0494-1.3816 0.61096zm37.675 0.28299c-0.36189-0.3619-0.19004-1.2218 0.38189-1.911 0.72047-0.86811 0.7178-1.452-0.009-1.901-0.57638-0.35642-1.0482-1.1575-1.0482-1.7802 0-0.62266 0.68726-0.2586 1.5272 0.80902 1.5067 1.915 1.5235 1.9143 1.25-0.0589-0.15249-1.1-0.72725-2.3306-1.2772-2.7347-0.56023-0.41159-0.20444-0.74142 0.80902-0.75 0.99496-0.008 1.5264-0.47265 1.1809-1.0316-0.34546-0.55897-1.0159-0.77663-1.4899-0.48369-0.47399 0.29294-1.0888 0.16528-1.3663-0.28369-0.27748-0.44897 0.52098-0.81631 1.7744-0.81631 1.96 0 2.2669 0.49682 2.1933 3.55-0.0521 2.1595-0.78071 4.0664-1.8602 4.8684-0.97602 0.72513-1.5155 1.7376-1.1988 2.25 0.66234 1.0717 0.10656 1.2471-0.86695 0.27359zm54.404-1.9253c0.048-1.165 0.28494-1.4019 0.60416-0.60417 0.28887 0.72187 0.25335 1.5844-0.0789 1.9167-0.33229 0.33229-0.56864-0.25834-0.52522-1.3125zm-189.08 0.19032c0-0.21616 0.69837-0.661 1.5519-0.98855 0.88992-0.34149 1.2913-0.17385 0.94098 0.39301-0.58726 0.95021-2.4929 1.4054-2.4929 0.59554zm4.603-0.44032c-0.28327-0.45834 0.12038-0.83334 0.89699-0.83334s1.1803 0.375 0.89699 0.83334c-0.28326 0.45833-0.68691 0.83333-0.89699 0.83333s-0.61373-0.375-0.89699-0.83333zm99.13-2.2908c0.67834-0.68342 1.4852-0.99067 1.7931-0.68278 0.30789 0.30789-0.24711 0.86705-1.2333 1.2426-1.4252 0.54268-1.5401 0.42782-0.5598-0.5598zm102.83-1.169c0.37553-0.98622 0.93469-1.5412 1.2426-1.2333 0.30789 0.30789 0.00064 1.1148-0.68278 1.7931-0.98762 0.98026-1.1025 0.8654-0.5598-0.5598zm-228.56-1.5551c0-0.50521 0.9-1.1539 2-1.4416 1.1-0.28766 2-0.35597 2-0.15181 0 0.20415-0.9 0.85286-2 1.4416-1.1049 0.59134-2 0.65928-2 0.15182zm207-0.54483c0-0.21616 0.69837-0.661 1.5519-0.98855 0.88992-0.34149 1.2913-0.17385 0.94098 0.39301-0.58726 0.95021-2.4929 1.4054-2.4929 0.59554zm-220.86-1.4973c-0.83426-0.52861-0.97089-1.0982-0.35479-1.479 0.55109-0.34059 1.26 0.0532 1.5754 0.875 0.66263 1.7268 0.60022 1.7577-1.2206 0.60395zm9.6693 0.2072c0.72187-0.28887 1.5844-0.25335 1.9167 0.0789 0.33229 0.33229-0.25834 0.56864-1.3125 0.52522-1.165-0.048-1.4019-0.28494-0.60417-0.60416zm105.19-1.3169c0.5887-1.1 1.2954-2 1.5704-2s0.0183 0.9-0.57037 2c-0.5887 1.1-1.2954 2-1.5704 2s-0.0183-0.9 0.57037-2zm26 1.6224c0-0.20765 0.6853-0.9463 1.5229-1.6414 1.2734-1.0568 1.4197-0.99492 0.89301 0.37756-0.53789 1.4017-2.4159 2.3842-2.4159 1.2639zm-146-1.6815c0-0.58246 0.45-0.7809 1-0.44098s1 0.81648 1 1.059c0 0.24254-0.45 0.44098-1 0.44098s-1-0.47656-1-1.059zm96.333-0.39699c0-0.80081 0.38234-1.2197 0.84965-0.9309 0.4673 0.28881 0.59075 0.94401 0.27431 1.456-0.80862 1.3084-1.124 1.1611-1.124-0.52511zm36.667 0.39699c0-0.58246 0.45-0.7809 1-0.44098s1 0.81648 1 1.059c0 0.24254-0.45 0.44098-1 0.44098s-1-0.47656-1-1.059zm-85.436-1.6478c-0.54268-1.4252-0.42782-1.5401 0.5598-0.5598 0.68342 0.67834 0.99067 1.4852 0.68278 1.7931-0.30789 0.30789-0.86705-0.24711-1.2426-1.2333zm-52.833-1.213c-0.43497-1.6634-0.30483-2.0538 0.43724-1.3117 0.5811 0.5811 0.85979 1.6468 0.61931 2.3683-0.24964 0.74895-0.70294 0.29565-1.0566-1.0566zm56.277-0.0538c-1.1686-0.73879-1.2245-1.1705-0.25833-1.993 0.67831-0.57749 1.016-0.75013 0.75031-0.38365-0.26564 0.36648 0.0182 1.2702 0.63078 2.0083 1.3021 1.569 0.95593 1.6825-1.1228 0.36834zm47.325-0.48234c0-0.80081 0.375-1.2242 0.83334-0.94098 0.45833 0.28326 0.83333 0.93847 0.83333 1.456 0 0.51754-0.375 0.94098-0.83333 0.94098-0.45834 0-0.83334-0.65521-0.83334-1.456zm21.992-0.20264c0.8518-0.8518 5.6747-1.362 5.6747-0.60031 0 0.42908-1.3734 0.83628-3.052 0.90488s-2.8588-0.0685-2.6227-0.30457zm62.675-2.4004c0-0.58246 0.45-0.7809 1-0.44098s1 0.81648 1 1.059c0 0.24254-0.45 0.44098-1 0.44098s-1-0.47656-1-1.059zm-189.64-1.34c0-0.77256 0.6-1.1744 1.3333-0.89301 0.73333 0.28141 1.3333 0.9135 1.3333 1.4047 0 0.49115-0.6 0.89301-1.3333 0.89301-0.73334 0-1.3333-0.6321-1.3333-1.4047zm-4.5833-0.25762c0.6875-0.27741 1.8125-0.27741 2.5 0s0.125 0.50439-1.25 0.50439-1.9375-0.22698-1.25-0.50439zm112.25-3.3967c0-0.58246-0.45-0.7809-1-0.44098s-1 0.14148-1-0.44098 0.47656-1.059 1.059-1.059c0.58246 0 0.73531-0.5625 0.33967-1.25s-0.3356-0.9009 0.13342-0.47423c0.95002 0.86424 1.7357 4.7242 0.96162 4.7242-0.27155 0-0.49373-0.47656-0.49373-1.059zm133.64-1.441c-0.31658-0.825-0.13972-1.5 0.39301-1.5 0.53274 0 0.96862 0.675 0.96862 1.5s-0.17686 1.5-0.39301 1.5c-0.21616 0-0.65203-0.675-0.96862-1.5zm-246.08-0.79c0.37553-0.98622 0.93469-1.5412 1.2426-1.2333 0.30789 0.30789 0.000634 1.1148-0.68278 1.7931-0.98762 0.98026-1.1025 0.8654-0.5598-0.5598zm-5.862-1.0402c-0.28141-0.73334 0.10065-1.3333 0.84902-1.3333s1.1527 0.33657 0.89843 0.74793c-0.25423 0.41135 0.10306 0.97583 0.79399 1.2544 0.80072 0.32282 0.66047 0.53509-0.38678 0.58541-0.90366 0.0434-1.8733-0.52105-2.1547-1.2544zm249.26-1.1229c0.66469-0.8009 0.93745-1.8948 0.60613-2.4309-0.33132-0.53609-0.20707-1.219 0.27612-1.5177 0.73947-0.45702 0.84759 1.3293 0.28172 4.6548-0.0702 0.4125-0.63272 0.75-1.2501 0.75-0.79052 0-0.76506-0.43063 0.0861-1.4562zm-46.313-1.0118c-0.30982-0.80739-0.22638-1.6762 0.18543-1.9307 0.41181-0.25451 0.81419 0.40608 0.89418 1.468 0.17299 2.2966-0.29838 2.4986-1.0796 0.46275zm-84.108-2.4629c-0.31644-0.512-0.19299-1.1672 0.27431-1.456 0.46731-0.28881 0.84965 0.13009 0.84965 0.9309 0 1.6862-0.31534 1.8335-1.124 0.52511zm36.207 0.26862c0.6875-0.27741 1.8125-0.27741 2.5 0s0.125 0.50439-1.25 0.50439-1.9375-0.22698-1.25-0.50439zm98.908-3.7868c-0.37092-0.96661-0.0755-1.2647 0.88726-0.89522 0.79383 0.30462 1.1944 0.95671 0.89006 1.4491-0.76643 1.2401-1.1327 1.126-1.7773-0.55385zm-232.16-0.55093c-0.33992-0.55-0.14148-1 0.44098-1s1.059 0.45 1.059 1-0.19844 1-0.44098 1-0.7191-0.45-1.059-1zm-3.1549-2.5431c-0.32569-0.84872-0.36872-1.7666-0.0956-2.0397 0.27309-0.2731 0.73656 0.42131 1.0299 1.5431 0.62315 2.3829-0.0692 2.7509-0.9343 0.49653zm134.65 0.48411c0-0.58246 0.45-0.7809 1-0.44098s1 0.81648 1 1.059c0 0.24254-0.45 0.44098-1 0.44098s-1-0.47656-1-1.059zm119.33-0.48497c0-0.8008 0.375-1.456 0.83334-1.456 0.45833 0 0.83333 0.42344 0.83333 0.94098s-0.375 1.1728-0.83333 1.456c-0.45834 0.28327-0.83334-0.14017-0.83334-0.94098zm-254.47-9.706c-0.20162-1.2375-0.102-4.95 0.22138-8.25 0.56482-5.7639 0.59006-5.6754 0.64162 2.25 0.0543 8.3508-0.19621 10.093-0.863 6zm255.49-1.25c0.825-0.825 1.8122-1.5 2.1939-1.5 0.38163 0 0.13367 0.675-0.55102 1.5s-1.6719 1.5-2.1939 1.5c-0.52194 0-0.27399-0.675 0.55101-1.5zm-1.1622-8c0.0204-1.65 0.2445-2.2039 0.49804-1.231 0.25354 0.97297 0.23687 2.323-0.0371 3-0.27393 0.67703-0.48137-0.11903-0.46099-1.769zm1.884-1.0833c0.048-1.165 0.28494-1.4019 0.60416-0.60417 0.28887 0.72187 0.25335 1.5844-0.0789 1.9167-0.33229 0.33229-0.56864-0.25834-0.52522-1.3125zm-0.68491-3.8322c-0.29875-0.77854-0.38136-2.691-0.18357-4.25 0.29347-2.3131 0.44999-2.0528 0.851 1.4155 0.50555 4.3725 0.28393 5.3137-0.66743 2.8345zm-21.394 0.0225c0-0.21616 0.675-0.65203 1.5-0.96862 0.825-0.31658 1.5-0.13972 1.5 0.39301 0 0.53274-0.675 0.96862-1.5 0.96862s-1.5-0.17686-1.5-0.39301zm-234.42-1.4728c-0.43077-0.697-0.51316-1.5373-0.18309-1.8674 0.89496-0.89496 1.8708 0.4213 1.3874 1.8714-0.33872 1.0162-0.57427 1.0154-1.2043-0.004zm0.0677-12.602c-0.30982-0.80739-0.13297-1.734 0.39301-2.059 0.52598-0.32508 0.95633 0.33551 0.95633 1.468 0 2.4146-0.55611 2.6582-1.3493 0.59105zm255.54-4.032c0.0204-1.65 0.2445-2.2039 0.49804-1.231 0.25354 0.97297 0.23687 2.323-0.0371 3-0.27393 0.67703-0.48137-0.11903-0.46099-1.769zm-255.69-0.49206c-0.33723-0.54564-0.15247-1.7831 0.41057-2.75 0.87814-1.508 1.028-1.3669 1.0541 0.99208 0.0318 2.8757-0.43075 3.4309-1.4647 1.7579zm236.69-2.5079c0.0204-1.65 0.2445-2.2039 0.49804-1.231 0.25354 0.97297 0.23687 2.323-0.0371 3-0.27393 0.67703-0.48137-0.11903-0.46099-1.769zm19.141-7.5c0-4.125 0.17651-5.8125 0.39226-3.75 0.21574 2.0625 0.21574 5.4375 0 7.5-0.21575 2.0625-0.39226 0.375-0.39226-3.75zm-255.5-1.5743c-0.20009-2.5159-0.0273-5.1034 0.38399-5.75 0.41129-0.64665 0.75469 1.4118 0.76312 4.5743 0.0183 6.8863-0.63932 7.5604-1.1471 1.1757zm255.24-8.0091c0.048-1.1649 0.28494-1.4019 0.60416-0.60416 0.28887 0.72187 0.25335 1.5844-0.0789 1.9167-0.33229 0.33229-0.56864-0.25833-0.52522-1.3125zm-255.36-0.16666c-0.61036-1.1423-0.0912-9.2094 0.6397-9.9403 0.35366-0.35365 0.64301 1.907 0.64301 5.0237 0 5.3311-0.34817 6.6657-1.2827 4.9167zm236.36-3.8333c0.048-1.1649 0.28494-1.4019 0.60416-0.60416 0.28887 0.72187 0.25335 1.5844-0.0789 1.9167-0.33229 0.33229-0.56864-0.25833-0.52522-1.3125zm19 0c0.048-1.1649 0.28494-1.4019 0.60416-0.60416 0.28887 0.72187 0.25335 1.5844-0.0789 1.9167-0.33229 0.33229-0.56864-0.25833-0.52522-1.3125zm0.20706-6.9167c0.008-2.75 0.20172-3.7563 0.43157-2.2362 0.22986 1.5201 0.22371 3.7701-0.0136 5-0.23741 1.2299-0.42547-0.0137-0.41797-2.7638zm-19.207 1.9167c0.048-1.1649 0.28494-1.4019 0.60416-0.60416 0.28887 0.72187 0.25335 1.5844-0.0789 1.9167-0.33229 0.33229-0.56864-0.25833-0.52522-1.3125zm0.116-4.9167c0.0204-1.65 0.2445-2.2039 0.49804-1.231 0.25354 0.97297 0.23687 2.323-0.0371 3-0.27388 0.67703-0.48132-0.11903-0.46094-1.769zm-236.69-5.5c-0.33992-0.55-0.14148-1 0.44098-1s1.059 0.45 1.059 1-0.19844 1-0.44098 1-0.7191-0.45-1.059-1zm255.58-0.58334c0.048-1.1649 0.28494-1.4019 0.60416-0.60416 0.28887 0.72187 0.25335 1.5844-0.0789 1.9167-0.33229 0.33229-0.56864-0.25833-0.52522-1.3125zm-255.32-3.9167c-0.26285-1.375-0.0903-2.5 0.38342-2.5 0.47373 0 0.86133 1.125 0.86133 2.5s-0.17254 2.5-0.38342 2.5c-0.21089 0-0.59848-1.125-0.86133-2.5zm259.4-3.5c0-1.375 0.22698-1.9375 0.50439-1.25s0.27741 1.8125 0 2.5-0.50439 0.125-0.50439-1.25zm-259.78-1.467c-0.30962-0.80686-0.36997-2.0444-0.1341-2.75 0.23587-0.70565 0.66592-0.0455 0.95566 1.467 0.56574 2.9532 0.099 3.682-0.82156 1.283zm236.61-0.0571c-0.69572-0.8383-1.0713-1.7178-0.83459-1.9545 0.2367-0.23669 0.97964 0.44918 1.651 1.5242 1.4518 2.3247 0.96763 2.58-0.81639 0.43036zm19.18-1.144c-0.18926-3.7466 0.65565-6.3318 2.0694-6.3318 0.67384 0 0.66533 0.42188-0.0253 1.254-0.57241 0.68971-1.2305 2.8272-1.4624 4.75l-0.42165 3.496-0.16003-3.1682zm-252.81-1.0243c-0.0816-1.3406-0.0667-2.2956 0.033-2.1224 0.0997 0.17321 0.74037 1.0499 1.4238 1.9481 0.99327 1.3056 0.98666 1.7314-0.033 2.1224-0.79943 0.30661-1.3309-0.42053-1.4238-1.9481zm132.11 0.62511c-0.5298-0.85724-0.35734-0.98822 0.55707-0.42309 0.99568 0.61537 1.1434 0.34343 0.59526-1.0955-0.58494-1.5354-0.48008-1.6668 0.53006-0.66404 0.90679 0.90012 0.95496 1.5543 0.17212 2.3371-0.78285 0.78284-1.3019 0.7396-1.8545-0.15451zm119.54-8.8736c0-0.51754 0.44485-1.2159 0.98855-1.5519 0.56686-0.35034 0.7345 0.0511 0.39301 0.94098-0.66479 1.7324-1.3816 2.0494-1.3816 0.61095zm-266.26-2.75c0.69093-0.27855 0.9589-0.98756 0.59549-1.5756-0.39382-0.63722-0.18776-0.77678 0.51008-0.34549 1.3767 0.85085 0.55006 2.6205-1.1708 2.5065-0.85244-0.0565-0.83389-0.22291 0.06525-0.58541zm-3.1238-5.1214c-0.26708-0.43214 0.34832-0.78571 1.3676-0.78571 1.0192 0 1.6346 0.35357 1.3676 0.78571-0.26708 0.43215-0.88248 0.78572-1.3676 0.78572-0.48508 0-1.1005-0.35357-1.3676-0.78572zm127.69-4.4095c0.0786-2.0782 0.39647-2.4508 1.3884-1.6276 1.4781 1.2267 1.7412 2.2218 0.36211 1.3695-0.50837-0.31419-1.1332 0.22175-1.3884 1.191-0.25525 0.96924-0.4182 0.54941-0.36211-0.93295zm6.2176 1.2643c-0.31644-0.51199-0.19299-1.1672 0.27431-1.456 0.46731-0.28881 0.84965 0.1301 0.84965 0.93091 0 1.6862-0.31534 1.8335-1.124 0.52511zm6.1118-0.31909c0.25494-0.4125 1.0854-0.75 1.8455-0.75 0.76008 0 1.5906 0.3375 1.8455 0.75 0.25494 0.4125-0.57553 0.75-1.8455 0.75s-2.1004-0.3375-1.8455-0.75zm122.35-0.25c-0.71755-0.8646-0.81474-1.5-0.22943-1.5 0.5585 0 1.2745 0.675 1.5911 1.5 0.31658 0.825 0.41982 1.5 0.22943 1.5s-0.90637-0.675-1.5911-1.5zm-258.19-1.18c0.72188-0.28887 1.5844-0.25334 1.9167 0.0789 0.33229 0.33229-0.25834 0.56864-1.3125 0.52522-1.1649-0.048-1.4019-0.28494-0.60417-0.60416zm132.19 0.30556c0-0.20765 0.7875-0.99515 1.75-1.75 1.5861-1.2439 1.6214-1.2085 0.37756 0.37756-1.3064 1.6657-2.1276 2.1955-2.1276 1.3724zm7.3396-1.1799c-0.3417-0.89047-1.2454-1.3089-2.1101-0.97711-1.224 0.46968-1.282 0.3027-0.30404-0.87562 1.0452-1.2594 1.4694-1.1949 3.1414 0.47711 2.1755 2.1755 2.4084 2.9331 0.90171 2.9331-0.56727 0-1.3003-0.70087-1.629-1.5575zm-134.27-0.85351c-0.80051-0.96455-0.83925-1.616-0.12245-2.059 0.57671-0.35643 1.083-0.50899 1.1251-0.33903 0.44889 1.813 0.6886 3.809 0.45745 3.809-0.15899 0-0.81602-0.63494-1.4601-1.411zm246.51-0.23047c-0.52667-1.3725-0.38034-1.4343 0.89301-0.37755 1.7352 1.4401 1.9158 2.019 0.62988 2.019-0.49116 0-1.1765-0.73865-1.5229-1.6414zm-232.31-4.06c0.97297-0.25355 2.323-0.23687 3 0.0371 0.67703 0.27392-0.11903 0.48137-1.769 0.46099-1.65-0.0204-2.2039-0.2445-1.231-0.49804zm9.5435 0.01c0.72187-0.28888 1.5844-0.25335 1.9167 0.079 0.33229 0.33229-0.25834 0.56864-1.3125 0.52522-1.165-0.048-1.4019-0.28494-0.60417-0.60417zm7 0c0.72187-0.28888 1.5844-0.25335 1.9167 0.079 0.33229 0.33229-0.25834 0.56864-1.3125 0.52522-1.165-0.048-1.4019-0.28494-0.60417-0.60417zm6.9492-0.0241c1.2439-0.2392 3.0439-0.23012 4 0.0202 0.95609 0.25029-0.0617 0.44599-2.2617 0.43489s-2.9822-0.21588-1.7383-0.45507zm9.0508 0.0241c0.72187-0.28888 1.5844-0.25335 1.9167 0.079 0.33229 0.33229-0.25834 0.56864-1.3125 0.52522-1.165-0.048-1.4019-0.28494-0.60417-0.60417zm12 0c0.72187-0.28888 1.5844-0.25335 1.9167 0.079 0.33229 0.33229-0.25834 0.56864-1.3125 0.52522-1.165-0.048-1.4019-0.28494-0.60417-0.60417zm4.9375 0.0208c0.6875-0.27742 1.8125-0.27742 2.5 0 0.6875 0.27741 0.125 0.50438-1.25 0.50438s-1.9375-0.22697-1.25-0.50438zm6.519-0.0307c0.97297-0.25355 2.323-0.23687 3 0.037 0.67703 0.27392-0.11903 0.48136-1.769 0.46098-1.65-0.0204-2.2039-0.24449-1.231-0.49804zm17.481 0.0307c0.6875-0.27742 1.8125-0.27742 2.5 0 0.6875 0.27741 0.125 0.50438-1.25 0.50438s-1.9375-0.22697-1.25-0.50438zm68 0c0.6875-0.27742 1.8125-0.27742 2.5 0 0.6875 0.27741 0.125 0.50438-1.25 0.50438s-1.9375-0.22697-1.25-0.50438zm7 0c0.6875-0.27742 1.8125-0.27742 2.5 0 0.6875 0.27741 0.125 0.50438-1.25 0.50438s-1.9375-0.22697-1.25-0.50438zm5.519-0.0307c0.97297-0.25355 2.323-0.23687 3 0.037 0.67703 0.27392-0.11903 0.48136-1.769 0.46098-1.65-0.0204-2.2039-0.24449-1.231-0.49804zm22.543 0.01c0.72187-0.28887 1.5844-0.25335 1.9167 0.0789 0.33229 0.33229-0.25834 0.56864-1.3125 0.52522-1.165-0.048-1.4019-0.28495-0.60417-0.60417zm4 0c0.72187-0.28887 1.5844-0.25335 1.9167 0.0789 0.33229 0.33229-0.25834 0.56864-1.3125 0.52522-1.165-0.048-1.4019-0.28495-0.60417-0.60417zm4.9492-0.0242c1.2439-0.2392 3.0439-0.23012 4 0.0202 0.95609 0.25029-0.0617 0.44599-2.2617 0.43489s-2.9822-0.21588-1.7383-0.45507zm25.988 0.002c1.2375-0.23836 3.2625-0.23836 4.5 0 1.2375 0.23835 0.225 0.43337-2.25 0.43337s-3.4875-0.19502-2.25-0.43337z" fill="#4aa6d6"/>
 </g>
</svg>
